<?xml version="1.0" encoding="utf-8"?>
<!-- Generator: Adobe Illustrator 21.0.0, SVG Export Plug-In . SVG Version: 6.00 Build 0)  -->
<svg version="1.1" id="Layer_1" xmlns="http://www.w3.org/2000/svg" xmlns:xlink="http://www.w3.org/1999/xlink" x="0px" y="0px"
	 viewBox="0 0 1209 1209" style="enable-background:new 0 0 1209 1209;" xml:space="preserve">
<style type="text/css">
	.st0{fill:#FFFFFF;}
</style>
<g id="surface1">
	<path class="st0" d="M550.8,533.5c-82.9,24.3-139.9,100.3-140,186.7v175.2c0,10.8,8.7,19.5,19.5,19.5h350.4
		c10.8,0,19.5-8.7,19.5-19.5V720.3c-0.1-86.4-57.1-162.4-140-186.7c59.1-25.9,91.9-89.6,78.7-152.7
		c-13.2-63.1-68.9-108.4-133.4-108.4s-120.2,45.2-133.4,108.4C458.9,443.9,491.7,507.7,550.8,533.5z M761.2,720.3V876H449.7V720.3
		c0-86,69.7-155.7,155.7-155.7C691.5,564.5,761.2,634.3,761.2,720.3z M605.5,311.5c53.8,0,97.3,43.6,97.3,97.3s-43.6,97.3-97.3,97.3
		c-53.8,0-97.3-43.6-97.3-97.3C508.2,355.1,551.7,311.5,605.5,311.5z"/>
	<path class="st0" d="M188.6,295.3l-0.7,1.6l8.1,3.4c6,3.6,12.4,6.3,19.2,8.1l8.6,3.6l0.7-1.7c3.7,0.6,7.4,1,11.1,1.1
		c13.9-0.1,27.4-3.9,39.3-11l69,69l27.5-27.5l-69-69c7.1-11.9,10.9-25.5,11-39.3c-0.1-3.7-0.5-7.4-1.1-11.1l1.7-0.7l-3.6-8.6
		c-1.8-6.7-4.5-13.2-8.1-19.2l-3.4-8.1l-1.6,0.7c-2-2.8-4.3-5.5-6.6-8.1c-30.8-29.4-79.3-29.4-110.1,0c-30.4,30.4-30.4,79.7,0,110.1
		C183.1,291,185.8,293.3,188.6,295.3z M208.1,206.1c9.8-10.1,24.2-14.2,37.9-10.6c13.6,3.6,24.2,14.2,27.8,27.8
		c3.6,13.6-0.5,28.1-10.6,37.9c-15.4,14.7-39.7,14.7-55,0C192.9,245.9,192.9,221.3,208.1,206.1z"/>
	<path class="st0" d="M1022.3,911.7l0.7-1.7l-10.9-4.6c-3.8-2-7.8-3.7-11.9-5.1l-13-5.5l-1,2.3c-17.3-2.3-34.8,1-50,9.4L867,837.5
		L839.5,865l69,69c-7.1,11.9-10.9,25.5-11,39.3c0.1,3.7,0.5,7.4,1.1,11.1l-1.7,0.7l3.6,8.6c1.8,6.7,4.5,13.2,8.1,19.2l3.4,8.1
		l1.6-0.7c2,2.8,4.2,5.5,6.6,8.1c19.6,20.2,48.5,28.3,75.7,21.2c27.2-7.1,48.5-28.4,55.6-55.6c7.1-27.2-1-56.2-21.2-75.7
		C1027.9,915.9,1025.2,913.7,1022.3,911.7z M1002.8,1000.9c-15.4,14.7-39.7,14.7-55.1,0c-15.2-15.2-15.2-39.9,0-55.1
		c15.2-15.2,39.9-15.2,55.1,0C1018,961,1018,985.7,1002.8,1000.9z"/>
	<path class="st0" d="M1131.1,525.6c-3.7,0.1-7.5,0.5-11.2,1.1l-1-2.5l-17,7.2c-0.7,0.3-1.5,0.6-2.2,0.9l-16.8,7.1l1.1,2.5
		c-13.8,10.5-23.6,25.3-28,42.1H955.9v38.9H1056c4.4,16.8,14.3,31.6,28.1,42.2l-1.1,2.5l16.8,7.1c0.7,0.3,1.5,0.6,2.2,0.9l16.9,7.1
		l1-2.5c28.8,4.2,57.6-8,74.5-31.7c16.9-23.7,19.2-54.9,5.8-80.8C1186.9,541.8,1160.2,525.6,1131.1,525.6z M1131.1,642.4
		c-21.5,0-38.9-17.4-38.9-38.9c0-21.5,17.4-38.9,38.9-38.9c21.5,0,38.9,17.4,38.9,38.9C1170,625,1152.6,642.4,1131.1,642.4z"/>
	<path class="st0" d="M896.9,221.8l1.7,0.7c-0.6,3.7-1,7.4-1.1,11.1c0.1,13.9,3.9,27.5,11,39.3l-69,69l27.5,27.5l69-69
		c11.9,7.1,25.5,10.9,39.3,11c3.7-0.1,7.4-0.5,11.1-1.1l0.7,1.7l8.6-3.6c6.7-1.8,13.2-4.5,19.2-8.1l8.1-3.4l-0.7-1.6
		c2.8-2,5.5-4.2,8.1-6.6c30.4-30.4,30.4-79.7,0-110.1c-30.8-29.4-79.3-29.4-110.1,0c-2.4,2.5-4.6,5.2-6.6,8.1l-1.6-0.7l-3.4,8.1
		c-3.6,6-6.3,12.4-8.1,19.2L896.9,221.8z M947.8,206.1c9.8-10.1,24.2-14.2,37.9-10.6c13.6,3.6,24.2,14.2,27.8,27.8
		c3.6,13.6-0.5,28.1-10.6,37.9c-15.4,14.7-39.6,14.7-55.1,0C932.6,245.9,932.6,221.3,947.8,206.1z"/>
	<path class="st0" d="M766.6,167.3l15.1-35.9l32.5,13.7L799,181L766.6,167.3z"/>
	<path class="st0" d="M702,139.6l15.1-35.9l32.5,13.7l-15.1,35.9L702,139.6z"/>
	<path class="st0" d="M831.5,194.7l15.1-35.8l32.4,13.7l-15.1,35.8L831.5,194.7z"/>
	<path class="st0" d="M1055.6,732.5l13.7-32.5l35.9,15.1l-13.7,32.5L1055.6,732.5z"/>
	<path class="st0" d="M1000.9,862.4l13.7-32.5l35.9,15.1l-13.7,32.5L1000.9,862.4z"/>
	<path class="st0" d="M1028.2,797.5l13.7-32.5l35.9,15.1l-13.7,32.5L1028.2,797.5z"/>
	<path class="st0" d="M395.7,1061.8l15.1-35.9l32.5,13.7l-15.1,35.9L395.7,1061.8z"/>
	<path class="st0" d="M460.6,1089.2l15.1-35.9l32.4,13.7l-15.1,35.9L460.6,1089.2z"/>
	<path class="st0" d="M331.4,1034.7l15.1-35.9l32.5,13.7l-15.1,35.9L331.4,1034.7z"/>
	<path class="st0" d="M314,985.2l-1.7-0.7c0.6-3.7,1-7.4,1.1-11.1c-0.1-13.9-3.9-27.5-11-39.3l69-69l-27.5-27.5l-69.1,69.2
		c-15.2-8.5-32.8-11.8-50-9.4l-1-2.3l-13,5.5c-4.1,1.3-8.1,3-11.9,5l-10.9,4.6l0.7,1.7c-2.9,2-5.6,4.2-8.1,6.5
		c-20.2,19.6-28.4,48.5-21.2,75.7c7.1,27.2,28.4,48.5,55.6,55.6c27.2,7.1,56.2-1,75.7-21.2c2.4-2.5,4.6-5.2,6.6-8.1l1.6,0.7l3.4-8.1
		c3.6-6,6.3-12.5,8.1-19.2L314,985.2z M263.1,1000.9c-15.4,14.7-39.7,14.7-55,0c-15.2-15.2-15.2-39.9,0-55.1
		c15.2-15.2,39.9-15.2,55.1,0C278.3,961,278.3,985.7,263.1,1000.9z"/>
	<path class="st0" d="M133.1,426.8l13.7-32.5l35.9,15.1L169,441.9L133.1,426.8z"/>
	<path class="st0" d="M105.8,491.8l13.7-32.5l35.9,15.1l-13.7,32.5L105.8,491.8z"/>
	<path class="st0" d="M160.5,361.9l13.7-32.5l35.9,15.1L196.4,377L160.5,361.9z"/>
	<path class="st0" d="M105.8,715.2l35.9-15.1l13.7,32.5l-35.9,15.1L105.8,715.2z"/>
	<path class="st0" d="M160.5,845.1l35.9-15.1l13.7,32.5l-35.9,15.1L160.5,845.1z"/>
	<path class="st0" d="M133.2,780.1L169,765l13.7,32.5l-35.9,15.1L133.2,780.1z"/>
	<path class="st0" d="M109.1,675.5c0.7-0.3,1.5-0.6,2.2-0.9l16.8-7.1L127,665c13.8-10.5,23.6-25.3,28-42.1h100.1V584H155
		c-4.4-16.8-14.3-31.6-28.1-42.2l1.1-2.5l-16.8-7.1c-0.7-0.3-1.5-0.6-2.2-0.9l-16.9-7.1l-1.1,2.5c-3.7-0.6-7.4-1-11.1-1.1
		c-43,0-77.9,34.9-77.9,77.9c0,43,34.9,77.9,77.9,77.9c3.7-0.1,7.5-0.5,11.1-1.1l1.1,2.5L109.1,675.5z M40.9,603.5
		c0-21.5,17.4-38.9,38.9-38.9s38.9,17.4,38.9,38.9c0,21.5-17.4,38.9-38.9,38.9S40.9,625,40.9,603.5z"/>
	<path class="st0" d="M831.9,1012.5l32.5-13.7l15.1,35.9l-32.5,13.7L831.9,1012.5z"/>
	<path class="st0" d="M702,1067.3l32.5-13.7l15.1,35.9l-32.5,13.7L702,1067.3z"/>
	<path class="st0" d="M767,1039.9l32.5-13.7l15.1,35.9l-32.5,13.7L767,1039.9z"/>
	<path class="st0" d="M677.5,1099.9c-0.3-0.7-0.6-1.5-0.9-2.2l-7.1-16.8l-2.5,1.1c-10.5-13.8-25.3-23.6-42.1-28V953.9H586V1054
		c-16.8,4.4-31.6,14.3-42.2,28.1l-2.5-1.1l-7.1,16.8c-0.3,0.7-0.6,1.4-0.9,2.2l-7.1,16.9l2.5,1c-5.3,30.6,8.1,61.3,34,78.3
		c25.9,17,59.5,17,85.4,0c25.9-17,39.3-47.8,34-78.3l2.5-1L677.5,1099.9z M605.5,1168c-21.5,0-38.9-17.4-38.9-38.9
		c0-21.5,17.4-38.9,38.9-38.9s38.9,17.4,38.9,38.9C644.4,1150.6,627,1168,605.5,1168z"/>
	<path class="st0" d="M1000.8,344.5l35.9-15.1l13.7,32.5l-35.9,15.1L1000.8,344.5z"/>
	<path class="st0" d="M1055.6,474.4l35.9-15.1l13.7,32.5l-35.9,15.1L1055.6,474.4z"/>
	<path class="st0" d="M1028.2,409.5l35.9-15.1l13.7,32.5l-35.9,15.1L1028.2,409.5z"/>
	<path class="st0" d="M533.4,107.1c0.3,0.7,0.6,1.5,0.9,2.2l7.1,16.8l2.5-1.1c10.5,13.8,25.3,23.6,42.1,28v100.1h38.9V153
		c16.8-4.4,31.6-14.2,42.2-28.1l2.5,1.1l7.1-16.8c0.3-0.7,0.6-1.4,0.9-2.2l7.1-16.9l-2.5-1c0.6-3.7,1-7.4,1.1-11.2
		c0-43-34.9-77.9-77.9-77.9c-43,0-77.9,34.9-77.9,77.9c0.1,3.7,0.5,7.5,1.1,11.2l-2.5,1L533.4,107.1z M605.5,38.9
		c21.5,0,38.9,17.4,38.9,38.9c0,21.5-17.4,38.9-38.9,38.9s-38.9-17.4-38.9-38.9C566.5,56.4,584,38.9,605.5,38.9z"/>
	<path class="st0" d="M331.4,172.2l32.5-13.7l15.1,35.9l-32.5,13.7L331.4,172.2z"/>
	<path class="st0" d="M461.3,117.5l32.5-13.7l15.1,35.9l-32.5,13.7L461.3,117.5z"/>
	<path class="st0" d="M396.4,144.8l32.5-13.7L444,167l-32.5,13.7L396.4,144.8z"/>
</g>
</svg>
