<?xml version="1.0" encoding="utf-8"?>
<!-- Generator: Adobe Illustrator 21.0.0, SVG Export Plug-In . SVG Version: 6.00 Build 0)  -->
<svg version="1.1" id="Layer_1" xmlns="http://www.w3.org/2000/svg" xmlns:xlink="http://www.w3.org/1999/xlink" x="0px" y="0px"
	 viewBox="0 0 496 496" style="enable-background:new 0 0 496 496;" xml:space="preserve">
<style type="text/css">
	.st0{fill:#FFFFFF;}
</style>
<path class="st0" d="M295.2,58.4c0-3.2,0.8-7.2,0.8-10.4c0-26.4-21.6-48-48-48s-48,21.6-48,48c0,3.2,0.8,7.2,0.8,10.4
	c-19.2,6.4-32.8,24-32.8,45.6v40c0,4.8,3.2,8,8,8h32c4.8,0,8-3.2,8-8v-8h64v8c0,4.8,3.2,8,8,8h32c4.8,0,8-3.2,8-8v-40
	C328,82.4,314.4,64.8,295.2,58.4z M248,16c17.6,0,32,14.4,32,32s-14.4,32-32,32s-32-14.4-32-32S230.4,16,248,16z M312,136h-16v-32
	h-16v16h-64v-16h-16v32h-16v-32c0-14.4,9.6-27.2,23.2-30.4C216,87.2,231.2,96,248,96s32-8.8,40.8-22.4c13.6,4,23.2,16,23.2,30.4V136
	z"/>
<path class="st0" d="M320,168H176c-4.8,0-8,3.2-8,8v144c0,4.8,3.2,8,8,8h144c4.8,0,8-3.2,8-8V176C328,171.2,324.8,168,320,168z
	 M312,312H184V184h128V312z"/>
<path class="st0" d="M144,168h-40c-21.6,0-39.2,13.6-45.6,32.8c-3.2,0-7.2-0.8-10.4-0.8c-26.4,0-48,21.6-48,48s21.6,48,48,48
	c3.2,0,7.2-0.8,10.4-0.8c6.4,19.2,24,32.8,45.6,32.8h40c4.8,0,8-3.2,8-8v-32c0-4.8-3.2-8-8-8h-8v-64h8c4.8,0,8-3.2,8-8v-32
	C152,171.2,148.8,168,144,168z M16,248c0-17.6,14.4-32,32-32s32,14.4,32,32s-14.4,32-32,32S16,265.6,16,248z M136,200h-32v16h16v64
	h-16v16h32v16h-32c-14.4,0-27.2-9.6-30.4-23.2C87.2,280,96,264.8,96,248s-8.8-32-22.4-40.8c4-13.6,16-23.2,30.4-23.2h32V200z"/>
<path class="st0" d="M448,200c-3.2,0-7.2,0.8-10.4,0.8c-6.4-19.2-24-32.8-45.6-32.8h-40c-4.8,0-8,3.2-8,8v32c0,4.8,3.2,8,8,8h8v64
	h-8c-4.8,0-8,3.2-8,8v32c0,4.8,3.2,8,8,8h40c21.6,0,39.2-13.6,45.6-32.8c3.2,0.8,7.2,0.8,10.4,0.8c26.4,0,48-21.6,48-48
	S474.4,200,448,200z M392,312h-32v-16h32v-16h-16v-64h16v-16h-32v-16h32c14.4,0,27.2,9.6,30.4,23.2c-13.6,8.8-22.4,24-22.4,40.8
	s8.8,32,22.4,40.8C419.2,302.4,406.4,312,392,312z M448,280c-17.6,0-32-14.4-32-32s14.4-32,32-32s32,14.4,32,32S465.6,280,448,280z"
	/>
<path class="st0" d="M320,344h-32c-4.8,0-8,3.2-8,8v8h-64v-8c0-4.8-3.2-8-8-8h-32c-4.8,0-8,3.2-8,8v40c0,21.6,13.6,39.2,32.8,45.6
	c0,3.2-0.8,7.2-0.8,10.4c0,26.4,21.6,48,48,48s48-21.6,48-48c0-3.2-0.8-7.2-0.8-10.4c19.2-6.4,32.8-24,32.8-45.6v-40
	C328,347.2,324.8,344,320,344z M248,480c-17.6,0-32-14.4-32-32s14.4-32,32-32s32,14.4,32,32S265.6,480,248,480z M312,392
	c0,14.4-9.6,27.2-23.2,30.4c-8.8-13.6-24-22.4-40.8-22.4s-32,8.8-40.8,22.4c-13.6-4-23.2-16-23.2-30.4v-32h16v32h16v-16h64v16h16
	v-32h16V392z"/>
</svg>
