<?xml version="1.0" encoding="utf-8"?>
<!-- Generator: Adobe Illustrator 16.0.0, SVG Export Plug-In . SVG Version: 6.00 Build 0)  -->
<!DOCTYPE svg PUBLIC "-//W3C//DTD SVG 1.1//EN" "http://www.w3.org/Graphics/SVG/1.1/DTD/svg11.dtd">
<svg version="1.1" id="Layer_1" xmlns="http://www.w3.org/2000/svg" xmlns:xlink="http://www.w3.org/1999/xlink" x="0px" y="0px"
	 width="200px" height="60px" viewBox="0 0 200 60" enable-background="new 0 0 200 60" xml:space="preserve">
<g>
	<g>
		<path fill-rule="evenodd" clip-rule="evenodd" fill="#54B948" d="M72.816,26.33c-1.607-1.608-3.217-3.216-4.827-4.822
			c-0.109-0.108-0.23-0.206-0.31-0.277c-1.068,1.072-2.106,2.113-3.174,3.186c0.081,0.085,0.197,0.211,0.317,0.332
			c0.821,0.821,1.645,1.639,2.463,2.462c0.87,0.876,0.872,1.858,0.008,2.726c-0.83,0.834-1.665,1.663-2.496,2.496
			c-0.118,0.119-0.225,0.249-0.255,0.282c1.083,1.082,2.121,2.121,3.182,3.182c0.06-0.057,0.177-0.161,0.288-0.271
			c1.598-1.596,3.196-3.191,4.792-4.789C74.123,29.517,74.128,27.644,72.816,26.33z"/>
		<path fill-rule="evenodd" clip-rule="evenodd" fill="#007DC3" d="M63.228,33.87c-0.833,0.83-1.663,1.665-2.497,2.496
			c-0.867,0.863-1.849,0.861-2.725-0.009c-0.824-0.818-1.641-1.643-2.462-2.463c-0.121-0.121-0.247-0.236-0.332-0.317
			c0,0-0.001,0.001-0.001,0.001c-0.41-0.41-0.87-0.87-1.342-1.343c0.029,0.07,0.071,0.137,0.13,0.196
			c-0.831-0.833-1.666-1.662-2.496-2.496c-0.864-0.867-0.862-1.85,0.008-2.726c0.818-0.823,1.642-1.641,2.463-2.462
			c0.121-0.121,0.237-0.247,0.317-0.332c-0.001-0.001-0.003-0.003-0.005-0.005c0.324-0.323,0.636-0.636,0.924-0.924
			c0,0.001,0.001,0.001,0.001,0.001c0.084-0.08,0.21-0.196,0.332-0.317c0.821-0.82,1.639-1.645,2.462-2.463
			c0.876-0.87,1.858-0.872,2.725-0.008c0.833,0.83,1.663,1.665,2.497,2.496c0.118,0.118,0.248,0.225,0.282,0.255
			c1.083-1.083,2.121-2.121,3.182-3.182c-0.057-0.061-0.161-0.177-0.272-0.288c-1.595-1.598-3.191-3.195-4.788-4.792
			c-1.318-1.318-3.191-1.324-4.505-0.012c-1.609,1.607-3.215,3.217-4.822,4.826c-0.036,0.036-0.07,0.073-0.103,0.109
			c-0.493,0.489-1.019,1.01-1.559,1.544c0.057-0.047,0.112-0.097,0.165-0.149c-1.61,1.606-3.219,3.214-4.827,4.822
			c-1.312,1.313-1.307,3.187,0.012,4.505c1.597,1.598,3.194,3.193,4.792,4.789c0.111,0.11,0.228,0.215,0.288,0.271
			c1.061-1.061,2.099-2.1,3.182-3.182c-1.072,1.072-2.101,2.101-3.15,3.15c0.378,0.374,0.746,0.739,1.098,1.088
			c0.033,0.036,0.067,0.073,0.103,0.109c1.606,1.609,3.213,3.22,4.822,4.826c1.314,1.313,3.187,1.307,4.505-0.011
			c1.597-1.597,3.193-3.195,4.788-4.793c0.111-0.111,0.215-0.228,0.272-0.288c-1.061-1.061-2.099-2.099-3.182-3.181
			C63.476,33.646,63.346,33.752,63.228,33.87z"/>
	</g>
	<text transform="matrix(1 0 0 1 78.0259 37.6982)" font-family="'HelveticaNeue-Light'" font-size="29.6102" letter-spacing="-1">Activiti</text>
	<text transform="matrix(1 0 0 1 150.8398 23.8081)" font-family="'HelveticaNeue'" font-size="3.0565">TM</text>
</g>
</svg>
