<?xml version="1.0" encoding="utf-8"?>
<!-- Generator: Adobe Illustrator 21.0.2, SVG Export Plug-In . SVG Version: 6.00 Build 0)  -->
<svg version="1.1" id="Layer_1" xmlns="http://www.w3.org/2000/svg" xmlns:xlink="http://www.w3.org/1999/xlink" x="0px" y="0px"
	 viewBox="0 0 130 70" style="enable-background:new 0 0 130 70;" xml:space="preserve">
<style type="text/css">
	.st0{fill:#231F20;}
	.st1{fill:#57A0D2;}
</style>
<g>
	<polygon class="st0" points="38.8,28.3 47.3,28.3 47.3,31.7 42.2,31.7 42.2,33.8 46.4,33.8 46.4,37.1 42.2,37.1 42.2,39.3 
		47.3,39.3 47.3,42.6 38.8,42.6 38.8,28.3 	"/>
	<polygon class="st0" points="34,33.8 34,33.8 33.9,33.2 33.7,32.7 33.5,32.3 33.3,32 33.3,32 33,31.8 32.7,31.7 32.4,31.6 
		32.1,31.5 32.1,31.5 31.6,31.6 31.2,31.9 30.9,32.2 30.7,32.6 30.7,32.6 30.5,33.3 30.3,34 30.2,34.8 30.2,35.6 30.2,35.6 
		30.2,36.5 30.3,37.3 30.5,37.9 30.7,38.5 30.9,38.9 31.3,39.3 31.7,39.4 32.1,39.5 32.1,39.5 32.5,39.4 32.8,39.3 33.2,39.1 
		33.4,38.9 33.6,38.5 33.8,38.1 33.9,37.6 34,37 37.3,37 37.3,37 37.2,38.3 36.9,39.4 36.7,40 36.5,40.5 36.2,40.9 35.9,41.3 
		35.9,41.3 35.5,41.6 35.1,42 34.7,42.3 34.3,42.5 33.9,42.6 33.4,42.8 32.8,42.8 32.3,42.9 32.3,42.9 31.5,42.8 30.7,42.7 30,42.4 
		29.3,42.1 29.3,42.1 28.7,41.6 28.2,41 27.8,40.3 27.4,39.5 27.4,39.5 27.1,38.7 26.9,37.7 26.8,36.7 26.7,35.6 26.7,35.6 
		26.8,34.5 26.9,33.3 27.1,32.3 27.4,31.4 27.4,31.4 27.9,30.6 28.4,29.9 28.9,29.3 29.5,28.9 29.5,28.9 30.1,28.5 30.7,28.3 
		31.4,28.2 31.9,28.1 31.9,28.1 32.6,28.1 33.2,28.2 33.8,28.4 34.4,28.6 34.8,28.8 35.2,29.1 35.6,29.4 35.9,29.8 35.9,29.8 
		36.4,30.7 36.8,31.7 37.1,32.7 37.2,33.8 34,33.8 	"/>
	<polygon class="st0" points="21.9,28.3 25.4,28.3 25.4,42.6 21.9,42.6 21.9,28.3 	"/>
	<polygon class="st0" points="10,28.3 13.1,28.3 16.7,36.2 16.7,33.1 16.7,28.3 20,28.3 20,42.6 16.7,42.6 13.2,34.9 13.1,38.2 
		13.2,42.6 10,42.6 10,28.3 	"/>
	<polygon class="st1" points="37.3,33.9 40.4,33.9 40.4,37 37.3,37 37.3,33.9 	"/>
	<polygon class="st1" points="25.4,33.9 28.5,33.9 28.5,37 25.4,37 25.4,33.9 	"/>
	<polygon class="st1" points="18.8,33.9 21.9,33.9 21.9,37 18.8,37 18.8,33.9 	"/>
	<polygon class="st1" points="50.2,34 53.3,34 53.3,37.1 50.2,37.1 50.2,34 	"/>
	<path class="st0" d="M62.4,38h-4.7l-1.4,3.1h-1.3L60,29.5l5,11.7h-1.4L62.4,38L62.4,38z M61.9,36.8L60,32.4l-1.9,4.5H61.9
		L61.9,36.8z"/>
	<polygon class="st0" points="74,31 74,32.5 74,32.5 73.2,31.9 72.8,31.6 72.4,31.4 72,31.2 71.5,31.1 71.1,31 70.7,31 70.7,31 
		70.2,31 69.7,31.1 69.3,31.2 68.9,31.4 68.6,31.5 68.1,31.8 67.8,32.1 67.4,32.4 67.4,32.4 67.2,32.7 66.9,33.1 66.7,33.5 
		66.5,33.9 66.3,34.3 66.3,34.7 66.2,35.2 66.1,35.6 66.1,35.6 66.2,36.1 66.3,36.6 66.3,37.1 66.5,37.5 66.7,37.9 67,38.4 
		67.3,38.7 67.7,39.1 67.7,39.1 68.4,39.5 69.1,39.9 69.8,40.1 70.7,40.2 70.7,40.2 71.1,40.2 71.6,40.1 72,40 72.4,39.8 72.8,39.6 
		73.2,39.4 74,38.7 74,40.2 74,40.2 73.2,40.7 72.4,41.1 71.5,41.3 70.7,41.4 70.7,41.4 70.1,41.3 69.5,41.2 69,41.1 68.4,40.9 
		67.9,40.7 67.5,40.4 67,40 66.6,39.7 66.6,39.7 66.2,39.3 65.8,38.8 65.6,38.3 65.3,37.8 65.1,37.3 65,36.8 64.9,36.2 64.9,35.6 
		64.9,35.6 64.9,35.1 65,34.5 65.1,34 65.3,33.4 65.6,32.9 65.8,32.4 66.2,32 66.6,31.5 66.6,31.5 67,31.2 67.5,30.8 68,30.5 
		68.5,30.3 69,30.1 69.5,30 70.1,29.8 70.7,29.8 70.7,29.8 71.6,29.9 72.4,30.1 73.2,30.5 74,31 74,31 	"/>
	<polygon class="st0" points="79.3,31.2 79.3,41.2 78.1,41.2 78.1,31.2 75.3,31.2 75.3,30.1 82,30.1 82,31.2 79.3,31.2 	"/>
	<polygon class="st0" points="84.9,30.1 84.9,41.2 83.6,41.2 83.6,30.1 84.9,30.1 	"/>
	<polygon class="st0" points="87,41.2 88.8,29.4 93.1,38.8 97.5,29.4 99.1,41.2 97.9,41.2 96.8,33.4 93.1,41.6 89.3,33.4 88.2,41.2 
		87,41.2 	"/>
	<polygon class="st0" points="102.7,30.1 102.7,41.2 101.4,41.2 101.4,30.1 102.7,30.1 	"/>
	<polygon class="st0" points="106.6,40 112.5,40 112.5,41.2 104.5,41.2 110.6,31.2 105.3,31.2 105.3,30.1 112.7,30.1 106.6,40 	"/>
	<polygon class="st0" points="120,31.2 115.5,31.2 115.5,34.5 119.9,34.5 119.9,35.6 115.5,35.6 115.5,40 120,40 120,41.2 
		114.3,41.2 114.3,30.1 120,30.1 120,31.2 	"/>
</g>
</svg>
