<?xml version="1.0" encoding="utf-8"?>
<!-- Generator: Adobe Illustrator 21.0.0, SVG Export Plug-In . SVG Version: 6.00 Build 0)  -->
<svg version="1.1" id="Layer_1" xmlns="http://www.w3.org/2000/svg" xmlns:xlink="http://www.w3.org/1999/xlink" x="0px" y="0px"
	 viewBox="0 0 130 70" style="enable-background:new 0 0 130 70;" xml:space="preserve">
<style type="text/css">
	.st0{fill:#C62828;}
	.st1{fill:#FFFFFF;}
</style>
<g>
	<path class="st0" d="M82.8,57.9H47.2c-2.8,0-5.1-2.3-5.1-5.1V17.3c0-2.8,2.3-5.1,5.1-5.1h35.7c2.7,0,5.1,2.3,5.1,5.1V53
		C88,55.6,85.6,57.9,82.8,57.9z"/>
	<path class="st1" d="M81.6,33.8v1.1c0,0.1,0,0.1,0,0.1c-0.1,0.4-0.1,1-0.1,1.4c-0.2,1.5-0.9,2.9-1.6,4.2c-1.2,1.9-2.9,3.6-5.1,4.5
		c-1.2,0.6-2.5,1-3.9,1.2c-0.3,0-0.6,0.1-0.9,0.1H58.3c-0.1,0-0.1,0-0.1,0c-1.2-0.1-2.3-0.3-3.3-0.9c-2.4-1-4.1-2.7-5.2-4.9
		c-0.5-1-0.9-2-1-3.2c0-0.3-0.1-0.5-0.1-0.9v-1.1c0-0.1,0-0.1,0-0.1c0.1-1,0.3-1.9,0.6-2.9c1-2.5,2.7-4.4,5.2-5.6
		c1.3-0.6,2.6-1,4.1-1.1c0.6,0,1.4,0,2,0.1c0.1,0,0.1,0,0.2-0.1c1-1,2.2-1.8,3.3-2.5c1.2-0.6,2.5-1,3.9-1.2c0.3,0,0.6-0.1,1-0.1h1
		c0.1,0,0.1,0,0.2,0c0.4,0.1,1,0.1,1.4,0.1c1.5,0.2,2.9,0.8,4.2,1.6c1.9,1.2,3.6,2.9,4.6,5c0.6,1.2,1,2.5,1.2,3.8
		C81.5,33.3,81.5,33.6,81.6,33.8 M63.1,26.8C63.1,26.8,63.1,26.9,63.1,26.8c0.6,0.4,1.4,0.8,1.9,1.2c0.1,0,0.1,0,0.1,0
		c1.7-1.1,3.6-1.4,5.5-1.1c1.9,0.3,3.6,1.3,4.6,2.8c1.4,1.7,1.8,3.7,1.5,5.8c-0.2,1.4-0.9,2.7-1.8,3.8c-1.8,1.9-4.1,2.8-6.8,2.5
		c-1.7-0.2-3-1-4.3-2.2c-1.5-1.5-3-3-4.5-4.5c-0.2-0.2-0.4-0.4-0.6-0.4c-0.5-0.1-1,0.1-1.2,0.6c-0.2,0.4-0.1,0.9,0.2,1.3
		c1.7,1.7,3.3,3.2,5.1,5c0.3,0.3,0.6,0.5,0.9,0.8c1.2,1,2.6,1.4,4.1,1.6c1.2,0.1,2.4,0.1,3.6-0.1c2.3-0.4,4.1-1.6,5.5-3.3
		c1.2-1.4,1.9-3,2.2-5c0.1-1.1,0.1-2.2-0.1-3.2c-0.3-1.7-1.1-3.2-2.3-4.5c-2.3-2.5-5.1-3.6-8.4-3.3c-1.3,0.1-2.5,0.4-3.7,1.1
		C64.1,25.9,63.6,26.4,63.1,26.8 M62.3,44.2C62.2,44,62.2,44,62.2,44c-0.6-0.6-1.4-1.3-2-1.9C60,42,59.9,42,59.7,42
		c-0.6,0-1.4,0-2-0.1c-3.3-0.8-5.4-4.4-4.1-7.7c1-2.5,3.8-4.1,6.4-3.6c1.2,0.2,2.3,0.6,3.1,1.6c1.1,1.1,2.2,2.2,3.2,3.2
		c0.2,0.2,0.5,0.4,0.9,0.3c0.4-0.1,0.8-0.3,0.9-0.6c0.1-0.4,0.1-0.9-0.2-1.2c-1.2-1.2-2.3-2.3-3.3-3.3c-2.3-2-5-2.8-8-1.8
		c-4,1.2-6.4,5.3-5.4,9.3c1,3.6,4.1,6.1,8,6.1c1.1,0,2.2,0,3.1,0C62.1,44.2,62.2,44.2,62.3,44.2"/>
</g>
</svg>
