<?xml version="1.0" encoding="utf-8"?>
<!-- Generator: Adobe Illustrator 21.0.0, SVG Export Plug-In . SVG Version: 6.00 Build 0)  -->
<svg version="1.1" id="Layer_1" xmlns="http://www.w3.org/2000/svg" xmlns:xlink="http://www.w3.org/1999/xlink" x="0px" y="0px"
	 viewBox="0 0 130 70" style="enable-background:new 0 0 130 70;" xml:space="preserve">
<style type="text/css">
	.st0{fill:#B3B3B3;}
	.st1{fill:#A6120D;}
	.st2{fill:#DD1B16;}
	.st3{fill:#F2F2F2;}
</style>
<g>
	<path class="st0" d="M64.9,7.8l-25.6,9l4,33.5l21.5,11.9l21.7-12.1l4-33.5L64.9,7.8z"/>
	<path class="st1" d="M88.2,18.6l-23.3-7.9v48.7l19.5-10.8L88.2,18.6L88.2,18.6z"/>
	<path class="st2" d="M42.2,18.7l3.5,30l19.2,10.7V10.7L42.2,18.7L42.2,18.7z"/>
	<path class="st3" d="M71.2,36.6l-6.5,3H58l-3.1,7.9L49,47.7l15.9-35.3L71.2,36.6L71.2,36.6z M70.6,35l-5.8-11.4l-4.7,11.2h4.7
		L70.6,35L70.6,35z"/>
	<path class="st0" d="M64.8,12.4l0.1,11.3l5.4,11.2h-5.4v4.7h7.5l3.5,8.1l5.6,0.2L64.8,12.4L64.8,12.4z"/>
</g>
</svg>
