<?xml version="1.0" encoding="utf-8"?>
<!-- Generator: Adobe Illustrator 21.0.2, SVG Export Plug-In . SVG Version: 6.00 Build 0)  -->
<svg version="1.1" id="Layer_1" xmlns="http://www.w3.org/2000/svg" xmlns:xlink="http://www.w3.org/1999/xlink" x="0px" y="0px"
	 width="130px" height="70px" viewBox="0 0 130 70" style="enable-background:new 0 0 130 70;" xml:space="preserve">
<style type="text/css">
	.st0{fill:#231F20;}
</style>
<path class="st0" d="M12.7,10.2c-0.7-0.7-1.6-1.1-2.6-1.1c-1,0-1.9,0.4-2.6,1.1h0c-0.7,0.7-1.1,1.6-1.1,2.6c0,1,0.4,1.9,1.1,2.6l0,0
	c0.7,0.7,1.6,1.1,2.6,1.1c1,0,1.9-0.4,2.6-1.1l0,0c0.7-0.7,1-1.6,1-2.6C13.7,11.8,13.3,10.9,12.7,10.2L12.7,10.2L12.7,10.2z
	 M10.1,60.9c1,0,1.9-0.4,2.6-1.1l0,0c0.7-0.7,1-1.6,1-2.6c0-1-0.4-2-1-2.6h0c-0.7-0.7-1.6-1.1-2.6-1.1c-1,0-1.9,0.4-2.6,1.1h0
	c-0.7,0.7-1.1,1.6-1.1,2.6c0,1,0.4,1.9,1.1,2.6l0,0C8.2,60.5,9.1,60.9,10.1,60.9L10.1,60.9z M29.9,49.7c0.9-0.2,1.7-0.9,2.2-1.7
	l0.1-0.1c0.4-0.8,0.5-1.8,0.3-2.7c-0.2-0.9-0.8-1.7-1.7-2.3l-0.1,0c-0.8-0.5-1.8-0.6-2.7-0.3c-0.9,0.2-1.7,0.8-2.2,1.7
	c-0.5,0.9-0.6,1.9-0.4,2.8c0.3,0.9,0.9,1.8,1.7,2.3h0C28,49.8,29,49.9,29.9,49.7L29.9,49.7z M13.8,31.2c-1-1-2.3-1.6-3.7-1.6
	c-1.4,0-2.7,0.6-3.7,1.6c-1,1-1.5,2.3-1.5,3.8c0,1.4,0.5,2.8,1.5,3.8c1,1,2.3,1.6,3.7,1.6s2.8-0.6,3.7-1.6c1-1,1.5-2.4,1.5-3.8
	C15.3,33.6,14.8,32.2,13.8,31.2L13.8,31.2z M11.7,24.9c2.1,0.4,4,1.4,5.5,2.9h0c0.2,0.2,0.5,0.5,0.7,0.8l3.6-2.1
	c-0.5-1.5-0.5-3.1-0.1-4.5c0.5-2,1.8-3.7,3.7-4.8l0.1,0c1.8-1,3.9-1.3,5.9-0.8c2,0.6,3.7,1.9,4.8,3.7v0c1.1,1.9,1.3,4.1,0.8,6.1
	c-0.5,2-1.8,3.7-3.7,4.8l-0.5,0.3h0c-1.7,0.8-3.6,1-5.4,0.5c-1.5-0.4-2.8-1.2-3.8-2.4l-3.6,2.1c0.4,1.2,0.7,2.4,0.6,3.6
	c0,1.3-0.2,2.5-0.6,3.6l3.6,2.1c1-1.2,2.4-2,3.8-2.4c1.9-0.5,4.1-0.3,6,0.8l0.1,0.1v0c1.8,1.1,3,2.8,3.5,4.8c0.5,2,0.3,4.2-0.8,6
	l-0.1,0.1h0c-1,1.8-2.7,3.1-4.7,3.6c-1.9,0.5-4.1,0.3-6-0.8v0c-1.8-1.1-3.1-2.8-3.7-4.8c-0.4-1.5-0.4-3.1,0.1-4.5l-3.6-2.1
	c-0.2,0.3-0.4,0.5-0.7,0.7l0,0c-1.5,1.5-3.4,2.5-5.5,2.9v4.3c1.5,0.3,2.9,1.1,3.9,2.2l0,0c1.4,1.4,2.3,3.4,2.3,5.6
	c0,2.1-0.8,4.1-2.3,5.6l0,0c-1.4,1.4-3.4,2.3-5.6,2.3c-2.2,0-4.1-0.9-5.5-2.3h0v0c-1.5-1.5-2.3-3.5-2.3-5.6c0-2.2,0.9-4.2,2.3-5.6v0
	h0c1.1-1.1,2.4-1.9,3.9-2.2v-4.3c-2.1-0.3-4-1.4-5.5-2.9l0,0c-1.9-1.9-3-4.5-3-7.2c0-2.8,1.1-5.4,2.9-7.2h0c1.5-1.5,3.4-2.5,5.5-2.9
	v-4.3c-1.5-0.3-2.8-1.1-3.9-2.2h0v0c-1.5-1.5-2.3-3.5-2.3-5.6c0-2.1,0.8-4.1,2.3-5.6l0,0C6,5.7,8,4.8,10.1,4.8
	c2.2,0,4.1,0.9,5.6,2.3v0h0c1.4,1.4,2.3,3.5,2.3,5.6c0,2.1-0.8,4.1-2.3,5.6l0,0c-1.1,1.1-2.4,1.8-3.9,2.2L11.7,24.9L11.7,24.9z
	 M32.1,22.1L32.1,22.1c-0.5-0.9-1.3-1.5-2.2-1.7c-0.9-0.3-1.9-0.1-2.8,0.4h0c-0.9,0.5-1.5,1.3-1.7,2.3c-0.3,1-0.1,2,0.4,2.8l0,0
	c0.5,0.9,1.3,1.5,2.2,1.7c0.9,0.3,1.9,0.1,2.8-0.4l0,0c0.8-0.5,1.4-1.3,1.7-2.2C32.7,24,32.6,22.9,32.1,22.1 M48.2,23.3h4.1v12.6
	l5.8-6.6H63L56,37l7.1,9.7h-4.6L52.3,38v8.6h-4.1L48.2,23.3 M67.7,38c0,2.1,1.5,5.3,5.2,5.3c2.3,0,3.7-1.2,4.5-2.8
	c0.4-0.8,0.6-1.6,0.7-2.4c0-0.8-0.1-1.7-0.5-2.4c-0.7-1.6-2.3-3-4.7-3C69.6,32.6,67.7,35.3,67.7,38L67.7,38L67.7,38z M82.1,46.6H78
	v-2.5c-1.1,2-3.3,3-5.7,3c-5.4,0-8.6-4.3-8.6-9.2c0-5.4,3.9-9.2,8.6-9.2c3.1,0,5,1.7,5.7,3.1v-2.5h4.1V46.6 M86.7,32.5h-2.1v-3.2
	h2.1v-1c0-5.1,3.8-5.4,6.7-5.5V26c-1,0-2.7,0-2.7,2.4v0.8h2.7v3.2h-2.7v14.1h-4.1V32.5 M96.2,23.3h4.1v12.6l5.9-6.6h4.9l-7.1,7.6
	l7.1,9.7h-4.6l-6.1-8.6v8.6h-4.1L96.2,23.3 M115.7,38c0,2.1,1.5,5.3,5.2,5.3c2.3,0,3.7-1.2,4.5-2.8c0.4-0.8,0.6-1.6,0.7-2.4
	c0-0.8-0.1-1.7-0.5-2.4c-0.7-1.6-2.3-3-4.7-3C117.5,32.6,115.7,35.3,115.7,38L115.7,38L115.7,38z M130,46.6h-4.1v-2.5
	c-1.1,2-3.3,3-5.7,3c-5.4,0-8.6-4.3-8.6-9.2c0-5.4,3.9-9.2,8.6-9.2c3.1,0,5,1.7,5.7,3.1v-2.5h4.1V46.6"/>
</svg>
