<?xml version="1.0" encoding="utf-8"?>
<!-- Generator: Adobe Illustrator 21.0.0, SVG Export Plug-In . SVG Version: 6.00 Build 0)  -->
<svg version="1.1" id="Layer_1" xmlns="http://www.w3.org/2000/svg" xmlns:xlink="http://www.w3.org/1999/xlink" x="0px" y="0px"
	 width="160px" height="60px" viewBox="0 0 160 60" style="enable-background:new 0 0 160 60;" xml:space="preserve">
<style type="text/css">
	.st0{fill:#231F20;}
</style>
<g>
	<path class="st0" d="M35.3,8.8c-0.6-0.6-1.3-0.9-2.2-0.9c-0.8,0-1.6,0.3-2.2,0.9h0c-0.6,0.6-0.9,1.4-0.9,2.2c0,0.8,0.3,1.6,0.9,2.2
		l0,0c0.6,0.6,1.4,0.9,2.2,0.9c0.9,0,1.6-0.3,2.2-0.9l0,0c0.6-0.6,0.9-1.3,0.9-2.2C36.2,10.2,35.9,9.4,35.3,8.8L35.3,8.8L35.3,8.8z
		 M33.1,52.1c0.9,0,1.6-0.4,2.2-0.9l0,0c0.6-0.6,0.9-1.4,0.9-2.2c0-0.9-0.3-1.7-0.9-2.2h0c-0.6-0.6-1.3-0.9-2.2-0.9
		c-0.8,0-1.6,0.3-2.2,0.9h0c-0.6,0.6-0.9,1.4-0.9,2.2c0,0.8,0.3,1.6,0.9,2.2l0,0C31.5,51.8,32.3,52.1,33.1,52.1L33.1,52.1z
		 M50.1,42.5c0.8-0.2,1.5-0.7,1.9-1.5l0.1-0.1c0.4-0.7,0.5-1.5,0.2-2.3c-0.2-0.8-0.7-1.5-1.4-1.9l0,0c-0.7-0.4-1.5-0.5-2.3-0.3
		c-0.8,0.2-1.5,0.7-1.9,1.5c-0.4,0.7-0.5,1.6-0.3,2.4c0.2,0.8,0.7,1.5,1.4,1.9h0C48.4,42.7,49.3,42.7,50.1,42.5L50.1,42.5z
		 M36.3,26.8c-0.8-0.8-1.9-1.3-3.2-1.3c-1.2,0-2.3,0.5-3.2,1.3c-0.8,0.8-1.3,2-1.3,3.2c0,1.2,0.5,2.4,1.3,3.2
		c0.8,0.8,1.9,1.3,3.2,1.3c1.2,0,2.4-0.5,3.2-1.3c0.8-0.9,1.3-2,1.3-3.2C37.6,28.8,37.1,27.6,36.3,26.8L36.3,26.8z M34.5,21.4
		c1.8,0.3,3.4,1.2,4.7,2.5h0l0.6,0.6l3.1-1.8c-0.4-1.3-0.4-2.6-0.1-3.9c0.4-1.7,1.5-3.2,3.1-4.1l0.1,0c1.5-0.9,3.3-1.1,5-0.7
		c1.7,0.5,3.2,1.6,4.1,3.2v0c0.9,1.6,1.1,3.5,0.7,5.2c-0.4,1.7-1.5,3.2-3.1,4.1l-0.4,0.3h0c-1.4,0.7-3.1,0.8-4.6,0.4
		c-1.3-0.3-2.4-1-3.2-2l-3.1,1.8c0.4,1,0.6,2,0.6,3.1c0,1.1-0.2,2.1-0.6,3.1l3.1,1.8c0.9-1,2-1.7,3.2-2c1.7-0.5,3.5-0.3,5.1,0.7
		l0.1,0v0c1.5,0.9,2.6,2.4,3,4.1c0.5,1.7,0.2,3.6-0.7,5.2L55,43h0c-0.9,1.5-2.3,2.6-4,3.1c-1.7,0.4-3.5,0.3-5.1-0.7v0
		c-1.5-0.9-2.7-2.4-3.1-4.1c-0.3-1.3-0.3-2.6,0.1-3.9l-3.1-1.8l-0.6,0.6l0,0c-1.2,1.3-2.9,2.1-4.7,2.4v3.6c1.3,0.3,2.4,0.9,3.3,1.8
		l0,0c1.2,1.2,2,2.9,2,4.8c0,1.8-0.7,3.5-2,4.8l0,0c-1.2,1.2-2.9,2-4.7,2c-1.8,0-3.5-0.8-4.7-2h0v0c-1.3-1.3-2-3-2-4.8
		c0-1.9,0.8-3.6,2-4.8v0h0c0.9-0.9,2.1-1.6,3.3-1.8v-3.6c-1.8-0.3-3.4-1.2-4.7-2.4l0,0c-1.6-1.6-2.5-3.9-2.5-6.2
		c0-2.4,1-4.6,2.5-6.2h0c1.3-1.3,2.9-2.2,4.7-2.5v-3.6c-1.3-0.3-2.4-0.9-3.3-1.9h0v0c-1.3-1.3-2-3-2-4.8c0-1.8,0.7-3.5,2-4.8l0,0
		c1.2-1.3,2.9-2,4.7-2c1.8,0,3.5,0.8,4.7,2v0h0c1.2,1.2,2,2.9,2,4.8c0,1.8-0.7,3.5-2,4.8l0,0c-0.9,0.9-2.1,1.6-3.3,1.9L34.5,21.4
		L34.5,21.4z M51.9,19L51.9,19c-0.4-0.7-1.1-1.3-1.9-1.5c-0.8-0.2-1.7-0.1-2.4,0.3h0c-0.7,0.4-1.2,1.1-1.5,1.9
		c-0.2,0.8-0.1,1.7,0.3,2.4l0,0c0.4,0.7,1.1,1.2,1.9,1.4c0.8,0.2,1.6,0.1,2.4-0.3l0,0c0.7-0.4,1.2-1.1,1.4-1.9
		C52.4,20.6,52.4,19.7,51.9,19 M65.7,20h3.5v10.7l5-5.6h4.2l-6,6.5l6,8.2h-4l-5.2-7.4v7.4h-3.5L65.7,20 M82.3,32.6
		c0,1.8,1.3,4.5,4.4,4.5c1.9,0,3.2-1,3.9-2.4c0.3-0.7,0.5-1.3,0.6-2.1c0-0.7-0.1-1.4-0.4-2.1c-0.6-1.4-2-2.6-4-2.6
		C83.9,28,82.3,30.3,82.3,32.6L82.3,32.6L82.3,32.6z M94.6,39.9h-3.5v-2.1c-0.9,1.7-2.9,2.6-4.9,2.6c-4.6,0-7.4-3.7-7.4-7.8
		c0-4.6,3.3-7.8,7.4-7.8c2.6,0,4.3,1.4,4.9,2.6v-2.2h3.5V39.9 M98.5,27.9h-1.8v-2.7h1.8v-0.8c0-4.4,3.3-4.6,5.8-4.7v2.7
		c-0.9,0-2.3,0-2.3,2.1v0.7h2.3v2.7h-2.3v12h-3.5V27.9 M106.6,20h3.5v10.7l5-5.6h4.2l-6,6.5l6,8.2h-4l-5.2-7.4v7.4h-3.5L106.6,20
		 M123.2,32.6c0,1.8,1.3,4.5,4.4,4.5c1.9,0,3.2-1,3.9-2.4c0.3-0.7,0.5-1.3,0.6-2.1c0-0.7-0.1-1.4-0.4-2.1c-0.6-1.4-2-2.6-4-2.6
		C124.8,28,123.2,30.3,123.2,32.6L123.2,32.6L123.2,32.6z M135.5,39.9H132v-2.1c-0.9,1.7-2.9,2.6-4.9,2.6c-4.6,0-7.4-3.7-7.4-7.8
		c0-4.6,3.3-7.8,7.4-7.8c2.6,0,4.3,1.4,4.9,2.6v-2.2h3.5V39.9"/>
</g>
</svg>
