<?xml version="1.0" encoding="utf-8"?>
<!-- Generator: Adobe Illustrator 16.0.0, SVG Export Plug-In . SVG Version: 6.00 Build 0)  -->
<!DOCTYPE svg PUBLIC "-//W3C//DTD SVG 1.1//EN" "http://www.w3.org/Graphics/SVG/1.1/DTD/svg11.dtd">
<svg version="1.1" id="Layer_1" xmlns="http://www.w3.org/2000/svg" xmlns:xlink="http://www.w3.org/1999/xlink" x="0px" y="0px"
	 width="170px" height="50px" viewBox="0 0 170 50" enable-background="new 0 0 170 50" xml:space="preserve">
<g>
	<path d="M96.721,26.325c-0.059-5.439,4.43-8.058,4.632-8.185c-2.531-3.691-6.462-4.192-7.863-4.251
		c-3.348-0.334-6.527,1.979-8.224,1.981c-1.695,0.002-4.319-1.914-7.093-1.857c-3.649,0.057-7.007,2.129-8.884,5.396
		c-3.779,6.582-0.946,16.318,2.753,21.647c1.809,2.605,3.963,5.538,6.791,5.428c2.722-0.11,3.749-1.764,7.037-1.768
		c3.289-0.004,4.218,1.753,7.095,1.694c2.929-0.055,4.781-2.665,6.569-5.285c2.069-3.032,2.917-5.965,2.968-6.116
		C102.437,34.982,96.787,32.825,96.721,26.325"/>
	<path d="M91.318,10.372c1.501-1.817,2.511-4.344,2.235-6.861c-2.161,0.088-4.778,1.44-6.33,3.256
		c-1.39,1.608-2.607,4.18-2.278,6.647C87.354,13.6,89.816,12.188,91.318,10.372"/>
</g>
</svg>
