<?xml version="1.0" encoding="utf-8"?>
<!-- Generator: Adobe Illustrator 16.0.0, SVG Export Plug-In . SVG Version: 6.00 Build 0)  -->
<!DOCTYPE svg PUBLIC "-//W3C//DTD SVG 1.1//EN" "http://www.w3.org/Graphics/SVG/1.1/DTD/svg11.dtd">
<svg version="1.1" id="Layer_1" xmlns="http://www.w3.org/2000/svg" xmlns:xlink="http://www.w3.org/1999/xlink" x="0px" y="0px"
	 width="36px" height="35.997px" viewBox="0 0 36 35.997" enable-background="new 0 0 36 35.997" xml:space="preserve">
<g>
	<path fill="#FFFFFF" d="M18,0C8.065,0,0,8.064,0,17.998s8.065,17.999,18,17.999c9.936,0,18-8.063,18-17.999S27.936,0,18,0z
		 M18,34.612c-9.173,0-16.615-7.441-16.615-16.614C1.385,8.826,8.827,1.385,18,1.385s16.615,7.441,16.615,16.613
		C34.615,27.17,27.173,34.612,18,34.612z M22.432,11.872c-0.277-0.277-0.693-0.277-0.971,0c-0.138,0.139-0.207,0.312-0.207,0.484
		c0,0.174,0.069,0.347,0.207,0.484l4.466,4.466H9.069c-0.381,0-0.692,0.311-0.692,0.691s0.312,0.692,0.692,0.692h16.857
		l-4.396,4.465c-0.137,0.104-0.205,0.312-0.205,0.484c0,0.174,0.068,0.347,0.205,0.485c0.277,0.274,0.693,0.274,0.972,0l5.573-5.644
		c0.139-0.104,0.205-0.277,0.205-0.485c0-0.173-0.066-0.346-0.205-0.484L22.432,11.872z"/>
</g>
</svg>
