<?xml version="1.0" encoding="utf-8"?>
<!-- Generator: Adobe Illustrator 16.0.0, SVG Export Plug-In . SVG Version: 6.00 Build 0)  -->
<!DOCTYPE svg PUBLIC "-//W3C//DTD SVG 1.1//EN" "http://www.w3.org/Graphics/SVG/1.1/DTD/svg11.dtd">
<svg version="1.1" id="Layer_1" xmlns="http://www.w3.org/2000/svg" xmlns:xlink="http://www.w3.org/1999/xlink" x="0px" y="0px"
	 width="36.004px" height="36px" viewBox="0 0 36.004 36" enable-background="new 0 0 36.004 36" xml:space="preserve">
<g>
	<g>
		<path d="M18.002,0c-9.935,0-18,8.065-18,18s8.065,18,18,18s18-8.065,18-18S27.937,0,18.002,0z M18.002,34.615
			C8.828,34.615,1.387,27.173,1.387,18S8.828,1.385,18.002,1.385c9.173,0,16.615,7.442,16.615,16.615S27.175,34.615,18.002,34.615z
			 M22.433,11.873c-0.276-0.277-0.692-0.277-0.97,0c-0.139,0.139-0.207,0.312-0.207,0.485c0,0.173,0.068,0.346,0.207,0.484
			l4.466,4.465H9.071c-0.381,0-0.692,0.312-0.692,0.692s0.312,0.692,0.692,0.692h16.857l-4.396,4.465
			c-0.139,0.104-0.209,0.313-0.209,0.485s0.07,0.346,0.209,0.484c0.276,0.277,0.691,0.277,0.969,0l5.572-5.642
			c0.139-0.104,0.209-0.277,0.209-0.485c0-0.173-0.07-0.346-0.209-0.484L22.433,11.873z"/>
	</g>
</g>
</svg>
