<svg width="32" height="32" viewBox="0 0 32 32" fill="none" xmlns="http://www.w3.org/2000/svg">
<g clip-path="url(#clip0_670_46)">
<path d="M8.88182 13.2997C8.88182 13.6875 8.92374 14.002 8.99712 14.2326C9.08098 14.4632 9.1858 14.7148 9.33255 14.9873C9.38496 15.0712 9.40592 15.155 9.40592 15.2284C9.40592 15.3332 9.34303 15.438 9.20676 15.5429L8.54639 15.9831C8.45205 16.046 8.35771 16.0775 8.27385 16.0775C8.16903 16.0775 8.06421 16.025 7.95939 15.9307C7.81264 15.7735 7.68685 15.6058 7.58203 15.438C7.47721 15.2598 7.37239 15.0607 7.25708 14.8196C6.43948 15.784 5.41222 16.2661 4.17533 16.2661C3.29483 16.2661 2.59253 16.0146 2.0789 15.5114C1.56528 15.0083 1.30322 14.3374 1.30322 13.4988C1.30322 12.6079 1.61769 11.8846 2.2571 11.3395C2.89651 10.7944 3.74556 10.5219 4.82522 10.5219C5.18162 10.5219 5.54849 10.5534 5.93633 10.6058C6.32417 10.6582 6.72249 10.742 7.14178 10.8364V10.0712C7.14178 9.27453 6.97406 8.71898 6.64912 8.39403C6.31369 8.06909 5.74765 7.91185 4.94053 7.91185C4.57365 7.91185 4.1963 7.95378 3.80846 8.04812C3.42062 8.14246 3.04326 8.25776 2.67638 8.40451C2.50867 8.47789 2.38288 8.51982 2.30951 8.54078C2.23613 8.56175 2.18372 8.57223 2.14179 8.57223C1.99504 8.57223 1.92167 8.46741 1.92167 8.24728V7.73366C1.92167 7.56594 1.94263 7.44016 1.99504 7.36678C2.04746 7.29341 2.14179 7.22003 2.28854 7.14666C2.65542 6.95798 3.09567 6.80075 3.6093 6.67496C4.12292 6.53869 4.66799 6.4758 5.24451 6.4758C6.49189 6.4758 7.40383 6.75882 7.99083 7.32485C8.56735 7.89089 8.86085 8.75043 8.86085 9.90346V13.2997H8.88182V13.2997ZM4.62606 14.893C4.97197 14.893 5.32837 14.8301 5.70572 14.7043C6.08308 14.5785 6.41851 14.3479 6.70153 14.0334C6.86924 13.8343 6.99503 13.6141 7.05792 13.3626C7.12081 13.111 7.16274 12.807 7.16274 12.4506V12.0104C6.85876 11.937 6.53381 11.8741 6.19839 11.8322C5.86296 11.7903 5.53801 11.7693 5.21306 11.7693C4.51076 11.7693 3.99713 11.9056 3.65122 12.1886C3.30531 12.4716 3.1376 12.8699 3.1376 13.394C3.1376 13.8867 3.26338 14.2536 3.52544 14.5051C3.77701 14.7672 4.14388 14.893 4.62606 14.893ZM13.0432 16.025C12.8545 16.025 12.7288 15.9936 12.6449 15.9202C12.561 15.8573 12.4877 15.7106 12.4248 15.5114L9.96148 7.40871C9.89858 7.19907 9.86714 7.0628 9.86714 6.98942C9.86714 6.82171 9.95099 6.72737 10.1187 6.72737H11.146C11.3451 6.72737 11.4814 6.75882 11.5548 6.83219C11.6386 6.89508 11.7015 7.04183 11.7644 7.241L13.5254 14.1802L15.1606 7.241C15.213 7.03135 15.2759 6.89508 15.3598 6.83219C15.4436 6.7693 15.5904 6.72737 15.7791 6.72737H16.6176C16.8168 6.72737 16.9531 6.75882 17.0369 6.83219C17.1208 6.89508 17.1942 7.04183 17.2361 7.241L18.8923 14.264L20.7057 7.241C20.7686 7.03135 20.8419 6.89508 20.9153 6.83219C20.9992 6.7693 21.1354 6.72737 21.3241 6.72737H22.299C22.4667 6.72737 22.561 6.81123 22.561 6.98942C22.561 7.04183 22.5505 7.09425 22.5401 7.15714C22.5296 7.22003 22.5086 7.30389 22.4667 7.41919L19.9405 15.5219C19.8776 15.7315 19.8042 15.8678 19.7204 15.9307C19.6365 15.9936 19.5002 16.0355 19.322 16.0355H18.4206C18.2214 16.0355 18.0851 16.0041 18.0013 15.9307C17.9174 15.8573 17.8441 15.7211 17.8021 15.5114L16.1774 8.75043L14.5631 15.5009C14.5107 15.7106 14.4478 15.8468 14.364 15.9202C14.2801 15.9936 14.1334 16.025 13.9447 16.025H13.0432V16.025ZM26.5128 16.3081C25.9677 16.3081 25.4226 16.2452 24.8985 16.1194C24.3744 15.9936 23.9656 15.8573 23.6931 15.7001C23.5254 15.6058 23.4101 15.5009 23.3681 15.4066C23.3262 15.3123 23.3052 15.2074 23.3052 15.1131V14.5785C23.3052 14.3584 23.3891 14.2536 23.5463 14.2536C23.6092 14.2536 23.6721 14.264 23.735 14.285C23.7979 14.306 23.8923 14.3479 23.9971 14.3898C24.3535 14.5471 24.7413 14.6728 25.1501 14.7567C25.5694 14.8406 25.9782 14.8825 26.3975 14.8825C27.0579 14.8825 27.5715 14.7672 27.9279 14.5366C28.2843 14.306 28.4729 13.9705 28.4729 13.5408C28.4729 13.2473 28.3786 13.0062 28.1899 12.807C28.0013 12.6079 27.6449 12.4297 27.1312 12.2619L25.6113 11.7903C24.8461 11.5492 24.2801 11.1928 23.9342 10.7211C23.5883 10.2599 23.4101 9.74623 23.4101 9.20116C23.4101 8.76091 23.5044 8.37307 23.6931 8.03764C23.8818 7.70221 24.1333 7.40871 24.4478 7.1781C24.7623 6.93701 25.1187 6.75882 25.5379 6.63303C25.9572 6.50724 26.3975 6.45483 26.8587 6.45483C27.0893 6.45483 27.3304 6.46532 27.561 6.49676C27.8021 6.52821 28.0222 6.57014 28.2423 6.61207C28.452 6.66448 28.6511 6.71689 28.8398 6.77978C29.0285 6.84267 29.1753 6.90557 29.2801 6.96846C29.4268 7.05232 29.5316 7.13617 29.5945 7.23051C29.6574 7.31437 29.6889 7.42967 29.6889 7.57642V8.06909C29.6889 8.28921 29.605 8.40451 29.4478 8.40451C29.3639 8.40451 29.2277 8.36259 29.0495 8.27873C28.452 8.00619 27.7811 7.86992 27.0369 7.86992C26.4394 7.86992 25.9677 7.96426 25.6428 8.16343C25.3178 8.36259 25.1501 8.66657 25.1501 9.09634C25.1501 9.38984 25.2549 9.64141 25.4646 9.84057C25.6742 10.0397 26.0621 10.2389 26.6176 10.4171L28.1061 10.8888C28.8608 11.1299 29.4059 11.4653 29.7308 11.8951C30.0558 12.3248 30.213 12.8175 30.213 13.3626C30.213 13.8133 30.1186 14.2221 29.9405 14.5785C29.7518 14.9349 29.5002 15.2494 29.1753 15.5009C28.8503 15.763 28.4625 15.9517 28.0117 16.0879C27.54 16.2347 27.0474 16.3081 26.5128 16.3081Z" fill="#222222"/>
<path d="M28.4938 21.4022C25.0452 23.9494 20.0347 25.3016 15.7266 25.3016C9.68886 25.3016 4.24863 23.0689 0.139624 19.3582C-0.185323 19.0647 0.108178 18.6664 0.496017 18.897C4.94045 21.4756 10.4226 23.0374 16.0935 23.0374C19.9194 23.0374 24.1228 22.2408 27.9907 20.6056C28.5672 20.3435 29.0599 20.9829 28.4938 21.4022ZM29.9299 19.767C29.4896 19.201 27.0159 19.4945 25.8943 19.6307C25.5588 19.6727 25.5064 19.3792 25.8104 19.159C27.781 17.7754 31.02 18.1737 31.3974 18.6349C31.7747 19.1066 31.2926 22.3456 29.4477 23.897C29.1647 24.1381 28.8922 24.0123 29.0179 23.6978C29.4372 22.6601 30.3701 20.3226 29.9299 19.767Z" fill="#FF9900"/>
</g>
<defs>
<clipPath id="clip0_670_46">
<rect width="31.5168" height="31.5168" fill="white" transform="translate(0 0.151611)"/>
</clipPath>
</defs>
</svg>
