<?xml version="1.0" encoding="utf-8"?>
<!-- Generator: Adobe Illustrator 21.0.0, SVG Export Plug-In . SVG Version: 6.00 Build 0)  -->
<svg version="1.1" id="Layer_1" xmlns="http://www.w3.org/2000/svg" xmlns:xlink="http://www.w3.org/1999/xlink" x="0px" y="0px"
	 viewBox="0 0 130 70" style="enable-background:new 0 0 130 70;" xml:space="preserve">
<style type="text/css">
	.st0{fill:#252F3E;}
	.st1{fill:#FF9900;}
</style>
<g>
	<path class="st0" d="M48.4,29.7c0,0.9,0.1,1.7,0.3,2.3c0.2,0.6,0.5,1.2,0.8,1.8c0.1,0.2,0.2,0.4,0.2,0.6c0,0.3-0.1,0.5-0.5,0.8
		l-1.6,1c-0.3,0.1-0.5,0.3-0.7,0.3c-0.3,0-0.5-0.1-0.8-0.3c-0.3-0.4-0.7-0.8-0.9-1.2c-0.3-0.5-0.5-0.9-0.8-1.5
		c-2,2.3-4.5,3.5-7.4,3.5c-2.2,0-3.8-0.6-5.1-1.8S30,32.3,30,30.3c0-2.2,0.8-3.9,2.3-5.2c1.6-1.3,3.6-2,6.2-2c0.8,0,1.8,0.1,2.7,0.2
		c0.9,0.1,1.9,0.3,2.9,0.6v-1.8c0-2-0.4-3.3-1.2-4c-0.8-0.8-2.2-1.2-4.1-1.2c-0.9,0-1.8,0.1-2.7,0.3c-0.9,0.3-1.8,0.5-2.7,0.8
		c-0.4,0.2-0.7,0.3-0.9,0.3s-0.3,0.1-0.4,0.1c-0.3,0-0.5-0.3-0.5-0.8v-1.4c0-0.4,0.1-0.7,0.2-0.9c0.1-0.2,0.3-0.3,0.7-0.5
		c0.9-0.5,2-0.8,3.2-1.2s2.5-0.5,4-0.5c3,0,5.2,0.7,6.6,2.1c1.4,1.4,2.1,3.5,2.1,6.3L48.4,29.7L48.4,29.7z M38.1,33.6
		c0.8,0,1.7-0.1,2.6-0.5c0.9-0.3,1.7-0.8,2.4-1.6c0.4-0.5,0.7-1,0.8-1.6s0.3-1.4,0.3-2.2v-1c-0.7-0.2-1.5-0.3-2.3-0.5
		C41.1,26,40.2,26,39.4,26c-1.7,0-2.9,0.3-3.8,1s-1.2,1.6-1.2,2.9c0,1.2,0.3,2.1,0.9,2.7C36,33.3,36.9,33.6,38.1,33.6z M58.4,36.3
		c-0.5,0-0.8-0.1-1-0.3c-0.2-0.1-0.4-0.5-0.5-1L51,15.5c-0.1-0.5-0.3-0.8-0.3-1c0-0.4,0.2-0.7,0.6-0.7h2.5c0.5,0,0.8,0.1,1,0.3
		c0.2,0.1,0.3,0.5,0.5,1l4.2,16.8l4-16.8c0.1-0.5,0.3-0.8,0.5-1c0.3-0.1,0.7-0.2,1.1-0.2h2c0.5,0,0.8,0.1,1,0.3
		c0.2,0.1,0.4,0.5,0.5,1l4,17l4.4-17c0.1-0.5,0.3-0.8,0.5-1c0.3-0.1,0.6-0.3,1-0.3h2.3c0.4,0,0.7,0.2,0.7,0.7c0,0.1,0,0.3-0.1,0.4
		c-0.1,0.1-0.1,0.3-0.2,0.7l-6.1,19.6c-0.1,0.5-0.3,0.8-0.5,1s-0.5,0.3-1,0.3h-2.2c-0.5,0-0.8-0.1-1-0.3c-0.2-0.2-0.4-0.5-0.5-1
		L66,18.7l-3.9,16.4c-0.1,0.5-0.3,0.8-0.5,1c-0.2,0.2-0.6,0.3-1,0.3L58.4,36.3L58.4,36.3z M91,37c-1.3,0-2.6-0.1-3.9-0.5
		c-1.2-0.3-2.3-0.7-2.9-1c-0.4-0.3-0.7-0.5-0.8-0.7c-0.1-0.3-0.1-0.5-0.1-0.7v-1.3c0-0.5,0.2-0.8,0.6-0.8c0.1,0,0.3,0,0.5,0.1
		c0.1,0.1,0.4,0.1,0.7,0.3c0.8,0.4,1.8,0.7,2.8,0.9c1,0.2,2,0.3,3,0.3c1.6,0,2.9-0.3,3.7-0.8c0.8-0.6,1.3-1.4,1.3-2.4
		c0-0.7-0.3-1.3-0.7-1.8c-0.5-0.5-1.3-0.9-2.5-1.3l-3.7-1.2c-1.8-0.6-3.2-1.4-4-2.6c-0.8-1.1-1.2-2.3-1.2-3.7c0-1,0.3-2,0.7-2.8
		c0.5-0.8,1-1.5,1.8-2.1c0.8-0.6,1.6-1,2.6-1.3c1-0.3,2.1-0.5,3.2-0.5c0.6,0,1.2,0,1.7,0.1c0.6,0.1,1.1,0.2,1.6,0.3
		c0.5,0.1,1,0.3,1.4,0.4c0.5,0.1,0.8,0.3,1,0.5c0.3,0.2,0.6,0.4,0.8,0.7c0.1,0.2,0.3,0.5,0.3,0.8v1.2c0,0.5-0.2,0.8-0.6,0.8
		c-0.2,0-0.5-0.1-1-0.3c-1.4-0.7-3.1-1-4.9-1c-1.4,0-2.6,0.3-3.4,0.7s-1.2,1.2-1.2,2.3c0,0.7,0.3,1.3,0.8,1.8c0.5,0.5,1.4,1,2.8,1.4
		l3.6,1.2c1.8,0.6,3.1,1.4,3.9,2.4c0.8,1,1.2,2.2,1.2,3.6c0,1.1-0.3,2.1-0.7,2.9c-0.5,0.8-1,1.6-1.8,2.2c-0.8,0.7-1.7,1.1-2.8,1.4
		C93.6,36.8,92.3,37,91,37z"/>
	<path class="st1" d="M95.8,49.4c-8.3,6.2-20.5,9.5-30.9,9.5c-14.6,0-27.8-5.4-37.7-14.4c-0.8-0.7-0.1-1.7,0.8-1.1
		c10.8,6.3,24.1,10,37.7,10c9.3,0,19.4-2,28.8-5.9C96,46.8,97.2,48.4,95.8,49.4z M99.3,45.4c-1-1.4-7-0.7-9.8-0.3
		c-0.8,0.1-0.9-0.6-0.2-1.2c4.8-3.3,12.6-2.4,13.6-1.2c0.9,1.2-0.3,9-4.7,12.7c-0.7,0.6-1.4,0.3-1-0.5
		C98.1,52.4,100.4,46.8,99.3,45.4z"/>
</g>
</svg>
