<?xml version="1.0" encoding="utf-8"?>
<!-- Generator: Adobe Illustrator 21.0.0, SVG Export Plug-In . SVG Version: 6.00 Build 0)  -->
<svg version="1.1" id="balsamiq-logo-print" xmlns="http://www.w3.org/2000/svg" xmlns:xlink="http://www.w3.org/1999/xlink"
	 x="0px" y="0px" viewBox="0 0 130 70" style="enable-background:new 0 0 130 70;" xml:space="preserve">
<style type="text/css">
	.st0{fill:#CF0A2C;}
	.st1{fill:#FFFFFF;}
</style>
<g>
	<path class="st0" d="M18.1,46.8c0,1.7,1.4,3.1,3.1,3.1h87.6c1.7,0,3.1-1.4,3.1-3.1V23.2c0-1.7-1.4-3.1-3.1-3.1H21.2
		c-1.7,0-3.1,1.4-3.1,3.1V46.8z"/>
	<g>
		<path class="st1" d="M33.1,39.9c0-0.6,0.1-1.4,0.1-2.1v-9.7h1.4v5.1l0,0c0.5-0.9,1.4-1.5,2.7-1.5c2,0,3.4,1.7,3.4,4.1
			c0,2.9-1.8,4.3-3.6,4.3c-1.2,0-2.1-0.4-2.7-1.5h-0.1l-0.1,1.3L33.1,39.9L33.1,39.9z M34.6,36.7c0,0.2,0,0.4,0.1,0.5
			c0.3,1,1.2,1.7,2.2,1.7c1.5,0,2.5-1.2,2.5-3.1c0-1.6-0.9-3-2.4-3c-1,0-1.9,0.6-2.2,1.8c0,0.1-0.1,0.4-0.1,0.6
			C34.6,35.2,34.6,36.7,34.6,36.7z"/>
		<path class="st1" d="M47.5,39.9l-0.1-1h-0.1c-0.4,0.6-1.3,1.2-2.5,1.2c-1.7,0-2.5-1.2-2.5-2.3c0-1.9,1.7-3,4.8-3v-0.1
			c0-0.6-0.2-1.9-1.8-1.9c-0.7,0-1.5,0.2-2.1,0.6l-0.4-0.9c0.6-0.4,1.7-0.7,2.7-0.7c2.5,0,3.1,1.7,3.1,3.3v3c0,0.7,0,1.4,0.1,1.9
			C48.8,39.9,47.5,39.9,47.5,39.9z M47.3,35.8c-1.6,0-3.4,0.2-3.4,1.8c0,0.9,0.6,1.4,1.4,1.4c1.1,0,1.7-0.6,1.9-1.4
			c0.1-0.1,0.1-0.3,0.1-0.4C47.3,37.2,47.3,35.8,47.3,35.8z"/>
		<path class="st1" d="M51.3,28.1h1.4v11.8h-1.4V28.1z"/>
		<path class="st1" d="M55.2,38.5c0.4,0.3,1.2,0.6,1.9,0.6c1.1,0,1.6-0.5,1.6-1.2c0-0.7-0.4-1.1-1.5-1.5c-1.4-0.5-2.2-1.3-2.2-2.3
			c0-1.3,1.1-2.4,2.8-2.4c0.8,0,1.5,0.2,1.9,0.5l-0.4,1.1c-0.3-0.2-0.9-0.4-1.7-0.4c-0.9,0-1.4,0.5-1.4,1.1c0,0.6,0.5,0.9,1.5,1.4
			c1.4,0.5,2.1,1.2,2.1,2.5c0,1.4-1.1,2.5-3,2.5c-0.9,0-1.7-0.2-2.2-0.6L55.2,38.5z"/>
		<path class="st1" d="M66.9,39.9l-0.1-1h-0.1c-0.4,0.6-1.3,1.2-2.5,1.2c-1.7,0-2.5-1.2-2.5-2.3c0-1.9,1.7-3,4.8-3v-0.1
			c0-0.6-0.2-1.9-1.8-1.9c-0.7,0-1.5,0.2-2.1,0.6l-0.4-0.9C63,32,64,31.7,65,31.7c2.5,0,3.1,1.7,3.1,3.3v3c0,0.7,0,1.4,0.1,1.9
			C68.2,39.9,66.9,39.9,66.9,39.9z M66.7,35.8c-1.6,0-3.4,0.2-3.4,1.8c0,0.9,0.6,1.4,1.4,1.4c1.1,0,1.7-0.6,1.9-1.4
			c0.1-0.1,0.1-0.3,0.1-0.4C66.7,37.2,66.7,35.8,66.7,35.8z"/>
		<path class="st1" d="M70.7,34.1c0-0.9,0-1.5-0.1-2.2H72l0.1,1.3h0.1c0.4-0.8,1.2-1.5,2.5-1.5c1.1,0,1.9,0.6,2.3,1.6l0,0
			c0.2-0.4,0.6-0.8,0.9-1.1c0.5-0.4,1-0.6,1.8-0.6c1.1,0,2.7,0.7,2.7,3.5v4.8h-1.4v-4.5c0-1.5-0.6-2.5-1.7-2.5
			c-0.9,0-1.5,0.6-1.7,1.3c-0.1,0.2-0.1,0.4-0.1,0.7v5h-1.4v-4.8c0-1.3-0.6-2.2-1.7-2.2c-0.9,0-1.6,0.7-1.8,1.4
			c-0.1,0.2-0.1,0.4-0.1,0.7v4.8h-1.4V34.1L70.7,34.1z"/>
		<path class="st1" d="M86.5,29.6c0,0.5-0.4,0.9-0.9,0.9c-0.5,0-0.9-0.4-0.9-0.9c0-0.5,0.4-0.9,0.9-0.9
			C86.1,28.6,86.5,29.1,86.5,29.6z M84.9,39.9v-8h1.4V40C86.3,39.9,84.9,39.9,84.9,39.9z"/>
		<path class="st1" d="M94.6,38.7L94.6,38.7c-0.4,0.8-1.4,1.4-2.7,1.4c-1.9,0-3.4-1.7-3.4-4.1c0-3,1.9-4.3,3.7-4.3
			c1.2,0,2.1,0.6,2.5,1.4l0,0l0.1-1.2h1.4c0,0.6-0.1,1.4-0.1,2.2v9.2h-1.4V38.7L94.6,38.7z M94.6,35.1c0-0.2,0-0.4-0.1-0.6
			c-0.2-0.9-1-1.7-2.1-1.7c-1.5,0-2.5,1.3-2.5,3.1c0,1.6,0.8,3,2.4,3c0.9,0,1.7-0.6,2.1-1.6c0.1-0.2,0.1-0.5,0.1-0.7V35.1L94.6,35.1
			z"/>
	</g>
	<g>
		<path class="st1" d="M100.3,32.9c0,0.7-0.6,1.2-1.3,1.2c-0.7,0-1.3-0.6-1.3-1.2c0-0.7,0.6-1.2,1.3-1.2
			C99.8,31.6,100.3,32.2,100.3,32.9z M98.2,32.9c0,0.5,0.4,0.9,0.9,0.9c0.5,0,0.9-0.4,0.9-0.9c0-0.5-0.4-0.9-0.9-0.9
			C98.5,31.9,98.2,32.3,98.2,32.9z M98.9,33.5h-0.4v-1.2c0.1,0,0.3-0.1,0.5-0.1c0.3,0,0.4,0.1,0.4,0.1c0.1,0.1,0.1,0.1,0.1,0.3
			c0,0.1-0.1,0.2-0.3,0.3l0,0c0.1,0.1,0.2,0.1,0.2,0.3c0.1,0.1,0.1,0.2,0.1,0.3h-0.4c-0.1-0.1-0.1-0.1-0.1-0.2
			c0-0.1-0.1-0.1-0.2-0.1h-0.1L98.9,33.5L98.9,33.5z M98.9,32.8L98.9,32.8c0.2,0,0.3-0.1,0.3-0.1s-0.1-0.1-0.2-0.1
			c-0.1,0-0.1,0-0.1,0L98.9,32.8L98.9,32.8z"/>
	</g>
</g>
</svg>
