<?xml version="1.0" encoding="utf-8"?>
<!-- Generator: Adobe Illustrator 21.0.0, SVG Export Plug-In . SVG Version: 6.00 Build 0)  -->
<svg version="1.1" id="Layer_1" xmlns="http://www.w3.org/2000/svg" xmlns:xlink="http://www.w3.org/1999/xlink" x="0px" y="0px"
	 viewBox="0 0 1382.8 311.9" style="enable-background:new 0 0 1382.8 311.9;" xml:space="preserve">
<style type="text/css">
	.st0{fill:#00C853;}
</style>
<title>Asset 2</title>
<g id="a62cb1bc-8510-4919-8f31-335e971e4720">
	<g id="_x35_f873757-1543-4287-9901-03c665ef05eb">
		<g id="_x32_81ab70a-9e77-43f6-9fc5-c42c53717359">
			<g id="_x33_80629bf-b566-4a64-98a2-739607a9c668">
				<path class="st0" d="M178.5,99.4c-1.5-0.8-3.4-1-5-0.3c-3,1.4-3.7,1.7-6.9,10.2c-3.6,9.6-6.2,11.2-14.5,12.9
					c-10.8,2.1-22.9-0.4-27.9-5c-5.6-5-6.8-10.8-6.8-22.9c0-14.8,16.2-24.8,23.3-28.6c2.7-1.4,3.4-2.3,4.1-3.4
					c0.9-1.3,1.4-3.3-0.2-6.9c-0.7-1.6-3.2-2.8-5-2.8c-1.8,0-6.3,1.2-15.2,5.2c-15.5,6.9-37.5,21.5-42,49.7
					c-2.7,16.8-1.4,35.3,4.4,48.6c3.9,9,10.2,14.8,18.1,17.5c8.3,2.9,16.5,4.3,26,5.5c8.6,1.1,17.1,1.1,23.9-1.9
					c5.9-2.6,10-7.4,12.6-15.4c1.6-5.1,3.5-14.3,5-21c2.7-11.5,5.2-23.5,6.7-30.7c1.3-5.7,1.6-6,1.2-7.7
					C180.4,102.1,179.2,99.7,178.5,99.4"/>
				<path class="st0" d="M191.6,101.9c-0.2,2.5,0.1,5.3,1.9,12.5c3,11.6,7.2,30.7,11.6,48.7c4.3,17.5,20.4,18.6,36.5,17.3
					c10.1-0.8,18.4-1.5,26.7-4.3c8-2.8,13.5-9.6,17.5-18.7c5.8-13.3,6.6-34,3.9-50.8c-4.6-28.8-27.6-43.4-43.1-50.1
					c-8.4-3.6-12.5-5.1-14.6-4.9c-1.9,0.1-3.7,1-4.8,2.7c-1.3,2.1-1.4,4.7-0.3,7c1,1.7,1.8,2.2,4.4,3.7c7,3.8,25.8,13.7,27.6,33.4
					c1.2,13.8,0.6,19.1-5.9,25.6c-3.6,3.6-12.6,7.5-23.6,5.7c-14-2.4-17.9-11.4-22.3-18.7c-3.1-5.2-3.9-7.9-6.6-10.7
					c-1.6-1.7-3.1-2.4-4.7-2.1C194.5,98.3,191.8,99.5,191.6,101.9"/>
				<path class="st0" d="M186,18.2c-18.4,0-33.2,14.9-33.3,33.2c0,18.4,14.9,33.2,33.2,33.3s33.2-14.9,33.3-33.2l0,0
					C219.2,33.1,204.3,18.2,186,18.2C186,18.2,186,18.2,186,18.2"/>
				<path class="st0" d="M111.6,193.2c20.5,0.2,31,0.2,46,5.9c15,5.7,35.7,27.6,46.6,40.8c10.9,13.2,19.9,26.8,14.1,36.9
					c-13.2,23.1-63.5,21.8-91.8,0.2c-38-29-44.1-42.8-45.8-57.5C79.4,207.8,86.4,192.9,111.6,193.2"/>
				<path class="st0" d="M223.5,251.6c-6.2-10.5-15.8-20.5-27.9-32.7c0,0,13.4-16.2,27.6-18.9c20.3-3.9,40.5-5.5,51-4.7
					c6.2,0.5,11.2,3.7,13.3,8.6c3.5,8,2,11.7-1.9,19.9c-4.5,9.3-14.2,19.8-26.5,29.2c-11.4,8.6-27.1,18.6-29.1,17.3
					C230,270.3,227.6,258.6,223.5,251.6"/>
				<path class="st0" d="M176.6,152.1c-0.6,2.7-1.3,5.4-1.9,8l28.9,23l-3.1-12.1L176.6,152.1z"/>
				<path class="st0" d="M206.6,195.3l-33.9-26.9c-0.6,2.6-1.2,5-1.8,7.3l30.9,24.5C203.3,198.6,204.9,197,206.6,195.3"/>
				<path class="st0" d="M180.5,135.5c-0.6,2.7-1.3,5.4-2,8.3l18.6,14.8l-3.2-12.4L180.5,135.5z"/>
				<path class="st0" d="M168.9,184l-2.4,10l24,18.6c0,0,2.4-2.7,6.1-6.6L168.9,184z"/>
				<path class="st0" d="M188,122.6l2.8,11.2l-8.3-6.5c0.7-2.9,1.3-5.4,1.8-7.5L188,122.6z"/>
				<g>
					<path class="st0" d="M357.4,212.4l-0.1-118.8l41,0c6.7-0.1,13.4,0.6,19.9,2.2c4.9,1.2,9.5,3.3,13.6,6.3c3.4,2.6,6.1,6,7.8,9.9
						c1.7,4.2,2.5,8.6,2.5,13.1c0,2.7-0.4,5.4-1.2,8c-0.8,2.6-2.1,5-3.8,7.2c-1.9,2.3-4.1,4.4-6.6,6c-2.9,2-6.1,3.5-9.5,4.6
						c16.3,3.6,24.5,12.4,24.5,26.4c0.1,4.8-0.9,9.6-2.9,14c-1.9,4.3-4.8,8.1-8.4,11.1c-4,3.3-8.6,5.8-13.5,7.3
						c-6,1.8-12.2,2.7-18.4,2.7L357.4,212.4z M379.5,145h17.7c7.5,0,13.2-1.4,17.1-4.1c3.9-2.8,5.8-7.1,5.8-13.1
						c0-6.2-1.8-10.6-5.3-13.3c-3.5-2.7-9-4-16.4-3.9h-18.9L379.5,145z M379.5,160.3v34.8h22.4c3.5,0.1,7-0.4,10.3-1.5
						c2.5-0.8,4.7-2.2,6.6-4c1.6-1.6,2.9-3.6,3.6-5.8c0.7-2.3,1.1-4.6,1.1-7c0-2.4-0.4-4.7-1.2-6.9c-0.8-2.1-2.1-3.9-3.9-5.3
						c-2-1.6-4.3-2.7-6.7-3.3c-3.3-0.8-6.6-1.2-9.9-1.1L379.5,160.3z"/>
					<path class="st0" d="M594.8,152.8c0.1,8.3-1.4,16.5-4.3,24.2c-2.7,7.2-6.9,13.7-12.2,19.3c-5.4,5.5-11.8,9.9-19,12.7
						c-15.8,6.1-33.3,6.1-49.2,0.1c-7.2-2.9-13.7-7.2-19.1-12.7c-5.4-5.5-9.5-12.1-12.3-19.3c-5.8-15.6-5.8-32.8-0.1-48.4
						c2.7-7.2,6.9-13.7,12.3-19.3c5.4-5.5,11.9-9.8,19-12.7c7.8-3.1,16.2-4.7,24.6-4.6c8.4-0.1,16.8,1.4,24.6,4.6
						c7.1,2.9,13.6,7.2,19,12.7c5.3,5.5,9.5,12,12.3,19.2C593.4,136.3,594.9,144.5,594.8,152.8z M572.1,152.8
						c0.1-5.9-0.8-11.9-2.6-17.5c-1.6-4.9-4.1-9.3-7.5-13.2c-3.3-3.6-7.3-6.5-11.8-8.3c-10.1-3.8-21.2-3.8-31.3,0
						c-4.5,1.8-8.6,4.7-11.9,8.3c-3.4,3.8-5.9,8.3-7.5,13.2c-1.8,5.7-2.7,11.6-2.7,17.5c-0.1,6,0.8,11.9,2.7,17.5
						c1.6,4.9,4.1,9.3,7.5,13.1c3.3,3.6,7.3,6.4,11.9,8.2c5,2,10.3,2.9,15.7,2.9c5.4,0.1,10.7-0.9,15.6-2.9
						c4.5-1.8,8.5-4.7,11.8-8.3c3.4-3.8,5.9-8.3,7.4-13.2C571.3,164.7,572.2,158.7,572.1,152.8L572.1,152.8z"/>
					<path class="st0" d="M734.2,152.6c0.1,8.2-1.4,16.3-4.3,24c-5.5,14.3-16.8,25.6-31.2,31.1c-7.8,3-16.2,4.5-24.6,4.4l-45.4,0
						l-0.1-118.8l45.4-0.1c8.4-0.1,16.7,1.4,24.6,4.4c7.1,2.7,13.6,6.9,19,12.2c5.3,5.3,9.5,11.7,12.2,18.7
						C732.8,136.3,734.3,144.4,734.2,152.6z M711.6,152.6c0.1-6-0.8-11.9-2.7-17.5c-1.6-4.8-4.1-9.3-7.5-13.1
						c-3.3-3.6-7.3-6.4-11.8-8.2c-5-2-10.3-2.9-15.7-2.9h-23.1l0.1,83.6h23.1c5.4,0.1,10.7-0.9,15.6-2.9c4.5-1.8,8.5-4.6,11.8-8.2
						c3.4-3.8,5.9-8.3,7.5-13.1C710.8,164.6,711.7,158.6,711.6,152.6L711.6,152.6z"/>
					<path class="st0" d="M842.8,93.1v17.6l-52.7,0.1v32.9l41.5,0v17l-41.5,0v33.6l52.7-0.1v17.7l-74.9,0.1l0-118.8L842.8,93.1z"/>
					<path class="st0" d="M962.1,93v18.2h-35.7l0.1,100.6h-22.1l-0.1-100.6h-35.9V93L962.1,93z"/>
					<path class="st0" d="M1015.5,165.3v46.4h-22.1l-0.1-118.8h36.2c7-0.1,14,0.7,20.8,2.5c5.2,1.4,10,3.7,14.2,7
						c3.6,2.9,6.4,6.6,8.1,10.8c1.8,4.4,2.6,9.1,2.6,13.8c0,3.9-0.6,7.7-1.8,11.3c-1.1,3.5-2.8,6.8-5.1,9.7c-2.3,3-5.1,5.6-8.2,7.7
						c-3.4,2.3-7.2,4.1-11.1,5.3c2.9,1.7,5.4,4,7.2,6.8l29.8,43.8h-19.9c-1.7,0.1-3.4-0.3-4.9-1.1c-1.4-0.8-2.6-1.9-3.4-3.3l-25-38
						c-0.8-1.3-1.8-2.3-3.1-3c-1.6-0.7-3.3-1-5-0.9H1015.5z M1015.5,149.4h13.8c3.7,0.1,7.4-0.5,10.9-1.6c2.8-0.9,5.4-2.4,7.6-4.3
						c2-1.8,3.5-4,4.5-6.5c1-2.7,1.5-5.5,1.5-8.3c0-6-2-10.7-6-13.9c-4-3.2-10-4.8-18.2-4.8h-14.1L1015.5,149.4z"/>
					<path class="st0" d="M1191.6,92.8v17.6l-52.7,0.1v33h41.5v17h-41.5v33.6l52.7-0.1v17.7l-74.9,0.1l-0.1-118.8L1191.6,92.8z"/>
					<path class="st0" d="M1302.1,92.6v17.6l-52.7,0.1v32.9h41.5v17h-41.5v33.6l52.7-0.1v17.7l-74.9,0.1L1227,92.7L1302.1,92.6z"/>
				</g>
			</g>
		</g>
	</g>
</g>
</svg>
