<?xml version="1.0" encoding="utf-8"?>
<!-- Generator: Adobe Illustrator 21.0.0, SVG Export Plug-In . SVG Version: 6.00 Build 0)  -->
<svg version="1.1" id="Layer_1" xmlns="http://www.w3.org/2000/svg" xmlns:xlink="http://www.w3.org/1999/xlink" x="0px" y="0px"
	 viewBox="0 0 36 36" style="enable-background:new 0 0 36 36;" xml:space="preserve">
<style type="text/css">
	.st0{fill:#000;}
</style>
<g>
	<g>
		<path class="st0" d="M0,18c0,9.9,8.1,18,18,18s18-8.1,18-18S27.9,0,18,0S0,8.1,0,18z M34.6,18c0,9.2-7.4,16.6-16.6,16.6
			S1.4,27.2,1.4,18C1.4,8.8,8.8,1.4,18,1.4S34.6,8.8,34.6,18z M11.9,13.6c-0.3,0.3-0.3,0.7,0,1c0.1,0.1,0.3,0.2,0.5,0.2
			c0.2,0,0.3-0.1,0.5-0.2l4.5-4.5v16.9c0,0.4,0.3,0.7,0.7,0.7c0.4,0,0.7-0.3,0.7-0.7V10.1l4.5,4.4c0.1,0.1,0.3,0.2,0.5,0.2
			s0.3-0.1,0.5-0.2c0.3-0.3,0.3-0.7,0-1l-5.6-5.6c-0.1-0.1-0.3-0.2-0.5-0.2c-0.2,0-0.3,0.1-0.5,0.2L11.9,13.6z"/>
	</g>
</g>
</svg>
