<?xml version="1.0" encoding="utf-8"?>
<!-- Generator: Adobe Illustrator 16.0.0, SVG Export Plug-In . SVG Version: 6.00 Build 0)  -->
<!DOCTYPE svg PUBLIC "-//W3C//DTD SVG 1.1//EN" "http://www.w3.org/Graphics/SVG/1.1/DTD/svg11.dtd">
<svg version="1.1" id="Layer_1" xmlns="http://www.w3.org/2000/svg" xmlns:xlink="http://www.w3.org/1999/xlink" x="0px" y="0px"
	 width="200px" height="60px" viewBox="0 0 200 60" enable-background="new 0 0 200 60" xml:space="preserve">
<g>
	<path fill="#77787B" d="M93.671,39.474l3.188-0.31c0.132,0.391,0.315,0.67,0.552,0.835c0.237,0.169,0.552,0.252,0.948,0.252
		c0.431,0,0.765-0.094,1.002-0.285c0.183-0.138,0.274-0.315,0.274-0.525c0-0.238-0.121-0.42-0.361-0.55
		c-0.175-0.092-0.635-0.204-1.381-0.341c-1.115-0.201-1.891-0.385-2.324-0.556c-0.434-0.171-0.8-0.459-1.096-0.862
		c-0.299-0.404-0.447-0.866-0.447-1.386c0-0.567,0.161-1.057,0.481-1.466c0.321-0.412,0.762-0.72,1.325-0.921
		c0.563-0.202,1.316-0.305,2.265-0.305c0.999,0,1.737,0.08,2.214,0.234c0.477,0.159,0.873,0.401,1.189,0.73
		c0.318,0.329,0.582,0.775,0.795,1.336l-3.046,0.31c-0.081-0.276-0.21-0.479-0.396-0.607c-0.253-0.175-0.558-0.261-0.916-0.261
		c-0.361,0-0.627,0.067-0.792,0.199c-0.167,0.133-0.248,0.294-0.248,0.481c0,0.213,0.105,0.371,0.315,0.479
		c0.21,0.108,0.668,0.204,1.374,0.293c1.066,0.125,1.86,0.296,2.381,0.518c0.522,0.221,0.921,0.536,1.195,0.948
		c0.277,0.409,0.415,0.86,0.415,1.353c0,0.497-0.146,0.982-0.439,1.451c-0.29,0.471-0.752,0.844-1.378,1.12
		c-0.631,0.279-1.487,0.418-2.57,0.418c-1.53,0-2.621-0.224-3.269-0.672C94.274,40.937,93.857,40.298,93.671,39.474L93.671,39.474z"
		/>
	<path fill="#77787B" d="M84.137,39.53l3.188-0.31c0.132,0.39,0.315,0.669,0.552,0.835c0.237,0.168,0.552,0.251,0.947,0.251
		c0.431,0,0.765-0.094,1.002-0.285c0.184-0.138,0.275-0.314,0.275-0.525c0-0.237-0.121-0.42-0.361-0.55
		c-0.175-0.092-0.636-0.204-1.381-0.341c-1.115-0.201-1.891-0.384-2.324-0.556c-0.434-0.171-0.8-0.459-1.096-0.862
		c-0.299-0.403-0.447-0.866-0.447-1.386c0-0.567,0.162-1.057,0.482-1.466c0.32-0.412,0.762-0.72,1.325-0.921
		c0.563-0.202,1.316-0.305,2.265-0.305c0.999,0,1.737,0.08,2.213,0.235c0.477,0.158,0.873,0.4,1.19,0.73
		c0.317,0.328,0.582,0.774,0.794,1.335l-3.046,0.31c-0.081-0.275-0.209-0.478-0.396-0.607c-0.252-0.175-0.557-0.261-0.915-0.261
		c-0.361,0-0.628,0.067-0.792,0.199c-0.167,0.133-0.248,0.294-0.248,0.481c0,0.214,0.105,0.371,0.315,0.479
		c0.21,0.108,0.667,0.204,1.374,0.293c1.066,0.125,1.86,0.296,2.38,0.518c0.522,0.221,0.921,0.536,1.195,0.948
		c0.278,0.409,0.415,0.86,0.415,1.353c0,0.498-0.146,0.982-0.438,1.452c-0.292,0.471-0.751,0.844-1.379,1.12
		c-0.63,0.279-1.486,0.418-2.569,0.418c-1.53,0-2.62-0.225-3.27-0.672C84.741,40.993,84.323,40.354,84.137,39.53L84.137,39.53z"/>
	<path fill="#77787B" d="M80.413,36.735c-0.064-0.64-0.232-1.096-0.501-1.369c-0.272-0.276-0.627-0.415-1.069-0.415
		c-0.512,0-0.918,0.21-1.225,0.625c-0.194,0.261-0.318,0.645-0.369,1.159H80.413L80.413,36.735z M83.677,38.314h-6.436
		c0.056,0.531,0.196,0.923,0.417,1.184c0.31,0.373,0.716,0.559,1.214,0.559c0.315,0,0.617-0.08,0.9-0.243
		c0.175-0.103,0.36-0.282,0.56-0.542l3.165,0.299c-0.485,0.865-1.066,1.484-1.75,1.861c-0.684,0.373-1.664,0.561-2.943,0.561
		c-1.11,0-1.982-0.159-2.621-0.48c-0.635-0.32-1.163-0.832-1.581-1.532c-0.417-0.699-0.627-1.521-0.627-2.468
		c0-1.343,0.419-2.433,1.257-3.263c0.841-0.833,1.999-1.25,3.477-1.25c1.198,0,2.146,0.188,2.838,0.561
		c0.694,0.371,1.225,0.913,1.586,1.619c0.364,0.707,0.544,1.628,0.544,2.763V38.314L83.677,38.314z"/>
	<path fill="#77787B" d="M63.263,33.307h3.131v1.399c0.468-0.572,0.941-0.979,1.42-1.225s1.063-0.371,1.75-0.371
		c0.93,0,1.657,0.273,2.185,0.815c0.524,0.543,0.786,1.381,0.786,2.515v5.471h-3.375v-4.732c0-0.539-0.102-0.921-0.305-1.145
		c-0.206-0.227-0.49-0.338-0.859-0.338c-0.406,0-0.738,0.152-0.989,0.454c-0.253,0.302-0.38,0.846-0.38,1.629v4.132h-3.362V33.307
		L63.263,33.307z"/>
	<polygon fill="#77787B" points="58.392,33.419 61.605,33.419 61.605,42.023 58.392,42.023 58.392,33.419 	"/>
	<polygon fill="#77787B" points="58.392,30.145 61.605,30.145 61.605,32.39 58.392,32.39 58.392,30.145 	"/>
	<path fill="#77787B" d="M48.06,39.401l3.236-0.328c0.134,0.413,0.319,0.709,0.561,0.884c0.24,0.179,0.56,0.267,0.962,0.267
		c0.438,0,0.776-0.1,1.017-0.302c0.186-0.146,0.279-0.333,0.279-0.556c0-0.252-0.123-0.445-0.366-0.583
		c-0.178-0.097-0.645-0.216-1.403-0.36c-1.131-0.213-1.919-0.406-2.359-0.588c-0.44-0.181-0.812-0.486-1.112-0.913
		c-0.304-0.427-0.454-0.916-0.454-1.467c0-0.6,0.164-1.118,0.489-1.551c0.326-0.437,0.774-0.761,1.345-0.975
		s1.336-0.322,2.298-0.322c1.015,0,1.764,0.085,2.248,0.248c0.484,0.168,0.886,0.425,1.208,0.773
		c0.322,0.348,0.59,0.819,0.806,1.414l-3.092,0.327c-0.082-0.292-0.213-0.506-0.402-0.644c-0.257-0.185-0.566-0.275-0.929-0.275
		c-0.366,0-0.637,0.071-0.803,0.211c-0.17,0.141-0.252,0.311-0.252,0.51c0,0.226,0.106,0.393,0.32,0.506
		c0.213,0.114,0.677,0.217,1.394,0.311c1.082,0.132,1.889,0.313,2.417,0.547c0.53,0.234,0.935,0.568,1.214,1.004
		c0.282,0.434,0.421,0.911,0.421,1.432c0,0.526-0.147,1.04-0.446,1.537c-0.295,0.497-0.763,0.893-1.399,1.185
		c-0.64,0.296-1.509,0.442-2.608,0.442c-1.553,0-2.66-0.236-3.319-0.711C48.671,40.949,48.248,40.273,48.06,39.401L48.06,39.401z"/>
	<path fill="#77787B" d="M47.15,41.826h-3.103v-1.427c-0.462,0.586-0.927,1.005-1.398,1.251c-0.471,0.249-1.05,0.373-1.734,0.373
		c-0.914,0-1.629-0.277-2.15-0.832c-0.518-0.554-0.777-1.411-0.777-2.564v-5.6h3.336v4.839c0,0.552,0.1,0.944,0.301,1.176
		c0.203,0.232,0.485,0.349,0.849,0.349c0.398,0,0.722-0.155,0.975-0.464c0.253-0.311,0.378-0.865,0.378-1.666v-4.233h3.322V41.826
		L47.15,41.826z"/>
	<path fill="#77787B" d="M28.831,39.079h1.937c0.656,0,1.116-0.111,1.382-0.335c0.27-0.225,0.404-0.525,0.404-0.905
		c0-0.351-0.132-0.633-0.398-0.846c-0.266-0.213-0.729-0.32-1.396-0.32h-1.929V39.079L28.831,39.079z M28.831,34.413h1.651
		c0.592,0,1.004-0.1,1.239-0.296c0.232-0.199,0.346-0.484,0.346-0.854c0-0.346-0.114-0.617-0.346-0.811
		c-0.234-0.196-0.638-0.294-1.213-0.294h-1.677V34.413L28.831,34.413z M25,29.753h7.11c1.184,0,2.094,0.285,2.727,0.852
		c0.635,0.567,0.953,1.27,0.953,2.104c0,0.703-0.227,1.306-0.678,1.809c-0.303,0.335-0.744,0.601-1.325,0.794
		c0.881,0.205,1.531,0.559,1.949,1.057c0.415,0.501,0.624,1.129,0.624,1.884c0,0.616-0.149,1.17-0.443,1.662
		c-0.297,0.492-0.701,0.879-1.216,1.167c-0.317,0.177-0.799,0.308-1.442,0.387c-0.855,0.108-1.422,0.164-1.702,0.164H25V29.753
		L25,29.753z"/>
	<path fill="#231F20" d="M161.623,39.491l3.239-0.322c0.134,0.406,0.32,0.697,0.561,0.871c0.241,0.176,0.561,0.262,0.963,0.262
		c0.438,0,0.777-0.098,1.019-0.297c0.186-0.144,0.278-0.329,0.278-0.548c0-0.248-0.123-0.438-0.366-0.574
		c-0.178-0.095-0.646-0.214-1.403-0.355c-1.133-0.21-1.921-0.4-2.361-0.58c-0.439-0.179-0.813-0.479-1.113-0.9
		c-0.304-0.42-0.454-0.902-0.454-1.444c0-0.592,0.164-1.103,0.49-1.529c0.325-0.43,0.774-0.75,1.346-0.961s1.338-0.317,2.301-0.317
		c1.015,0,1.764,0.084,2.248,0.245c0.485,0.165,0.887,0.418,1.209,0.761c0.323,0.345,0.591,0.81,0.807,1.395l-3.093,0.323
		c-0.082-0.288-0.213-0.499-0.402-0.635c-0.258-0.182-0.566-0.271-0.93-0.271c-0.367,0-0.638,0.069-0.805,0.208
		c-0.17,0.138-0.252,0.306-0.252,0.502c0,0.222,0.106,0.387,0.32,0.499s0.678,0.214,1.396,0.306c1.082,0.13,1.89,0.309,2.418,0.54
		c0.53,0.23,0.935,0.56,1.214,0.989c0.282,0.428,0.422,0.897,0.422,1.411c0,0.52-0.147,1.023-0.446,1.516
		c-0.295,0.49-0.763,0.879-1.4,1.167c-0.64,0.292-1.51,0.437-2.609,0.437c-1.554,0-2.662-0.234-3.321-0.701
		S161.812,40.352,161.623,39.491L161.623,39.491z"/>
	<path fill="#231F20" d="M159.471,30.834v2.445h1.928v2.449h-1.928v3.107c0,0.374,0.039,0.622,0.112,0.743
		c0.114,0.186,0.314,0.281,0.603,0.281c0.259,0,0.62-0.073,1.084-0.217l0.259,2.319c-0.866,0.181-1.675,0.271-2.428,0.271
		c-0.872,0-1.516-0.107-1.928-0.32c-0.414-0.215-0.721-0.542-0.917-0.977c-0.199-0.437-0.297-1.146-0.297-2.126v-3.082h-1.292
		v-2.449h1.292v-2.444L159.471,30.834L159.471,30.834z"/>
	<path fill="#231F20" d="M151.607,38.437l2.841,0.373c-0.156,0.683-0.414,1.274-0.77,1.775c-0.358,0.5-0.815,0.888-1.372,1.166
		c-0.554,0.274-1.261,0.413-2.118,0.413c-0.827,0-1.517-0.09-2.065-0.267c-0.552-0.179-1.026-0.465-1.422-0.864
		c-0.398-0.399-0.71-0.865-0.933-1.402c-0.225-0.535-0.338-1.246-0.338-2.134c0-0.926,0.135-1.697,0.411-2.313
		c0.2-0.451,0.474-0.856,0.821-1.215c0.35-0.358,0.705-0.628,1.074-0.801c0.581-0.277,1.328-0.417,2.238-0.417
		c1.273,0,2.243,0.264,2.913,0.79c0.667,0.523,1.139,1.292,1.406,2.305l-2.813,0.432c-0.088-0.386-0.249-0.675-0.482-0.868
		c-0.232-0.196-0.544-0.292-0.937-0.292c-0.494,0-0.896,0.205-1.201,0.612c-0.306,0.411-0.459,1.03-0.459,1.86
		c0,0.74,0.153,1.3,0.457,1.686c0.303,0.385,0.689,0.575,1.16,0.575c0.392,0,0.72-0.115,0.987-0.347
		C151.274,39.272,151.475,38.917,151.607,38.437L151.607,38.437z"/>
	<path fill="#231F20" d="M141.306,36.687c-0.064-0.652-0.23-1.118-0.499-1.397c-0.271-0.282-0.625-0.424-1.063-0.424
		c-0.51,0-0.915,0.215-1.22,0.638c-0.193,0.267-0.316,0.659-0.367,1.184H141.306L141.306,36.687z M144.554,38.298h-6.406
		c0.057,0.542,0.195,0.943,0.416,1.209c0.309,0.38,0.713,0.569,1.209,0.569c0.313,0,0.613-0.081,0.895-0.248
		c0.175-0.104,0.359-0.288,0.558-0.553l3.149,0.305c-0.482,0.883-1.062,1.516-1.742,1.899c-0.681,0.381-1.657,0.572-2.93,0.572
		c-1.104,0-1.973-0.163-2.607-0.49c-0.633-0.327-1.158-0.85-1.573-1.564c-0.415-0.714-0.625-1.552-0.625-2.518
		c0-1.372,0.418-2.483,1.252-3.331c0.837-0.849,1.988-1.275,3.46-1.275c1.192,0,2.136,0.191,2.826,0.573
		c0.69,0.378,1.219,0.931,1.578,1.651c0.361,0.723,0.541,1.662,0.541,2.819V38.298L144.554,38.298z"/>
	<path fill="#231F20" d="M130.654,33.231h3.113v8.273c0,1.056-0.072,1.802-0.218,2.243c-0.146,0.438-0.414,0.795-0.805,1.066
		c-0.39,0.274-0.95,0.412-1.679,0.412c-0.6,0-0.92,0.098-1.839,0.031l-0.005-2.5c0.343,0.023,1.003-0.089,1.227-0.397
		c0.137-0.189,0.205-0.567,0.205-1.136V33.231L130.654,33.231z"/>
	<path fill="#231F20" d="M122.9,37.653c0,0.736,0.141,1.272,0.422,1.604c0.284,0.332,0.642,0.497,1.077,0.497
		c0.4,0,0.738-0.163,1.011-0.488c0.27-0.326,0.408-0.876,0.408-1.646c0-0.679-0.135-1.179-0.399-1.496
		c-0.268-0.317-0.591-0.478-0.971-0.478c-0.456,0-0.827,0.165-1.117,0.497C123.045,36.475,122.9,36.978,122.9,37.653L122.9,37.653z
		 M119.535,30.114h3.388v4.107c0.335-0.345,0.718-0.602,1.143-0.775c0.425-0.172,0.898-0.259,1.415-0.259
		c1.063,0,1.947,0.377,2.646,1.128c0.697,0.754,1.046,1.833,1.046,3.238c0,0.938-0.16,1.768-0.478,2.479
		c-0.318,0.715-0.76,1.247-1.322,1.601c-0.563,0.354-1.188,0.53-1.878,0.53c-0.587,0-1.125-0.124-1.614-0.369
		c-0.369-0.197-0.768-0.561-1.204-1.094v1.27h-3.141V30.114L119.535,30.114z"/>
	<path fill="#231F20" d="M109.563,35.854c0,1.231,0.228,1.947,0.685,2.485c0.455,0.537,1.08,0.806,1.865,0.806
		c0.809,0,1.436-0.264,1.877-0.788c0.442-0.527,0.665-1.305,0.665-2.668c0-1.148-0.231-1.805-0.693-2.334s-1.089-0.793-1.883-0.793
		c-0.757,0-1.365,0.269-1.826,0.807C109.795,33.905,109.563,34.614,109.563,35.854L109.563,35.854z M105.8,35.837
		c0-1.99,0.555-3.54,1.661-4.646c1.107-1.11,2.651-1.663,4.627-1.663c2.027,0,3.589,0.545,4.686,1.635
		c1.096,1.087,1.646,2.613,1.646,4.574c0,1.425-0.241,2.594-0.721,3.505s-1.171,1.62-2.075,2.128
		c-0.907,0.509-2.032,0.761-3.385,0.761c-1.373,0-2.51-0.219-3.411-0.655c-0.898-0.44-1.628-1.133-2.188-2.081
		C106.08,38.447,105.8,37.262,105.8,35.837L105.8,35.837z"/>
	<path fill="#231F20" d="M170.846,32.849h1.773v0.385h-0.596v1.175h-0.583v-1.175h-0.595V32.849L170.846,32.849z M172.877,32.849
		h0.768l0.296,0.948l0.294-0.948H175v1.56h-0.477v-1.189l-0.369,1.189h-0.432l-0.369-1.189v1.189h-0.477V32.849L172.877,32.849z"/>
	<circle fill-rule="evenodd" clip-rule="evenodd" fill="#ED1C24" cx="132.326" cy="30.03" r="2.299"/>
	<path fill-rule="evenodd" clip-rule="evenodd" fill="#2A5CAA" d="M99.333,16.951c18.908-3.635,38.441-3.326,38.49,4.662
		c0.013,1.978-1.096,4.155-3.725,5.92c0.351-0.909,0.604-2.301,0.602-3.283c-0.009-7.956-22.28-7.209-39.228-3.956
		c-16.949,3.253-24.947,6.368-31.65,9.197C69.786,25.678,80.425,20.585,99.333,16.951L99.333,16.951z"/>
</g>
</svg>
