<?xml version="1.0" encoding="utf-8"?>
<!-- Generator: Adobe Illustrator 21.0.0, SVG Export Plug-In . SVG Version: 6.00 Build 0)  -->
<svg version="1.1" id="Layer_1" xmlns="http://www.w3.org/2000/svg" xmlns:xlink="http://www.w3.org/1999/xlink" x="0px" y="0px"
	 viewBox="0 0 250 115" style="enable-background:new 0 0 250 115;" xml:space="preserve">
<style type="text/css">
	.st0{fill:#0097D7;}
</style>
<g>
	<g>
		<g>
			<path class="st0" d="M124.8,8.5c1.5,0,2.9-0.3,4.4,0c6.4,0.6,12.7,2.3,18.4,5.3c7.4,3.8,13.7,9.5,18.3,16.4
				c4.7,7,7.5,15.2,8.1,23.6c-0.1,2.2-0.2,4.5,0,6.7c-0.5,6.4-2.1,12.7-4.9,18.5c-3.2,6.7-8.1,12.6-13.9,17.2
				c-7.3,5.7-16.3,9.3-25.5,10.1c-1.4,0.1-2.8,0.4-4.2,0.3c-0.9-0.1-1.9,0.2-2.8-0.1c3.5-9.7,6.9-19.4,10.4-29.1
				c3.8-0.1,7.6,0,11.4,0c2.4-0.1,4.8-1.6,5.6-3.9c3.2-9,6.5-18,9.6-27.1c0.5-1.4,0.8-2.9,0.4-4.3c-0.5-1.8-2.2-3.1-4-3.6
				c-1.5-0.5-3.2-0.3-4.8-0.3c-4.9,0-9.7,0-14.6,0c-0.1,0.2-0.2,0.5-0.3,0.6c-7.9,22.1-15.7,44.2-23.6,66.4
				c-8.1-2.1-15.7-6.3-21.7-12.2c-7.3-7-12.3-16.2-14.2-26.1c-0.6-3-0.8-6-1-9c0.1-6.3,1.2-12.6,3.5-18.4C85.2,24.6,98.5,13,114,9.6
				c-7.9,22-15.7,44.1-23.6,66.1c0.5,0.2,1,0.1,1.6,0.1c2.9,0,5.8,0,8.7,0c0.4,0,0.4-0.6,0.5-0.8c3.5-9.8,7-19.7,10.5-29.5
				c0.2-0.6,0.4-1.2,0.7-1.8c1.8,0,3.6,0,5.4,0c-3.8,10.7-7.6,21.3-11.4,32c0.4,0.2,0.8,0.1,1.3,0.1c3,0,6.1,0,9.1,0
				c3.4-9.7,6.9-19.4,10.4-29.1c0.7-2,0.8-4.3-0.4-6.2c-1-1.6-3-2.4-4.8-2.5c-2.5-0.1-5.1,0-7.6,0C117.8,28.3,121.4,18.4,124.8,8.5z
				"/>
		</g>
		<path class="st0" d="M145,43.9c0.3-0.3,0.8-0.1,1.2-0.2c1.4,0,2.8,0,4.2,0c-3.3,9.3-6.7,18.6-9.9,28c-1.8,0.1-3.7,0.1-5.5,0
			C138.4,62.4,141.7,53.2,145,43.9z"/>
	</g>
</g>
</svg>
