<?xml version="1.0" encoding="utf-8"?>
<!-- Generator: Adobe Illustrator 21.0.0, SVG Export Plug-In . SVG Version: 6.00 Build 0)  -->
<svg version="1.1" id="Layer_1" xmlns="http://www.w3.org/2000/svg" xmlns:xlink="http://www.w3.org/1999/xlink" x="0px" y="0px"
	 viewBox="0 0 250 145" style="enable-background:new 0 0 250 145;" xml:space="preserve">
<style type="text/css">
	.st0{fill:#060503;}
	.st1{fill:#4BA949;}
	.st2{fill:#0E0E0E;}
	.st3{fill:#F6B516;}
	.st4{fill:#010101;}
	.st5{fill:#FBFBFB;}
	.st6{fill:#FAFAFA;}
	.st7{fill:#F6F6F6;}
	.st8{fill:#F7F7F7;}
	.st9{fill:#F5F5F5;}
	.st10{fill:#020202;}
</style>
<g>
	<path class="st0" d="M111.1,117.4c-9.6-0.8-19.1-2.4-28.4-5c-9.2-2.6-18.1-6-26.3-11c-5.5-3.3-10.5-7.1-14.7-11.9
		c-3.5-3.9-6.2-8.3-7.6-13.4c-1.9-6.6-1.3-12.9,1.6-19.1c1.9-4.1,4.6-7.7,7.8-10.8c4.6-4.6,10-8.2,15.7-11.3
		c8-4.2,16.4-7.2,25.1-9.4c6.4-1.6,12.9-2.8,19.5-3.6c6.6-0.8,13.3-1.2,20-1.3c7.2-0.1,14.5,0.3,21.7,1.2c7.3,0.8,14.5,2.1,21.6,4
		c9.4,2.5,18.5,5.9,26.9,10.8c4.8,2.8,9.2,6,13.1,10c3.5,3.5,6.3,7.5,8.1,12.1c3,7.7,2.5,15.2-1.1,22.5c-2.4,5-6,9.1-10.1,12.7
		c-5,4.4-10.6,7.9-16.6,10.9c-8,3.9-16.3,6.7-24.9,8.8c-2.5,0.6-5.1,1.1-7.6,1.6c-0.1,0-0.2,0-0.3,0c0-0.2,0.2-0.2,0.3-0.3
		c0.8-0.6,1.5-1.1,2.3-1.7c0.7-0.5,1.3-1,2.1-1.3c0.1,0,0.2,0,0.2,0c8.2-1.8,16.1-4.3,23.7-7.7c6.3-2.9,12.3-6.3,17.7-10.8
		c3.7-3.1,7-6.6,9.5-10.7c2.6-4.2,4.2-8.8,4.2-13.8c0.1-4.7-1.2-9.1-3.5-13.1c-2.9-5.1-6.9-9.1-11.5-12.6
		c-5.4-4.1-11.3-7.2-17.5-9.8c-11-4.6-22.4-7.3-34.2-8.9c-6-0.8-12-1.3-18.1-1.4c-7-0.2-14.1,0-21.1,0.7c-6.4,0.6-12.7,1.5-19,2.9
		C79.8,28.9,70,32,60.8,36.8c-5,2.6-9.7,5.6-13.9,9.4c-3.5,3.2-6.6,6.7-8.7,11c-3.2,6.4-3.8,13-1.4,19.8c1.6,4.6,4.3,8.6,7.7,12.2
		c3.8,4.1,8.3,7.4,13.1,10.3c7.7,4.6,16.1,7.9,24.7,10.4c8.4,2.4,17,4,25.8,4.9c0.1,0.1,0.3,0.1,0.4,0.2c0.8,0.8,1.7,1.5,2.6,2.1
		C111,117.2,111.1,117.3,111.1,117.4z"/>
	<path class="st1" d="M111.1,117.4c0-0.1-0.1-0.2-0.2-0.3c-0.9-0.7-1.8-1.4-2.6-2.1c-0.1-0.1-0.2-0.1-0.4-0.2c0-0.2-0.1-0.3-0.2-0.4
		c-0.6-0.6-1.1-1.2-1.6-1.9c-0.2-0.2-0.3-0.6-0.6-0.7c0.1-0.1,0.1-0.2,0-0.3c-0.7-1.1-1.3-2.3-2.2-3.2c-1.4-1.4-3.2-2.5-5-3.4
		c-3.2-1.6-6.5-3-9.7-4.4c-3.9-1.7-7.8-3.3-11.8-4.7c-0.4-0.1-0.9-0.1-1.2-0.4c-0.3-0.3,0-0.8,0-1.3c0-0.7,0.1-1.5,0.2-2.2
		c0.2,0.2,0.4,0.3,0.5,0.4c1.7,1.3,3.6,2.2,5.5,3.2c6.2,3.1,12.6,5.9,19.2,8.4c6.9,2.6,13.8,4.9,21,6.5c3,0.7,6,1.2,9.1,1.5
		c2.6,0.2,5.2,0.2,7.8,0.1c2.6-0.1,5.3-0.3,7.9-0.7c5.5-0.8,10.6-2.6,15.4-5.5c3.9-2.3,7.5-5,11.2-7.7c0.5-0.4,0.9-0.8,1.6-1l0,0
		c0,0.1-0.1,0.2-0.2,0.3c-0.8,1-1.7,2.1-2.5,3.1c-1,1.2-1.9,2.5-2.8,3.8c-1,1.3-2.3,2.3-3.6,3.2c-2,1.3-4,2.5-5.9,3.8
		c-0.2,0.1-0.5,0.3-0.6,0.5c-0.8,0.3-1.4,0.9-2.1,1.3c-0.8,0.5-1.6,1.1-2.3,1.7c-0.1,0.1-0.2,0.2-0.3,0.3c-0.9,0.5-1.7,1.3-2.6,1.9
		c-1.7,1.3-3.4,2.7-5.4,3.6c-2.1,1-4.3,1.5-6.5,1.9c-3.7,0.6-7.4,0.9-11.1,0.8c-6.3-0.2-11.9-2.1-17-5.8
		C111.6,117.7,111.4,117.5,111.1,117.4z"/>
	<path class="st2" d="M166.7,120.1c0,2.3-1.7,4.1-4,4.1c-2.3,0-4-1.7-4-4.1c0-2.3,1.7-4.1,4-4.1C165,116,166.7,117.7,166.7,120.1z
		 M159.6,120.1c0,1.1,0.3,2,1.2,2.7c1,0.8,2.2,0.9,3.4,0.4c1.3-0.6,1.8-1.8,1.7-3.1c0-1.4-0.6-2.5-1.9-3
		C161.8,116.1,159.6,117.6,159.6,120.1z"/>
	<path class="st3" d="M159.2,112.1c0.1-0.3,0.4-0.4,0.6-0.5c2-1.3,4-2.6,5.9-3.8c0.1,0,0.2,0,0.3,0c4.7-1.3,9.3-2.9,13.9-4.8
		c6.4-2.7,12.5-6,18-10.3c4.3-3.4,8.1-7.3,10.9-12.1c2-3.6,3.2-7.4,3.2-11.6c0-4.2-1.2-8.2-3.3-11.8c-2.3-3.9-5.3-7.1-8.7-10
		c-4.4-3.7-9.2-6.6-14.3-9.1c-5.5-2.6-11.1-4.7-16.9-6.4c-12.8-3.7-25.8-5.4-39.1-5.8c-4.2-0.1-8.4-0.1-12.6,0.1
		c-8.6,0.4-17,1.4-25.4,3.1c-9,1.8-17.7,4.5-26,8.3c-6.1,2.8-11.8,6.2-16.8,10.6c-3.5,3.1-6.4,6.5-8.5,10.7c-2.2,4.4-3,9-2.2,13.8
		c0.7,4.1,2.4,7.7,4.8,11c3.4,4.8,7.8,8.6,12.7,11.8c6.3,4.2,13.2,7.4,20.4,10c9.5,3.4,19.4,5.5,29.4,6.7c0.4,0.1,0.5,0.4,0.6,0.7
		c0.5,0.7,1,1.3,1.6,1.9c0.1,0.1,0.2,0.2,0.2,0.4c-8.7-0.9-17.3-2.5-25.8-4.9c-8.6-2.5-17-5.8-24.7-10.4c-4.8-2.9-9.2-6.2-13.1-10.3
		c-3.3-3.6-6.1-7.5-7.7-12.2c-2.4-6.8-1.8-13.4,1.4-19.8c2.2-4.3,5.2-7.8,8.7-11c4.2-3.8,8.9-6.8,13.9-9.4c9.2-4.8,19-7.9,29.1-10.1
		c6.3-1.4,12.6-2.3,19-2.9c7-0.7,14-0.9,21.1-0.7c6.1,0.2,12.1,0.6,18.1,1.4c11.8,1.6,23.2,4.3,34.2,8.9c6.2,2.6,12.1,5.8,17.5,9.8
		c4.6,3.5,8.6,7.5,11.5,12.6c2.3,4.1,3.6,8.4,3.5,13.1c-0.1,5-1.6,9.5-4.2,13.8c-2.5,4.1-5.8,7.6-9.5,10.7
		c-5.4,4.5-11.4,7.9-17.7,10.8c-7.6,3.4-15.6,5.9-23.7,7.7C159.4,112,159.3,112,159.2,112.1z"/>
	<path class="st4" d="M105.5,111.9c-10-1.2-19.9-3.3-29.4-6.7c-7.2-2.5-14-5.7-20.4-10c-4.9-3.3-9.3-7-12.7-11.8
		c-2.4-3.3-4.1-6.9-4.8-11c-0.8-4.9,0-9.5,2.2-13.8c2.1-4.2,5-7.6,8.5-10.7c5-4.4,10.8-7.8,16.8-10.6c8.3-3.8,17.1-6.5,26-8.3
		c8.4-1.7,16.9-2.7,25.4-3.1c4.2-0.2,8.4-0.2,12.6-0.1c13.2,0.4,26.3,2.1,39.1,5.8c5.8,1.7,11.5,3.8,16.9,6.4
		c5.1,2.5,10,5.4,14.3,9.1c3.4,2.9,6.4,6.1,8.7,10c2.1,3.6,3.3,7.6,3.3,11.8c0,4.2-1.2,8-3.2,11.6c-2.7,4.8-6.5,8.7-10.9,12.1
		c-5.5,4.3-11.6,7.6-18,10.3c-4.5,1.9-9.1,3.5-13.9,4.8c-0.1,0-0.2,0-0.3,0c1.3-0.9,2.7-1.9,3.6-3.2c0.9-1.3,1.8-2.5,2.8-3.8
		c0.8-1.1,1.7-2.1,2.5-3.1c0.1-0.1,0.2-0.2,0.2-0.3c0,0,0,0,0,0c0,0,0,0,0,0c0,0,0,0,0,0.1c-0.6,0.2-1.1,0.7-1.6,1
		c-3.7,2.6-7.3,5.4-11.2,7.7c-4.8,2.8-9.9,4.6-15.4,5.5c-2.6,0.4-5.3,0.6-7.9,0.7c-2.6,0.1-5.2,0.1-7.8-0.1
		c-3.1-0.2-6.1-0.8-9.1-1.5c-7.2-1.6-14.1-3.9-21-6.5c-6.5-2.5-12.9-5.2-19.2-8.4c-1.9-1-3.8-1.9-5.5-3.2c-0.2-0.1-0.3-0.2-0.5-0.4
		c-0.1,0.8-0.2,1.5-0.2,2.2c0,0.4-0.3,0.9,0,1.3c0.3,0.3,0.8,0.3,1.2,0.4c4,1.4,7.9,3,11.8,4.7c3.3,1.4,6.5,2.8,9.7,4.4
		c1.8,0.9,3.5,1.9,5,3.4c0.9,0.9,1.5,2.1,2.2,3.2C105.6,111.7,105.6,111.8,105.5,111.9z M163.3,101.2c-0.3-0.1-0.4,0-0.6,0.1
		c-4.1,1.6-8.3,2.5-12.7,2.4c-2.5-0.1-5-0.5-7.3-1.5c-1.8-0.8-3.5-1.9-5.3-2.7c-3.4-1.7-6.9-2.5-10.6-2.6c-2.2-0.1-4.4,0.4-6.5,0.9
		c-3.1,0.8-6.2,1.8-9.4,2.3c-2.7,0.4-5.4,0.4-8.1,0.2c-0.3,0-0.7-0.1-1-0.1c-0.3,0-0.7-0.2-1.1-0.1c0.2,0.1,0.3,0.1,0.3,0.2
		c5.4,2.5,11,4.7,16.8,6.3c2.8,0.8,5.7,1.4,8.6,1.7c2.2,0.2,4.4,0.3,6.7,0.3c4.7,0.1,9.4,0,14-0.7c5.1-0.9,10-2.5,14.4-5.3
		C162.1,102,162.7,101.6,163.3,101.2z M66.7,47.2c0-0.9,0.1-1.6,0.2-2.2c0.1-0.6,0.3-1.2,0.8-1.6c0.9-0.7,1.9-1,3-0.7
		c0.7,0.2,1.3,0.3,2,0.3c0.4,0,0.7,0,1,0.2c0.3,0.1,0.6,0.3,0.4,0.8c0,0.1,0,0.2,0,0.3c0.4,0.6,0.4,1.2,0.2,1.8
		c-0.3,1.1,0.1,2.2-0.2,3.3c0,0.1,0,0.3,0,0.4c0.2,1,0.2,2,0,3c-0.1,0.4-0.1,0.7,0,1.1c0,0.2,0.2,0.3,0.1,0.4
		c-0.4,0.6-0.5,1.3-0.2,2c0,0.1,0,0.2,0,0.2c-0.2,1.7-0.2,3.4,0.2,5c0.1,0.5,0.2,1,0.2,1.4c0,0.8-0.3,1.2-1.1,1.2
		c-0.2,0-0.5,0-0.7-0.1c-1-0.2-1.9-0.2-2.8,0.2c-0.3,0.1-0.7,0.3-0.9,0.6c-0.2,0.2-0.3,0.5,0.1,0.7c0.5,0.2,0.6,0.6,0.5,1.2
		c-0.1,0.5,0.1,0.7,0.5,0.7c0.5,0.1,0.9,0,1.3-0.2c1-0.3,1.9-0.4,2.9-0.3c1.5,0.1,2.9,0.4,4.4,0.2c0.9-0.1,1.7-0.1,2.6,0
		c0.4,0.1,0.8,0.1,1.1,0.2c0.6,0.1,0.9-0.2,1.1-0.8c0.2-0.8,0.1-1.5-0.1-2.3c-0.1-0.4-0.4-0.5-0.7-0.6c-0.7-0.2-1.4-0.3-2.1-0.1
		c-0.2,0.1-0.5,0-0.8,0c-0.5,0-0.8-0.2-0.9-0.7c-0.1-0.5-0.1-0.9-0.1-1.4c0-1.1,0.2-2.2-0.1-3.3c-0.2-0.7-0.1-1.4,0.1-2.1
		c0.1-0.3,0.1-0.5,0-0.8c-0.2-0.3-0.2-0.6,0-0.9c0.1-0.1,0.1-0.3,0.1-0.5c-0.1-0.7,0-1.3-0.1-2c-0.2-1.2-0.1-2.5-0.2-3.7
		c-0.1-1-0.1-2,0-3c0.1-1.5,0.8-2.4,2.2-2.8c0.7-0.2,1.4-0.3,2.1-0.3c0.9,0,1.6,0.3,2.1,1.1c0.8,1.3,1.3,2.6,1.1,4.2
		c-0.3,1.5,0.4,2.8,1.6,3.7c0.6,0.4,1.2,0.4,1.6,0c0.6-0.7,1.1-1.5,0.8-2.5c-0.4-1.4-0.4-2.9-0.7-4.3c-0.1-0.4,0-0.9,0.1-1.3
		c0.1-0.6,0.3-1.2,0.3-1.8c0-0.3,0-0.7-0.3-0.9c-0.3-0.2-0.5-0.4-0.6-0.7c-0.1-0.3-0.3-0.4-0.6-0.4c-1.3-0.4-2.6,0.2-3.8-0.1
		c-0.2,0-0.4,0.1-0.6,0.1c-0.5,0.1-1,0.2-1.5,0.2c-0.9,0.1-1.8,0.1-2.6-0.1c-1.6-0.3-3.3,0.1-4.9,0.2c-2,0.1-3.9,0.2-5.9,0.2
		c-0.4,0-0.8,0-1.1-0.2c-0.4-0.2-0.7-0.3-1.1-0.1c-0.3,0.2-0.6,0.1-0.8-0.1c-0.1-0.1-0.3-0.3-0.5-0.2c-0.2,0.2-0.4,0.2-0.6,0
		c-0.2-0.1-0.4-0.1-0.6-0.1c-1.3,0.3-1.7,0.8-1.7,2.1c0,0,0,0.1,0,0.1c-0.1,1,0.3,1.9,0.4,2.9c0,1.5,0.2,3.1,0.1,4.6
		c0,0.6-0.1,1.1,0.1,1.7c0.2,0.6,0.9,1.1,1.5,0.8c0.4-0.2,0.9-0.2,1.3-0.2c0.6,0,0.9-0.2,1-0.8c0-0.3,0.1-0.5,0-0.8
		C66.8,48.7,66.6,47.9,66.7,47.2z M100.2,49.8c0.4,0,0.8,0,1.2,0.1c1.1,0.3,1.7,1,1.7,2.2c0,1.1-0.4,2.1-1.1,2.9
		c-0.5,0.6-1.1,1.1-1.9,1c-1.5-0.1-2.8,0.5-4.2,0.9c-1,0.3-1.5,1.2-2.1,1.9c-0.3,0.4-0.5,0.8-1,1c-0.3,0.2-0.5,0.4-0.5,0.8
		c0,0.6-0.2,1-0.4,1.5c-0.4,1-0.5,2,0,3c0.1,0.2,0.2,0.5,0.3,0.8c0.1,0.5,0.5,0.9,0.9,1.3c1,0.8,2.2,1.1,3.5,1.3
		c0.6,0.1,1.2,0.2,1.7-0.2c0.1,0,0.2-0.1,0.2-0.1c0.6,0.2,1.1-0.1,1.6-0.3c0.2-0.1,0.5-0.3,0.7-0.1c0.2,0.2,0.4,0.1,0.5-0.1
		c0.2-0.2,0.4-0.4,0.7-0.5c0.4-0.2,0.9-0.4,1.3-0.7c0.4-0.2,0.7-0.3,1,0.1c0.1,0.1,0.2,0.2,0.2,0.1c0.4-0.1,0.6,0.2,0.8,0.4
		c0.3,0.3,0.6,0.5,1.1,0.5c0.4,0,0.8,0.1,1.3,0c0.7-0.1,1.4-0.1,2-0.5c0.7-0.4,1-1.2,1.6-1.6c0.1-0.1,0.1-0.3,0.1-0.5
		c-0.1-0.3-0.1-0.7,0.1-1c0.2-0.4,0-0.7-0.3-0.9c-0.3-0.3-1.2-0.3-1.6-0.1c-0.1,0.1-0.2,0.2-0.2,0.3c-0.1,0.6-0.5,1.1-0.9,1.5
		c-0.1,0.1-0.2,0.2-0.3,0.1c-0.2-0.1-0.1-0.2-0.1-0.3c0-0.1,0-0.3-0.1-0.4c-0.4-0.3-0.4-0.6-0.3-1c0.1-0.6,0-1.2,0-1.8
		c0-0.8-0.1-1.7-0.2-2.5c-0.1-1.1,0.2-2.2,0.5-3.3c0.2-0.6,0.3-1.2,0-1.9c-0.1-0.2-0.1-0.4,0-0.6c0.2-0.5-0.1-0.9-0.3-1.3
		c-0.4-0.7-0.7-1.4-0.7-2.1c0-0.3,0-0.5-0.2-0.7c-1-1.5-2.3-2.4-4.1-2.7c-0.4-0.1-0.7-0.1-1.1,0.1c-0.8,0.3-1.7,0-2.5,0.6
		c0,0-0.1,0-0.1,0c-1,0.2-1.9,0.3-2.9,0.5c-0.3,0.1-0.7,0.1-0.9,0.5c0,0.1-0.1,0.2-0.2,0.1c-0.4-0.2-0.6,0.1-0.7,0.4
		c-0.1,0.2-0.3,0.4-0.5,0.5c-0.4,0.3-0.8,0.6-1,1.1c-0.4,1.2-0.5,2.4-0.2,3.6c0.1,0.4,0.4,0.6,0.8,0.7c0.6,0.1,1.3,0.1,1.9,0.2
		c0.7,0.1,1.1-0.5,1.8-0.6c0,0,0.1-0.1,0.1-0.1c0.7-0.8,0.9-1.3,0.4-2.2c-0.4-0.8,0-1.6,0.8-1.9C99.2,49.8,99.7,49.9,100.2,49.8z
		 M113.7,76.7c0.8,0.2,2.5,0.1,3.2-0.2c0.4-0.2,0.8-0.3,1.2-0.4c0.6-0.1,1.1-0.4,1.7-0.7c1.3-0.6,2.4-1.4,3.4-2.4
		c0.5-0.5,1.2-0.9,1.3-1.6c0.1-0.5,0.5-0.8,0.7-1.2c0.1-0.2,0.3-0.5,0.4-0.8c0.2-0.5,0.4-1,0.6-1.5c0.1-0.1,0.1-0.3,0.3-0.4
		c0.3-0.1,0.4-0.4,0.4-0.6c0-0.9,0.8-1.5,0.8-2.5c0,0,0-0.1,0-0.1c0.5-0.1,0.5-0.6,0.6-1c0.8-3.3,2.5-6.3,3.7-9.4c0,0,0-0.1,0-0.1
		c0.8-0.9,0.9-2.1,1.5-3.2c0.3-0.6,0.5-1.2,0.8-1.8c0.8-1.7,1.8-3.3,2.6-4.9c0.1-0.3,0.3-0.5,0.3-0.8c-1.3-0.1-2.2,0.2-3.1,1.1
		c-0.2,0.2-0.4,0.4-0.6,0.6c-1.5,1.7-3,3.5-3.3,5.9c-0.1,0.5-0.4,1-0.7,1.3c-0.4,0.4-0.6,0.9-0.8,1.5c-0.1,0.3-0.1,0.6-0.4,0.8
		c-0.4,0.2-0.5,0.6-0.6,1c-0.2,0.4-0.3,0.9-0.4,1.3c-0.1,0.2-0.2,0.4-0.4,0.5c-0.3,0.1-0.4,0.4-0.5,0.7c-0.2,0.4-0.3,0.9-0.6,1.3
		c-0.3,0.3-0.4,0.3-0.6,0c-0.4-0.6-0.6-1.3-0.9-2c-0.1-0.4-0.1-1-0.8-0.9c0,0,0-0.1-0.1-0.1c-0.3-0.4-0.5-0.8-0.4-1.4
		c0-0.1,0-0.2-0.1-0.3c-0.5-0.2-0.5-0.7-0.6-1.1c0-0.2-0.1-0.4-0.4-0.4c-0.1,0-0.2-0.1-0.1-0.2c0.1-0.1,0.1-0.2,0-0.2
		c-0.7-0.5-0.7-1.5-1.1-2.2c0.2,0,0.3,0,0.4-0.1c0.5-0.1,1.1,0.1,1.4-0.5c0-0.1,0.1,0,0.2,0c0.1,0.1,0.3,0.1,0.4,0.1
		c0.4-0.1,0.8-0.2,0.9-0.7c0.2-0.6,0.5-1.3,0.1-1.9c-0.1-0.1-0.2-0.2-0.3-0.2c-0.8-0.3-1.6-0.5-2.4-0.4c-0.8,0.1-1.7,0.1-2.5-0.1
		c-0.6-0.1-1.2-0.3-1.7,0c-0.4,0.1-0.7,0.2-1.1,0c-0.8-0.3-1.6-0.3-2.4-0.2c-0.5,0-0.9,0.1-1.4,0.1c-0.3,0-0.4,0.1-0.5,0.4
		c-0.2,0.4-0.3,0.9-0.4,1.3c-0.1,0.7,0.1,1,0.8,1.1c0.5,0,1,0.1,1.2,0.6c0.2,0.5,0.5,0.5,0.9,0.5c0.3,0,0.6,0,0.8,0.1
		c0.3,0.1,0.6,0.2,0.7,0.6c0.1,0.5,0.3,0.9,0.6,1.3c0.3,0.5,0.6,1,0.8,1.5c0.5,1.3,1.1,2.7,1.6,4c0.8,1.8,1.5,3.7,2.3,5.5
		c0.3,0.6,0.6,1.3,0.7,2c0,0.3,0.1,0.6,0.3,0.7c0.4,0.3,0.4,0.6,0.3,1c-0.1,0.5-0.3,1-0.6,1.4c-0.2,0.3-0.5,0.7-0.5,1.1
		c0,0.3-0.1,0.5-0.4,0.6c-0.3,0.2-0.5,0.5-0.5,0.8c0,0.3-0.1,0.5-0.3,0.6c-0.2,0.1-0.3,0.3-0.4,0.4c-0.7,1.1-1.7,1.8-2.7,2.6
		c-0.8,0.6-1.8,0.9-2.7,1.5C114.1,76.2,113.8,76.4,113.7,76.7z M163.1,66.9c0.8,0,1.5-0.2,2.2-0.5c1.7-0.8,3.2-2,4.5-3.3
		c0.8-0.9,1.4-1.8,1.4-3.1c0-0.5,0.1-1,0.1-1.5c0.1-0.8,0.2-1.7,0.2-2.5c-0.1-1.5-0.8-2.8-1.7-3.9c-0.3-0.3-0.7-0.5-0.7-1
		c0,0-0.1-0.1-0.2-0.1c-0.4-0.2-0.6-0.4-0.8-0.8c-0.3-0.6-0.8-0.9-1.3-1.3c-0.5-0.4-1.2-0.6-1.8-1c-0.1-0.1-0.3-0.1-0.5-0.1
		c-0.8-0.2-1.6-0.1-2.2-0.6c-0.1,0-0.2,0-0.2,0c-0.7,0-1.4,0.1-2.1,0.2c-0.7,0.1-1.4,0.3-2,0.5c-0.7,0.3-1.3,0.7-2,0.8
		c-0.7,0.1-0.8,1.1-1.6,0.9c0,0,0,0,0,0c-0.5,0.5-0.9,1.1-1.2,1.7c-0.3,0.6-0.6,1.3-0.8,1.9c-0.8,2.3-1.1,4.7-0.2,7.1
		c0.4,1,1,1.8,1.6,2.6c0.7,0.8,1.3,1.7,2.1,2.3c0.1,0.1,0.3,0.2,0.4,0.3c0.5,0.5,1.2,0.6,1.9,0.8c0.3,0.1,0.8-0.2,1,0.3
		c0,0,0.1,0,0.1,0C160.7,66.8,161.9,67,163.1,66.9z M141.2,55.9c0,0.6,0,1.3,0,1.9c0,1.6,0.2,3.2,0.1,4.8c-0.1,1-0.5,1.3-1.4,1.2
		c-0.4-0.1-0.8-0.1-1.2-0.1c-0.8,0-1.2,0.3-1.3,1.1c0,0.4,0,0.7,0.1,1.1c0.2,0.8,0.6,1.3,1.4,1.4c0.8,0.1,1.5,0.1,2.3-0.1
		c1.5-0.2,3.1-0.6,4.7-0.5c1.2,0.1,2.4,0.2,3.5,0.1c0.3,0,0.6,0,0.8-0.3c0.4-0.6,0.4-1.3,0.2-2c-0.2-0.6-0.7-0.7-1.2-0.8
		c-0.5,0-1.1,0-1.6,0c-0.7,0-1-0.2-1.2-0.9c-0.1-0.4-0.2-0.9-0.2-1.3c-0.2-2.2,0.1-4.3,0.2-6.5c0-0.4,0.1-0.8-0.2-1.2
		c-0.1-0.1-0.2-0.3,0-0.3c0.3,0,0.2-0.3,0.2-0.4c0-0.7-0.1-1.3-0.1-2c0.2-2.3,0.4-4.5,0.5-6.8c0-0.5,0.1-0.9,0.3-1.4
		c0.2-0.6,0.2-1.2,0.2-1.8c0.1-1.6-0.4-2.2-2.1-1.9c-0.9,0.1-1.7,0.2-2.6,0c-1.1-0.2-2.3-0.2-3.4,0c-1.1,0.1-1.4,0.6-1.1,1.6
		c0,0.1,0,0.2,0,0.2c0,0.5,0.4,0.8,0.8,0.8c0.3,0,0.7,0.1,1,0.1c0.4,0,0.7,0.2,0.8,0.7c0.2,0.6,0.2,1.2,0.1,1.8
		c-0.1,0.7-0.1,1.4-0.1,2.1c0.1,1.4,0.3,2.9,0.2,4.3C141.2,52.8,141.1,54.3,141.2,55.9z M180.9,59.1c0.1-1.9,0.6-3.7,0.6-5.5
		c0-0.1,0-0.2,0.1-0.3c0.1-0.4,0.3-0.7,0.7-1c0.6-0.5,1.4-0.5,2-0.9c0.2-0.2,0.5-0.1,0.4,0.3c0,0.2-0.1,0.4,0.1,0.6
		c0.4,0.2,0.7,0.5,1.1,0.7c0.7,0.3,1.3,0.3,1.9-0.2c1.3-1,1.7-3.3,0.8-4.7c-0.1-0.2-0.3-0.3-0.5-0.2c-0.3,0-0.6-0.1-0.7-0.3
		c-0.2-0.2-0.4-0.4-0.7-0.5c-1.1-0.3-2.1-0.1-3,0.5c-0.8,0.5-1.5,0.5-2.2-0.2c-0.3-0.3-0.8-0.2-0.9-0.7c0-0.1-0.3-0.1-0.5-0.1
		c-0.2,0-0.4,0.1-0.5,0.2c-0.5,0.4-1.1,0.5-1.8,0.4c-0.6-0.1-1.2-0.2-1.8-0.2c-0.7-0.1-1.5-0.1-2,0.5c-0.1,0.1-0.3,0.2-0.5,0.2
		c-0.3,0.1-0.5,0.3-0.5,0.6c-0.1,0.7,0.1,1.4,0.5,2c0.2,0.3,0.5,0.5,0.8,0.5c0.6,0.1,1.1,0,1.7-0.1c0.9-0.1,1.2,0.3,1.1,1.2
		c-0.2,0.9-0.2,1.7,0,2.5c0.1,0.6,0.2,1.2-0.1,1.8c-0.1,0.2,0,0.4,0,0.6c0.3,1.3,0.1,2.6,0.1,3.9c0,0.7-0.1,1.4,0,2.1
		c0.1,0.5-0.1,0.8-0.7,1c-0.4,0.1-0.7,0.1-1.1,0.1c-0.5,0-0.9,0-1.3,0.1c-0.4,0.1-0.6,0.3-0.6,0.8c0,0.5,0.1,0.9,0.1,1.4
		c0,0.4,0.6,0.9,1,0.9c0.5-0.1,1.1-0.1,1.5,0.2c0.1,0.1,0.2,0.1,0.3,0c1-0.2,2-0.1,3-0.1c0.7,0,1.5-0.3,2.1-0.1
		c0.8,0.2,1.4,0,2.1-0.2c0.5-0.1,0.9-0.2,1.4,0c0.4,0.1,0.6,0,0.6-0.4c0.1-0.6,0.1-1.2,0-1.8c-0.1-0.6-0.3-0.7-0.9-0.8
		c-0.9,0-1.7-0.1-2.6-0.1c-0.7,0-0.8-0.1-0.7-0.8c0.1-0.8,0-1.6-0.2-2.4C180.9,60.1,180.8,59.6,180.9,59.1z M136.4,84.3
		c0,0.1,0.1,0.2,0.1,0.3c0.8,2.1,1.6,4.3,2.5,6.4c0.3,0.7,0.5,1.4,0.8,2.1c0.1,0.2,0.1,0.4,0.4,0.4c0.3,0,0.3-0.2,0.4-0.4
		c0-0.1,0-0.1,0.1-0.2c1.1-2.7,2.2-5.4,3.3-8.1c0.1-0.2,0.1-0.5,0.4-0.6c0,0.1,0.1,0.1,0.1,0.1c0.1,2.4,0.3,4.8,0.3,7.2
		c0,0.6-0.3,1-0.8,1.2c-0.2,0.1-0.4,0.2-0.3,0.5c0.1,0.3,0.3,0.3,0.5,0.3c1.3-0.1,2.6-0.1,3.9,0c0.2,0,0.4,0,0.5-0.3
		c0-0.3-0.1-0.4-0.4-0.4c-0.4-0.1-0.8-0.3-1-0.8c-0.2-0.4-0.2-0.8-0.3-1.2c-0.1-2.9-0.2-5.7-0.3-8.6c0-1,0.1-1.8,1.3-2.1
		c0.2,0,0.3-0.2,0.3-0.4c0-0.2-0.2-0.2-0.4-0.2c-0.6,0-1.2,0.2-1.8,0c-0.4-0.1-0.7,0.1-0.9,0.5c-1.3,3.1-2.5,6.3-3.8,9.4
		c-0.1,0.1-0.1,0.4-0.3,0.4c-0.2,0-0.2-0.2-0.2-0.4c-0.6-1.5-1.2-3-1.8-4.5c-0.6-1.6-1.2-3.2-1.9-4.8c-0.2-0.4-0.4-0.7-0.9-0.6
		c-0.6,0.1-1.3,0.2-1.9,0c-0.2,0-0.4-0.1-0.5,0.2c-0.1,0.3,0.1,0.5,0.3,0.5c1,0.3,1.3,1.1,1.3,2.1c0,1.4,0,2.7-0.1,4.1
		c-0.1,1.6,0,3.3-0.2,4.9c0,0.6-0.3,1-0.9,1.3c-0.1,0.1-0.2,0.1-0.3,0.2c-0.1,0.1-0.2,0.2-0.2,0.4c0,0.2,0.2,0.2,0.4,0.2
		c1.1-0.1,2.2,0,3.3,0c0.2,0,0.4,0,0.4-0.2c0-0.3-0.1-0.4-0.4-0.4c-1-0.2-1.3-0.9-1.4-1.8c-0.1-1.6,0-3.2,0.1-4.8
		C136.3,85.6,136.2,84.9,136.4,84.3z M121.2,93.5C121.2,93.5,121.2,93.5,121.2,93.5c0.2-0.1,0.3-0.1,0.5-0.1c0.5,0,1.1,0,1.6,0.1
		c0.2,0,0.5,0,0.5-0.3c0.1-0.3-0.2-0.4-0.4-0.4c0,0-0.1,0-0.1,0c-0.7-0.2-1-0.5-1-1.2c0-1.4,0-2.8,0-4.2c0-0.2,0.1-0.4,0.3-0.4
		c0.9-0.2,1.5,0.1,1.9,0.9c0.6,1.2,1.1,2.4,1.6,3.6c0.2,0.5,0.4,0.9,0.8,1.3c0.7,0.8,2.2,0.9,3,0.1c0.2-0.2,0.3-0.4,0.2-0.6
		c-0.1-0.2-0.3-0.1-0.5-0.1c-0.4,0.1-0.7,0-0.9-0.4c-0.8-1.6-1.6-3.3-2.4-4.9c-0.2-0.4-0.1-0.5,0.2-0.7c0.6-0.4,1.1-0.9,1.4-1.6
		c0.9-2.6-0.7-5-3.5-5c-1.8,0-3.7,0.2-5.5,0c-0.2,0-0.5,0-0.5,0.3c0,0.3,0.2,0.4,0.4,0.4c1,0.2,1.4,0.7,1.4,1.9c0,1.4,0,2.8,0,4.2
		c0,1.6,0,3.2,0,4.8c0,0.7-0.2,1.4-1,1.7c-0.2,0.1-0.3,0.2-0.3,0.4c0.1,0.3,0.3,0.3,0.5,0.3C119.9,93.5,120.6,93.5,121.2,93.5z
		 M112,93.5c0.8,0,1.5,0,2.3,0c0.2,0,0.3,0,0.3-0.3c0-0.2,0-0.3-0.2-0.4c-0.8-0.1-1.1-0.6-1.3-1.3c-1.5-4-3-7.9-4.5-11.9
		c-0.1-0.2-0.1-0.4-0.3-0.4c-0.3,0-0.3,0.3-0.4,0.4c-1.5,3.9-3,7.9-4.5,11.8c-0.2,0.6-0.5,1.1-1.1,1.4c-0.2,0.1-0.3,0.2-0.3,0.4
		c0.1,0.2,0.3,0.2,0.4,0.2c1,0,1.9-0.1,2.9,0c0.2,0,0.5,0,0.7,0c0.2,0,0.3,0,0.4-0.2c0-0.2-0.1-0.3-0.3-0.4
		c-0.2-0.1-0.4-0.1-0.6-0.2c-0.7-0.3-0.9-0.7-0.8-1.4c0.1-0.7,0.3-1.4,0.6-2.1c0.2-0.4,0.5-0.6,0.9-0.5c1,0,1.9,0,2.9,0
		c0.4,0,0.6,0.1,0.8,0.5c0.2,0.5,0.4,1,0.5,1.4c0.4,1.3,0.4,1.5-0.7,2.3c-0.1,0.1-0.3,0.2-0.2,0.4c0.1,0.2,0.3,0.2,0.4,0.2
		C110.6,93.5,111.3,93.5,112,93.5z M91.8,86.6c0,1.6,0,3.1,0,4.7c0,0.7-0.1,1.4-1,1.6c-0.2,0.1-0.3,0.2-0.3,0.5
		c0,0.3,0.3,0.2,0.4,0.2c1.4,0,2.7-0.1,4.1,0c0.3,0,0.7,0.2,0.7-0.2c0.1-0.4-0.3-0.4-0.6-0.4c-0.7-0.2-1.2-0.7-1.2-1.4
		c-0.1-1.4-0.1-2.8,0-4.2c0-0.4,0.2-0.5,0.6-0.5c0.5,0,0.9,0,1.4,0c0.6,0,1,0.3,1.3,0.9c0.1,0.3,0.2,0.6,0.3,0.9
		c0,0.2,0.1,0.3,0.3,0.3c0.2,0,0.2-0.2,0.2-0.4c0-0.1,0-0.2,0-0.3c0-1.2-0.1-2.3-0.1-3.5c0-0.3,0.1-0.7-0.2-0.8
		c-0.3-0.1-0.4,0.4-0.5,0.6c-0.3,0.8-0.9,1.3-1.8,1.2c-0.3,0-0.5,0-0.8,0c-0.4,0-0.6-0.2-0.6-0.5c0-1.2,0-2.5,0-3.7
		c0-0.5,0.2-0.7,0.7-0.8c0.7-0.1,1.3-0.1,2,0c1.2,0.1,1.6,0.5,1.8,1.7c0,0.2,0,0.5,0.3,0.5c0.4,0,0.3-0.3,0.3-0.6
		c0-0.7-0.1-1.4-0.1-2c0-0.5-0.2-0.7-0.7-0.6c-1.9,0-3.8,0.1-5.7,0.1c-0.7,0-1.5,0-2.2-0.1c-0.2,0-0.4,0-0.5,0.3
		c-0.1,0.2,0.1,0.4,0.3,0.5c0.1,0.1,0.3,0.1,0.5,0.2c0.9,0.3,1.1,0.6,1.1,1.5C91.8,83.5,91.8,85.1,91.8,86.6z M160.1,83.2
		C160.1,83.2,160.1,83.2,160.1,83.2c-0.1-1-0.1-2-0.2-2.9c0-0.4-0.2-0.5-0.5-0.3c-0.4,0.2-0.8,0.2-1.2,0c-0.3-0.2-0.6-0.3-0.9-0.4
		c-1.3-0.4-2.4-0.1-3.3,1c-1.6,1.9-1.1,4.9,1,6.2c0.3,0.2,0.5,0.3,0.8,0.4c0.8,0.4,1.6,0.8,2.4,1.3c0.5,0.3,0.9,0.7,1,1.3
		c0.2,1.1-0.2,2.3-1.1,2.8c-1,0.5-2.2,0.3-3.1-0.5c-0.8-0.8-1.2-1.8-1.5-2.8c-0.1-0.2-0.1-0.5-0.4-0.5c-0.4,0.1-0.3,0.4-0.2,0.6
		c0.2,1.1,0.4,2.2,0.6,3.2c0,0.2,0.1,0.4,0.4,0.5c0.7,0.2,1.4,0.5,2.1,0.6c1.5,0.4,3-0.2,3.8-1.5c1-1.6,1-3.2,0.4-4.9
		c-0.4-1.1-1.4-1.6-2.4-2.1c-0.8-0.4-1.6-0.8-2.4-1.3c-0.8-0.6-1.1-1.4-0.7-2.4c0.3-0.8,1.1-1.2,2-1.1c1.1,0.2,1.8,0.8,2.3,1.7
		c0.3,0.5,0.5,1.1,0.7,1.7c0.1,0.2,0.1,0.3,0.3,0.3c0.2,0,0.3-0.2,0.3-0.4C160.1,83.4,160.1,83.3,160.1,83.2z M163.4,101
		C163.4,101,163.4,101,163.4,101c-0.1,0-0.1,0-0.1,0C163.3,101.1,163.3,101.1,163.4,101C163.4,101.1,163.4,101.1,163.4,101z"/>
	<path class="st1" d="M163.3,101.2c-0.6,0.5-1.2,0.9-1.8,1.2c-4.4,2.8-9.3,4.4-14.4,5.3c-4.6,0.8-9.3,0.8-14,0.7
		c-2.2-0.1-4.5-0.1-6.7-0.3c-2.9-0.3-5.8-0.9-8.6-1.7c-5.8-1.6-11.3-3.8-16.8-6.3c-0.1,0-0.2-0.1-0.3-0.2c0.4-0.1,0.8,0.1,1.1,0.1
		c0.3,0,0.7,0.1,1,0.1c2.7,0.3,5.4,0.2,8.1-0.2c3.2-0.5,6.3-1.5,9.4-2.3c2.1-0.6,4.3-1,6.5-0.9c3.7,0.1,7.3,1,10.6,2.6
		c1.8,0.9,3.5,2,5.3,2.7c2.4,1,4.8,1.5,7.3,1.5c4.4,0.1,8.6-0.8,12.7-2.4C162.8,101.2,163,101.1,163.3,101.2z"/>
	<path class="st5" d="M66.7,47.2c0,0.7,0.1,1.5,0.2,2.3c0,0.3,0,0.5,0,0.8c-0.1,0.6-0.4,0.8-1,0.8c-0.5,0-0.9,0-1.3,0.2
		c-0.6,0.3-1.3-0.2-1.5-0.8c-0.2-0.6-0.1-1.1-0.1-1.7c0.1-1.5-0.1-3.1-0.1-4.6c0-0.9-0.4-1.9-0.4-2.9c0,0,0-0.1,0-0.1
		c0-1.3,0.4-1.8,1.7-2.1c0.2,0,0.4-0.1,0.6,0.1c0.2,0.1,0.4,0.2,0.6,0c0.2-0.2,0.4,0,0.5,0.2c0.3,0.3,0.5,0.3,0.8,0.1
		c0.4-0.2,0.7-0.2,1.1,0.1c0.3,0.2,0.7,0.2,1.1,0.2c2,0,3.9-0.1,5.9-0.2c1.6-0.1,3.2-0.5,4.9-0.2c0.9,0.1,1.7,0.2,2.6,0.1
		c0.5,0,1-0.1,1.5-0.2c0.2,0,0.4-0.1,0.6-0.1c1.3,0.3,2.6-0.3,3.8,0.1c0.3,0.1,0.5,0.2,0.6,0.4c0.1,0.3,0.3,0.5,0.6,0.7
		c0.3,0.2,0.3,0.6,0.3,0.9c0,0.6-0.1,1.2-0.3,1.8c-0.1,0.4-0.2,0.9-0.1,1.3c0.3,1.4,0.3,2.9,0.7,4.3c0.3,1-0.2,1.8-0.8,2.5
		c-0.4,0.5-1,0.5-1.6,0c-1.2-0.9-1.8-2.2-1.6-3.7c0.3-1.6-0.3-2.9-1.1-4.2c-0.5-0.8-1.2-1.1-2.1-1.1c-0.7,0-1.4,0.1-2.1,0.3
		c-1.5,0.4-2.1,1.3-2.2,2.8c-0.1,1,0,2,0,3c0.1,1.2,0,2.5,0.2,3.7c0.1,0.6,0,1.3,0.1,2c0,0.2,0,0.3-0.1,0.5c-0.2,0.3-0.2,0.6,0,0.9
		c0.1,0.3,0.1,0.5,0,0.8c-0.2,0.7-0.3,1.4-0.1,2.1c0.3,1.1,0.2,2.2,0.1,3.3c0,0.5,0,0.9,0.1,1.4c0.1,0.5,0.4,0.8,0.9,0.7
		c0.3,0,0.5,0,0.8,0c0.7-0.2,1.4-0.1,2.1,0.1c0.4,0.1,0.6,0.2,0.7,0.6c0.2,0.8,0.3,1.5,0.1,2.3c-0.2,0.6-0.5,0.8-1.1,0.8
		c-0.4,0-0.8-0.1-1.1-0.2c-0.9-0.1-1.7-0.2-2.6,0c-1.5,0.2-2.9-0.1-4.4-0.2c-1-0.1-2,0-2.9,0.3c-0.4,0.1-0.9,0.2-1.3,0.2
		c-0.4-0.1-0.6-0.3-0.5-0.7c0.1-0.5,0-0.9-0.5-1.2c-0.4-0.2-0.3-0.5-0.1-0.7c0.2-0.3,0.5-0.5,0.9-0.6c0.9-0.3,1.9-0.3,2.8-0.2
		c0.2,0,0.5,0.1,0.7,0.1c0.8,0,1.2-0.3,1.1-1.2c0-0.5-0.1-1-0.2-1.4c-0.4-1.7-0.4-3.3-0.2-5c0-0.1,0.1-0.2,0-0.2
		c-0.2-0.7-0.1-1.4,0.2-2c0.1-0.2-0.1-0.3-0.1-0.4c0-0.4,0-0.7,0-1.1c0.2-1,0.2-2,0-3c0-0.1-0.1-0.3,0-0.4c0.3-1.1-0.1-2.2,0.2-3.3
		c0.2-0.6,0.1-1.3-0.2-1.8c-0.1-0.1-0.1-0.2,0-0.3c0.2-0.4-0.1-0.6-0.4-0.8c-0.3-0.1-0.7-0.2-1-0.2c-0.7,0-1.3-0.1-2-0.3
		c-1.1-0.3-2.1,0-3,0.7c-0.5,0.4-0.7,1-0.8,1.6C66.7,45.6,66.7,46.3,66.7,47.2z"/>
	<path class="st5" d="M100.2,49.8c-0.5,0.1-0.9,0-1.4,0.2c-0.8,0.3-1.2,1.1-0.8,1.9c0.4,0.9,0.2,1.4-0.4,2.2c0,0-0.1,0.1-0.1,0.1
		c-0.6,0-1.1,0.6-1.8,0.6c-0.6-0.1-1.3,0-1.9-0.2c-0.4-0.1-0.7-0.3-0.8-0.7c-0.3-1.2-0.2-2.4,0.2-3.6c0.2-0.5,0.6-0.8,1-1.1
		c0.2-0.2,0.4-0.3,0.5-0.5c0.1-0.3,0.3-0.6,0.7-0.4c0.1,0,0.2,0,0.2-0.1c0.1-0.4,0.5-0.5,0.9-0.5c0.9-0.2,1.9-0.3,2.9-0.5
		c0,0,0.1,0,0.1,0c0.7-0.6,1.7-0.3,2.5-0.6c0.3-0.1,0.7-0.1,1.1-0.1c1.8,0.3,3.1,1.2,4.1,2.7c0.1,0.2,0.2,0.4,0.2,0.7
		c0,0.8,0.3,1.5,0.7,2.1c0.2,0.4,0.5,0.8,0.3,1.3c-0.1,0.2-0.1,0.4,0,0.6c0.3,0.6,0.2,1.3,0,1.9c-0.3,1.1-0.6,2.2-0.5,3.3
		c0.1,0.8,0.1,1.7,0.2,2.5c0,0.6,0.1,1.2,0,1.8c-0.1,0.3-0.1,0.7,0.3,1c0.1,0.1,0.1,0.2,0.1,0.4c0,0.1-0.1,0.3,0.1,0.3
		c0.1,0,0.3-0.1,0.3-0.1c0.4-0.4,0.8-0.9,0.9-1.5c0-0.1,0-0.2,0.2-0.3c0.3-0.2,1.3-0.2,1.6,0.1c0.3,0.2,0.5,0.5,0.3,0.9
		c-0.1,0.3-0.2,0.6-0.1,1c0.1,0.2,0.1,0.4-0.1,0.5c-0.6,0.4-0.9,1.2-1.6,1.6c-0.6,0.4-1.4,0.4-2,0.5c-0.4,0.1-0.8,0-1.3,0
		c-0.4,0-0.8-0.2-1.1-0.5c-0.2-0.2-0.4-0.6-0.8-0.4c-0.1,0-0.2-0.1-0.2-0.1c-0.3-0.4-0.6-0.3-1-0.1c-0.4,0.2-0.9,0.5-1.3,0.7
		c-0.3,0.1-0.5,0.3-0.7,0.5c-0.1,0.2-0.3,0.3-0.5,0.1c-0.3-0.2-0.5,0-0.7,0.1c-0.5,0.2-1,0.6-1.6,0.3c-0.1,0-0.2,0-0.2,0.1
		c-0.5,0.4-1.1,0.3-1.7,0.2c-1.3-0.1-2.4-0.5-3.5-1.3c-0.4-0.3-0.8-0.7-0.9-1.3c-0.1-0.3-0.2-0.6-0.3-0.8c-0.6-1-0.5-2,0-3
		c0.2-0.5,0.5-1,0.4-1.5c0-0.4,0.2-0.6,0.5-0.8c0.4-0.2,0.7-0.6,1-1c0.6-0.7,1-1.6,2.1-1.9c1.4-0.4,2.7-0.9,4.2-0.9
		c0.8,0,1.4-0.4,1.9-1c0.7-0.8,1.1-1.8,1.1-2.9c0-1.2-0.6-1.9-1.7-2.2C100.9,49.9,100.5,49.9,100.2,49.8z M102.8,60
		c0-0.2,0-0.5,0-0.7c0-0.2-0.1-0.3-0.3-0.4c-0.3,0-0.5-0.1-0.8-0.1c-1.2,0.3-2.3,0.8-3.4,1.6c-0.1,0.6-0.7,0.8-1.1,1.2
		c-0.4,0.4-0.6,0.9-0.9,1.4c-0.1,0.3-0.3,0.6,0.2,0.7c0.1,0,0.2,0.1,0.2,0.3c0,0.1,0.1,0.2,0.2,0.2c0.5-0.1,0.8,0.3,1.2,0.6
		c0.3,0.2,0.5,0.3,0.9,0.3c1.3,0,2.3-0.6,3-1.7C102.5,62.3,102.8,61.2,102.8,60z"/>
	<path class="st5" d="M113.7,76.7c0.2-0.3,0.5-0.5,0.8-0.6c0.8-0.6,1.9-0.8,2.7-1.5c1-0.8,2-1.5,2.7-2.6c0.1-0.2,0.3-0.3,0.4-0.4
		c0.2-0.2,0.3-0.4,0.3-0.6c0-0.4,0.2-0.6,0.5-0.8c0.2-0.1,0.4-0.3,0.4-0.6c0-0.4,0.3-0.7,0.5-1.1c0.3-0.4,0.5-0.9,0.6-1.4
		c0.1-0.4,0.1-0.7-0.3-1c-0.2-0.1-0.2-0.4-0.3-0.7c-0.1-0.7-0.4-1.3-0.7-2c-0.8-1.8-1.6-3.7-2.3-5.5c-0.6-1.3-1.1-2.7-1.6-4
		c-0.2-0.5-0.5-1-0.8-1.5c-0.2-0.4-0.5-0.8-0.6-1.3c0-0.4-0.4-0.5-0.7-0.6c-0.3-0.1-0.5-0.1-0.8-0.1c-0.4,0-0.7,0-0.9-0.5
		c-0.2-0.4-0.7-0.5-1.2-0.6c-0.7-0.1-0.9-0.4-0.8-1.1c0.1-0.5,0.2-0.9,0.4-1.3c0.1-0.2,0.2-0.4,0.5-0.4c0.5,0.1,0.9,0,1.4-0.1
		c0.8-0.1,1.6-0.1,2.4,0.2c0.4,0.1,0.7,0.1,1.1,0c0.6-0.2,1.2-0.1,1.7,0c0.8,0.2,1.6,0.2,2.5,0.1c0.8-0.1,1.6,0.1,2.4,0.4
		c0.1,0,0.2,0.1,0.3,0.2c0.4,0.7,0.1,1.3-0.1,1.9c-0.1,0.4-0.5,0.6-0.9,0.7c-0.1,0-0.3,0-0.4-0.1c0,0-0.1-0.1-0.2,0
		c-0.3,0.6-0.9,0.4-1.4,0.5c-0.1,0-0.2,0-0.4,0.1c0.4,0.7,0.4,1.6,1.1,2.2c0.1,0.1,0.1,0.1,0,0.2c-0.1,0.1,0,0.2,0.1,0.2
		c0.3,0,0.3,0.2,0.4,0.4c0.1,0.4,0.1,0.8,0.6,1.1c0.1,0,0.1,0.2,0.1,0.3c-0.1,0.5,0.1,1,0.4,1.4c0,0,0.1,0.1,0.1,0.1
		c0.7-0.1,0.6,0.5,0.8,0.9c0.3,0.7,0.5,1.4,0.9,2c0.2,0.4,0.4,0.4,0.6,0c0.3-0.4,0.4-0.9,0.6-1.3c0.1-0.3,0.2-0.5,0.5-0.7
		c0.2-0.1,0.3-0.3,0.4-0.5c0.2-0.4,0.3-0.9,0.4-1.3c0.1-0.4,0.2-0.8,0.6-1c0.2-0.1,0.3-0.5,0.4-0.8c0.2-0.5,0.3-1,0.8-1.5
		c0.3-0.3,0.6-0.8,0.7-1.3c0.3-2.4,1.8-4.2,3.3-5.9c0.2-0.2,0.4-0.4,0.6-0.6c0.9-0.8,1.8-1.2,3.1-1.1c0,0.3-0.2,0.5-0.3,0.8
		c-0.8,1.7-1.8,3.3-2.6,4.9c-0.3,0.6-0.5,1.2-0.8,1.8c-0.6,1-0.6,2.3-1.5,3.2c0,0,0,0.1,0,0.1c-1.3,3.1-2.9,6.1-3.7,9.4
		c-0.1,0.4-0.1,0.8-0.6,1c0,0,0,0.1,0,0.1c0,0.9-0.8,1.6-0.8,2.5c0,0.2-0.1,0.5-0.4,0.6c-0.2,0.1-0.2,0.3-0.3,0.4
		c-0.2,0.5-0.4,1-0.6,1.5c-0.1,0.3-0.3,0.5-0.4,0.8c-0.2,0.4-0.6,0.6-0.7,1.2c-0.2,0.6-0.8,1.1-1.3,1.6c-1,1-2.1,1.8-3.4,2.4
		c-0.5,0.3-1.1,0.5-1.7,0.7c-0.4,0.1-0.8,0.2-1.2,0.4C116.1,76.8,114.4,76.9,113.7,76.7z"/>
	<path class="st6" d="M163.1,66.9c-1.2,0.1-2.5,0-3.7-0.4c0,0-0.1,0-0.1,0c-0.2-0.5-0.7-0.2-1-0.3c-0.6-0.3-1.3-0.3-1.9-0.8
		c-0.1-0.1-0.3-0.2-0.4-0.3c-0.8-0.7-1.5-1.5-2.1-2.3c-0.6-0.8-1.3-1.6-1.6-2.6c-0.9-2.4-0.6-4.7,0.2-7.1c0.2-0.7,0.6-1.3,0.8-1.9
		c0.3-0.7,0.6-1.2,1.2-1.7c0,0,0,0,0,0c0.8,0.2,0.9-0.8,1.6-0.9c0.7-0.2,1.3-0.5,2-0.8c0.6-0.3,1.3-0.4,2-0.5
		c0.7-0.1,1.4-0.2,2.1-0.2c0.1,0,0.2,0,0.2,0c0.7,0.5,1.5,0.4,2.2,0.6c0.2,0,0.3,0.1,0.5,0.1c0.5,0.4,1.2,0.6,1.8,1
		c0.5,0.4,1,0.8,1.3,1.3c0.2,0.3,0.5,0.6,0.8,0.8c0.1,0,0.2,0.1,0.2,0.1c0,0.5,0.4,0.7,0.7,1c0.9,1.2,1.7,2.4,1.7,3.9
		c0,0.8-0.1,1.7-0.2,2.5c0,0.5-0.1,1-0.1,1.5c0.1,1.3-0.5,2.2-1.4,3.1c-1.3,1.4-2.8,2.5-4.5,3.3C164.7,66.7,164,66.9,163.1,66.9z
		 M161.4,64.8c0.2,0,0.4,0,0.6,0c0.1,0,0.2,0,0.2-0.1c0-0.4,0.3-0.3,0.5-0.3c0.8,0,1.3-0.5,1.9-0.9c0.7-0.4,0.6-1.3,1.2-1.7
		c0,0,0-0.1,0-0.2c0-0.1,0-0.3,0.1-0.4c0.3-0.5,0.3-1,0.3-1.6c0-0.9,0-1.7,0-2.6c0-0.5,0.2-1-0.3-1.3c0,0,0-0.1,0-0.1
		c0.1-0.8-0.4-1.5-0.6-2.3c-0.2-1.1-1.1-1.8-1.6-2.6c-0.4-0.7-1.3-0.9-1.9-1.3c-0.5-0.3-1.3,0-1.8,0.3c-0.4,0.2-0.8,0.6-1.2,0.9
		c-0.7,0.5-1.2,1.1-1.5,2c0,0.1,0,0.2-0.1,0.2c-0.5,0.2-0.3,0.8-0.7,1.1c0,0,0,0.1,0,0.1c0,0.7,0,1.3,0,2c0.1,2.3,0.4,4.5,1.6,6.6
		c0.1,0.2,0,0.5,0.3,0.7C159.1,64.2,160.2,64.8,161.4,64.8z"/>
	<path class="st5" d="M141.2,55.9c-0.1-1.6-0.1-3.1,0-4.7c0.1-1.4-0.1-2.9-0.2-4.3c0-0.7,0-1.4,0.1-2.1c0.1-0.6,0-1.2-0.1-1.8
		c-0.1-0.5-0.4-0.7-0.8-0.7c-0.3,0-0.7-0.1-1-0.1c-0.5-0.1-0.8-0.3-0.8-0.8c0-0.1,0-0.2,0-0.2c-0.2-1,0.1-1.5,1.1-1.6
		c1.1-0.2,2.3-0.2,3.4,0c0.9,0.1,1.7,0.1,2.6,0c1.6-0.3,2.2,0.3,2.1,1.9c0,0.6,0,1.3-0.2,1.8c-0.2,0.5-0.3,0.9-0.3,1.4
		c-0.1,2.3-0.4,4.5-0.5,6.8c-0.1,0.7,0,1.3,0.1,2c0,0.2,0.1,0.4-0.2,0.4c-0.2,0-0.1,0.2,0,0.3c0.3,0.3,0.3,0.7,0.2,1.2
		c-0.1,2.2-0.4,4.3-0.2,6.5c0,0.5,0,0.9,0.2,1.3c0.2,0.6,0.5,0.9,1.2,0.9c0.5,0,1.1,0,1.6,0c0.5,0,1,0.2,1.2,0.8
		c0.2,0.7,0.3,1.4-0.2,2c-0.2,0.3-0.5,0.3-0.8,0.3c-1.2,0-2.4-0.1-3.5-0.1c-1.6-0.1-3.1,0.3-4.7,0.5c-0.8,0.1-1.5,0.2-2.3,0.1
		c-0.8-0.2-1.3-0.6-1.4-1.4c-0.1-0.4-0.1-0.7-0.1-1.1c0.1-0.8,0.5-1.2,1.3-1.1c0.4,0,0.8,0.1,1.2,0.1c1,0.1,1.4-0.2,1.4-1.2
		c0.1-1.6,0-3.2-0.1-4.8C141.2,57.2,141.2,56.5,141.2,55.9z"/>
	<path class="st5" d="M180.9,59.1c0,0.5,0,1,0.2,1.5c0.2,0.8,0.3,1.6,0.2,2.4c-0.1,0.7,0,0.8,0.7,0.8c0.9,0,1.7,0.1,2.6,0.1
		c0.6,0,0.8,0.2,0.9,0.8c0.1,0.6,0.1,1.2,0,1.8c-0.1,0.4-0.3,0.5-0.6,0.4c-0.5-0.2-0.9-0.1-1.4,0c-0.7,0.2-1.3,0.4-2.1,0.2
		c-0.6-0.2-1.4,0-2.1,0.1c-1,0.1-2-0.1-3,0.1c-0.1,0-0.2,0-0.3,0c-0.5-0.3-1-0.3-1.5-0.2c-0.4,0.1-1-0.4-1-0.9
		c-0.1-0.5-0.1-0.9-0.1-1.4c0-0.4,0.2-0.7,0.6-0.8c0.4-0.1,0.9-0.1,1.3-0.1c0.4,0,0.7,0,1.1-0.1c0.5-0.1,0.8-0.4,0.7-1
		c-0.1-0.7,0-1.4,0-2.1c0-1.3,0.2-2.6-0.1-3.9c0-0.2-0.1-0.4,0-0.6c0.4-0.6,0.3-1.2,0.1-1.8c-0.2-0.9-0.1-1.7,0-2.5
		c0.2-0.9-0.2-1.2-1.1-1.2c-0.6,0-1.1,0.1-1.7,0.1c-0.4,0-0.6-0.2-0.8-0.5c-0.4-0.6-0.6-1.2-0.5-2c0.1-0.3,0.2-0.5,0.5-0.6
		c0.2,0,0.4-0.1,0.5-0.2c0.6-0.6,1.3-0.6,2-0.5c0.6,0,1.2,0.1,1.8,0.2c0.7,0.1,1.3,0,1.8-0.4c0.2-0.1,0.3-0.2,0.5-0.2
		c0.2,0,0.5,0,0.5,0.1c0.1,0.5,0.6,0.5,0.9,0.7c0.7,0.6,1.4,0.7,2.2,0.2c0.9-0.6,1.9-0.8,3-0.5c0.3,0.1,0.5,0.2,0.7,0.5
		c0.2,0.3,0.4,0.4,0.7,0.3c0.2,0,0.4,0.1,0.5,0.2c0.9,1.4,0.5,3.7-0.8,4.7c-0.6,0.5-1.3,0.5-1.9,0.2c-0.4-0.2-0.7-0.4-1.1-0.7
		c-0.2-0.2-0.1-0.4-0.1-0.6c0.1-0.4-0.2-0.5-0.4-0.3c-0.6,0.4-1.4,0.4-2,0.9c-0.3,0.3-0.6,0.5-0.7,1c0,0.1-0.1,0.2-0.1,0.3
		C181.5,55.4,181,57.2,180.9,59.1z"/>
	<path class="st7" d="M136.4,84.3c-0.2,0.7-0.2,1.3-0.2,2c0,1.6-0.2,3.2-0.1,4.8c0,0.9,0.4,1.6,1.4,1.8c0.2,0,0.4,0.2,0.4,0.4
		c0,0.3-0.3,0.3-0.4,0.2c-1.1,0-2.2-0.1-3.3,0c-0.2,0-0.3,0-0.4-0.2c0-0.2,0-0.3,0.2-0.4c0.1-0.1,0.2-0.1,0.3-0.2
		c0.5-0.3,0.8-0.7,0.9-1.3c0.1-1.6,0.1-3.3,0.2-4.9c0-1.4,0.1-2.7,0.1-4.1c0-0.9-0.3-1.7-1.3-2.1c-0.2-0.1-0.4-0.3-0.3-0.5
		c0.1-0.3,0.3-0.2,0.5-0.2c0.6,0.1,1.3,0,1.9,0c0.5,0,0.8,0.2,0.9,0.6c0.6,1.6,1.2,3.2,1.9,4.8c0.6,1.5,1.2,3,1.8,4.5
		c0.1,0.1,0,0.4,0.2,0.4c0.2,0,0.2-0.2,0.3-0.4c1.3-3.1,2.6-6.2,3.8-9.4c0.2-0.4,0.4-0.6,0.9-0.5c0.6,0.1,1.2,0,1.8,0
		c0.2,0,0.3,0,0.4,0.2c0,0.2-0.1,0.3-0.3,0.4c-1.2,0.3-1.3,1.1-1.3,2.1c0.1,2.9,0.2,5.7,0.3,8.6c0,0.4,0.1,0.8,0.3,1.2
		c0.2,0.4,0.6,0.6,1,0.8c0.2,0.1,0.4,0.2,0.4,0.4c0,0.3-0.3,0.3-0.5,0.3c-1.3,0-2.6-0.1-3.9,0c-0.2,0-0.5,0-0.5-0.3
		c0-0.3,0.1-0.4,0.3-0.5c0.5-0.2,0.8-0.6,0.8-1.2c0-2.4-0.2-4.8-0.3-7.2c0,0,0-0.1-0.1-0.1c-0.3,0.1-0.3,0.4-0.4,0.6
		c-1.1,2.7-2.2,5.4-3.3,8.1c0,0.1,0,0.1-0.1,0.2c-0.1,0.2-0.1,0.4-0.4,0.4c-0.3,0-0.3-0.2-0.4-0.4c-0.3-0.7-0.5-1.4-0.8-2.1
		c-0.8-2.1-1.6-4.3-2.5-6.4C136.5,84.5,136.5,84.4,136.4,84.3z"/>
	<path class="st7" d="M121.2,93.5c-0.7,0-1.4,0-2,0c-0.2,0-0.4,0-0.5-0.3c0-0.2,0.1-0.4,0.3-0.4c0.8-0.3,1-1,1-1.7
		c0-1.6,0-3.2,0-4.8c0-1.4,0-2.8,0-4.2c0-1.2-0.4-1.7-1.4-1.9c-0.2-0.1-0.5-0.1-0.4-0.4c0-0.3,0.3-0.3,0.5-0.3c1.8,0.2,3.7,0,5.5,0
		c2.7,0.1,4.4,2.5,3.5,5c-0.3,0.7-0.7,1.2-1.4,1.6c-0.3,0.2-0.4,0.4-0.2,0.7c0.8,1.6,1.6,3.3,2.4,4.9c0.2,0.4,0.5,0.5,0.9,0.4
		c0.2,0,0.4-0.2,0.5,0.1c0.1,0.2,0,0.4-0.2,0.6c-0.8,0.8-2.3,0.8-3-0.1c-0.3-0.4-0.6-0.9-0.8-1.3c-0.5-1.2-1.1-2.4-1.6-3.6
		c-0.4-0.8-1-1.1-1.9-0.9c-0.2,0.1-0.3,0.2-0.3,0.4c0,1.4,0,2.8,0,4.2c0,0.7,0.4,1,1,1.2c0,0,0.1,0,0.1,0c0.2,0.1,0.5,0.1,0.4,0.4
		c0,0.3-0.3,0.3-0.5,0.3c-0.5,0-1.1,0-1.6-0.1C121.6,93.5,121.4,93.5,121.2,93.5C121.2,93.5,121.2,93.5,121.2,93.5z M122.2,83.4
		C122.2,83.4,122.2,83.4,122.2,83.4c0,0.7,0,1.3,0,2c0,0.4,0.2,0.6,0.6,0.6c0.7,0.1,1.4,0,2-0.2c0.6-0.2,1-0.6,1.1-1.2
		c0.1-0.9,0.1-1.9-0.3-2.8c-0.5-1-1.2-1.5-2.3-1.5c-0.7,0-1,0.3-1,1C122.2,82.1,122.2,82.7,122.2,83.4z"/>
	<path class="st7" d="M112,93.5c-0.7,0-1.4,0-2.1,0c-0.2,0-0.3,0.1-0.4-0.2c-0.1-0.2,0.1-0.3,0.2-0.4c1.1-0.8,1.1-1,0.7-2.3
		c-0.2-0.5-0.4-1-0.5-1.4c-0.1-0.4-0.4-0.5-0.8-0.5c-1,0-1.9,0-2.9,0c-0.4,0-0.7,0.2-0.9,0.5c-0.3,0.7-0.5,1.4-0.6,2.1
		c-0.1,0.7,0.1,1.1,0.8,1.4c0.2,0.1,0.4,0.1,0.6,0.2c0.2,0.1,0.3,0.2,0.3,0.4c0,0.2-0.2,0.2-0.4,0.2c-0.2,0-0.5,0-0.7,0
		c-1-0.1-1.9,0-2.9,0c-0.2,0-0.4,0.1-0.4-0.2c-0.1-0.2,0.1-0.3,0.3-0.4c0.6-0.3,0.9-0.8,1.1-1.4c1.5-3.9,3-7.9,4.5-11.8
		c0.1-0.2,0.1-0.5,0.4-0.4c0.2,0,0.3,0.3,0.3,0.4c1.5,4,3,7.9,4.5,11.9c0.2,0.7,0.5,1.2,1.3,1.3c0.2,0,0.3,0.2,0.2,0.4
		c0,0.2-0.1,0.3-0.3,0.3C113.5,93.5,112.8,93.5,112,93.5z M107.6,87.6c0.4,0,0.8,0,1.2,0c0.4,0,0.5-0.2,0.4-0.5
		c-0.5-1.3-1-2.6-1.5-3.8c0-0.1-0.1-0.2-0.2-0.2c-0.1,0-0.1,0.1-0.2,0.2c-0.2,0.4-0.3,0.8-0.5,1.3c-0.3,0.8-0.6,1.6-0.9,2.4
		c-0.2,0.6-0.1,0.7,0.4,0.7C106.9,87.6,107.2,87.6,107.6,87.6z"/>
	<path class="st8" d="M91.8,86.6c0-1.5,0-3.1,0-4.6c0-0.9-0.2-1.2-1.1-1.5c-0.2-0.1-0.3-0.1-0.5-0.2c-0.2-0.1-0.4-0.2-0.3-0.5
		c0.1-0.2,0.2-0.3,0.5-0.3c0.7,0,1.5,0,2.2,0.1c1.9,0.1,3.8,0,5.7-0.1c0.5,0,0.7,0.2,0.7,0.6c0,0.7,0.1,1.4,0.1,2
		c0,0.2,0.1,0.5-0.3,0.6c-0.3,0-0.3-0.3-0.3-0.5c-0.2-1.2-0.6-1.6-1.8-1.7c-0.7-0.1-1.3-0.1-2,0c-0.5,0-0.7,0.3-0.7,0.8
		c0,1.2,0,2.5,0,3.7c0,0.4,0.2,0.6,0.6,0.5c0.3,0,0.6,0,0.8,0c0.9,0.1,1.5-0.4,1.8-1.2c0.1-0.2,0.1-0.7,0.5-0.6
		c0.4,0.1,0.2,0.5,0.2,0.8c0.1,1.2,0.1,2.3,0.1,3.5c0,0.1,0,0.2,0,0.3c0,0.2-0.1,0.3-0.2,0.4c-0.2,0-0.3-0.1-0.3-0.3
		c-0.1-0.3-0.2-0.6-0.3-0.9c-0.2-0.6-0.6-0.9-1.3-0.9c-0.5,0-0.9,0-1.4,0c-0.3,0-0.5,0.2-0.6,0.5c0,1.4-0.1,2.8,0,4.2
		c0.1,0.8,0.5,1.2,1.2,1.4c0.2,0.1,0.6,0.1,0.6,0.4c-0.1,0.4-0.5,0.3-0.7,0.2c-1.4-0.1-2.7,0-4.1,0c-0.2,0-0.4,0.1-0.4-0.2
		c0-0.2,0.1-0.4,0.3-0.5c0.9-0.2,1-0.9,1-1.6C91.8,89.7,91.8,88.1,91.8,86.6z"/>
	<path class="st9" d="M160.1,83.2c0,0.1,0,0.2,0,0.3c0,0.2-0.1,0.3-0.3,0.4c-0.2,0.1-0.3-0.1-0.3-0.3c-0.2-0.6-0.4-1.1-0.7-1.7
		c-0.5-0.9-1.2-1.6-2.3-1.7c-1-0.1-1.7,0.3-2,1.1c-0.4,1-0.2,1.9,0.7,2.4c0.8,0.5,1.6,0.8,2.4,1.3c1,0.5,2,1,2.4,2.1
		c0.7,1.7,0.6,3.4-0.4,4.9c-0.8,1.3-2.3,1.8-3.8,1.5c-0.7-0.2-1.4-0.4-2.1-0.6c-0.2-0.1-0.3-0.2-0.4-0.5c-0.2-1.1-0.4-2.2-0.6-3.2
		c0-0.2-0.1-0.5,0.2-0.6c0.3-0.1,0.4,0.2,0.4,0.5c0.3,1.1,0.7,2,1.5,2.8c0.9,0.9,2.1,1.1,3.1,0.5c0.9-0.5,1.3-1.7,1.1-2.8
		c-0.1-0.6-0.5-1-1-1.3c-0.8-0.5-1.6-0.8-2.4-1.3c-0.3-0.1-0.5-0.3-0.8-0.4c-2.1-1.2-2.6-4.3-1-6.2c0.9-1,2-1.3,3.3-1
		c0.3,0.1,0.6,0.2,0.9,0.4c0.4,0.2,0.8,0.3,1.2,0c0.4-0.2,0.5-0.1,0.5,0.3C160,81.3,160,82.2,160.1,83.2
		C160.1,83.2,160.1,83.2,160.1,83.2z"/>
	<path class="st1" d="M163.4,101C163.4,101.1,163.4,101.1,163.4,101c-0.1,0-0.1,0-0.1,0C163.4,101,163.4,101,163.4,101
		C163.4,101,163.4,101,163.4,101z"/>
	<path class="st1" d="M174.9,97.2C175,97.2,175,97.2,174.9,97.2C175,97.2,175,97.2,174.9,97.2C175,97.2,175,97.2,174.9,97.2
		C174.9,97.2,174.9,97.2,174.9,97.2z"/>
	<path class="st2" d="M164.6,122.4c-0.5,0.1-0.9,0.1-1.2-0.5c-0.2-0.4-0.5-0.7-0.7-1.1c-0.2-0.3-0.4-0.3-0.7-0.3
		c-0.3,0.1-0.2,0.3-0.2,0.5c0,0.4,0,0.7,0,1.1c0,0.3-0.1,0.4-0.4,0.4c-0.3,0-0.4-0.1-0.4-0.4c0-1.3,0-2.5,0-3.8
		c0-0.3,0.1-0.4,0.4-0.4c0.6,0,1.2,0,1.8,0c1,0.1,1.4,0.8,1.1,1.7c-0.2,0.5-0.6,0.7-1.1,0.8C163.8,121.2,164.2,121.8,164.6,122.4z
		 M162.6,119.9c0.2,0,0.4,0,0.7-0.1c0.3-0.1,0.5-0.3,0.5-0.6c0-0.3-0.2-0.5-0.5-0.6c-0.4-0.1-0.8,0-1.1-0.1c-0.1,0-0.2,0-0.2,0.1
		c0,0.4-0.1,0.7,0,1C162,120,162.4,119.8,162.6,119.9z"/>
	<path class="st0" d="M102.8,60c0,1.2-0.2,2.4-0.9,3.4c-0.7,1.1-1.6,1.7-3,1.7c-0.3,0-0.6-0.1-0.9-0.3c-0.3-0.3-0.6-0.7-1.2-0.6
		c-0.1,0-0.2-0.1-0.2-0.2c0-0.1,0-0.2-0.2-0.3c-0.6-0.1-0.4-0.4-0.2-0.7c0.2-0.5,0.5-1,0.9-1.4c0.4-0.4,1-0.6,1.1-1.2
		c1-0.7,2.1-1.3,3.4-1.6c0.3-0.1,0.5,0,0.8,0.1c0.3,0,0.3,0.1,0.3,0.4C102.8,59.5,102.8,59.7,102.8,60z"/>
	<path class="st10" d="M161.4,64.8c-1.3-0.1-2.3-0.6-3.3-1.4c-0.3-0.2-0.1-0.5-0.3-0.7c-1.1-2-1.5-4.3-1.6-6.6c0-0.7,0.1-1.3,0-2
		c0,0,0-0.1,0-0.1c0.4-0.2,0.3-0.9,0.7-1.1c0.1,0,0.1-0.1,0.1-0.2c0.3-0.8,0.8-1.4,1.5-2c0.4-0.3,0.8-0.7,1.2-0.9
		c0.6-0.3,1.3-0.6,1.8-0.3c0.7,0.4,1.5,0.6,1.9,1.3c0.6,0.9,1.4,1.6,1.6,2.6c0.2,0.8,0.7,1.4,0.6,2.3c0,0,0,0.1,0,0.1
		c0.5,0.3,0.3,0.9,0.3,1.3c0,0.9,0,1.7,0,2.6c0,0.6,0,1.1-0.3,1.6c-0.1,0.1-0.1,0.2-0.1,0.4c0,0.1,0,0.2,0,0.2
		c-0.6,0.5-0.5,1.3-1.2,1.7c-0.6,0.4-1.1,0.9-1.9,0.9c-0.2,0-0.5-0.1-0.5,0.3c0,0.1-0.1,0.1-0.2,0.1
		C161.9,64.8,161.7,64.8,161.4,64.8z"/>
	<path class="st10" d="M122.2,83.4c0-0.7,0-1.4,0-2c0-0.7,0.3-0.9,1-1c1.1,0,1.9,0.5,2.3,1.5c0.4,0.9,0.5,1.8,0.3,2.8
		c-0.1,0.6-0.5,1-1.1,1.2c-0.7,0.2-1.3,0.2-2,0.2c-0.4,0-0.6-0.2-0.6-0.6C122.2,84.8,122.2,84.1,122.2,83.4
		C122.2,83.4,122.2,83.4,122.2,83.4z"/>
	<path class="st0" d="M107.6,87.6c-0.4,0-0.7,0-1.1,0c-0.6,0-0.6-0.1-0.4-0.7c0.3-0.8,0.6-1.6,0.9-2.4c0.2-0.4,0.3-0.8,0.5-1.3
		c0-0.1,0.1-0.2,0.2-0.2c0.1,0,0.1,0.1,0.2,0.2c0.5,1.3,1,2.6,1.5,3.8c0.1,0.4,0,0.5-0.4,0.5C108.4,87.6,108,87.6,107.6,87.6z"/>
</g>
</svg>
