<?xml version="1.0" encoding="utf-8"?>
<!-- Generator: Adobe Illustrator 21.0.0, SVG Export Plug-In . SVG Version: 6.00 Build 0)  -->
<svg version="1.1" id="Layer_1" xmlns="http://www.w3.org/2000/svg" xmlns:xlink="http://www.w3.org/1999/xlink" x="0px" y="0px"
	 viewBox="0 0 250 115" style="enable-background:new 0 0 250 115;" xml:space="preserve">
<style type="text/css">
	.st0{fill:#231F20;}
</style>
<g>
	<path class="st0" d="M156.1,32.5c-0.9,1.1-0.9,1.4-1.1,1.7c-0.2,0.5,0,0.7,0.7,0.6c2.7-0.7,5.4-3.5,5.4-5.6c0-2.3-1.9-4.2-4.1-4.2
		c-2.3,0-4.1,1.9-4.1,4.2C153,31.1,154.1,32.5,156.1,32.5L156.1,32.5z"/>
	<path class="st0" d="M175.2,35.3c-1.4,1.9,0.3,4.2,2.3,4.6c2.2,0.2,4.8-2.3,3.5-4.8c-0.5-1.3-0.6-1.7,0-2.2
		c-1.1-0.5-2.2-0.9-3.4-1.4c-1.3,1.3-3.4-0.3-6-0.3c-4.1,0-9.9,1.6-10.2,7.4c-0.3,5.8,3.5,7,6.9,8.2c3.4,1.2,7.5,2,7.4,4.5
		c-0.1,2.5-2,3.1-4.1,3.1c-1.2,0-1.9-0.6-2.3-1.1c0.6-1.5-0.5-3.5-2.1-4.3c-2.2-1.1-5.2,0.6-5,3.6c0.3,3-0.1,1.7-0.3,2.5
		c1,0.8,2,1.6,3,2.4c0.3-1.3,6-0.6,6.5-0.6c6.5,0.3,9.5-2.5,9.9-7.6c0.4-5.1-3.8-6.9-7.6-8.1c-3.8-1.2-4.6-2.3-4.4-4.1
		c0.2-1.8,1.4-2.3,2.7-2.5C172.9,34.3,174.2,34.6,175.2,35.3L175.2,35.3z"/>
	<path class="st0" d="M76.2,52c1.9-2.1,0.5-5.5-1.9-6.9c-2.9-1.7-7.1,0.4-7,4.4c0.2,2.8-0.1,2.6-0.6,3.3c1.3,1.1,2.6,2.3,3.9,3.5
		c2.8-2.5,6-0.3,9.9-0.1c9.3,0.4,12.3-5.4,13-10.7c0.7-5.4-4.5-9.1-9.7-11.7c-5.2-2.6-7.9-3.6-8.1-6.6c-0.3-2.9,2.4-4.3,4.2-4.6
		c1.6-0.3,3.4,0.1,4.6,1.5c-2.7,2.3-1,6.2,1.8,7.3c3.2,1.3,6.9-1.9,6.2-5.8c-0.5-1.8-0.1-2.6,0.6-3c-1.5-0.9-2.9-1.9-4.4-2.8
		c-1.4,1.7-5.1-0.8-10.3-0.6c-4.4,0.5-11.3,1.6-12.1,9.3c-0.8,7.6,6.4,10.3,10.7,12.5c4.2,2.3,9.5,4,9.3,7.6c-0.1,3.6-2.6,5-5.6,5
		C78.5,53.3,77.2,52.5,76.2,52L76.2,52z"/>
	<polygon class="st0" points="145,71.9 152.2,71.9 152.2,95.8 145,95.8 	"/>
	<path class="st0" d="M173.5,81.3h-8.5v-7.2h11.6v-2.2h-15.6c-1.3,0-2.3,1-2.3,2.3v19.3c0,1.3,1,2.3,2.3,2.3h15.6V93h-11.6v-9.2h8.5
		L173.5,81.3L173.5,81.3z"/>
	<polygon class="st0" points="111.4,71.9 114.1,71.9 114.1,95.8 107.8,95.8 97,78.9 97,95.8 94.3,95.8 94.3,71.9 101.2,71.9 
		111.4,88.2 	"/>
	<path class="st0" d="M187.4,81.9H199c1.1,0,2,0.9,2,2v9.9c0,1.1-0.9,2-2,2h-16.6c-1.1,0-2-0.9-2-2v-3.8h7.1v3.1h6.5v-8.4h-11.6
		c-1.1,0-2-0.9-2-2v-9.2c0-1.1,0.9-2,2-2H199c1.1,0,2,0.9,2,2v3.2h-7.1v-2.6h-6.5V81.9L187.4,81.9z"/>
	<path class="st0" d="M66.9,76.7h-6.5v-1.2c0-0.8-0.7-1.5-1.5-1.5h-2.1c-0.8,0-1.5,0.7-1.5,1.5V92c0,0.8,0.7,1.5,1.5,1.5h2.1
		c0.8,0,1.5-0.7,1.5-1.5v-1.9h6.5V94c0,1.1-0.9,2-2,2H51c-1.1,0-2-0.9-2-2V73.9c0-1.1,0.9-2,2-2h14c1.1,0,2,0.9,2,2V76.7L66.9,76.7z
		"/>
	<path class="st0" d="M149,47.8c-3.1,7.6-13.1,2.8-13.4,0.2c5-3.2,9.9-6.5,14.9-9.7c-1.9-4.4-6.3-7.4-11.5-7.4
		C132,31,126,36.4,126,43.6c0,7.2,4.8,13.1,13.7,13.1c7.6,0,10.5-3.2,11.4-8.3C151.3,47.2,150,46.2,149,47.8z M135.7,35.8
		c3.1-1.5,6.5,0.5,8.1,3.5l-9.6,5.9C132.3,42.6,132.6,37.3,135.7,35.8z"/>
	<path class="st0" d="M119.9,47.8c-3,7.6-13.1,2.8-13.4,0.2c5-3.2,9.9-6.5,14.9-9.7c-1.9-4.4-6.3-7.4-11.5-7.4
		c-7.1,0-13.1,5.5-13.1,12.7c0,7.2,4.8,13.1,13.7,13.1c7.6,0,10.5-3.2,11.4-8.3C122.2,47.2,121,46.2,119.9,47.8z M106.6,35.8
		c3.1-1.5,6.5,0.5,8.1,3.5l-9.6,5.9C103.2,42.6,103.5,37.3,106.6,35.8z"/>
	<path class="st0" d="M137,71.9h-17v23.9h17c1.3,0,2.3-1,2.3-2.3V74.3C139.3,73,138.2,71.9,137,71.9z M133.1,92
		c0,0.5-0.4,0.9-0.9,0.9h-5.9V74.5h5.9c0.5,0,0.9,0.4,0.9,0.9V92z"/>
	<path class="st0" d="M82.4,71.9l-4.1-0.1l-9.7,24h2.7l2.7-6.7h8.3l2.8,6.7h7L82.4,71.9z M75.1,86.4l3.1-7.5l3.1,7.5H75.1z"/>
	<path class="st0" d="M187,51.1c-1.6,0-2.9,1.3-2.9,2.9s1.3,2.9,2.9,2.9c1.6,0,2.9-1.3,2.9-2.9C189.9,52.4,188.6,51.1,187,51.1z
		 M187,56.5c-1.4,0-2.5-1.1-2.5-2.5c0-1.4,1.1-2.5,2.5-2.5c1.4,0,2.5,1.1,2.5,2.5C189.5,55.3,188.4,56.5,187,56.5z"/>
	<path class="st0" d="M188.3,54.7c-0.1-0.6-0.1-0.6-0.4-0.8c0.3-0.2,0.4-0.4,0.4-0.8c0-0.7-0.5-0.8-1-0.8h-1.4v3.1h0.4v-1.3h1.1
		c0.7,0,0.5,0.6,0.5,0.9l0.1,0.4h0.5C188.3,55.2,188.4,55.1,188.3,54.7z M187.4,53.7h-1v-1.1h1c0.3,0,0.6,0.1,0.6,0.6
		C187.9,53.7,187.6,53.7,187.4,53.7z"/>
</g>
</svg>
