<?xml version="1.0" encoding="utf-8"?>
<!-- Generator: Adobe Illustrator 21.0.0, SVG Export Plug-In . SVG Version: 6.00 Build 0)  -->
<svg version="1.1" id="Layer_1" xmlns="http://www.w3.org/2000/svg" xmlns:xlink="http://www.w3.org/1999/xlink" x="0px" y="0px"
	 viewBox="0 0 250 115" style="enable-background:new 0 0 250 115;" xml:space="preserve">
<style type="text/css">
	.st0{fill:#9A0000;}
	.st1{fill:#FFFFFF;}
</style>
<g>
	<path class="st0" d="M122.9,36.1c0-0.7,0-1.3,0-2.1c5.3,0,10.5,0,16,0c0,0.7,0.1,1.3,0.1,1.9c-0.3,0.2-0.4,0.3-0.5,0.3
		c-5-0.1-5.2,1.3-5.3,5.6c-0.1,7.7-0.2,15.3-0.4,23c0,1.8-0.3,3.6-0.7,5.4c-1.7,7.1-7,11.8-14.3,12.4c-3.2,0.3-6.6,0.1-9.8-0.5
		c-6.6-1.2-10.7-5.9-11.5-12.7c-0.4-3.7-0.5-7.5-0.6-11.3c-0.1-5.7,0-11.4,0-17.2c0-4.2-0.4-4.6-4.6-4.7c-0.4,0-0.8-0.1-1.3-0.1
		c-0.1-0.4-0.2-0.7-0.2-1.1c0-0.3,0.1-0.7,0.2-1.1c6.9,0,13.8,0,20.9,0c0.1,0.7,0.1,1.3,0.2,2.3c-1.2,0-2.3-0.1-3.4,0
		c-1.9,0.2-3.3,1.1-3.3,3.1c0,9.8-0.1,19.7,0.3,29.5c0.3,6.4,4.1,9.9,10.2,10.5c6.1,0.6,11.5-2.6,13.3-8.2c0.6-1.7,0.9-3.5,0.9-5.3
		c0-8-0.1-15.9-0.4-23.8C128.6,36.9,128.2,36.6,122.9,36.1z"/>
	<path class="st0" d="M213.6,70c1.4,0.6,1.8,1.2,0.8,2.5c-8,11.4-24.8,13.9-35.7,5.3c-8.3-6.5-11.2-19.5-6.8-30.2
		c4.2-10.2,14.3-16.1,25.5-14.5c4,0.6,7.8,1.9,12,3c0.1-0.1,0.2-0.8,0.6-1.3c0.2-0.3,0.8-0.7,1.1-0.6c0.3,0,0.7,0.6,0.8,0.9
		c0.6,4.4,1.1,8.9,1.6,13.3c0,0.5-0.6,1-0.9,1.5c-0.4-0.3-1-0.6-1.3-1c-1.4-2.4-2.5-5-4.2-7.2c-3.9-4.8-9.1-6.8-15.2-6
		c-4.4,0.6-7.7,3-10,6.9c-5.1,8.7-3.5,22.7,3.1,30.3c7.9,9.1,21.7,5.4,27.3-1.3C212.7,71.1,213.2,70.6,213.6,70z"/>
	<path class="st0" d="M165,33.4c0.4,3.8,0.8,7.6,1.2,11.4c0,0.4-0.6,1.1-0.8,1.1c-0.5-0.1-1-0.5-1.3-0.9c-1.3-2-2.3-4.3-3.8-6.2
		c-2.4-3.1-5.9-3.6-9.5-2.8c-2.9,0.6-4.8,2.6-5.3,5.6c-0.5,3.1-0.1,6.2,2.8,8c2.3,1.5,5,2.4,7.5,3.6c2.2,1,4.5,1.6,6.5,2.8
		c5.6,3.3,7.6,9.3,5.9,16.5c-1.5,6.1-6.3,10.1-12.6,10.4c-4.6,0.2-9.1-0.3-12.9-3.3c-1-0.8-1.8-0.8-2.6,0.4
		c-0.2,0.4-0.9,0.5-1.3,0.8c-0.2-0.5-0.6-1-0.5-1.4c0.4-4,0.8-8,1.2-12.1c1.3-0.4,1.8-0.2,2.2,1.2c0.7,2.4,1.5,5,2.8,7.1
		c2,3.4,5.4,4.8,9.3,4.6c4.1-0.2,7.3-2.6,8.2-6c1-4-0.5-8.1-3.9-10.2c-1.9-1.1-4-1.9-6-2.9c-2.6-1.3-5.3-2.5-7.8-4
		c-5.2-3.3-6.2-8.5-5.1-14c1-5.2,4.8-8.4,9.9-9.4c3.1-0.6,6.5-0.1,9.7,0.2c2.1,0.2,4.2,2,6-1C164.7,33,164.8,33.2,165,33.4z"/>
	<g>
		<g>
			<path d="M51.9,82.2C51.9,82.2,51.8,82.2,51.9,82.2c0.5,0.4,1.5,1.4,1.8,1.6c1.2,0.9,2.4,1.8,3.5,2.7c0.2,0.2,0.4,0.2,0.6,0
				c1.2-0.9,2.5-1.8,3.7-2.7l2-1.7c6.8-6.2,11.5-13.7,14.3-22.4c2.8-8.7,3.3-17.6,1.5-26.6c-3.9,1.2-7.7,1.1-11.5,0.3
				s-7.4-2.1-10.3-4.9c-2.9,2.7-6.4,4.1-10.1,5c-3.8,0.8-7.5,1.1-11.3-0.3c-1.3,6.6-1.4,13.1-0.2,19.6C37.9,64.2,43.3,74,51.9,82.2z
				"/>
		</g>
		<path d="M62.2,39.7c1-2,2.1-4.1,3.1-6.2c-0.3-0.1-0.5-0.1-0.7-0.2c-1,2.2-2,4.3-3,6.5c0.1-0.3,0.2-0.7,0.4-1
			c0.5-1.1,0.9-2.1,1.4-3.2c0.3-0.8,0.7-1.6,1-2.4c-0.7-0.2-1.3-0.5-1.9-0.7c-0.3,0.8-0.5,1.5-0.8,2.2c-0.5,1.5-1.1,3.1-1.6,4.6
			c0-0.2,0.1-0.4,0.1-0.5c0.6-1.9,1.2-3.8,1.8-5.7c0.2-0.7,0.2-0.7-0.5-1c0,0-0.1,0-0.2,0c-0.7,2.6-1.3,5.2-2,7.8
			c0.3,0.2,0.5,0.2,0.6-0.1c0.1,0.1,0.1,0.3,0.2,0.4c0.2,0.1,0.5,0.2,0.7,0.3c0.1,0,0.3-0.1,0.4-0.1c-0.1,0.4,0,0.5,0.4,0.3
			c0.1,0.1,0.2,0.3,0.3,0.4c0.2-0.2,0.3-0.4,0.4-0.5c-0.1,0.2-0.1,0.3-0.2,0.6c0.3,0.2,0.6,0.3,0.9,0.5c0.1,0.1,0.1,0.2,0.2,0.3
			c0.2-0.2,0.4-0.4,0.6-0.6c-0.2,0.2-0.3,0.4-0.5,0.6c0.2,0.4,0.4,0.2,0.6,0.1c-0.1,0.1-0.3,0.1-0.4,0.2c0.4,0.5,0.7,0.8,1,1.1
			c0.1,0.1,0.1,0.2,0.2,0.3c0,0.2,0.1,0.4,0.4,0.3c0,0.1-0.1,0.3-0.1,0.3c0.4,0.8,0.7,1.7,0.8,2.7c0,0.1,0.2,0.2,0.2,0.3
			c0,0-0.1,0.1-0.2,0.2c0.1,0.1,0.2,0.2,0.3,0.2c1-0.2,2-0.3,3-0.5c0,0,0-0.1,0-0.1c0,0-0.1,0-0.2-0.1c1.9-0.2,3.7-0.8,5.6-0.8
			c1.4,0,2.8-0.3,4.1-0.5c0.7-0.1,0.7-0.1,0.7-0.9c0-0.1,0-0.1,0-0.2c-3.5,0.7-7,1.3-10.5,2c0.3-0.1,0.6-0.2,1-0.3
			c3.1-0.6,6.1-1.2,9.2-1.9c0.1,0,0.4-0.2,0.4-0.3c0-0.6,0-1.3,0-2c-3.5,1-6.9,2-10.3,3.1c0.1-0.1,0.3-0.2,0.4-0.2
			c3-0.9,6-1.9,9-2.8c1-0.3,1-0.3,0.8-1.4c0,0,0,0-0.1-0.1c-3.5,1.3-7,2.6-10.5,3.9c0.1-0.1,0.3-0.2,0.4-0.3
			c3.1-1.2,6.2-2.4,9.4-3.7c0.9-0.3,0.9-0.4,0.7-1.3c0,0,0-0.1-0.1-0.1c-1.8,0.8-3.5,1.6-5.3,2.4c-1.8,0.8-3.5,1.6-5.3,2.4
			c0.1-0.1,0.2-0.2,0.3-0.3c3.1-1.5,6.3-3,9.4-4.5c0.8-0.4,0.8-0.4,0.7-1.3c-0.1-0.7-0.2-1.4-0.3-2.1c-1.2,0.7-2.3,1.4-3.4,2
			c-2.6,1.5-5.2,3-7.8,4.6c0.1-0.1,0.2-0.2,0.3-0.3c0.9-0.6,1.9-1.1,2.8-1.7c2.5-1.5,5.1-3.1,7.6-4.7c0.2-0.1,0.4-0.3,0.4-0.5
			c0-0.4-0.1-0.7-0.2-1.1c-0.2,0.1-0.3,0.2-0.4,0.2c-1.2,0.8-2.4,1.7-3.6,2.5c-2.4,1.6-4.7,3.3-7.1,4.9c0.1-0.1,0.2-0.3,0.4-0.4
			c3.2-2.3,6.3-4.5,9.5-6.8c0.1-0.1,0.3-0.2,0.5-0.4c-0.7,0.1-1.3,0.2-1.8,0.3c-0.3,0.1-0.6,0.2-0.9,0.4c-1,0.8-2,1.6-3,2.4
			c-1.5,1.2-3,2.3-4.4,3.5c0.1-0.2,0.3-0.3,0.4-0.5c2.2-1.8,4.3-3.6,6.5-5.4c0.1-0.1,0.2-0.1,0.4-0.2c0,0-0.1-0.1-0.1-0.1
			c-0.8,0-1.6,0-2.5,0c-0.2,0-0.5,0.1-0.7,0.3c-1.1,1-2.2,2-3.3,3c-1,0.9-2,1.8-3,2.7c0.1-0.1,0.2-0.3,0.4-0.4
			c1.8-1.7,3.6-3.5,5.5-5.2c0.1-0.1,0.3-0.2,0.4-0.2c-0.8-0.3-1.5-0.4-1.9,0.4c-0.1,0.2-0.3,0.3-0.5,0.5c-1.7,1.8-3.4,3.6-5.2,5.4
			c0.1-0.2,0.3-0.4,0.4-0.5c1.7-1.9,3.5-3.8,5.2-5.7c0.1-0.1,0.2-0.2,0.2-0.3c-0.7-0.3-1.1-0.1-1.5,0.4c-0.9,1.1-1.8,2.2-2.7,3.3
			c-0.7,0.8-1.4,1.6-2.1,2.4c0.1-0.2,0.2-0.3,0.3-0.5c1.5-1.9,2.9-3.7,4.4-5.5c0.1-0.1,0.2-0.3,0.3-0.4c-0.6-0.1-1.2-0.2-1.7-0.4
			c-0.3-0.1-0.5,0-0.7,0.3c-0.6,1.1-1.3,2.1-2,3.1c-0.6,0.9-1.1,1.7-1.7,2.6c0.1-0.2,0.2-0.4,0.3-0.6c1-1.7,2.1-3.4,3.1-5.1
			c0.1-0.1,0.1-0.3,0.2-0.4c-0.8-0.4-0.8-0.4-1.2,0.3C64.3,36,63.3,37.9,62.2,39.7z"/>
		<path d="M53.1,40.4c0.3,0.4,0.3,0.4,0.6,0c0.4-0.1,0.9-0.2,1.3-0.4c0,0,0-0.1,0-0.2c0.1,0.3,0.3,0.2,0.6,0.1
			c-0.7-2.6-1.3-5.2-2-7.8c-0.3,0.1-0.6,0.3-0.8,0.4c0.7,2.2,1.4,4.4,2.1,6.6c-0.1-0.1-0.2-0.3-0.2-0.4c-0.5-1.6-1.1-3.2-1.6-4.8
			c-0.1-0.4-0.3-0.9-0.5-1.3c-0.6,0.2-1.2,0.5-1.9,0.7c0.9,2.2,1.9,4.3,2.8,6.4c-0.1-0.2-0.2-0.3-0.3-0.5c-0.8-1.8-1.6-3.6-2.4-5.4
			c-0.1-0.2-0.1-0.3-0.2-0.5c-0.3,0.1-0.5,0.2-0.8,0.3c1.1,2.2,2.2,4.2,3.3,6.3c-0.1-0.1-0.3-0.3-0.3-0.4c-0.8-1.5-1.6-3-2.4-4.5
			c-0.2-0.5-0.5-0.9-0.8-1.4c-0.3,0.1-0.6,0.2-0.9,0.3c1.2,2,2.3,3.9,3.5,5.8c-0.1-0.1-0.3-0.3-0.4-0.4c-1-1.6-2.1-3.3-3.1-4.9
			c-0.1-0.1-0.3-0.3-0.4-0.3c-0.6,0.1-1.3,0.2-1.9,0.4c0.1,0.2,0.2,0.3,0.3,0.4c1.5,1.9,3.1,3.9,4.6,5.8c-0.2-0.2-0.3-0.3-0.5-0.5
			c-1.4-1.7-2.8-3.4-4.2-5.1c-0.5-0.6-0.6-0.7-1.5-0.3c0.1,0.1,0.1,0.1,0.2,0.2c1.9,2,3.7,4,5.6,6.1c0.1,0.1,0.2,0.3,0.3,0.5
			c-2-2.1-4-4.2-6-6.3c-0.5-0.5-1-0.6-1.8-0.2c0.1,0.1,0.2,0.1,0.3,0.2c1.9,1.8,3.7,3.5,5.6,5.3c0.4,0.3,0.7,0.7,1.1,1.1
			c-0.2-0.1-0.3-0.2-0.5-0.4c-2.2-2-4.4-4-6.5-6c-0.1-0.1-0.3-0.3-0.4-0.3c-0.9,0-1.8,0-2.8,0c0.1,0.1,0.2,0.2,0.3,0.2
			c1.1,0.9,2.2,1.8,3.2,2.7c1.3,1.1,2.5,2.1,3.8,3.2c-0.1-0.1-0.3-0.1-0.4-0.2c-2.2-1.8-4.5-3.5-6.7-5.4c-0.9-0.8-2-0.7-3-1.1
			c0,0,0,0.1-0.1,0.1c3.3,2.3,6.5,4.7,9.8,7c0,0,0,0.1-0.1,0.1c-3.4-2.3-6.8-4.7-10.2-7c-0.1,0.4-0.1,0.7-0.2,1
			c-0.1,0.3,0,0.4,0.3,0.6c2.5,1.5,4.9,3,7.4,4.5c0.9,0.6,1.8,1.1,2.7,1.7c0,0,0,0.1-0.1,0.1c-3.5-2-6.9-4.1-10.4-6.2
			c-0.1,0.9-0.2,1.7-0.3,2.5c-0.1,0.4,0.1,0.5,0.4,0.7c3.1,1.4,6.1,2.9,9.2,4.4c0.2,0.1,0.5,0.2,0.7,0.4c0,0,0,0.1,0,0.1
			c-3.4-1.6-6.8-3.1-10.3-4.7c0,0.2,0,0.4-0.1,0.5c-0.2,0.5,0.1,0.7,0.5,0.9c2.5,1,5,1.9,7.4,2.9c0.7,0.3,1.4,0.5,2,0.8
			c0,0,0,0.1,0,0.1c-3.3-1.2-6.6-2.5-10-3.8c0,0.3,0,0.5,0,0.7c-0.1,0.4,0.1,0.6,0.5,0.7c2.6,0.8,5.2,1.6,7.8,2.4
			c0.6,0.2,1.3,0.4,1.9,0.6c0,0,0,0.1,0,0.1c-3.4-1-6.8-2-10.3-3c0,0.8,0,1.5,0,2.2c3.1,0.6,6.2,1.3,9.3,1.9c0,0,0,0.1,0,0.1
			c-3.1-0.6-6.2-1.1-9.3-1.7c0,0.4,0,0.6,0,1c3.4,0.4,6.8,0.9,10.2,1.3c0,0,0,0.1,0,0.1c-0.2,0-0.3,0-0.5,0c0,0,0,0.1,0,0.1
			c1.1,0.2,2.2,0.4,3.3,0.6c0-0.3-0.1-0.4,0-0.5c0.1-1.1,0.5-2.2,1-3.2c0.1-0.2,0.2-0.5,0.4-0.7c0.3-0.3,0.6-0.6,1-0.9
			c-0.2-0.2-0.4-0.4-0.6-0.6c0.2,0.1,0.4,0.3,0.6,0.4c0.2-0.1,0.3-0.2,0.2-0.5c0.3,0.2,0.4,0.1,0.5-0.2c0.6-0.2,0.9-0.5,0.8-0.9
			c0.1,0.1,0.3,0.1,0.4,0.2C53,40.7,53.1,40.5,53.1,40.4z"/>
		<path d="M58.9,39.7c0.1,0.1,0.2,0.1,0.4,0.2c0.1-0.2,0.1-0.2,0.1-0.3c0.6-2.4,1.1-4.7,1.7-7.1c0.2-0.7,0.1-0.7-0.6-0.9
			c0,0,0,0.1-0.1,0.1c-0.4,1.9-0.7,3.8-1,5.7C59.3,38.3,59.1,39,58.9,39.7c0-0.2,0.1-0.4,0.1-0.7c0.4-2.4,0.8-4.8,1.2-7.2
			c0-0.1,0-0.4-0.1-0.4c-0.4-0.3-0.9-0.5-1.3-0.8c-0.2,3.1-0.5,6.1-0.7,9.3C58.4,39.8,58.7,39.8,58.9,39.7z"/>
		<path d="M40.2,50.2c-0.7,0.1-2,0.4-3.4,0.7c-0.4,0.1-0.5,0.3-0.4,0.7c0.9,5.3,2.5,10.4,4.9,15.3c3.8,7.5,9,13.8,15.9,18.7
			c0.2,0.2,0.4,0.2,0.6,0c4.4-2.9,8.1-6.5,11.2-10.6c5.2-6.9,8.4-14.7,9.9-23.2c0.1-0.3,0-0.5-0.3-0.6c-1.5-0.5-3.1-0.9-4.7-0.9
			c-1.4-0.1-2.8,0.3-4.1,0.7c-1.7,0.5-3.5,1-5.3,0.7c-1.1-0.2-2.1-0.4-3.2-0.7c-1.4-0.4-2.7-0.9-4.1-0.8c-1.3,0.1-2.6,0.4-3.8,0.8
			c-2.9,0.9-5.7,1-8.5,0C43.6,50.5,42.2,50.2,40.2,50.2z"/>
		<path d="M65.3,47.6c0-3.6-3.3-7.4-8.3-7.2c-5.1,0.2-7.6,4.2-7.5,7.1c0.2,0,0.5,0,0.7-0.1c1.3-0.3,2.6-0.6,3.8-0.9
			c1.6-0.4,3.2-0.7,4.8-0.4c1.1,0.2,2.3,0.6,3.4,0.9C63.3,47.2,64.3,47.4,65.3,47.6z"/>
		<path d="M79.1,50.5c0.2-0.9,0.2-0.9-0.6-1.1c-0.3-0.1-0.7-0.2-1-0.3c-1.6-0.4-3.2-0.8-4.8-0.5c-1.2,0.2-2.4,0.5-3.7,0.9
			c-1.6,0.4-3.2,0.7-4.9,0.4c-1.3-0.2-2.6-0.6-3.8-0.9c-1.3-0.4-2.7-0.7-4.1-0.4c-1.3,0.3-2.6,0.6-3.8,1c-1.5,0.4-3.1,0.7-4.6,0.4
			c-1.2-0.2-2.5-0.5-3.7-0.9c-2.6-0.8-5.1-0.5-7.7,0.3c-0.3,0.1-0.4,0.2-0.3,0.5c0,0.2,0.1,0.3,0.1,0.5c0.1,0,0.1,0,0.1,0
			c0.2,0,0.3-0.1,0.4-0.1c1.7-0.5,3.4-0.9,5.2-0.6c1.2,0.2,2.4,0.5,3.5,0.8c1.6,0.4,3.3,0.8,4.9,0.5c1.2-0.2,2.4-0.6,3.6-0.9
			c1.7-0.5,3.3-0.8,5-0.4c1.1,0.3,2.2,0.6,3.4,0.9c1.6,0.4,3.2,0.7,4.8,0.4c1.2-0.2,2.3-0.5,3.5-0.9c1.8-0.5,3.6-0.7,5.5-0.2
			C77.1,50,78.1,50.2,79.1,50.5z"/>
		<path d="M79.3,48.8c0.1-0.8,0.1-0.8-0.6-1.1c0,0-0.1,0-0.1,0c-2.7-0.9-5.5-1.3-8.3-0.3c-1.6,0.5-3.1,0.9-4.8,0.9
			c-1.7,0-3.2-0.5-4.8-1c-1.4-0.4-2.8-0.8-4.3-0.5c-1,0.2-2,0.4-2.9,0.7c-2.8,0.9-5.6,1-8.4,0.1c-1.2-0.4-2.5-0.6-3.8-0.7
			c-1.5-0.1-3,0.3-4.5,0.7c-0.8,0.2-0.8,0.2-0.7,1c0,0,0,0.1,0.1,0.1c0.2,0,0.3-0.1,0.5-0.1c1.7-0.5,3.4-0.9,5.2-0.7
			c1.3,0.2,2.7,0.5,4,0.9c1.6,0.4,3.3,0.7,5,0.4c1.2-0.2,2.3-0.6,3.5-0.9c1.6-0.4,3.1-0.7,4.7-0.4c1.2,0.2,2.3,0.6,3.5,0.9
			c1.5,0.4,3,0.7,4.5,0.5c1.2-0.2,2.5-0.6,3.7-0.9c1.6-0.4,3.3-0.7,5-0.4C76.8,48.2,78,48.5,79.3,48.8z"/>
		<path d="M56.2,30.5c-0.5,0.3-0.9,0.6-1.3,0.9c-0.1,0.1-0.1,0.3-0.1,0.4c0.2,1.4,0.5,2.8,0.7,4.3c0.2,1.2,0.4,2.5,0.6,3.8
			c0.3-0.2,0.8,0.3,0.8-0.4c-0.2-2.3-0.4-4.6-0.5-6.9C56.3,31.9,56.2,31.2,56.2,30.5z"/>
		<path d="M57.6,29.7c0,0.1,0,0.2,0,0.2c0,3.2,0,6.3,0,9.5c0,0.1,0.1,0.2,0.2,0.3c0.1-0.1,0.2-0.3,0.2-0.4c0.2-2.9,0.4-5.7,0.5-8.6
			c0-0.2-0.1-0.4-0.2-0.5C58.2,30,57.9,29.9,57.6,29.7z"/>
		<path d="M57,39.7c0.5,0.1,0.5-0.1,0.5-0.4c0-3.1-0.1-6.2-0.1-9.3c0-0.1,0-0.2,0-0.3c-0.6,0.4-1,0.8-0.9,1.5
			c0.2,1.6,0.2,3.2,0.3,4.8C56.8,37.2,56.9,38.5,57,39.7z"/>
		<path d="M54.5,31.5c-0.3,0.3-0.9,0.2-0.7,0.8c0.6,2.4,1.2,4.8,1.8,7.2c0,0.1,0.2,0.2,0.3,0.3c0-0.1,0.1-0.3,0.1-0.4
			c-0.2-1.1-0.4-2.2-0.6-3.3C55,34.6,54.8,33.1,54.5,31.5z"/>
		<path d="M79.5,45.7c-1.3,0.1-2.6,0.3-3.8,0.4c0,0,0,0.1,0,0.1c1.3,0.1,2.5,0.8,3.8,0.4C79.5,46.4,79.5,46.1,79.5,45.7z"/>
		<path d="M39.3,46.2C39.3,46.2,39.2,46.1,39.3,46.2c-1.1-0.2-2.3-0.3-3.5-0.5c0,0.2,0,0.4,0,0.5c-0.1,0.5,0.2,0.6,0.6,0.6
			C37.3,46.6,38.3,46.4,39.3,46.2z"/>
		<path class="st1" d="M40.2,50.2c2.1,0,3.4,0.3,4.7,0.7c2.8,1,5.7,0.9,8.5,0c1.2-0.4,2.6-0.6,3.8-0.8c1.4-0.1,2.8,0.4,4.1,0.8
			c1,0.3,2.1,0.5,3.2,0.7c1.8,0.3,3.6-0.2,5.3-0.7c1.4-0.4,2.7-0.8,4.1-0.7c1.6,0.1,3.2,0.4,4.7,0.9c0.3,0.1,0.3,0.3,0.3,0.6
			c-1.4,8.5-4.6,16.3-9.9,23.2c-3.1,4.2-6.9,7.7-11.2,10.6c-0.3,0.2-0.4,0.1-0.6,0c-6.9-4.9-12.1-11.2-15.9-18.7
			c-2.4-4.8-4-9.9-4.9-15.3c-0.1-0.4,0-0.6,0.4-0.7C38.1,50.6,39.5,50.3,40.2,50.2z M54.7,58.6c-0.9,1-0.9,1.5,0,2.5
			c0.3,0.4,0.6,0.7,0.9,1.1c0.1,0.1,0.1,0.2,0.1,0.3c0.2,3.3,0.3,6.6,0.5,9.9c0,0.3,0,0.4-0.3,0.6c-0.5,0.2-0.8,0.7-0.8,1.2
			c0,0.5,0.4,1,0.9,1.2c0.3,0.1,0.4,0.2,0.4,0.5c0.1,1.3,0.1,2.5,0.2,3.8c0,0.7,0.5,1.1,1,1.1c0.6,0,1-0.5,1-1.1
			c0.1-1.3,0.1-2.5,0.2-3.8c0-0.3,0.1-0.4,0.4-0.5c0.6-0.2,0.9-0.6,0.9-1.2c0.1-0.5-0.3-1-0.8-1.2c-0.2-0.1-0.3-0.2-0.3-0.5
			c0.2-3.3,0.3-6.6,0.5-9.9c0-0.1,0-0.3,0.1-0.4c0.4-0.4,0.8-0.9,1.2-1.3c0.6-0.6,0.6-1.6-0.1-2.2c-0.1-0.1-0.2-0.1-0.3-0.2
			c0.7-1.1,0.7-1.8,0.3-3c-0.2-0.5-0.1-0.9,0.3-1.3c0.2-0.2,0.5-0.4,0.7-0.6c-0.8-0.1-1.1-0.1-2.1,0.4c-1-1.6-2-2.6-2.8-2.8
			c0.2,0.8,0.5,1.5,0,2.2c-0.7-0.3-1.3-0.5-2-0.8c0.5,1.1,0.5,1.1,0,2.1c-0.1,0.3-0.3,0.6-0.4,0.8C53.9,56.7,53.8,57.7,54.7,58.6z
			 M45.5,53.7c0.2,0.5,0.5,0.8,0.1,1.4c-0.7,1-0.7,2-0.1,3c-0.5,0.6-0.6,1-0.3,1.5c0.2,0.4,0.5,0.7,0.8,1c0.1,0.1,0.2,0.3,0.2,0.5
			c0.1,2.3,0.2,4.6,0.3,6.9c0,0.1-0.1,0.4-0.3,0.4c-0.3,0.2-0.5,0.5-0.5,0.9s0.2,0.7,0.6,0.9c0.3,0.1,0.3,0.3,0.3,0.5
			c0,0.9,0.1,1.7,0.1,2.6c0,0.5,0.4,0.8,0.8,0.8c0.4,0,0.7-0.3,0.8-0.8c0-0.1,0-0.2,0-0.3c0-0.8,0.1-1.6,0.1-2.4
			c0-0.2,0.1-0.4,0.3-0.5c0.4-0.1,0.6-0.5,0.6-0.9c0-0.4-0.2-0.7-0.5-0.9c-0.3-0.1-0.3-0.3-0.3-0.5c0.1-2.2,0.2-4.5,0.3-6.7
			c0-0.3,0.1-0.5,0.3-0.7c0.3-0.3,0.5-0.6,0.8-1c0.3-0.4,0.2-0.9-0.1-1.3c-0.1-0.1-0.2-0.2-0.3-0.3c0,0,0.1,0,0.1,0
			c0-0.5,0.2-1,0.1-1.4c-0.1-0.8-0.1-1.5,0.5-2.1c0,0,0-0.1-0.1-0.2c-0.5,0.2-0.9,0.3-1.4,0.5c-0.8-1.2-1.5-1.8-2.1-2
			c0.1,0.5,0.4,1.1,0,1.6C46.5,54.1,46,53.9,45.5,53.7z M65.3,58.1c-0.5,0.6-0.6,1.1-0.2,1.5c0.3,0.3,0.6,0.7,0.8,1
			c0.1,0.1,0.2,0.3,0.2,0.4c0.1,2.3,0.2,4.6,0.4,6.9c0,0.2-0.1,0.4-0.3,0.5c-0.2,0.2-0.5,0.6-0.5,0.9c-0.1,0.4,0.2,0.7,0.6,0.9
			c0.3,0.1,0.3,0.3,0.3,0.5c0,0.8,0.1,1.7,0.1,2.5c0,0.6,0.3,0.9,0.8,0.9c0.5,0,0.8-0.4,0.8-1c0-0.8,0.1-1.7,0.1-2.5
			c0-0.2,0.2-0.4,0.3-0.4c0.4-0.2,0.6-0.5,0.6-0.9c0-0.4-0.2-0.7-0.5-1c-0.1-0.1-0.2-0.3-0.2-0.4c0.1-2.3,0.2-4.6,0.3-7
			c0-0.1,0-0.2,0.1-0.3c0.2-0.3,0.4-0.5,0.6-0.8c0.7-0.8,0.7-1.2,0-2c0.3-0.6,0.3-1.2,0.2-1.9c-0.1-0.5,0-1,0.3-1.3
			c0.1-0.1,0.2-0.2,0.3-0.4c0,0,0-0.1-0.1-0.1c-0.5,0.1-0.9,0.3-1.4,0.5c-0.4-0.9-1.2-1.6-2.1-2.1c0.1,0.6,0.4,1.2,0,1.7
			c-0.5-0.2-1-0.4-1.5-0.5c0,0-0.1,0.1-0.1,0.1c0.5,0.5,0.5,0.9,0.1,1.5C64.6,56.2,64.7,57.1,65.3,58.1z"/>
		<path class="st1" d="M50.1,43.2c-0.1,0.2-0.2,0.5-0.4,0.7c-0.5,1-0.9,2.1-1,3.2c0,0.1,0,0.2,0,0.5c-1.2-0.2-2.3-0.4-3.3-0.6
			c0,0,0-0.1,0-0.1c0.2,0,0.3,0,0.5,0c0,0,0-0.1,0-0.1c-3.4-0.4-6.8-0.9-10.2-1.3c0-0.3,0-0.6,0-1c3.2,0.6,6.2,1.2,9.3,1.7
			c0,0,0-0.1,0-0.1c-3.1-0.6-6.2-1.3-9.3-1.9c0-0.7,0-1.4,0-2.2c3.5,1,6.9,2,10.3,3c0,0,0-0.1,0-0.1c-0.6-0.2-1.3-0.4-1.9-0.6
			c-2.6-0.8-5.2-1.6-7.8-2.4c-0.4-0.1-0.6-0.3-0.5-0.7c0-0.2,0-0.4,0-0.7c3.4,1.3,6.7,2.5,10,3.8c0,0,0-0.1,0-0.1
			c-0.7-0.3-1.4-0.5-2-0.8c-2.5-1-4.9-1.9-7.4-2.9c-0.4-0.2-0.7-0.4-0.5-0.9c0-0.1,0-0.3,0.1-0.5c3.5,1.6,6.9,3.1,10.3,4.7
			c0,0,0,0,0-0.1c-0.2-0.1-0.5-0.3-0.7-0.4c-3.1-1.5-6.1-2.9-9.2-4.4c-0.3-0.1-0.4-0.3-0.4-0.7c0.1-0.8,0.2-1.6,0.3-2.5
			c3.5,2.1,7,4.1,10.4,6.2c0,0,0-0.1,0.1-0.1c-0.9-0.6-1.8-1.1-2.7-1.7c-2.5-1.5-4.9-3-7.4-4.5c-0.2-0.1-0.3-0.3-0.3-0.6
			c0.1-0.3,0.1-0.6,0.2-1c3.4,2.4,6.8,4.7,10.2,7c0,0,0-0.1,0.1-0.1c-3.3-2.3-6.5-4.7-9.8-7c0,0,0-0.1,0.1-0.1c1,0.4,2.1,0.3,3,1.1
			c2.2,1.8,4.4,3.6,6.7,5.4c0.1,0.1,0.3,0.2,0.4,0.2C48.2,41.6,49.2,42.4,50.1,43.2z"/>
		<path class="st1" d="M67.8,42.4c2.6-1.5,5.2-3,7.8-4.6c1.1-0.7,2.2-1.3,3.4-2c0.1,0.7,0.2,1.4,0.3,2.1c0.1,0.9,0.1,0.9-0.7,1.3
			c-3.1,1.5-6.3,3-9.4,4.5c-0.1,0.1-0.2,0.1-0.3,0.3c1.8-0.8,3.5-1.6,5.3-2.4c1.8-0.8,3.5-1.6,5.3-2.4c0,0.1,0.1,0.1,0.1,0.1
			c0.2,1,0.2,1-0.7,1.3c-3.1,1.2-6.2,2.5-9.4,3.7c-0.2,0.1-0.3,0.1-0.4,0.3c3.5-1.3,7-2.6,10.5-3.9c0,0.1,0.1,0.1,0.1,0.1
			c0.2,1.1,0.2,1.1-0.8,1.4c-3,0.9-6,1.9-9,2.8c-0.1,0-0.3,0.1-0.4,0.2c3.4-1,6.8-2,10.3-3.1c0,0.7,0,1.4,0,2c0,0.1-0.2,0.3-0.4,0.3
			c-3.1,0.6-6.1,1.2-9.2,1.9c-0.3,0.1-0.6,0.1-1,0.3c3.5-0.6,7-1.3,10.5-2c0,0.1,0,0.2,0,0.2c0,0.7,0,0.8-0.7,0.9
			c-1.4,0.2-2.8,0.5-4.1,0.5c-1.9,0-3.7,0.6-5.6,0.8c0.1,0,0.1,0.1,0.2,0.1c0,0,0,0.1,0,0.1c-1,0.2-2,0.4-3,0.5
			c-0.1,0-0.2-0.1-0.3-0.2c0.1-0.1,0.2-0.2,0.2-0.2c-0.1-0.1-0.2-0.2-0.2-0.3c-0.1-0.9-0.4-1.8-0.8-2.7c0-0.1,0-0.2,0.1-0.3
			C66.1,43.4,67,42.9,67.8,42.4z"/>
		<path class="st1" d="M65.3,47.6c-1-0.2-2-0.4-3-0.6c-1.1-0.3-2.3-0.6-3.4-0.9c-1.6-0.3-3.2,0-4.8,0.4c-1.3,0.3-2.5,0.6-3.8,0.9
			c-0.2,0.1-0.5,0-0.7,0.1c-0.1-2.8,2.5-6.9,7.5-7.1C62.1,40.3,65.3,44,65.3,47.6z"/>
		<path class="st1" d="M79.1,50.5c-1-0.3-1.9-0.5-2.9-0.7c-1.8-0.4-3.7-0.3-5.5,0.2c-1.2,0.3-2.3,0.6-3.5,0.9
			c-1.6,0.3-3.2,0-4.8-0.4c-1.1-0.3-2.2-0.6-3.4-0.9c-1.7-0.4-3.4-0.1-5,0.4c-1.2,0.3-2.4,0.7-3.6,0.9c-1.7,0.3-3.3-0.1-4.9-0.5
			c-1.2-0.3-2.3-0.6-3.5-0.8c-1.8-0.3-3.5,0.1-5.2,0.6c-0.1,0-0.3,0.1-0.4,0.1c0,0-0.1,0-0.1,0c0-0.2,0-0.3-0.1-0.5
			c-0.1-0.3,0-0.4,0.3-0.5c2.5-0.8,5.1-1.1,7.7-0.3c1.2,0.4,2.4,0.7,3.7,0.9c1.6,0.3,3.1,0,4.6-0.4c1.3-0.3,2.5-0.7,3.8-1
			c1.4-0.3,2.7,0.1,4.1,0.4c1.3,0.3,2.5,0.7,3.8,0.9c1.6,0.3,3.3,0,4.9-0.4c1.2-0.3,2.4-0.6,3.7-0.9c1.6-0.3,3.2,0.1,4.8,0.5
			c0.3,0.1,0.7,0.2,1,0.3C79.3,49.6,79.3,49.6,79.1,50.5z"/>
		<path class="st1" d="M79.3,48.8c-1.3-0.3-2.5-0.6-3.8-0.9c-1.7-0.3-3.4,0-5,0.4c-1.2,0.3-2.5,0.7-3.7,0.9c-1.5,0.3-3-0.1-4.5-0.5
			c-1.2-0.3-2.3-0.6-3.5-0.9c-1.6-0.3-3.2,0-4.7,0.4c-1.1,0.3-2.3,0.7-3.5,0.9c-1.7,0.3-3.3,0-5-0.4c-1.3-0.3-2.6-0.7-4-0.9
			c-1.8-0.2-3.5,0.2-5.2,0.7c-0.2,0-0.3,0.1-0.5,0.1c0-0.1-0.1-0.1-0.1-0.1c-0.1-0.8-0.1-0.8,0.7-1c1.5-0.4,3-0.8,4.5-0.7
			c1.3,0.1,2.6,0.3,3.8,0.7c2.8,0.9,5.6,0.9,8.4-0.1c0.9-0.3,1.9-0.5,2.9-0.7c1.5-0.3,2.9,0.1,4.3,0.5c1.6,0.5,3.1,0.9,4.8,1
			c1.7,0,3.3-0.4,4.8-0.9c2.8-0.9,5.6-0.6,8.3,0.3c0,0,0.1,0,0.1,0C79.4,48,79.4,48,79.3,48.8z"/>
		<path class="st1" d="M65.6,40.6c1-0.9,2-1.8,3-2.7c1.1-1,2.2-2,3.3-3c0.2-0.2,0.5-0.2,0.7-0.3c0.8,0,1.6,0,2.5,0
			c0,0,0.1,0.1,0.1,0.1c-0.1,0.1-0.3,0.1-0.4,0.2c-2.2,1.8-4.3,3.6-6.5,5.4c-0.2,0.1-0.3,0.3-0.4,0.5c-0.6,0.5-1.3,1-1.9,1.5
			c-0.4,0.3-0.9,0.7-1.3,1c-0.3-0.3-0.6-0.6-1-1.1c0.2-0.1,0.3-0.1,0.4-0.2C64.6,41.6,65.1,41.1,65.6,40.6z"/>
		<path class="st1" d="M50.1,43.2c-1-0.8-1.9-1.6-2.9-2.4c-1.3-1.1-2.5-2.1-3.8-3.2c-1.1-0.9-2.2-1.8-3.2-2.7
			c-0.1-0.1-0.2-0.1-0.3-0.2c1,0,1.9,0,2.8,0c0.1,0,0.3,0.2,0.4,0.3c2.2,2,4.4,4,6.5,6c0.1,0.1,0.3,0.2,0.5,0.4
			c0.1,0.1,0.2,0.2,0.3,0.4c0.2,0.2,0.4,0.4,0.6,0.6C50.7,42.7,50.4,42.9,50.1,43.2z"/>
		<path class="st1" d="M63.1,41.6c-0.3-0.2-0.6-0.3-0.9-0.5c0.1-0.2,0.2-0.4,0.2-0.6c0.1-0.2,0.3-0.4,0.4-0.6
			c0.6-0.9,1.1-1.7,1.7-2.6c0.7-1,1.3-2.1,2-3.1c0.2-0.3,0.3-0.4,0.7-0.3c0.6,0.1,1.1,0.2,1.7,0.4c-0.1,0.2-0.2,0.3-0.3,0.4
			c-1.5,1.8-2.9,3.7-4.4,5.5c-0.1,0.1-0.2,0.3-0.3,0.5C63.6,41,63.4,41.3,63.1,41.6z"/>
		<path class="st1" d="M60.1,39.4c0.5-1.5,1.1-3.1,1.6-4.6c0.2-0.7,0.5-1.5,0.8-2.2c0.6,0.2,1.3,0.5,1.9,0.7c-0.4,0.8-0.7,1.6-1,2.4
			c-0.5,1.1-0.9,2.1-1.4,3.2c-0.1,0.3-0.2,0.7-0.4,1c-0.1,0.2-0.2,0.3-0.2,0.5c-0.1,0.1-0.3,0.2-0.4,0.1c-0.3,0-0.5-0.1-0.7-0.3
			c-0.1-0.1-0.1-0.2-0.2-0.4C60.1,39.7,60.1,39.5,60.1,39.4z"/>
		<path class="st1" d="M67.8,42.4c-0.9,0.5-1.7,1-2.6,1.5c-0.3,0.1-0.4-0.1-0.4-0.3c0.1-0.1,0.3-0.2,0.4-0.3
			c0.8-0.5,1.6-1.1,2.3-1.6c2.4-1.6,4.7-3.3,7.1-4.9c1.2-0.8,2.4-1.7,3.6-2.5c0.1-0.1,0.2-0.1,0.4-0.2c0.1,0.4,0.2,0.8,0.2,1.1
			c0,0.2-0.2,0.4-0.4,0.5c-2.5,1.6-5.1,3.1-7.6,4.7c-0.9,0.6-1.9,1.1-2.8,1.7C68,42.1,67.9,42.3,67.8,42.4z"/>
		<path class="st1" d="M52.6,40.7c0.1,0.4-0.1,0.7-0.8,0.9c-0.3-0.3-0.5-0.6-0.8-1c-1.5-1.9-3.1-3.8-4.6-5.8
			c-0.1-0.1-0.2-0.2-0.3-0.4c0.7-0.1,1.3-0.3,1.9-0.4c0.1,0,0.3,0.2,0.4,0.3c1,1.6,2.1,3.3,3.1,4.9c0.1,0.2,0.3,0.3,0.4,0.4
			C52.2,40,52.4,40.3,52.6,40.7z"/>
		<path class="st1" d="M53.3,39.6c-0.9-2.1-1.8-4.2-2.8-6.4c0.6-0.2,1.2-0.5,1.9-0.7c0.2,0.5,0.3,0.9,0.5,1.3
			c0.5,1.6,1.1,3.2,1.6,4.8c0.1,0.2,0.2,0.3,0.2,0.4c0.1,0.2,0.1,0.5,0.2,0.7c0,0.1,0,0.2,0,0.2c-0.4,0.1-0.9,0.2-1.3,0.4
			C53.5,40.1,53.4,39.9,53.3,39.6z"/>
		<path class="st1" d="M56.2,30.5c0.1,0.7,0.1,1.3,0.2,2c0.2,2.3,0.4,4.6,0.5,6.9c0,0.7-0.5,0.2-0.8,0.4c-0.2-1.3-0.4-2.6-0.6-3.8
			c-0.2-1.4-0.5-2.8-0.7-4.3c0-0.1,0-0.3,0.1-0.4C55.2,31.1,55.7,30.8,56.2,30.5z"/>
		<path class="st1" d="M58.9,39.7c-0.3,0-0.5,0.1-0.9,0.1c0.2-3.1,0.5-6.2,0.7-9.3c0.5,0.3,0.9,0.5,1.3,0.8c0.1,0.1,0.1,0.3,0.1,0.4
			c-0.4,2.4-0.8,4.8-1.2,7.2C59,39.3,59,39.5,58.9,39.7L58.9,39.7z"/>
		<path class="st1" d="M67.6,41.7c-0.8,0.5-1.6,1.1-2.3,1.6c-0.1,0.1-0.3,0.2-0.4,0.3c-0.1-0.1-0.1-0.2-0.2-0.3
			c0.4-0.3,0.9-0.7,1.3-1c0.6-0.5,1.3-1,1.9-1.5c1.5-1.2,3-2.3,4.4-3.5c1-0.8,2-1.6,3-2.4c0.2-0.2,0.6-0.3,0.9-0.4
			c0.6-0.1,1.1-0.2,1.8-0.3c-0.2,0.2-0.3,0.3-0.5,0.4c-3.2,2.3-6.4,4.5-9.5,6.8C67.9,41.5,67.8,41.6,67.6,41.7z"/>
		<path class="st1" d="M65.6,40.6c-0.5,0.5-1,0.9-1.5,1.4c-0.2,0.1-0.5,0.4-0.7-0.1c0.2-0.2,0.3-0.4,0.5-0.6
			c0.1-0.1,0.2-0.2,0.3-0.3c1.7-1.8,3.4-3.6,5.2-5.4c0.2-0.2,0.3-0.3,0.5-0.5c0.5-0.7,1.1-0.7,1.9-0.4c-0.1,0.1-0.3,0.1-0.4,0.2
			c-1.8,1.7-3.6,3.4-5.5,5.2C65.8,40.3,65.7,40.5,65.6,40.6z"/>
		<path class="st1" d="M50.5,41.8c-0.1-0.1-0.2-0.2-0.3-0.4c-0.4-0.4-0.7-0.7-1.1-1.1c-1.9-1.8-3.7-3.5-5.6-5.3
			c-0.1-0.1-0.2-0.1-0.3-0.2c0.8-0.3,1.3-0.3,1.8,0.2c2,2.1,4,4.2,6,6.3c0.1,0.1,0.2,0.2,0.4,0.3c0.2,0.3,0,0.4-0.2,0.5
			C50.9,42.1,50.7,41.9,50.5,41.8z"/>
		<path class="st1" d="M57.6,29.7c0.3,0.2,0.5,0.4,0.7,0.6c0.1,0.1,0.2,0.3,0.2,0.5c-0.2,2.9-0.3,5.7-0.5,8.6c0,0.1-0.2,0.3-0.2,0.4
			c-0.1-0.1-0.2-0.2-0.2-0.3c0-3.2,0-6.4,0-9.5C57.6,29.9,57.6,29.8,57.6,29.7z"/>
		<path class="st1" d="M57,39.7c-0.1-1.2-0.2-2.5-0.2-3.7c-0.1-1.6-0.2-3.2-0.3-4.8c-0.1-0.8,0.3-1.2,0.9-1.5c0,0.1,0,0.2,0,0.3
			c0,3.1,0.1,6.2,0.1,9.3C57.5,39.6,57.5,39.8,57,39.7z"/>
		<path class="st1" d="M51.3,41.7c-0.1-0.1-0.2-0.2-0.4-0.3c-0.1-0.2-0.2-0.3-0.3-0.5c-1.8-2-3.7-4-5.6-6.1
			c-0.1-0.1-0.1-0.1-0.2-0.2c0.8-0.3,0.9-0.3,1.5,0.3c1.4,1.7,2.8,3.4,4.2,5.1c0.1,0.2,0.3,0.3,0.5,0.5c0.3,0.3,0.5,0.6,0.8,1
			C51.7,41.8,51.6,41.9,51.3,41.7z"/>
		<path class="st1" d="M64.3,41.1c-0.1,0.1-0.2,0.2-0.3,0.3c-0.2,0.2-0.4,0.4-0.6,0.6c-0.1-0.1-0.1-0.2-0.2-0.3
			c0.2-0.3,0.5-0.6,0.7-0.9c0.7-0.8,1.4-1.6,2.1-2.4c0.9-1.1,1.9-2.2,2.7-3.3c0.4-0.6,0.8-0.7,1.5-0.4c-0.1,0.1-0.2,0.2-0.2,0.3
			c-1.7,1.9-3.5,3.8-5.2,5.7C64.5,40.7,64.4,40.9,64.3,41.1z"/>
		<path class="st1" d="M52.6,40.7c-0.2-0.3-0.4-0.7-0.6-1c-1.2-1.9-2.3-3.8-3.5-5.8c0.3-0.1,0.6-0.2,0.9-0.3
			c0.3,0.5,0.5,0.9,0.8,1.4c0.8,1.5,1.6,3,2.4,4.5c0.1,0.2,0.2,0.3,0.3,0.4c0.1,0.1,0.1,0.3,0.2,0.4c0,0.2,0,0.3-0.1,0.5
			C52.9,40.8,52.7,40.7,52.6,40.7z"/>
		<path class="st1" d="M62.8,40c-0.1,0.2-0.3,0.4-0.4,0.6c-0.1,0.1-0.2,0.3-0.4,0.5c-0.1-0.2-0.2-0.3-0.3-0.4
			c0.2-0.3,0.3-0.6,0.5-0.9c1-1.8,2-3.7,3-5.5c0.4-0.7,0.4-0.7,1.2-0.3c-0.1,0.1-0.1,0.3-0.2,0.4c-1,1.7-2.1,3.4-3.1,5.1
			C63,39.6,62.9,39.8,62.8,40z"/>
		<path class="st1" d="M60.1,39.4c0,0.1-0.1,0.3-0.1,0.4c-0.1,0.3-0.3,0.3-0.6,0.1c0.7-2.6,1.3-5.2,2-7.8c0.1,0,0.1,0,0.2,0
			c0.7,0.3,0.7,0.3,0.5,1c-0.6,1.9-1.2,3.8-1.8,5.7C60.2,39,60.2,39.2,60.1,39.4z"/>
		<path class="st1" d="M54.9,39.8c-0.1-0.2-0.1-0.5-0.2-0.7c-0.7-2.2-1.4-4.4-2.1-6.6c0.3-0.1,0.5-0.2,0.8-0.4
			c0.7,2.6,1.3,5.2,2,7.8C55.3,40,55.1,40.1,54.9,39.8z"/>
		<path class="st1" d="M54.5,31.5c0.3,1.6,0.6,3.1,0.9,4.6c0.2,1.1,0.4,2.2,0.6,3.3c0,0.1-0.1,0.3-0.1,0.4c-0.1-0.1-0.3-0.2-0.3-0.3
			c-0.6-2.4-1.2-4.8-1.8-7.2C53.6,31.7,54.1,31.8,54.5,31.5z"/>
		<path class="st1" d="M53.1,40.4c-0.1-0.1-0.1-0.3-0.2-0.4c-1.1-2.1-2.2-4.2-3.3-6.3c0.3-0.1,0.5-0.2,0.8-0.3
			c0.1,0.2,0.2,0.3,0.2,0.5c0.8,1.8,1.6,3.6,2.4,5.4c0.1,0.2,0.2,0.3,0.3,0.5c0.1,0.2,0.2,0.5,0.3,0.7
			C53.4,40.8,53.4,40.8,53.1,40.4z"/>
		<path class="st1" d="M62.2,39.7c-0.2,0.3-0.3,0.6-0.5,0.9c-0.4,0.2-0.5,0-0.4-0.3c0.1-0.2,0.2-0.3,0.2-0.5c1-2.1,2-4.3,3-6.5
			c0.2,0.1,0.5,0.1,0.7,0.2C64.3,35.6,63.3,37.7,62.2,39.7z"/>
		<path class="st1" d="M58.9,39.8c0.2-0.8,0.3-1.5,0.5-2.3c0.4-1.9,0.7-3.8,1-5.7c0,0,0-0.1,0.1-0.1c0.7,0.1,0.8,0.2,0.6,0.9
			c-0.6,2.4-1.1,4.7-1.7,7.1c0,0.1-0.1,0.2-0.1,0.3C59.2,39.9,59,39.8,58.9,39.8C58.9,39.7,58.9,39.8,58.9,39.8z"/>
		<path class="st1" d="M79.5,45.7c0,0.4,0,0.7,0,1c-1.4,0.4-2.6-0.3-3.8-0.4c0,0,0-0.1,0-0.1C76.9,46,78.2,45.8,79.5,45.7z"/>
		<path class="st1" d="M39.3,46.2c-1,0.2-1.9,0.4-2.9,0.6c-0.4,0.1-0.6-0.1-0.6-0.6c0-0.1,0-0.3,0-0.5C37,45.8,38.1,46,39.3,46.2
			C39.2,46.1,39.3,46.2,39.3,46.2z"/>
		<path d="M54.7,58.6c-0.9-0.9-0.9-1.9-0.4-3c0.1-0.3,0.2-0.6,0.4-0.8c0.5-1,0.5-1,0-2.1c0.7,0.3,1.3,0.5,2,0.8
			c0.5-0.7,0.2-1.5,0-2.2c0.8,0.2,1.8,1.1,2.8,2.8c1-0.5,1.3-0.6,2.1-0.4c-0.3,0.2-0.5,0.4-0.7,0.6c-0.4,0.4-0.5,0.8-0.3,1.3
			c0.5,1.2,0.4,1.9-0.3,3c0.1,0.1,0.2,0.1,0.3,0.2c0.7,0.6,0.7,1.6,0.1,2.2c-0.4,0.4-0.8,0.8-1.2,1.3c-0.1,0.1-0.1,0.2-0.1,0.4
			c-0.2,3.3-0.3,6.6-0.5,9.9c0,0.3,0.1,0.4,0.3,0.5c0.5,0.2,0.8,0.7,0.8,1.2c-0.1,0.6-0.4,1-0.9,1.2c-0.3,0.1-0.3,0.2-0.4,0.5
			c-0.1,1.3-0.1,2.5-0.2,3.8c0,0.7-0.4,1.1-1,1.1c-0.6,0-1-0.4-1-1.1c-0.1-1.3-0.1-2.5-0.2-3.8c0-0.3-0.1-0.4-0.4-0.5
			c-0.5-0.1-0.9-0.6-0.9-1.2c0-0.6,0.3-1,0.8-1.2c0.3-0.1,0.3-0.3,0.3-0.6c-0.2-3.3-0.3-6.6-0.5-9.9c0-0.1,0-0.2-0.1-0.3
			c-0.3-0.4-0.6-0.7-0.9-1.1C53.8,60.1,53.8,59.6,54.7,58.6z M58.5,72.8c0.2-3.5,0.3-6.9,0.5-10.4c-0.7,0-1.3,0-2,0c0,2.7,0,5.3,0,8
			c0,0-0.1,0-0.1,0c0-0.1,0-0.2,0-0.4c-0.1-2.4-0.2-4.9-0.3-7.3c0-0.3,0-0.5-0.4-0.3c0.2,3.4,0.3,6.9,0.5,10.4
			C57.3,72.8,57.8,72.8,58.5,72.8z M57.3,56.2c-0.1,0.8-0.3,1.6,0.5,2.3c2.1-2.1,1.9-4.7-0.5-6.4c-0.2,1.5-0.2,1.5-1.2,2.8
			c-0.3,0.3-0.5,0.6-0.7,1c-0.5,0.8-0.3,1.8,0.4,2.5c0.1,0.1,0.2,0.1,0.4,0.2c-0.5-1.1-0.3-1.9,0.3-2.8c0.3-0.4,0.5-0.8,0.8-1.2
			c-0.1,0.4-0.2,0.8-0.4,1.2c-0.3,0.8-0.6,1.5-0.3,2.3c0.1,0.3,0.3,0.4,0.6,0.3C56.9,57.6,56.9,56.9,57.3,56.2z M57.6,58.9
			c-0.7,0-1.4,0-2.1,0c-0.6,0-1,0.4-1,1c0,0.6,0.4,1,1,1c1.4,0,2.8,0,4.2,0c0.6,0,1-0.4,1-1c0-0.6-0.4-1-1-1
			C59,58.9,58.3,58.9,57.6,58.9z M58.4,75.5c-0.5,0-0.9,0-1.3,0c0,0.4,0,0.8,0,1.1c0,0,0,0,0,0c0-0.4-0.1-0.8-0.1-1.3
			c-0.1,0.2-0.2,0.2-0.2,0.2c0.1,1.4,0.1,2.8,0.2,4.2c0,0.3,0.2,0.5,0.6,0.6c0.4,0,0.6-0.2,0.6-0.6C58.2,78.3,58.3,76.9,58.4,75.5z
			 M57.6,75c0.4,0,0.8,0,1.2,0c0.5,0,0.9-0.4,0.9-0.9c0-0.5-0.4-0.9-0.9-0.9c-0.8,0-1.5,0-2.3,0c-0.5,0-0.9,0.4-0.9,0.9
			c0,0.5,0.4,0.8,0.9,0.9C56.8,75,57.2,75,57.6,75z M60.3,54.2c-0.3,0.1-0.8,0.2-0.7,0.6c0.2,1.2-0.2,2.2-0.9,3.2
			c-0.1,0.1-0.2,0.3-0.3,0.4c1.3,0.1,1.8-0.2,1.9-1.2c0-0.4,0-0.8-0.1-1.2C60,55.4,59.8,54.8,60.3,54.2z M55.4,61.3
			c0.2,0.5,0.6,0.6,1,0.6c0.8,0,1.5,0,2.3,0c0.4,0,0.8-0.2,1.1-0.6C58.3,61.3,56.9,61.3,55.4,61.3z M55.6,53.5
			c-0.2,0.5-0.4,1-0.5,1.5c-0.2,0.6-0.5,1.1-0.6,1.7c-0.2,0.7,0.2,1.3,0.7,1.6C55.1,58.1,55,58,55,57.9c-0.4-0.7-0.4-1.5,0-2.2
			c0.2-0.4,0.5-0.7,0.7-1c0.2-0.2,0.4-0.5,0.6-0.8C56,53.7,55.8,53.6,55.6,53.5z"/>
		<path d="M45.5,53.7c0.5,0.2,1,0.4,1.5,0.6c0.4-0.5,0-1,0-1.6c0.7,0.1,1.3,0.8,2.1,2c0.5-0.2,0.9-0.3,1.4-0.5
			c0,0.1,0.1,0.2,0.1,0.2c-0.6,0.6-0.7,1.3-0.5,2.1c0.1,0.5-0.1,0.9-0.1,1.4c0,0-0.1,0-0.1,0c0.1,0.1,0.2,0.2,0.3,0.3
			c0.3,0.4,0.4,0.8,0.1,1.3c-0.2,0.3-0.5,0.7-0.8,1c-0.2,0.2-0.3,0.4-0.3,0.7c-0.1,2.2-0.2,4.5-0.3,6.7c0,0.2,0,0.4,0.3,0.5
			c0.4,0.2,0.6,0.5,0.5,0.9c0,0.4-0.2,0.7-0.6,0.9c-0.3,0.1-0.3,0.2-0.3,0.5c0,0.8-0.1,1.6-0.1,2.4c0,0.1,0,0.2,0,0.3
			c-0.1,0.5-0.4,0.8-0.8,0.8c-0.4,0-0.8-0.3-0.8-0.8c-0.1-0.9-0.1-1.7-0.1-2.6c0-0.2,0-0.4-0.3-0.5c-0.4-0.1-0.6-0.4-0.6-0.9
			c0-0.4,0.2-0.7,0.5-0.9c0.1-0.1,0.3-0.3,0.3-0.4c-0.1-2.3-0.2-4.6-0.3-6.9c0-0.2-0.1-0.4-0.2-0.5c-0.3-0.3-0.6-0.7-0.8-1
			c-0.3-0.5-0.2-0.9,0.3-1.5c-0.6-1-0.6-2,0.1-3C46,54.5,45.7,54.2,45.5,53.7z M48.6,60.9c-0.5,0-0.9,0-1.4,0c0,1.8,0,3.7,0,5.5
			c0,0-0.1,0-0.1,0c-0.1-1.8-0.1-3.7-0.2-5.5c-0.1,0-0.2,0-0.2,0c0.1,2.4,0.2,4.9,0.3,7.4c0.4,0,0.8,0,1.2,0
			C48.4,65.8,48.5,63.3,48.6,60.9z M47.8,57.9c0.7-0.7,1.1-1.5,1-2.5c-0.1-0.8-0.6-1.4-1.2-1.9c0,0.8-0.4,1.3-0.8,1.8
			c-0.2,0.2-0.3,0.4-0.5,0.6c-0.4,0.7-0.2,1.6,0.4,1.9c-0.3-1,0.2-1.8,0.8-2.5c-0.1,0.3-0.2,0.6-0.3,0.9c-0.1,0.4-0.2,0.8-0.2,1.2
			c0,0.3,0.1,0.5,0.4,0.4c0-0.4,0-0.9,0.1-1.3c0,0,0.1,0,0.1,0C47.5,57,47.4,57.5,47.8,57.9z M47.7,59.6c0.5,0,1,0,1.5,0
			c0.4,0,0.7-0.3,0.7-0.6c0-0.4-0.2-0.7-0.6-0.7c-1,0-2,0-3.1,0c-0.4,0-0.6,0.3-0.6,0.7c0,0.4,0.2,0.6,0.6,0.6
			C46.7,59.6,47.2,59.6,47.7,59.6z M48.2,70.2c-0.4,0-0.7,0.1-1,0.1c0,0.4,0,0.7,0,1c0,0.6,0,1.3,0.1,1.9c0,0.1,0.2,0.3,0.4,0.4
			c0.1,0,0.3-0.2,0.4-0.3C48.1,72.3,48.2,71.3,48.2,70.2z M47.7,68.7c-0.3,0-0.6,0-0.9,0c-0.3,0-0.5,0.2-0.5,0.5
			c0,0.4,0.2,0.6,0.5,0.6c0.6,0,1.2,0,1.8,0c0.3,0,0.5-0.2,0.5-0.6c0-0.3-0.2-0.5-0.5-0.5C48.3,68.7,48,68.7,47.7,68.7z M49.6,55
			c0,0-0.1,0-0.1,0c-0.4,0.4,0,1-0.2,1.4c-0.2,0.5-0.4,0.9-0.6,1.4c0.7,0.2,1,0,1-0.8C49.6,56.4,49.6,55.7,49.6,55z M49.1,60.1
			c-1,0-1.9,0-2.9,0C46.7,60.6,48.6,60.6,49.1,60.1z M45.7,57.4c-0.3-1.1,0.3-2,1-2.8c-0.2-0.1-0.3-0.2-0.4-0.2
			c-0.3,0.5-0.5,1-0.7,1.4C45.4,56.4,45.5,56.9,45.7,57.4z"/>
		<path d="M65.3,58.1c-0.6-0.9-0.6-1.9-0.1-2.8c0.4-0.6,0.4-1-0.1-1.5c0,0,0.1-0.1,0.1-0.1c0.5,0.2,1,0.3,1.5,0.5
			c0.4-0.5,0-1.1,0-1.7c1,0.5,1.7,1.2,2.1,2.1c0.5-0.2,0.9-0.3,1.4-0.5c0,0,0,0.1,0.1,0.1c-0.1,0.1-0.2,0.2-0.3,0.4
			c-0.3,0.4-0.4,0.8-0.3,1.3c0.1,0.6,0.1,1.3-0.2,1.9c0.7,0.8,0.7,1.1,0,2c-0.2,0.3-0.4,0.5-0.6,0.8c-0.1,0.1-0.1,0.2-0.1,0.3
			c-0.1,2.3-0.2,4.6-0.3,7c0,0.1,0.1,0.3,0.2,0.4c0.4,0.2,0.6,0.5,0.5,1c0,0.4-0.3,0.7-0.6,0.9c-0.1,0.1-0.3,0.3-0.3,0.4
			c-0.1,0.8-0.1,1.7-0.1,2.5c0,0.6-0.3,0.9-0.8,1c-0.5,0-0.8-0.3-0.8-0.9c-0.1-0.8-0.1-1.7-0.1-2.5c0-0.2,0-0.4-0.3-0.5
			c-0.4-0.1-0.6-0.5-0.6-0.9c0.1-0.3,0.3-0.6,0.5-0.9c0.2-0.2,0.3-0.3,0.3-0.5c-0.1-2.3-0.2-4.6-0.4-6.9c0-0.1-0.1-0.3-0.2-0.4
			c-0.3-0.3-0.6-0.6-0.8-1C64.7,59.1,64.8,58.6,65.3,58.1z M67,65.9c-0.1,0-0.1,0-0.1,0c-0.1-1.7-0.1-3.4-0.2-5c-0.1,0-0.2,0-0.2,0
			c0.1,2.5,0.2,4.9,0.4,7.4c0.4,0,0.8,0,1.2,0c0.1-2.5,0.2-4.9,0.3-7.4c-0.3,0-0.6,0-0.8,0C67.1,60.8,67,61,67,61.3
			C67.1,62.8,67,64.4,67,65.9z M67.4,58c1.6-1.4,1.5-3.3-0.1-4.5c0.1,0.9-0.4,1.4-0.9,2c-0.1,0.2-0.3,0.3-0.4,0.5
			c-0.3,0.6-0.2,1.4,0.3,1.8c0-1.6,0.2-1.5,0.8-2.4c-0.1,0.3-0.2,0.6-0.3,0.9c-0.1,0.4-0.2,0.8-0.2,1.3c0,0.3,0.2,0.4,0.5,0.3
			c0-0.4,0-0.8,0-1.2c0,0,0,0,0,0C67.2,57.1,67.3,57.5,67.4,58z M67.4,59.6c0.5,0,1,0,1.5,0c0.4,0,0.7-0.2,0.7-0.6
			c0-0.4-0.2-0.7-0.7-0.7c-1,0-2,0-3,0c-0.4,0-0.7,0.3-0.7,0.7c0,0.4,0.3,0.6,0.7,0.6C66.4,59.6,66.9,59.6,67.4,59.6z M67,70.4
			C67,70.4,67,70.4,67,70.4c-0.1,0.3-0.1,0.6-0.1,0.9c0,0.6,0,1.3,0.1,1.9c0,0.1,0.2,0.3,0.3,0.4c0.1,0,0.4-0.2,0.4-0.3
			c0.1-1,0.1-2,0.2-3c-0.3,0-0.6,0-0.8,0c0,0.4,0,0.7,0,1c0,0,0,0-0.1,0C67,71,67,70.7,67,70.4z M67.4,69.8
			C67.4,69.8,67.4,69.8,67.4,69.8c0.3,0,0.6,0,0.9,0c0.3,0,0.5-0.2,0.5-0.6c0-0.3-0.2-0.5-0.5-0.6c-0.6,0-1.2,0-1.8,0
			c-0.3,0-0.6,0.2-0.5,0.6c0,0.3,0.2,0.5,0.6,0.6C66.8,69.8,67.1,69.8,67.4,69.8z M68.3,57.8c0.7,0.2,1,0,1-0.7c0-0.7,0-1.3,0-2
			c-0.1,0-0.1,0-0.2,0c0,0.2-0.1,0.3-0.1,0.5c-0.1,0.5-0.2,1.1-0.3,1.6C68.6,57.3,68.4,57.6,68.3,57.8z M66,60.1
			c0.6,0.5,2.5,0.5,2.8,0C67.9,60.1,67,60.1,66,60.1z M66.1,54.5c-0.3,1-1.2,1.8-0.6,2.9c-0.3-1.1,0.3-1.9,1-2.7
			C66.3,54.6,66.2,54.5,66.1,54.5z"/>
		<path class="st1" d="M58.5,72.8c-0.6,0-1.2,0-1.9,0c-0.2-3.5-0.3-6.9-0.5-10.4c0.4-0.2,0.4,0,0.4,0.3c0.1,2.4,0.2,4.9,0.3,7.3
			c0,0.1,0,0.2,0,0.4c0,0,0.1,0,0.1,0c0-2.7,0-5.3,0-8c0.7,0,1.3,0,2,0C58.8,65.9,58.6,69.3,58.5,72.8z"/>
		<path class="st1" d="M57.3,56.2c-0.4,0.7-0.4,1.5-0.1,2.2c-0.3,0.1-0.5,0-0.6-0.3c-0.3-0.8-0.1-1.6,0.3-2.3
			c0.2-0.4,0.3-0.8,0.4-1.2c-0.3,0.4-0.5,0.8-0.8,1.2c-0.5,0.8-0.8,1.7-0.3,2.8c-0.2-0.1-0.4-0.1-0.4-0.2c-0.7-0.6-0.8-1.7-0.4-2.5
			c0.2-0.3,0.4-0.7,0.7-1c1-1.3,1-1.2,1.2-2.8c2.4,1.7,2.6,4.3,0.5,6.4C57.1,57.8,57.2,57,57.3,56.2z"/>
		<path class="st1" d="M57.6,58.9c0.7,0,1.4,0,2,0c0.6,0,1,0.4,1,1c0,0.6-0.4,1-1,1c-1.4,0-2.8,0-4.2,0c-0.6,0-1-0.4-1-1
			c0-0.6,0.4-1,1-1C56.2,58.9,56.9,58.9,57.6,58.9z M58.9,60.4C58.9,60.4,58.9,60.3,58.9,60.4c-0.1-0.1-0.2-0.1-0.3-0.1
			c-0.8-0.1-1.6-0.1-2.4-0.2c-0.5,0-0.9-0.1-0.8-0.8c-0.6,0.2-0.7,0.7-0.2,1c0.2,0.1,0.4,0.2,0.6,0.2C56.9,60.5,57.9,60.5,58.9,60.4
			z"/>
		<path class="st1" d="M58.4,75.5c-0.1,1.5-0.1,2.9-0.2,4.3c0,0.4-0.2,0.6-0.6,0.6c-0.3,0-0.6-0.2-0.6-0.6c-0.1-1.4-0.1-2.8-0.2-4.2
			c0,0,0-0.1,0.2-0.2c0,0.5,0.1,0.9,0.1,1.3c0,0,0,0,0,0c0-0.4,0-0.7,0-1.1C57.5,75.5,57.9,75.5,58.4,75.5z"/>
		<path class="st1" d="M57.6,75c-0.4,0-0.8,0-1.2,0c-0.5,0-0.9-0.4-0.9-0.9c0-0.5,0.4-0.9,0.9-0.9c0.8,0,1.5,0,2.3,0
			c0.5,0,0.9,0.4,0.9,0.9c0,0.5-0.4,0.9-0.9,0.9C58.3,75,57.9,75,57.6,75z M58.2,74.5C58.2,74.5,58.2,74.4,58.2,74.5
			c-0.5-0.1-1-0.2-1.4-0.2c-0.3,0-0.6,0-0.6-0.5c-0.1,0.1-0.3,0.3-0.2,0.4c0.1,0.2,0.3,0.4,0.5,0.4C57,74.6,57.6,74.5,58.2,74.5z"/>
		<path class="st1" d="M60.3,54.2c-0.5,0.6-0.2,1.2,0,1.9c0.1,0.4,0.1,0.8,0.1,1.2c-0.1,1-0.6,1.3-1.9,1.2c0.1-0.2,0.2-0.3,0.3-0.4
			c0.6-1,1.1-2,0.9-3.2C59.5,54.3,60,54.3,60.3,54.2z"/>
		<path class="st1" d="M55.4,61.3c1.5,0,2.9,0,4.4,0c-0.2,0.5-0.6,0.6-1.1,0.6c-0.8,0-1.5,0-2.3,0C56,62,55.6,61.8,55.4,61.3z"/>
		<path class="st1" d="M55.6,53.5c0.2,0.1,0.5,0.3,0.8,0.5c-0.2,0.3-0.4,0.5-0.6,0.8c-0.2,0.3-0.5,0.7-0.7,1c-0.4,0.7-0.4,1.5,0,2.2
			c0.1,0.1,0.1,0.2,0.2,0.4c-0.6-0.3-0.9-0.9-0.7-1.6c0.1-0.6,0.4-1.1,0.6-1.7C55.2,54.5,55.4,54,55.6,53.5z"/>
		<path class="st1" d="M48.6,60.9c-0.1,2.4-0.2,4.9-0.3,7.3c-0.4,0-0.8,0-1.2,0c-0.1-2.5-0.2-4.9-0.3-7.4c0.1,0,0.2,0,0.2,0
			c0.1,1.8,0.1,3.7,0.2,5.5c0,0,0.1,0,0.1,0c0-1.8,0-3.6,0-5.5C47.8,60.9,48.2,60.9,48.6,60.9z"/>
		<path class="st1" d="M47.8,57.9c-0.5-0.4-0.3-0.9-0.3-1.3c0,0-0.1,0-0.1,0c0,0.4,0,0.9-0.1,1.3c-0.3,0.1-0.4-0.1-0.4-0.4
			c0-0.4,0.1-0.8,0.2-1.2c0.1-0.3,0.2-0.6,0.3-0.9c-0.6,0.7-1.1,1.5-0.8,2.5c-0.6-0.3-0.7-1.3-0.4-1.9c0.1-0.2,0.3-0.4,0.5-0.6
			c0.5-0.5,0.9-1,0.8-1.8c0.7,0.5,1.1,1.1,1.2,1.9C49,56.4,48.5,57.2,47.8,57.9z"/>
		<path class="st1" d="M47.7,59.6c-0.5,0-1,0-1.5,0c-0.4,0-0.6-0.2-0.6-0.6c0-0.4,0.2-0.7,0.6-0.7c1,0,2,0,3.1,0
			c0.4,0,0.6,0.3,0.6,0.7c0,0.4-0.2,0.6-0.7,0.6C48.7,59.6,48.2,59.6,47.7,59.6z M48.4,59.4c0,0,0-0.1,0-0.1c-0.5,0-1-0.1-1.6-0.1
			c-0.4,0-0.7-0.1-0.8-0.6c-0.1,0.2-0.2,0.4-0.2,0.5c0.1,0.2,0.4,0.4,0.6,0.4C47.1,59.5,47.7,59.4,48.4,59.4z"/>
		<path class="st1" d="M48.2,70.2c0,1.1-0.1,2.1-0.2,3.1c0,0.1-0.3,0.3-0.4,0.3c-0.1,0-0.3-0.2-0.4-0.4c-0.1-0.6-0.1-1.3-0.1-1.9
			c0-0.3,0-0.6,0-1C47.5,70.3,47.8,70.3,48.2,70.2z"/>
		<path class="st1" d="M47.7,68.7c0.3,0,0.6,0,0.9,0c0.3,0,0.5,0.2,0.5,0.5c0,0.3-0.2,0.6-0.5,0.6c-0.6,0-1.2,0-1.8,0
			c-0.3,0-0.5-0.2-0.5-0.6c0-0.3,0.2-0.5,0.5-0.5C47.1,68.7,47.4,68.7,47.7,68.7z M48,69.5c-0.4-0.2-1.1,0.1-1.4-0.4
			c-0.2,0.3-0.1,0.5,0.3,0.5C47.3,69.6,47.7,69.5,48,69.5z"/>
		<path class="st1" d="M49.6,55c0,0.7,0,1.3,0,2c0,0.7-0.3,0.9-1,0.8c0.2-0.5,0.4-1,0.6-1.4c0.2-0.4-0.1-1,0.2-1.4
			C49.5,55,49.5,55,49.6,55z"/>
		<path class="st1" d="M49.1,60.1c-0.5,0.5-2.4,0.5-2.9,0C47.2,60.1,48.2,60.1,49.1,60.1z"/>
		<path class="st1" d="M45.7,57.4c-0.2-0.5-0.3-1-0.1-1.5c0.2-0.5,0.5-0.9,0.7-1.4c0.1,0,0.2,0.1,0.4,0.2
			C46,55.5,45.4,56.3,45.7,57.4z"/>
		<path class="st1" d="M67,65.9c0-1.5,0-3,0-4.5c0-0.4,0.1-0.5,0.5-0.5c0.3,0,0.5,0,0.8,0c-0.1,2.5-0.2,4.9-0.3,7.4
			c-0.4,0-0.8,0-1.2,0c-0.1-2.4-0.2-4.9-0.4-7.4c0.1,0,0.2,0,0.2,0c0.1,1.7,0.1,3.4,0.2,5C66.9,65.9,67,65.9,67,65.9z"/>
		<path class="st1" d="M67.4,58c-0.1-0.5-0.2-0.9-0.3-1.3c0,0,0,0,0,0c0,0.4,0,0.8,0,1.2c-0.3,0.2-0.5,0-0.5-0.3
			c0-0.4,0.1-0.8,0.2-1.3c0.1-0.3,0.2-0.6,0.3-0.9c-0.7,0.9-0.9,0.8-0.8,2.4c-0.5-0.4-0.6-1.2-0.3-1.8c0.1-0.2,0.2-0.4,0.4-0.5
			c0.5-0.5,1-1.1,0.9-2C68.9,54.7,69,56.6,67.4,58z"/>
		<path class="st1" d="M67.4,59.6c-0.5,0-1,0-1.4,0c-0.4,0-0.7-0.2-0.7-0.6c0-0.4,0.3-0.7,0.7-0.7c1,0,2,0,3,0
			c0.4,0,0.7,0.3,0.7,0.7c0,0.4-0.3,0.6-0.7,0.6C68.4,59.6,67.9,59.6,67.4,59.6z M65.9,58.6c-0.1,0-0.1,0-0.2,0
			c-0.1,0.2-0.2,0.4-0.2,0.5c0.1,0.2,0.3,0.4,0.5,0.4c0.7,0,1.3,0,2-0.1c-0.5-0.1-1.1-0.2-1.6-0.2C66.1,59.1,65.8,59.1,65.9,58.6z"
			/>
		<path class="st1" d="M67,70.4c0,0.3,0,0.6,0,0.9c0,0,0,0,0.1,0c0-0.3,0-0.6,0-1c0.3,0,0.5,0,0.8,0c-0.1,1-0.1,2-0.2,3
			c0,0.1-0.3,0.3-0.4,0.3c-0.1-0.1-0.3-0.2-0.3-0.4c-0.1-0.6-0.1-1.3-0.1-1.9C66.9,71,66.9,70.7,67,70.4C67,70.4,67,70.4,67,70.4z"
			/>
		<path class="st1" d="M67.4,69.8c-0.3,0-0.6,0-0.8,0c-0.3,0-0.6-0.2-0.6-0.6c0-0.3,0.2-0.6,0.5-0.6c0.6,0,1.2,0,1.8,0
			c0.3,0,0.5,0.2,0.5,0.6c0,0.3-0.2,0.5-0.5,0.6C68,69.8,67.7,69.8,67.4,69.8C67.4,69.8,67.4,69.8,67.4,69.8z M67.8,69.5
			c-0.4-0.3-1.1,0.1-1.4-0.5c-0.1,0.4,0,0.5,0.4,0.5C67.1,69.6,67.4,69.5,67.8,69.5z"/>
		<path class="st1" d="M68.3,57.8c0.1-0.3,0.3-0.5,0.4-0.8c0.1-0.5,0.2-1,0.3-1.6c0-0.2,0.1-0.3,0.1-0.5c0.1,0,0.1,0,0.2,0
			c0,0.7,0,1.3,0,2C69.3,57.8,69,58,68.3,57.8z"/>
		<path class="st1" d="M66,60.1c1,0,1.9,0,2.8,0C68.5,60.5,66.5,60.6,66,60.1z"/>
		<path class="st1" d="M66.1,54.5c0.1,0.1,0.2,0.1,0.4,0.2c-0.7,0.8-1.3,1.6-1,2.7C64.9,56.2,65.7,55.4,66.1,54.5z"/>
		<path d="M58.9,60.4c-1,0.1-2,0.1-3,0.2c-0.2,0-0.5-0.1-0.6-0.2c-0.4-0.3-0.4-0.8,0.2-1c-0.2,0.7,0.2,0.8,0.8,0.8
			c0.8,0,1.6,0.1,2.4,0.2C58.7,60.3,58.8,60.3,58.9,60.4C58.9,60.3,58.9,60.4,58.9,60.4z"/>
		<path d="M58.2,74.5c-0.6,0-1.2,0.1-1.8,0.1c-0.2,0-0.4-0.2-0.5-0.4c0-0.1,0.1-0.2,0.2-0.4c0,0.5,0.3,0.5,0.6,0.5
			C57.2,74.3,57.7,74.4,58.2,74.5C58.2,74.4,58.2,74.5,58.2,74.5z"/>
		<path d="M48.4,59.4c-0.6,0-1.3,0.1-1.9,0.1c-0.2,0-0.4-0.2-0.6-0.4c-0.1-0.1,0-0.3,0.2-0.5c0.1,0.5,0.4,0.6,0.8,0.6
			c0.5,0,1,0.1,1.6,0.1C48.4,59.3,48.4,59.3,48.4,59.4z"/>
		<path d="M48,69.5c-0.4,0-0.7,0.1-1.1,0.1c-0.4,0-0.5-0.2-0.3-0.5C47,69.6,47.6,69.3,48,69.5z"/>
		<path d="M65.9,58.6c-0.1,0.6,0.3,0.6,0.6,0.6c0.5,0,1.1,0.1,1.6,0.2c-0.7,0-1.3,0.1-2,0.1c-0.2,0-0.4-0.2-0.5-0.4
			c-0.1-0.1,0.1-0.3,0.2-0.5C65.8,58.6,65.8,58.6,65.9,58.6z"/>
		<path d="M67.8,69.5c-0.4,0-0.7,0.1-1.1,0.1c-0.4,0-0.5-0.1-0.4-0.5C66.7,69.6,67.3,69.2,67.8,69.5z"/>
	</g>
</g>
</svg>
