<?xml version="1.0" encoding="utf-8"?>
<!-- Generator: Adobe Illustrator 16.0.0, SVG Export Plug-In . SVG Version: 6.00 Build 0)  -->
<!DOCTYPE svg PUBLIC "-//W3C//DTD SVG 1.1//EN" "http://www.w3.org/Graphics/SVG/1.1/DTD/svg11.dtd">
<svg version="1.1" id="Layer_1" xmlns="http://www.w3.org/2000/svg" xmlns:xlink="http://www.w3.org/1999/xlink" x="0px" y="0px"
	 width="249.969px" height="115px" viewBox="0 0 249.969 115" enable-background="new 0 0 249.969 115" xml:space="preserve">
<g>
	<polygon fill="#D52842" points="13.575,29.989 13.612,72.702 49.791,85.011 85.967,72.702 85.967,29.989 	"/>
	<path fill="#FFFFFF" d="M49.732,71.36H38.674v-3.822h-0.116c-2.146,3.013-5.213,4.574-9.788,4.574
		c-5.383,0-10.307-3.297-10.307-10.188V41.309h11.462v15.746c0,3.479,0.41,5.91,3.769,5.91c1.967,0,4.572-0.983,4.572-5.79V41.309
		h11.466V71.36z"/>
	<path fill="#FFFFFF" d="M71.104,50.05c-0.057-0.981-0.578-1.733-1.336-2.26c-0.691-0.575-1.618-0.865-2.544-0.865
		c-1.621,0-3.476,0.348-3.476,2.314c0,0.869,0.699,1.272,1.333,1.563c1.911,0.814,6.256,1.042,10.079,2.317
		c3.821,1.217,7.179,3.476,7.179,8.397c0,8.338-7.995,10.596-15.289,10.596c-7.064,0-14.824-2.838-14.998-10.596h10.944
		c0.061,1.041,0.52,1.911,1.388,2.664c0.582,0.521,1.681,0.867,3.071,0.867c1.507,0,3.882-0.576,3.882-2.316
		c0-1.736-0.988-2.257-6.315-3.183c-8.741-1.507-12.275-4.286-12.275-9.44c0-7.585,8.167-9.554,14.187-9.554
		c6.487,0,14.302,1.795,14.593,9.495H71.104z"/>
	<path fill="#001970" d="M90.042,30.012h11.465v14.594h0.116c1.738-2.549,4.808-4.052,8.223-4.052
		c10.077,0,12.797,8.569,12.797,15.635c0,7.528-4.109,15.922-12.62,15.922c-5.622,0-7.356-2.143-8.806-4.052H101.1v3.302H90.042
		V30.012z M106.141,48.893c-4.11,0-5.04,3.877-5.04,7.412c0,3.591,0.93,7.472,5.04,7.472c4.111,0,5.035-3.881,5.035-7.472
		C111.176,52.771,110.252,48.893,106.141,48.893"/>
	<path fill="#001970" d="M154.613,64.641c0,2.261,0.111,4.812,1.392,6.72h-11.703c-0.286-0.811-0.456-2.024-0.403-2.838h-0.112
		c-2.435,2.78-5.966,3.59-9.673,3.59c-5.79,0-10.596-2.776-10.596-9.095c0-9.489,11.118-9.145,16.969-10.246
		c1.562-0.29,3.125-0.75,3.125-2.663c0-2.027-1.916-2.78-3.766-2.78c-3.533,0-4.226,1.794-4.287,3.066h-10.65
		c0.348-8.451,8.338-9.841,15.458-9.841c14.36,0,14.249,5.962,14.249,11.754v12.333H154.613z M143.611,57.87
		c-1.394,0.693-2.955,1.099-4.52,1.445c-2.548,0.58-3.88,1.217-3.88,3.243c0,1.39,1.503,2.778,3.59,2.778
		c2.612,0,4.632-1.561,4.81-4.689V57.87z"/>
	<path fill="#001970" d="M158.723,41.31h11.059v3.819h0.113c2.146-3.011,5.211-4.574,9.787-4.574
		c5.383,0,10.311,3.298,10.311,10.189V71.36h-11.469V55.611c0-3.477-0.405-5.908-3.76-5.908c-1.972,0-4.576,0.982-4.576,5.791V71.36
		h-11.465V41.31z"/>
	<polygon fill="#001970" points="194.047,30.012 205.507,30.012 205.507,49.993 212.811,41.31 225.775,41.31 215.064,52.655 
		227.459,71.36 213.68,71.36 207.538,60.476 205.507,62.673 205.507,71.36 194.047,71.36 	"/>
	<path fill="#001970" d="M232.552,67.269c0.438,0.438,0.651,0.965,0.651,1.582c0,0.623-0.215,1.151-0.651,1.592
		c-0.433,0.437-0.956,0.657-1.581,0.657c-0.623,0-1.146-0.222-1.576-0.657c-0.433-0.439-0.647-0.969-0.647-1.592
		c0-0.617,0.216-1.146,0.647-1.582c0.437-0.437,0.963-0.66,1.576-0.66C231.589,66.608,232.117,66.832,232.552,67.269
		 M232.811,67.018c-0.509-0.502-1.117-0.757-1.84-0.757c-0.711,0-1.322,0.255-1.826,0.757c-0.506,0.511-0.763,1.116-0.763,1.833
		c0,0.719,0.253,1.332,0.757,1.84c0.502,0.512,1.116,0.764,1.832,0.764c0.723,0,1.331-0.252,1.84-0.764
		c0.51-0.509,0.766-1.121,0.766-1.84C233.575,68.131,233.318,67.524,232.811,67.018 M231.357,68.731
		c-0.105,0.038-0.262,0.063-0.483,0.063h-0.444v-1.031h0.432c0.27,0,0.474,0.033,0.604,0.105c0.124,0.067,0.19,0.211,0.19,0.416
		C231.654,68.502,231.55,68.653,231.357,68.731 M229.928,70.268h0.502v-1.124h0.396c0.264,0,0.454,0.029,0.56,0.094
		c0.18,0.104,0.271,0.322,0.271,0.65v0.227l0.008,0.094l0.006,0.031l0.005,0.028h0.47l-0.014-0.036l-0.025-0.147L232.1,69.87v-0.207
		c0-0.143-0.056-0.293-0.158-0.442c-0.104-0.147-0.27-0.243-0.49-0.276c0.177-0.026,0.316-0.076,0.417-0.141
		c0.185-0.117,0.271-0.311,0.271-0.561c0-0.359-0.142-0.604-0.438-0.723c-0.166-0.066-0.422-0.101-0.778-0.101h-0.993v2.848H229.928
		z"/>
</g>
</svg>
