<?xml version="1.0" encoding="utf-8"?>
<!-- Generator: Adobe Illustrator 21.0.0, SVG Export Plug-In . SVG Version: 6.00 Build 0)  -->
<svg version="1.1" id="Layer_1" xmlns="http://www.w3.org/2000/svg" xmlns:xlink="http://www.w3.org/1999/xlink" x="0px" y="0px"
	 viewBox="0 0 250 115" style="enable-background:new 0 0 250 115;" xml:space="preserve">
<style type="text/css">
	.st0{fill:#FEDE37;}
	.st1{fill:#292929;}
</style>
<g>
	<path class="st0" d="M192.7,73.5c8.8-11.4,15.8-24.7,15.8-34.3c0-5-3.6-8.5-8.3-11.2C200.3,38.4,196.7,62.8,192.7,73.5L192.7,73.5z
		"/>
	<path class="st0" d="M163.7,101.5c20.7-6.9,50.8-23.1,71.7-37.5c1.7-1.2,3.1-2.3,3.1-4.3c0-3.4-6.2-8-9.3-9.8
		C212.8,67,180.1,92.6,163.7,101.5L163.7,101.5z"/>
	<path class="st0" d="M182.9,87c12.8-8.8,31.3-25.5,37.6-34.5c1.5-2.1,2.6-3.4,2.6-5.6c0-3.6-4.2-6.3-7.3-8.2
		C208.5,56,192,77.5,182.9,87L182.9,87z"/>
	<path class="st0" d="M194.6,62.5c1.7-10.9,0.7-24.1-1.4-32.4c-1.2-4.5-5.2-9.6-9-11.2C189.1,32.9,193.3,52.8,194.6,62.5L194.6,62.5
		z"/>
	<path class="st0" d="M190.9,47.2c-3.9-10.5-13.5-32.3-27.7-37.7C172.5,19.7,186.2,39.9,190.9,47.2L190.9,47.2z"/>
	<polygon class="st0" points="205.2,87 205.2,90 204.8,90 204.8,87 203.8,87 203.8,86.6 206.2,86.6 206.2,87 	"/>
	<path class="st0" d="M210.3,90l-0.3-1.9c-0.1-0.4-0.1-0.6-0.1-0.8h0c0,0.2-0.1,0.4-0.2,0.6L209,90h-0.5l-0.7-2
		c-0.1-0.3-0.2-0.5-0.2-0.8h0c0,0.3-0.1,0.5-0.1,0.9l-0.2,1.9h-0.5l0.5-3.4h0.6l0.7,2.1c0.1,0.2,0.2,0.5,0.2,0.7h0
		c0.1-0.2,0.1-0.4,0.2-0.6l0.7-2.1h0.6l0.5,3.4L210.3,90L210.3,90z"/>
	<path class="st1" d="M23.5,90.5c-2.6,0-5.1-0.3-7.2-0.9l0.3-5.4c2,0.7,4.8,1.3,7.4,1.3c3.9,0,7.1-1.6,7.1-5.5
		c0-7.5-15.6-4.3-15.6-15.9c0-6.1,4.8-10.4,13.1-10.4c2.1,0,4.3,0.3,6.5,0.6l-0.3,5.1c-2.1-0.6-4.3-1-6.5-1c-4.4,0-6.7,2.1-6.7,5
		c0,7.1,15.6,4.5,15.6,15.7C37.2,85.8,32,90.5,23.5,90.5L23.5,90.5z"/>
	<path class="st1" d="M53.6,67.8c-4.2,0-6.5,5-6.5,9.5v8.1c1.2,0.4,2.5,0.5,4.1,0.5c4.5,0,7.6-2.7,7.6-9.8
		C58.8,70.8,57.1,67.8,53.6,67.8L53.6,67.8z M51.1,90.4c-1.5,0-2.6-0.1-4-0.3v11.4h-5.7V63.7h5.3c0,1.4-0.1,3.5-0.3,4.9h0.1
		c1.5-3.3,4.5-5.4,8.5-5.4c6.2,0,9.7,4.4,9.7,12.4C64.8,84.8,59.8,90.4,51.1,90.4L51.1,90.4z"/>
	<path class="st1" d="M82.9,68.7c-5.2-1-7.8,2.7-7.8,10.6V90h-5.7V63.7h5.4c0,1.5-0.2,3.8-0.5,5.8h0.1c1.2-3.5,3.8-6.8,8.7-6.3
		L82.9,68.7L82.9,68.7z"/>
	<path class="st1" d="M93.8,90h-5.7V63.7h5.7V90L93.8,90z M91,59.8c-2,0-3.6-1.6-3.6-3.5c0-2,1.6-3.5,3.6-3.5c2,0,3.6,1.5,3.6,3.5
		C94.6,58.2,93,59.8,91,59.8L91,59.8z"/>
	<path class="st1" d="M117.1,90V73.1c0-3.3-0.9-5.2-3.9-5.2c-4,0-6.9,4.2-6.9,9.4V90h-5.7V63.7h5.4c0,1.4-0.1,3.7-0.4,5.1l0.1,0.1
		c1.5-3.4,4.7-5.7,9.1-5.7c6,0,7.8,3.8,7.8,8.4V90H117.1L117.1,90z"/>
	<path class="st1" d="M138.3,90.5c-5.6,0-7.3-2.2-7.3-8V68.1h-5v-4.4h5v-8.4l5.6-1.5v9.9h6.9v4.4h-6.9v12.6c0,3.9,0.8,5,3.4,5
		c1.2,0,2.4-0.2,3.4-0.4v4.7C142,90.2,140,90.5,138.3,90.5L138.3,90.5z"/>
	<path class="st1" d="M147.2,55.1h-0.3v0.8h0.2c0.4,0,0.5-0.2,0.5-0.4C147.7,55.2,147.5,55.1,147.2,55.1L147.2,55.1z M147.7,57.3
		l-0.7-1.1h0v1.1h-0.4v-2.5h0.7c0.6,0,0.8,0.2,0.8,0.6c0,0.4-0.3,0.7-0.7,0.7c0.1,0.1,0.1,0.2,0.2,0.4l0.5,0.8L147.7,57.3
		L147.7,57.3z M147.2,54.3c-1,0-1.8,0.8-1.8,1.8c0,1,0.8,1.8,1.8,1.8c1,0,1.8-0.8,1.8-1.8C149,55.1,148.2,54.3,147.2,54.3
		L147.2,54.3z M147.2,58.2c-1.3,0-2.2-1-2.2-2.2c0-1.2,1-2.2,2.2-2.2c1.2,0,2.2,1,2.2,2.2C149.4,57.2,148.4,58.2,147.2,58.2
		L147.2,58.2z"/>
</g>
</svg>
