<?xml version="1.0" encoding="utf-8"?>
<!-- Generator: Adobe Illustrator 16.0.0, SVG Export Plug-In . SVG Version: 6.00 Build 0)  -->
<!DOCTYPE svg PUBLIC "-//W3C//DTD SVG 1.1//EN" "http://www.w3.org/Graphics/SVG/1.1/DTD/svg11.dtd">
<svg version="1.1" id="Layer_1" xmlns="http://www.w3.org/2000/svg" xmlns:xlink="http://www.w3.org/1999/xlink" x="0px" y="0px"
	 width="249.969px" height="115px" viewBox="0 0 249.969 115" enable-background="new 0 0 249.969 115" xml:space="preserve">
<g>
	<path fill="#65307F" d="M117.085,67.934c0,2.384-2.385,4.471-5.366,4.769c-2.981,0.298-5.366-1.191-5.366-3.577
		c-0.298-2.385,2.086-4.472,5.067-4.77S116.786,65.846,117.085,67.934z M129.008,64.355c0,2.087-2.385,3.578-4.77,3.578
		c-2.683,0-5.068-1.492-4.77-3.578c0-2.086,2.087-3.576,4.77-3.576C126.92,60.779,129.008,62.568,129.008,64.355z M140.635,61.375
		c0,1.789-1.79,3.278-3.875,3.278c-2.386,0.298-4.174-1.191-4.472-2.683c0-1.788,1.788-3.278,4.174-3.278
		C138.548,58.394,140.635,59.884,140.635,61.375L140.635,61.375z M137.653,52.431c0,1.491-1.789,2.684-3.876,2.684
		c-2.088,0-3.876-1.49-3.876-2.981c0-1.489,1.788-2.682,4.173-2.682C136.162,49.749,137.95,50.941,137.653,52.431z M126.922,53.922
		c0,1.789-2.087,3.279-4.472,3.279c-2.683,0-4.77-1.49-4.77-3.279s2.087-2.981,4.472-2.981
		C124.835,50.644,126.922,52.133,126.922,53.922z M114.104,57.499c0.298,2.085-1.79,3.875-4.77,3.875
		c-2.683,0.297-5.068-1.191-5.068-3.279c-0.298-2.087,2.087-3.875,4.77-4.174C111.719,53.922,114.104,55.413,114.104,57.499z
		 M110.526,47.364c0,2.087-1.789,3.577-4.472,3.577c-2.385,0.298-4.472-0.894-4.472-2.981c-0.298-1.789,1.789-3.279,4.173-3.578
		C108.141,44.383,110.228,45.576,110.526,47.364z M122.45,44.979c0,1.491-1.789,2.981-4.173,2.981c-2.384,0-4.174-1.49-4.174-2.981
		c0-1.789,1.788-2.98,4.174-2.98C120.662,41.998,122.45,43.19,122.45,44.979z M133.777,43.488c0,1.49-1.789,2.683-3.876,2.683
		c-1.787-0.298-3.278-1.491-3.278-2.981c0-1.491,1.788-2.385,3.577-2.385C132.286,40.806,133.777,42.296,133.777,43.488z
		 M106.353,38.718c0,1.49-1.789,2.981-4.174,2.981c-2.384,0.298-4.174-0.894-4.174-2.384c-0.298-1.789,1.79-2.981,3.876-3.28
		C104.266,36.035,106.055,37.229,106.353,38.718z M117.68,36.632c0,1.491-1.789,2.683-3.875,2.683c-2.086,0-3.875-1.192-3.875-2.683
		c0-1.49,1.789-2.682,3.875-2.682C115.891,33.95,117.68,35.142,117.68,36.632z M128.114,35.439c0,1.491-1.491,2.385-3.28,2.385
		c-1.788,0-3.279-0.894-3.279-2.087c0-1.491,1.491-2.384,3.279-2.683C126.623,33.054,128.114,34.248,128.114,35.439L128.114,35.439z
		 M111.719,29.478c0,1.192-1.491,2.087-3.28,2.087c-1.788,0-3.279-0.894-3.279-2.384c0-1.191,1.491-2.086,3.279-2.086
		C110.228,27.094,111.719,27.987,111.719,29.478z M100.986,30.968c0,1.192-1.491,2.385-3.577,2.683
		c-1.789,0-3.577-0.894-3.577-2.385c-0.298-1.192,1.192-2.385,3.279-2.385C99.199,28.583,100.986,29.478,100.986,30.968
		L100.986,30.968z M95.024,24.708c0.298,0.895-1.192,2.087-2.683,2.087c-1.789,0-3.279-0.596-3.279-1.789
		c-0.298-1.192,1.192-2.087,2.981-2.385C93.535,22.622,95.024,23.516,95.024,24.708z M88.467,19.342
		c0,1.192-1.192,2.087-2.683,2.087c-1.49,0-2.683-0.597-2.981-1.789c0-0.894,1.192-1.788,2.683-1.788
		C87.274,17.554,88.467,18.448,88.467,19.342z M81.909,14.573c0,0.894-1.192,1.789-2.683,1.789c-1.192,0-2.385-0.596-2.385-1.49
		c-0.298-0.895,0.894-1.789,2.385-1.789C80.715,13.082,81.909,13.679,81.909,14.573L81.909,14.573z M74.754,10.399
		c0,0.894-1.192,1.491-2.385,1.491c-1.192,0-2.384-0.895-2.384-1.491c0-0.895,1.192-1.491,2.384-1.491
		C73.562,8.909,74.754,9.505,74.754,10.399z M105.756,23.516c-0.298,0.894-1.491,1.79-2.98,1.79c-1.491,0-2.98-0.896-2.683-2.088
		c0-0.894,1.192-1.789,2.683-1.789C104.266,21.429,105.756,22.323,105.756,23.516z M99.199,18.15c0,1.192-1.192,1.789-2.683,1.789
		s-2.683-0.597-2.683-1.789c0-0.894,1.192-1.789,2.683-1.789C98.005,16.361,99.199,17.255,99.199,18.15z M92.342,13.977
		c0,0.895-1.192,1.49-2.385,1.49c-1.49,0-2.683-0.597-2.683-1.49c0-0.895,1.192-1.789,2.683-1.789
		C91.149,12.188,92.342,13.082,92.342,13.977L92.342,13.977z M86.082,9.804c0,0.597-1.192,1.192-2.385,1.192
		c-1.192,0-2.086-0.595-2.086-1.192c0-0.894,0.895-1.491,2.086-1.491C84.889,8.313,86.082,8.909,86.082,9.804z M97.111,9.804
		c0,0.895-0.894,1.491-2.087,1.491c-1.192,0-2.087-0.597-2.087-1.491c0-0.597,0.894-1.192,2.087-1.192
		C96.217,8.611,97.111,9.207,97.111,9.804z M103.073,13.679c0,0.894-0.894,1.49-2.087,1.49c-1.191,0-2.384-0.596-2.384-1.49
		s1.192-1.491,2.384-1.491C102.179,12.188,103.073,12.784,103.073,13.679z M109.632,17.853c0,0.894-1.192,1.788-2.385,1.788
		c-1.49,0-2.683-0.894-2.683-1.788s1.192-1.491,2.683-1.491C108.439,16.361,109.632,16.958,109.632,17.853z M115.891,22.919
		c0,0.894-1.192,1.789-2.683,1.789c-1.49,0-2.683-0.894-2.683-1.789c0-1.192,1.192-1.789,2.683-1.789
		C114.7,21.131,115.891,21.727,115.891,22.919z M122.45,28.881c0,0.895-1.49,2.087-3.278,2.087c-1.491,0-2.982-1.192-2.982-2.087
		c0-1.192,1.491-2.385,2.982-2.385C120.959,26.496,122.45,27.689,122.45,28.881z M177.897,66.741
		c-0.298,0.597-1.192,1.192-2.385,0.894c-1.192-0.297-1.789-1.192-1.789-1.788c0.298-0.896,1.49-1.491,2.385-1.193
		C177.301,64.953,177.897,65.846,177.897,66.741z M170.146,64.355c0,0.895-1.49,1.491-2.684,1.193
		c-1.49-0.299-2.383-1.193-2.087-2.386c0.297-0.894,1.489-1.49,2.684-1.191C169.55,62.269,170.444,63.164,170.146,64.355z
		 M161.204,62.269c-0.298,1.192-1.789,2.087-3.281,1.789c-1.788-0.298-2.979-1.49-2.681-2.684c0.298-1.191,1.788-2.088,3.278-1.788
		C160.309,59.884,161.499,61.076,161.204,62.269z M151.366,61.375c-0.298,1.49-2.087,2.386-3.876,2.386
		c-2.088-0.299-3.278-1.491-3.278-2.981c0.298-1.492,1.788-2.385,3.876-2.385C149.876,58.692,151.366,59.884,151.366,61.375z
		 M175.513,59.287c0,0.598-1.192,1.193-2.088,0.896c-1.191-0.299-1.788-1.192-1.49-1.789c0-0.895,0.893-1.193,2.087-1.193
		C174.915,57.499,175.811,58.394,175.513,59.287z M167.164,56.307c-0.297,0.894-1.489,1.491-2.682,1.192
		c-1.191-0.298-2.087-1.192-2.087-2.088c0.297-1.192,1.489-1.789,2.683-1.49C166.569,54.22,167.463,55.413,167.164,56.307
		L167.164,56.307z M148.683,52.73c-0.296,1.49-1.788,2.384-3.576,2.087c-2.088,0-3.279-1.491-3.279-2.683
		c0.298-1.49,1.789-2.385,3.577-2.087C147.191,50.047,148.683,51.538,148.683,52.73z M173.127,52.73
		c0,0.596-1.191,0.894-2.088,0.894c-0.893-0.298-1.489-1.192-1.489-1.789c0.297-0.894,1.191-1.191,2.087-0.894
		C172.531,50.941,173.425,51.834,173.127,52.73z M164.78,49.451c0,0.894-1.193,1.192-2.385,0.894c-1.191,0-2.088-1.192-2.088-2.088
		c0.299-0.894,1.49-1.192,2.684-1.192C164.185,47.364,165.08,48.258,164.78,49.451z M155.54,46.47c0,1.192-1.492,1.789-2.983,1.789
		c-1.489-0.298-2.385-1.491-2.385-2.683c0.299-0.895,1.492-1.79,2.982-1.491C154.646,44.383,155.838,45.576,155.54,46.47
		L155.54,46.47z M158.222,53.922c0,1.192-1.491,2.087-3.279,1.789c-1.49-0.298-2.683-1.491-2.384-2.683
		c0.298-1.191,1.489-1.788,3.279-1.49C157.328,51.834,158.521,53.028,158.222,53.922z M144.808,44.681
		c-0.297,1.192-1.789,2.087-3.279,1.789c-1.788,0-2.98-1.192-2.98-2.385c0-1.49,1.49-2.384,3.278-2.086
		C143.615,41.998,144.808,43.19,144.808,44.681z"/>
	<path fill="#A1A6A9" d="M151.963,86.713v19.974h3.279v-7.752h10.134c3.28,0,5.962-2.683,5.962-5.962c0-3.28-2.682-6.26-5.962-6.26
		H151.963z M165.376,89.693c1.788,0,2.982,1.492,2.982,3.28c0,1.789-1.193,3.279-2.982,3.279h-10.134v-6.56H165.376z M75.946,86.713
		v16.098c0,2.087,1.789,3.876,4.174,3.876h14.309v-2.982H80.418c-0.597,0-1.192-0.298-1.192-0.894V86.713H75.946L75.946,86.713z
		 M149.876,106.686l-14.607-19.973h-2.087l-14.31,19.973h3.577l3.577-4.771c1.79-1.191,5.067-1.788,8.348-1.788
		c2.981,0,6.26,0.597,8.347,1.788l3.278,4.771H149.876z M134.374,97.147c-1.788,0-3.876,0.298-5.365,0.597l5.365-7.154l5.066,7.154
		C137.95,97.445,136.162,97.147,134.374,97.147z M100.092,90.885c0-0.595,0.298-1.192,0.894-1.192h15.501v-2.979h-15.799
		c-2.088,0-3.875,1.789-3.875,4.172v11.926c0,2.087,1.788,3.876,3.875,3.876h15.799v-2.982h-15.501
		c-0.597,0-0.894-0.298-0.894-0.894v-4.472h16.396v-2.98h-16.396V90.885L100.092,90.885z M176.704,86.713h-0.894v3.876h0.596v-2.981
		l1.192,2.981h0.595l0.896-2.981h0.298v2.981h0.597v-3.876h-1.192l-0.895,2.683L176.704,86.713L176.704,86.713z M175.513,86.713
		h-2.981v0.596h1.191v3.28h0.598v-3.28h1.191L175.513,86.713L175.513,86.713z"/>
</g>
</svg>
