<?xml version="1.0" encoding="utf-8"?>
<!-- Generator: Adobe Illustrator 21.0.0, SVG Export Plug-In . SVG Version: 6.00 Build 0)  -->
<svg version="1.1" id="Layer_1" xmlns="http://www.w3.org/2000/svg" xmlns:xlink="http://www.w3.org/1999/xlink" x="0px" y="0px"
	 viewBox="0 0 250 115" style="enable-background:new 0 0 250 115;" xml:space="preserve">
<style type="text/css">
	.st0{fill:#21254E;}
	.st1{fill:#E20613;}
</style>
<g>
	<path class="st0" d="M90.9,83.8c-3.1,3.9-7.9,6.4-13.3,6.4c-9.4,0-17-7.6-17-17c0-9.4,7.6-17,17-17c5.1,0,9.7,2.2,12.8,5.8l6.4-8.1
		c-4.9-4.9-11.7-7.9-19.1-7.9c-15,0-27.1,12.2-27.1,27.1s12.2,27.1,27.1,27.1c7.5,0,14.3-3,19.2-7.9L90.9,83.8z"/>
	<rect x="102.2" y="47.2" class="st0" width="11.4" height="52.6"/>
	<rect x="164.7" y="47.5" class="st0" width="11.4" height="52.6"/>
	<path class="st0" d="M145.1,100.3c-9.8,0-12.2-8.4-12.4-13.1h-0.1v-30h-10.1v-9.6h10.1V37.3l10.2-6.2l-0.3,7.8v8.6h10.3v9.6h-10.3
		v26.7c-0.1,0.4-0.1,0.8-0.1,1.1c0,0.4,0,0.8,0.1,1.1v0.6c0.4,2.3,2,4.3,4.1,5.2c0.8,0.4,1.7,0.6,2.7,0.6c2.1,0,4.1-1,5.3-2.5
		c0.3-0.3,0.5-0.7,0.7-1.1c0,0,0,0,0,0C155.3,88.7,155.5,100.3,145.1,100.3z"/>
	<path class="st0" d="M142.5,83.8v2.3c-0.1-0.4-0.1-0.8-0.1-1.1C142.4,84.5,142.4,84.1,142.5,83.8z"/>
	<path class="st1" d="M141,14.6c-19.4,0-36.5,9.9-46.6,24.9h16.2c7.8-7.7,18.6-12.4,30.4-12.4c11.8,0,22.6,4.7,30.4,12.4h16.2
		C177.6,24.5,160.5,14.6,141,14.6z"/>
	<g>
		<path class="st0" d="M191.4,38.6v-5.8h2.8c0.5,0,0.9,0,1.2,0.1c0.3,0.1,0.5,0.3,0.7,0.5c0.2,0.3,0.3,0.6,0.3,0.9
			c0,0.3-0.1,0.6-0.2,0.8c-0.1,0.2-0.3,0.4-0.5,0.6c-0.1,0.1-0.3,0.2-0.6,0.2c0.2,0.1,0.3,0.1,0.4,0.2c0.1,0,0.1,0.1,0.3,0.3
			c0.1,0.2,0.2,0.3,0.2,0.4l0.8,1.7h-1.9l-0.9-1.8c-0.1-0.2-0.2-0.4-0.3-0.4c-0.1-0.1-0.3-0.1-0.4-0.1h-0.1v2.4L191.4,38.6
			L191.4,38.6z M193.1,35.2h0.7c0.1,0,0.2,0,0.4-0.1c0.1,0,0.2-0.1,0.3-0.2c0.1-0.1,0.1-0.2,0.1-0.3c0-0.2-0.1-0.3-0.2-0.4
			c-0.1-0.1-0.3-0.2-0.6-0.2h-0.7V35.2z"/>
	</g>
	<path class="st0" d="M193.6,29.9c-3.2,0-5.9,2.6-5.9,5.9s2.6,5.9,5.9,5.9c3.2,0,5.9-2.6,5.9-5.9C199.5,32.6,196.9,29.9,193.6,29.9z
		 M193.6,40.6c-2.6,0-4.8-2.1-4.8-4.8s2.2-4.8,4.8-4.8s4.8,2.1,4.8,4.8S196.3,40.6,193.6,40.6z"/>
</g>
</svg>
