<?xml version="1.0" encoding="utf-8"?>
<!-- Generator: Adobe Illustrator 21.0.2, SVG Export Plug-In . SVG Version: 6.00 Build 0)  -->
<svg version="1.1" id="Layer_1" xmlns="http://www.w3.org/2000/svg" xmlns:xlink="http://www.w3.org/1999/xlink" x="0px" y="0px"
	 width="250px" height="115px" viewBox="0 0 250 115" style="enable-background:new 0 0 250 115;" xml:space="preserve">
<style type="text/css">
	.st0{fill:#50504F;}
	.st1{fill:#C73442;}
</style>
<g>
	<path class="st0" d="M98.5,66.5c-0.7,0.3-2.3,0.7-5.1,0.7c-7,0-11.5-4.1-11.5-10.6c0-6.4,4.7-10.5,11.9-10.5c2.7,0,4.8,0.4,6.9,1.3
		l0.6,0.3l1.3-4.2l-0.5-0.2c-1.5-0.7-4.5-1.5-8.2-1.5c-11.8,0-17.2,7.7-17.2,14.9c0,4.2,1.5,8,4.2,10.5c3,2.8,6.9,4.2,12.1,4.2
		c4.5,0,8.2-1.1,10-1.8l0.4-0.2V55.9l-5,0L98.5,66.5z"/>
	<path class="st1" d="M60.1,27.4L60.1,27.4L60.1,27.4L60.1,27.4C22.5,30.9,17.7,56.9,30,65.2c-2.1,9.4-0.1,9.1-0.1,9.1
		c0.4-2.8,0.9-5.6,1.6-8.3c4.8-18.2,16.7-34.2,28.6-38.3l0,0c0.1,0,0.1-0.1,0.1-0.2l0,0C60.3,27.4,60.2,27.4,60.1,27.4z"/>
	<rect x="112.1" y="42.1" class="st0" width="5" height="29.1"/>
	<polygon class="st0" points="131.7,66.8 131.7,42.1 126.7,42.1 126.7,71.2 145,71.2 145,66.8 131.7,66.8 	"/>
	<polygon class="st0" points="98.5,55.9 98.5,55.9 98.5,55.9 	"/>
	<polygon class="st0" points="156.3,58.2 168.3,58.2 168.3,53.9 156.3,53.9 156.3,46.5 169,46.5 169,42.1 151.2,42.1 151.2,71.2 
		169.7,71.2 169.7,66.9 156.3,66.9 	"/>
	<path class="st0" d="M191.2,42.1h-5l-11,29.1h5.1l3.2-8.9h10.2l3.4,8.9h5.2L191.2,42.1L191.2,42.1z M184.8,58.2
		c0,0,3.5-9.5,3.8-10.3c0,0,0,0,0,0h0v0c0.3,0.9,3,8.2,3.8,10.3H184.8z"/>
	<path class="st0" d="M230.8,46L230.8,46c-2.9-2.7-7.3-4.1-13.3-4.1l-9.4,0v4.2l9.5,0c4.4,0,7.6,1.1,9.7,3.2c1.7,1.7,2.5,4,2.5,6.9
		c0,3.2-1,5.9-2.9,7.8c-2.2,2.2-5.7,3.4-10,3.3c-1.3,0-2.7,0-3.8-0.1V54h-5v17.1l0.6,0.1c2.2,0.2,4.5,0.3,7.6,0.3
		c6.2,0,11.2-1.6,14.3-4.5c2.9-2.8,4.4-6.7,4.4-11C235,51.9,233.6,48.5,230.8,46z"/>
	<polygon class="st0" points="188.6,47.8 188.6,47.8 188.6,47.8 	"/>
	<path class="st1" d="M58.1,33.3c-0.1,0-0.1,0-0.2,0.1c-3.1,6.1-4,14.8-6.4,21.5c-2.7,7.6-7.5,12.8-15,12.3v18.6
		c0,0-19.9-9-19.9-23.4V35.3L33,33.8h0c0.1,0,0.2-0.1,0.2-0.2c0-0.1-0.1-0.2-0.2-0.2v0H15v28.9c0,16.2,21.7,25.3,21.7,25.3
		s21.7-9.2,21.7-25.3V33.5h0C58.3,33.4,58.2,33.3,58.1,33.3z"/>
</g>
</svg>
