<?xml version="1.0" encoding="utf-8"?>
<!-- Generator: Adobe Illustrator 21.0.2, SVG Export Plug-In . SVG Version: 6.00 Build 0)  -->
<svg version="1.1" id="Layer_1" xmlns="http://www.w3.org/2000/svg" xmlns:xlink="http://www.w3.org/1999/xlink" x="0px" y="0px"
	 width="250px" height="115px" viewBox="0 0 250 115" style="enable-background:new 0 0 250 115;" xml:space="preserve">
<style type="text/css">
	.st0{fill:#A2A9AD;}
	.st1{fill:#5B6670;}
	.st2{fill:#FFFFFF;}
	.st3{fill:#70BD85;}
	.st4{fill:#00B189;}
</style>
<g>
	<polygon class="st0" points="103.8,80.8 103.8,92.1 115.1,80.8 115.1,69.5 	"/>
	<polygon class="st1" points="102.9,80.8 102.9,92.1 91.6,80.8 91.6,69.5 	"/>
	<polygon class="st2" points="110,70.9 98.7,70.9 98.7,76.7 101.5,79.4 	"/>
	<polygon class="st3" points="110,70.9 101.5,79.4 101.5,79.4 	"/>
	<polygon class="st4" points="98.7,76.7 98.7,82.2 101.5,79.4 	"/>
	<polygon class="st4" points="110,70.9 98.7,70.9 98.7,76.7 101.5,79.4 	"/>
	<g>
		<path class="st1" d="M227.4,28v7h7.6V39h-7.6v15.7c0,3.6,1,5.7,4,5.7c1.4,0,2.3-0.2,3.1-0.4l0.2,4c-1,0.4-2.7,0.8-4.7,0.8
			c-2.4,0-4.5-0.9-5.7-2.3c-1.5-1.6-2-4.2-2-7.5V39h-4.5v-4h4.5v-5.4L227.4,28z"/>
		<path class="st1" d="M187.9,42.9c0-3-0.1-5.5-0.2-7.9h4.7l0.3,4.8h0.2c1.4-2.7,4.8-5.5,9.7-5.5c4,0,10.3,2.4,10.3,12.4v17.4h-5.3
			V47.3c0-4.7-1.7-8.6-6.8-8.6c-3.5,0-6.2,2.4-7.1,5.4c-0.2,0.6-0.4,1.6-0.4,2.4V64H188V42.9H187.9z"/>
		<path class="st1" d="M176.2,46.7c0.1-3.4-1.4-8.6-7.3-8.6c-5.3,0-7.7,4.9-8.1,8.6H176.2z M160.7,50.5c0.2,7.1,4.7,10.1,10,10.1
			c3.8,0,6-0.6,8.1-1.5l0.9,3.8c-1.9,0.9-5,1.9-9.7,1.9c-9,0-14.3-6-14.3-14.8s5.2-15.7,13.7-15.7c9.5,0,12,8.3,12,13.7
			c0,1.1-0.2,2-0.2,2.4H160.7z"/>
	</g>
	<polygon class="st1" points="149.9,35 149.9,64.1 144.8,64.1 144.8,42.8 	"/>
	<g>
		<path class="st1" d="M141.8,39l7.1-4h-11.4l0,0h-7.5v-7l-5.2,1.6V35h-4.5v4h4.5v15.9c0,3.5,0.5,6,2,7.5c1.3,1.4,3.2,2.3,5.7,2.3
			c2,0,3.7-0.4,4.7-0.8l-0.2-4c-0.8,0.2-1.6,0.4-3.1,0.4c-3,0-4-2-4-5.7V39H141.8z"/>
		<path class="st1" d="M94.3,49.6c0,6.4,3.7,11.2,8.9,11.2c5,0,8.9-4.8,8.9-11.3c0-4.9-2.4-11.2-8.7-11.2
			C96.9,38.3,94.3,44.1,94.3,49.6 M117.3,49.3c0,10.8-7.5,15.5-14.5,15.5c-7.9,0-14-5.8-14-15c0-9.7,6.4-15.5,14.5-15.5
			C111.7,34.3,117.3,40.4,117.3,49.3"/>
		<path class="st1" d="M82.8,56.2c0,3,0.1,5.7,0.2,7.9h-4.7L78,59.4h-0.2c-1.4,2.4-4.5,5.4-9.7,5.4c-4.5-0.1-10-2.6-10-12.8V35h5.3
			v16.1c0,5.5,1.6,9.3,6.5,9.3c3.5,0,6-2.4,7-4.8c0.3-0.8,0.5-1.7,0.5-2.7V35h5.3L82.8,56.2L82.8,56.2z"/>
		<path class="st1" d="M20.5,44.1c0-8.8,4.3-17,13.1-17c8.6,0,12.8,8.3,12.8,16.5s-3.6,15-10.1,16.5c-0.9,0.2-1.9,0.3-2.8,0.3h-0.1
			c-1.5,0-2.9-0.2-4.2-0.8C23.6,57.6,20.5,51.1,20.5,44.1 M34.2,64.7L34.2,64.7h19.7L44.1,61c4.7-3.2,7.9-9.2,7.9-17.6
			c0.1-11.9-7.1-20.5-18.1-20.5C22.9,22.9,15,31.2,15,44.2c0,13,8.1,20,17.6,20.5h0.5C33.1,64.7,34.2,64.7,34.2,64.7z"/>
	</g>
</g>
</svg>
