<?xml version="1.0" encoding="utf-8"?>
<!-- Generator: Adobe Illustrator 16.0.0, SVG Export Plug-In . SVG Version: 6.00 Build 0)  -->
<!DOCTYPE svg PUBLIC "-//W3C//DTD SVG 1.1//EN" "http://www.w3.org/Graphics/SVG/1.1/DTD/svg11.dtd">
<svg version="1.1" id="Layer_1" xmlns="http://www.w3.org/2000/svg" xmlns:xlink="http://www.w3.org/1999/xlink" x="0px" y="0px"
	 width="249.969px" height="115px" viewBox="0 0 249.969 115" enable-background="new 0 0 249.969 115" xml:space="preserve">
<g>
	<path fill="#1A181D" d="M26.354,54.978l-2.038-1.185c-2.469-1.419-3.802-2.52-3.802-4.206c0-1.877,1.548-3.049,4.036-3.049
		c1.673,0,3.749,0.699,6.529,2.192l0.347,0.198l0.011-4.897c-0.011-0.015-0.057-0.04-0.057-0.04
		c-2.405-1.17-4.692-1.714-7.189-1.714c-5.234,0-8.748,3.031-8.748,7.545c0,3.738,2.412,5.916,6.035,8.037l2.121,1.262
		c3.005,1.763,4.073,3.056,4.073,4.967c0,2.203-1.992,3.757-4.838,3.757c-2.266,0-4.729-0.894-7.75-2.83l-0.1-0.074v5.63
		c0.016,0.021,0.388,0.217,0.388,0.217c2.374,1.106,4.958,1.674,7.7,1.674c5.928,0,9.913-3.418,9.913-8.498
		C32.986,60.296,31.129,57.775,26.354,54.978"/>
	<polygon fill="#1A181D" points="62.601,42.955 62.601,71.79 67.722,71.79 67.722,59.145 79.038,59.145 79.038,54.626 
		67.722,54.626 67.722,47.515 79.639,47.515 79.639,42.955 	"/>
	<polygon fill="#1A181D" points="87.978,58.944 98.855,58.944 98.855,54.429 87.978,54.429 87.978,47.512 99.773,47.512 
		99.773,42.955 82.937,42.955 82.937,71.79 99.982,71.79 99.982,67.191 87.978,67.191 	"/>
	<path fill="#1A181D" d="M180.057,42.955h-6.149c0,0-2.791,4.372-6.507,10.225c-0.268,0.438-0.508,0.806-0.608,1.107
		c0.009,0-0.063-0.009-0.067,0c-0.107-0.301-0.351-0.676-0.615-1.098c-4.012-6.265-6.529-10.234-6.529-10.234h-6.145
		c0,0,10.703,15.705,10.719,15.74V71.79h5.211V58.659C169.922,57.833,180.057,42.955,180.057,42.955"/>
	<path fill="#1A181D" d="M146.697,42.026h-0.5L132.632,71.79h5.534l2.137-5.012h12.289l2.145,5.012h5.527L146.697,42.026
		 M142.081,62.587c0,0,2.407-5.771,3.933-9.345c0.26-0.61,0.408-1.412,0.408-1.412h0.055c0,0,0.164,0.802,0.396,1.412
		c1.59,3.76,3.947,9.345,3.947,9.345H142.081z"/>
	<path fill="#1A181D" d="M119.635,55.604c0.165-0.409,0.383-1.252,0.404-1.44l0.071,0.004c0.016,0.171,0.237,1.018,0.409,1.436
		c0.946,2.378,6.887,17.197,6.887,17.197h0.475l10.35-29.848h-5.424c0,0-3.883,12.159-5.121,16.064
		c-0.139,0.431-0.347,1.228-0.367,1.42h-0.063c-0.025-0.176-0.234-0.989-0.393-1.42c-0.961-2.554-6.569-17.13-6.569-17.13h-0.448
		c0,0-5.359,13.996-6.548,17.093c-0.184,0.479-0.376,1.281-0.393,1.457h-0.066c-0.025-0.192-0.234-0.989-0.375-1.42
		c-1.277-4.032-5.126-16.064-5.126-16.064h-5.418l10.344,29.848h0.48C112.743,72.802,118.507,58.413,119.635,55.604"/>
	<path fill="#1A181D" d="M47.173,42.021h-0.492L33.112,71.79h5.529l2.146-5.017h12.28l2.146,5.017h5.525L47.173,42.021
		 M42.557,62.583c0,0,2.409-5.769,3.932-9.35c0.264-0.602,0.418-1.403,0.418-1.403h0.051c0,0,0.158,0.802,0.396,1.403
		c1.59,3.765,3.943,9.35,3.943,9.35H42.557z"/>
	<path fill="#EB2E35" d="M209.008,69.755c0-7.989-11.863-8.736-11.863-20.079c0-8.181,6.353-12.237,12.681-12.913
		c-0.593-0.025-1.201-0.038-2.046-0.038c-1.531,0-2.277,0.054-3.572,0.12c-11.816,0.575-18.131,6.901-18.523,16.625
		c-0.029,0.631-0.093,1.716-0.093,3.427v0.005c0,1.715,0.063,2.795,0.093,3.436c0.385,9.457,6.371,15.701,17.586,16.562
		C205.084,76.565,209.008,75.2,209.008,69.755"/>
	<path fill="#EB2E35" d="M229.867,53.468c-0.375-9.214-6.061-15.368-16.703-16.486c-1.879,0.388-5.602,1.811-5.602,7.113
		c0,8.005,11.861,8.738,11.861,20.092c0,7.078-5.367,12.271-13.415,12.864c0.511,0.021,1.052,0.028,1.767,0.028
		c1.531,0,2.274-0.055,3.567-0.117c11.82-0.58,18.128-6.898,18.523-16.625c0.024-0.639,0.084-1.723,0.084-3.43v-0.009
		C229.951,55.187,229.893,54.102,229.867,53.468"/>
	<path fill="#FFFFFF" d="M219.425,64.183c0-11.35-11.862-12.083-11.862-20.088c0-5.305,3.724-6.729,5.603-7.113
		c-0.595-0.06-1.192-0.11-1.815-0.141c-0.58-0.024-1.043-0.049-1.523-0.075c-6.322,0.673-12.682,4.727-12.682,12.913
		c0,11.343,11.864,12.087,11.864,20.077c0,5.444-3.924,6.811-5.743,7.145c0.315,0.029,0.625,0.048,0.944,0.063
		c0.688,0.029,1.224,0.063,1.802,0.089C214.053,76.454,219.425,71.265,219.425,64.183"/>
	<g>
		<path d="M232.454,73.341c-1.404,0-2.544,1.105-2.544,2.453c0,1.379,1.14,2.481,2.544,2.481c1.397,0,2.53-1.104,2.53-2.481
			C234.984,74.446,233.854,73.341,232.454,73.341z M232.454,77.794c-1.146,0-2.062-0.875-2.062-2c0-1.09,0.914-1.971,2.062-1.971
			c1.133,0,2.049,0.881,2.049,1.971C234.503,76.919,233.587,77.794,232.454,77.794z"/>
		<path d="M233.755,75.151c0-0.23-0.104-0.477-0.315-0.594c-0.215-0.119-0.453-0.134-0.69-0.134h-1.237v2.761h0.42v-1.271h0.496
			l0.813,1.271h0.482l-0.861-1.271C233.363,75.899,233.755,75.696,233.755,75.151z M232.391,75.571h-0.459v-0.832h0.732
			c0.355,0,0.671,0.049,0.671,0.404C233.335,75.641,232.79,75.571,232.391,75.571z"/>
	</g>
</g>
</svg>
