<?xml version="1.0" encoding="utf-8"?>
<!-- Generator: Adobe Illustrator 21.0.0, SVG Export Plug-In . SVG Version: 6.00 Build 0)  -->
<svg version="1.1" id="Layer_1" xmlns="http://www.w3.org/2000/svg" xmlns:xlink="http://www.w3.org/1999/xlink" x="0px" y="0px"
	 viewBox="0 0 250 115" style="enable-background:new 0 0 250 115;" xml:space="preserve">
<style type="text/css">
	.st0{fill:#050506;}
</style>
<g>
	<g>
		<path d="M118.9,62.2c0.9,0,1.7,0,2.5,0c0.2,0,0.5,0.2,0.6,0.3c3.6,3.5,7.2,7.1,10.8,10.6c4.5,4.4,9,8.9,13.5,13.3
			c0.2,0.2,0.4,0.3,0.6,0.5c0-0.2,0.1-0.4,0.1-0.5c0-6.9,0-13.7,0-20.6c0-0.7-0.3-1.2-0.9-1.4c-1.3-0.5-2.6-0.9-3.9-1.4
			c-0.4-0.1-0.6-0.3-0.4-0.8c4.5,0,9,0,13.5,0c0.2,0.4,0.1,0.7-0.4,0.8c-1.2,0.4-2.4,0.8-3.6,1.2c-0.9,0.3-1.3,0.9-1.3,1.9
			c0,9.5,0,19,0,28.5c0,0.2,0,0.5,0,0.8c-1,0-1.9,0-2.9,0c-0.1,0-0.3-0.2-0.4-0.3c-7.2-7-14.4-14-21.5-21c-0.9-0.9-1.8-1.7-2.7-2.6
			c-0.1-0.1-0.3-0.2-0.5-0.4c0,0.3-0.1,0.6-0.1,0.8c0,6.6,0,13.2,0,19.8c0,1.1,0.2,1.5,1.3,1.8c1.2,0.4,2.3,0.8,3.5,1.1
			c0.4,0.1,0.6,0.3,0.4,0.8c-8.7,0-17.3,0-26,0c-0.2-0.5,0-0.7,0.4-0.8c1-0.3,2-0.7,3-1c0.8-0.3,0.8-0.5,0.5-1.3
			c-1.3-2.9-2.5-5.7-3.8-8.6c-0.2-0.4-0.4-0.5-0.8-0.5c-3.1,0-6.1,0-9.2,0c-0.4,0-0.6,0.1-0.7,0.5c-1.1,2.8-2.3,5.6-3.4,8.5
			c-0.3,0.8-0.3,1.1,0.5,1.4c1,0.5,2,0.8,3,1.2c0.4,0.1,0.5,0.3,0.3,0.7c-4,0-7.9,0-11.9,0c-0.2-0.5,0-0.7,0.5-0.9
			c0.9-0.3,1.9-0.6,2.8-0.9c0.9-0.3,1.5-0.9,1.9-1.8c1.7-4.4,3.5-8.7,5.2-13.1c2.1-5.3,4.1-10.7,6.2-16c0.1-0.3,0.3-0.5,0.7-0.5
			c0.6,0,1.3,0,1.9,0c0.5,0,0.7,0.1,0.9,0.6c2,5.3,3.9,10.6,5.9,15.9c1.7,4.3,3.4,8.6,5.1,12.9c0.4,1.1,1.2,1.7,2.2,2.2
			c1.8,0.9,3.4,0.5,5.1-0.2c1.2-0.5,1.4-0.7,1.4-2c0-9.5,0-19,0-28.6C118.9,62.8,118.9,62.6,118.9,62.2z M100,80
			c-1.2-3.6-2.4-7.2-3.7-10.9c-1.4,3.7-2.8,7.3-4.3,10.9C94.7,80,97.4,80,100,80z"/>
		<path d="M52.5,95.5c-0.2-0.5-0.1-0.7,0.4-0.8c1.2-0.4,2.4-0.9,3.6-1.3c0.9-0.3,1.2-0.9,1.2-1.8c0-8.4,0-16.8,0-25.2
			c0-1.3-0.2-1.5-1.3-2c-1.1-0.4-2.3-0.8-3.5-1.2c-0.4-0.1-0.5-0.3-0.4-0.8c0.2,0,0.4,0,0.5,0c5.5,0,10.9,0,16.4,0
			c3.3,0,7.2,2.5,8.3,5.4c0.9,2.5,0.2,4.7-1.2,6.8c-1,1.4-2.2,2.4-3.9,2.8c-0.1,0-0.1,0.1-0.3,0.2c1.5,0.4,2.8,0.9,4,1.7
			c2.4,1.7,3.8,4,3.8,7c0,4.5-1.9,8-7.5,9c-1.2,0.2-2.4,0.3-3.5,0.3c-5.3,0-10.6,0-15.9,0C52.9,95.5,52.7,95.5,52.5,95.5z
			 M63.3,85.9c0,1.7,0,3.4,0,5.1c0,0.9,0.2,1.1,1,1.3c2.6,0.5,5.1,0.3,7.5-0.9c1.1-0.6,1.9-1.4,2.3-2.6c0.5-1.6,0.5-3.3-0.2-4.8
			c-0.3-0.8-0.9-1.6-1.5-2.2c-2.3-1.9-5.1-2.6-8-2.1c-0.9,0.1-1.1,0.5-1.1,1.3C63.3,82.5,63.3,84.2,63.3,85.9z M63.3,71.2
			c0,1.5,0,2.9,0,4.4c0,0.6,0.2,0.9,0.8,0.9c1-0.1,2-0.1,3-0.2c1.7-0.2,3.1-0.9,4.3-2.2c1.6-1.9,1.8-4.7,0.3-6.6
			C69.8,65.2,66,65,64,65.8c-0.5,0.2-0.8,0.6-0.7,1.2C63.3,68.4,63.3,69.8,63.3,71.2z"/>
		<path d="M156.7,62.3c5.4,0,10.8,0,16.2,0c0.1,0.5-0.1,0.7-0.5,0.8c-1.2,0.4-2.5,0.8-3.7,1.2c-0.9,0.3-1.2,0.9-1.2,1.8
			c0,3.4,0,6.9,0,10.3c0,0.2,0.1,0.4,0.1,0.6c0.2-0.1,0.5-0.2,0.7-0.3c2.4-2.3,4.7-4.7,7.1-7c1.5-1.5,3.1-3.1,4.6-4.6
			c0.6-0.6,0.6-0.8-0.2-1.2c-0.6-0.3-1.2-0.6-1.9-0.8c-0.4-0.1-0.5-0.3-0.4-0.8c4.2,0,8.3,0,12.5,0c0.2,0.5,0,0.6-0.4,0.8
			c-1.1,0.3-2.1,0.5-3.1,1c-0.8,0.3-1.5,0.8-2.1,1.4c-3.9,3.8-7.7,7.6-11.5,11.4c0,0-0.1,0.1-0.1,0.1c0,0.1,0,0.1,0.1,0.2
			c3.2,2.7,5.9,6,8.7,9.1c2.2,2.5,4.5,4.9,7.2,6.9c1.4,1,2.9,1.8,4.5,2.4c0.2,0.1,0.3,0.3,0.4,0.4c-0.2,0.1-0.3,0.3-0.5,0.4
			c-4.8,0.9-9.2,0.1-13-3.3c-2.8-2.4-5.1-5.3-7.6-8c-1.4-1.6-2.9-3.1-4.4-4.7c-0.2-0.2-0.4-0.2-0.7-0.3c-0.1,0.2-0.2,0.4-0.2,0.7
			c0,3.7,0,7.4,0,11.2c0,1.1,0.2,1.5,1.3,1.9c1.2,0.4,2.4,0.8,3.6,1.2c0.5,0.1,0.6,0.3,0.4,0.8c-5.4,0-10.8,0-16.2,0
			c-0.2-0.5,0-0.7,0.5-0.8c1.2-0.3,2.3-0.6,3.4-1c1.1-0.4,1.3-0.8,1.3-1.9c0-8.5,0-17.1,0-25.6c0-0.9-0.3-1.5-1.2-1.8
			c-1.2-0.4-2.4-0.8-3.6-1.2C156.7,62.9,156.6,62.7,156.7,62.3z"/>
		<path d="M165,43.7c0-0.4,0-0.5,0-0.7c0-6.3,0-12.7,0-19c0-0.6-0.2-1-0.8-1.2c-1.2-0.5-2.5-0.9-3.7-1.3c-0.4-0.1-0.5-0.3-0.4-0.7
			c4.2,0,8.4,0,12.6,0c0.2,0.4,0,0.7-0.4,0.8c-1,0.3-2.1,0.6-3.1,1c-1.2,0.4-1.4,0.7-1.4,2c0,8.7,0,17.5,0,26.2c0,0.3,0,0.6,0,0.9
			c-0.9,0-1.8,0-2.7,0c-0.2,0-0.3-0.2-0.5-0.3c-4.3-4.2-8.7-8.5-13-12.7c-3.1-3-6.3-6.1-9.4-9.1c-0.1-0.1-0.2-0.2-0.4-0.4
			c0,0.2-0.1,0.3-0.1,0.4c0,6.3,0,12.7,0,19c0,0.7,0.4,1,0.9,1.2c1.2,0.4,2.3,0.8,3.5,1.1c0.3,0.1,0.5,0.2,0.4,0.7
			c-4.2,0-8.4,0-12.6,0c-0.2-0.4,0-0.6,0.4-0.7c1.1-0.3,2.2-0.6,3.2-1c1.1-0.4,1.3-0.6,1.3-1.8c0-8.9,0-17.8,0-26.7
			c0-0.2,0-0.4,0-0.7c0.9,0,1.7,0,2.5,0c0.1,0,0.3,0.2,0.4,0.3c4.4,4.4,8.8,8.7,13.2,13.1c3.1,3.1,6.2,6.1,9.3,9.2
			C164.5,43.4,164.7,43.5,165,43.7z"/>
		<path d="M116.8,51.9c-4.6-0.1-8.8-1.4-12.4-4.5c-2.9-2.6-4.5-5.8-4.8-9.7c-0.3-3.6,0.4-7.1,2.4-10.2c2.2-3.4,5.3-5.4,9.1-6.5
			c4.7-1.3,9.4-1.3,13.9,0.9c5.1,2.5,8,6.6,8.8,12.3c1.1,8.6-4.6,14.5-11,16.7C120.9,51.6,118.8,52,116.8,51.9z M116.7,22.9
			c-2.5,0-5,0.8-7.2,2.5c-4.2,3.4-6.1,10.6-3.8,15.9c1.9,4.6,6.1,7.6,10.8,7.7c5,0.1,9.2-2.6,11.2-7.2c1.5-3.4,1.4-6.9,0.3-10.4
			C126.5,26.1,122.4,22.9,116.7,22.9z"/>
		<path d="M52.3,51.6c7.2-9.3,14.4-18.6,21.6-27.9c-0.3,0-0.5,0-0.7,0c-5.2,0-10.3,0-15.5,0c-0.9,0-1.5,0.3-1.8,1.1
			c-0.4,0.8-0.7,1.7-1.1,2.6c-0.1,0.2-0.3,0.3-0.5,0.5c-0.1,0-0.1-0.1-0.2-0.1c0-3,0-6,0-9.1c0.5,0.5,0.9,0.9,1.2,1.3
			c0.6,0.7,1.3,1,2.2,1c8,0,15.9-0.1,23.9-0.1c0.2,0,0.5,0,0.9,0C75.2,30.1,68.1,39.3,61,48.6c0.1,0,0.2,0.1,0.2,0.1
			c4.7,0,9.4,0,14.1,0c1.5,0,2.5-0.8,3.4-1.8c0.8-0.9,1.5-1.8,2.3-2.7c0.2-0.2,0.5-0.3,0.8-0.3c-1,2.9-2.1,5.8-3.2,8.7
			c0.1,0,0,0,0,0c-1.5-0.8-3.1-1-4.8-1c-7,0-13.9,0-20.9,0C52.9,51.6,52.7,51.6,52.3,51.6z"/>
		<path d="M191.1,29.3c-0.4,0.2-0.6,0-0.7-0.4c-0.3-1-0.7-1.9-1-2.9c-0.4-1.7-1.7-2.5-3.2-2.8c-1.6-0.3-3.1-0.2-4.6,0.4
			c-2.8,1.2-3.7,5.2-1.7,7.3c1.4,1.4,3,2.4,4.6,3.5c1.9,1.2,3.9,2.4,5.8,3.8c1.4,1,2.6,2.4,3,4.2c0.8,3.2-0.8,6.6-3.8,8.3
			c-2.2,1.2-4.5,1.6-6.9,1.6c-2.6,0-5.1-0.4-7.4-1.5c-0.2-0.1-0.4-0.4-0.4-0.6c-0.1-2.5-0.1-5-0.2-7.6c0-0.1,0-0.1,0-0.2
			c0.4-0.2,0.5,0,0.7,0.4c0.4,1.1,0.8,2.2,1.3,3.3c0.7,1.6,2.1,2.2,3.5,2.7c1.9,0.7,3.8,0.8,5.6-0.1c2.7-1.3,3.4-4.3,1.5-6.7
			c-1.1-1.4-2.7-2.2-4.2-3.1c-1.7-1-3.5-2-5.2-3.1c-1.7-1.1-3.1-2.6-3.7-4.7c-1-3.3,0.5-7,3.6-9.1c2.4-1.6,5-2.1,7.9-2.1
			c1.8,0.1,3.7,0.3,5.4,0.9c0.3,0.1,0.5,0.2,0.4,0.5c-0.1,2.5-0.2,4.9-0.3,7.4C191.2,29.1,191.1,29.2,191.1,29.3z"/>
		<path d="M99.5,20.7c0.2,0.5,0,0.6-0.4,0.7c-1.1,0.3-2.2,0.7-3.3,1.1c-1,0.4-1.2,0.7-1.2,1.7c0,8,0,16,0,23.9
			c0,1.1,0.2,1.5,1.3,1.8c1.1,0.3,2.2,0.6,3.3,0.9c0.4,0.1,0.5,0.3,0.4,0.7c-5,0-10,0-15.1,0c-0.1-0.4,0-0.6,0.4-0.7
			C86,50.6,87,50.3,88,50c1.2-0.4,1.4-0.7,1.4-2c0-8,0-16,0-24c0-0.9-0.2-1.2-1-1.5c-1.1-0.4-2.2-0.7-3.4-1
			c-0.4-0.1-0.6-0.3-0.4-0.7C89.6,20.7,94.5,20.7,99.5,20.7z"/>
	</g>
	<g>
		<path class="st0" d="M194.3,63.5v1.1h0.5c0.5,0,0.9-0.1,0.9-0.5c0-0.4-0.3-0.5-0.9-0.5C194.9,63.5,194.3,63.5,194.3,63.5z
			 M196.3,64.1c0,0.5-0.3,0.8-0.7,0.8l0.7,1.4h-0.6l-0.7-1.3h-0.7v1.3h-0.5v-3.1h1.1C195.9,63.2,196.3,63.5,196.3,64.1 M196.6,63.1
			c-0.5-0.5-1.1-0.7-1.7-0.7c-0.7,0-1.3,0.2-1.7,0.7c-0.4,0.5-0.7,1.1-0.7,1.7s0.3,1.3,0.7,1.7c0.5,0.4,1.1,0.7,1.7,0.7
			s1.3-0.3,1.7-0.7c0.5-0.5,0.7-1.1,0.7-1.7C197.3,64.2,197.1,63.5,196.6,63.1 M196.9,62.9c0.5,0.5,0.8,1.2,0.8,1.9
			c0,0.7-0.3,1.4-0.8,1.9s-1.2,0.8-1.9,0.8c-1.5,0-2.7-1.3-2.7-2.7c0-0.7,0.3-1.4,0.8-1.9c0.5-0.5,1.2-0.8,1.9-0.8
			C195.7,62.1,196.3,62.3,196.9,62.9"/>
	</g>
</g>
</svg>
