<?xml version="1.0" encoding="utf-8"?>
<!-- Generator: Adobe Illustrator 21.0.0, SVG Export Plug-In . SVG Version: 6.00 Build 0)  -->
<svg version="1.1" id="Layer_1" xmlns="http://www.w3.org/2000/svg" xmlns:xlink="http://www.w3.org/1999/xlink" x="0px" y="0px"
	 viewBox="0 0 250 115" style="enable-background:new 0 0 250 115;" xml:space="preserve">
<style type="text/css">
	.st0{fill:#049ED7;}
</style>
<g>
	<path class="st0" d="M102.2,101.3l0,8l0.6,0.1c1.8,0.3,3.7,0.6,5.5,0.7c1.6,0.2,3.3,0.2,4.9,0.1c1.6-0.1,3.1-0.4,4.6-0.9
		c1.8-0.5,3.4-1.4,4.8-2.5c1.3-1.1,2.2-2.4,2.8-4c1-2.6,1-5.4-0.1-8c-0.5-1.3-1.4-2.5-2.5-3.4c-1.1-1-2.3-1.7-3.6-2.1l-6-2.2
		c-0.7-0.3-1.3-0.9-1.6-1.6c-0.3-0.6-0.2-1.3,0.1-1.8c0.1-0.2,0.2-0.4,0.4-0.5c0.2-0.2,0.4-0.3,0.6-0.5c0.1-0.1,0.2-0.1,0.3-0.2
		c0.7-0.3,1.4-0.5,2.1-0.6c1.3-0.2,2.6-0.2,3.8,0c1.5,0.2,3,0.4,4.4,0.8l0.3,0.1v-7.4l-0.6-0.1c-1.5-0.4-3-0.6-4.5-0.8
		c-2-0.3-4-0.3-5.9,0c-2.5,0.2-4.9,1.2-6.8,2.8c-1.3,1-2.3,2.4-2.9,4c-0.9,2.4-0.9,5.1,0,7.5c0.4,1.2,1.2,2.3,2.1,3.2
		c0.8,0.8,1.7,1.4,2.7,2c1.3,0.7,2.7,1.3,4.1,1.6c0.5,0.1,0.9,0.3,1.4,0.5l0.7,0.3c0.1,0,0.1,0.1,0.2,0.1c0.7,0.3,1.3,0.6,1.9,1.2
		c0.4,0.4,0.7,0.8,0.8,1.3c0.1,0.4,0.1,0.9,0,1.3c-0.2,0.7-0.7,1.3-1.4,1.7c-0.7,0.4-1.5,0.6-2.3,0.7c-1.2,0.2-2.4,0.2-3.6,0.2
		c-1.6-0.1-3.1-0.3-4.6-0.6c-0.8-0.2-1.6-0.4-2.4-0.6L102.2,101.3"/>
	<path class="st0" d="M69.5,109v-9.3l-0.2,0.1c-2.1,1-4.4,1.6-6.7,1.7c-2.4,0.2-4.8-0.5-6.7-2c-1.4-1.1-2.4-2.5-2.9-4.2
		c-0.6-1.8-0.7-3.7-0.2-5.6c0.4-1.9,1.5-3.5,3-4.8c1.3-1.1,3-1.8,4.7-2c3-0.3,6.1,0.2,8.8,1.7l0.2,0.1v-9.3l-0.4-0.1
		c-2.7-0.9-5.6-1.2-8.4-1.1c-2.6,0.1-5.2,0.7-7.5,1.7c-2.4,1.1-4.5,2.7-6.2,4.8c-5.2,6.6-5.3,15.8-0.3,22.6c2.5,3.1,5.9,5.4,9.8,6.3
		c4.1,1,8.4,0.8,12.4-0.4L69.5,109"/>
	<polyline class="st0" points="90.3,109.6 90.3,74.8 81.6,74.8 81.6,109.6 90.3,109.6 	"/>
	<path class="st0" d="M25,46.9c0.1,1.1,0.6,2.1,1.4,2.9c0.8,0.7,1.9,1.2,3,1.2c1.1,0,2.2-0.4,3-1.2c0.8-0.7,1.3-1.8,1.4-2.9v-9.6
		c0-1.1-0.5-2.2-1.3-3c-0.8-0.8-1.9-1.2-3-1.2c-1.1,0-2.2,0.4-3,1.2c-0.8,0.8-1.3,1.8-1.3,3L25,46.9"/>
	<path class="st0" d="M49,46.9c0.1,1.1,0.6,2.1,1.4,2.9c0.8,0.7,1.9,1.2,3,1.2c1.1,0,2.2-0.4,3-1.2c0.8-0.7,1.3-1.8,1.4-2.9V25.3
		c0-1.1-0.5-2.2-1.3-3c-0.8-0.8-1.9-1.2-3-1.2c-1.1,0-2.2,0.4-3,1.2c-0.8,0.8-1.3,1.8-1.3,3L49,46.9"/>
	<path class="st0" d="M72.8,55.6c0.1,1.1,0.6,2.1,1.4,2.9s1.9,1.2,3,1.2c1.1,0,2.2-0.4,3-1.2c0.8-0.7,1.3-1.8,1.4-2.9V8.9
		c0-1.1-0.5-2.2-1.3-3c-0.8-0.8-1.9-1.2-3-1.2c-1.1,0-2.2,0.4-3,1.2s-1.3,1.8-1.3,3V55.6"/>
	<path class="st0" d="M96.8,46.9c0.1,1.1,0.6,2.1,1.4,2.9c0.8,0.7,1.9,1.2,3,1.2s2.2-0.4,3-1.2c0.8-0.7,1.3-1.8,1.4-2.9V25.3
		c0-1.1-0.5-2.2-1.3-3c-0.8-0.8-1.9-1.2-3-1.2c-1.1,0-2.2,0.4-3,1.2c-0.8,0.8-1.3,1.8-1.3,3V46.9"/>
	<path class="st0" d="M120.7,46.9c0.1,1.1,0.6,2.1,1.4,2.9c0.8,0.7,1.9,1.2,3,1.2s2.2-0.4,3-1.2c0.8-0.7,1.3-1.8,1.4-2.9v-9.6
		c0-1.1-0.5-2.2-1.3-3c-0.8-0.8-1.9-1.2-3-1.2c-1.1,0-2.2,0.4-3,1.2c-0.8,0.8-1.3,1.8-1.3,3L120.7,46.9"/>
	<path class="st0" d="M144.6,46.9c0.1,1.1,0.6,2.1,1.4,2.9c0.8,0.7,1.9,1.2,3,1.2s2.2-0.4,3-1.2c0.8-0.7,1.3-1.8,1.4-2.9V25.3
		c0-1.1-0.5-2.2-1.3-3c-0.8-0.8-1.9-1.2-3-1.2c-1.1,0-2.2,0.4-3,1.2c-0.8,0.8-1.3,1.8-1.3,3V46.9"/>
	<path class="st0" d="M168.5,55.6c0.1,1.1,0.6,2.1,1.4,2.9s1.9,1.2,3,1.2s2.2-0.4,3-1.2c0.8-0.7,1.3-1.8,1.4-2.9V8.9
		c0-1.1-0.5-2.2-1.3-3c-0.8-0.8-1.9-1.2-3-1.2s-2.2,0.4-3,1.2s-1.3,1.8-1.3,3V55.6"/>
	<path class="st0" d="M192.4,46.9c0.1,1.1,0.6,2.1,1.4,2.9c0.8,0.7,1.9,1.2,3,1.2s2.1-0.4,3-1.2c0.8-0.7,1.3-1.8,1.4-2.9V25.3
		c0-1.1-0.5-2.2-1.3-3c-0.8-0.8-1.9-1.2-3-1.2c-1.1,0-2.2,0.4-3,1.2c-0.8,0.8-1.3,1.8-1.3,3V46.9"/>
	<path class="st0" d="M216.3,46.9c0.1,1.1,0.6,2.1,1.4,2.9c0.8,0.7,1.9,1.2,3,1.2c1.1,0,2.1-0.4,3-1.2c0.8-0.7,1.3-1.8,1.4-2.9v-9.6
		c0-1.1-0.5-2.2-1.3-3c-0.8-0.8-1.9-1.2-3-1.2c-1.1,0-2.2,0.4-3,1.2c-0.8,0.8-1.3,1.8-1.3,3V46.9"/>
	<path class="st0" d="M161,109v-9.3l-0.2,0.1c-2.1,1-4.4,1.6-6.7,1.7c-2.4,0.2-4.8-0.5-6.7-2c-1.4-1.1-2.4-2.5-2.9-4.2
		c-0.6-1.8-0.7-3.7-0.2-5.6c0.4-1.9,1.5-3.5,3-4.8c1.3-1.1,3-1.8,4.7-2c3-0.3,6.1,0.2,8.8,1.7l0.2,0.1v-9.3l-0.4-0.1
		c-2.7-0.9-5.6-1.2-8.4-1.1c-2.6,0.1-5.2,0.7-7.5,1.7c-2.4,1.1-4.5,2.7-6.2,4.8c-5.2,6.6-5.3,15.8-0.3,22.6c2.5,3.1,5.9,5.4,9.8,6.3
		c4.1,1,8.4,0.8,12.4-0.4L161,109"/>
	<path class="st0" d="M170.2,92.2c0.1,5.5,2.6,10.7,6.9,14.1c4.3,3.4,9.9,4.7,15.3,3.5c7.3-1.4,13-7.1,14.3-14.4s-2-14.6-8.4-18.4
		c-5.6-3.5-12.7-3.7-18.5-0.5C174,79.6,170.4,85.6,170.2,92.2 M183,85.1c1.9-1.5,4.3-2.2,6.7-1.9s4.6,1.5,6.1,3.4
		c1.5,1.9,2.2,4.3,1.9,6.7s-1.5,4.6-3.4,6.1c-1.9,1.5-4.3,2.2-6.7,1.9c-2.4-0.3-4.6-1.5-6.1-3.4c-1.5-1.9-2.2-4.3-1.9-6.7
		C179.9,88.8,181.1,86.6,183,85.1"/>
</g>
</svg>
