<?xml version="1.0" encoding="utf-8"?>
<!-- Generator: Adobe Illustrator 16.0.0, SVG Export Plug-In . SVG Version: 6.00 Build 0)  -->
<!DOCTYPE svg PUBLIC "-//W3C//DTD SVG 1.1//EN" "http://www.w3.org/Graphics/SVG/1.1/DTD/svg11.dtd">
<svg version="1.1" id="Layer_1" xmlns="http://www.w3.org/2000/svg" xmlns:xlink="http://www.w3.org/1999/xlink" x="0px" y="0px"
	 width="249.969px" height="115px" viewBox="0 0 249.969 115" enable-background="new 0 0 249.969 115" xml:space="preserve">
<g>
	<g>
		<path d="M75.639,51.78h-2.7l-0.373-2.398c-0.357-0.354-0.807-0.635-1.351-0.842c-0.543-0.206-1.185-0.31-1.922-0.31
			c-1.577,0-2.79,0.57-3.641,1.708c-0.85,1.138-1.275,2.622-1.275,4.452v0.631c0,1.83,0.423,3.32,1.27,4.464
			c0.846,1.146,2.04,1.722,3.584,1.722c0.713,0,1.366-0.104,1.96-0.312c0.593-0.205,1.051-0.485,1.375-0.84l0.373-2.4h2.7v3.563
			c-0.729,0.842-1.661,1.512-2.794,2.01c-1.132,0.5-2.399,0.748-3.801,0.748c-2.431,0-4.422-0.836-5.974-2.51
			c-1.551-1.674-2.326-3.822-2.326-6.445v-0.606c0-2.613,0.771-4.762,2.314-6.443c1.543-1.683,3.538-2.523,5.985-2.523
			c1.401,0,2.667,0.253,3.795,0.761c1.128,0.507,2.062,1.177,2.8,2.01L75.639,51.78L75.639,51.78z"/>
		<path d="M86.041,63.716c-0.1-0.223-0.186-0.451-0.261-0.686c-0.075-0.236-0.133-0.474-0.175-0.712
			c-0.432,0.494-0.955,0.896-1.573,1.199c-0.618,0.304-1.325,0.457-2.122,0.457c-1.318,0-2.366-0.354-3.142-1.067
			c-0.776-0.714-1.163-1.687-1.163-2.914c0-1.254,0.505-2.224,1.518-2.907c1.012-0.686,2.496-1.026,4.455-1.026h1.854v-1.313
			c0-0.643-0.188-1.142-0.561-1.496c-0.374-0.354-0.925-0.532-1.654-0.532c-0.416,0-0.785,0.048-1.108,0.143
			c-0.323,0.095-0.585,0.208-0.784,0.34l-0.236,1.435h-2.737l0.013-2.968c0.663-0.445,1.425-0.82,2.283-1.126
			c0.858-0.305,1.794-0.457,2.806-0.457c1.667,0,3.022,0.405,4.063,1.218c1.04,0.812,1.562,1.969,1.562,3.47v5.528
			c0,0.207,0.001,0.399,0.006,0.582c0.004,0.182,0.019,0.354,0.044,0.521l1.107,0.147v2.164L86.041,63.716L86.041,63.716z
			 M82.894,61.304c0.547,0,1.046-0.117,1.493-0.352c0.447-0.235,0.797-0.529,1.046-0.886v-2.041h-1.854
			c-0.772,0-1.356,0.181-1.755,0.539c-0.398,0.356-0.597,0.789-0.597,1.291c0,0.455,0.146,0.81,0.441,1.063
			C81.962,61.177,82.371,61.304,82.894,61.304z"/>
		<path d="M91.663,61.552l1.742-0.371v-8.299l-1.929-0.37v-2.178h5.313l0.162,1.954c0.315-0.693,0.722-1.232,1.22-1.62
			c0.497-0.388,1.073-0.581,1.729-0.581c0.19,0,0.392,0.014,0.604,0.043c0.211,0.029,0.387,0.064,0.528,0.105l-0.386,3.29
			l-1.493-0.038c-0.53,0-0.971,0.104-1.318,0.31c-0.35,0.207-0.614,0.499-0.797,0.879v6.505l1.741,0.371v2.164h-7.117L91.663,61.552
			L91.663,61.552z"/>
		<path d="M115.069,57.396c0,1.996-0.449,3.592-1.345,4.787s-2.189,1.793-3.882,1.793c-0.788,0-1.473-0.162-2.054-0.488
			c-0.58-0.326-1.069-0.797-1.469-1.416l-0.261,1.646h-3.135V46.97l-1.929-0.371V44.42h5.549v7.336
			c0.39-0.536,0.856-0.948,1.4-1.237c0.543-0.288,1.168-0.433,1.872-0.433c1.709,0,3.012,0.641,3.907,1.923
			c0.895,1.282,1.345,2.991,1.345,5.127v0.259H115.069z M111.447,57.137c0-1.303-0.192-2.336-0.578-3.099
			c-0.386-0.763-1.043-1.144-1.973-1.144c-0.564,0-1.041,0.117-1.431,0.353c-0.391,0.235-0.696,0.571-0.921,1.008v5.653
			c0.225,0.412,0.533,0.726,0.927,0.939c0.395,0.215,0.878,0.322,1.45,0.322c0.938,0,1.593-0.328,1.966-0.984
			c0.373-0.654,0.56-1.584,0.56-2.789V57.137z"/>
		<path d="M116.863,56.9c0-1.995,0.563-3.63,1.687-4.903c1.123-1.275,2.677-1.911,4.659-1.911c1.991,0,3.549,0.635,4.673,1.904
			s1.687,2.907,1.687,4.91v0.26c0,2.012-0.563,3.651-1.687,4.917c-1.124,1.267-2.674,1.898-4.647,1.898
			c-2,0-3.562-0.633-4.685-1.898c-1.124-1.266-1.687-2.903-1.687-4.917V56.9z M120.497,57.161c0,1.221,0.216,2.2,0.646,2.938
			c0.432,0.738,1.128,1.107,2.091,1.107c0.938,0,1.623-0.371,2.059-1.113c0.436-0.742,0.654-1.721,0.654-2.932V56.9
			c0-1.188-0.221-2.156-0.66-2.906c-0.439-0.75-1.133-1.125-2.078-1.125s-1.634,0.375-2.065,1.125s-0.646,1.719-0.646,2.906
			L120.497,57.161L120.497,57.161z"/>
		<path d="M130.882,61.552l1.742-0.371v-8.299l-1.929-0.37v-2.178h5.313l0.162,1.917c0.447-0.685,0.999-1.216,1.654-1.596
			c0.654-0.379,1.39-0.568,2.203-0.568c1.359,0,2.421,0.425,3.185,1.273c0.763,0.85,1.146,2.182,1.146,3.995v5.826l1.742,0.371
			v2.164h-6.942v-2.164l1.555-0.371v-5.813c0-0.899-0.183-1.536-0.547-1.911c-0.365-0.375-0.917-0.563-1.655-0.563
			c-0.48,0-0.912,0.097-1.295,0.29c-0.381,0.193-0.699,0.469-0.958,0.823v7.173l1.47,0.371v2.164h-6.845V61.552L130.882,61.552z"/>
		<path d="M155.945,63.716c-0.1-0.223-0.188-0.451-0.262-0.686c-0.074-0.236-0.134-0.474-0.174-0.712
			c-0.432,0.494-0.957,0.896-1.574,1.199c-0.617,0.306-1.326,0.457-2.121,0.457c-1.319,0-2.366-0.354-3.143-1.067
			c-0.775-0.714-1.164-1.687-1.164-2.914c0-1.254,0.508-2.224,1.52-2.907c1.012-0.686,2.496-1.026,4.453-1.026h1.854v-1.313
			c0-0.643-0.187-1.142-0.562-1.496c-0.373-0.354-0.924-0.532-1.653-0.532c-0.415,0-0.783,0.048-1.106,0.143
			c-0.324,0.095-0.586,0.208-0.785,0.34l-0.235,1.435h-2.737l0.014-2.968c0.662-0.445,1.424-0.82,2.283-1.126
			c0.857-0.305,1.793-0.457,2.805-0.457c1.668,0,3.021,0.405,4.063,1.218c1.041,0.812,1.562,1.969,1.562,3.47v5.528
			c0,0.207,0.004,0.399,0.008,0.582c0.004,0.182,0.019,0.354,0.044,0.521l1.106,0.147v2.164L155.945,63.716L155.945,63.716z
			 M152.798,61.304c0.548,0,1.045-0.117,1.492-0.352c0.448-0.234,0.797-0.529,1.046-0.886v-2.041h-1.854
			c-0.771,0-1.356,0.181-1.754,0.539c-0.397,0.356-0.599,0.789-0.599,1.291c0,0.455,0.147,0.81,0.442,1.063
			C151.866,61.177,152.273,61.304,152.798,61.304z"/>
		<path d="M166.656,47.056v3.278h2.365v2.536h-2.365v6.815c0,0.52,0.107,0.891,0.324,1.113c0.215,0.222,0.506,0.334,0.871,0.334
			c0.248,0,0.467-0.01,0.652-0.031s0.396-0.055,0.628-0.105l0.312,2.609c-0.405,0.125-0.81,0.217-1.207,0.279
			s-0.829,0.092-1.295,0.092c-1.252,0-2.215-0.342-2.893-1.025c-0.677-0.686-1.014-1.77-1.014-3.254V52.87h-1.979v-2.536h1.979
			v-3.278H166.656z"/>
		<path d="M177.218,63.976c-1.94,0-3.493-0.617-4.653-1.854c-1.162-1.238-1.741-2.81-1.741-4.713v-0.495
			c0-1.987,0.55-3.624,1.647-4.911c1.1-1.285,2.574-1.925,4.424-1.916c1.816,0,3.228,0.544,4.23,1.633
			c1.003,1.088,1.506,2.56,1.506,4.415v1.966h-8.039l-0.023,0.074c0.065,0.883,0.363,1.609,0.89,2.178s1.242,0.854,2.146,0.854
			c0.806,0,1.474-0.08,2.004-0.241c0.531-0.16,1.111-0.414,1.742-0.761l0.982,2.228c-0.557,0.437-1.275,0.803-2.159,1.101
			C179.29,63.827,178.305,63.976,177.218,63.976z M176.895,52.87c-0.672,0-1.203,0.255-1.593,0.767
			c-0.391,0.511-0.631,1.184-0.722,2.016l0.037,0.063h4.455v-0.321c0-0.767-0.182-1.379-0.541-1.837
			C178.17,53.098,177.625,52.87,176.895,52.87z"/>
		<path d="M193.157,62.085c-0.423,0.617-0.923,1.088-1.499,1.408c-0.577,0.321-1.233,0.481-1.973,0.481
			c-1.66,0-2.947-0.603-3.862-1.806c-0.917-1.204-1.376-2.797-1.376-4.774v-0.26c0-2.11,0.46-3.813,1.381-5.108
			c0.922-1.295,2.215-1.941,3.883-1.941c0.672,0,1.277,0.146,1.816,0.438s1.013,0.707,1.418,1.243v-4.799l-1.94-0.371v-2.178h1.94
			h3.634v16.76l1.743,0.371v2.164h-4.891L193.157,62.085z M188.08,57.396c0,1.171,0.197,2.094,0.592,2.766s1.039,1.008,1.936,1.008
			c0.531,0,0.99-0.107,1.381-0.322s0.71-0.523,0.959-0.928v-5.677c-0.249-0.428-0.566-0.76-0.952-0.995s-0.841-0.353-1.362-0.353
			c-0.888,0-1.535,0.392-1.941,1.175c-0.405,0.784-0.609,1.806-0.609,3.067v0.26H188.08z"/>
		<path d="M203.945,63.716h-3.62V60.55h3.62V63.716z"/>
		<path fill="#E00A12" d="M221.887,45.708v4.799H219.1l-0.149-2.017h-3.335v12.691l1.941,0.371v2.164h-7.518v-2.164l1.941-0.371
			V48.49h-3.321l-0.149,2.017h-2.775v-4.799H221.887L221.887,45.708z"/>
		<path fill="#E00A12" d="M229.46,47.885l-1.382,0.247l3.211,10.799l0.225,0.988h0.073l0.212-0.965l3.223-10.823l-1.369-0.247
			v-2.177h6.621v2.177l-1.52,0.198l-5.338,15.633h-3.732l-5.351-15.633l-1.493-0.198v-2.177h6.62V47.885L229.46,47.885z"/>
	</g>
	<g id="Rounded_Rectangle_1_copy">
		<g>
			<path fill="#E00A12" d="M48.328,34.357H11.521c-1.008,0-1.825,0.817-1.825,1.827V73.03c0,1.01,0.817,1.827,1.825,1.827h20.881
				l4.214,5.785l4.214-5.785h7.498c1.008,0,1.825-0.817,1.825-1.827V36.185C50.153,35.176,49.336,34.357,48.328,34.357z"/>
		</g>
	</g>
	<g>
		<path fill="#FFFFFF" d="M24.137,69.091c-1.899-0.832-3.567-1.967-5.005-3.398c-1.438-1.434-2.571-3.117-3.399-5.057
			c-0.827-1.938-1.24-3.998-1.24-6.181s0.413-4.243,1.24-6.181c0.828-1.938,1.961-3.623,3.399-5.057
			c1.438-1.433,3.105-2.564,5.005-3.397c1.898-0.833,3.934-1.249,6.104-1.249c2.632,0,4.979,0.471,7.041,1.413
			c2.062,0.941,3.784,2.258,5.168,3.95c0.543,0.682,0.813,1.405,0.813,2.17c0,0.654-0.156,1.228-0.468,1.719
			c-0.312,0.492-0.691,0.895-1.14,1.208c-0.447,0.314-0.902,0.552-1.363,0.716c-0.462,0.164-0.841,0.246-1.14,0.246
			c-0.868,0-1.709-0.464-2.523-1.392c-0.325-0.354-0.712-0.703-1.159-1.044c-0.448-0.341-0.943-0.648-1.485-0.921
			c-0.543-0.272-1.134-0.491-1.771-0.655c-0.638-0.164-1.296-0.245-1.974-0.245c-1.193,0-2.313,0.231-3.357,0.695
			c-1.045,0.464-1.96,1.092-2.747,1.884c-0.787,0.791-1.404,1.713-1.852,2.763c-0.447,1.052-0.672,2.177-0.672,3.377
			c0,1.202,0.225,2.328,0.672,3.376c0.447,1.053,1.064,1.973,1.852,2.766c0.787,0.791,1.702,1.412,2.747,1.861
			c1.044,0.451,2.164,0.676,3.357,0.676c1.384,0,2.638-0.293,3.764-0.881c1.126-0.586,2.002-1.234,2.625-1.943
			c0.435-0.52,0.862-0.887,1.283-1.105c0.42-0.219,0.847-0.328,1.281-0.328s0.896,0.109,1.384,0.328
			c0.488,0.22,0.929,0.513,1.322,0.879c0.394,0.369,0.719,0.785,0.977,1.248c0.258,0.465,0.387,0.943,0.387,1.435
			c0,0.793-0.271,1.528-0.813,2.211c-1.384,1.692-3.106,3.011-5.168,3.951c-2.063,0.94-4.409,1.412-7.041,1.412
			C28.07,70.339,26.035,69.923,24.137,69.091z"/>
	</g>
</g>
</svg>
