<?xml version="1.0" encoding="utf-8"?>
<!-- Generator: Adobe Illustrator 16.0.0, SVG Export Plug-In . SVG Version: 6.00 Build 0)  -->
<!DOCTYPE svg PUBLIC "-//W3C//DTD SVG 1.1//EN" "http://www.w3.org/Graphics/SVG/1.1/DTD/svg11.dtd">
<svg version="1.1" id="Layer_1" xmlns="http://www.w3.org/2000/svg" xmlns:xlink="http://www.w3.org/1999/xlink" x="0px" y="0px"
	 width="249.969px" height="115px" viewBox="0 0 249.969 115" enable-background="new 0 0 249.969 115" xml:space="preserve">
<g>
	<g>
		<g>
			<path fill="#231F20" d="M79.012,75.857c-5.147,0-8.428-1.959-9.923-3.127l-0.155-0.119l0.105-0.166l2.146-3.354l0.123-0.193
				l0.187,0.138c1.249,0.916,3.876,2.455,7.438,2.455c3.062,0,4.817-1.33,4.817-3.646c0-2.549-2.066-3.275-5.813-4.594l-0.441-0.156
				c-3.76-1.309-7.24-3.219-7.24-8.315c0-4.585,3.529-7.546,8.99-7.546c3.236,0,5.752,0.591,7.911,1.861l0.171,0.101l-0.086,0.178
				l-1.717,3.55l-0.096,0.2l-0.198-0.102c-1.841-0.942-3.828-1.421-5.906-1.421c-1.948,0-4.271,0.532-4.271,3.062
				c0,2.476,1.828,3.079,5.468,4.28c3.958,1.291,8.182,3.145,8.182,8.826C88.703,72.832,85.081,75.857,79.012,75.857L79.012,75.857z
				"/>
		</g>
		<g>
			<path fill="#231F20" d="M92.581,82.76c-0.941,0-1.834-0.109-2.895-0.354l-0.195-0.045l0.031-0.199l0.508-3.316l0.03-0.207
				l0.207,0.025l0.331,0.041c0.508,0.063,0.908,0.115,1.477,0.115c1.906,0,3.125-0.724,3.94-2.337L88.868,55.47l-0.098-0.285h0.303
				h4.836h0.162l0.047,0.157l4.147,14.851l3.703-14.845l0.039-0.163h0.17h4.562h0.292l-0.085,0.279L100.59,76.25
				C99.243,80.693,96.696,82.76,92.581,82.76L92.581,82.76z"/>
		</g>
		<g>
			<path fill="#231F20" d="M136.139,75.508h-0.215h-4.682h-0.215v-0.215V61.914c0-1.695-0.351-2.828-2.045-2.828
				c-1.17,0-2.537,0.699-3.959,2.025v14.182v0.215h-0.215h-4.68h-0.215v-0.215V61.914c0-1.695-0.35-2.828-2.048-2.828
				c-1.243,0-2.683,0.764-3.958,2.098v14.109v0.215h-0.215h-4.681h-0.215v-0.215V55.4v-0.215h0.215h2.846h0.157l0.047,0.148
				l0.902,2.767c2.115-2.252,4.258-3.346,6.539-3.346c2.896,0,4.078,1.58,4.75,3.069c1.428-1.454,3.63-3.069,6.365-3.069
				c4.563,0,5.52,3.913,5.52,7.196v13.34v0.217H136.139z"/>
		</g>
		<g>
			<path fill="#231F20" d="M144.971,75.857c-3.754,0-6.377-2.414-6.377-5.869c0-2.223,0.773-3.781,2.434-4.899
				c1.695-1.154,4.511-1.99,8.839-2.619v-0.517c0-2.229-0.81-3.061-2.984-3.061c-1.86,0-3.733,0.777-5.481,1.617l-0.188,0.092
				l-0.097-0.186l-1.64-3.082l-0.095-0.178l0.171-0.107c2.574-1.587,4.965-2.294,7.758-2.294c5.017,0,7.666,2.596,7.666,7.51v13.025
				v0.215h-0.217h-2.848h-0.143l-0.057-0.131l-0.854-1.976C149.588,74.568,147.59,75.857,144.971,75.857L144.971,75.857z
				 M149.865,65.883c-3.346,0.65-4.994,1.26-5.66,2.094c-0.414,0.48-0.54,0.877-0.54,1.699c0,1.516,0.815,2.318,2.356,2.318
				c1.276,0,2.703-0.539,3.844-1.447V65.883L149.865,65.883z"/>
		</g>
		<g>
			<path fill="#231F20" d="M176.033,75.508h-0.215h-4.68h-0.216v-0.215V61.914c0-1.98-0.694-2.828-2.317-2.828
				c-1.363,0-2.963,0.818-4.193,2.135v14.072v0.215h-0.217h-4.68H159.3v-0.215V55.4v-0.215h0.216h2.849h0.157l0.047,0.148l0.9,2.802
				c2.104-2.274,4.321-3.381,6.771-3.381c3.845,0,5.792,2.422,5.792,7.196v13.34L176.033,75.508L176.033,75.508z"/>
		</g>
		<g>
			<path fill="#231F20" d="M186.701,75.857c-4.004,0-5.948-1.982-5.948-6.066V58.854h-2.751h-0.215v-0.215v-3.236v-0.215h0.215
				h2.857l0.908-5.516l0.028-0.181h0.185h3.668h0.215v0.216v5.48h4.074h0.215v0.215v3.236v0.215h-0.215h-4.074V69.52
				c0,1.74,0.297,2.359,1.969,2.359c0.506,0,1.303-0.146,2.082-0.383l0.232-0.07l0.043,0.238l0.586,3.237l0.029,0.175l-0.162,0.065
				C190.113,75.357,188.67,75.857,186.701,75.857L186.701,75.857z"/>
		</g>
		<g>
			<path fill="#231F20" d="M200.818,75.857c-5.689,0-9.226-3.982-9.226-10.395c0-6.506,3.482-10.707,8.875-10.707
				c5.466,0,8.599,3.917,8.599,10.746v1.211v0.215h-0.215h-11.977c0.279,3.285,1.607,4.756,4.294,4.756
				c2.197,0,3.649-0.814,5.188-1.799l0.182-0.115l0.115,0.182l1.871,2.924l0.105,0.166l-0.154,0.121
				C206.573,74.637,204.684,75.857,200.818,75.857L200.818,75.857z M196.917,63.57h6.916c-0.118-3.354-1.218-4.99-3.364-4.99
				C198.365,58.58,197.201,60.215,196.917,63.57L196.917,63.57z"/>
		</g>
		<g>
			<path fill="#231F20" d="M220.396,75.857c-6.773,0-9.188-5.369-9.188-10.395c0-4.938,2.404-10.707,9.188-10.707
				c2.797,0,4.75,0.668,6.537,2.238l0.145,0.126l-0.109,0.159l-2.145,3.082l-0.129,0.183l-0.18-0.133
				c-1.121-0.843-2.244-1.402-4.08-1.402c-2.627,0-3.959,2.16-3.959,6.416c0,4.186,1.334,6.221,4.074,6.221
				c1.811,0,2.984-0.682,4.188-1.705l0.172-0.146l0.138,0.181l2.225,2.849l0.115,0.147l-0.131,0.135
				C225.424,74.982,223.244,75.857,220.396,75.857L220.396,75.857z"/>
		</g>
	</g>
	<g>
		<g>
			<path fill="#FFB819" d="M39.196,86.81c-13.992-0.002-25.381-11.39-25.383-25.385c0.002-13.994,11.391-25.381,25.383-25.382
				c13.994,0.001,25.383,11.388,25.383,25.382C64.579,75.42,53.19,86.808,39.196,86.81L39.196,86.81z M39.196,44.074
				c-4.631,0-8.988,1.805-12.27,5.082c-3.277,3.279-5.084,7.637-5.084,12.27c0,4.633,1.807,8.992,5.085,12.273
				c3.278,3.272,7.637,5.08,12.269,5.08c4.635,0,8.992-1.808,12.273-5.084c3.273-3.277,5.08-7.638,5.08-12.271
				c0-4.633-1.807-8.99-5.081-12.271C48.187,45.877,43.827,44.074,39.196,44.074L39.196,44.074z"/>
		</g>
	</g>
	<g>
		<path fill="#231F20" d="M231.046,72.623h-0.796v-0.5h2.211v0.5h-0.783v2.561h-0.632V72.623L231.046,72.623z M233.072,72.123h0.947
			l0.608,2.231l0.578-2.231h0.948v3.061h-0.621v-2.342l-0.654,2.342h-0.566l-0.643-2.342v2.342h-0.6v-3.061H233.072z"/>
	</g>
	<g>
		<rect x="66.847" y="32.135" fill="#FFB819" width="1.98" height="1.978"/>
		<rect x="66.847" y="28.19" fill="#FFB819" width="1.98" height="1.982"/>
		<rect x="61.278" y="34.099" fill="#FFB819" width="1.85" height="1.933"/>
		<rect x="57.614" y="37.895" fill="#231F20" width="1.864" height="1.847"/>
		<rect x="63.128" y="36.033" fill="#231F20" width="2.072" height="1.862"/>
		<rect x="55.759" y="36.124" fill="#231F20" width="1.855" height="1.771"/>
		<rect x="61.278" y="37.895" fill="#231F20" width="1.85" height="1.847"/>
		<rect x="64.89" y="30.173" fill="#231F20" width="1.957" height="1.962"/>
		<rect x="61.278" y="32.135" fill="#231F20" width="3.611" height="1.964"/>
		<rect x="59.479" y="34.099" fill="#231F20" width="1.8" height="3.796"/>
		<path fill="#231F20" d="M59.479,39.742v1.862h-1.864v-1.862h-3.092v1.343h-1.658v1.655h1.852v1.845h-1.852V42.74H50.9v2.894
			h-1.861v1.846h-1.235v1.854h-1.356c-1.525,2.268-5.346,9.334-6.502,12.215c-4.162-5.795-7.395-8.093-9.94-8.924
			c-1.375-0.414-3.029,1.082-0.747,3.436c5.238,5.762,6.889,10.531,8.48,14.338c0.842,2.006,4.619,2.316,5.379,0.275
			c1.612-4.32,3.949-9.172,6.717-13.157v-2.065h1.478v-1.861h1.554v-2.158h1.858v-2.079h-1.878v-1.892h1.878v1.892h1.837
			l-0.006-1.873h1.475v-2.259h1.655v-1.555h1.595v-3.924L59.479,39.742L59.479,39.742z"/>
	</g>
</g>
</svg>
