<?xml version="1.0" encoding="utf-8"?>
<!-- Generator: Adobe Illustrator 16.0.0, SVG Export Plug-In . SVG Version: 6.00 Build 0)  -->
<!DOCTYPE svg PUBLIC "-//W3C//DTD SVG 1.1//EN" "http://www.w3.org/Graphics/SVG/1.1/DTD/svg11.dtd">
<svg version="1.1" id="Layer_1" xmlns="http://www.w3.org/2000/svg" xmlns:xlink="http://www.w3.org/1999/xlink" x="0px" y="0px"
	 width="249.969px" height="115px" viewBox="0 0 249.969 115" enable-background="new 0 0 249.969 115" xml:space="preserve">
<g>
	<g>
		<path fill="#008457" d="M55.774,74.534h-6.891V57.946c0-4.803-0.766-8.252-5.36-8.061c-1.533,0.064-3.481,1.112-4.498,2.393
			c-1.019,1.282-1.437,3.246-1.437,5.236v16.963h-7.605V44.019h6.84v3.761l0,0c2.018-3.638,5.363-4.594,9.283-4.594
			c6.03,0,9.667,3.637,9.667,13.147L55.774,74.534L55.774,74.534z"/>
		<path fill="#008457" d="M87.763,61.466l-20.408,0.096c0,4.983,2.408,7.753,7.296,7.753c3.052,0,4.677-0.922,5.72-3.828h6.604
			c-0.957,6.221-7.41,9.717-11.498,9.717c-4.894,0-8.358-1.112-10.802-3.783c-2.444-2.672-4.593-6.678-4.593-11.446
			c0-4.749,1.322-9.226,3.924-12.193c2.602-2.966,5.572-4.594,10.646-4.594c3.92,0,7.586,2.109,9.797,4.663
			c2.21,2.554,3.315,6.062,3.315,10.525L87.763,61.466L87.763,61.466z M80.466,56.106c0.383-4.02-2.772-7.204-6.125-7.178
			c-4.883,0.038-6.972,3.66-7.079,7.218L80.466,56.106z"/>
		<path fill="#008457" d="M118.142,71.442l-6.375,5.053v-5.633c0,0-3.205,4.688-9.515,4.342c-5.667-0.311-9.651-3.688-10.026-12.35
			l0.059-18.658l7.358,0.001l-0.06,20.137c0,3.072,2.714,4.201,5.946,4.201c4.84,0,5.33-4.694,5.33-6.773l0.06-17.743h7.282
			L118.142,71.442z"/>
		<path fill="#008457" d="M126.604,64.737c6.074,6.834,14.351,3.574,15.109,1.6c0.488-1.271,0.525-2.831-2.229-3.745
			c-3.437-1.146-10.377-0.103-13.965-4.058c-1.281-1.412-1.927-3.312-1.927-5.713c0-2.92,1.101-5.21,3.304-6.868
			c2.201-1.658,4.793-3.053,10.715-2.649c2.531,0.173,8.234,1.724,9.904,4.862l-5.015,3.973c-2.429-2.632-7.188-4.115-10.676-2.223
			c-1.408,0.764-4.486,5.398,4.952,5.922c4.558,0.253,6.593,1.504,7.852,2.24c1.26,0.733,2.219,1.703,2.878,2.901
			c0.658,1.202,0.988,2.591,0.988,4.168c0,3.063-1.144,5.443-3.429,7.138s-5.784,3.266-11.236,2.92
			c-5.371-0.343-10.558-4.154-12.127-6.584L126.604,64.737z"/>
		<path fill="#008457" d="M167.813,74.151c-1.223,0.248-4.438,0.641-6.908,0.641c-4.071,0-8.481-2.194-8.481-9.403V44.276
			l7.283-5.771v8.777h7.573l0.033,5.722h-7.694v10.962c0,3.172,0.84,4.12,3.175,4.12c0.87,0,3.479,0.089,5.02,0.046V74.151
			L167.813,74.151z"/>
		<path fill="#008457" d="M172.473,52.977c0.979-4.95,2.383-5.933,4.053-7.279c2.548-2.053,7.507-2.465,8.992-2.465
			c7.739,0,12.078,4.108,11.806,13.281v17.958l-7.166-0.099v-4.328c0,0-0.619,4.746-9.384,5.207c-2.424,0-5.125-1.079-6.701-2.684
			c-1.577-1.604-3.146-3.428-3.146-6.188c0-5.699,2.924-9.146,9.248-10.077l9.982-0.853c0-3.458-0.154-6.599-5.053-6.599
			c-3.304,0-4.897,0.875-5.619,4.228L172.473,52.977z M183.497,61.329c-5.349,0-5.461,3.375-5.306,4.346
			c0.088,0.537,0.397,3.607,4.129,3.646c9.146,0.098,7.678-8.289,7.678-8.289L183.497,61.329z"/>
		<path fill="#008457" d="M219.984,50.747c-0.984-0.609-10.832-1.244-10.34,9.429v14.301h-7.302v-30.68h6.81v6.54
			c0,0-0.939-6.934,10.832-6.934V50.747L219.984,50.747z"/>
	</g>
	<g>
		<path fill="none" d="M132.087,49.915c-1.409,0.764-4.485,5.398,4.952,5.922c0.336,0.019,0.654,0.043,0.964,0.071l4.761-3.771
			C140.333,49.506,135.574,48.022,132.087,49.915z"/>
		
			<linearGradient id="SVGID_1_" gradientUnits="userSpaceOnUse" x1="291.6865" y1="2.04" x2="276.6559" y2="15.8982" gradientTransform="matrix(1 0 0 -1 -146 76.9688)">
			<stop  offset="0" style="stop-color:#008457;stop-opacity:0"/>
			<stop  offset="1" style="stop-color:#D6DE18"/>
		</linearGradient>
		<path fill="url(#SVGID_1_)" d="M141.713,66.336c-0.76,1.975-9.035,5.234-15.109-1.6l-4.898,3.883
			c1.569,2.43,6.756,6.242,12.127,6.584c5.452,0.346,8.951-1.226,11.236-2.92c2.285-1.693,3.429-4.072,3.429-7.138
			c0-1.577-0.33-2.966-0.988-4.168c-0.657-1.198-1.618-2.168-2.878-2.901c-1.167-0.682-3.001-1.805-6.888-2.168l-6.828,5.413
			c3.128,0.684,6.492,0.574,8.571,1.27C142.238,63.504,142.201,65.065,141.713,66.336z"/>
		
			<linearGradient id="SVGID_2_" gradientUnits="userSpaceOnUse" x1="307.4463" y1="19.396" x2="292.6353" y2="33.0516" gradientTransform="matrix(1 0 0 -1 -146 76.9688)">
			<stop  offset="0" style="stop-color:#008457;stop-opacity:0"/>
			<stop  offset="0.7897" style="stop-color:#D6DE18"/>
		</linearGradient>
		<path fill="url(#SVGID_2_)" d="M159.484,53h7.566l0.357-5.689l-6.926-0.028V39h-0.936l-7.281,5.522c0,0,0.279,22.076,0.332,22.578
			l6.885-6.268V53H159.484z"/>
	</g>
	<text transform="matrix(1 0 0 1 214.0342 74.3877)" fill="#008457" font-family="'MicrosoftYaHei-Bold'" font-size="3.4241">TM</text>
</g>
</svg>
