<?xml version="1.0" encoding="utf-8"?>
<!-- Generator: Adobe Illustrator 16.0.0, SVG Export Plug-In . SVG Version: 6.00 Build 0)  -->
<!DOCTYPE svg PUBLIC "-//W3C//DTD SVG 1.1//EN" "http://www.w3.org/Graphics/SVG/1.1/DTD/svg11.dtd">
<svg version="1.1" id="Layer_1" xmlns="http://www.w3.org/2000/svg" xmlns:xlink="http://www.w3.org/1999/xlink" x="0px" y="0px"
	 width="249.969px" height="115px" viewBox="0 0 249.969 115" enable-background="new 0 0 249.969 115" xml:space="preserve">
<g>
	<circle fill="#6A489C" cx="124.639" cy="92.676" r="2.821"/>
	<path fill="#231F20" d="M136.365,79.847v19.521h8.97v3.041h-12.228V79.846L136.365,79.847L136.365,79.847z M150.313,85.237v9.732
		c0,1.572,0.033,3.289,1.502,4.291c0.394,0.287,1.252,0.678,2.502,0.678c1.361-0.035,2.004-0.355,2.473-0.713
		c1.432-1.184,1.322-3.293,1.322-4.902v-9.086h3.258v9.086c0,2.109-0.038,2.896-0.321,3.971c-0.254,0.859-0.789,2.434-2.755,3.545
		c-1.646,0.965-3.365,0.965-4.043,0.965c-1.075,0-1.971-0.145-2.327-0.252c-1.896-0.463-3.612-1.748-4.329-3.574
		c-0.5-1.289-0.535-2.828-0.535-4.258v-9.479h3.256v-0.004H150.313z M176.969,88.708h-0.037c-0.354-0.252-0.393-0.287-0.607-0.396
		c-1.143-0.643-2.396-0.678-2.824-0.678c-0.43,0-1.396,0.035-2.434,0.537c-1.254,0.572-3.256,2.109-3.256,5.543
		c0,0.504,0,1.432,0.428,2.539c0.861,2.328,2.897,3.76,5.367,3.76c1.754,0,2.936-0.717,3.473-1.037l0.033,2.754
		c-0.284,0.18-0.643,0.395-0.965,0.498c-0.465,0.217-1.646,0.574-3.148,0.574c-5.188-0.037-8.585-4.041-8.585-9.088
		c0-0.607,0.034-2.074,0.646-3.613c0.645-1.715,2.719-5.258,7.799-5.258c0.894,0,2.254,0.07,4.113,0.965L176.969,88.708
		L176.969,88.708z M182.621,94.86c0.07,0.75,0.216,1.252,0.324,1.537c0.498,1.539,1.681,2.793,3.182,3.365
		c0.609,0.215,1.469,0.463,2.932,0.463c0.861,0,2.187-0.07,4.082-0.75l-0.037,2.611c-0.785,0.287-2.324,0.715-4.543,0.715
		c-0.646,0-2.826,0-4.761-0.965c-1.821-0.896-4.542-3.221-4.507-8.195c0-0.643,0.036-2.252,0.682-3.895
		c0.571-1.398,2.396-4.904,6.977-4.904c4.365,0,7.156,3.252,7.156,7.514c0,0.713-0.039,1.18-0.356,2.504H182.621L182.621,94.86z
		 M190.957,92.679c0-0.432,0.105-1.861-0.573-3.15c-0.356-0.645-1.325-2.18-3.47-2.145c-0.93,0-1.79,0.285-2.469,0.857
		c-1.717,1.469-1.824,3.863-1.859,4.438H190.957z M200.833,85.237v3.359c0.181-0.391,0.465-0.963,0.716-1.322
		c1.574-2.217,3.649-2.432,4.649-2.432c0.608,0,2.257,0.07,3.651,1.107c2.146,1.609,2.217,4.045,2.217,6.439v10.02h-3.256v-9.625
		c0-1.504-0.035-3.004-1.218-4.113c-0.319-0.322-1.106-0.861-2.36-0.861c-0.465,0-1.502,0.111-2.504,0.898
		c-1.787,1.463-1.752,3.934-1.752,5.971v7.73h-3.259V85.237H200.833L200.833,85.237z M224.629,87.956h-4.831v8.873
		c0,0.141-0.034,0.963,0.108,1.535c0.501,1.719,2.361,1.646,2.789,1.646c0.609,0,1.146-0.035,2.289-0.324l-0.034,2.688
		c-1.037,0.211-1.86,0.32-2.933,0.32c-0.435,0-1.972,0-3.225-0.684c-2.184-1.18-2.253-3.471-2.253-5.58V81.987l3.256-2.521v5.805
		h4.831L224.629,87.956L224.629,87.956z M48.805,79.847v22.563h-3.254V79.847H48.805z M64.876,88.708h-0.039
		c-0.356-0.252-0.392-0.287-0.609-0.396c-1.141-0.643-2.395-0.678-2.826-0.678c-0.427,0-1.393,0.035-2.432,0.537
		c-1.253,0.572-3.255,2.109-3.255,5.543c0,0.504,0,1.432,0.428,2.539c0.86,2.328,2.898,3.76,5.369,3.76
		c1.751,0,2.934-0.717,3.469-1.037l0.037,2.754c-0.288,0.18-0.643,0.395-0.966,0.498c-0.463,0.217-1.646,0.574-3.148,0.574
		c-5.188-0.037-8.587-4.041-8.587-9.088c0-0.607,0.037-2.074,0.645-3.613c0.645-1.715,2.72-5.258,7.799-5.258
		c0.894,0,2.253,0.07,4.116,0.965L64.876,88.708L64.876,88.708z M68.666,86.347c0.357-0.182,0.751-0.361,1.145-0.539
		c0.824-0.32,2.647-0.965,5.008-0.965c2.433,0,3.831,0.645,4.652,1.359c0.179,0.145,0.752,0.643,1.039,1.287
		c0.321,0.682,0.537,1.469,0.537,3.184l-0.037,11.486c-2.612,0.57-5.258,0.643-6.116,0.643c-1.433,0-2.541-0.143-3.079-0.252
		c-1-0.176-4.542-0.963-4.542-4.793c0-0.82,0.141-2.502,1.785-3.9c2.436-2.109,5.872-2.252,8.803-2.252v-0.787
		c0-1.002-0.035-1.361-0.215-1.789c-0.355-0.822-1.323-1.607-3.327-1.607c-1.537,0-3.326,0.465-4.685,1.105
		c-0.36,0.146-0.682,0.357-1.002,0.537L68.666,86.347z M77.861,93.751c-1.931,0-4.617,0.07-6.227,1.395
		c-0.752,0.607-1.145,1.396-1.145,2.396c0,0.607,0.145,1.146,0.502,1.574c0.678,0.859,1.897,1.217,4.041,1.217
		c0.501,0,1.577-0.033,2.828-0.25L77.861,93.751L77.861,93.751z M93.208,87.956h-4.829v8.873c0,0.141-0.035,0.963,0.105,1.535
		c0.503,1.719,2.362,1.646,2.793,1.646c0.606,0,1.143-0.035,2.288-0.324l-0.036,2.688c-1.038,0.211-1.861,0.32-2.932,0.32
		c-0.43,0-1.967,0-3.221-0.684c-2.181-1.18-2.253-3.471-2.253-5.58V81.987l3.256-2.521v5.805h4.829V87.956z M98,94.86
		c0.07,0.75,0.212,1.252,0.321,1.537c0.5,1.539,1.681,2.793,3.183,3.365c0.607,0.215,1.469,0.463,2.934,0.463
		c0.858,0,2.182-0.07,4.082-0.75l-0.039,2.611c-0.786,0.287-2.323,0.715-4.543,0.715c-0.644,0-2.825,0-4.759-0.965
		c-1.825-0.896-4.543-3.221-4.507-8.195c0-0.643,0.035-2.252,0.681-3.895c0.571-1.398,2.396-4.904,6.974-4.904
		c4.368,0,7.156,3.252,7.156,7.514c0,0.713-0.035,1.18-0.356,2.504H98L98,94.86z M106.333,92.679c0-0.432,0.108-1.861-0.573-3.15
		c-0.355-0.645-1.323-2.18-3.469-2.145c-0.931,0-1.789,0.285-2.467,0.857c-1.72,1.469-1.824,3.863-1.861,4.438H106.333z
		 M116.172,79.847v22.563h-3.257V79.847H116.172z M39.64,102.409l-1.369-4.441h-8.426l-1.369,4.441h-3.492l6.992-22.563h4.276
		l6.886,22.563H39.64z M34.075,82.956l-3.349,11.992h6.672L34.075,82.956z"/>
	<g>
		<g>
			<circle fill="#6A489C" cx="124.633" cy="40.38" r="28.184"/>
		</g>
		<path fill="#FFFFFF" d="M135.771,30.205c-1.313-0.243-2.683-0.295-4.133-0.153c-0.103,0.365-0.22,0.793-0.35,1.274
			c3.646-0.839,6.939-0.347,9.104,2.776c2.14,3.083,0.83,7.887-1.328,11.532l0.945,1.886c0.01-0.022,0.022-0.045,0.033-0.068
			C145.923,35.296,139.378,30.874,135.771,30.205z M137.163,48.311c-2.706,3.138-5.786,5.084-8.085,6.034
			c-2.387,0.983-3.445,1.003-3.551-1.658c-0.203-5.134,2.082-14.639,4.412-23.18c2.021-7.396,2.311-8.681-1.217-9.817
			c-2.648-0.854-4.541-0.269-8.446,3.331c-5.039,4.645-12.716,15.197-16.579,23.21c0.983,0.88,2.087,1.747,2.902,2.333
			c0.878,0.635,1.574,0.443,2.217-0.559c2.857-4.461,7.625-9.215,13.123-12.551c0.259-0.908,0.528-1.806,0.796-2.683
			c-4.557,2.141-8.277,4.908-8.277,4.908c4.712-8.639,11.534-15.636,12.783-15.092c0.798,0.348-1.929,7.312-3.892,14.423
			c-2.244,8.133-3.381,14.336-3.029,18.875c0.32,4.13,3.556,5.238,8.396,3.113c3.635-1.595,7.077-4.705,9.592-8.501l-1.099-2.246
			C137.193,48.271,137.18,48.291,137.163,48.311z"/>
	</g>
</g>
</svg>
