<?xml version="1.0" encoding="utf-8"?>
<!-- Generator: Adobe Illustrator 16.0.0, SVG Export Plug-In . SVG Version: 6.00 Build 0)  -->
<!DOCTYPE svg PUBLIC "-//W3C//DTD SVG 1.1//EN" "http://www.w3.org/Graphics/SVG/1.1/DTD/svg11.dtd">
<svg version="1.1" id="Layer_1" xmlns="http://www.w3.org/2000/svg" xmlns:xlink="http://www.w3.org/1999/xlink" x="0px" y="0px"
	 width="249.969px" height="115px" viewBox="0 0 249.969 115" enable-background="new 0 0 249.969 115" xml:space="preserve">
<g>
	<polygon fill="#ED2526" points="58.43,68.159 59.913,68.122 58.602,68.626 	"/>
	<polygon fill="#ED2926" points="59.913,68.122 58.43,68.159 58.25,67.673 61.278,67.597 	"/>
	<polygon fill="#ED2926" points="61.278,67.597 58.25,67.673 58.059,67.153 62.738,67.034 	"/>
	<polygon fill="#ED2D28" points="62.738,67.034 58.059,67.153 57.879,66.667 64.104,66.509 	"/>
	<polygon fill="#ED2D28" points="64.104,66.509 57.879,66.667 57.7,66.183 65.466,65.983 	"/>
	<polygon fill="#ED3029" points="65.466,65.983 57.7,66.183 57.521,65.696 66.83,65.458 	"/>
	<polygon fill="#ED3029" points="66.83,65.458 57.521,65.696 57.342,65.212 68.194,64.933 	"/>
	<polygon fill="#ED342A" points="68.194,64.933 57.342,65.212 57.15,64.69 69.655,64.37 	"/>
	<polygon fill="#ED342A" points="69.655,64.37 57.15,64.69 56.971,64.206 71.018,63.845 	"/>
	<polygon fill="#EE372B" points="71.018,63.845 56.971,64.206 56.792,63.72 72.383,63.319 	"/>
	<polygon fill="#EE372B" points="72.383,63.319 56.792,63.72 56.612,63.235 73.746,62.796 	"/>
	<polygon fill="#EE3B2D" points="73.746,62.796 56.612,63.235 56.433,62.749 75.109,62.271 	"/>
	<polygon fill="#EE3B2D" points="75.109,62.271 56.433,62.749 56.241,62.228 76.571,61.708 	"/>
	<polygon fill="#EE3E2E" points="76.571,61.708 56.241,62.228 56.062,61.743 77.935,61.183 	"/>
	<polygon fill="#EE3E2E" points="77.935,61.183 56.062,61.743 55.883,61.257 62.407,61.089 62.451,61.208 62.796,61.079 
		79.299,60.657 	"/>
	<path fill="#EE402F" d="M79.299,60.657l-16.503,0.422l1.405-0.525l16.461-0.422L79.299,60.657L79.299,60.657z M62.407,61.089
		l-6.524,0.168l-0.179-0.482l6.524-0.17L62.407,61.089L62.407,61.089z"/>
	<path fill="#EE4431" d="M80.662,60.132l-16.461,0.422l1.422-0.529l16.427-0.428L80.662,60.132L80.662,60.132z M62.228,60.604
		l-6.524,0.168l-0.18-0.49l6.523-0.168L62.228,60.604L62.228,60.604z"/>
	<path fill="#EE4431" d="M82.05,59.597l-16.427,0.426l1.492-0.559l16.373-0.422L82.05,59.597L82.05,59.597z M62.047,60.114
		l-6.523,0.168l-0.191-0.516l6.524-0.168L62.047,60.114L62.047,60.114z"/>
	<path fill="#EE4431" d="M83.488,59.044l-16.373,0.42l1.406-0.525l16.331-0.419L83.488,59.044L83.488,59.044z M61.856,59.599
		l-6.524,0.168l-0.179-0.486l6.524-0.167L61.856,59.599L61.856,59.599z"/>
	<path fill="#EE4632" d="M84.852,58.519l-16.331,0.419l1.405-0.526l16.289-0.418L84.852,58.519L84.852,58.519z M61.677,59.113
		l-6.524,0.167l-0.179-0.484l6.524-0.167L61.677,59.113L61.677,59.113z"/>
	<path fill="#EF4934" d="M86.214,57.994l-16.289,0.418l1.407-0.526l16.246-0.417L86.214,57.994L86.214,57.994z M61.498,58.629
		l-6.524,0.167l-0.179-0.486l6.524-0.167L61.498,58.629L61.498,58.629z"/>
	<path fill="#EF4934" d="M87.579,57.47l-16.246,0.417l1.426-0.534l16.211-0.419L87.579,57.47L87.579,57.47z M61.319,58.143
		l-6.524,0.167l-0.181-0.488l6.523-0.169L61.319,58.143L61.319,58.143z"/>
	<path fill="#EF4B35" d="M88.97,56.933l-16.211,0.419l1.485-0.556l16.158-0.414L88.97,56.933L88.97,56.933z M61.138,57.652
		l-6.523,0.169l-0.19-0.517l6.524-0.167L61.138,57.652L61.138,57.652z"/>
	<path fill="#EF4B35" d="M90.402,56.382l-16.158,0.414l1.407-0.526l16.115-0.413L90.402,56.382L90.402,56.382z M60.948,57.138
		l-6.524,0.167l-0.179-0.486l6.523-0.167L60.948,57.138L60.948,57.138z"/>
	<path fill="#EF4E37" d="M91.767,55.856L75.652,56.27l1.406-0.526l16.073-0.412L91.767,55.856L91.767,55.856z M60.768,56.651
		l-6.523,0.167l-0.179-0.485l6.523-0.167L60.768,56.651L60.768,56.651z"/>
	<path fill="#EF4E37" d="M93.131,55.33l-16.073,0.412l1.408-0.525l16.03-0.411L93.131,55.33L93.131,55.33z M60.589,56.165
		l-6.523,0.167l-0.179-0.485l6.523-0.167L60.589,56.165L60.589,56.165z"/>
	<path fill="#EF5038" d="M94.496,54.806l-16.03,0.411l1.506-0.563l15.984-0.41L94.496,54.806L94.496,54.806z M60.41,55.68
		l-6.523,0.167l-0.192-0.521l6.523-0.167L60.41,55.68L60.41,55.68z"/>
	<path fill="#EF5038" d="M95.956,54.243l-15.984,0.41l1.406-0.526l15.942-0.408L95.956,54.243L95.956,54.243z M60.218,55.159
		l-6.523,0.167l-0.179-0.484l6.523-0.167L60.218,55.159L60.218,55.159z"/>
	<path fill="#EF533A" d="M97.319,53.719l-15.942,0.408l1.407-0.526l15.899-0.408L97.319,53.719L97.319,53.719z M60.039,54.675
		l-6.523,0.167l-0.179-0.486l6.523-0.167L60.039,54.675L60.039,54.675z"/>
	<path fill="#EF533A" d="M98.684,53.192l-15.899,0.408l1.406-0.526l15.857-0.407L98.684,53.192L98.684,53.192z M59.859,54.188
		l-6.523,0.167l-0.179-0.485l6.523-0.167L59.859,54.188L59.859,54.188z"/>
	<path fill="#F0563C" d="M100.047,52.667L84.19,53.074l1.406-0.524l15.814-0.406L100.047,52.667L100.047,52.667z M59.68,53.702
		l-6.523,0.167l-0.179-0.484l6.523-0.167L59.68,53.702L59.68,53.702z"/>
	<path fill="#F0563C" d="M101.41,52.143l-15.814,0.406l1.507-0.564l15.769-0.404L101.41,52.143L101.41,52.143z M59.501,53.218
		l-6.523,0.167l-0.192-0.521l6.523-0.167L59.501,53.218L59.501,53.218z"/>
	<path fill="#F0583E" d="M102.872,51.579l-15.769,0.404l1.406-0.526l15.727-0.402L102.872,51.579L102.872,51.579z M59.309,52.697
		l-6.523,0.167l-0.179-0.484l6.523-0.167L59.309,52.697L59.309,52.697z"/>
	<path fill="#F0583E" d="M104.236,51.055l-15.727,0.402l1.406-0.525l15.684-0.402L104.236,51.055L104.236,51.055z M59.129,52.211
		l-6.523,0.168l-0.179-0.485l6.523-0.167L59.129,52.211L59.129,52.211z"/>
	<path fill="#F05B40" d="M105.599,50.53l-15.684,0.402l1.407-0.526l15.642-0.4L105.599,50.53L105.599,50.53z M58.95,51.727
		l-6.523,0.167l-0.179-0.486l6.523-0.167L58.95,51.727L58.95,51.727z"/>
	<path fill="#F05B40" d="M106.963,50.005l-15.642,0.4l1.406-0.525l15.599-0.4L106.963,50.005L106.963,50.005z M58.771,51.24
		l-6.523,0.167l-0.179-0.484l6.523-0.167L58.771,51.24L58.771,51.24z"/>
	<path fill="#F05C41" d="M108.327,49.479l-15.599,0.4l1.507-0.564l15.554-0.399L108.327,49.479L108.327,49.479z M58.592,50.755
		l-6.523,0.167L51.877,50.4l6.522-0.167L58.592,50.755L58.592,50.755z"/>
	<path fill="#F05F43" d="M109.789,48.916l-15.554,0.399l1.406-0.527l15.511-0.396L109.789,48.916L109.789,48.916z M58.399,50.234
		l-6.522,0.167l-0.179-0.485l6.522-0.167L58.399,50.234L58.399,50.234z"/>
	<path fill="#F05F43" d="M111.152,48.392l-15.511,0.396l1.405-0.524l15.469-0.397L111.152,48.392L111.152,48.392z M58.22,49.748
		l-6.522,0.167l-0.179-0.484l6.523-0.167L58.22,49.748L58.22,49.748z"/>
	<path fill="#F05F43" d="M112.515,47.866l-15.469,0.397l1.407-0.526l15.426-0.396L112.515,47.866L112.515,47.866z M58.042,49.264
		l-6.523,0.167l-0.18-0.486l6.523-0.167L58.042,49.264L58.042,49.264z"/>
	<path fill="#F06145" d="M113.879,47.342l-15.426,0.396l1.441-0.54l15.391-0.397L113.879,47.342L113.879,47.342z M57.862,48.777
		l-6.523,0.167l-0.18-0.488l6.522-0.168L57.862,48.777L57.862,48.777z"/>
	<path fill="#F16347" d="M115.286,46.8l-15.391,0.397l1.47-0.55l15.338-0.394L115.286,46.8L115.286,46.8z M57.681,48.288
		l-6.522,0.168l-0.191-0.517l6.522-0.167L57.681,48.288L57.681,48.288z"/>
	<path fill="#F16347" d="M116.704,46.254l-15.338,0.394l1.407-0.527l15.295-0.392L116.704,46.254L116.704,46.254z M57.491,47.772
		l-6.522,0.167l-0.179-0.486l6.522-0.167L57.491,47.772L57.491,47.772z"/>
	<path fill="#F16548" d="M118.068,45.729l-15.295,0.392l1.406-0.525l15.253-0.392L118.068,45.729L118.068,45.729z M57.312,47.286
		l-6.522,0.167l-0.179-0.484l6.522-0.167L57.312,47.286L57.312,47.286z"/>
	<path fill="#F16548" d="M119.432,45.203l-15.253,0.392l1.407-0.526l15.21-0.39L119.432,45.203L119.432,45.203z M57.132,46.802
		l-6.522,0.167l-0.18-0.486l6.522-0.167L57.132,46.802L57.132,46.802z"/>
	<path fill="#F16548" d="M120.796,44.679l-15.21,0.39l1.445-0.541l15.175-0.392L120.796,44.679L120.796,44.679z M56.953,46.315
		l-6.522,0.167l-0.18-0.488l6.522-0.168L56.953,46.315L56.953,46.315z"/>
	<path fill="#F1684B" d="M122.206,44.136l-15.175,0.392l1.467-0.549l15.123-0.388L122.206,44.136L122.206,44.136z M56.772,45.825
		l-6.522,0.168l-0.191-0.517l6.522-0.168L56.772,45.825L56.772,45.825z"/>
	<path fill="#F16A4D" d="M123.62,43.591l-15.123,0.388l1.407-0.526l15.08-0.387L123.62,43.591L123.62,43.591z M56.582,45.31
		l-6.522,0.168l-0.18-0.486l6.522-0.167L56.582,45.31L56.582,45.31z"/>
	<path fill="#F16A4D" d="M124.984,43.065l-15.08,0.387l1.407-0.525l15.039-0.387L124.984,43.065L124.984,43.065z M56.402,44.823
		L49.88,44.99l-0.179-0.484l6.522-0.167L56.402,44.823L56.402,44.823z"/>
	<path fill="#F16C4F" d="M126.35,42.539l-15.039,0.387l1.405-0.526l14.996-0.385L126.35,42.539L126.35,42.539z M56.223,44.339
		l-6.522,0.167l-0.179-0.485l6.522-0.167L56.223,44.339L56.223,44.339z"/>
	<path fill="#F16C4F" d="M127.712,42.015l-14.996,0.385l1.45-0.542l14.96-0.387L127.712,42.015L127.712,42.015z M56.044,43.854
		l-6.522,0.167l-0.181-0.489l6.522-0.168L56.044,43.854L56.044,43.854z"/>
	<path fill="#F26E51" d="M129.126,41.471l-14.96,0.387l1.464-0.548l14.907-0.382L129.126,41.471L129.126,41.471z M55.863,43.363
		l-6.522,0.168l-0.19-0.517l6.521-0.167L55.863,43.363L55.863,43.363z"/>
	<path fill="#F26E51" d="M130.537,40.928L115.63,41.31l1.405-0.526l14.863-0.381L130.537,40.928L130.537,40.928z M55.672,42.847
		l-6.521,0.167l-0.179-0.485l6.522-0.167L55.672,42.847L55.672,42.847z"/>
	<path fill="#F27052" d="M131.898,40.402l-14.863,0.381l1.406-0.525l14.823-0.381L131.898,40.402L131.898,40.402z M55.494,42.362
		l-6.522,0.167l-0.18-0.486l6.522-0.167L55.494,42.362L55.494,42.362z"/>
	<path fill="#F27052" d="M133.264,39.876l-14.822,0.381l1.407-0.526l14.78-0.379L133.264,39.876L133.264,39.876z M55.314,41.875
		l-6.522,0.167l-0.179-0.484l6.521-0.167L55.314,41.875L55.314,41.875z"/>
	<path fill="#F27255" d="M134.628,39.352l-14.78,0.379l1.507-0.564l14.733-0.378L134.628,39.352L134.628,39.352z M55.135,41.391
		l-6.521,0.167l-0.192-0.521l6.521-0.167L55.135,41.391L55.135,41.391z"/>
	<path fill="#F27255" d="M136.089,38.788l-14.733,0.378l1.405-0.525l14.691-0.376L136.089,38.788L136.089,38.788z M54.942,40.869
		l-6.521,0.167l-0.07-0.19l-0.103-0.294l6.516-0.167L54.942,40.869L54.942,40.869z"/>
	<path fill="#F27456" d="M137.452,38.265l-14.691,0.376l1.406-0.526l14.649-0.375L137.452,38.265L137.452,38.265z M54.764,40.385
		l-6.516,0.167l-0.169-0.486l6.505-0.167L54.764,40.385L54.764,40.385z"/>
	<path fill="#F27456" d="M138.816,37.739l-14.649,0.375l1.407-0.525l14.605-0.375L138.816,37.739L138.816,37.739z M54.584,39.899
		l-6.505,0.167l-0.17-0.486l6.496-0.167L54.584,39.899L54.584,39.899z"/>
	<path fill="#F27658" d="M140.182,37.214l-14.605,0.375l1.404-0.526l14.564-0.374L140.182,37.214L140.182,37.214z M54.405,39.412
		l-6.496,0.167l-0.169-0.485l6.485-0.167L54.405,39.412L54.405,39.412z"/>
	<path fill="#F27658" d="M141.545,36.688l-14.564,0.374l1.506-0.563l14.521-0.372L141.545,36.688L141.545,36.688z M54.226,38.928
		l-6.485,0.167l-0.181-0.521l6.474-0.166L54.226,38.928L54.226,38.928z"/>
	<path fill="#F3795A" d="M143.005,36.126l-14.519,0.372l1.406-0.525l14.477-0.371L143.005,36.126L143.005,36.126z M54.034,38.408
		l-6.474,0.166l-0.17-0.485l6.464-0.166L54.034,38.408L54.034,38.408z"/>
	<path fill="#F37A5C" d="M144.369,35.601l-14.477,0.371l1.404-0.526l14.436-0.37L144.369,35.601L144.369,35.601z M53.854,37.923
		l-6.464,0.166l-0.169-0.486l6.455-0.166L53.854,37.923L53.854,37.923z"/>
	<path fill="#F37A5C" d="M145.732,35.075l-14.436,0.37l1.405-0.526l14.394-0.368L145.732,35.075L145.732,35.075z M53.675,37.437
		l-6.455,0.166l-0.169-0.485l6.445-0.167L53.675,37.437L53.675,37.437z"/>
	<path fill="#F37A5C" d="M147.096,34.551l-14.392,0.368l1.407-0.525l14.349-0.368L147.096,34.551L147.096,34.551z M53.496,36.95
		l-6.444,0.166l-0.169-0.485l6.435-0.165L53.496,36.95L53.496,36.95z"/>
	<path fill="#F37C5E" d="M148.46,34.025l-14.349,0.368l1.507-0.564l14.304-0.367L148.46,34.025L148.46,34.025z M53.317,36.466
		l-6.435,0.165l-0.181-0.521l6.423-0.165L53.317,36.466L53.317,36.466z"/>
	<path fill="#F37C5E" d="M149.922,33.463l-14.304,0.366l1.405-0.525l14.262-0.366L149.922,33.463L149.922,33.463z M53.125,35.945
		l-6.423,0.165l-0.169-0.486l6.413-0.165L53.125,35.945L53.125,35.945z"/>
	<path fill="#F37E60" d="M151.285,32.938l-14.262,0.366l1.406-0.526l14.219-0.364L151.285,32.938L151.285,32.938z M52.945,35.459
		l-6.413,0.165l-0.169-0.485l6.403-0.164L52.945,35.459L52.945,35.459z"/>
	<path fill="#F38062" d="M152.648,32.412l-14.219,0.364l1.405-0.526l14.177-0.362L152.648,32.412L152.648,32.412z M52.766,34.974
		l-6.403,0.164l-0.169-0.485l6.393-0.164L52.766,34.974L52.766,34.974z"/>
	<path fill="#F38062" d="M154.014,31.888l-14.177,0.362l1.465-0.548l14.14-0.366L154.014,31.888L154.014,31.888z M52.587,34.488
		l-6.393,0.164l-0.17-0.488l6.382-0.165L52.587,34.488L52.587,34.488z"/>
	<path fill="#F38062" d="M155.439,31.338l-14.14,0.365l1.448-0.542l14.088-0.36L155.439,31.338L155.439,31.338z M52.406,33.999
		l-6.382,0.165l-0.18-0.519l6.372-0.163L52.406,33.999L52.406,33.999z"/>
	<path fill="#F38163" d="M156.838,30.8l-14.088,0.36l1.404-0.524l14.047-0.36L156.838,30.8L156.838,30.8z M52.215,33.482
		l-6.372,0.163l-0.169-0.485l6.362-0.163L52.215,33.482L52.215,33.482z"/>
	<path fill="#F48366" d="M158.201,30.274l-14.047,0.36l1.408-0.526l14.002-0.359L158.201,30.274L158.201,30.274z M52.036,32.997
		l-6.362,0.163l-0.169-0.485l6.352-0.163L52.036,32.997L52.036,32.997z"/>
	<path fill="#F48366" d="M159.564,29.749l-14.002,0.359l1.404-0.527l13.963-0.357L159.564,29.749L159.564,29.749z M51.857,32.512
		l-6.352,0.163l-0.169-0.485l6.342-0.163L51.857,32.512L51.857,32.512z"/>
	<path fill="#F48467" d="M160.93,29.224l-13.961,0.357l1.469-0.549l13.924-0.359L160.93,29.224L160.93,29.224z M51.678,32.025
		l-6.342,0.163l-0.169-0.487l6.332-0.164L51.678,32.025L51.678,32.025z"/>
	<path fill="#F48467" d="M162.359,28.673l-13.922,0.359l1.441-0.54l13.872-0.355L162.359,28.673L162.359,28.673z M51.498,31.537
		l-6.332,0.164l-0.181-0.52l6.321-0.162L51.498,31.537L51.498,31.537z"/>
	<path fill="#F48669" d="M163.753,28.137l-13.872,0.355l1.407-0.526l13.83-0.354L163.753,28.137L163.753,28.137z M51.307,31.02
		l-6.321,0.162l-0.169-0.485l6.311-0.162L51.307,31.02L51.307,31.02z"/>
	<path fill="#F48669" d="M165.118,27.611l-13.83,0.354l1.405-0.526l13.787-0.354L165.118,27.611L165.118,27.611z M51.127,30.534
		l-6.311,0.162l-0.169-0.487l6.301-0.16L51.127,30.534L51.127,30.534z"/>
	<path fill="#F4896C" d="M166.48,27.085l-13.787,0.354l1.406-0.526l13.742-0.353L166.48,27.085L166.48,27.085z M50.948,30.049
		l-6.301,0.16l-0.169-0.484l6.291-0.161L50.948,30.049L50.948,30.049z"/>
	<path fill="#F4896C" d="M167.844,26.562L154.1,26.913l1.508-0.563l13.699-0.353L167.844,26.562L167.844,26.562z M50.769,29.563
		l-6.291,0.161l-0.181-0.521l6.28-0.161L50.769,29.563L50.769,29.563z"/>
	<path fill="#F48A6D" d="M169.307,25.998l-13.699,0.353l1.406-0.526l13.655-0.35L169.307,25.998L169.307,25.998z M50.577,29.043
		l-6.28,0.161l-0.04-0.114l-0.121-0.372l6.262-0.161L50.577,29.043L50.577,29.043z"/>
	<path fill="#F48A6D" d="M170.67,25.474l-13.656,0.35l1.406-0.525l13.614-0.35L170.67,25.474L170.67,25.474z M50.397,28.557
		l-6.262,0.161l-0.159-0.486l6.244-0.16l0.088,0.248L50.397,28.557L50.397,28.557z"/>
	<path fill="#F58C6F" d="M172.034,24.948l-13.614,0.35l1.405-0.526l13.571-0.348L172.034,24.948L172.034,24.948z M50.221,28.072
		l-6.244,0.16l-0.158-0.486l6.229-0.16L50.221,28.072L50.221,28.072z"/>
	<path fill="#F58C6F" d="M173.396,24.424l-13.571,0.348l1.405-0.526l13.528-0.347L173.396,24.424L173.396,24.424z M50.047,27.586
		l-6.229,0.16l-0.159-0.485l6.213-0.159L50.047,27.586L50.047,27.586z"/>
	<path fill="#F58E71" d="M174.762,23.898l-13.529,0.347l1.509-0.563l13.481-0.347L174.762,23.898L174.762,23.898z M49.873,27.101
		L43.66,27.26l-0.169-0.521l6.196-0.159L49.873,27.101L49.873,27.101z"/>
	<path fill="#F58E71" d="M176.223,23.334l-13.482,0.347l1.404-0.525l13.439-0.345L176.223,23.334L176.223,23.334z M49.687,26.58
		l-6.196,0.159l-0.159-0.486l6.181-0.158L49.687,26.58L49.687,26.58z"/>
	<path fill="#F59073" d="M177.585,22.811l-13.44,0.345l1.406-0.525l13.398-0.345L177.585,22.811L177.585,22.811z M49.513,26.095
		l-6.181,0.158l-0.159-0.485l6.166-0.158L49.513,26.095L49.513,26.095z"/>
	<path fill="#F59073" d="M178.949,22.284l-13.398,0.344l1.406-0.526l13.355-0.342L178.949,22.284L178.949,22.284z M49.339,25.608
		l-6.166,0.158l-0.158-0.486l6.15-0.158L49.339,25.608L49.339,25.608z"/>
	<path fill="#F59175" d="M180.313,21.76l-13.354,0.342l1.406-0.526l13.313-0.341L180.313,21.76L180.313,21.76z M49.166,25.122
		l-6.15,0.158l-0.159-0.487l6.135-0.156L49.166,25.122L49.166,25.122z"/>
	<path fill="#F59175" d="M181.677,21.234l-13.313,0.341l5.904-2.209l13.145-0.339L181.677,21.234L181.677,21.234z M48.991,24.638
		l-6.135,0.156L42.2,22.779l6.071-0.157L48.991,24.638L48.991,24.638z"/>
	<path fill="#F59175" d="M181.677,21.234l-13.313,0.341l1.508-0.563l13.27-0.34L181.677,21.234L181.677,21.234z M48.991,24.638
		l-6.135,0.156l-0.169-0.521l6.119-0.157L48.991,24.638L48.991,24.638z"/>
	<path fill="#F59477" d="M183.139,20.673l-13.27,0.34l1.406-0.526l13.227-0.339L183.139,20.673L183.139,20.673z M48.806,24.116
		l-6.119,0.157l-0.159-0.486l6.103-0.156L48.806,24.116L48.806,24.116z"/>
	<path fill="#F6977B" d="M184.502,20.146l-13.227,0.339l1.406-0.526l13.184-0.338L184.502,20.146L184.502,20.146z M48.631,23.632
		l-6.103,0.156l-0.159-0.486l6.088-0.156L48.631,23.632L48.631,23.632z"/>
	<path fill="#F69A7E" d="M185.865,19.621l-13.184,0.338l1.406-0.525l13.143-0.337L185.865,19.621L185.865,19.621z M48.458,23.146
		l-6.088,0.156l-0.158-0.486l6.072-0.156L48.458,23.146L48.458,23.146z"/>
	<path fill="#F69B7F" d="M187.23,19.097l-13.143,0.337l1.482-0.557l13.104-0.338L187.23,19.097L187.23,19.097z M48.284,22.659
		l-6.072,0.156l-0.159-0.487l6.057-0.155L48.284,22.659L48.284,22.659z"/>
	<path fill="#F79F83" d="M188.676,18.539l-13.103,0.338l1.428-0.533l13.054-0.334L188.676,18.539L188.676,18.539z M48.109,22.173
		l-6.057,0.155l-0.17-0.52l6.041-0.155L48.109,22.173L48.109,22.173z"/>
	<path fill="#F7A185" d="M190.055,18.01l-13.054,0.334l1.407-0.526l13.011-0.333L190.055,18.01L190.055,18.01z M47.924,21.653
		l-6.041,0.155l-0.158-0.486l6.025-0.155L47.924,21.653L47.924,21.653z"/>
	<path fill="#F7A58A" d="M191.419,17.483l-13.011,0.333l1.406-0.526l12.967-0.333L191.419,17.483L191.419,17.483z M47.75,21.167
		l-6.025,0.155l-0.158-0.486l6.01-0.153L47.75,21.167L47.75,21.167z"/>
	<path fill="#F7A78C" d="M192.781,16.958l-12.967,0.333l1.403-0.525l12.927-0.332L192.781,16.958L192.781,16.958z M47.576,20.683
		l-6.01,0.153l-0.159-0.486l5.994-0.154L47.576,20.683L47.576,20.683z"/>
	<path fill="#F8A98E" d="M194.145,16.434l-12.924,0.332l1.488-0.558l12.889-0.333L194.145,16.434L194.145,16.434z M47.402,20.196
		l-5.994,0.154l-0.159-0.487l5.979-0.154L47.402,20.196L47.402,20.196z"/>
	<path fill="#F8AD93" d="M195.598,15.874l-12.889,0.333l1.424-0.532l12.838-0.329L195.598,15.874L195.598,15.874z M47.228,19.708
		l-5.979,0.154l-0.17-0.52l5.963-0.153L47.228,19.708L47.228,19.708z"/>
	<path fill="#F8AF95" d="M196.971,15.346l-12.838,0.329l1.406-0.525l12.794-0.328L196.971,15.346L196.971,15.346z M47.042,19.19
		l-5.963,0.153l-0.158-0.486l5.947-0.152L47.042,19.19L47.042,19.19z"/>
	<path fill="#F8B197" d="M198.333,14.821l-12.794,0.328l1.406-0.527l12.752-0.327L198.333,14.821L198.333,14.821z M46.868,18.704
		l-5.947,0.152l-0.159-0.486l5.932-0.151L46.868,18.704L46.868,18.704z"/>
	<path fill="#F9B59C" d="M199.698,14.295l-12.753,0.327l1.406-0.525l12.709-0.326L199.698,14.295L199.698,14.295z M46.694,18.22
		l-5.932,0.151l-0.159-0.486l5.917-0.151L46.694,18.22L46.694,18.22z"/>
	<path fill="#F9B79F" d="M201.063,13.771l-12.711,0.326l1.508-0.564l12.664-0.325L201.063,13.771L201.063,13.771z M46.52,17.733
		l-5.917,0.151l-0.169-0.521l5.9-0.151L46.52,17.733L46.52,17.733z"/>
	<path fill="#F9BBA4" d="M202.523,13.207l-12.664,0.325l1.404-0.525l12.621-0.324L202.523,13.207L202.523,13.207z M46.334,17.213
		l-5.9,0.15l-0.158-0.486l5.884-0.15L46.334,17.213L46.334,17.213z"/>
	<path fill="#FABDA7" d="M203.887,12.683l-12.621,0.324l1.405-0.526l12.579-0.323L203.887,12.683L203.887,12.683z M46.16,16.728
		l-5.884,0.15l-0.159-0.485l5.869-0.151L46.16,16.728L46.16,16.728z"/>
	<path fill="#FABFA9" d="M205.25,12.157l-12.579,0.323l1.407-0.527l12.537-0.321L205.25,12.157L205.25,12.157z M45.986,16.241
		l-5.869,0.151l-0.158-0.486l5.857-0.149l0.085,0.248L45.986,16.241L45.986,16.241z"/>
	<path fill="#FAC3AE" d="M206.615,11.632l-12.537,0.321l1.404-0.525l12.494-0.32L206.615,11.632L206.615,11.632z M45.816,15.756
		l-5.857,0.149L39.8,15.42l5.848-0.149L45.816,15.756L45.816,15.756z"/>
	<path fill="#FAC5B1" d="M207.979,11.107l-12.494,0.32l1.507-0.563l12.448-0.319L207.979,11.107L207.979,11.107z M45.648,15.271
		L39.8,15.42l-0.17-0.521l5.839-0.15L45.648,15.271L45.648,15.271z"/>
	<path fill="#FAC7B3" d="M209.438,10.544l-12.449,0.319l1.408-0.527l12.406-0.317L209.438,10.544L209.438,10.544z M45.469,14.749
		l-5.839,0.15l-0.158-0.486l5.83-0.148L45.469,14.749L45.469,14.749z"/>
	<path fill="#FBCCB9" d="M210.805,10.02l-12.406,0.318l1.404-0.526l12.363-0.317L210.805,10.02L210.805,10.02z M45.302,14.264
		l-5.83,0.148l-0.159-0.485l5.821-0.149L45.302,14.264L45.302,14.264z"/>
	<path fill="#FBCDBB" d="M212.166,9.493l-12.363,0.317l1.405-0.526l11.993-0.308l0.051,0.099L212.166,9.493L212.166,9.493z
		 M45.135,13.777l-5.821,0.149l-0.159-0.486l5.813-0.149L45.135,13.777L45.135,13.777z"/>
	<path fill="#FBD2C0" d="M213.201,8.978l-11.993,0.308l1.407-0.526l10.337-0.266L213.201,8.978L213.201,8.978z M44.967,13.291
		l-5.813,0.149l-0.158-0.486l5.804-0.148L44.967,13.291L44.967,13.291z"/>
	<path fill="#FCD4C3" d="M212.952,8.493l-10.337,0.266l1.507-0.563l8.563-0.22L212.952,8.493L212.952,8.493z M44.8,12.806
		l-5.804,0.148l-0.17-0.521l5.794-0.148L44.8,12.806L44.8,12.806z"/>
	<path fill="#FCD6C5" d="M212.686,7.976l-8.563,0.22l1.406-0.527l6.908-0.177L212.686,7.976L212.686,7.976z M44.621,12.284
		l-5.794,0.148l-0.159-0.485l5.786-0.148L44.621,12.284L44.621,12.284z"/>
	<path fill="#FCDACB" d="M212.438,7.491l-6.908,0.177l1.406-0.525l5.252-0.135L212.438,7.491L212.438,7.491z M44.454,11.8
		l-5.786,0.148l-0.158-0.485l5.777-0.148L44.454,11.8L44.454,11.8z"/>
	<path fill="#FCDCCE" d="M212.188,7.008l-5.252,0.135l1.404-0.526l3.6-0.092L212.188,7.008L212.188,7.008z M44.287,11.313
		l-5.777,0.147l-0.159-0.485l5.768-0.148L44.287,11.313L44.287,11.313z"/>
	<path fill="#FCDED1" d="M211.938,6.524l-3.599,0.092l1.507-0.563l1.825-0.047L211.938,6.524L211.938,6.524z M44.119,10.827
		l-5.768,0.148l-0.158-0.486l5.758-0.148L44.119,10.827L44.119,10.827z"/>
	<path fill="#FCE0D3" d="M211.672,6.007l-1.826,0.047l1.407-0.527l0.17-0.004L211.672,6.007L211.672,6.007z M43.951,10.341
		l-5.758,0.148l-0.169-0.52l5.75-0.147L43.951,10.341L43.951,10.341z"/>
	<path fill="#FDE4D8" d="M211.423,5.521l-0.17,0.004l0.146-0.054L211.423,5.521L211.423,5.521z M43.773,9.821l-5.75,0.147
		l-0.159-0.487l5.741-0.147L43.773,9.821L43.773,9.821z"/>
	<polygon fill="#FDE4D8" points="43.605,9.335 37.865,9.482 37.504,8.376 42.962,7.467 	"/>
	<polygon fill="#FDE4D8" points="43.605,9.335 37.865,9.482 37.706,8.996 43.438,8.85 	"/>
	<polygon fill="#FDEDE5" points="43.438,8.85 37.706,8.996 37.548,8.511 43.271,8.363 	"/>
	<polygon fill="#FFF3ED" points="43.271,8.363 37.548,8.511 37.504,8.376 40.029,7.955 43.104,7.876 	"/>
	<polygon fill="#FFFFFF" points="43.104,7.876 40.029,7.955 42.962,7.467 	"/>
	<polygon fill="#231F20" points="43.487,76.64 52.269,76.64 54.474,89.2 59.757,76.64 68.259,76.604 58.427,99.731 48.036,99.731 	
		"/>
	<path fill="#231F20" d="M92.751,90.319l-16.864,0.035c0.07,1.4,0.385,2.484,0.945,3.146c0.77,1.018,1.819,1.508,3.114,1.508
		c0.805,0,1.609-0.211,2.379-0.666c0.49-0.244,0.979-0.734,1.54-1.436l8.572-0.068c-1.365,2.344-3.289,4.861-5.144,5.844
		c-1.819,1.014-4.444,1.539-7.768,1.539c-2.904,0-5.178-0.42-6.823-1.295c-1.609-0.842-2.939-2.24-3.954-4.096
		c-1.015-1.889-1.435-4.094-1.33-6.646c0.175-3.604,1.399-6.508,3.708-8.746c2.31-2.24,5.389-3.359,9.272-3.359
		c3.149,0,5.598,0.49,7.348,1.469c1.784,1.018,3.114,2.449,3.988,4.34c0.84,1.924,1.19,4.373,1.05,7.418L92.751,90.319
		L92.751,90.319z M84.389,86.087c-0.07-1.715-0.455-2.938-1.12-3.676c-0.7-0.734-1.609-1.119-2.764-1.119
		c-1.329,0.035-2.449,0.596-3.289,1.715c-0.56,0.699-0.91,1.715-1.12,3.113L84.389,86.087L84.389,86.087z"/>
	<path fill="#231F20" d="M97.649,76.569h8.223l-0.385,3.779c0.945-1.646,1.89-2.768,2.799-3.396c0.91-0.596,1.994-0.91,3.254-0.91
		c1.295-0.033,0.49-0.805,1.959,0l-1.12,8.715c-0.98-0.455-1.785-0.666-2.379-0.666c-1.155,0-2.099,0.488-2.834,1.436
		c-1.05,1.363-1.959,2.693-2.379,6.402l-0.839,7.73h-8.853L97.649,76.569L97.649,76.569z"/>
	<polygon fill="#231F20" points="116.124,76.534 125.326,76.534 122.142,99.626 112.939,99.661 	"/>
	<polygon fill="#231F20" points="117.348,67.157 126.516,67.122 125.711,73.14 116.508,73.175 	"/>
	<path fill="#231F20" d="M147.895,88.116c0.351-3.535,1.89-6.439,4.547-8.713c2.66-2.275,6.056-3.43,10.185-3.43
		c4.758-0.035,8.188,1.33,10.319,3.988c1.716,2.17,2.414,4.828,2.064,7.979c-0.351,3.568-1.854,6.473-4.514,8.746
		c-2.624,2.275-6.088,3.43-10.322,3.43c-3.813,0-6.787-0.945-8.922-2.834C148.628,94.974,147.509,91.894,147.895,88.116
		L147.895,88.116z M157.234,88.081c-0.104,2.064,0.246,3.604,0.979,4.582c0.734,0.98,1.717,1.471,2.904,1.471
		c1.225,0,2.238-0.49,3.078-1.471c0.806-0.979,1.295-2.518,1.363-4.688c0.104-1.994-0.209-3.465-0.942-4.443
		c-0.735-0.98-1.716-1.471-2.869-1.471c-1.226,0-2.239,0.49-3.114,1.471C157.795,84.546,157.34,86.052,157.234,88.081
		L157.234,88.081z"/>
	<path fill="#231F20" d="M178.123,76.604h7.838l-0.35,3.744c1.328-1.541,2.623-2.625,3.884-3.289
		c1.259-0.666,2.764-0.98,4.479-1.018c2.309,0,4.059,0.734,5.248,2.205c1.188,1.436,1.607,3.709,1.327,6.752l-1.435,14.66
		l-8.469,0.035l1.227-12.701c0.141-1.469,0-2.482-0.455-3.078c-0.454-0.631-1.119-0.908-2.063-0.908c-1.017,0-1.892,0.42-2.59,1.225
		c-0.733,0.805-1.188,2.273-1.398,4.373l-1.051,11.092h-8.434L178.123,76.604L178.123,76.604z"/>
	<polygon fill="#ED2526" points="128.539,76.532 127.545,76.935 127.6,76.534 	"/>
	<polygon fill="#ED2526" points="127.545,76.935 128.539,76.532 129.645,76.53 127.479,77.405 	"/>
	<polygon fill="#ED2526" points="127.479,77.405 129.645,76.53 130.838,76.528 127.41,77.917 	"/>
	<polygon fill="#ED2526" points="127.41,77.917 130.838,76.528 131.982,76.526 127.343,78.405 	"/>
	<polygon fill="#ED2926" points="127.343,78.405 131.982,76.526 133.148,76.524 127.273,78.903 	"/>
	<polygon fill="#ED2926" points="127.273,78.903 133.148,76.524 134.309,76.522 127.207,79.396 	"/>
	<polygon fill="#ED2D28" points="127.207,79.396 134.309,76.522 135.404,76.521 127.143,79.862 	"/>
	<polygon fill="#ED2D28" points="127.143,79.862 135.404,76.521 136.592,76.519 127.072,80.374 	"/>
	<polygon fill="#ED2D28" points="127.072,80.374 136.592,76.519 137.74,76.517 127.006,80.86 	"/>
	<polygon fill="#ED3029" points="127.006,80.86 137.74,76.517 138.902,76.515 126.938,81.36 	"/>
	<polygon fill="#ED3029" points="126.938,81.36 138.902,76.515 140.066,76.513 126.869,81.851 	"/>
	<polygon fill="#ED3029" points="126.869,81.851 140.066,76.513 141.164,76.513 126.807,82.319 	"/>
	<polygon fill="#ED342A" points="126.807,82.319 141.164,76.513 142.346,76.511 126.734,82.831 	"/>
	<polygon fill="#ED342A" points="126.734,82.831 142.346,76.511 143.497,76.509 127.702,82.899 126.725,82.901 	"/>
	<polygon fill="#EE372B" points="127.702,82.899 143.497,76.509 144.656,76.507 128.878,82.896 	"/>
	<polygon fill="#EE372B" points="128.878,82.896 144.656,76.507 145.827,76.505 130.033,82.892 	"/>
	<polygon fill="#EE372B" points="130.033,82.892 145.827,76.505 146.941,76.503 131.16,82.888 	"/>
	<polygon fill="#EE372B" points="131.16,82.888 146.941,76.503 148.1,76.501 132.333,82.884 	"/>
	<polygon fill="#EE3B2D" points="132.333,82.884 148.1,76.501 149.083,76.499 149.079,76.577 133.493,82.88 	"/>
	<polygon fill="#EE3B2D" points="133.493,82.88 149.079,76.577 149.059,77.044 134.654,82.876 	"/>
	<polygon fill="#EE3E2E" points="134.654,82.876 149.059,77.044 149.037,77.526 135.816,82.872 	"/>
	<polygon fill="#EE3E2E" points="135.816,82.872 149.037,77.526 149.018,77.983 136.939,82.868 	"/>
	<polygon fill="#EE3E2E" points="136.939,82.868 149.018,77.983 148.995,78.458 137.287,83.198 137.502,82.866 	"/>
	<polygon fill="#EE402F" points="137.287,83.198 148.995,78.458 148.975,78.938 136.877,83.831 	"/>
	<polygon fill="#EE402F" points="136.877,83.831 148.975,78.938 148.952,79.407 136.469,84.462 	"/>
	<polygon fill="#EE4431" points="136.469,84.462 148.952,79.407 148.932,79.888 136.061,85.095 	"/>
	<polygon fill="#EE4431" points="136.061,85.095 148.932,79.888 148.91,80.347 135.664,85.706 	"/>
	<polygon fill="#EE4431" points="135.664,85.706 148.91,80.347 148.889,80.821 135.251,86.343 	"/>
	<polygon fill="#EE4632" points="135.251,86.343 148.889,80.821 148.867,81.302 134.843,86.974 	"/>
	<polygon fill="#EE4632" points="134.843,86.974 148.867,81.302 148.848,81.771 134.434,87.606 	"/>
	<polygon fill="#EE4632" points="134.434,87.606 148.848,81.771 148.838,81.958 148.577,82.351 134.025,88.237 	"/>
	<polygon fill="#EF4934" points="134.025,88.237 148.577,82.351 148.165,82.974 133.625,88.854 	"/>
	<polygon fill="#EF4934" points="133.625,88.854 148.165,82.974 147.749,83.603 133.215,89.487 	"/>
	<polygon fill="#EF4934" points="133.215,89.487 147.749,83.603 147.323,84.247 132.809,90.116 	"/>
	<polygon fill="#EF4B35" points="132.809,90.116 147.323,84.247 146.898,84.886 132.389,90.765 	"/>
	<polygon fill="#EF4B35" points="132.389,90.765 146.898,84.886 146.48,85.519 131.99,91.38 	"/>
	<polygon fill="#EF4E37" points="131.99,91.38 146.48,85.519 146.068,86.142 131.591,91.997 	"/>
	<polygon fill="#EF4E37" points="131.591,91.997 146.068,86.142 145.652,86.772 131.18,92.632 	"/>
	<polygon fill="#EF4E37" points="131.18,92.632 145.652,86.772 145.229,87.413 130.773,93.259 	"/>
	<polygon fill="#EF5038" points="130.773,93.259 145.229,87.413 144.802,88.058 130.352,93.911 	"/>
	<polygon fill="#EF5038" points="130.352,93.911 144.802,88.058 144.385,88.687 129.956,94.522 	"/>
	<polygon fill="#EF5038" points="129.956,94.522 144.385,88.687 143.975,89.308 129.557,95.14 	"/>
	<polygon fill="#EF533A" points="129.557,95.14 143.975,89.308 143.555,89.94 129.145,95.776 	"/>
	<polygon fill="#EF533A" points="129.145,95.776 143.555,89.94 143.132,90.581 128.738,96.401 	"/>
	<polygon fill="#EF533A" points="128.738,96.401 143.132,90.581 142.704,91.228 128.314,97.056 	"/>
	<polygon fill="#F0563C" points="128.314,97.056 142.704,91.228 142.289,91.854 127.921,97.665 	"/>
	<polygon fill="#F0563C" points="127.921,97.665 142.289,91.854 141.878,92.476 127.521,98.282 	"/>
	<polygon fill="#F0563C" points="127.521,98.282 141.878,92.476 141.438,93.14 127.093,98.944 	"/>
	<polygon fill="#F0583E" points="127.093,98.944 141.438,93.14 141.035,93.749 126.703,99.544 	"/>
	<polygon fill="#F0583E" points="126.703,99.544 141.035,93.749 140.604,94.403 126.277,100.202 	"/>
	<polygon fill="#F05B40" points="126.277,100.202 140.604,94.403 140.193,95.021 125.887,100.808 	"/>
	<polygon fill="#F05B40" points="125.887,100.808 140.193,95.021 139.76,95.677 125.459,101.466 	"/>
	<polygon fill="#F05B40" points="125.459,101.466 139.76,95.677 139.343,96.308 125.058,102.087 	"/>
	<polygon fill="#F05C41" points="125.058,102.087 139.343,96.308 138.939,96.915 124.669,102.687 	"/>
	<polygon fill="#F05C41" points="124.669,102.687 138.939,96.915 138.505,97.573 124.241,103.349 	"/>
	<polygon fill="#F05F43" points="124.241,103.349 138.505,97.573 138.098,98.188 124.121,103.841 124.136,103.511 	"/>
	<polygon fill="#F05F43" points="124.121,103.841 138.098,98.188 137.662,98.847 124.097,104.339 	"/>
	<polygon fill="#F05F43" points="124.097,104.339 137.662,98.847 137.245,99.476 124.076,104.804 	"/>
	<polygon fill="#F05F43" points="124.076,104.804 137.245,99.476 136.844,100.083 124.055,105.255 	"/>
	<polygon fill="#F06145" points="124.055,105.255 136.844,100.083 136.408,100.741 124.032,105.753 	"/>
	<polygon fill="#F06145" points="124.032,105.753 136.408,100.741 135.991,101.37 124.01,106.218 	"/>
	<polygon fill="#F16347" points="124.01,106.218 135.991,101.37 135.564,102.015 123.987,106.702 	"/>
	<polygon fill="#F16347" points="123.987,106.702 135.564,102.015 135.146,102.647 123.966,107.169 	"/>
	<polygon fill="#F16347" points="123.966,107.169 135.146,102.647 134.809,103.161 134.973,103.159 123.945,107.62 	"/>
	<polygon fill="#F16548" points="123.945,107.62 134.973,103.159 136.169,103.159 123.921,108.118 	"/>
	<polygon fill="#F16548" points="123.921,108.118 136.169,103.159 137.311,103.157 123.9,108.583 	"/>
	<polygon fill="#F16548" points="123.9,108.583 137.311,103.157 138.479,103.155 123.877,109.067 	"/>
	<polygon fill="#F1684B" points="123.877,109.067 138.479,103.155 139.632,103.153 123.87,109.528 123.856,109.528 	"/>
	<polygon fill="#F1684B" points="123.87,109.528 139.632,103.153 140.727,103.153 124.964,109.526 	"/>
	<polygon fill="#F16A4D" points="124.964,109.526 140.727,103.153 141.919,103.151 126.174,109.526 	"/>
	<polygon fill="#F16A4D" points="126.174,109.526 141.919,103.151 143.063,103.149 127.309,109.524 	"/>
	<polygon fill="#F16A4D" points="127.309,109.524 143.063,103.149 144.229,103.147 128.482,109.522 	"/>
	<polygon fill="#F16A4D" points="128.482,109.522 144.229,103.147 145.387,103.146 129.621,109.522 	"/>
	<polygon fill="#F16C4F" points="129.621,109.522 145.387,103.146 146.505,103.146 130.747,109.521 	"/>
	<polygon fill="#F16C4F" points="130.747,109.521 146.505,103.146 147.668,103.144 131.92,109.519 	"/>
	<polygon fill="#F26E51" points="131.92,109.519 147.668,103.144 148.829,103.142 133.063,109.519 	"/>
	<polygon fill="#F26E51" points="133.063,109.519 148.829,103.142 149.979,103.14 134.229,109.517 	"/>
	<polygon fill="#F26E51" points="134.229,109.517 149.979,103.14 151.143,103.14 135.374,109.515 	"/>
	<polygon fill="#F27052" points="135.374,109.515 151.143,103.14 152.257,103.138 136.497,109.515 	"/>
	<polygon fill="#F27052" points="136.497,109.515 152.257,103.138 153.417,103.136 137.667,109.513 	"/>
	<polygon fill="#F27255" points="137.667,109.513 153.417,103.136 154.584,103.134 138.814,109.511 	"/>
	<polygon fill="#F27255" points="138.814,109.511 154.584,103.134 155.727,103.132 139.977,109.511 	"/>
	<polygon fill="#F27255" points="139.977,109.511 155.727,103.132 156.896,103.132 141.126,109.509 	"/>
	<polygon fill="#F27255" points="141.126,109.509 156.896,103.132 158.01,103.13 142.246,109.507 	"/>
	<polygon fill="#F27456" points="142.246,109.507 158.01,103.13 159.166,103.128 143.413,109.507 	"/>
	<polygon fill="#F27456" points="143.413,109.507 159.166,103.128 160.34,103.126 144.566,109.505 	"/>
	<polygon fill="#F27658" points="144.566,109.505 160.34,103.126 161.493,103.126 145.746,109.503 	"/>
	<polygon fill="#F27658" points="145.746,109.503 161.493,103.126 162.65,103.124 146.878,109.503 	"/>
	<polygon fill="#F27658" points="146.878,109.503 162.65,103.124 183.445,103.097 167.662,109.479 	"/>
	<polygon fill="#F27658" points="146.878,109.503 162.65,103.124 163.782,103.122 148.008,109.501 	"/>
	<polygon fill="#F3795A" points="148.008,109.501 163.782,103.122 164.915,103.12 149.159,109.499 	"/>
	<polygon fill="#F37A5C" points="149.159,109.499 164.915,103.12 166.096,103.118 150.318,109.499 	"/>
	<polygon fill="#F37A5C" points="150.318,109.499 166.096,103.118 167.238,103.118 151.49,109.497 	"/>
	<polygon fill="#F37C5E" points="151.49,109.497 167.238,103.118 168.406,103.116 152.63,109.495 	"/>
	<polygon fill="#F37E60" points="152.63,109.495 168.406,103.116 169.537,103.114 153.76,109.495 	"/>
	<polygon fill="#F38062" points="153.76,109.495 169.537,103.114 170.664,103.112 154.904,109.493 	"/>
	<polygon fill="#F38163" points="154.904,109.493 170.664,103.112 171.85,103.112 156.07,109.491 	"/>
	<polygon fill="#F48366" points="156.07,109.491 171.85,103.112 172.986,103.11 157.234,109.491 	"/>
	<polygon fill="#F48366" points="157.234,109.491 172.986,103.11 174.162,103.108 158.383,109.489 	"/>
	<polygon fill="#F48467" points="158.383,109.489 174.162,103.108 175.292,103.106 159.514,109.487 	"/>
	<polygon fill="#F48669" points="159.514,109.487 175.292,103.106 176.484,103.104 160.712,109.487 	"/>
	<polygon fill="#F4896C" points="160.712,109.487 176.484,103.104 177.604,103.104 161.823,109.485 	"/>
	<polygon fill="#F48A6D" points="161.823,109.485 177.604,103.104 178.759,103.103 162.996,109.483 	"/>
	<polygon fill="#F48A6D" points="162.996,109.483 178.759,103.103 179.917,103.101 164.135,109.483 	"/>
	<polygon fill="#F58C6F" points="164.135,109.483 179.917,103.101 181.068,103.099 165.305,109.481 	"/>
	<polygon fill="#F58E71" points="165.305,109.481 181.068,103.099 182.236,103.099 166.462,109.481 	"/>
	<polygon fill="#F59073" points="166.462,109.481 182.236,103.099 183.359,103.097 167.575,109.479 	"/>
	<polygon fill="#F59175" points="167.575,109.479 183.359,103.097 184.508,103.095 168.742,109.478 	"/>
	<polygon fill="#F59477" points="168.742,109.478 184.508,103.095 185.672,103.093 169.887,109.478 	"/>
	<polygon fill="#F59477" points="169.887,109.478 185.672,103.093 186.816,103.091 171.051,109.476 	"/>
	<polygon fill="#F59579" points="171.051,109.476 186.816,103.091 187.887,103.091 187.875,103.138 172.212,109.474 	"/>
	<polygon fill="#F6977B" points="172.212,109.474 187.875,103.138 187.759,103.636 173.328,109.474 	"/>
	<polygon fill="#F6977B" points="173.328,109.474 187.759,103.636 186.416,109.458 	"/>
	<polygon fill="#F6977B" points="173.328,109.474 187.759,103.636 187.643,104.146 174.488,109.472 	"/>
	<polygon fill="#F69B7F" points="174.488,109.472 187.643,104.146 187.521,104.665 175.639,109.47 	"/>
	<polygon fill="#F79F83" points="175.639,109.47 187.521,104.665 187.404,105.175 176.797,109.47 	"/>
	<polygon fill="#F7A58A" points="176.797,109.47 187.404,105.175 187.281,105.708 177.984,109.468 	"/>
	<polygon fill="#F8A98E" points="177.984,109.468 187.281,105.708 187.169,106.194 179.08,109.466 	"/>
	<polygon fill="#F8AD93" points="179.08,109.466 187.169,106.194 187.051,106.706 180.234,109.466 	"/>
	<polygon fill="#F8B197" points="180.234,109.466 187.051,106.706 186.932,107.226 181.4,109.464 	"/>
	<polygon fill="#F9B59C" points="181.4,109.464 186.932,107.226 186.813,107.733 182.544,109.462 	"/>
	<polygon fill="#F9BBA4" points="182.544,109.462 186.813,107.733 186.689,108.267 183.736,109.462 	"/>
	<polygon fill="#FABFA9" points="183.736,109.462 186.689,108.267 186.578,108.753 184.832,109.46 	"/>
	<polygon fill="#FAC3AE" points="184.832,109.46 186.578,108.753 186.46,109.265 185.98,109.458 	"/>
	<polygon fill="#FAC7B3" points="185.98,109.458 186.46,109.265 186.416,109.458 	"/>
</g>
</svg>
