<?xml version="1.0" encoding="utf-8"?>
<!-- Generator: Adobe Illustrator 16.0.0, SVG Export Plug-In . SVG Version: 6.00 Build 0)  -->
<!DOCTYPE svg PUBLIC "-//W3C//DTD SVG 1.1//EN" "http://www.w3.org/Graphics/SVG/1.1/DTD/svg11.dtd">
<svg version="1.1" id="Layer_1" xmlns="http://www.w3.org/2000/svg" xmlns:xlink="http://www.w3.org/1999/xlink" x="0px" y="0px"
	 width="249.969px" height="115px" viewBox="0 0 249.969 115" enable-background="new 0 0 249.969 115" xml:space="preserve">
<g>
	<circle fill="#D02531" cx="18.5" cy="-152.25" r="22"/>
	<path fill="#95080B" d="M18.536-174.25v43.998c12.134-0.02,21.964-9.86,21.964-21.999S30.67-174.23,18.536-174.25z"/>
	<text transform="matrix(1 0 0 1 43.8101 -139.7246)" font-family="'Colaborate-Regular'" font-size="42">nitro</text>
	<text transform="matrix(1 0 0 1 7.2231 -140.1016)" fill="#FFFFFF" font-family="'Colaborate-Medium'" font-size="42">v</text>
</g>
<g>
	<circle fill="#D02531" cx="59.818" cy="57.5" r="34.834"/>
	<path fill="#95080B" d="M59.876,22.666V92.33c19.212-0.03,34.776-15.611,34.776-34.832C94.652,38.279,79.088,22.698,59.876,22.666z
		"/>
	<g>
		<path d="M123.307,77.332V58.108c0-3.855-0.533-7.382-5.722-7.382c-3.525,0-5.985,3.261-7.25,6.053v20.553h-5.919V53.387
			c0-2.525-0.532-4.189-0.731-6.451h5.387l1.064,4.259c1.198-1.396,3.791-5.122,8.313-5.122c8.514,0,10.775,5.122,10.775,12.105
			v19.154H123.307L123.307,77.332z"/>
		<path d="M138.132,40.151v-5.853h6.386v5.853H138.132z M138.331,77.332V46.936h5.985v30.396H138.331z"/>
		<path d="M166.795,82.72c-6.982-1.729-12.105-6.119-12.105-12.903V51.525h-4.922V46.87h4.922v-7.915h5.986v7.915h7.051v4.655
			h-7.051v18.424c0,4.123,3.193,6.387,8.182,7.383L166.795,82.72z"/>
		<path d="M190.604,52.589c-1.129-0.731-2.526-1.861-4.588-1.861c-3.726,0-5.121,5.453-5.922,7.315v19.289h-5.919V53.72
			c0-2.992-0.53-5.255-0.731-6.784h5.389l1.063,5.321c1.065-2.062,3.726-6.186,7.185-6.186c2.396,0,3.991,0.531,5.653,1.528
			L190.604,52.589z"/>
		<path d="M210.818,78.197c-10.575,0-14.233-7.449-14.233-16.229c0-8.381,3.726-15.896,14.233-15.896
			c10.576,0,14.166,7.115,14.166,15.896C224.984,70.746,221.328,78.197,210.818,78.197z M210.818,50.728
			c-5.588,0-8.115,3.791-8.115,11.239c0,7.051,2.13,11.574,8.115,11.574c5.785,0,8.048-4.19,8.048-11.574
			C218.866,54.519,216.736,50.728,210.818,50.728z"/>
	</g>
	<g>
		<path fill="#FFFFFF" d="M63.513,76.736H56.13L44.358,46.34h8.047l7.649,21.551l7.384-21.551h7.849L63.513,76.736z"/>
	</g>
</g>
</svg>
