<?xml version="1.0" encoding="utf-8"?>
<!-- Generator: Adobe Illustrator 16.0.0, SVG Export Plug-In . SVG Version: 6.00 Build 0)  -->
<!DOCTYPE svg PUBLIC "-//W3C//DTD SVG 1.1//EN" "http://www.w3.org/Graphics/SVG/1.1/DTD/svg11.dtd">
<svg version="1.1" id="Layer_1" xmlns="http://www.w3.org/2000/svg" xmlns:xlink="http://www.w3.org/1999/xlink" x="0px" y="0px"
	 width="249.969px" height="115px" viewBox="0 0 249.969 115" enable-background="new 0 0 249.969 115" xml:space="preserve">
<g>
	<g>
		<path fill="#005288" d="M149.217,52.404c0-6.49,0-9.148-0.949-11.463c0.987,0.114,1.746,0.188,3,0.188
			c1.935,0,3.644-0.075,7.25-0.151c1.898-0.038,4.403,0,6.49,1.975c1.559,1.518,1.746,3.34,1.746,4.478
			c0,1.329-0.304,2.771-1.632,4.175c-1.708,1.746-3.759,2.013-5.656,2.241c1.897,0.152,4.974,0.38,6.795,2.542
			c1.14,1.443,1.255,3.151,1.255,3.949c0,2.429-1.178,7.743-8.998,7.743c-2.506,0-3.645-0.152-6.148-0.152
			c-1.025,0-2.165,0.039-4.213,0.152c0.758-0.836,1.062-4.746,1.062-10.363L149.217,52.404L149.217,52.404z M153.127,52.404
			c1.708,0.19,3.15,0.19,3.797,0.19c0.797,0,2.391-0.266,3.416-0.797c2.087-1.137,2.201-3.036,2.201-4.062
			c0-3.644-2.619-4.402-5.809-4.402c-1.176,0-2.088,0.038-3.49,0.152c-0.115,1.212-0.115,2.96-0.115,4.934V52.404z M153.127,62.578
			c0,1.785,0,2.543,1.859,3c0.494,0.111,1.367,0.15,1.938,0.15c3.758,0,6.301-1.973,6.301-5.238c0-4.973-4.326-5.163-6.49-5.163
			c-0.685,0-1.746,0.038-3.606,0.076L153.127,62.578L153.127,62.578z"/>
		<path fill="#005288" d="M185.128,62.881c0,2.808,0.113,3.683,1.29,5.239c-0.798-0.114-1.596-0.229-2.43-0.229
			c-0.799,0-1.633,0.115-2.43,0.229c-0.078-0.571-0.078-1.025-0.113-2.051v-2.811c-0.229,0.646-0.456,1.328-1.404,2.429
			c-0.532,0.608-2.165,2.545-5.581,2.545c-3.721,0-6.226-2.618-6.226-6.491c0-1.365,0.266-3.227,2.164-4.82
			c2.771-2.317,7.175-2.164,8.274-2.164c0.569,0,1.556,0,2.581,0.037v-0.985c-0.038-2.429-0.646-4.897-3.986-4.897
			c-2.467,0-5.466,1.291-6.982,3.264c-0.305-1.48-0.456-1.86-1.252-3.341c1.705-0.759,4.857-2.201,9.033-2.201
			c1.177,0,3.037,0.113,4.629,1.1c2.242,1.367,2.355,3.265,2.433,5.58V62.881L185.128,62.881z M175.75,65.272
			c1.672,0,2.771-0.758,3.568-1.632c1.746-1.973,1.822-3.908,1.937-6.568c-0.799-0.111-1.671-0.188-2.657-0.188
			c-0.798,0-2.125,0.077-3.037,0.378c-1.023,0.342-3.226,1.481-3.226,4.479C172.335,63.335,173.245,65.272,175.75,65.272"/>
		<path fill="#005288" d="M204.486,62.842c0.037,1.784,0.076,3.948,0.683,5.278c-0.797-0.076-1.632-0.191-2.467-0.191
			c-0.873,0-1.708,0.115-2.581,0.191c0.568-2.203,0.568-3.455,0.568-7.897v-5.921c0-2.125,0-4.782-3.758-4.782
			c-0.91,0-2.886,0.113-4.252,1.631c-1.67,1.823-1.67,4.48-1.67,8.313v2.393c0,2.848,0,4.479,0.606,6.264
			c-0.796-0.113-1.595-0.229-2.392-0.229s-1.633,0.115-2.393,0.229c0.229-0.951,0.495-2.694,0.495-5.731v-5.885
			c0-1.935-0.038-3.91-0.229-5.807c-0.267-2.314-0.721-2.733-1.404-3.303c1.063,0,3.188-0.266,5.429-1.1
			c-0.037,0.874-0.037,1.632-0.037,3.037v1.935c1.67-3.378,3.722-4.669,7.591-4.669c0.949,0,3.266,0,4.708,1.899
			c0.948,1.215,1.101,2.392,1.101,6.074v8.272H204.486z"/>
		<path fill="#005288" d="M206.307,50.962c-0.035-4.176-0.072-6.415-0.414-8.009c-0.229-1.177-0.608-1.481-1.179-1.861
			c2.657-0.379,3.302-0.569,5.771-1.67c-0.418,2.505-0.457,4.136-0.492,9.223v9.529l3.984-5.314
			c1.138-1.632,1.594-2.278,1.897-2.771c0.91-1.443,1.252-2.164,1.252-2.733c0-0.15-0.036-0.378-0.074-0.607
			c1.062,0.115,2.125,0.229,3.149,0.229c1.139,0,2.238-0.114,3.492-0.229c-1.86,1.367-3.189,2.315-8.123,8.618
			c1.974,3.151,4.022,6.455,9.414,12.755c-0.987-0.114-2.012-0.268-3.036-0.268c-0.988,0-1.976,0.114-2.999,0.268
			c-0.494-1.597-0.911-2.506-3.836-6.645l-2.086-2.924l-3.036,3.835c0,2.923,0.112,4.062,0.758,5.692
			c-0.873-0.112-1.708-0.228-2.581-0.228c-0.834,0-1.671,0.114-2.506,0.228c0.268-0.985,0.456-1.975,0.533-3.756
			c0.111-1.785,0.111-4.594,0.111-6.684V50.962L206.307,50.962z"/>
		<path fill="#005288" d="M87.115,61.589v-9.011c0-1.364,0-4.315-3.293-5.452c-0.644-0.226-1.552-0.416-2.763-0.416
			c-1.856,0-3.71,0.416-5.489,2.121c-0.833,0.832-1.173,1.438-1.553,2.156c-0.114-0.869-0.341-2.875-2.992-3.897
			c-0.793-0.304-1.665-0.417-2.61-0.417c-2.272,0-4.354,0.832-5.716,2.158c-0.795,0.757-1.136,1.401-1.515,2.194
			c0.039-2.157,0.114-2.799,0.304-4.655c-1.742,0.567-3.407,1.06-5.868,1.06c-0.644,0-1.326-0.039-2.006-0.077
			c0.833,0.682,1.78,1.212,1.78,6.134c0,6.344-0.051,9.517-0.208,11.348c-1.254-3.514-2.432-7.468-4.854-15.591
			c-2.031-6.772-2.37-8.175-3.192-11.997c-1.886,0.193-3.773,0.386-5.61,0.386c-1.79,0-3.532-0.193-5.272-0.386
			c-0.435,2.274-2.565,9.239-3.241,11.367c-1.838,6-3.58,11.125-5.029,15.381c-1.26,3.629-1.84,5.08-3.001,7.983
			c1.355-0.146,2.757-0.292,4.112-0.292c1.547,0,3.047,0.193,4.594,0.292c-0.048-0.338-0.241-1.888,1.402-8.319h11.176
			c1.837,7.254,1.596,7.932,1.596,8.319c1.596-0.194,3.239-0.292,4.836-0.292c1.79,0,3.387,0.146,5.32,0.292
			c-0.677-1.601-1.237-2.952-1.739-4.228c0.599-0.041,1.2-0.069,1.799-0.069c1.287,0,2.574,0.114,3.861,0.229
			c-0.492-0.838-0.757-0.871-0.757-8.254c0-4.504,0.114-6.358,1.25-7.496c0.757-0.757,2.044-1.175,3.141-1.175
			c0.645,0,2.044,0.076,2.575,1.782c0.341,1.021,0.227,3.9,0.227,8.139c0,6.094-0.605,6.321-1.059,6.965
			c1.135-0.151,2.308-0.265,3.519-0.265c1.401,0,2.765,0.149,4.24,0.265c-0.567-0.717-0.947-0.985-0.947-6.058
			c0-2.536,0.038-4.05,0.038-4.693c0-2.271,0-3.824,1.25-5.073c1.023-1.024,2.308-1.098,2.915-1.098
			c2.876,0,2.952,2.498,2.991,3.785c0.038,1.365,0.075,4.695,0.075,5.716c0,1.478,0,2.953-0.075,4.429
			c-0.077,1.629-0.265,2.045-0.946,3.104c1.097-0.149,2.346-0.265,3.556-0.265c1.365,0,2.728,0.152,4.126,0.265
			C87.418,67.343,87.115,66.813,87.115,61.589 M36.496,57.998l3.726-13.061c0.193-0.677,0.338-1.305,0.483-2.322
			c3.047,10.593,3.386,11.753,4.305,15.383H36.496z"/>
		<path fill="#005288" d="M93.929,58.182c0,1.021,0.038,3.104,1.743,4.771c1.704,1.703,4.05,1.703,4.807,1.703
			c3.256,0,4.467-1.211,5.224-1.932c-0.416,2.118-0.492,2.688-0.682,4.732c-1.854,0.49-2.762,0.718-4.919,0.718
			c-3.824,0-12.567-0.228-12.567-11.128c0-1.969,0.226-5.414,2.876-7.988c1.967-1.894,4.732-2.613,7.457-2.613
			c3.484,0,6.171,1.136,7.571,4.278c1.137,2.499,1.061,5.337,1.022,7.459H93.929z M100.592,55.001c0-2.273-0.301-5.489-3.294-5.489
			c-3.406,0-3.443,4.241-3.443,5.489H100.592z"/>
		<path fill="#005288" d="M144.68,46.92c-0.906,0.011-1.703-0.093-2.765-0.194c0.012,0.909-0.017,1.817-0.438,4.396
			c-0.601,3.794-2.121,9.567-3.136,13.44c-0.709-2.301-1.751-4.599-2.495-6.863c-0.902-2.789-2.16-6.559-2.49-8.828
			c-0.125-0.794-0.131-1.248-0.102-2.043c-1.55,0.132-2.875,0.262-4.313,0.279c-1.176,0.013-2.032-0.052-3.209-0.191
			c0.002,0.003-1.258,0.778-3.632,0.892c-0.568-0.417-2.348-1.25-5.944-1.25c-5.299,0-9.198,2.043-9.198,6.777
			c0,4.618,3.785,5.792,4.354,5.907c-1.288,0.264-5.035,1.854-5.035,4.881c0,0.984,0.416,1.971,1.172,2.689
			c1.023,1.021,2.423,1.324,3.37,1.514c-1.099,0.453-5.074,2.006-5.074,4.883c0,1.742,1.478,3.029,3.18,3.673
			c1.325,0.53,3.067,0.835,6.247,0.87c7.193,0.076,11.659-3.672,11.659-8.479c0-5.15-4.088-5.488-7.646-5.718
			c-6.322-0.38-8.064-0.38-8.064-1.853c0-0.834,1.097-1.479,1.778-1.895c1.021,0.15,1.742,0.229,3.03,0.229
			c4.58,0,9.047-1.555,9.047-6.476c0-1.591-0.416-2.5-0.908-3.559c1.385,0.073,1.827,0.076,3.142,0.21
			c2.341,5.379,6.067,14.483,7.483,17.311c0.604,1.203,1.567,1.803,2.144,1.549c-0.698,1.899-2.006,4.086-5.509,4.127
			c-1.288,0.017-1.934-0.24-2.771-0.609c-0.353,2.086-0.459,2.656-1.111,5.088c0.796,0.027,1.552,0.059,2.346,0.048
			c8.141-0.099,10.023-4.095,11.516-9.149c0.873-3.076,2.176-7.976,3.047-11.051c1.746-6.23,2.185-7.371,3.506-10.869
			C146.8,46.781,145.738,46.908,144.68,46.92 M112.674,68.629c1.134,0.077,6.019,0.378,6.889,0.491
			c1.097,0.113,2.915,0.418,2.915,2.384c0,2.312-2.876,3.561-6.058,3.561c-2.915,0-5.487-0.946-5.487-3.292
			C110.933,70.256,111.918,69.309,112.674,68.629 M116.08,57.159c-2.195,0-3.104-1.705-3.104-4.163c0-2.461,1.022-3.976,3.104-3.976
			c2.195,0,2.954,1.665,2.954,4.279C119.034,55.227,118.275,57.159,116.08,57.159"/>
	</g>
</g>
</svg>
