<?xml version="1.0" encoding="utf-8"?>
<!-- Generator: Adobe Illustrator 21.0.0, SVG Export Plug-In . SVG Version: 6.00 Build 0)  -->
<svg version="1.1" id="Layer_1" xmlns="http://www.w3.org/2000/svg" xmlns:xlink="http://www.w3.org/1999/xlink" x="0px" y="0px"
	 viewBox="0 0 496 496" style="enable-background:new 0 0 496 496;" xml:space="preserve">
<style type="text/css">
	.st0{fill:#FFFFFF;}
</style>
<path class="st0" d="M496,366.8v-77.5l-31.9-5.3c-1.2-3.2-2.5-6.4-4-9.6l18.8-26.3l-54.8-54.8l-26.3,18.8c-3.2-1.5-6.4-2.8-9.6-4
	l-4.1-24.5V68.7L315.3,0H128v64H24v176h-8c-8.8,0-16,7.2-16,16v224c0,8.8,7.2,16,16,16h288c8.8,0,16-7.2,16-16h62.8l5.3-31.9
	c3.2-1.2,6.4-2.5,9.6-4l26.3,18.8l54.8-54.8l-18.8-26.3c1.5-3.2,2.8-6.4,4-9.6L496,366.8z M320,27.3L356.7,64H320V27.3z M144,16h160
	v64h64v96h-62.8l-5.3,31.9c-3.2,1.2-6.4,2.5-9.6,4l-10.3-7.3V144h72v-16h-72v-16h72V96h-72V64H144V16z M40,80h224v113.1l-0.1,0
	l-6.5,6.5C253,195,246.9,192,240,192H80c-13.2,0-24,10.8-24,24v24H40V80z M72,240v-24c0-4.4,3.6-8,8-8h160c4.4,0,8,3.6,8,8v24H72z
	 M304,256v35.5l-104,62.4V352c0-8.8-7.2-16-16-16h-48c-8.8,0-16,7.2-16,16v1.9L16,291.5V256H304z M320,286.6
	c7.3-4.2,15.5-6.6,24-6.6c26.5,0,48,21.5,48,48s-21.5,48-48,48c-8.5,0-16.7-2.3-24-6.6V286.6z M320,387.2c7.6,3.1,15.7,4.8,24,4.8
	c35.3,0,64-28.7,64-64s-28.7-64-64-64c-8.3,0-16.4,1.8-24,4.8V256c0-1.4-0.2-2.8-0.6-4.1c7.9-2.6,16.1-3.9,24.6-3.9
	c44.1,0,80,35.9,80,80s-35.9,80-80,80c-8.2,0-16.3-1.3-24-3.7V387.2z M184,384h-48v-32h48L184,384z M16,480v-16h240v-16H16V310.1
	l104,62.4V384c0,8.8,7.2,16,16,16h48c8.8,0,16-7.2,16-16v-11.5l104-62.4l0,137.9h-32v16h32v16H16z M458,406.3L422.3,442l-23.1-16.5
	l-4.3,2.2c-5.5,2.8-11,5.1-16.4,6.8l-4.6,1.5l-4.7,28H320v-43.1c7.8,2,15.8,3.1,24,3.1c52.9,0,96-43.1,96-96s-43.1-96-96-96
	c-13.4,0-26.4,2.8-38.6,8.1c-0.5,0-0.9-0.1-1.4-0.1h-40v-24c0-0.1,0-0.2,0-0.3l1.7-1.7l23.1,16.5l4.3-2.2c5.5-2.8,11-5.1,16.4-6.8
	l4.6-1.5l4.7-28h50.4l4.7,28l4.6,1.5c5.4,1.8,10.9,4,16.4,6.8l4.3,2.2l23.1-16.5l35.7,35.7l-16.5,23.1l2.2,4.3
	c2.8,5.4,5.1,10.9,6.8,16.4l1.5,4.6l28,4.7v50.5l-28,4.7l-1.5,4.6c-1.8,5.4-4.1,10.9-6.8,16.4l-2.2,4.3L458,406.3z"/>
<path class="st0" d="M336,200h16v16h-16V200z"/>
<path class="st0" d="M417.5,243.1l11.3-11.3l11.3,11.3l-11.3,11.3L417.5,243.1z"/>
<path class="st0" d="M456,320h16v16h-16V320z"/>
<path class="st0" d="M417.5,412.9l11.3-11.3l11.3,11.3l-11.3,11.3L417.5,412.9z"/>
<path class="st0" d="M336,440h16v16h-16V440z"/>
<path class="st0" d="M56,96h192v16H56V96z"/>
<path class="st0" d="M56,128h16v16H56V128z"/>
<path class="st0" d="M88,128h16v16H88V128z"/>
<path class="st0" d="M120,128h128v16H120V128z"/>
<path class="st0" d="M56,160h192v16H56V160z"/>
<path class="st0" d="M160,32h16v16h-16V32z"/>
<path class="st0" d="M192,32h64v16h-64V32z"/>
<path class="st0" d="M272,32h16v16h-16V32z"/>
</svg>
