<?xml version="1.0" encoding="utf-8"?>
<!-- Generator: Adobe Illustrator 16.0.0, SVG Export Plug-In . SVG Version: 6.00 Build 0)  -->
<!DOCTYPE svg PUBLIC "-//W3C//DTD SVG 1.1//EN" "http://www.w3.org/Graphics/SVG/1.1/DTD/svg11.dtd">
<svg version="1.1" id="Layer_1" xmlns="http://www.w3.org/2000/svg" xmlns:xlink="http://www.w3.org/1999/xlink" x="0px" y="0px"
	 width="249.969px" height="115px" viewBox="0 0 249.969 115" enable-background="new 0 0 249.969 115" xml:space="preserve">
<g>
	<path fill="#D33A2A" d="M24.984,62.189V41.355h16.813c1.533,0,2.65,0.318,3.352,0.949c0.702,0.632,1.05,1.66,1.05,3.087v4.638
		c0,1.428-0.348,2.458-1.05,3.092c-0.701,0.628-1.818,0.945-3.352,0.945h-3.072l9.534,8.123h-5.171l-8.479-8.123h-6.13v8.123H24.984
		z M40.442,44.052H28.479v7.322h11.963c0.835,0,1.419-0.148,1.758-0.444c0.335-0.297,0.505-0.863,0.505-1.697v-3.039
		c0-0.811-0.17-1.368-0.505-1.679C41.861,44.203,41.277,44.052,40.442,44.052z"/>
	<path fill="#D33A2A" d="M57.502,62.189H54.26V45.103h3.242V62.189z"/>
	<path fill="#D33A2A" d="M72.131,62.189l-9.869-17.13h3.48l7.682,13.779l7.364-13.779h3.192l-9.384,17.13H72.131z"/>
	<path fill="#D33A2A" d="M88.812,62.189V45.06h17.256v2.525H92.051v4.464h8.438v2.522h-8.438v5.095h14.177v2.522L88.812,62.189
		L88.812,62.189z"/>
	<path fill="#A3A733" d="M113.719,62.189V41.355h16.812c1.535,0,2.654,0.318,3.353,0.949c0.702,0.632,1.052,1.66,1.052,3.087v4.638
		c0,1.428-0.35,2.458-1.052,3.092c-0.698,0.628-1.815,0.945-3.346,0.945h-13.324v8.123H113.719z M129.178,44.052h-11.965v7.239
		h11.965c0.836,0,1.42-0.153,1.756-0.462c0.34-0.313,0.508-0.878,0.508-1.709v-2.899c0-0.828-0.174-1.398-0.527-1.707
		C130.563,44.203,129.984,44.052,129.178,44.052z"/>
	<path fill="#A3A733" d="M141.607,49.14c0-1.561,0.299-2.631,0.891-3.212c0.593-0.578,1.699-0.868,3.316-0.868h12.381
		c1.617,0,2.723,0.29,3.318,0.868c0.592,0.581,0.887,1.651,0.887,3.212v9.013c0,1.563-0.295,2.625-0.887,3.193
		c-0.597,0.566-1.701,0.844-3.318,0.844h-12.381c-1.646,0-2.758-0.275-3.338-0.826c-0.578-0.551-0.869-1.623-0.869-3.211V49.14z
		 M144.85,59.623h14.313v-12.04H144.85V59.623z"/>
	<path fill="#A3A733" d="M183.639,48.496c0.166,0.996,0.252,2.021,0.252,3.071v10.623h-2.988V45.06h2.466l12.563,11.192
		c0.781,0.701,1.469,1.482,2.063,2.342c-0.198-1.023-0.296-2.085-0.296-3.191V45.059h2.989v17.13h-2.225l-12.805-11.351
		C184.796,50.083,184.122,49.305,183.639,48.496z"/>
	<path fill="#A3A733" d="M216.87,47.584v14.605h-3.24V47.584h-8.08V45.06h19.435v2.525H216.87z"/>
	<g>
		
			<linearGradient id="SVGID_1_" gradientUnits="userSpaceOnUse" x1="316.2715" y1="24.0098" x2="318.0176" y2="24.0098" gradientTransform="matrix(1 0 0 -1 -146 76.9688)">
			<stop  offset="0" style="stop-color:#FFFFFF"/>
			<stop  offset="0.0169" style="stop-color:#F6F6F6"/>
			<stop  offset="0.1048" style="stop-color:#CECECE"/>
			<stop  offset="0.1951" style="stop-color:#ACACAC"/>
			<stop  offset="0.2868" style="stop-color:#929292"/>
			<stop  offset="0.3807" style="stop-color:#7F7F7F"/>
			<stop  offset="0.4781" style="stop-color:#747474"/>
			<stop  offset="0.5843" style="stop-color:#707070"/>
			<stop  offset="0.6548" style="stop-color:#797979"/>
			<stop  offset="0.7698" style="stop-color:#919191"/>
			<stop  offset="0.9141" style="stop-color:#B9B9B9"/>
			<stop  offset="1" style="stop-color:#D4D4D4"/>
		</linearGradient>
		<path fill="url(#SVGID_1_)" stroke="#231F20" stroke-width="0.0255" d="M172.018,62.039V43.688h-1.746v18.351
			c0,0,0.42,0.19,0.873,0.19C171.6,62.23,172.018,62.039,172.018,62.039z"/>
		<g>
			<g>
				<g>
					<defs>
						<circle id="SVGID_2_" cx="171.077" cy="39.816" r="4.177"/>
					</defs>
					<clipPath id="SVGID_3_">
						<use xlink:href="#SVGID_2_"  overflow="visible"/>
					</clipPath>
					
						<radialGradient id="SVGID_4_" cx="316.7256" cy="38.9272" r="9.0869" gradientTransform="matrix(1 0 0 -1 -146 76.9688)" gradientUnits="userSpaceOnUse">
						<stop  offset="0" style="stop-color:#FFFFFF"/>
						<stop  offset="0.0636" style="stop-color:#F6E1E2"/>
						<stop  offset="0.1784" style="stop-color:#E6B1B2"/>
						<stop  offset="0.2967" style="stop-color:#D9878A"/>
						<stop  offset="0.4164" style="stop-color:#CF6668"/>
						<stop  offset="0.5382" style="stop-color:#C74B4F"/>
						<stop  offset="0.6627" style="stop-color:#C1393C"/>
						<stop  offset="0.7918" style="stop-color:#BD2E32"/>
						<stop  offset="0.9326" style="stop-color:#BC2A2E"/>
					</radialGradient>
					<circle clip-path="url(#SVGID_3_)" fill="url(#SVGID_4_)" cx="170.727" cy="38.042" r="9.087"/>
				</g>
			</g>
		</g>
	</g>
	<g>
		<path fill="#666666" d="M118.881,70.783c-0.309-0.289-0.739-0.434-1.293-0.434c-0.396,0-0.745,0.082-1.043,0.25
			c-0.299,0.166-0.548,0.387-0.746,0.66c-0.197,0.271-0.347,0.582-0.447,0.93c-0.103,0.348-0.152,0.701-0.152,1.063
			c0,0.363,0.05,0.716,0.152,1.063c0.101,0.349,0.25,0.656,0.447,0.931c0.198,0.272,0.447,0.492,0.746,0.66
			c0.298,0.168,0.646,0.25,1.043,0.25c0.255,0,0.496-0.05,0.726-0.146c0.228-0.099,0.431-0.229,0.606-0.402
			c0.175-0.172,0.321-0.377,0.436-0.614c0.113-0.236,0.186-0.496,0.211-0.777h0.831c-0.113,0.826-0.417,1.471-0.91,1.934
			c-0.492,0.461-1.126,0.691-1.899,0.691c-0.521,0-0.98-0.094-1.38-0.283s-0.736-0.445-1.009-0.771
			c-0.273-0.326-0.479-0.705-0.621-1.143c-0.141-0.434-0.21-0.898-0.21-1.391c0-0.494,0.069-0.957,0.21-1.394
			c0.142-0.436,0.348-0.815,0.621-1.141c0.272-0.326,0.608-0.586,1.009-0.779c0.399-0.192,0.859-0.291,1.38-0.291
			c0.729,0,1.348,0.195,1.853,0.582c0.506,0.388,0.808,0.972,0.904,1.754h-0.831C119.398,71.475,119.188,71.074,118.881,70.783z"/>
		<path fill="#666666" d="M125.814,69.939c0.398,0.193,0.734,0.453,1.009,0.779c0.272,0.324,0.479,0.705,0.62,1.141
			c0.141,0.437,0.211,0.898,0.211,1.393c0,0.492-0.07,0.957-0.211,1.392c-0.141,0.438-0.348,0.815-0.62,1.144
			c-0.273,0.326-0.609,0.582-1.009,0.771c-0.4,0.188-0.86,0.283-1.379,0.283c-0.52,0-0.979-0.095-1.379-0.283
			s-0.737-0.444-1.01-0.771s-0.479-0.705-0.62-1.144c-0.142-0.435-0.211-0.897-0.211-1.392c0-0.493,0.069-0.956,0.211-1.393
			c0.141-0.436,0.348-0.816,0.62-1.141c0.272-0.326,0.609-0.586,1.01-0.779c0.401-0.193,0.859-0.291,1.379-0.291
			C124.954,69.648,125.414,69.746,125.814,69.939z M123.394,70.6c-0.3,0.166-0.548,0.387-0.746,0.66
			c-0.198,0.271-0.348,0.582-0.448,0.93c-0.103,0.348-0.152,0.701-0.152,1.063c0,0.363,0.05,0.716,0.152,1.063
			c0.101,0.349,0.25,0.656,0.448,0.931c0.198,0.273,0.446,0.492,0.746,0.66c0.299,0.168,0.646,0.25,1.042,0.25
			s0.743-0.082,1.043-0.25c0.298-0.168,0.546-0.388,0.746-0.66c0.196-0.273,0.346-0.582,0.447-0.931
			c0.102-0.348,0.151-0.7,0.151-1.063c0-0.361-0.052-0.715-0.151-1.063c-0.104-0.348-0.251-0.658-0.447-0.93
			c-0.199-0.273-0.447-0.494-0.746-0.66c-0.3-0.168-0.647-0.25-1.043-0.25C124.039,70.35,123.692,70.432,123.394,70.6z"/>
		<path fill="#666666" d="M133.646,76.656V75.43h-0.026c-0.22,0.457-0.539,0.807-0.957,1.049c-0.419,0.24-0.882,0.361-1.392,0.361
			c-0.434,0-0.799-0.059-1.103-0.178c-0.306-0.119-0.55-0.287-0.739-0.508c-0.188-0.22-0.326-0.488-0.414-0.806
			c-0.089-0.317-0.134-0.678-0.134-1.082v-4.42h0.831v4.435c0.018,0.614,0.161,1.082,0.43,1.397s0.731,0.476,1.393,0.476
			c0.361,0,0.668-0.078,0.923-0.23c0.255-0.154,0.467-0.357,0.634-0.613c0.167-0.254,0.291-0.547,0.369-0.879
			c0.08-0.328,0.119-0.666,0.119-1.01v-3.574h0.831v6.809H133.646L133.646,76.656z"/>
		<path fill="#666666" d="M136.745,69.848v1.293h0.026c0.192-0.475,0.508-0.844,0.943-1.102c0.436-0.26,0.932-0.392,1.484-0.392
			c0.519,0,0.97,0.099,1.352,0.291c0.383,0.193,0.702,0.455,0.957,0.785c0.256,0.33,0.444,0.713,0.566,1.147
			c0.125,0.435,0.187,0.896,0.187,1.379c0,0.482-0.062,0.943-0.187,1.379c-0.122,0.437-0.313,0.816-0.566,1.148
			c-0.255,0.328-0.574,0.588-0.957,0.777c-0.382,0.189-0.833,0.283-1.352,0.283c-0.247,0-0.494-0.031-0.739-0.092
			c-0.246-0.062-0.476-0.154-0.687-0.277s-0.397-0.277-0.562-0.461c-0.162-0.186-0.288-0.4-0.376-0.646h-0.025v3.799h-0.832v-9.313
			L136.745,69.848L136.745,69.848z M141.305,72.201c-0.084-0.346-0.216-0.656-0.396-0.928c-0.181-0.273-0.412-0.496-0.691-0.668
			c-0.282-0.172-0.62-0.256-1.017-0.256c-0.457,0-0.84,0.078-1.148,0.236c-0.308,0.158-0.555,0.369-0.738,0.635
			c-0.185,0.264-0.314,0.57-0.39,0.922s-0.11,0.723-0.11,1.109c0,0.352,0.041,0.701,0.125,1.049s0.219,0.658,0.408,0.93
			c0.188,0.273,0.436,0.494,0.737,0.666c0.306,0.172,0.677,0.258,1.116,0.258c0.396,0,0.734-0.086,1.017-0.258
			c0.279-0.172,0.513-0.393,0.691-0.666c0.181-0.271,0.313-0.582,0.396-0.93c0.084-0.348,0.125-0.697,0.125-1.049
			C141.43,72.899,141.389,72.551,141.305,72.201z"/>
		<path fill="#666666" d="M147.809,69.939c0.4,0.193,0.737,0.453,1.012,0.779c0.271,0.324,0.479,0.705,0.619,1.141
			c0.142,0.437,0.211,0.898,0.211,1.393c0,0.492-0.069,0.957-0.211,1.392c-0.142,0.438-0.348,0.815-0.619,1.144
			c-0.273,0.326-0.61,0.582-1.012,0.771c-0.398,0.188-0.858,0.283-1.377,0.283c-0.521,0-0.979-0.095-1.379-0.283
			c-0.4-0.188-0.738-0.444-1.01-0.771s-0.48-0.705-0.621-1.144c-0.14-0.435-0.211-0.897-0.211-1.392
			c0-0.493,0.071-0.956,0.211-1.393c0.141-0.436,0.35-0.816,0.621-1.141c0.271-0.326,0.607-0.586,1.01-0.779
			c0.399-0.193,0.858-0.291,1.379-0.291C146.949,69.648,147.409,69.746,147.809,69.939z M145.389,70.6
			c-0.299,0.166-0.548,0.387-0.746,0.66c-0.197,0.271-0.348,0.582-0.447,0.93s-0.151,0.701-0.151,1.063
			c0,0.363,0.052,0.716,0.151,1.063c0.1,0.349,0.25,0.656,0.447,0.931c0.198,0.272,0.447,0.492,0.746,0.66s0.646,0.25,1.043,0.25
			c0.396,0,0.742-0.082,1.041-0.25s0.549-0.388,0.746-0.66c0.197-0.273,0.348-0.582,0.448-0.931c0.101-0.348,0.151-0.7,0.151-1.063
			c0-0.361-0.051-0.715-0.151-1.063c-0.103-0.348-0.251-0.658-0.448-0.93c-0.197-0.273-0.447-0.494-0.746-0.66
			c-0.299-0.168-0.646-0.25-1.041-0.25C146.033,70.35,145.688,70.432,145.389,70.6z"/>
		<path fill="#666666" d="M151.709,69.848v1.174h0.025c0.158-0.414,0.438-0.746,0.845-0.996c0.403-0.25,0.851-0.377,1.332-0.377
			c0.476,0,0.874,0.063,1.194,0.186s0.578,0.298,0.771,0.521c0.194,0.225,0.33,0.498,0.41,0.824
			c0.077,0.326,0.118,0.691,0.118,1.096v4.381h-0.831v-4.25c0-0.289-0.026-0.561-0.079-0.811s-0.146-0.469-0.277-0.654
			c-0.132-0.184-0.311-0.328-0.533-0.434c-0.224-0.106-0.504-0.158-0.838-0.158s-0.632,0.059-0.892,0.178
			c-0.261,0.119-0.479,0.281-0.659,0.488c-0.181,0.207-0.32,0.453-0.423,0.738c-0.101,0.287-0.157,0.598-0.164,0.932v3.971h-0.832
			v-6.809H151.709L151.709,69.848z"/>
		<path fill="#666666" d="M161.895,71.174c-0.096-0.189-0.227-0.346-0.389-0.469c-0.163-0.123-0.35-0.213-0.563-0.271
			c-0.209-0.055-0.436-0.084-0.672-0.084c-0.187,0-0.373,0.02-0.562,0.059s-0.362,0.105-0.521,0.197s-0.287,0.213-0.383,0.363
			c-0.097,0.148-0.146,0.334-0.146,0.555c0,0.186,0.046,0.34,0.139,0.469c0.093,0.127,0.209,0.234,0.351,0.322
			c0.141,0.088,0.295,0.16,0.461,0.217c0.168,0.06,0.32,0.105,0.463,0.14l1.107,0.252c0.237,0.034,0.474,0.098,0.707,0.19
			c0.232,0.092,0.438,0.213,0.62,0.363c0.179,0.148,0.326,0.334,0.44,0.555c0.113,0.219,0.172,0.479,0.172,0.777
			c0,0.369-0.083,0.684-0.25,0.943c-0.169,0.26-0.382,0.471-0.641,0.633c-0.26,0.162-0.553,0.279-0.879,0.352
			c-0.324,0.07-0.646,0.104-0.963,0.104c-0.8,0-1.449-0.188-1.945-0.566c-0.498-0.377-0.781-0.985-0.853-1.819h0.831
			c0.036,0.563,0.24,0.985,0.614,1.271c0.373,0.287,0.838,0.431,1.394,0.431c0.201,0,0.41-0.021,0.627-0.066
			c0.215-0.043,0.414-0.119,0.6-0.225c0.185-0.104,0.337-0.238,0.455-0.402c0.119-0.16,0.178-0.363,0.178-0.6
			c0-0.201-0.041-0.371-0.125-0.509c-0.084-0.137-0.195-0.25-0.337-0.342c-0.142-0.095-0.302-0.17-0.479-0.231
			c-0.182-0.062-0.365-0.115-0.55-0.158l-1.067-0.238c-0.272-0.07-0.523-0.15-0.752-0.244c-0.229-0.092-0.431-0.207-0.6-0.342
			c-0.173-0.137-0.309-0.305-0.404-0.502s-0.146-0.441-0.146-0.732c0-0.342,0.078-0.637,0.229-0.885
			c0.155-0.246,0.355-0.443,0.603-0.592c0.247-0.15,0.521-0.26,0.823-0.332c0.305-0.068,0.605-0.105,0.904-0.105
			c0.344,0,0.662,0.045,0.957,0.133c0.295,0.09,0.555,0.226,0.778,0.408c0.224,0.186,0.403,0.414,0.533,0.688
			c0.132,0.272,0.208,0.592,0.226,0.963h-0.83C162.044,71.584,161.992,71.361,161.895,71.174z"/>
		<path fill="#666666" d="M172.246,69.939c0.4,0.193,0.736,0.453,1.009,0.779c0.272,0.324,0.479,0.705,0.62,1.141
			c0.141,0.437,0.211,0.898,0.211,1.393c0,0.492-0.07,0.957-0.211,1.392c-0.141,0.438-0.348,0.815-0.62,1.144
			c-0.272,0.326-0.608,0.582-1.009,0.771s-0.861,0.283-1.38,0.283s-0.979-0.095-1.38-0.283c-0.398-0.188-0.734-0.444-1.008-0.771
			s-0.479-0.705-0.621-1.144c-0.142-0.435-0.209-0.897-0.209-1.392c0-0.493,0.067-0.956,0.209-1.393
			c0.142-0.436,0.348-0.816,0.621-1.141c0.272-0.326,0.608-0.586,1.008-0.779c0.4-0.193,0.861-0.291,1.38-0.291
			S171.846,69.746,172.246,69.939z M169.824,70.6c-0.301,0.166-0.547,0.387-0.746,0.66c-0.197,0.271-0.346,0.582-0.449,0.93
			c-0.102,0.348-0.148,0.701-0.148,1.063c0,0.363,0.049,0.716,0.148,1.063c0.104,0.349,0.252,0.656,0.449,0.931
			c0.199,0.272,0.445,0.492,0.746,0.66c0.299,0.168,0.646,0.25,1.042,0.25s0.743-0.082,1.042-0.25c0.3-0.168,0.549-0.388,0.746-0.66
			c0.197-0.273,0.348-0.582,0.447-0.931c0.103-0.348,0.152-0.7,0.152-1.063c0-0.361-0.051-0.715-0.152-1.063
			c-0.101-0.348-0.25-0.658-0.447-0.93c-0.197-0.273-0.446-0.494-0.746-0.66c-0.299-0.168-0.646-0.25-1.042-0.25
			C170.473,70.35,170.123,70.432,169.824,70.6z"/>
		<path fill="#666666" d="M176.146,69.848v1.174h0.023c0.16-0.414,0.441-0.746,0.846-0.996c0.403-0.25,0.85-0.377,1.332-0.377
			c0.477,0,0.875,0.063,1.195,0.186c0.321,0.123,0.578,0.298,0.771,0.521c0.192,0.225,0.33,0.498,0.408,0.824
			c0.079,0.326,0.119,0.691,0.119,1.096v4.381h-0.832v-4.25c0-0.289-0.025-0.561-0.078-0.811c-0.054-0.25-0.146-0.469-0.277-0.654
			c-0.131-0.184-0.312-0.328-0.533-0.434c-0.227-0.105-0.505-0.158-0.839-0.158c-0.333,0-0.632,0.059-0.89,0.178
			c-0.262,0.119-0.481,0.281-0.66,0.488c-0.183,0.207-0.321,0.453-0.424,0.738c-0.102,0.287-0.156,0.598-0.164,0.932v3.971h-0.83
			v-6.809H176.146L176.146,69.848z"/>
		<path fill="#666666" d="M188.785,69.848v0.699h-1.387v4.592c0,0.273,0.037,0.486,0.113,0.641c0.073,0.152,0.262,0.238,0.561,0.256
			c0.238,0,0.476-0.012,0.713-0.039v0.699c-0.123,0-0.247,0.004-0.37,0.014c-0.122,0.009-0.245,0.013-0.37,0.013
			c-0.553,0-0.939-0.106-1.158-0.322c-0.222-0.215-0.326-0.612-0.318-1.192v-4.658h-1.187V69.85h1.187v-2.045h0.832v2.045h1.385
			V69.848z"/>
		<path fill="#666666" d="M190.805,67.234v3.787h0.026c0.157-0.414,0.438-0.746,0.844-0.996s0.849-0.377,1.333-0.377
			c0.475,0,0.872,0.063,1.193,0.186c0.32,0.123,0.578,0.298,0.771,0.521c0.193,0.225,0.329,0.498,0.409,0.824
			c0.079,0.326,0.118,0.691,0.118,1.096v4.381h-0.831v-4.25c0-0.289-0.026-0.561-0.079-0.811c-0.054-0.25-0.145-0.469-0.277-0.654
			c-0.131-0.184-0.312-0.328-0.533-0.434c-0.225-0.105-0.504-0.158-0.838-0.158s-0.633,0.059-0.892,0.178
			c-0.26,0.119-0.479,0.281-0.659,0.488s-0.322,0.453-0.423,0.738c-0.102,0.287-0.155,0.598-0.165,0.932v3.971h-0.83v-9.422H190.805
			z"/>
		<path fill="#666666" d="M197.684,74.406c0.084,0.32,0.219,0.609,0.403,0.865c0.187,0.254,0.419,0.465,0.699,0.633
			s0.62,0.25,1.017,0.25c0.605,0,1.081-0.158,1.426-0.475c0.342-0.316,0.58-0.74,0.713-1.268h0.83
			c-0.176,0.774-0.5,1.373-0.969,1.795c-0.472,0.422-1.139,0.633-2,0.633c-0.537,0-1-0.094-1.393-0.283
			c-0.391-0.189-0.71-0.449-0.957-0.777c-0.245-0.332-0.43-0.713-0.547-1.147c-0.118-0.435-0.178-0.896-0.178-1.38
			c0-0.448,0.06-0.889,0.178-1.319c0.117-0.431,0.302-0.815,0.547-1.153c0.247-0.339,0.566-0.611,0.957-0.818
			c0.393-0.205,0.855-0.312,1.393-0.312c0.545,0,1.012,0.111,1.398,0.33c0.387,0.222,0.701,0.509,0.943,0.865
			c0.24,0.356,0.414,0.767,0.521,1.228c0.104,0.461,0.149,0.93,0.132,1.405h-5.238C197.561,73.775,197.602,74.086,197.684,74.406z
			 M201.802,71.865c-0.101-0.289-0.245-0.547-0.43-0.771s-0.409-0.404-0.673-0.541c-0.264-0.136-0.563-0.203-0.897-0.203
			c-0.343,0-0.646,0.067-0.909,0.203c-0.265,0.137-0.488,0.315-0.674,0.541c-0.185,0.226-0.332,0.483-0.441,0.778
			s-0.184,0.597-0.217,0.902h4.406C201.958,72.461,201.902,72.156,201.802,71.865z"/>
		<path fill="#666666" d="M213.176,77.461c-0.109,0.404-0.283,0.746-0.521,1.029c-0.237,0.28-0.547,0.496-0.93,0.646
			s-0.852,0.226-1.406,0.226c-0.342,0-0.676-0.041-1.002-0.119c-0.325-0.08-0.618-0.203-0.877-0.369
			c-0.262-0.168-0.476-0.383-0.646-0.642c-0.172-0.26-0.271-0.567-0.298-0.93h0.83c0.045,0.254,0.13,0.469,0.259,0.639
			c0.127,0.173,0.279,0.312,0.462,0.416c0.179,0.104,0.38,0.183,0.601,0.229c0.22,0.049,0.444,0.074,0.672,0.074
			c0.773,0,1.334-0.221,1.677-0.66c0.343-0.438,0.517-1.073,0.517-1.899v-0.924h-0.027c-0.193,0.422-0.478,0.762-0.852,1.017
			c-0.374,0.256-0.813,0.383-1.313,0.383c-0.547,0-1.012-0.09-1.397-0.271c-0.389-0.183-0.706-0.431-0.957-0.746
			c-0.252-0.315-0.434-0.688-0.549-1.114c-0.112-0.427-0.172-0.882-0.172-1.365c0-0.465,0.067-0.908,0.206-1.326
			c0.136-0.418,0.334-0.783,0.594-1.096c0.26-0.313,0.581-0.56,0.963-0.738c0.383-0.18,0.82-0.271,1.313-0.271
			c0.256,0,0.496,0.037,0.721,0.105c0.225,0.072,0.43,0.17,0.613,0.297c0.186,0.129,0.351,0.275,0.494,0.443
			c0.146,0.168,0.258,0.344,0.336,0.526h0.027v-1.174h0.831v6.254C213.341,76.604,213.286,77.055,213.176,77.461z M211.268,75.646
			c0.272-0.154,0.504-0.355,0.688-0.607c0.185-0.25,0.323-0.537,0.416-0.862c0.092-0.326,0.14-0.66,0.14-1.004
			c0-0.334-0.041-0.668-0.119-1.003c-0.08-0.334-0.207-0.639-0.384-0.909c-0.176-0.272-0.403-0.494-0.68-0.66
			c-0.276-0.168-0.613-0.25-1.011-0.25c-0.396,0-0.733,0.08-1.016,0.244c-0.281,0.162-0.514,0.375-0.699,0.639
			c-0.185,0.265-0.318,0.566-0.402,0.904c-0.083,0.338-0.124,0.685-0.124,1.035c0,0.344,0.043,0.678,0.131,1.004
			c0.089,0.325,0.226,0.612,0.41,0.862c0.185,0.252,0.417,0.453,0.698,0.607s0.615,0.23,1.002,0.23
			C210.68,75.877,210.996,75.801,211.268,75.646z"/>
		<path fill="#666666" d="M219.18,69.939c0.4,0.193,0.736,0.453,1.01,0.779c0.271,0.324,0.479,0.705,0.619,1.141
			c0.143,0.437,0.211,0.898,0.211,1.393c0,0.492-0.068,0.957-0.211,1.392c-0.141,0.438-0.348,0.815-0.619,1.144
			c-0.272,0.326-0.608,0.582-1.01,0.771c-0.4,0.188-0.861,0.283-1.379,0.283c-0.52,0-0.979-0.095-1.38-0.283
			s-0.735-0.444-1.009-0.771s-0.479-0.705-0.62-1.144c-0.142-0.435-0.211-0.897-0.211-1.392c0-0.493,0.069-0.956,0.211-1.393
			c0.142-0.436,0.349-0.816,0.62-1.141c0.271-0.326,0.607-0.586,1.009-0.779s0.86-0.291,1.38-0.291
			C218.318,69.648,218.779,69.746,219.18,69.939z M216.759,70.6c-0.3,0.166-0.55,0.387-0.745,0.66
			c-0.199,0.271-0.349,0.582-0.449,0.93c-0.102,0.348-0.151,0.701-0.151,1.063c0,0.363,0.05,0.716,0.151,1.063
			c0.101,0.349,0.25,0.656,0.449,0.931c0.195,0.272,0.445,0.492,0.745,0.66c0.298,0.168,0.646,0.25,1.042,0.25
			s0.742-0.082,1.042-0.25s0.548-0.388,0.745-0.66c0.198-0.273,0.348-0.582,0.449-0.931c0.102-0.348,0.15-0.7,0.15-1.063
			c0-0.361-0.049-0.715-0.15-1.063s-0.251-0.658-0.449-0.93c-0.197-0.273-0.445-0.494-0.745-0.66c-0.3-0.168-0.646-0.25-1.042-0.25
			S217.057,70.432,216.759,70.6z"/>
		<path fill="#666666" d="M222.748,75.256h1.107v1.4h-1.107V75.256z"/>
	</g>
</g>
</svg>
