<?xml version="1.0" encoding="utf-8"?>
<!-- Generator: Adobe Illustrator 16.0.0, SVG Export Plug-In . SVG Version: 6.00 Build 0)  -->
<!DOCTYPE svg PUBLIC "-//W3C//DTD SVG 1.1//EN" "http://www.w3.org/Graphics/SVG/1.1/DTD/svg11.dtd">
<svg version="1.1" id="Layer_1" xmlns="http://www.w3.org/2000/svg" xmlns:xlink="http://www.w3.org/1999/xlink" x="0px" y="0px"
	 width="160px" height="60px" viewBox="0 0 160 60" enable-background="new 0 0 160 60" xml:space="preserve">
<g>
	<g id="g3951" transform="matrix(1.25,0,0,-1.25,19.117647,990)">
		<g id="g3732" transform="translate(58.1299,395.4927)">
			<path id="path3734" fill="#373535" d="M-34.919,359.008c0.524,0,1.021-0.124,1.269-0.373c0.041-0.386-0.304-1.007-0.524-1.007
				c-0.262,0.097-0.511,0.152-0.814,0.152c-1.255,0-1.876-1.296-1.876-2.579c0-0.8,0.275-1.283,0.91-1.283
				c0.676,0,1.366,0.455,1.752,0.8c0.096-0.069,0.221-0.289,0.221-0.538c0-0.276-0.083-0.538-0.331-0.787
				c-0.441-0.441-1.186-0.814-2.262-0.814c-1.241,0-2.097,0.704-2.097,2.346c0,2.152,1.421,4.083,3.738,4.083H-34.919z"/>
		</g>
		<g id="g3736" transform="translate(72.2412,378.0176)">
			<path id="path3738" fill="#373535" d="M-44.975,371.462c0.676,0,1.904,1.187,2.248,3.449c0.014,0.138,0.028,0.179,0.055,0.317
				c-0.152,0.055-0.359,0.096-0.565,0.096c-0.511,0-1.035-0.152-1.504-0.786c-0.483-0.675-0.69-1.517-0.69-2.193
				c0-0.579,0.166-0.883,0.441-0.883H-44.975z M-47.196,372.082c0,0.814,0.276,2.235,1.311,3.27c0.883,0.91,1.959,1.132,2.938,1.132
				c0.648,0,1.531-0.207,2.083-0.318c-0.138-0.607-0.469-2.897-0.621-4.221c-0.069-0.566-0.096-1.352-0.069-1.641
				c-0.455-0.193-1.31-0.248-1.545-0.248c-0.124,0-0.152,0.565-0.11,1.104c0.014,0.179,0.041,0.441,0.055,0.552
				c-0.538-0.897-1.6-1.655-2.718-1.655c-0.8,0-1.324,0.662-1.324,2.014V372.082z"/>
		</g>
		<g id="g3740" transform="translate(98.4971,395.4927)">
			<path id="path3742" fill="#373535" d="M-63.686,359.008c0.566,0,1.103-0.207,1.352-0.47c-0.014-0.386-0.317-1.034-0.8-0.855
				c-0.207,0.069-0.414,0.124-0.69,0.124c-0.372,0-0.689-0.165-0.689-0.51c0-0.262,0.193-0.455,1.117-1.103
				c0.662-0.483,0.925-0.911,0.925-1.518c0-1.007-0.952-2.097-2.607-2.097c-0.676,0-1.269,0.263-1.462,0.539
				c-0.248,0.414-0.055,1.227,0.221,1.09c0.359-0.18,0.952-0.373,1.434-0.373c0.455,0,0.745,0.207,0.745,0.483
				c0,0.235-0.207,0.442-1.048,1.035c-0.704,0.523-0.925,1.007-0.925,1.558c0,1.145,0.98,2.097,2.414,2.097H-63.686z"/>
		</g>
		<g id="g3744" transform="translate(115.0557,395.4927)">
			<path id="path3746" fill="#373535" d="M-75.486,359.008c0.566,0,1.104-0.207,1.352-0.47c-0.014-0.386-0.317-1.034-0.8-0.855
				c-0.207,0.069-0.414,0.124-0.69,0.124c-0.372,0-0.689-0.165-0.689-0.51c0-0.262,0.193-0.455,1.117-1.103
				c0.662-0.483,0.924-0.911,0.924-1.518c0-1.007-0.952-2.097-2.607-2.097c-0.675,0-1.269,0.263-1.462,0.539
				c-0.248,0.414-0.055,1.227,0.221,1.09c0.359-0.18,0.952-0.373,1.434-0.373c0.455,0,0.745,0.207,0.745,0.483
				c0,0.235-0.207,0.442-1.048,1.035c-0.704,0.523-0.924,1.007-0.924,1.558c0,1.145,0.979,2.097,2.414,2.097H-75.486z"/>
		</g>
		<g id="g3748" transform="translate(130.1748,378.0176)">
			<path id="path3750" fill="#373535" d="M-86.261,371.462c0.676,0,1.904,1.187,2.249,3.449c0.013,0.138,0.027,0.179,0.055,0.317
				c-0.152,0.055-0.359,0.096-0.566,0.096c-0.511,0-1.035-0.152-1.504-0.786c-0.482-0.675-0.69-1.517-0.69-2.193
				c0-0.579,0.166-0.883,0.442-0.883H-86.261z M-88.482,372.082c0,0.814,0.276,2.235,1.311,3.27c0.883,0.91,1.959,1.132,2.938,1.132
				c0.648,0,1.532-0.207,2.083-0.318c-0.138-0.607-0.469-2.897-0.621-4.221c-0.069-0.566-0.096-1.352-0.069-1.641
				c-0.455-0.193-1.31-0.248-1.545-0.248c-0.124,0-0.152,0.565-0.111,1.104c0.014,0.179,0.041,0.441,0.055,0.552
				c-0.538-0.897-1.6-1.655-2.718-1.655c-0.8,0-1.325,0.662-1.325,2.014V372.082z"/>
		</g>
		<g id="g3752" transform="translate(155.3271,389.252)">
			<path id="path3754" fill="#373535" d="M-104.186,363.456c0.635,1.02,1.463,1.793,2.621,1.793c0.98,0,1.297-0.911,1.118-2.208
				c-0.096-0.607-0.262-1.476-0.373-2.276c-0.096-0.677-0.166-1.283-0.152-1.697c-0.359-0.179-1.407-0.248-1.641-0.248
				c-0.096,0-0.111,0.759,0.014,1.559c0.11,0.662,0.345,1.862,0.455,2.552c0.07,0.399,0.055,0.883-0.331,0.883
				c-0.511,0-1.724-0.814-2.331-4.152c-0.042-0.276-0.152-0.441-0.304-0.538c-0.207-0.124-0.648-0.235-1.545-0.248
				c0.166,0.841,0.428,2.566,0.621,3.834c0.179,1.159,0.248,1.904,0.207,2.193c0.235,0.083,1.463,0.346,1.6,0.346
				c0.152,0,0.18-0.428,0.041-1.463c-0.013-0.097-0.027-0.248-0.041-0.33H-104.186z"/>
		</g>
		<g id="g3756" transform="translate(179.7119,378.0664)">
			<path id="path3758" fill="#373535" d="M-121.563,371.427c0.607,0,1.835,1.131,2.179,3.131c0.014,0.111,0.055,0.317,0.083,0.442
				c-0.18,0.166-0.414,0.275-0.786,0.275c-1.394,0-2.014-1.669-2.014-2.869c0-0.648,0.221-0.979,0.524-0.979H-121.563z
				 M-122.474,370.006c-0.882,0-1.434,0.786-1.434,2.138c0,2.235,1.393,4.29,3.738,4.29c0.414,0,0.786-0.11,1.021-0.248
				c0.124,0.635,0.414,2.593,0.428,3.173c0.386,0.069,1.214,0.193,1.586,0.193c0.152,0,0.193-0.152,0.138-0.496
				c-0.332-2.069-0.924-6.042-1.035-6.925c-0.083-0.745-0.096-1.476-0.083-1.889c-0.441-0.193-1.338-0.235-1.572-0.235
				c-0.097,0-0.152,0.635-0.125,1.2c0.014,0.179,0.041,0.441,0.041,0.483c-0.689-1.131-1.641-1.683-2.69-1.683H-122.474z"/>
		</g>
		<g id="g3760" transform="translate(204.6709,388.5781)">
			<path id="path3762" fill="#373535" d="M-139.35,363.936c0.731,1.628,1.6,1.987,2.166,1.987c0.18,0,0.455-0.111,0.579-0.249
				c0.055-0.455-0.303-1.366-0.621-1.71c-0.166,0.082-0.372,0.166-0.607,0.166c-0.47,0-1.394-0.732-1.973-3.877
				c-0.042-0.262-0.125-0.373-0.276-0.441c-0.234-0.138-1.159-0.248-1.6-0.262c0.206,1.131,0.565,3.435,0.703,4.787
				c0.041,0.345,0.055,0.979,0.028,1.228c0.262,0.124,1.297,0.359,1.531,0.359c0.125,0,0.221-0.759,0.027-1.987H-139.35z"/>
		</g>
		<g id="g3764" transform="translate(221.6143,378.0176)">
			<path id="path3766" fill="#373535" d="M-151.424,371.462c0.677,0,1.904,1.187,2.249,3.449c0.013,0.138,0.028,0.179,0.055,0.317
				c-0.152,0.055-0.359,0.096-0.566,0.096c-0.511,0-1.034-0.152-1.504-0.786c-0.483-0.675-0.69-1.517-0.69-2.193
				c0-0.579,0.165-0.883,0.441-0.883H-151.424z M-153.646,372.082c0,0.814,0.276,2.235,1.311,3.27
				c0.882,0.91,1.958,1.132,2.938,1.132c0.648,0,1.531-0.207,2.084-0.318c-0.138-0.607-0.469-2.897-0.621-4.221
				c-0.069-0.566-0.097-1.352-0.069-1.641c-0.455-0.193-1.31-0.248-1.545-0.248c-0.124,0-0.151,0.565-0.111,1.104
				c0.014,0.179,0.041,0.441,0.056,0.552c-0.539-0.897-1.6-1.655-2.718-1.655c-0.8,0-1.325,0.662-1.325,2.014V372.082z"/>
		</g>
	</g>
	<g id="g4625" transform="matrix(1.25,0,0,-1.25,19.117647,990)">
		<g id="g3612" transform="translate(207.5176,476.8384)">
			<path id="path3614" fill="#BBE6FB" d="M-141.379,301.038c0.455-5.302-7.889-10.349-18.638-11.271
				c-10.748-0.922-19.83,2.629-20.285,7.931c-0.455,5.304,7.889,10.35,18.637,11.272
				C-150.915,309.892-141.833,306.341-141.379,301.038"/>
		</g>
		<g id="g3616">
			<g id="g3618">
			</g>
			<g id="g3624">
				<g>
					<defs>
						<rect id="SVGID_1_" x="29.959" y="765.089" width="31.713" height="22.333"/>
					</defs>
					<clipPath id="SVGID_2_">
						<use xlink:href="#SVGID_1_"  overflow="visible"/>
					</clipPath>
					<g id="g3626" opacity="0.35" clip-path="url(#SVGID_2_)">
						<g id="g3628" transform="translate(138.0234,502.2778)">
							<path id="path3630" fill="#FFFFFF" d="M-91.854,282.909c-4.1,0.067-8.898-1.561-12.468-3.086
								c-0.371-1.071-0.571-2.209-0.571-3.39c0-6.29,5.679-11.389,12.686-11.389c7.006,0,12.686,5.099,12.686,11.389
								c0,1.991-0.57,3.861-1.57,5.489C-83.948,282.366-87.877,282.844-91.854,282.909"/>
						</g>
					</g>
				</g>
			</g>
		</g>
		<g id="g3632" transform="translate(136.792,502.2827)">
			<path id="path3634" fill="#FFFFFF" d="M-90.977,282.905c-2.27,0.139-6.182-1.046-9.445-2.227c-0.496-1.17-0.771-2.45-0.771-3.793
				c0-5.511,4.997-9.979,10.282-9.979c5.251,0,9.897,4.475,10.282,9.979c0.125,1.792-0.492,3.48-1.348,4.936
				C-85.358,282.418-88.947,282.781-90.977,282.905"/>
		</g>
		<g id="g3636" transform="translate(116.5205,483.8501)">
			<path id="path3638" fill="#373535" d="M-76.53,296.041c0.279,0.617,0.701,0.919,1.109,1.436
				c-0.045,0.122-0.145,0.522-0.145,0.661c0,0.62,0.503,1.123,1.123,1.123c0.146,0,0.286-0.029,0.414-0.08
				c1.858,1.416,4.304,2.033,6.761,1.483c0.225-0.05,0.445-0.112,0.661-0.179c-2.429,0.337-5.167-0.523-7.029-2.027
				c0.057-0.134,0.214-0.518,0.214-0.672c0-0.62-0.401-0.771-1.021-0.771c-0.141,0-0.275,0.027-0.4,0.074
				c-0.421-0.565-0.937-1.641-1.189-2.314c1.03-0.921,1.961-1.255,3.173-1.708c-0.003,0.058,0.042,0.111,0.042,0.17
				c0,1.868,1.645,3.387,3.514,3.387c1.675,0,3.062-1.218,3.332-2.815c0.836,0.532,1.644,0.939,2.259,1.727
				c-0.144,0.175-0.298,0.671-0.298,0.916c0,0.562,0.456,1.019,1.019,1.019c0.08,0,0.156-0.012,0.23-0.029
				c0.313,0.643,0.548,1.323,0.7,2.026c-2.923,2.163-8.577,1.868-8.577,1.868s-4.5,0.235-7.546-1.25
				C-77.981,298.618-77.395,297.222-76.53,296.041"/>
		</g>
		<g id="g3640" transform="translate(165.1299,486.7837)">
			<path id="path3642" fill="#373535" d="M-111.171,293.95c0.207-0.186,0.319-0.35,0.408-0.509c0.273-0.491-0.275-0.941-0.838-0.941
				c-0.057,0-0.113,0.007-0.167,0.017c-0.634-0.99-1.744-2.26-2.729-2.899c1.512-0.248,2.937-0.854,4.072-1.789
				c0.826,1.48,1.46,3.618,1.46,5.433c0,1.382-0.61,2.395-1.531,3.138C-110.545,295.66-110.94,294.625-111.171,293.95"/>
		</g>
		<g id="g3644" transform="translate(122.4229,454.1587)">
			<path id="path3646" fill="#373535" d="M-80.737,317.2c0.504,1.391,1.743,2.469,2.915,3.418c-0.171,0.235-0.429,0.816-0.536,1.091
				c-1.429,0.435-2.695,1.249-3.675,2.326c-0.007-0.031-0.016-0.062-0.023-0.093c-0.185-0.828-0.219-1.657-0.127-2.466
				c0.685-0.127,1.203-0.727,1.203-1.448c0-0.429-0.375-1.048-0.666-1.318C-81.33,318.025-81.115,317.696-80.737,317.2"/>
		</g>
		<g id="g3648" transform="translate(122.1143,450.0942)">
			<path id="path3650" fill="#373535" d="M-80.517,320.097c-0.6,0.597-1.016,1.789-1.406,2.537
				c-0.073-0.011-0.148-0.019-0.224-0.019c-0.815,0-1.668,0.684-1.475,1.475c0.107,0.438,0.409,0.725,0.901,0.964
				c-0.112,0.907-0.143,2.211,0.068,3.154c0.06,0.27,0.188,0.396,0.273,0.654c-0.899,1.315-1.48,3.043-1.48,4.756
				c0,0.063,0.003,0.125,0.005,0.186c-1.52-0.761-2.659-1.962-2.659-3.852c0-4.181,2.408-8.281,5.99-9.889
				C-80.522,320.074-80.519,320.086-80.517,320.097"/>
		</g>
		<g id="g3652" transform="translate(152.7705,470.2056)">
			<path id="path3654" fill="#373535" d="M-102.363,305.765c-0.463-1.317-1.715-2.263-3.19-2.263c-0.789,0-1.513,0.272-2.088,0.725
				c-1.186-0.923-2.262-2.546-2.809-3.953c0.246-0.264,0.416-0.482,0.692-0.716c0.83-0.216,1.972,0,2.87,0
				c3.612,0,6.811,1.607,8.645,4.425C-99.462,304.827-100.901,305.631-102.363,305.765"/>
		</g>
		<g id="g3656" transform="translate(116.1982,482.1489)">
			<path id="path3658" fill="#1287B1" d="M-76.301,297.253c0.279,0.617,0.627,1.188,1.036,1.705
				c-0.045,0.122-0.072,0.254-0.072,0.393c0,0.62,0.503,1.123,1.123,1.123c0.146,0,0.286-0.029,0.414-0.08
				c1.858,1.416,4.304,2.033,6.761,1.484c0.225-0.05,0.445-0.112,0.661-0.179c-2.429,0.337-4.939-0.408-6.801-1.911
				c0.057-0.134,0.088-0.282,0.088-0.436c0-0.62-0.503-1.122-1.122-1.122c-0.141,0-0.275,0.027-0.4,0.074
				c-0.421-0.565-0.765-1.189-1.017-1.862c0.885-0.953,1.97-1.707,3.182-2.16c-0.003,0.058-0.009,0.115-0.009,0.174
				c0,1.868,1.515,3.384,3.384,3.384c1.675,0,3.062-1.218,3.332-2.816c0.836,0.531,1.578,1.214,2.194,2.002
				c-0.144,0.175-0.233,0.396-0.233,0.641c0,0.562,0.456,1.018,1.019,1.018c0.08,0,0.156-0.011,0.23-0.029
				c0.313,0.642,0.548,1.324,0.7,2.026c-2.923,2.163-8.577,1.868-8.577,1.868s-4.5,0.234-7.546-1.25
				C-77.751,299.831-77.165,298.435-76.301,297.253"/>
		</g>
		<g id="g3660" transform="translate(165.6787,486.2036)">
			<path id="path3662" fill="#1287B1" d="M-111.563,294.364c0.207-0.186,0.339-0.454,0.339-0.753c0-0.563-0.457-1.019-1.019-1.019
				c-0.057,0-0.112,0.007-0.167,0.017c-0.634-0.99-1.473-1.835-2.46-2.473c1.457-0.228,2.829-0.846,3.964-1.782
				c0.826,1.48,1.298,3.185,1.298,5.001c0,1.382-0.61,2.395-1.531,3.138C-111.187,295.752-111.331,295.038-111.563,294.364"/>
		</g>
		<g id="g3664" transform="translate(122.9639,452.9946)">
			<path id="path3666" fill="#1287B1" d="M-81.122,318.03c0.504,1.391,1.379,2.639,2.552,3.587
				c-0.172,0.235-0.313,0.491-0.421,0.767c-1.429,0.434-2.695,1.248-3.675,2.326c-0.007-0.031-0.016-0.062-0.023-0.093
				c-0.185-0.828-0.219-1.657-0.127-2.467c0.685-0.128,1.203-0.727,1.203-1.449c0-0.427-0.184-0.813-0.475-1.082
				C-81.825,319.059-81.5,318.526-81.122,318.03"/>
		</g>
		<g id="g3668" transform="translate(122.1006,450.1528)">
			<path id="path3670" fill="#1287B1" d="M-80.507,320.055c-0.601,0.598-1.105,1.283-1.495,2.031
				c-0.073-0.011-0.148-0.018-0.224-0.018c-0.815,0-1.476,0.661-1.476,1.475c0,0.584,0.341,1.088,0.833,1.327
				c-0.112,0.907-0.074,1.848,0.137,2.791c0.06,0.27,0.134,0.533,0.218,0.79c-0.899,1.316-1.426,2.906-1.426,4.62
				c0,0.063,0.003,0.124,0.004,0.186c-1.52-0.762-2.659-1.963-2.659-3.852c0-4.181,2.496-7.776,6.079-9.384
				C-80.512,320.033-80.51,320.044-80.507,320.055"/>
		</g>
		<g id="g3672" transform="translate(152.4482,468.5063)">
			<path id="path3674" fill="#1287B1" d="M-102.134,306.976c-0.463-1.317-1.715-2.263-3.19-2.263c-0.789,0-1.513,0.272-2.088,0.725
				c-1.186-0.923-2.081-2.182-2.628-3.59c0.245-0.264,0.507-0.513,0.783-0.747c0.829-0.216,1.7-0.332,2.598-0.332
				c3.612,0,6.787,1.865,8.622,4.683C-99.256,306.296-100.671,306.841-102.134,306.976"/>
		</g>
		<g id="g3676">
			<g id="g3678">
			</g>
			<g id="g3684">
				<g>
					<defs>
						<rect id="SVGID_3_" x="38.721" y="768.193" width="16.487" height="16.472"/>
					</defs>
					<clipPath id="SVGID_4_">
						<use xlink:href="#SVGID_3_"  overflow="visible"/>
					</clipPath>
					<g id="g3686" clip-path="url(#SVGID_4_)">
						<g id="g3688" transform="translate(152.8613,471.5415)">
							<path id="path3690" fill="#FFFFFF" d="M-102.428,304.813l3.126,0.746l-3.138,0.16l2.554,1.952l-2.898-1.039l1.969,2.729
								l-2.72-1.808l0.951,3.195l-1.868-2.633l-0.043,3.327l-1.229-2.964l-1.025,2.999l0.055-3.533l-1.771,3.167l0.958-3.363
								l-2.872,2.089l2.25-2.828l-3.566,1.311l2.814-2.082l-3.609-0.111l3.69-0.952l-3.694-0.798l3.646-0.265l-3.075-1.968
								l3.166,1.147l-2.197-2.782l2.776,2.239l-1-3.733l2.143,3.038l-0.3-3.588l1.216,3.253l1.036-3.419l0.252,3.43l1.537-2.926
								l-0.908,3.347l2.814-2.18l-1.817,2.779l3.088-1.202l-2.361,2.32l3.165-0.249L-102.428,304.813z"/>
						</g>
					</g>
				</g>
			</g>
		</g>
		<g id="g3692">
			<g id="g3694">
			</g>
			<g id="g3700">
				<g>
					<defs>
						<rect id="SVGID_5_" x="9.522" y="768.152" width="76.294" height="22.205"/>
					</defs>
					<clipPath id="SVGID_6_">
						<use xlink:href="#SVGID_5_"  overflow="visible"/>
					</clipPath>
					<g id="g3702" opacity="0.35" clip-path="url(#SVGID_6_)">
						<g id="g3704" transform="translate(37.042,450.7251)">
							<path id="path3706" fill="#373535" d="M-19.89,319.647c9.695,9.695,17.439,12.688,24.466,14.055
								c0.93,0.181,1.106,2.213,1.106,2.213s0.13-1.497,0.78-1.692c0.651-0.195,1.496,2.343,1.496,2.343s-0.781-2.278,0-2.408
								c0.781-0.13,2.212,2.212,2.212,2.212s-0.585-2.017-0.195-2.147c0.39-0.13,2.342,2.928,2.342,2.928s-1.171-2.017-0.065-2.212
								c1.107-0.195,2.72,1.377,2.72,1.377s-1.269-1.438-0.703-1.637c2.408-0.846,4.356,2.283,4.356,2.283s-0.451-1.372-1.623-2.869
								c2.538-0.651,4.422,3.172,4.422,3.172l-1.884-3.823c0.976-0.521,4.88,3.969,4.88,3.969s-2.017-3.514-3.188-4.229
								c0.65-0.521,2.993,1.561,2.993,1.561s-1.887-2.342-1.171-2.472c1.041-0.846,4.88,4.359,4.88,4.359s-1.496-3.058-3.709-5.466
								c1.849-0.925,6.442,5.01,6.442,5.01s-0.13-1.887-3.448-4.88c2.473,0.325,5.661,5.011,5.661,5.011s-1.171-3.514-3.97-5.986
								c2.428,0.252,6.312,6.246,6.312,6.246s-1.496-4.164-4.555-6.572c3.384-0.748,8.264,4.295,8.264,4.295
								s-1.92-3.579-4.425-5.043c2.798-1.074,6.637,3.351,6.637,3.351s-3.839-5.921-9.955-5.661
								c-2.007,0.085-8.078,6.089-21.083,5.596C-7.072,331.88-10.715,324.592-19.89,319.647"/>
						</g>
					</g>
				</g>
			</g>
		</g>
		<g id="g3708" transform="translate(38.4248,453.2876)">
			<path id="path3710" fill="#373535" d="M-20.876,317.821c9.695,9.695,17.439,12.688,24.466,14.055
				c0.93,0.181,1.106,2.212,1.106,2.212s0.129-1.497,0.78-1.691c0.651-0.195,1.496,2.342,1.496,2.342s-0.781-2.278,0-2.408
				c0.781-0.13,2.213,2.212,2.213,2.212s-0.586-2.017-0.195-2.147c0.391-0.13,2.343,2.928,2.343,2.928s-1.171-2.018-0.065-2.212
				c1.106-0.195,2.72,1.377,2.72,1.377s-1.269-1.438-0.703-1.637c2.408-0.846,4.355,2.283,4.355,2.283s-0.451-1.372-1.621-2.869
				c2.537-0.651,4.422,3.173,4.422,3.173l-1.885-3.823c0.976-0.52,4.88,3.969,4.88,3.969s-2.016-3.513-3.188-4.229
				c0.65-0.521,2.993,1.562,2.993,1.562s-1.887-2.343-1.171-2.473c1.041-0.846,4.88,4.359,4.88,4.359s-1.497-3.058-3.709-5.466
				c1.85-0.925,6.442,5.011,6.442,5.011s-0.13-1.888-3.449-4.88c2.473,0.325,5.661,5.011,5.661,5.011s-1.171-3.514-3.97-5.987
				c2.428,0.253,6.312,6.247,6.312,6.247s-1.496-4.164-4.554-6.572c3.384-0.748,8.264,4.294,8.264,4.294s-1.92-3.578-4.425-5.043
				c2.798-1.073,6.637,3.351,6.637,3.351s-3.839-5.921-9.956-5.661c-2.007,0.086-8.077,6.089-21.083,5.596
				C-8.057,330.054-11.701,322.766-20.876,317.821"/>
		</g>
		<g id="g3712">
			<g id="g3714">
			</g>
			<g id="g3720">
				<g>
					<defs>
						<rect id="SVGID_7_" x="9.736" y="753.484" width="71.617" height="26.515"/>
					</defs>
					<clipPath id="SVGID_8_">
						<use xlink:href="#SVGID_7_"  overflow="visible"/>
					</clipPath>
					<g id="g3722" opacity="0.35" clip-path="url(#SVGID_8_)">
						<g id="g3724" transform="translate(36.1592,447.0356)">
							<path id="path3726" fill="#373535" d="M-19.262,322.277c5.124-2.571,9.81,0.39,15.714-1.275
								c4.489-1.265,9.955-2.825,17.373-1.751c7.418,1.073,13.762,4.294,16.789,10.053c0.944,2.57,4.782-0.586,4.782-0.586
								s-2.798,1.171-2.733,0.619c0.065-0.553,4.197-2.473,4.197-2.473s-3.742,1.171-3.514,0.293
								c0.228-0.878,4.685-4.392,4.685-4.392s-5.043,3.839-5.466,3.318c-0.423-0.521,2.147-2.636,2.147-2.636
								s-4.262,2.636-5.759,1.859c-1.077-0.559,4.425-4.169,4.425-4.169s-3.579,2.734-4.425,2.018
								c-0.846-0.716,4.034-6.572,4.034-6.572s-5.531,5.986-6.084,5.694c-0.554-0.293,1.529-3.157,1.529-3.157
								s-2.733,2.994-3.481,2.473c-0.748-0.521,3.904-8.296,3.904-8.296s-5.043,7.971-7.125,6.637c3.27-7.174,2.05-8.199,2.05-8.199
								s-0.417,7.319-4.49,7.125c-2.05-0.098,0.976-5.466,0.976-5.466s-2.785,4.903-4.639,4.805c3.418-6.469,2.2-9.1,2.2-9.1
								s0.565,5.525-4.071,8.599c1.757-1.561-1.102-8.599-1.102-8.599s2.515,10.371-1.855,8.394
								c-0.69-0.312-0.049-5.173-0.049-5.173s-0.878,5.563-2.196,5.27c-0.768-0.171-4.88-7.711-4.88-7.711s3.368,8.15,2.343,7.808
								c-0.746-0.249-2.147-3.612-2.147-3.612s0.683,3.319,0,3.514c-0.683,0.195-4.49-3.514-4.49-3.514s2.83,3.319,2.343,4.002
								c-0.74,1.036-1.607,1.084-2.636,0.683c-1.497-0.583-3.513-3.318-3.513-3.318s2.01,2.77,1.659,3.807
								c-0.564,1.666-6.344-3.221-6.344-3.221s3.416,3.221,2.636,3.904c-0.78,0.683-5.02,0.472-6.344,0.476
								C-16.724,320.422-18.077,321.337-19.262,322.277"/>
						</g>
					</g>
				</g>
			</g>
		</g>
		<g id="g3728" transform="translate(35.4795,449.0728)">
			<path id="path3730" fill="#373535" d="M-18.777,320.825c5.124-2.57,9.81,0.391,15.714-1.274
				c4.489-1.265,9.956-2.825,17.374-1.752c7.418,1.074,13.761,4.295,16.788,10.053c0.944,2.57,4.782-0.586,4.782-0.586
				s-2.798,1.171-2.733,0.618c0.065-0.552,4.197-2.472,4.197-2.472s-3.742,1.171-3.514,0.292c0.228-0.878,4.685-4.391,4.685-4.391
				s-5.043,3.839-5.466,3.318c-0.422-0.52,2.147-2.635,2.147-2.635s-4.262,2.635-5.759,1.859c-1.077-0.559,4.425-4.168,4.425-4.168
				s-3.579,2.733-4.425,2.017c-0.846-0.716,4.035-6.572,4.035-6.572s-5.532,5.987-6.084,5.694s1.529-3.156,1.529-3.156
				s-2.733,2.993-3.481,2.473c-0.748-0.521,3.904-8.296,3.904-8.296s-5.043,7.971-7.125,6.637c3.27-7.174,2.05-8.199,2.05-8.199
				s-0.417,7.319-4.49,7.125c-2.05-0.098,0.976-5.465,0.976-5.465s-2.785,4.903-4.639,4.805c3.418-6.469,2.2-9.1,2.2-9.1
				s0.565,5.525-4.071,8.599c1.757-1.561-1.102-8.599-1.102-8.599s2.515,10.371-1.854,8.394c-0.69-0.313-0.049-5.173-0.049-5.173
				s-0.879,5.563-2.196,5.271c-0.768-0.171-4.881-7.711-4.881-7.711s3.368,8.15,2.343,7.808c-0.746-0.248-2.147-3.611-2.147-3.611
				s0.683,3.318,0,3.514c-0.683,0.195-4.49-3.514-4.49-3.514s2.831,3.318,2.343,4.002c-0.74,1.036-1.607,1.084-2.635,0.683
				c-1.498-0.583-3.514-3.318-3.514-3.318s2.01,2.77,1.659,3.806c-0.564,1.666-6.344-3.221-6.344-3.221s3.416,3.221,2.635,3.904
				c-0.78,0.684-5.02,0.472-6.344,0.476C-16.239,318.971-17.592,319.886-18.777,320.825"/>
		</g>
	</g>
</g>
</svg>
