<?xml version="1.0" encoding="utf-8"?>
<!-- Generator: Adobe Illustrator 21.0.0, SVG Export Plug-In . SVG Version: 6.00 Build 0)  -->
<svg version="1.1" id="Layer_1" xmlns="http://www.w3.org/2000/svg" xmlns:xlink="http://www.w3.org/1999/xlink" x="0px" y="0px"
	 viewBox="0 0 250 115" style="enable-background:new 0 0 250 115;" xml:space="preserve">
<style type="text/css">
	.st0{fill:#049ED7;}
</style>
<g>
	<path class="st0" d="M104.7,96.5l0,7.1l0.5,0.1c1.6,0.3,3.3,0.5,4.9,0.6c1.4,0.1,2.9,0.2,4.4,0.1c1.4-0.1,2.8-0.4,4.1-0.8
		c1.6-0.4,3-1.2,4.2-2.3c1.1-0.9,2-2.2,2.5-3.5c0.9-2.3,0.9-4.8,0-7.1c-0.5-1.2-1.2-2.2-2.2-3.1c-0.9-0.8-2-1.5-3.2-1.9l-5.4-2
		c-0.6-0.3-1.2-0.8-1.5-1.4c-0.2-0.5-0.2-1.1,0.1-1.6c0.1-0.2,0.2-0.3,0.4-0.5c0.2-0.2,0.3-0.3,0.5-0.4c0.1,0,0.2-0.1,0.2-0.1
		c0.6-0.3,1.2-0.5,1.9-0.6c1.1-0.2,2.3-0.2,3.4,0c1.3,0.1,2.7,0.4,4,0.7l0.3,0.1v-6.6l-0.5-0.1c-1.3-0.3-2.7-0.6-4-0.7
		c-1.8-0.2-3.5-0.2-5.3,0c-2.2,0.2-4.3,1.1-6.1,2.5c-1.2,0.9-2.1,2.2-2.6,3.6c-0.8,2.2-0.8,4.5,0,6.7c0.4,1.1,1,2,1.9,2.8
		c0.7,0.7,1.5,1.3,2.4,1.8c1.2,0.6,2.4,1.1,3.7,1.4c0.4,0.1,0.8,0.3,1.3,0.4l0.6,0.2c0.1,0,0.1,0,0.2,0.1c0.6,0.2,1.2,0.6,1.7,1
		c0.3,0.3,0.6,0.7,0.8,1.1c0.1,0.4,0.1,0.8,0,1.2c-0.2,0.6-0.6,1.2-1.2,1.5c-0.6,0.3-1.3,0.5-2,0.6c-1,0.2-2.1,0.2-3.2,0.2
		c-1.4-0.1-2.8-0.3-4.1-0.6c-0.7-0.1-1.4-0.3-2.1-0.5L104.7,96.5"/>
	<path class="st0" d="M75.6,103.3v-8.2l-0.2,0.1c-1.9,0.9-3.9,1.4-5.9,1.5c-2.1,0.2-4.3-0.5-6-1.8c-1.2-0.9-2.1-2.2-2.6-3.7
		c-0.5-1.6-0.6-3.3-0.2-4.9c0.4-1.7,1.3-3.2,2.7-4.2c1.2-1,2.6-1.6,4.2-1.8c2.7-0.3,5.5,0.2,7.9,1.5l0.2,0.1v-8.3l-0.4-0.1
		c-2.4-0.8-5-1.1-7.5-1c-2.3,0.1-4.6,0.6-6.7,1.5c-2.1,1-4,2.4-5.5,4.2c-4.6,5.9-4.8,14.1-0.3,20.1c2.2,2.8,5.3,4.8,8.7,5.6
		c3.6,0.9,7.5,0.8,11-0.4L75.6,103.3"/>
	<polyline class="st0" points="94.1,103.9 94.1,72.9 86.3,72.9 86.3,103.9 94.1,103.9 	"/>
	<path class="st0" d="M36,48.1c0.1,1,0.5,1.9,1.2,2.5c0.7,0.7,1.7,1,2.6,1c1,0,1.9-0.4,2.6-1c0.7-0.7,1.2-1.6,1.2-2.5v-8.6
		c0-1-0.5-1.9-1.2-2.6c-0.7-0.7-1.7-1.1-2.7-1.1c-1,0-2,0.4-2.7,1.1c-0.7,0.7-1.1,1.6-1.2,2.6L36,48.1"/>
	<path class="st0" d="M57.3,48.1c0.1,1,0.5,1.9,1.2,2.5c0.7,0.7,1.7,1,2.6,1c1,0,1.9-0.4,2.6-1c0.7-0.7,1.2-1.6,1.2-2.5V28.9
		c0-1-0.5-1.9-1.2-2.6c-0.7-0.7-1.7-1.1-2.7-1.1s-2,0.4-2.7,1.1c-0.7,0.7-1.1,1.6-1.2,2.6L57.3,48.1"/>
	<path class="st0" d="M78.6,55.8c0.1,1,0.5,1.9,1.2,2.5c0.7,0.7,1.7,1,2.6,1c1,0,1.9-0.4,2.6-1c0.7-0.7,1.2-1.6,1.2-2.5V14.3
		c0-1-0.5-1.9-1.2-2.6c-0.7-0.7-1.7-1.1-2.7-1.1c-1,0-2,0.4-2.7,1.1s-1.1,1.6-1.2,2.6V55.8"/>
	<path class="st0" d="M99.9,48.1c0.1,1,0.5,1.9,1.2,2.5c0.7,0.7,1.7,1,2.6,1s1.9-0.4,2.6-1c0.7-0.7,1.2-1.6,1.2-2.5V28.9
		c0-1-0.5-1.9-1.2-2.6c-0.7-0.7-1.7-1.1-2.7-1.1s-2,0.4-2.7,1.1c-0.7,0.7-1.1,1.6-1.2,2.6V48.1"/>
	<path class="st0" d="M121.1,48.1c0.1,1,0.5,1.9,1.2,2.5c0.7,0.7,1.7,1,2.6,1c1,0,1.9-0.4,2.6-1c0.7-0.7,1.2-1.6,1.2-2.5v-8.6
		c0-1-0.5-1.9-1.2-2.6c-0.7-0.7-1.7-1.1-2.7-1.1c-1,0-2,0.4-2.7,1.1c-0.7,0.7-1.1,1.6-1.2,2.6L121.1,48.1"/>
	<path class="st0" d="M142.5,48.1c0.1,1,0.5,1.9,1.2,2.5c0.7,0.7,1.7,1,2.6,1c1,0,1.9-0.4,2.6-1c0.7-0.7,1.2-1.6,1.2-2.5V28.9
		c0-1-0.5-1.9-1.2-2.6c-0.7-0.7-1.7-1.1-2.7-1.1c-1,0-2,0.4-2.7,1.1c-0.7,0.7-1.1,1.6-1.2,2.6V48.1"/>
	<path class="st0" d="M163.7,55.8c0.1,1,0.5,1.9,1.2,2.5c0.7,0.7,1.7,1,2.6,1c1,0,1.9-0.4,2.6-1c0.7-0.7,1.2-1.6,1.2-2.5V14.3
		c0-1-0.5-1.9-1.2-2.6c-0.7-0.7-1.7-1.1-2.7-1.1c-1,0-2,0.4-2.7,1.1c-0.7,0.7-1.1,1.6-1.2,2.6V55.8"/>
	<path class="st0" d="M185,48.1c0.1,1,0.5,1.9,1.2,2.5c0.7,0.7,1.7,1,2.6,1s1.9-0.4,2.6-1c0.7-0.7,1.2-1.6,1.2-2.5V28.9
		c0-1-0.5-1.9-1.2-2.6c-0.7-0.7-1.7-1.1-2.7-1.1c-1,0-2,0.4-2.7,1.1c-0.7,0.7-1.1,1.6-1.2,2.6V48.1"/>
	<path class="st0" d="M206.3,48.1c0.1,1,0.5,1.9,1.2,2.5c0.7,0.7,1.7,1,2.6,1c1,0,1.9-0.4,2.6-1c0.7-0.7,1.2-1.6,1.2-2.5v-8.6
		c0-1-0.5-1.9-1.2-2.6c-0.7-0.7-1.7-1.1-2.7-1.1c-1,0-2,0.4-2.7,1.1c-0.7,0.7-1.1,1.6-1.2,2.6V48.1"/>
	<path class="st0" d="M157.1,103.3v-8.2l-0.2,0.1c-1.9,0.9-3.9,1.4-5.9,1.5c-2.1,0.2-4.3-0.5-6-1.8c-1.2-0.9-2.1-2.2-2.6-3.7
		c-0.5-1.6-0.6-3.3-0.2-4.9c0.4-1.7,1.3-3.2,2.7-4.2c1.2-1,2.6-1.6,4.2-1.8c2.7-0.3,5.5,0.2,7.9,1.5l0.2,0.1v-8.3l-0.4-0.1
		c-2.4-0.8-5-1.1-7.5-1c-2.3,0.1-4.6,0.6-6.7,1.5c-2.1,1-4,2.4-5.5,4.2c-4.6,5.9-4.8,14.1-0.3,20.1c2.2,2.8,5.3,4.8,8.7,5.6
		c3.6,0.9,7.5,0.8,11-0.4L157.1,103.3"/>
	<path class="st0" d="M165.3,88.4c0.1,4.9,2.3,9.5,6.2,12.5c3.8,3,8.8,4.2,13.6,3.1c6.5-1.2,11.5-6.3,12.7-12.8
		c1.2-6.5-1.8-13-7.5-16.4c-5-3.1-11.3-3.3-16.4-0.5C168.7,77.2,165.4,82.5,165.3,88.4 M176.6,82.1c1.7-1.3,3.8-2,6-1.7
		c2.1,0.2,4.1,1.3,5.4,3c1.3,1.7,2,3.8,1.7,6c-0.2,2.1-1.3,4.1-3,5.4c-1.7,1.3-3.8,2-6,1.7c-2.1-0.2-4.1-1.3-5.5-3
		c-1.3-1.7-2-3.8-1.7-6C173.8,85.4,174.9,83.4,176.6,82.1"/>
</g>
</svg>
