<?xml version="1.0" encoding="utf-8"?>
<!-- Generator: Adobe Illustrator 16.0.0, SVG Export Plug-In . SVG Version: 6.00 Build 0)  -->
<!DOCTYPE svg PUBLIC "-//W3C//DTD SVG 1.1//EN" "http://www.w3.org/Graphics/SVG/1.1/DTD/svg11.dtd">
<svg version="1.1" id="Layer_1" xmlns="http://www.w3.org/2000/svg" xmlns:xlink="http://www.w3.org/1999/xlink" x="0px" y="0px"
	 width="160px" height="60px" viewBox="0 0 160 60" enable-background="new 0 0 160 60" xml:space="preserve">
<g>
	<path fill="#C82027" d="M71.565,46.2l-0.013,2.952l0.216,0.037c0.678,0.126,1.361,0.214,2.049,0.263
		c0.602,0.056,1.207,0.068,1.811,0.036c0.577-0.042,1.147-0.149,1.699-0.321c0.648-0.184,1.25-0.504,1.763-0.94
		c0.462-0.395,0.816-0.901,1.027-1.472c0.368-0.955,0.36-2.013-0.021-2.963c-0.201-0.493-0.516-0.93-0.921-1.275
		c-0.391-0.352-0.851-0.62-1.35-0.786l-2.226-0.826c-0.266-0.113-0.482-0.318-0.608-0.579c-0.098-0.216-0.089-0.466,0.025-0.675
		c0.04-0.073,0.09-0.141,0.148-0.2c0.068-0.069,0.145-0.13,0.228-0.18c0.033-0.021,0.066-0.04,0.101-0.057
		c0.249-0.123,0.517-0.201,0.793-0.231c0.471-0.068,0.95-0.063,1.42,0.015c0.555,0.061,1.105,0.159,1.646,0.295l0.115,0.025v-2.723
		l-0.213-0.046c-0.552-0.132-1.111-0.231-1.674-0.298c-0.73-0.098-1.47-0.101-2.201-0.009c-0.926,0.084-1.808,0.439-2.535,1.019
		c-0.493,0.387-0.868,0.904-1.083,1.492c-0.323,0.896-0.324,1.878-0.002,2.775c0.166,0.446,0.432,0.848,0.778,1.174
		c0.3,0.29,0.639,0.535,1.007,0.73c0.485,0.261,0.999,0.463,1.532,0.602c0.176,0.053,0.351,0.108,0.524,0.167l0.264,0.097
		c0.025,0.01,0.05,0.02,0.076,0.031c0.26,0.093,0.498,0.239,0.697,0.43c0.139,0.13,0.246,0.29,0.312,0.468
		c0.041,0.163,0.042,0.333,0.002,0.496c-0.083,0.262-0.267,0.482-0.51,0.611c-0.265,0.138-0.552,0.228-0.849,0.266
		c-0.435,0.069-0.876,0.091-1.316,0.066c-0.576-0.043-1.149-0.12-1.717-0.229c-0.297-0.061-0.592-0.13-0.885-0.207L71.565,46.2"/>
	<path fill="#C82027" d="M59.462,49.044v-3.427l-0.067,0.029c-0.772,0.374-1.613,0.588-2.47,0.627
		c-0.891,0.07-1.776-0.191-2.487-0.733c-0.507-0.392-0.885-0.928-1.083-1.538c-0.218-0.665-0.244-1.377-0.073-2.056
		c0.158-0.693,0.547-1.313,1.103-1.758c0.492-0.412,1.094-0.672,1.731-0.747c1.127-0.125,2.267,0.089,3.272,0.614l0.074,0.038
		v-3.447l-0.157-0.042c-1.006-0.323-2.063-0.461-3.119-0.408c-0.962,0.024-1.909,0.241-2.786,0.637
		c-0.885,0.405-1.665,1.008-2.28,1.762c-1.924,2.434-1.975,5.856-0.125,8.346c0.91,1.165,2.188,1.986,3.626,2.332
		c1.515,0.369,3.103,0.313,4.588-0.161L59.462,49.044"/>
	<polyline fill="#C82027" points="67.17,49.271 67.17,36.416 63.93,36.416 63.93,49.271 67.17,49.271 	"/>
	<polyline fill="#C82027" points="115.143,47.778 115.143,47.584 113.771,47.584 113.771,47.778 114.342,47.778 114.342,49.271 
		114.572,49.271 114.572,47.778 115.143,47.778 	"/>
	<polyline fill="#C82027" points="115.276,49.271 115.495,49.271 115.495,47.924 115.523,47.924 116.017,49.271 116.236,49.271 
		116.77,47.859 116.77,49.271 117,49.271 117,47.584 116.644,47.584 116.145,48.974 115.638,47.584 115.276,47.584 115.276,49.271 	
		"/>
	<path fill="#12383D" d="M43,26.085c0.03,0.405,0.212,0.783,0.509,1.059s0.688,0.429,1.094,0.429c0.405,0,0.796-0.153,1.093-0.429
		s0.479-0.654,0.509-1.059v-3.563c-0.016-0.415-0.192-0.806-0.491-1.093c-0.298-0.287-0.697-0.448-1.111-0.448
		s-0.813,0.161-1.112,0.448S43.016,22.108,43,22.523V26.085"/>
	<path fill="#12383D" d="M51.874,26.085c0.03,0.405,0.212,0.783,0.509,1.059s0.688,0.429,1.094,0.429
		c0.405,0,0.796-0.153,1.093-0.429s0.479-0.654,0.509-1.059v-7.987c-0.016-0.414-0.192-0.806-0.491-1.093s-0.697-0.448-1.111-0.448
		c-0.415,0-0.813,0.161-1.112,0.448s-0.475,0.679-0.491,1.093V26.085"/>
	<path fill="#12383D" d="M60.7,29.302c0.03,0.404,0.212,0.783,0.509,1.059s0.688,0.429,1.093,0.429s0.796-0.153,1.094-0.429
		s0.479-0.654,0.509-1.059V12.026c-0.016-0.415-0.192-0.806-0.491-1.093c-0.299-0.288-0.697-0.448-1.112-0.448
		s-0.813,0.16-1.111,0.448c-0.299,0.287-0.475,0.679-0.491,1.093V29.302"/>
	<path fill="#12383D" d="M69.572,26.085c0.03,0.405,0.212,0.783,0.509,1.059s0.688,0.429,1.093,0.429
		c0.406,0,0.796-0.153,1.094-0.429s0.479-0.654,0.509-1.059v-7.987c-0.016-0.414-0.192-0.806-0.491-1.093s-0.697-0.448-1.112-0.448
		c-0.414,0-0.813,0.161-1.111,0.448s-0.475,0.679-0.491,1.093V26.085"/>
	<path fill="#12383D" d="M78.404,26.085c0.03,0.405,0.212,0.783,0.51,1.059s0.688,0.429,1.093,0.429
		c0.406,0,0.796-0.153,1.094-0.429s0.479-0.654,0.509-1.059v-3.563c-0.017-0.415-0.192-0.806-0.491-1.093s-0.697-0.448-1.112-0.448
		s-0.813,0.161-1.112,0.448c-0.298,0.287-0.475,0.679-0.491,1.093V26.085"/>
	<path fill="#12383D" d="M87.27,26.085c0.03,0.405,0.212,0.783,0.509,1.059s0.688,0.429,1.094,0.429
		c0.405,0,0.796-0.153,1.093-0.429s0.479-0.654,0.509-1.059v-7.987c-0.016-0.414-0.192-0.806-0.491-1.093s-0.697-0.448-1.111-0.448
		c-0.415,0-0.813,0.161-1.112,0.448s-0.475,0.679-0.491,1.093V26.085"/>
	<path fill="#12383D" d="M96.1,29.302c0.029,0.404,0.212,0.783,0.509,1.059s0.688,0.429,1.094,0.429
		c0.405,0,0.796-0.153,1.094-0.429c0.297-0.276,0.479-0.654,0.509-1.059V12.026c-0.017-0.415-0.192-0.806-0.491-1.093
		c-0.299-0.288-0.697-0.448-1.111-0.448c-0.415,0-0.813,0.16-1.112,0.448c-0.299,0.287-0.475,0.679-0.49,1.093V29.302"/>
	<path fill="#12383D" d="M104.957,26.085c0.03,0.405,0.212,0.783,0.51,1.059c0.297,0.276,0.688,0.429,1.094,0.429
		c0.405,0,0.796-0.153,1.093-0.429c0.298-0.276,0.479-0.654,0.51-1.059v-7.987c-0.017-0.414-0.192-0.806-0.491-1.093
		s-0.697-0.448-1.111-0.448c-0.415,0-0.813,0.161-1.112,0.448s-0.475,0.679-0.491,1.093V26.085"/>
	<path fill="#12383D" d="M113.794,26.085c0.03,0.405,0.212,0.783,0.51,1.059c0.297,0.276,0.688,0.429,1.094,0.429
		c0.405,0,0.796-0.153,1.093-0.429c0.298-0.276,0.479-0.654,0.51-1.059v-3.563c-0.017-0.415-0.192-0.806-0.491-1.093
		s-0.697-0.448-1.111-0.448c-0.415,0-0.813,0.161-1.112,0.448s-0.475,0.679-0.491,1.093V26.085"/>
	<path fill="#C82027" d="M93.329,49.044v-3.427l-0.067,0.029c-0.773,0.374-1.613,0.588-2.471,0.627
		c-0.891,0.07-1.776-0.191-2.486-0.733c-0.508-0.392-0.885-0.928-1.083-1.538c-0.219-0.665-0.244-1.377-0.073-2.056
		c0.159-0.693,0.547-1.313,1.103-1.758c0.493-0.412,1.094-0.672,1.732-0.747c1.127-0.125,2.266,0.089,3.272,0.614l0.073,0.038
		v-3.447l-0.156-0.042c-1.006-0.323-2.063-0.461-3.119-0.408c-0.962,0.024-1.909,0.241-2.786,0.637
		c-0.885,0.406-1.665,1.009-2.28,1.763c-1.924,2.434-1.975,5.856-0.125,8.346c0.91,1.165,2.188,1.986,3.626,2.332
		c1.515,0.369,3.103,0.313,4.588-0.161L93.329,49.044"/>
	<path fill="#C82027" d="M96.744,42.849c0.032,2.032,0.976,3.942,2.569,5.202c1.595,1.26,3.672,1.736,5.655,1.297
		c2.694-0.507,4.794-2.628,5.274-5.327c0.481-2.699-0.758-5.414-3.111-6.82c-2.078-1.286-4.687-1.359-6.833-0.192
		C98.151,38.177,96.795,40.406,96.744,42.849 M101.45,40.212c0.7-0.56,1.595-0.818,2.485-0.718c0.891,0.1,1.705,0.549,2.265,1.25
		c0.56,0.7,0.818,1.594,0.718,2.485c-0.1,0.891-0.549,1.706-1.25,2.265c-0.7,0.56-1.595,0.817-2.485,0.718s-1.705-0.549-2.265-1.25
		s-0.817-1.595-0.718-2.485C100.3,41.586,100.749,40.771,101.45,40.212"/>
</g>
</svg>
