<?xml version="1.0" encoding="utf-8"?>
<!-- Generator: Adobe Illustrator 21.0.0, SVG Export Plug-In . SVG Version: 6.00 Build 0)  -->
<svg version="1.1" id="Layer_1" xmlns="http://www.w3.org/2000/svg" xmlns:xlink="http://www.w3.org/1999/xlink" x="0px" y="0px"
	 viewBox="0 0 129.5 29.5" style="enable-background:new 0 0 129.5 29.5;" xml:space="preserve">
<style type="text/css">
	.st0{fill:#C74A34;}
</style>
<g>
	<path class="st0" d="M78.9,11.5c0.5-2.5,3.3-4.7,5.8-5.3C85.6,6.1,87,6,87.9,6.4L78.9,11.5L78.9,11.5z"/>
	<path class="st0" d="M102.4,6.1l2.9,3.9h-6.1c-0.5,0-0.7,0.2-0.8,0.7c-0.1,0.4,0.1,0.9,0.6,1.2l5.2,2.5h-8.9
		c-1.4-1.1-1.6-2.7-1.3-4.5c0.4-1.5,1.8-3.2,3.3-3.5c0.5-0.1,1.1-0.2,1.5-0.2L102.4,6.1L102.4,6.1z"/>
	<polygon class="st0" points="78.3,6.4 78.3,11.9 74.9,13.9 74.1,13.7 74.1,6.4 	"/>
	<polygon class="st0" points="63.3,6.4 67.3,6.4 72.9,14 72.7,14.4 67.9,14.4 67.2,13.3 67.2,14.4 63.3,14.4 	"/>
	<polygon class="st0" points="78.3,14.4 75.4,14.4 78.3,12.7 	"/>
	<path class="st0" d="M44.4,15.1c0,1.8-0.5,4.9-3.4,4.9l0,0c-2.9,0-3.4-3.1-3.4-4.9h-4.2c0,2,0.4,4,1.4,5.5h-4.8
		c-0.7,0-1.4,0-2.2-0.1c-2.8-0.2-2.9-5.4-2.9-5.5h-4.6c0,2.7,0.7,5.2,2.5,7.2c1.6,2.1,4.1,2.5,6.7,2.6H35v-3.8
		c0.5,0.5,0.9,1.1,1.5,1.4c2,1.5,5.4,1.6,7.5,0.6c2.9-1.4,4.1-4.5,4.3-7.4c0.5,5.1,2.6,8.2,9.8,7.9c1.5-0.8,3.1-1.6,4.5-2.6v-5.8h-4
		v4.8h-0.9c-1.3,0-2,0-3.1-0.4c-1.9-0.8-1.9-2.8-2.1-4.5L44.4,15.1L44.4,15.1z"/>
	<path class="st0" d="M67.2,18.4l-3.9,2.2v-5.5h3.9V18.4L67.2,18.4z"/>
	<polygon class="st0" points="69.9,17.5 73,15.8 73.5,16 73.5,23.4 	"/>
	<polygon class="st0" points="74.3,15.9 78.3,18.2 78.3,23.4 74.3,23.4 	"/>
	<path class="st0" d="M87,23.6c-2.6,0.5-6.6-0.6-8.1-4.8L87,23.6L87,23.6z"/>
	<polygon class="st0" points="67.2,23.4 63.4,23.4 63.4,21.4 67.2,19.2 	"/>
	<polygon class="st0" points="62.7,21.6 62.7,23.4 59.9,23.4 	"/>
	<polygon class="st0" points="69.5,16.9 68.5,15.1 72.8,15.1 	"/>
	<path class="st0" d="M29.1,4.6c-1.4,0.1-2.8,0.2-4.1,0.9c-3.4,1.8-4.5,5.3-4.7,8.8h4.6c0-0.9,0.2-1.8,0.5-2.6
		c0.4-1.4,1.5-3.1,2.8-3.1h6.7h0.2c-1.1,1.6-1.6,3.5-1.8,5.6h4.2l0,0c0-1.9,0.6-4.7,3.4-4.7l0,0c2.8,0,3.3,2.8,3.4,4.7l0,0h8.3
		c0-0.9,0.1-2,0.5-2.8c0.4-0.9,1.2-1.9,2.2-1.9h6.5l-2.6-3.4c-3.3,0-7.1-0.2-9.2,2.8c-1.1,1.4-1.5,3.2-1.6,5.1
		c-0.1-1.1-0.2-2.1-0.6-3.2C47.1,8.5,44.5,6.2,42,6c-2.7-0.4-5.1,0.7-6.9,2.7C34,7.4,33,6,31.9,4.6L29.1,4.6L29.1,4.6z"/>
	<path class="st0" d="M78.2,17.3L75,15.4v-0.4h7.6c0,1.8,0.5,4.9,3.4,4.9l0,0c2.9,0,3.4-3.1,3.4-4.8l0,0h4.2c0,1.4-0.4,2.8-0.7,4.1
		v0.1h7.9c0.5,0,0.7-0.4,0.8-0.7c0.1-0.5,0-1.1-0.6-1.3c-1.5-0.6-3.3-1.5-4.7-2.1h8.7c0.9,1.2,1.6,2.7,1.4,4.2
		c-0.9,4.2-4.5,4.1-4.5,4.1h-8.9v-4L93,19.9c-0.9,1.8-2.7,3.2-4.5,3.8l-9.6-5.8c-0.1-0.5-0.2-0.9-0.2-1.4L78.2,17.3L78.2,17.3z"/>
	<path class="st0" d="M89.4,14.4c0-1.9-0.6-4.7-3.4-4.7l0,0c-2.8,0-3.3,2.8-3.4,4.7h-4c-0.1-1.3,0.1-2.1,0.1-2.1l10-5.6
		c4.7,1.9,4.8,6.9,4.9,7.8H89.4L89.4,14.4z"/>
	<path class="st0" d="M107.7,9.3l-0.1-0.4c-0.1-0.1-0.2-0.4-0.2-0.4c-0.1-0.1-0.1-0.1-0.4-0.1h-0.1v0.8h-0.4v-2h0.9
		c0.5,0,0.6,0.2,0.6,0.6s-0.2,0.5-0.6,0.6l0,0c0.1,0.1,0.2,0.1,0.5,0.5l0.2,0.4L107.7,9.3L107.7,9.3z M107.3,8.2
		c0.2,0,0.4-0.1,0.4-0.2c0-0.2-0.1-0.2-0.5-0.2h-0.4v0.6h0.5V8.2z M105.8,8.4c0,0.8,0.7,1.5,1.5,1.5c0.8,0,1.5-0.7,1.5-1.5
		s-0.7-1.5-1.5-1.5C106.4,6.8,105.8,7.4,105.8,8.4L105.8,8.4z M109.3,8.4c0,1.1-0.8,1.9-1.9,1.9s-1.9-0.8-1.9-1.9s0.8-1.9,1.9-1.9
		C108.3,6.4,109.3,7.3,109.3,8.4L109.3,8.4z"/>
</g>
</svg>
