<?xml version="1.0" encoding="utf-8"?>
<!-- Generator: Adobe Illustrator 16.0.0, SVG Export Plug-In . SVG Version: 6.00 Build 0)  -->
<!DOCTYPE svg PUBLIC "-//W3C//DTD SVG 1.1//EN" "http://www.w3.org/Graphics/SVG/1.1/DTD/svg11.dtd">
<svg version="1.1" id="Layer_1" xmlns="http://www.w3.org/2000/svg" xmlns:xlink="http://www.w3.org/1999/xlink" x="0px" y="0px"
	 width="170px" height="50px" viewBox="0 0 170 50" enable-background="new 0 0 170 50" xml:space="preserve">
<g id="g4211" transform="translate(2.4138849,484.8205)">
	<g id="text4201">
		<path id="path3344" fill="#444444" d="M73.9-468.169l-1.41,3.675h0.664l0.345-0.973h1.467l0.345,0.973H76l-1.416-3.675H73.9
			L73.9-468.169z M73.674-465.955l0.556-1.58h0.015l0.551,1.58H73.674L73.674-465.955z"/>
		<path id="path3346" fill="#444444" d="M76.356-468.169v3.675h0.643v-1.411h0.978c0.257,0,0.469-0.036,0.639-0.108
			c0.16-0.072,0.288-0.17,0.381-0.283c0.087-0.108,0.149-0.232,0.18-0.366c0.031-0.134,0.046-0.252,0.052-0.371
			c0-0.113-0.021-0.237-0.052-0.371c-0.031-0.134-0.093-0.257-0.18-0.371c-0.093-0.113-0.216-0.206-0.381-0.283
			c-0.165-0.072-0.381-0.113-0.639-0.113H76.356L76.356-468.169z M76.999-466.429v-1.214h0.952c0.083,0,0.165,0.01,0.242,0.025
			c0.072,0.021,0.139,0.052,0.201,0.098c0.057,0.046,0.103,0.108,0.139,0.185c0.03,0.082,0.046,0.18,0.051,0.299
			c0,0.118-0.021,0.216-0.062,0.293c-0.041,0.077-0.092,0.139-0.154,0.185c-0.062,0.046-0.134,0.077-0.206,0.098
			c-0.077,0.021-0.149,0.031-0.221,0.031H76.999L76.999-466.429z"/>
		<path id="path3348" fill="#444444" d="M80.395-468.169l-1.411,3.675h0.664l0.345-0.973h1.467l0.345,0.973h0.689l-1.415-3.675
			H80.395L80.395-468.169z M80.168-465.955l0.556-1.58h0.016l0.551,1.58H80.168L80.168-465.955z"/>
		<path id="path3350" fill="#444444" d="M85.33-467h0.644c-0.021-0.195-0.077-0.375-0.16-0.53c-0.087-0.154-0.199-0.283-0.339-0.391
			c-0.139-0.108-0.299-0.19-0.479-0.248c-0.186-0.057-0.376-0.087-0.582-0.087c-0.277,0-0.524,0.051-0.741,0.154
			c-0.216,0.103-0.401,0.242-0.551,0.417c-0.154,0.175-0.268,0.381-0.35,0.613c-0.083,0.236-0.119,0.484-0.119,0.741
			c0,0.268,0.036,0.514,0.119,0.746c0.082,0.237,0.195,0.438,0.35,0.612c0.149,0.175,0.335,0.314,0.551,0.417
			c0.217,0.103,0.464,0.149,0.741,0.149c0.221,0,0.427-0.036,0.613-0.108c0.185-0.072,0.345-0.17,0.483-0.304
			c0.134-0.134,0.242-0.288,0.324-0.474c0.082-0.18,0.129-0.381,0.144-0.602h-0.628c-0.015,0.134-0.046,0.262-0.088,0.376
			c-0.046,0.118-0.107,0.221-0.185,0.309c-0.082,0.087-0.175,0.154-0.283,0.206c-0.112,0.052-0.236,0.072-0.381,0.072
			c-0.195,0-0.365-0.036-0.51-0.118c-0.144-0.078-0.257-0.181-0.345-0.314c-0.093-0.134-0.159-0.284-0.201-0.454
			c-0.041-0.164-0.062-0.334-0.062-0.514c-0.005-0.17,0.021-0.345,0.062-0.515c0.042-0.165,0.108-0.314,0.201-0.448
			c0.088-0.134,0.201-0.237,0.345-0.319c0.145-0.077,0.309-0.113,0.51-0.118c0.129,0,0.247,0.021,0.351,0.057
			c0.103,0.036,0.19,0.087,0.268,0.149c0.072,0.067,0.134,0.144,0.185,0.232C85.263-467.201,85.299-467.103,85.33-467L85.33-467z"/>
		<path id="path3352" fill="#444444" d="M86.554-468.169v3.675h0.644v-1.657h1.673v1.657h0.644v-3.675H88.87v1.462h-1.673v-1.462
			H86.554z"/>
		<path id="path3354" fill="#444444" d="M90.289-468.169v3.675h2.682v-0.556h-2.039v-1.076h1.854v-0.525h-1.854v-0.962h2.003v-0.556
			H90.289L90.289-468.169z"/>
	</g>
	<g id="text4203" transform="scale(1.0257435,0.97490256)">
		<path id="path3357" fill="#444444" d="M78.438-471.038c-0.089-0.399-0.236-0.752-0.443-1.077c-0.206-0.324-0.442-0.59-0.737-0.811
			c-0.295-0.207-0.605-0.369-0.959-0.487c-0.354-0.118-0.708-0.177-1.092-0.177c-0.708,0-1.298,0.133-1.799,0.398
			c-0.502,0.265-0.914,0.62-1.239,1.062c-0.325,0.442-0.56,0.929-0.708,1.476c-0.148,0.56-0.221,1.12-0.221,1.695
			c0,0.576,0.074,1.136,0.221,1.697c0.148,0.561,0.383,1.047,0.708,1.49c0.324,0.443,0.737,0.782,1.239,1.048
			c0.502,0.265,1.092,0.398,1.799,0.398c0.487,0,0.93-0.088,1.328-0.264c0.384-0.163,0.723-0.414,1.018-0.723
			c0.28-0.294,0.501-0.649,0.693-1.063c0.162-0.413,0.28-0.855,0.339-1.327h1.003c-0.074,0.65-0.221,1.24-0.457,1.755
			c-0.236,0.532-0.546,0.974-0.914,1.327c-0.384,0.37-0.826,0.65-1.327,0.841c-0.501,0.207-1.062,0.294-1.682,0.294
			c-0.826,0-1.563-0.147-2.183-0.442c-0.619-0.296-1.135-0.708-1.548-1.209c-0.413-0.503-0.723-1.078-0.929-1.741
			c-0.207-0.649-0.31-1.342-0.31-2.081c0-0.722,0.103-1.414,0.31-2.079c0.206-0.65,0.516-1.239,0.929-1.741
			c0.398-0.501,0.929-0.915,1.548-1.21c0.62-0.295,1.357-0.442,2.183-0.457c0.502,0,0.988,0.074,1.46,0.221
			c0.472,0.148,0.914,0.369,1.298,0.664c0.384,0.295,0.708,0.649,0.973,1.062c0.266,0.428,0.428,0.914,0.502,1.46H78.438
			L78.438-471.038z"/>
		<path id="path3359" fill="#444444" d="M81.551-468.959c0,0.576,0.074,1.136,0.222,1.697c0.148,0.561,0.384,1.047,0.707,1.49
			c0.325,0.443,0.737,0.782,1.239,1.048c0.502,0.265,1.092,0.398,1.799,0.398c0.694,0,1.284-0.132,1.786-0.398
			c0.501-0.265,0.899-0.605,1.223-1.048c0.325-0.443,0.561-0.929,0.708-1.49c0.148-0.561,0.221-1.121,0.236-1.697
			c0-0.575-0.089-1.135-0.236-1.695c-0.148-0.546-0.384-1.033-0.708-1.476c-0.325-0.442-0.723-0.796-1.223-1.062
			c-0.502-0.265-1.092-0.398-1.786-0.398c-0.707,0-1.298,0.133-1.799,0.398c-0.502,0.265-0.914,0.62-1.239,1.062
			c-0.324,0.442-0.56,0.929-0.707,1.476C81.625-470.094,81.551-469.534,81.551-468.959z M80.548-468.959
			c0-0.722,0.103-1.414,0.31-2.079c0.206-0.65,0.516-1.239,0.929-1.741c0.399-0.501,0.929-0.915,1.548-1.21
			c0.62-0.295,1.358-0.442,2.183-0.457c0.826,0,1.55,0.162,2.169,0.457c0.62,0.295,1.136,0.708,1.549,1.21
			c0.413,0.502,0.723,1.091,0.928,1.741c0.207,0.664,0.31,1.356,0.31,2.079c0,0.738-0.104,1.431-0.31,2.081
			c-0.206,0.663-0.515,1.238-0.928,1.741c-0.413,0.501-0.929,0.914-1.549,1.209c-0.619,0.294-1.342,0.442-2.169,0.442
			c-0.825,0-1.563-0.147-2.183-0.442c-0.619-0.296-1.135-0.708-1.548-1.209c-0.413-0.503-0.723-1.078-0.929-1.741
			C80.652-467.528,80.548-468.221,80.548-468.959z"/>
		<path id="path3361" fill="#444444" d="M93.029-469.224h3.747c0.295,0,0.59-0.045,0.87-0.133c0.266-0.088,0.501-0.235,0.723-0.413
			c0.191-0.176,0.368-0.384,0.487-0.635c0.118-0.249,0.177-0.545,0.192-0.869c0-0.634-0.192-1.15-0.561-1.534
			c-0.384-0.369-0.944-0.546-1.711-0.561h-3.747V-469.224z M92.028-474.224h4.823c0.427,0,0.84,0.059,1.223,0.162
			c0.384,0.118,0.723,0.28,1.018,0.501c0.295,0.221,0.517,0.502,0.693,0.855c0.177,0.354,0.266,0.753,0.266,1.225
			c0,0.678-0.177,1.254-0.516,1.74c-0.354,0.502-0.856,0.812-1.534,0.945v0.029c0.339,0.059,0.619,0.148,0.855,0.28
			c0.222,0.133,0.399,0.296,0.546,0.501c0.148,0.207,0.25,0.458,0.309,0.723c0.059,0.265,0.103,0.561,0.132,0.87
			c0,0.176,0.015,0.398,0.03,0.649c0,0.265,0.03,0.516,0.059,0.781c0.014,0.265,0.073,0.502,0.132,0.737
			c0.059,0.236,0.148,0.414,0.266,0.532h-1.105c-0.059-0.089-0.118-0.207-0.148-0.355c-0.03-0.148-0.059-0.296-0.074-0.443
			c-0.014-0.147-0.03-0.31-0.03-0.457c-0.014-0.148-0.03-0.265-0.03-0.384c-0.03-0.369-0.059-0.738-0.103-1.106
			c-0.045-0.37-0.133-0.693-0.281-0.989c-0.148-0.294-0.354-0.517-0.619-0.708c-0.266-0.162-0.634-0.25-1.106-0.236h-3.806v4.677
			h-1.002V-474.224L92.028-474.224z"/>
		<path id="path3363" fill="#444444" d="M101.879-474.224h3.643c1.594,0.045,2.803,0.501,3.614,1.357
			c0.811,0.855,1.223,2.168,1.223,3.908c0,1.756-0.412,3.069-1.223,3.924c-0.811,0.855-2.02,1.313-3.614,1.343h-3.643V-474.224
			L101.879-474.224z M102.883-464.549h2.138c0.751,0,1.4-0.074,1.947-0.235c0.545-0.162,1.003-0.428,1.357-0.781
			c0.339-0.355,0.605-0.812,0.782-1.372c0.163-0.56,0.236-1.224,0.25-2.021c0-0.781-0.088-1.459-0.25-2.02
			c-0.177-0.56-0.427-1.017-0.782-1.371c-0.354-0.354-0.812-0.605-1.357-0.767c-0.546-0.162-1.196-0.251-1.947-0.251h-2.138
			V-464.549z"/>
		<path id="path3365" fill="#444444" d="M112.433-468.959c0,0.576,0.073,1.136,0.221,1.697c0.148,0.561,0.384,1.047,0.708,1.49
			s0.738,0.782,1.239,1.048c0.502,0.265,1.092,0.398,1.8,0.398c0.692,0,1.282-0.132,1.784-0.398c0.502-0.265,0.9-0.605,1.224-1.048
			c0.325-0.443,0.561-0.929,0.708-1.49c0.148-0.561,0.221-1.121,0.236-1.697c0-0.575-0.089-1.135-0.236-1.695
			c-0.148-0.546-0.384-1.033-0.708-1.476c-0.325-0.442-0.723-0.796-1.224-1.062c-0.502-0.265-1.092-0.398-1.784-0.398
			c-0.708,0-1.299,0.133-1.8,0.398c-0.501,0.265-0.914,0.62-1.239,1.062s-0.561,0.929-0.708,1.476
			C112.506-470.094,112.433-469.534,112.433-468.959z M111.43-468.959c0-0.722,0.103-1.414,0.309-2.079
			c0.206-0.65,0.516-1.239,0.929-1.741c0.398-0.501,0.929-0.915,1.548-1.21c0.62-0.295,1.358-0.442,2.184-0.457
			c0.825,0,1.548,0.162,2.168,0.457c0.619,0.295,1.136,0.708,1.549,1.21c0.413,0.502,0.723,1.091,0.929,1.741
			c0.206,0.664,0.309,1.356,0.309,2.079c0,0.738-0.104,1.431-0.309,2.081c-0.207,0.663-0.516,1.238-0.929,1.741
			c-0.413,0.501-0.93,0.914-1.549,1.209c-0.62,0.294-1.342,0.442-2.168,0.442c-0.826,0-1.564-0.147-2.184-0.442
			c-0.619-0.296-1.135-0.708-1.548-1.209c-0.413-0.503-0.724-1.078-0.929-1.741C111.533-467.528,111.43-468.221,111.43-468.959z"/>
		<path id="path3367" fill="#444444" d="M121.758-474.224h1.062l3.422,9.425h0.03l3.393-9.425h1.062l-3.908,10.532h-1.165
			L121.758-474.224z"/>
		<path id="path3369" fill="#444444" d="M132.349-467.823h4.144l-2.035-5.398L132.349-467.823z M133.942-474.224h1.122l4.13,10.532
			h-1.078l-1.282-3.276h-4.794l-1.268,3.276h-1.063L133.942-474.224L133.942-474.224z"/>
	</g>
	<g id="text4207">
		<path id="path3372" fill="#444444" d="M141.645-462.559v0.365h0.764v2.048h0.424v-2.048h0.767v-0.365H141.645z"/>
		<path id="path3374" fill="#444444" d="M143.875-462.559v2.414h0.402v-1.863h0.007l0.67,1.863h0.348l0.669-1.863h0.007v1.863h0.403
			v-2.414h-0.589l-0.649,1.89h-0.007l-0.665-1.89H143.875L143.875-462.559z"/>
	</g>
</g>
<g id="g4163">
	<path id="path3362" fill="#444444" d="M33.987,4.888L24.432,20.11l3.91,24.778h6.722l-0.549-5.755h3.449l0.439,5.755h14.081
		l0.439-5.755h3.427l-0.549,5.755h6.765l3.866-24.778L56.875,4.888H33.987z M35.92,12.466h6.084l-0.329,2.855h7.556l-0.396-2.855
		h6.195l3.777,7.644l-1.867,15.289H33.987L32.054,20.11L35.92,12.466z"/>
	<ellipse id="path3366" fill="#444444" cx="51.652" cy="26.773" rx="0.94" ry="3.516"/>
	<ellipse id="ellipse3368" fill="#444444" cx="39.599" cy="27.053" rx="0.94" ry="3.516"/>
</g>
</svg>
