<?xml version="1.0" encoding="utf-8"?>
<!-- Generator: Adobe Illustrator 21.0.0, SVG Export Plug-In . SVG Version: 6.00 Build 0)  -->
<svg version="1.1" id="Layer_1" xmlns="http://www.w3.org/2000/svg" xmlns:xlink="http://www.w3.org/1999/xlink" x="0px" y="0px"
	 width="190px" height="72px" viewBox="0 0 190 72" style="enable-background:new 0 0 190 72;" xml:space="preserve">
<style type="text/css">
	.st0{fill:#E11C1B;}
</style>
<g>
	<path class="st0" d="M40.4,36.7c-3.6-1.5-6.5-1-8.4,1.5c-1.8,2.3-1.9,5.5-0.2,7.8c2,2.7,4.6,3.2,8.6,1.7c1.2,3.3,3.3,6.1,6.1,8.2
		c-4.5,3.9-14.2,5-21-1.4c-6.8-6.3-7.2-17.1-0.9-23.8c6.7-7,16.6-6.3,21.8-2.2C43.6,30.6,41.6,33.3,40.4,36.7z"/>
	<path class="st0" d="M56.3,48.5c-3.5,0-6.3-2.8-6.3-6.3c0-3.5,2.8-6.3,6.3-6.3s6.3,2.8,6.3,6.4C62.7,45.7,59.8,48.5,56.3,48.5z"/>
	<path class="st0" d="M131.8,13.9c0-0.3,0-0.6,0-0.9c-3.5,0-6.8,0-10.3,0c0,4.5,0,8.7,0,13.2c-0.3-0.1-0.6-0.1-0.9-0.2
		c-2.3-0.7-4.7-0.9-7-0.5C105,26.8,99.5,33,99.1,41.7c-0.2,4.4,0.8,8.5,3.5,12c4.5,5.8,13.2,6.8,18.5,2.1c0.2-0.2,0.3-0.3,0.6-0.4
		c0.2,0.9,0.3,2.6,0.3,2.5c3-0.1,5.7-0.1,8.6,0c0.9,0,1,0,1,0S131.8,28.3,131.8,13.9z M121.6,44.6c-0.3,2.7-1.8,4.6-5.2,5.3
		c-3.3,0.7-7.1-2.1-6.8-7.7c0.3-5.7,3.9-8,7.1-8c3.2-0.1,4.7,1.1,4.7,1.1S121.7,41.9,121.6,44.6z"/>
	<path class="st0" d="M169.9,39.1c0-1.2-0.1-2.4-0.3-3.6c-1-5.1-3.8-8.7-9-9.9c-5.4-1.2-10.6-0.6-15.7,1.5c-1.3,0.6-2.5,1.5-3.8,2.1
		c1.5,2.2,2.9,4.4,4.4,6.5c0.3-0.2,0.4-0.3,0.6-0.3c2.9-1.9,6-2.6,9.4-2.3c1.3,0.1,2.4,0.4,3.3,1.4c0.8,0.8,1.2,1.6,1.1,2.7
		c-1.2,0-2.3,0-3.3,0c-3.2-0.1-6.3,0.1-9.2,1.3c-4,1.6-6.6,4.5-7.2,9c-0.5,4.2,1.2,7.9,4.7,9.8c4.2,2.4,10.7,1.8,14.5-1.2
		c0.2-0.2,0.4-0.3,0.8-0.6c0.1,0.6,0.2,2.3,0.2,2.3s0.3,0,0.9,0c0.9-0.1,1.9,0,2.9,0c2,0,3.9,0,5.9,0c0-0.4,0.1-0.6,0.1-0.9
		C169.9,51.1,169.9,45.1,169.9,39.1z M160,47.4c-0.5,1.6-2.1,4.1-6.1,4.1c-4.2,0-4-3.3-3.8-4.4c0.3-1,1-2.7,4.7-3
		c3.7-0.3,5.1,0.2,5.1,0.2c0.1,0.6,0.1,2.2,0.1,2.7C160,47.2,160,47.3,160,47.4z"/>
	<path class="st0" d="M72.2,57.9c0,0,0-21.2,0-31.9c0.3,0,0.5,0,0.8,0c2.7,0,9.1,0,9.1,0s0.2,2.3,0.3,3.3c0.8-0.6,1.4-1.2,2-1.6
		c4.4-3.6,10.8-1.5,10.8-1.4c-0.5,2.9-1.1,6.1-1.6,9c-0.9-0.2-1.8-0.4-2.7-0.4c-0.9-0.1-1.9-0.1-2.8,0.2c-3.4,0.7-5.3,3.3-5.4,6.9
		c0,4.9,0,9.8,0,14.7c0,0.3,0,1.3,0,1.3L72.2,57.9z"/>
</g>
</svg>
