<?xml version="1.0" encoding="utf-8"?>
<!-- Generator: Adobe Illustrator 16.0.0, SVG Export Plug-In . SVG Version: 6.00 Build 0)  -->
<!DOCTYPE svg PUBLIC "-//W3C//DTD SVG 1.1//EN" "http://www.w3.org/Graphics/SVG/1.1/DTD/svg11.dtd">
<svg version="1.1" id="Layer_1" xmlns="http://www.w3.org/2000/svg" xmlns:xlink="http://www.w3.org/1999/xlink" x="0px" y="0px"
	 width="160px" height="60px" viewBox="0 0 160 60" enable-background="new 0 0 160 60" xml:space="preserve">
<g>
	<path fill="#56A71A" d="M103.389,14.283L103.389,14.283c0-0.664-0.24-1.249-0.721-1.729c-0.445-0.446-1.007-0.675-1.681-0.675
		c-0.676,0-1.247,0.229-1.728,0.675c-0.447,0.48-0.675,1.065-0.675,1.729c0,0.675,0.228,1.236,0.675,1.695
		c0.48,0.48,1.052,0.722,1.728,0.722c0.674,0,1.235-0.241,1.681-0.722C103.148,15.519,103.389,14.958,103.389,14.283z"/>
	<path fill="#56A71A" d="M108.524,17.707L108.524,17.707c-1.042,0-1.922,0.366-2.666,1.112c-0.744,0.72-1.109,1.612-1.109,2.668
		c0,1.041,0.365,1.934,1.109,2.679c0.744,0.723,1.624,1.089,2.666,1.089c1.062,0,1.954-0.366,2.676-1.089
		c0.744-0.745,1.109-1.638,1.109-2.679c0-1.056-0.365-1.948-1.109-2.668C110.479,18.073,109.586,17.707,108.524,17.707z"/>
	<path fill="#56A71A" d="M93.232,11.317L93.232,11.317c-0.32-0.32-0.709-0.47-1.166-0.47c-0.446,0-0.836,0.149-1.156,0.47
		c-0.308,0.309-0.468,0.699-0.468,1.157c0,0.446,0.16,0.835,0.468,1.155c0.32,0.311,0.71,0.471,1.156,0.471
		c0.457,0,0.846-0.16,1.166-0.471c0.309-0.32,0.469-0.709,0.469-1.155C93.701,12.016,93.541,11.625,93.232,11.317z"/>
	<path fill="#56A71A" d="M86.954,14.97L86.954,14.97c0-0.356-0.127-0.664-0.378-0.928c-0.239-0.24-0.537-0.355-0.893-0.355
		c-0.354,0-0.652,0.115-0.927,0.355c-0.229,0.264-0.344,0.571-0.344,0.928c0,0.355,0.115,0.653,0.344,0.893
		c0.274,0.252,0.573,0.39,0.927,0.39c0.355,0,0.653-0.138,0.893-0.39C86.827,15.624,86.954,15.326,86.954,14.97z"/>
	<path fill="#56A71A" d="M82.424,20.352L82.424,20.352c0-0.274-0.114-0.525-0.33-0.745c-0.196-0.193-0.436-0.297-0.722-0.297
		c-0.275,0-0.514,0.104-0.732,0.297c-0.193,0.22-0.297,0.471-0.297,0.745c0,0.275,0.104,0.515,0.297,0.71
		c0.219,0.229,0.457,0.333,0.732,0.333c0.286,0,0.525-0.104,0.722-0.333C82.31,20.867,82.424,20.627,82.424,20.352z"/>
	<path fill="#56A71A" d="M83.545,26.925L83.545,26.925c-0.4,0.424-0.595,0.928-0.595,1.524v8.53c0,0.985-0.309,1.718-0.926,2.176
		c-0.013,0.022-0.035,0.046-0.08,0.092c-0.057,0.034-0.115,0.068-0.184,0.114v3.778c0.068,0,0.127-0.011,0.184-0.033
		c1.041-0.229,2.047-0.619,2.995-1.181c1.545-0.916,2.312-2.862,2.312-5.84v-9.791H85.09C84.459,26.295,83.934,26.501,83.545,26.925
		z"/>
	<path fill="#56A71A" d="M77.987,39.156L77.987,39.156c-0.572-0.458-0.858-1.19-0.858-2.176V26.295h-4.392v9.791
		c0,2.897,0.742,4.81,2.23,5.715c1.063,0.641,2.219,1.099,3.441,1.339c0.059,0.023,0.114,0.035,0.173,0.035v-3.63
		c-0.059-0.046-0.114-0.081-0.173-0.093C78.272,39.362,78.135,39.259,77.987,39.156z"/>
	<path fill="#205A8A" d="M121.929,34.575L121.929,34.575v1.58c0,1.168-0.345,2.085-1.008,2.761c-0.686,0.675-1.6,1.007-2.757,1.007
		c-0.72,0-1.257-0.171-1.634-0.492c-0.388-0.378-0.584-0.893-0.584-1.522c0-0.47,0.16-0.928,0.458-1.374
		c0.343-0.345,0.882-0.619,1.623-0.825l1.464-0.297C120.52,35.148,121.333,34.873,121.929,34.575z M126,30.624L126,30.624
		c0-1.487-0.606-2.655-1.818-3.527c-1.166-0.777-2.916-1.178-5.262-1.178c-2.092,0-3.706,0.48-4.826,1.453
		c-0.996,0.826-1.578,1.901-1.762,3.185h4.198c0.206-0.448,0.537-0.756,1.007-0.916c0.444-0.184,0.971-0.274,1.565-0.274
		c0.539,0,1.133,0.102,1.773,0.297c0.663,0.184,0.996,0.596,0.996,1.225c0,0.837-0.927,1.375-2.77,1.637
		c-0.365,0.036-0.709,0.082-1.006,0.15c-0.298,0.046-0.549,0.08-0.743,0.08c-1.59,0.263-2.894,0.768-3.923,1.523
		c-1.028,0.755-1.533,2.004-1.533,3.744c0,1.89,0.56,3.229,1.681,4.042c1.133,0.836,2.449,1.248,3.959,1.248
		c0.742,0,1.611-0.057,2.607-0.172c0.972-0.103,1.897-0.377,2.79-0.836c0.835-0.411,1.544-1.099,2.139-2.049
		c0.618-0.929,0.927-2.245,0.927-3.94V30.624z"/>
	<path fill="#205A8A" d="M108.524,26.295L108.524,26.295h-2.255v16.696h4.371V28.45c0-0.597-0.207-1.101-0.63-1.524
		C109.586,26.501,109.096,26.295,108.524,26.295z"/>
	<path fill="#205A8A" d="M94.181,30.945L94.181,30.945c0.63-0.87,1.522-1.305,2.643-1.305c1.166,0,2.059,0.435,2.676,1.305
		c0.63,0.87,0.95,2.13,0.95,3.768c0,1.512-0.32,2.703-0.95,3.573c-0.617,0.881-1.464,1.316-2.549,1.316
		c-1.179,0-2.071-0.436-2.711-1.316c-0.63-0.79-0.95-1.981-0.95-3.573C93.289,32.995,93.586,31.736,94.181,30.945z M102.886,28.243
		L102.886,28.243c-0.618-0.757-1.453-1.34-2.528-1.729c-1.064-0.401-2.127-0.595-3.168-0.595c-2.013,0-3.865,0.537-5.604,1.603
		c-1.693,1.076-2.551,3.068-2.551,5.978v15.654h2.139c0.572,0,1.075-0.206,1.487-0.63c0.422-0.424,0.628-0.928,0.628-1.523v-6.206
		c0.516,0.87,1.201,1.511,2.024,1.946c0.801,0.39,1.716,0.572,2.768,0.572c1.956,0,3.557-0.801,4.805-2.404
		c1.246-1.626,1.863-3.756,1.863-6.39C104.749,31.975,104.132,29.879,102.886,28.243z"/>
	<path fill="#205A8A" d="M54.278,21.991L54.278,21.991c-0.412-0.401-0.916-0.596-1.51-0.596h-2.254v21.597h4.393V23.478
		C54.907,22.883,54.702,22.39,54.278,21.991z"/>
	<path fill="#205A8A" d="M61.621,30.441L61.621,30.441c0.297-0.298,0.754-0.538,1.372-0.71c0.628-0.205,1.269-0.195,1.898,0.022
		c0.617,0.194,1.155,0.676,1.636,1.434c0.49,0.742,0.731,1.877,0.731,3.388c-0.022,1.684-0.297,2.909-0.823,3.665
		c-0.492,0.744-1.063,1.213-1.727,1.386c-0.63,0.194-1.271,0.184-1.898-0.058c-0.63-0.229-1.064-0.516-1.304-0.836
		c-0.63-0.744-0.983-2.072-1.075-3.985C60.363,32.845,60.752,31.404,61.621,30.441z M58.12,28.243L58.12,28.243
		c-0.674,0.756-1.166,1.694-1.486,2.816c-0.32,1.135-0.469,2.256-0.469,3.39c0,1.386,0.184,2.714,0.56,3.985
		c0.366,1.271,1.007,2.29,1.898,3.035c0.836,0.756,1.946,1.294,3.328,1.604c1.407,0.32,2.803,0.286,4.188-0.081
		c1.543-0.343,2.813-1.19,3.797-2.554c0.479-0.676,0.868-1.499,1.143-2.473c0.298-0.951,0.436-2.107,0.436-3.447
		c0-1.844-0.354-3.459-1.063-4.821c-0.756-1.546-1.922-2.646-3.511-3.274c-1.373-0.493-2.906-0.631-4.645-0.425
		C60.603,26.239,59.207,26.982,58.12,28.243z"/>
	<path fill="#205A8A" d="M39.41,30.441L39.41,30.441c0.571-0.572,1.326-0.859,2.265-0.859c0.983,0,1.749,0.287,2.298,0.859
		c0.207,0.217,0.412,0.539,0.63,0.939h4.368c-0.309-1.191-0.857-2.268-1.612-3.206c-1.384-1.5-3.339-2.256-5.844-2.256
		c-2.379,0-4.232,0.766-5.559,2.324C34.652,29.743,34,31.837,34,34.518c0,2.805,0.675,4.97,2.013,6.47
		c1.339,1.546,3.19,2.324,5.593,2.324c1.956,0,3.58-0.48,4.861-1.454c1.304-0.915,2.195-2.244,2.652-4.02h-3.145
		c-0.491,0-0.881,0.104-1.132,0.332c-0.24,0.195-0.412,0.355-0.503,0.481c-0.115,0.138-0.229,0.252-0.332,0.354
		c-0.104,0.104-0.218,0.172-0.355,0.206c-0.503,0.298-1.109,0.447-1.817,0.447c-1.087,0-1.898-0.344-2.425-1.008
		c-0.755-0.802-1.145-2.153-1.145-4.077C38.266,32.639,38.655,31.266,39.41,30.441z"/>
</g>
</svg>
