<?xml version="1.0" encoding="utf-8"?>
<!-- Generator: Adobe Illustrator 21.0.0, SVG Export Plug-In . SVG Version: 6.00 Build 0)  -->
<svg version="1.1" id="Layer_1" xmlns="http://www.w3.org/2000/svg" xmlns:xlink="http://www.w3.org/1999/xlink" x="0px" y="0px"
	 viewBox="0 0 130 70" style="enable-background:new 0 0 130 70;" xml:space="preserve">
<style type="text/css">
	.st0{fill:#00599C;}
	.st1{fill:#004482;}
	.st2{fill:#659AD2;}
	.st3{fill:#FFFFFF;}
</style>
<g>
	<path class="st0" d="M87.8,48.1c0.4-0.6,0.6-1.4,0.6-2V23.9c0-0.7-0.2-1.4-0.6-2L65,35L87.8,48.1z"/>
	<path class="st1" d="M67,60.8l19.3-11.1c0.5-0.3,1.1-0.9,1.4-1.5L65,35L42.2,48.1c0.4,0.6,0.9,1.2,1.4,1.5L63,60.8
		C64.1,61.4,65.9,61.4,67,60.8z"/>
	<path class="st2" d="M87.8,21.8c-0.4-0.6-0.9-1.2-1.4-1.5L67,9.1c-1.1-0.7-2.9-0.7-4.1,0L43.7,20.3c-1.1,0.7-2,2.3-2,3.5v22.3
		c0,0.7,0.2,1.4,0.6,2L65,35L87.8,21.8z"/>
	<g>
		<path class="st3" d="M65,50.5c-8.6,0-15.6-7-15.6-15.6s7-15.6,15.6-15.6c5.6,0,10.7,3,13.5,7.8l-6.8,3.9c-1.4-2.4-4-3.9-6.8-3.9
			c-4.3,0-7.8,3.5-7.8,7.8s3.5,7.8,7.8,7.8c2.8,0,5.3-1.5,6.8-3.9l6.8,3.9C75.7,47.6,70.6,50.5,65,50.5z"/>
	</g>
	<g>
		<polygon class="st3" points="80.6,34.1 78.8,34.1 78.8,32.4 77.1,32.4 77.1,34.1 75.4,34.1 75.4,35.9 77.1,35.9 77.1,37.6 
			78.8,37.6 78.8,35.9 80.6,35.9 		"/>
	</g>
	<g>
		<polygon class="st3" points="87.1,34.1 85.4,34.1 85.4,32.4 83.6,32.4 83.6,34.1 81.9,34.1 81.9,35.9 83.6,35.9 83.6,37.6 
			85.4,37.6 85.4,35.9 87.1,35.9 		"/>
	</g>
</g>
</svg>
