<?xml version="1.0" encoding="utf-8"?>
<!-- Generator: Adobe Illustrator 21.0.0, SVG Export Plug-In . SVG Version: 6.00 Build 0)  -->
<svg version="1.1" id="Layer_1" xmlns="http://www.w3.org/2000/svg" xmlns:xlink="http://www.w3.org/1999/xlink" x="0px" y="0px"
	 viewBox="0 0 130 70" style="enable-background:new 0 0 130 70;" xml:space="preserve">
<style type="text/css">
	.st0{fill:url(#SVGID_1_);}
	.st1{fill:url(#SVGID_2_);}
	.st2{fill:url(#SVGID_3_);}
	.st3{fill:url(#SVGID_4_);}
	.st4{fill:url(#SVGID_5_);}
	.st5{fill:url(#SVGID_6_);}
</style>
<g>
	
		<linearGradient id="SVGID_1_" gradientUnits="userSpaceOnUse" x1="-1533.5652" y1="-577.0054" x2="-1533.1936" y2="-576.6092" gradientTransform="matrix(82.4907 0 0 81.4303 126565.3906 47000.2344)">
		<stop  offset="0" style="stop-color:#F9A03C"/>
		<stop  offset="1" style="stop-color:#F7974E"/>
	</linearGradient>
	<path class="st0" d="M90.4,45.9c0-0.2,0.1-0.4,0.1-0.7c0-0.3-16-15.5-16-15.5h-0.4C74,29.7,90.4,46.8,90.4,45.9L90.4,45.9
		L90.4,45.9z"/>
	
		<linearGradient id="SVGID_2_" gradientUnits="userSpaceOnUse" x1="-1513.6093" y1="-565.0182" x2="-1512.8987" y2="-564.3253" gradientTransform="matrix(40.2105 0 0 40.4122 60898.1953 22854.1289)">
		<stop  offset="0" style="stop-color:#F9A03C"/>
		<stop  offset="1" style="stop-color:#F7974E"/>
	</linearGradient>
	<path class="st1" d="M56.1,40.5c0,0.1-0.1,0.1-0.1,0.1S56,40.8,56,40.8c-0.5,1.1,7.1,8.6,7.8,7.6c0-0.1,0.1-0.1,0.1-0.1
		c0-0.1,0.1-0.1,0.1-0.1C64.5,47.5,56.3,40.1,56.1,40.5L56.1,40.5L56.1,40.5z"/>
	
		<linearGradient id="SVGID_3_" gradientUnits="userSpaceOnUse" x1="-1515.3513" y1="-565.8044" x2="-1514.7192" y2="-565.0798" gradientTransform="matrix(41.0403 0 0 39.9333 62238.8438 22624.7637)">
		<stop  offset="0" style="stop-color:#F9A03C"/>
		<stop  offset="1" style="stop-color:#F7974E"/>
	</linearGradient>
	<path class="st2" d="M67,51.1c0,0.1-0.1,0.3-0.3,0.4c0,0.1,7.5,7.5,7.5,7.5h0.7C74.8,59,67.8,51.5,67,51.1L67,51.1L67,51.1z"/>
	
		<linearGradient id="SVGID_4_" gradientUnits="userSpaceOnUse" x1="-1544.7577" y1="-585.2588" x2="-1544.616" y2="-585.0715" gradientTransform="matrix(255.8347 0 0 242.016 395248.5938 141651.4375)">
		<stop  offset="0" style="stop-color:#F26D58"/>
		<stop  offset="1" style="stop-color:#F9A03C"/>
	</linearGradient>
	<path class="st3" d="M90.5,45.1c-0.4,7.8-6.8,14-14.7,14h-1.1l-7.9-7.7c0.7-0.9,1.2-1.9,1.8-2.8h7.1c2.3,0,4.1-1.8,4.1-4.1
		c0-2.3-1.8-4.1-4.1-4.1h-4.2c0.3-1.7,0.5-3.5,0.5-5.2c0-1.8-0.1-3.6-0.5-5.3h2.6l16.2,16C90.4,45.5,90.5,45.3,90.5,45.1L90.5,45.1
		L90.5,45.1z M43.8,10.8h-4.3v10.6h4.3c7.5,0,13.6,6,13.6,13.6c0,2-0.4,3.9-1.2,5.7l7.8,7.7c2.6-3.9,4-8.5,4-13.4
		C67.9,21.7,57.1,10.8,43.8,10.8L43.8,10.8L43.8,10.8z"/>
	
		<linearGradient id="SVGID_5_" gradientUnits="userSpaceOnUse" x1="-1541.5479" y1="-583.4193" x2="-1541.3401" y2="-583.2827" gradientTransform="matrix(160.7307 0 0 174.8133 247837.4531 102001.8906)">
		<stop  offset="0" style="stop-color:#B84E51"/>
		<stop  offset="1" style="stop-color:#F68E48"/>
	</linearGradient>
	<path class="st4" d="M75.8,10.8H58.4c4.2,2.5,7.7,6.3,10.1,10.6h7.2c2.3,0,4.1,1.8,4.1,4.1s-1.8,4.1-4.1,4.1h-1.6l16.2,16
		c0.1-0.4,0.1-0.9,0.1-1.3c0-3.6-1.3-6.8-3.4-9.4c2.1-2.5,3.4-5.8,3.4-9.4C90.5,17.4,83.9,10.8,75.8,10.8L75.8,10.8L75.8,10.8z"/>
	
		<linearGradient id="SVGID_6_" gradientUnits="userSpaceOnUse" x1="-1541.9089" y1="-578.8455" x2="-1541.8992" y2="-578.5984" gradientTransform="matrix(176.7653 0 0 92.6293 272612.0313 53663.1016)">
		<stop  offset="0" style="stop-color:#F9A03C"/>
		<stop  offset="1" style="stop-color:#F7974E"/>
	</linearGradient>
	<path class="st5" d="M74.7,59H58.6c3.3-2,6-4.7,8.2-7.7L74.7,59L74.7,59z M63.9,48.4L56,40.7c-2.2,4.7-6.8,7.9-12.3,7.9h-4.2v10.6
		h4.3C52.2,59.2,59.5,54.9,63.9,48.4L63.9,48.4L63.9,48.4z"/>
</g>
</svg>
