<?xml version="1.0" encoding="utf-8"?>
<!-- Generator: Adobe Illustrator 21.0.0, SVG Export Plug-In . SVG Version: 6.00 Build 0)  -->
<svg version="1.1" id="Layer_1" xmlns="http://www.w3.org/2000/svg" xmlns:xlink="http://www.w3.org/1999/xlink" x="0px" y="0px"
	 viewBox="0 0 512 512" style="enable-background:new 0 0 512 512;" xml:space="preserve">
<style type="text/css">
	.st0{fill:#FFFFFF;}
</style>
<path class="st0" d="M497.8,124.8V38c0-20.4-22.3-36.5-50.8-36.5H331.4c-7.5,0-13.4,5-13.4,11.5c0.1,4.6-0.7,11,2.7,25
	c-40.8-12.7-86.4-13.9-129.4-1.9c-0.9-8.7-5.7-16.2-12.6-20.8v-3.9C178.7,5,172.9,0,165.6,0H54.2C26.6,0,5,15.9,5,36.2v57
	c0,8.3,7.2,15.1,17,16.4v7.5c-29.1,12-27.6,53.4,1.8,63.6c1.6,5.9,4.3,11.8,7.9,17.6c-4.8,18.6-7.3,38-7.3,57.8
	c0,61,23.7,118.3,66.8,161.4c13.8,13.8,29.1,25.7,45.5,35.4c-3.4,3.6-7.3,7.1-11.8,10.4c-4,2.9-5.2,8.3-2.8,12.6
	c11.1,20.1,35.9,36.3,66.5,36.3h128.1c30.5,0,55.4-16.2,66.5-36.3c2.4-4.3,1.1-9.7-2.8-12.6c-4.6-3.3-8.5-6.8-11.8-10.4
	c85.7-50.6,129.6-151.2,106.2-249.7c4.3-6.2,7.4-12.6,9.3-19.1c14.9-3.6,25.9-17.1,25.9-33C510.1,140.4,505.3,131.1,497.8,124.8z
	 M22.1,162.2c-7.9-7.4-7.9-20,0-27.4V162.2z M191.4,51.9c42.9-12.9,90.8-12.3,135.3,4.3c1.2,2.8,2.6,5.6,4.2,8.5v21.7
	c-45-20.8-95.4-22.2-139.5-6.8V51.9z M177.3,105.8h2.7c5.8,0,10.7-4.4,11.4-10.1c44.7-17.2,95.7-15,139.6,7.5v16.2
	c-29.1,12-27.6,53.4,1.8,63.6c9.6,35.2,56,62.9,75.8,62.9c4.2,0,9.5-1.2,15.3-3.4c4.8,60.4-22.7,117.8-70.6,152.5
	c-1.6-7.1-5.4-13.3-10.6-17.9c2.1-2.6,3.4-5.9,3.4-9.6v-47.6c0-35.6-28.1-64.5-62.7-64.5h-61.1c-32.3,0-62.7,25.7-62.7,67.1
	c0,12.3,0,46.1,0,50.4c-6.5,3.7-11.6,9.5-14.5,16.5C106.1,358,81.1,309.9,81.1,256c0-5.7,0.3-11.3,0.8-16.8
	c6.7,2.8,12.9,4.4,17.8,4.4c20,0,65.5-27.5,75.5-62c14.9-3.6,25.9-17.1,25.9-33c0-15.2-10.1-28.1-23.9-32.5V105.8z M330.9,137.2
	v27.4C323,157.2,323,144.6,330.9,137.2z M329.1,419.1c0-7.7,0-25.4,0-33.1C342.1,393.2,342.2,411.8,329.1,419.1z M177.3,132.7
	c11.5,7.4,11.6,24.3,0,31.7V132.7z M175.2,33.9c1.3,3.1,1-1.8,1,56.7c-6.3,0-11.4,0-17.9,0c-7.4,0-13.3-6-13.3-13.3
	c0-0.1,0-5.8,0-5.7C156.9,61.7,169.3,48.1,175.2,33.9z M25.9,94.7c-1.9,0-4.7-0.6-5.7-1.9V36.2c0-10.1,12.3-18.9,28-20.7
	c5.5-0.6,1.8-0.2,115.4-0.3c0,4,0,3.1,0,4c-0.8,15.9-20.7,35.3-33.6,45C80.7,101.3,32.8,93.8,25.9,94.7z M37.2,109.9
	c1.7-0.1,20.7,0.9,45.2-5.8c17-4.6,33.3-11.9,48-21.6c1.7,9,7.5,16.4,15.5,20.4c7.7,3.8,14.1,2.7,16.3,2.9v61.6
	c0,31.4-46.8,61.1-62.5,61.1c-13,0-53.5-23.4-61.1-51.6C37.7,173.8,37.7,167.9,37.2,109.9z M39.7,256c0-14.6,1.5-28.9,4.3-42.7
	c6.6,6.7,14.9,13.2,23.6,18.4c-1,7.9-1.6,16-1.6,24.3c0,61.9,30.2,116.8,76.7,150.8c1,7.9,4.7,15,10.2,20.3
	c-1.6,4.2-3.7,8.7-6.6,13.4C82.6,403.6,39.7,334.7,39.7,256z M188.7,496.8c-21.8,0-40.3-10-50.7-24.5c8.5-6.8,15.9-15,21.6-24.5
	c1.4,14.5,18.3,21.4,29.5,12.5c14.2,17.5,38,32.7,55.1,36.6H188.7z M196,444c0-19.4,0-38.8,0-58.3c21.3,7.3,43.3,4.8,61.6-5.2
	c3.7-2,5-6.6,3-10.3c-2-3.7-6.6-5-10.3-3c-9.1,4.9-19.3,7.5-29.5,7.5c-19.1,0-21.6-7.2-30.9-3.4c-0.1,0.1-9.1,3.3-9.1,13.5
	c0,64.9,0.2,61.6-0.3,62.6v0c-1.4,2.9-5.8,1.9-5.8-1.4c0-51.9,0-116.8,0-127.6c0.7-26.4,22-47.9,47.5-47.9h61.1
	c26.3,0,47.5,22.2,47.5,49.4v47.4c-9.2-0.2-17.8-5.6-21.8-14.4l-7.1-15.9c-5-11.2-21.1-10.7-25.4,0.8c-1.5,4.1-3.6,8.1-6.2,11.7
	c-2.4,3.4-1.6,8.1,1.8,10.6c3.4,2.4,8.2,1.6,10.6-1.8c2.7-3.8,4.9-7.8,6.7-12c3.7,5.4,6,23.1,24.4,32.1v42.9
	c0,32-47.5,61.2-62.6,61.2C238.7,482.6,209,464.5,196,444z M316.8,496.8h-58.3c21.7-4.9,59.2-29.7,68.5-61c4-0.8,7.8-2.4,11.1-4.5
	c5.8,16,15.9,30.1,29.4,41C356.9,487,338.5,496.8,316.8,496.8z M359.2,440.5c-5-8.2-7.8-16-9.2-21.9c0.8-1.4,1.4-2.9,2-4.5
	c59.3-37.3,94.5-105.8,86.4-178.6c8.4-4.9,16.8-11.1,23.9-17.9C478.5,306,437.4,395.2,359.2,440.5z M458.3,199.8
	c-16.2,19.4-41.4,31-49.7,31c-5.7,0-21.2-5.9-36.8-18.4c-13.1-10.6-25.7-25.9-25.7-42.7c0-9.7,0-74.8,0-84.3
	c7.4,7.6,16.7,14.7,28.5,20.2c4.9,2.3,10.9,0.2,12.8-4.8c13.4,15.3,30.9,31.5,49.4,40.1c6.8,3.2,14.7-2.3,13.1-9.6
	c6.6,4.2,13.8,7.9,21.1,10.5C470.4,168.2,475.1,179.8,458.3,199.8z M482.7,129.7c-14.2-3.7-27.9-12.2-38.9-21.9
	c-4.7-4.2-12.6-2.6-14.9,3.1c-1.7,3.9,0.4,7,0.7,8.4c-19.8-13.7-36.3-34.4-43.3-43.9c-5.6-7.6-18.3-2.7-16.6,6.6l0.8,4.1
	c-8-5.3-14.8-11.8-20.4-19.5c-10.1-13.8-16.3-32.8-16.9-46.5v-3.3h113.9c19.3,0,35.6,9.8,35.6,21.3V129.7z M486.2,166.8v-20.9
	c2.4,0.4,4.8,0.6,7.6-1.2C496.7,152.8,493.6,162,486.2,166.8z"/>
<path class="st0" d="M442.9,143.3c-2.9,1.1-5,3.7-5.3,6.9v0c0,0.3-0.1,0.6-0.1,0.9c0,3.2,1.9,6.1,4.6,7.4c0.3,0.2,0.6,0.3,0.9,0.4
	c0.9,0.3,1.8,0.5,2.8,0.5c4.6,0,8.3-3.7,8.3-8.3C454.1,145.2,448.2,141.3,442.9,143.3z"/>
<path class="st0" d="M374.1,142.8c-4.6,0-8.3,3.7-8.3,8.3c0,5.8,5.8,9.8,11.1,7.8c3.2-1.2,5.5-4.2,5.5-7.8
	C382.4,146.5,378.7,142.8,374.1,142.8z"/>
<path class="st0" d="M386.8,115.7c-0.2-0.1-5.7-1.2-12.4-1.2c0,0-0.1,0-0.1,0c-5.6-0.3-13.6,0.9-19.2,4c0,0,0,0,0,0
	c-10.7,6.3-1.3,18.7,6.8,13.6c2.3-1.5,5.7-2,8.4-2.2c11.1-1,14.8,2.9,19.3-0.5C394.9,125.4,393.3,117,386.8,115.7z"/>
<path class="st0" d="M422.1,177.4c-2.3,1.3-3.8,3.8-3.8,6.6c0,4.6-3.8,8.4-8.4,8.4c-4.6,0-8.4-3.8-8.4-8.4c0-4.2-3.4-7.6-7.6-7.6
	c-4.2,0-7.6,3.4-7.6,7.6c0,23.5,30.8,32.3,43.4,12.6c2.3-3.7,3.7-8,3.7-12.6C433.5,178,427,174.5,422.1,177.4z"/>
<path class="st0" d="M134.1,140.9c-8.6,3.3-6.3,16.1,2.9,16.1c4.6,0,8.3-3.7,8.3-8.3C145.3,142.8,139.3,138.9,134.1,140.9z"/>
<path class="st0" d="M127.3,128.1c5.8-1.2,16.6-1.8,21.7,1.4c8.6,5.4,18.2-8.4,5.5-14.2c-8.7-4.1-21.8-3.8-30.3-2.1
	c-4.1,0.9-6.7,4.9-5.9,9C119.2,126.3,123.2,129,127.3,128.1z"/>
<path class="st0" d="M56.9,148.7c0,4.2,3.2,7.7,7.3,8.2c7.4,0.9,12.1-7.5,7.6-13.3C67,137.4,56.9,140.8,56.9,148.7z"/>
<path class="st0" d="M74.8,128.1c4.1,0.8,8.1-1.8,9-5.9c0.9-4.1-1.8-8.1-5.9-9c-9.9-2-23.3-2.1-32.2,3c-0.2,0.1-0.5,0.3-0.7,0.4
	c-3.5,2.2-4.6,6.9-2.4,10.5c2.2,3.6,6.9,4.6,10.5,2.4C58.2,126.4,69,126.9,74.8,128.1z"/>
<path class="st0" d="M78.6,188.5c3,9.7,12,16.6,22.5,16.6c23.1,0,30.7-31.1,16-31.1c-4.2,0-7.6,3.4-7.6,7.6c0,7.3-8.8,11.1-14.1,6.1
	c-1.6-1.5-2.6-3.7-2.6-6.1C92.7,170.6,72.9,170.3,78.6,188.5z"/>
<path class="st0" d="M266.7,422.6c-4.2,0-7.6,3.4-7.6,7.6c0,3.5-2.9,6.4-6.4,6.4c-3.5,0-6.4-2.9-6.4-6.4c0-4.2-3.4-7.6-7.6-7.6
	c-4.2,0-7.6,3.4-7.6,7.6c0,11.9,9.7,21.6,21.6,21.6s21.6-9.7,21.6-21.6C274.3,426,270.9,422.6,266.7,422.6z"/>
<path class="st0" d="M287.9,391.2c-10.4,1-9.9,16.6,0.8,16.6c4.6,0,8.3-3.7,8.3-8.3C297,394.7,293,390.7,287.9,391.2z"/>
<path class="st0" d="M290.1,386.3c10.7,0.2,10.2,3.5,14.7,3.5c2.6,0,5-1.3,6.4-3.6c0.1-0.2,0.2-0.4,0.3-0.6c1.8-3.5,0.6-7.8-2.7-9.9
	c-1.8-1.2-3.8-2-5.9-2.7c-11.5-3.8-25.3-1.1-27.1-0.7c-4.1,0.9-6.7,4.9-5.9,9c0.8,4.1,4.9,6.7,9,5.9
	C281.5,386.6,285.8,386.1,290.1,386.3z"/>
<path class="st0" d="M209.7,395.1c-1.8,2.9-1.6,6.8,0.7,9.6c4.9,6,14.7,2.4,14.7-5.3C225.1,391,214,388,209.7,395.1z"/>
</svg>
