<?xml version="1.0" encoding="utf-8"?>
<!-- Generator: Adobe Illustrator 16.0.0, SVG Export Plug-In . SVG Version: 6.00 Build 0)  -->
<!DOCTYPE svg PUBLIC "-//W3C//DTD SVG 1.1//EN" "http://www.w3.org/Graphics/SVG/1.1/DTD/svg11.dtd">
<svg version="1.1" id="Layer_1" xmlns="http://www.w3.org/2000/svg" xmlns:xlink="http://www.w3.org/1999/xlink" x="0px" y="0px"
	 width="185px" height="75px" viewBox="0 0 185 75" enable-background="new 0 0 185 75" xml:space="preserve">
<g id="XMLID_1_">
	<rect id="XMLID_3_" x="58.5" y="3.5" fill="#35FA00" width="68" height="68"/>
	<rect id="XMLID_5_" x="61.492" y="6.492" fill="#072600" width="62.016" height="62.016"/>
	<g id="XMLID_8_">
		<g>
			<path id="XMLID_38_" fill="#35FA00" d="M67.722,20.275c0-0.187,0.039-0.281,0.273-0.328c2.339-0.094,5.262-0.14,7.795-0.14
				c8.809,0,13.252,6.035,13.252,15.017c0,13.333-8.731,15.719-14.032,15.719c-2.767,0-4.794-0.047-7.016-0.093
				c-0.195,0-0.273-0.094-0.273-0.421V20.275z M72.438,46.052c0.702,0.047,1.637,0.047,2.729,0.047
				c5.456,0,9.042-3.415,9.042-11.134c0-7.064-3.079-10.667-8.418-10.667c-1.754,0-3.001,0.046-3.352,0.093V46.052z"/>
		</g>
	</g>
	<g id="XMLID_2_">
		<g>
			<path id="XMLID_28_" fill="#35FA00" d="M108.827,50.713c-0.268,0-0.344-0.093-0.421-0.374
				c-2.145-10.433-2.872-14.363-3.255-16.562h-0.038c-0.383,2.339-1.302,6.503-3.714,16.562c-0.077,0.281-0.192,0.374-0.422,0.374
				h-4.25c-0.345,0-0.422-0.14-0.498-0.421l-5.016-21.941c-0.077-0.234,0-0.375,0.229-0.375h4.097c0.23,0,0.307,0.047,0.345,0.281
				c2.604,12.117,3.14,15.532,3.408,17.216h0.076c0.153-0.795,1.11-5.661,3.639-17.123c0.038-0.281,0.076-0.375,0.344-0.375h4.098
				c0.191,0,0.268,0.094,0.307,0.281c2.488,11.93,3.102,15.672,3.369,17.356h0.076c0.46-2.76,1.188-7.251,3.562-17.31
				c0.038-0.234,0.153-0.328,0.307-0.328h3.79c0.153,0,0.269,0.094,0.23,0.328l-5.553,22.035c-0.076,0.281-0.114,0.374-0.421,0.374
				H108.827z"/>
		</g>
	</g>
</g>
</svg>
