<?xml version="1.0" encoding="utf-8"?>
<!-- Generator: Adobe Illustrator 21.0.0, SVG Export Plug-In . SVG Version: 6.00 Build 0)  -->
<svg version="1.1" id="Layer_1" xmlns="http://www.w3.org/2000/svg" xmlns:xlink="http://www.w3.org/1999/xlink" x="0px" y="0px"
	 viewBox="0 0 250 115" style="enable-background:new 0 0 250 115;" xml:space="preserve">
<style type="text/css">
	.st0{fill:#ED1D24;}
</style>
<g>
	<circle class="st0" cx="116.6" cy="54.4" r="3.8"/>
	<path class="st0" d="M200.2,60.9c-2.8,2.3-5.2,4.8-8,6.8c-2.8,1.9-5.8,3.3-8.8,4.8c-0.6,0.3-1.8,0.1-2.3-0.3
		c-0.4-0.4-0.3-1.7,0-2.3c0.8-1.7,2-3.2,3.2-5c-1.4-1.1-2.8-2.2-4.3-3.2c-1.3,1.1-2.2,2-3.3,2.7c-4.6,2.8-9.1,5.6-13.9,8
		c-2.3,1.2-5.1,1-7.1-1.8c2-1.5,4.1-2.6,5.6-4.1c5.1-5,10.3-9.9,14.9-15.4c2-2.4,3.9-6.2,1-9.1c-2.8-2.8-6.4-1.2-9.4,0.4
		c-8.5,4.5-14.6,11.5-17,20.8c-1.3,5.2-4.1,7.4-8.7,8.4c-2.7,0.6-5.3,1.3-8.1,1.3c-1.7,0-3.3-1.2-5.1-1.8c0.4-0.9,0.4-1.2,0.6-1.3
		c0.9-0.8,1.9-1.4,2.8-2.2c7.5-5.3,14.5-11.4,19.9-19c1.8-2.6,3.3-5.6,4.3-8.5c1.1-3.2-0.8-5.6-4.2-5.3c-2.7,0.3-5.5,1-7.8,2.3
		C133.8,43.8,126.2,53,123,65.5c-0.3,0.9-0.4,2.3-1,2.5c-3.8,1.8-7.8,3.7-11.8,4.8c-2.3,0.7-3.4-1-2.2-3.3c1.3-2.2,2.8-4.2,4.3-6.5
		c-1.3-1-2.7-2.1-4-3.1c-14.6,13.4-22,16-28.8,10.3c4.3-5.1,8.6-10.3,13-15.3c0.8-0.9,2.1-1.5,3.3-1.8c11.7-3.1,21.5-9.3,29.5-18.3
		c2.9-3.3,5.2-7.5,6.8-11.6c1.8-4.3,0.8-6.1-2.8-8.4c-0.5-0.3-1-0.5-1.5-0.6c-0.9-0.2-1.4,0-2.3,0.2c-0.3,0.1-0.5,0.1-0.7,0.2
		c-9.9,3.3-16.5,10.6-23,18.3C98,37.4,94.6,42.1,91,46.8c-0.8,0.9-1.6,2.2-2.5,2.3c-6.8,1.2-13.4,0.9-19-3.7
		c-3.5-2.8-3.5-7.1-0.4-11.2c3.8-5,9.3-7.4,15.1-9.1c1.5-0.4,3-0.7,4.5-1c-0.9-4.8-1-4.9-5.7-3.8c-6.5,1.5-12.4,4.3-17.2,9.2
		c-8.6,8.9-6.1,19.8,5.7,23.5c4,1.3,8.4,1.5,13.4,2.3c-3.6,3.8-7,7.3-10.6,10.7c-0.4,0.4-1.9-0.2-2.8-0.4c-4.4-1.2-8.8-3-13.3-3.6
		c-4.7-0.6-8.7,1.1-11.4,4.9c-0.6,0.8-0.8,1.8-0.8,2.8v0.5c0,1.2,0.4,2.3,1.2,3.3c4.2,5,10.3,4.9,16,3.6c4.4-1.1,8.6-2.1,12.9-1.6
		c14.6,7.3,26.6-2.5,26.6-2.5h-0.3h0.1c0,0,0.1,0,0.1-0.1h0.1l0,0c-0.3,1.1,0.1,2,0.7,2.7c0.5,0.5,1,0.9,1.5,1.3
		c0.1,0.1,0.2,0.1,0.3,0.2s0.2,0.1,0.3,0.2c0.1,0,0.1,0.1,0.2,0.1c1.8,0.8,4,0.8,7.2,0.1c1.9-0.5,3.8-1.2,5.8-1.9
		c1.8-0.7,3.5-1.5,5.3-2.4c3.8,5.3,9.2,5.2,14.6,4.3c2.7-0.4,5.3-1.3,7.9-2.3c2.4-1.1,4-1.2,6.2,0.9c2.9,2.8,7,2.3,10.6,1.3
		c3.5-0.9,6.9-2.6,10.7-4c0.6,5.1,4.5,4.8,9.1,4.3c-3,3.9-5.8,7-8.1,10.4c-2.3,3.3-4.3,6.8-6.4,10.5c2,0.9,3.4,1.7,4.8,2.3h1.4
		c1.1-2.3,1.8-4.8,3.3-7c7-11.2,16.3-20.3,26.2-28.9v-1.4C202.7,62.6,201.5,61.8,200.2,60.9z M172.8,46.2
		c-3.6,8.4-10.1,13.3-16.7,18.5C156.2,58.6,166.6,46.8,172.8,46.2z M150.5,40c-4.3,10.1-12.4,16.5-20.9,22.9
		C133.8,52.9,140.6,45.1,150.5,40z M122,21.9L122,21.9c0,0,0.2-0.2,0.5-0.3c0,0,0.1,0,0.1-0.1l0,0c1.5-0.8,5.1-2.4,3,2.3l0,0
		c-0.1,0.2-0.1,0.3-0.2,0.4C119.6,35,110.6,42,99.3,46.1C105.9,37.1,112.4,27.8,122,21.9z M55.2,72.7c-1.3-0.2-3.3-1.3-3.3-2.7
		c0-1.4,2-2.6,3.2-2.9c4.5-1,8.7,0.2,12.9,3.1C63.7,72.8,59.4,73.4,55.2,72.7z"/>
</g>
</svg>
