<?xml version="1.0" encoding="utf-8"?>
<!-- Generator: Adobe Illustrator 21.0.0, SVG Export Plug-In . SVG Version: 6.00 Build 0)  -->
<svg version="1.1" id="Layer_1" xmlns="http://www.w3.org/2000/svg" xmlns:xlink="http://www.w3.org/1999/xlink" x="0px" y="0px"
	 viewBox="0 0 539.2 200.1" style="enable-background:new 0 0 539.2 200.1;" xml:space="preserve">
<style type="text/css">
	.st0{fill:#939BA1;}
	.st1{fill:#E31837;}
</style>
<g id="Layer_1_1_">
</g>
<g id="Logo_art">
	<g>
		<g>
			<g>
				<g>
					<g>
						<path class="st0" d="M199,58.4c20.7,0,37.5,16.6,37.9,37.2l0,0c0.4,12,10.2,21.6,22.3,21.6c12.1,0,21.9-9.6,22.3-21.6h15.6
							c-0.4,20.6-17.2,37.2-37.9,37.2s-37.5-16.6-37.9-37.2l0,0C220.8,83.6,211,74,199,74c-12.1,0-21.9,9.6-22.3,21.6h-15.6
							C161.4,75,178.3,58.4,199,58.4z"/>
						<g>
							<path class="st1" d="M360.7,58.4v37.3c0,0.2,0,0.2,0,0.4c-0.5,11.8-10.3,21.2-22.3,21.2c-11.9,0-21.7-9.4-22.3-21.2
								c0-0.2,0-37.7,0-37.8h-15.6c0,0.2,0,37.6,0,37.8c0.6,20.4,17.3,36.8,37.9,36.8c20.5,0,37.3-16.4,37.8-36.8c0-0.2,0-0.3,0-0.5
								V58.4H360.7z"/>
							<path class="st1" d="M140,22.5c0,0.1,0,110.2,0,110.2h15.6c0,0,0-110.1,0-110.2H140z"/>
							<path class="st1" d="M454.9,132.8v-0.3v-13.7v0.3c0-10.6,0-23.6,0-23.7c-0.5-20.5-17.2-37-37.9-37c-3.7,0-7.4,0.5-10.9,1.6
								c-15.3,4.3-26.5,18.1-27,34.6c0,0.4,0,0.7,0,1.1l0,0c0,20.4,16.5,36.9,36.9,36.9c8.8,0,16.9-3.1,23.3-8.2c0,4.7,0,8.1,0,8.5
								l0,0L454.9,132.8L454.9,132.8z M416.6,117.9c-12.3,0-22.3-10-22.3-22.3l0,0l0,0c0.4-12,10.7-21.6,22.7-21.6
								c8.5,0,16,4.8,19.7,11.9c1.4,2.9,2.2,6.2,2.2,9.7C439,107.9,429,117.9,416.6,117.9z"/>
							<path class="st1" d="M199,132.8c20.7,0,37.5-16.6,37.9-37.2l0,0c0.4-12,10.2-21.6,22.3-21.6c12,0,21.8,9.5,22.3,21.4
								c0,0.1,0,82.2,0,82.2h15.6V95.4c-0.5-20.5-17.2-37-37.9-37S221.6,75,221.2,95.7l0,0c-0.4,12-10.2,21.6-22.3,21.6
								c-12.1,0-21.9-9.6-22.3-21.6h-15.6C161.4,116.2,178.3,132.8,199,132.8z"/>
							<g>
								<path class="st1" d="M133.5,100.7H77.5c0.9,5,2.9,8.9,6.5,11.8c3.5,2.9,8,4.4,13.5,4.4c6.5,0,12.1-2.2,16.8-6.8L129,117
									c-3.6,5.2-8.1,9.1-13.2,11.6c-5.1,2.5-11.2,3.7-18.2,3.7c-10.9,0-19.8-3.4-26.7-10.3c-7-7-10.4-15.6-10.4-25.9
									c0-10.6,3.4-19.4,10.2-26.4s15.4-10.5,25.7-10.5c10.9,0,19.9,3.5,26.8,10.5c6.9,7,10.3,16.3,10.3,27.8L133.5,100.7z
									 M116.1,87c-1.2-3.9-3.4-7.1-6.8-9.5c-3.4-2.4-7.4-3.6-11.8-3.6c-4.9,0-9.2,1.4-12.8,4.1c-2.3,1.7-4.4,4.7-6.4,9
									C78.2,87,116.1,87,116.1,87z"/>
							</g>
						</g>
					</g>
				</g>
				<g>
					<path class="st1" d="M467.3,124.8v7.4H466v-7.4h-2.3v-1.2h6v1.2H467.3z"/>
					<path class="st1" d="M477.3,132.2v-5.7l-1.9,4.2h-0.9l-2-4.2v5.7h-1.3v-8.5h1.3l2.5,5.4l2.5-5.4h1.3v8.5H477.3z"/>
				</g>
			</g>
		</g>
	</g>
</g>
</svg>
