<?xml version="1.0" encoding="utf-8"?>
<!-- Generator: Adobe Illustrator 21.0.2, SVG Export Plug-In . SVG Version: 6.00 Build 0)  -->
<svg version="1.1" id="Layer_1" xmlns="http://www.w3.org/2000/svg" xmlns:xlink="http://www.w3.org/1999/xlink" x="0px" y="0px"
	 width="190px" height="72px" viewBox="0 0 190 72" style="enable-background:new 0 0 190 72;" xml:space="preserve">
<style type="text/css">
	.st0{fill:#3C3C3B;}
	.st1{fill:#343434;}
	.st2{fill:#8C8C8C;}
	.st3{fill:#141414;}
	.st4{fill:#393939;}
</style>
<g>
	<path class="st0" d="M52,66.8c0,0.2-0.2,0.4-0.4,0.4h-8.2c0.2,2,1.7,3.9,3.9,3.9c1.5,0,2.6-0.6,3.4-1.7c0.1-0.2,0.3-0.3,0.5-0.2
		c0.1,0.1,0.2,0.2,0.2,0.3c0,0.1,0,0.2-0.1,0.3c-0.8,1.4-2.5,2.1-4.1,2.1c-2.8,0-4.7-2.5-4.7-5.1s2-5.1,4.7-5.1
		C50,61.7,52,64.2,52,66.8 M51.1,66.4c-0.2-2-1.7-3.9-3.9-3.9s-3.7,1.8-3.9,3.9H51.1z M61.9,62c0.2,0,0.4,0.2,0.4,0.4
		s-0.2,0.4-0.4,0.4h-2.2v8.6c0,0.2-0.2,0.4-0.4,0.4s-0.4-0.2-0.4-0.4v-8.6h-2.1c-0.2,0-0.4-0.2-0.4-0.4s0.2-0.4,0.4-0.4h2.1v-3.2
		c0-0.2,0.1-0.4,0.3-0.4c0.3,0,0.5,0.1,0.5,0.4V62H61.9L61.9,62z M75.3,66.1v5.2c0,0.2-0.2,0.4-0.4,0.4c-0.2,0-0.4-0.2-0.4-0.4v-5.2
		c0-1.8-1-3.5-3-3.5c-2.5,0-3.6,2.2-3.5,4.5c0,0.1,0,0.3,0,0.3v3.9c0,0.2-0.1,0.4-0.3,0.4c-0.3,0-0.5-0.1-0.5-0.4V54.2
		c0-0.2,0.2-0.4,0.4-0.4c0.2,0,0.4,0.2,0.4,0.4v9.7c0.7-1.3,2-2.1,3.4-2.1C74,61.8,75.3,63.9,75.3,66.1 M90,66.8
		c0,0.2-0.2,0.4-0.4,0.4h-8.2c0.2,2,1.7,3.9,3.9,3.9c1.5,0,2.6-0.6,3.4-1.7c0.1-0.2,0.3-0.3,0.5-0.2c0.1,0.1,0.2,0.2,0.2,0.3
		c0,0.1,0,0.2-0.1,0.3c-0.8,1.4-2.5,2.1-4.1,2.1c-2.8,0-4.7-2.5-4.7-5.1s2-5.1,4.7-5.1C88,61.7,90,64.2,90,66.8 M89.1,66.4
		c-0.2-2-1.7-3.9-3.9-3.9c-2.1,0-3.7,1.8-3.9,3.9H89.1z M100.1,62.3c0,0.3-0.1,0.4-0.4,0.4c-2.4,0.3-3.5,2.3-3.5,4.6v3.9
		c0,0.2-0.1,0.4-0.3,0.4c-0.3,0-0.5-0.1-0.5-0.4v-8.9c0-0.2,0.1-0.4,0.3-0.4c0.3,0,0.5,0.1,0.5,0.4v1.8c0.7-1.1,2-2.2,3.4-2.2
		C99.8,62,100.1,62.1,100.1,62.3 M113.5,66.8c0,0.2-0.2,0.4-0.4,0.4h-8.2c0.2,2,1.7,3.9,3.9,3.9c1.5,0,2.6-0.6,3.4-1.7
		c0.1-0.2,0.3-0.3,0.5-0.2c0.1,0.1,0.2,0.2,0.2,0.3c0,0.1,0,0.2-0.1,0.3c-0.8,1.4-2.5,2.1-4.1,2.1c-2.8,0-4.7-2.5-4.7-5.1
		s2-5.1,4.7-5.1C111.5,61.7,113.5,64.2,113.5,66.8 M112.7,66.4c-0.2-2-1.7-3.9-3.9-3.9s-3.7,1.8-3.9,3.9H112.7z M126.8,62.4v9
		c0,0.2-0.2,0.4-0.4,0.4c-0.2,0-0.4-0.2-0.4-0.4v-1.7c-0.7,1.4-1.9,2.3-3.4,2.3c-2.4,0-3.8-2.1-3.8-4.3v-5.2c0-0.2,0.2-0.4,0.4-0.4
		c0.2,0,0.4,0.2,0.4,0.4v5.2c0,1.8,1,3.5,3,3.5c2.8,0,3.4-2.6,3.4-5.4v-3.3c0-0.2,0.2-0.5,0.5-0.4C126.6,62.1,126.8,62.3,126.8,62.4
		 M147.5,66.1v5.2c0,0.2-0.2,0.4-0.4,0.4s-0.4-0.2-0.4-0.4v-5.2c0-1.8-1-3.5-3-3.5c-2.5,0-3.4,2.6-3.4,4.7v4c0,0.2-0.2,0.4-0.4,0.4
		s-0.4-0.2-0.4-0.4v-5.2c0-1.8-1-3.5-3-3.5c-2.5,0-3.5,2-3.4,4.6c0,0.1,0,0.2,0,0.2v3.9c0,0.2-0.1,0.4-0.3,0.4
		c-0.3,0-0.5-0.1-0.5-0.4v-9c0-0.2,0.1-0.4,0.3-0.4c0.3,0,0.5,0.1,0.5,0.4v1.5c0.7-1.3,2-2.1,3.4-2.1c1.7,0,3,1.1,3.5,2.6
		c0.7-1.5,2-2.6,3.7-2.6C146.1,61.8,147.5,63.9,147.5,66.1"/>
	<g>
		<path class="st1" d="M95,0.4l-0.3,1v29.5l0.3,0.3l13.7-8.1L95,0.4z"/>
		<path class="st2" d="M95,0.4L81.3,23.1L95,31.2V16.9V0.4z"/>
		<path class="st0" d="M95,33.8L94.8,34v10.5L95,45l13.7-19.3L95,33.8z"/>
		<path class="st2" d="M95,45V33.8l-13.7-8.1L95,45z"/>
		<path class="st3" d="M95,31.2l13.7-8.1L95,16.9V31.2z"/>
		<path class="st4" d="M81.3,23.1L95,31.2V16.9L81.3,23.1z"/>
	</g>
</g>
</svg>
