<?xml version="1.0" encoding="utf-8"?>
<!-- Generator: Adobe Illustrator 21.0.0, SVG Export Plug-In . SVG Version: 6.00 Build 0)  -->
<svg version="1.1" id="Layer_1" xmlns="http://www.w3.org/2000/svg" xmlns:xlink="http://www.w3.org/1999/xlink" x="0px" y="0px"
	 viewBox="0 0 130 70" style="enable-background:new 0 0 130 70;" xml:space="preserve">
<style type="text/css">
	.st0{fill:#20744B;}
	.st1{fill:#FFFFFF;}
</style>
<g>
	<g>
		<path class="st0" d="M91.1,11.3H70.4V6.4l-34,5.2v46l34,5.9v-7.2h20.7c1.4,0,2.5-1,2.5-2.2V13.5C93.6,12.3,92.5,11.3,91.1,11.3z
			 M91.5,54.5H70.4v-3.8h5.1v-4.5h-5.1v-2.6h5.1v-4.5h-5.2v-2.6h5.2V32h-5.2v-2.6h5.2v-4.5h-5.2v-2.6h5.2v-4.5h-5.2v-4.1h21.3
			L91.5,54.5L91.5,54.5z"/>
		<rect x="78.2" y="17.5" class="st0" width="8.8" height="4.5"/>
		<rect x="78.2" y="24.6" class="st0" width="8.8" height="4.5"/>
		<rect x="78.2" y="31.8" class="st0" width="8.8" height="4.5"/>
		<rect x="78.2" y="39" class="st0" width="8.8" height="4.5"/>
		<rect x="78.2" y="46.1" class="st0" width="8.8" height="4.5"/>
	</g>
	<polygon class="st1" points="45.3,24.1 49.7,23.9 52.4,31.4 55.7,23.6 60,23.3 54.7,34.1 60,44.9 55.5,44.6 52.3,36.3 49.2,44.2 
		44.9,43.8 49.8,34.3 	"/>
</g>
</svg>
