<?xml version="1.0" encoding="utf-8"?>
<!-- Generator: Adobe Illustrator 21.0.0, SVG Export Plug-In . SVG Version: 6.00 Build 0)  -->
<svg version="1.1" id="Layer_1" xmlns="http://www.w3.org/2000/svg" xmlns:xlink="http://www.w3.org/1999/xlink" x="0px" y="0px"
	 viewBox="0 0 345 134" style="enable-background:new 0 0 345 134;" xml:space="preserve">
<style type="text/css">
	.st0{enable-background:new    ;}
	.st1{fill:#020202;}
	.st2{fill:#BB2028;}
</style>
<g>
	<g>
		<g class="st0">
			<path class="st1" d="M159,43.3V31.9h-3.2v-2.2h0.3c2.2,0,3.5-0.8,3.8-2.6h2.4v16.3H159z"/>
			<path class="st1" d="M171.4,27.1c4,0,5.1,2.1,5.1,7.9c0,4.5-0.3,8.7-5.1,8.7c-4,0-5.1-2.1-5.1-7.9
				C166.3,31.3,166.5,27.1,171.4,27.1z M169.6,36.5c0,4.1,0.4,5,1.8,5c1.4,0,1.8-1.3,1.8-5.5v-1.8c0-4.1-0.4-5-1.8-5
				c-1.4,0-1.8,1.3-1.8,5.5V36.5z"/>
			<path class="st1" d="M182.4,27.1c4,0,5.1,2.1,5.1,7.9c0,4.5-0.3,8.7-5.1,8.7c-4,0-5.1-2.1-5.1-7.9
				C177.3,31.3,177.5,27.1,182.4,27.1z M180.6,36.5c0,4.1,0.4,5,1.8,5c1.4,0,1.8-1.3,1.8-5.5v-1.8c0-4.1-0.4-5-1.8-5
				c-1.4,0-1.8,1.3-1.8,5.5V36.5z"/>
			<path class="st1" d="M194.6,26.9h9.2v2.7h-5.9v3.9h5.5v2.7h-5.5v7.1h-3.3V26.9z"/>
			<path class="st1" d="M204.6,34.8v-0.3c0-2.8,2-3.8,4.3-3.8c3.8,0,4.5,1.6,4.5,3.8v6.5c0,1.2,0.1,1.7,0.4,2.4h-3
				c-0.2-0.4-0.3-0.8-0.4-1.3h0c-0.7,1.3-1.6,1.6-3.1,1.6c-2.2,0-3-1.9-3-3.5c0-2.3,0.9-3.3,3.1-3.9l1.8-0.5
				c0.9-0.3,1.3-0.6,1.3-1.4c0-0.9-0.4-1.5-1.5-1.5c-1,0-1.5,0.6-1.5,1.6v0.3H204.6z M210.4,37.2c-0.4,0.3-1,0.5-1.4,0.6
				c-1.3,0.3-1.8,0.9-1.8,2c0,0.9,0.3,1.7,1.2,1.7s2-0.5,2-1.9V37.2z"/>
			<path class="st1" d="M218,39.3v0.4c0,1.1,0.6,1.8,1.7,1.8c1,0,1.6-0.5,1.6-1.5c0-0.8-0.5-1.1-1.1-1.4l-2.2-0.8
				c-1.7-0.6-2.6-1.7-2.6-3.4c0-2,1.3-3.7,4.5-3.7c2.9,0,4.2,1.3,4.2,3.5v0.5h-2.8c0-1.3-0.4-1.9-1.4-1.9c-0.8,0-1.5,0.4-1.5,1.3
				c0,0.6,0.3,1.1,1.4,1.4l1.9,0.6c2,0.7,2.7,1.7,2.7,3.5c0,2.6-1.9,3.9-4.6,3.9c-3.6,0-4.5-1.5-4.5-3.9v-0.4H218z"/>
			<path class="st1" d="M226.6,27.4h3.2V31h1.8v2.2h-1.8v6.7c0,1,0.2,1.4,1.1,1.4c0.3,0,0.5,0,0.7,0v2.2c-0.7,0.1-1.3,0.1-2.1,0.1
				c-2.5,0-2.9-0.8-2.9-3.3v-7.1H225V31h1.6V27.4z"/>
			<path class="st1" d="M235.4,37.6v1c0,1.5,0.4,2.9,1.6,2.9c1.1,0,1.5-0.8,1.7-2.3h2.8c-0.1,2.9-1.4,4.5-4.5,4.5
				c-4.6,0-4.8-3.5-4.8-6.6c0-3.3,0.6-6.4,4.9-6.4c3.7,0,4.5,2.5,4.5,6.3v0.7H235.4z M238.6,35.8c-0.1-1.9-0.3-2.9-1.6-2.9
				c-1.3,0-1.6,1.3-1.6,2.5v0.5H238.6z"/>
			<path class="st1" d="M245.6,39.3v0.4c0,1.1,0.6,1.8,1.7,1.8c1,0,1.6-0.5,1.6-1.5c0-0.8-0.5-1.1-1.1-1.4l-2.2-0.8
				c-1.7-0.6-2.6-1.7-2.6-3.4c0-2,1.3-3.7,4.5-3.7c2.9,0,4.2,1.3,4.2,3.5v0.5h-2.8c0-1.3-0.4-1.9-1.4-1.9c-0.8,0-1.5,0.4-1.5,1.3
				c0,0.6,0.3,1.1,1.4,1.4l1.9,0.6c2,0.7,2.7,1.7,2.7,3.5c0,2.6-1.9,3.9-4.6,3.9c-3.6,0-4.5-1.5-4.5-3.9v-0.4H245.6z"/>
			<path class="st1" d="M254.2,27.4h3.2V31h1.8v2.2h-1.8v6.7c0,1,0.2,1.4,1.1,1.4c0.3,0,0.5,0,0.7,0v2.2c-0.7,0.1-1.3,0.1-2.1,0.1
				c-2.5,0-2.9-0.8-2.9-3.3v-7.1h-1.6V31h1.6V27.4z"/>
			<path class="st1" d="M266.8,35.3v2.7h-6.5v-2.7H266.8z"/>
			<path class="st1" d="M276.2,31.8c0-1.2-0.5-2.8-1.9-2.8c-1.6,0-2.3,1.6-2.3,5.7c0,4,0.4,6.4,2.3,6.4c0.8,0,2-0.8,2-2.6v-1.7h-2.2
				v-2.4h5.4v8.8h-2.4v-1.5h0c-0.8,1.3-1.9,1.8-3.4,1.8c-4.1,0-4.9-3-4.9-8.7c0-5.5,1.3-8.3,5.5-8.3c3.6,0,5.1,1.9,5.1,5.2H276.2z"
				/>
			<path class="st1" d="M281.6,31h3v1.7h0c0.6-1.2,1.5-2,2.8-2c0.2,0,0.4,0,0.6,0v3c-0.3,0-0.6,0-1,0c-1.1,0-2.3,0.6-2.3,2.2v7.4
				h-3.2V31z"/>
			<path class="st1" d="M293.7,30.7c3.8-0.1,4.9,2.2,4.9,6.5c0,4.2-1.3,6.5-4.9,6.5c-3.8,0.1-4.9-2.2-4.9-6.5
				C288.8,32.9,290.1,30.7,293.7,30.7z M293.7,41.5c1.3,0,1.7-1.2,1.7-4.3c0-3.1-0.4-4.3-1.7-4.3c-1.6,0-1.7,1.8-1.7,4.3
				C292,39.7,292.1,41.5,293.7,41.5z"/>
			<path class="st1" d="M299.4,31h3.2l1.4,8.8h0l1.5-8.8h3.4l1.6,8.8h0l1.5-8.8h3l-2.7,12.4h-3.6l-1.6-8.8h0l-1.5,8.8h-3.7L299.4,31
				z"/>
			<path class="st1" d="M316.6,26.8h3.2v2.7h-3.2V26.8z M316.6,31h3.2v12.4h-3.2V31z"/>
			<path class="st1" d="M321.9,31h3v1.4h0c0.7-1.2,1.8-1.8,3.1-1.8c2,0,3.1,1.1,3.1,3.5v9.2h-3.2v-8.5c0-1.3-0.4-1.7-1.4-1.7
				c-1.1,0-1.7,0.7-1.7,2v8.2h-3.2V31z"/>
			<path class="st1" d="M342.7,31v11.7c0,3.3-1.4,4.8-5.1,4.8c-2.7,0-4.2-1.2-4.2-3.3h3c0,0.4,0.2,0.7,0.5,0.9
				c0.3,0.2,0.7,0.3,1.1,0.3c1.3,0,1.7-0.9,1.7-2.2v-1.6h0c-0.6,0.9-1.6,1.5-2.6,1.5c-2.5,0-3.8-1.7-3.8-6.2c0-2.9,0.5-6.3,3.9-6.3
				c0.9,0,1.9,0.4,2.5,1.7h0V31H342.7z M337.9,40.8c1.4,0,1.7-1.4,1.7-3.5c0-3-0.4-4.1-1.7-4.1c-1.4,0-1.7,1.1-1.7,4.5
				C336.3,39.2,336.6,40.8,337.9,40.8z"/>
		</g>
		<g class="st0">
			<path class="st1" d="M156.2,52.2h4.2c1.4,0,5.1,0,5.1,4.7c0,3.1-2,4.8-4.7,4.8h-2.5v6.9h-2V52.2z M158.2,60h2.4
				c1.5,0,2.7-1,2.7-3.2c0-1.8-0.8-3-2.8-3h-2.3V60z"/>
			<path class="st1" d="M167.1,56.3h1.9v1.8h0c0.6-1.2,1.3-2.2,2.7-2.2c0.4,0,0.7,0,0.8,0.1V58c-0.2,0-0.4-0.1-1-0.1
				c-1,0-2.5,0.9-2.5,2.9v7.8h-1.9V56.3z"/>
			<path class="st1" d="M174.1,52.2h1.9v2.2h-1.9V52.2z M174.1,56.3h1.9v12.3h-1.9V56.3z"/>
			<path class="st1" d="M177.6,56.3h2.1l2.3,9.9h0l2.3-9.9h2.1l-3.3,12.3h-2.2L177.6,56.3z"/>
			<path class="st1" d="M187.7,60c0-2.8,1.2-4,4.1-4c3.7,0,3.7,2.3,3.7,3.5v6.9c0,0.5,0,1,0.6,1c0.3,0,0.4,0,0.5-0.1v1.4
				c-0.2,0-0.6,0.1-1.1,0.1c-0.7,0-1.7,0-1.7-1.6h0c-0.6,1.1-1.8,1.8-3,1.8c-2.3,0-3.4-1.4-3.4-3.6c0-1.7,0.7-2.9,2.3-3.4l2.6-0.8
				c1.4-0.4,1.4-0.8,1.4-1.9c0-1.2-0.7-1.8-2-1.8c-2.1,0-2.1,2-2.1,2.4V60H187.7z M193.6,61.9c-0.8,0.8-2.4,0.9-3.3,1.4
				c-0.6,0.4-0.9,0.9-0.9,2c0,1.3,0.4,2.1,1.7,2.1c1.3,0,2.5-1.1,2.5-2.3V61.9z"/>
			<path class="st1" d="M199,52.7h1.9v3.6h2.1v1.5h-2.1v7.9c0,1,0.3,1.4,1.3,1.4c0.4,0,0.6,0,0.8-0.1v1.6c-0.3,0.1-0.8,0.1-1.6,0.1
				c-2,0-2.5-0.8-2.5-2.4v-8.5h-1.8v-1.5h1.8V52.7z"/>
			<path class="st1" d="M205.9,62.7c0,1.9,0,4.7,2.4,4.7c1.8,0,2.1-1.9,2.1-2.8h1.9c0,1.3-0.8,4.4-4.1,4.4c-3,0-4.3-2.1-4.3-6.3
				c0-3.1,0.6-6.6,4.4-6.6c3.8,0,4.1,3.3,4.1,5.9v0.8H205.9z M210.4,61.2v-0.7c0-1.4-0.4-3-2.1-3c-2,0-2.3,2.5-2.3,3.2v0.5H210.4z"
				/>
			<path class="st1" d="M230.1,63c-0.2,3.1-1.4,5.9-5,5.9c-4.7,0-5.3-4.4-5.3-8.5s0.8-8.5,5.3-8.5c3.3,0,4.8,1.9,4.8,5.1h-2.1
				c-0.1-1.9-0.6-3.4-2.7-3.4c-2.8,0-3.2,3.1-3.2,6.9s0.4,6.9,3.2,6.9c2.5,0,2.8-2.3,2.9-4.3H230.1z"/>
			<path class="st1" d="M235.8,56c3.6,0,4.4,3,4.4,6.5s-0.9,6.5-4.4,6.5c-3.6,0-4.4-3-4.4-6.5S232.2,56,235.8,56z M238.2,62.5
				c0-2.7-0.4-5-2.5-5c-2,0-2.4,2.3-2.4,5c0,2.7,0.4,5,2.4,5C237.8,67.4,238.2,65.1,238.2,62.5z"/>
			<path class="st1" d="M242.3,56.3h1.8v1.4h0c0.5-1.1,1.8-1.8,3-1.8c1.4,0,2.3,0.6,2.7,2c0.6-1.1,1.6-2,2.9-2
				c3.2,0,3.2,2.4,3.2,3.9v8.7h-1.9v-8.5c0-0.9-0.1-2.5-1.7-2.5c-0.9,0-2.3,0.6-2.3,2.5v8.5h-1.9v-8.5c0-0.9-0.1-2.5-1.7-2.5
				c-0.9,0-2.3,0.6-2.3,2.5v8.5h-1.9V56.3z"/>
			<path class="st1" d="M258.7,56.3h1.8v1.5h0c0.3-0.9,1.3-1.8,2.7-1.8c2.9,0,4,2.6,4,6.2c0,2.8-0.8,6.7-4,6.7
				c-1.1,0-2.1-0.6-2.6-1.7h0v5.4h-1.9V56.3z M263,67.3c1.8,0,2.3-1.9,2.3-5.1c0-2.7-0.5-4.6-2.3-4.6c-2.1,0-2.5,2-2.5,4.8
				C260.6,64.9,260.9,67.3,263,67.3z"/>
			<path class="st1" d="M269.1,60c0-2.8,1.2-4,4.1-4c3.7,0,3.7,2.3,3.7,3.5v6.9c0,0.5,0,1,0.6,1c0.3,0,0.4,0,0.5-0.1v1.4
				c-0.2,0-0.6,0.1-1.1,0.1c-0.7,0-1.7,0-1.7-1.6h0c-0.6,1.1-1.8,1.8-3,1.8c-2.3,0-3.4-1.4-3.4-3.6c0-1.7,0.7-2.9,2.3-3.4l2.6-0.8
				c1.4-0.4,1.4-0.8,1.4-1.9c0-1.2-0.7-1.8-2-1.8c-2.1,0-2.1,2-2.1,2.4V60H269.1z M275,61.9c-0.8,0.8-2.4,0.9-3.3,1.4
				c-0.6,0.4-0.9,0.9-0.9,2c0,1.3,0.4,2.1,1.7,2.1c1.3,0,2.5-1.1,2.5-2.3V61.9z"/>
			<path class="st1" d="M279.6,56.3h1.8v1.4h0c0.5-1.1,1.8-1.8,3-1.8c3.2,0,3.2,2.4,3.2,3.9v8.7h-1.9v-8.5c0-0.9-0.1-2.5-1.8-2.5
				c-1,0-2.4,0.7-2.4,2.5v8.5h-1.9V56.3z"/>
			<path class="st1" d="M290.3,52.2h1.9v2.2h-1.9V52.2z M290.3,56.3h1.9v12.3h-1.9V56.3z"/>
			<path class="st1" d="M296.5,62.7c0,1.9,0,4.7,2.4,4.7c1.8,0,2.1-1.9,2.1-2.8h1.9c0,1.3-0.8,4.4-4.1,4.4c-3,0-4.3-2.1-4.3-6.3
				c0-3.1,0.6-6.6,4.4-6.6c3.8,0,4.1,3.3,4.1,5.9v0.8H296.5z M301,61.2v-0.7c0-1.4-0.4-3-2.1-3c-2,0-2.3,2.5-2.3,3.2v0.5H301z"/>
			<path class="st1" d="M310.4,59.9c0-1.6-0.4-2.4-1.8-2.4c-0.6,0-2,0.2-2,1.9c0,1.5,1.5,1.7,3,2.2c1.5,0.5,3,1,3,3.5
				c0,2.6-1.7,3.9-4,3.9c-4.2,0-4.2-3.1-4.2-4.4h1.9c0,1.5,0.4,2.8,2.3,2.8c0.6,0,2-0.3,2-2c0-1.7-1.5-2-3-2.5c-1.5-0.5-3-1-3-3.5
				c0-2.3,1.8-3.4,3.9-3.4c3.6,0,3.7,2.5,3.7,3.9H310.4z"/>
		</g>
		<g class="st0">
			<path class="st1" d="M156.2,77.5h1.9v2.2h-1.9V77.5z M156.2,81.6h1.9v12.3h-1.9V81.6z"/>
			<path class="st1" d="M160.8,81.6h1.8v1.4h0c0.5-1.1,1.8-1.8,3-1.8c3.2,0,3.2,2.4,3.2,3.9v8.7H167v-8.5c0-0.9-0.1-2.5-1.8-2.5
				c-1,0-2.4,0.7-2.4,2.5v8.5h-1.9V81.6z"/>
			<path class="st1" d="M177.5,78h1.9v3.6h2.1v1.5h-2.1V91c0,1,0.3,1.4,1.3,1.4c0.4,0,0.6,0,0.8-0.1v1.6c-0.3,0.1-0.8,0.1-1.6,0.1
				c-2,0-2.5-0.8-2.5-2.4v-8.5h-1.8v-1.5h1.8V78z"/>
			<path class="st1" d="M182.9,77.5h1.9V83h0c0.5-1,1.9-1.7,3-1.7c3.2,0,3.2,2.4,3.2,3.9v8.7h-1.9v-8.5c0-0.9-0.1-2.5-1.8-2.5
				c-1,0-2.4,0.7-2.4,2.5v8.5h-1.9V77.5z"/>
			<path class="st1" d="M195.1,88c0,1.9,0,4.7,2.4,4.7c1.8,0,2.1-1.9,2.1-2.8h1.9c0,1.3-0.8,4.4-4.1,4.4c-3,0-4.3-2.1-4.3-6.3
				c0-3.1,0.6-6.6,4.4-6.6c3.8,0,4.1,3.3,4.1,5.9V88H195.1z M199.6,86.5v-0.7c0-1.4-0.4-3-2.1-3c-2,0-2.3,2.5-2.3,3.2v0.5H199.6z"/>
			<path class="st1" d="M209.3,77.5h5c2.1,0,4.2,1,4.2,4.2c0,1.5-0.9,3-2.4,3.4v0c2,0.5,2.9,2,2.9,4c0,3.3-1.9,4.7-5.3,4.7h-4.5
				V77.5z M211.3,84.6h2.3c0.8,0,2.8-0.2,2.8-2.7c0-1.7-0.8-2.7-2.8-2.7h-2.3V84.6z M211.3,92.3h2.8c2.1,0,2.9-1.4,2.9-3
				c0-2.3-1.4-3.1-3.2-3.1h-2.4V92.3z"/>
			<path class="st1" d="M220.8,85.3c0-2.8,1.2-4,4.1-4c3.7,0,3.7,2.3,3.7,3.5v6.9c0,0.5,0,1,0.6,1c0.3,0,0.4,0,0.5-0.1v1.4
				c-0.2,0-0.6,0.1-1.1,0.1c-0.7,0-1.7,0-1.7-1.6h0c-0.6,1.1-1.8,1.8-3,1.8c-2.3,0-3.4-1.4-3.4-3.6c0-1.7,0.7-2.9,2.3-3.4l2.6-0.8
				c1.4-0.4,1.4-0.8,1.4-1.9c0-1.2-0.7-1.8-2-1.8c-2.1,0-2.1,2-2.1,2.4v0.1H220.8z M226.8,87.2c-0.8,0.8-2.4,0.9-3.3,1.4
				c-0.6,0.4-0.9,0.9-0.9,2c0,1.3,0.4,2.1,1.7,2.1c1.3,0,2.5-1.1,2.5-2.3V87.2z"/>
			<path class="st1" d="M230.3,81.6h2.1l2.4,9.9h0l2.2-9.9h2.1l-3.6,13.1c-0.5,1.7-1,3.2-3.3,3.2c-0.8,0-1.1,0-1.4-0.1v-1.5
				c0.3,0,0.6,0.1,1.1,0.1c0.9,0,1.3-0.5,1.5-1.2l0.4-1.1L230.3,81.6z"/>
			<path class="st1" d="M248.6,77.5h2.7l4.4,16.4h-2.1l-1.2-4.5h-5.2l-1.2,4.5h-2.1L248.6,77.5z M247.6,87.8h4.4l-2.1-7.9h0
				L247.6,87.8z"/>
			<path class="st1" d="M256.8,81.6h1.9v1.8h0c0.6-1.2,1.3-2.2,2.7-2.2c0.4,0,0.7,0,0.8,0.1v1.9c-0.2,0-0.4-0.1-1-0.1
				c-1,0-2.5,0.9-2.5,2.9v7.8h-1.9V81.6z"/>
			<path class="st1" d="M265.2,88c0,1.9,0,4.7,2.4,4.7c1.8,0,2.1-1.9,2.1-2.8h1.9c0,1.3-0.8,4.4-4.1,4.4c-3,0-4.3-2.1-4.3-6.3
				c0-3.1,0.6-6.6,4.4-6.6c3.8,0,4.1,3.3,4.1,5.9V88H265.2z M269.7,86.5v-0.7c0-1.4-0.4-3-2.1-3c-2,0-2.3,2.5-2.3,3.2v0.5H269.7z"/>
			<path class="st1" d="M273.5,85.3c0-2.8,1.2-4,4.1-4c3.7,0,3.7,2.3,3.7,3.5v6.9c0,0.5,0,1,0.6,1c0.3,0,0.4,0,0.5-0.1v1.4
				c-0.2,0-0.6,0.1-1.1,0.1c-0.7,0-1.7,0-1.7-1.6h0c-0.6,1.1-1.8,1.8-3,1.8c-2.3,0-3.4-1.4-3.4-3.6c0-1.7,0.7-2.9,2.3-3.4l2.6-0.8
				c1.4-0.4,1.4-0.8,1.4-1.9c0-1.2-0.7-1.8-2-1.8c-2.1,0-2.1,2-2.1,2.4v0.1H273.5z M279.5,87.2c-0.8,0.8-2.4,0.9-3.3,1.4
				c-0.6,0.4-0.9,0.9-0.9,2c0,1.3,0.4,2.1,1.7,2.1c1.3,0,2.5-1.1,2.5-2.3V87.2z"/>
		</g>
	</g>
	<g>
		<g>
			<path class="st2" d="M52.8,103.7c0.3-9.4,3.2-17.7,9.9-24.7c6.7-6.7,16.2-7.8,22.9-2.7c3.8,2.9,5.9,7.3,6.4,11.9
				c1.8,12.7-1.7,23.7-11.6,32c-10.2,8.6-24.2,3.5-27.2-9.4C53,108.5,52.8,106.2,52.8,103.7z M81.6,89.7c0-4.6,0-7.8-1.1-11
				c-1.4-3.8-4.6-4.9-7.8-2.4c-1.8,1.7-3.2,4-4,6.4c-3.2,9.2-4.6,18.6-4.6,28.2c0,3.2,0.3,6.2,1.7,9.2c1.4,2.7,3.8,3.5,6.2,1.8
				c2.4-1.4,3.8-4,4.9-6.4C80.2,106.9,81.3,97.5,81.6,89.7z"/>
			<path class="st2" d="M98.8,103.4c0.3-10.2,3.5-19.1,11.6-25.8c9.6-8.1,21.8-5.1,26.4,6.2c1.4,2.9,1.7,6.2,1.7,9.4
				c0,9.9-3.2,18.8-10.5,25.8c-6.4,6.2-15.3,7.3-22.1,2.4c-4.9-3.5-6.7-8.6-7.3-14.2C98.5,105.9,98.8,104.8,98.8,103.4z M127.3,88.3
				c0-2.4,0-4.9-0.6-7c-0.3-0.8-0.6-1.8-0.8-2.7c-1.7-3.8-4.3-4.3-7.5-1.8c-1.8,1.7-2.9,3.8-3.8,5.9c-3.2,8.4-4.3,17.2-4.9,26.1
				c-0.3,3.5,0,6.7,1.1,10.2c0.6,1.8,1.7,3.5,3.8,3.8c2.1,0.3,3.8-0.6,5.1-2.1c1.4-1.7,2.4-3.2,3.2-5.4
				C126,106.4,126.8,97.5,127.3,88.3z"/>
			<path class="st2" d="M32,79.2c-2.7,1.1-5.4,1.8-7.8,2.7c-0.6,0.3-1.1,0.6-1.4-0.3c-0.3-0.8,0.3-0.8,0.8-1.1
				c5.9-2.1,12.1-4.6,18-6.7c1.8-0.8,2.4,0,2.1,1.8c-1.7,11.6-3.5,23.4-5.1,35c-0.3,2.7-0.8,5.4-1.1,8.4c-0.3,1.7,0.3,2.7,2.1,2.9
				c1.4,0.3,2.7,0.3,4,0.6c0.6,0,1.4,0,1.1,0.8c0,0.8-0.8,0.8-1.4,0.8c-2.4,0-4.9,0-7.5,0c-5.6,0-11.3,0-16.9,0
				c-0.6,0-1.7,0.3-1.7-0.6c-0.3-1.1,0.8-0.8,1.7-1.1c7-1.1,7-1.1,7.8-8.1c1.7-10.8,2.9-21.5,4.6-32C31.8,81.1,31.8,80.3,32,79.2z"
				/>
		</g>
		<path class="st1" d="M33.1,29.1c-0.3,0-0.6,0-1.1,0c-2.4-0.6-2.9,0.6-3.2,2.9c-1.1,10.5-2.4,20.7-4.3,31.2
			C23.4,70,19.9,75.7,14,79.5c-2.4,1.7-5.4,2.4-8.4,2.1c-1.8-0.3-3.5-0.8-3.8-2.9c-0.3-1.8,1.1-3.8,2.9-4.3c2.1-0.8,3.5,0.6,4.3,2.1
			c0.6,0.8,0.8,2.1,1.8,1.8c1-0.3,1.4-1.7,1.4-2.7c1.1-15.1,3.8-29.9,5.9-44.7c0.3-1.8-0.6-1.8-1.8-1.8c-1.1,0-2.7,0.6-2.7-0.6
			c0-1.4,1.7-1.1,2.7-1.1c2.1,0,2.7-1.1,2.9-2.7C21.2,14.1,32,7.4,42.2,10.3c2.1,0.6,4,1.7,5.1,3.5c1.1,1.8,0.8,3.8-0.6,5.6
			c-1.4,1.7-3.2,2.1-5.4,1.7c-2.1-0.6-2.7-2.1-1.7-4v-0.3c0.8-1.4,2.9-2.7,1.1-4.6c-1.4-1.4-4.9-0.8-6.4,0.6
			c-1.4,1.1-2.1,2.4-2.7,3.8c-1.1,2.9-1.7,6.2-2.1,9.2C29.4,27,29.9,27,31,27c1.4,0,2.9,0,4.3,0c0.6,0,1.7-0.6,1.7,0.8
			c0,1.1-1.1,1.1-1.7,1.1C34.7,29.1,34,29.1,33.1,29.1z"/>
		<path class="st1" d="M61.1,56.6c-0.8,1.4-1.7,2.7-2.1,3.8c-3.2,4.3-7.3,7-12.7,5.9c-5.4-0.8-8.4-4.6-9.6-9.6
			C33.7,46.7,38,35.1,46.6,30c7-4.3,14.2-4.3,21.8-1.3c1.8,0.8,3.2,0.8,4.6-0.6c0.3-0.3,0.8-0.6,1.1-0.8c0.6-0.3,1.4-0.6,1.8-0.3
			c0.8,0.3,0.3,1.1,0,1.7c-1.3,9.6-2.7,19-4,28.8c0,0.3-0.3,0.8-0.3,1.1c-0.6,3.5,0.6,4,3.8,2.9c0.6-0.3,1.1-1.4,1.7-0.3
			c0.3,0.8-0.6,1.1-1.1,1.7c-3.2,1.8-6.4,3.8-10.5,3.8c-3.5,0-5.1-1.8-4.6-5.4C60.5,59.8,61.4,58.5,61.1,56.6z M46.8,47
			c-0.3,5.6,0.3,9.2,1.7,11.9c1.8,3.5,5.1,4.3,8.4,1.4c1.7-1.4,2.4-3.5,3.2-5.4c2.7-7.5,2.9-15.3,4.3-23.2c0.3-1.1-0.6-1.7-1.4-1.8
			c-4.9-2.4-10.5-0.6-13,4.9C47.9,38.6,47.1,43.2,46.8,47z"/>
		<path class="st1" d="M78.8,58.7c0-1.4,0-2.7,0.3-4c0-0.6-0.3-1.4,0.6-1.4c0.8,0,0.8,0.6,0.8,1.1c0.6,2.1,1.1,4,2.4,5.9
			c2.4,3.8,7.8,5.4,12.1,3.5c4.3-2.1,4.9-7.3,1.1-9.9c-1.8-1.7-4-2.7-6.2-3.8c-1.7-0.8-2.9-1.8-4.6-2.9c-5.4-4-5.1-13.4,1.7-17.5
			c6.4-3.8,13.4-3.2,20.4-0.6c0.6,0.3,1.1,0.6,1.1,1.4c-0.3,2.7-0.6,5.1-0.6,7.8c0,0.6,0,1.1-0.6,1.1c-0.8,0-0.8-0.6-1.1-1.1
			c-0.6-2.1-1.4-4.3-2.7-5.9c-1.8-2.4-4-3.8-7.3-3.5c-2.4,0.3-4.3,1.4-5.1,3.8c-0.8,2.7,0,4.9,2.1,6.4c1.8,1.7,4,2.7,6.2,4
			c1.7,0.8,2.9,1.8,4.3,2.9c5.6,4.3,4.9,13.7-1.4,17.7c-7.3,4.6-15.1,4-22.6,1.1c-1.1-0.3-1.4-1.1-1.1-1.8
			C78.8,61.2,78.8,60.1,78.8,58.7L78.8,58.7z"/>
		<path class="st1" d="M134.3,61.5c0.3,1.1-0.3,1.4-0.8,1.7c-4.3,2.4-8.6,4-13.4,3.5c-4-0.6-6.4-2.9-5.9-7.3
			c0.3-4.3,1.1-8.4,1.7-12.7c0.8-5.1,1.4-10.2,2.1-15.3c0.3-1.7-0.3-2.1-1.8-1.8c-1.1,0-2.7,0.8-2.9-0.6c0-1.1,1.8-0.8,2.7-0.8
			c1.7-0.3,2.7-0.6,3.8-1.8c2.7-3.2,5.6-5.9,8.4-9.2c0.6-0.6,1.1-1.4,1.8-1.1c1.1,0.6,0.3,1.4,0.3,1.8c-0.3,2.7-0.6,5.1-1.1,7.8
			c-0.3,1.7,0.3,1.8,1.7,1.8c1.8,0,3.8,0,5.6,0c0.6,0,1.7-0.3,1.7,0.8c0,1.1-0.8,0.8-1.7,0.8c-2.1,0-4,0-6.2,0
			c-1.4,0-1.7,0.6-1.8,1.7c-1.1,8.9-2.4,17.7-3.5,26.7c-0.8,5.1,1.7,7,6.7,4.9C132.4,62.2,133.2,61.8,134.3,61.5z"/>
	</g>
</g>
</svg>
