<svg width="463" height="75" xmlns="http://www.w3.org/2000/svg">

 <g>
  <title>background</title>
  <rect fill="none" id="canvas_background" height="402" width="582" y="-1" x="-1"/>
 </g>
 <g>
  <title>Layer 1</title>
  <path id="svg_1" d="m55.7,73.6l17.9,0l-24.5,-73.5l0,70.7c1.7,1.7 4,2.8 6.6,2.8" fill="#0f9d59"/>
  <path id="svg_2" d="m36.8,36.8l10.3,30.7c0.4,1.3 1.2,2.4 2.1,3.3l0,-70.9l-12.4,36.9" fill="#0a6e3d"/>
  <path id="svg_3" d="m24.5,0l-24.5,73.5l17.9,0c2.6,0 4.9,-1.1 6.6,-2.8c0.9,-0.9 1.6,-2 2.1,-3.3l22.5,-67.4l-24.6,0" fill="#4284f4"/>
  <g id="svg_4" fill="#77777a">
   <path id="svg_5" d="m291.7,43.2l11.4,0l-4.3,-11.5c-0.4,-0.9 -0.8,-2.2 -1.3,-3.8c-0.4,1.4 -0.8,2.7 -1.3,3.8l-4.5,11.5m12.2,2l-12.9,0l-4.5,11.3l-2.5,0l12.8,-32l1.4,0l12.5,32l-2.5,0l-4.3,-11.3m19.1,-10.9c-2.6,0 -4.5,0.9 -5.8,2.7s-2,4.5 -2,7.9c0,6.7 2.6,10.1 7.8,10.1c2.7,0 4.7,-0.8 5.9,-2.3c1.3,-1.6 1.9,-4.1 1.9,-7.7l0,-0.4c0,-3.7 -0.6,-6.3 -1.8,-7.9c-1.3,-1.6 -3.3,-2.4 -6,-2.4m0,-2c1.7,0 3.2,0.3 4.5,0.9c1.3,0.6 2.4,1.7 3.4,3.2l0.1,0c-0.1,-1.8 -0.1,-3.6 -0.1,-5.4l0,-8.5l2.1,0l0,33.9l-1.4,0l-0.5,-3.6l-0.2,0c-1.8,2.7 -4.4,4.1 -7.8,4.1c-3.3,0 -5.8,-1 -7.5,-3.1c-1.7,-2 -2.6,-5 -2.6,-8.9c0,-4.1 0.9,-7.2 2.6,-9.4c1.6,-2.1 4.1,-3.2 7.4,-3.2m43.3,24.2l-1.9,0l-7,-24.6c-0.6,-2 -1,-3.7 -1.3,-5c-0.2,1.3 -0.6,2.7 -1,4.4c-0.4,1.6 -2.8,10.1 -7,25.2l-1.9,0l-8.8,-31.9l2.3,0l5.6,20.5c0.2,0.8 0.4,1.6 0.6,2.3c0.2,0.7 0.4,1.4 0.5,2c0.2,0.6 0.3,1.2 0.4,1.8c0.1,0.6 0.2,1.2 0.3,1.7c0.3,-2 1.1,-5 2.2,-9l5.5,-19.3l2.5,0l6.4,22.1c0.7,2.6 1.3,4.6 1.6,6.2c0.2,-1.1 0.4,-2.2 0.7,-3.3c0.3,-1.2 2.5,-9.5 6.7,-25l2.3,0l-8.7,31.9m14.3,-12c0,3.3 0.7,5.8 2.2,7.6c1.4,1.8 3.5,2.7 6.1,2.7c2.6,0 4.6,-0.9 6.1,-2.7c1.4,-1.8 2.2,-4.4 2.2,-7.6c0,-3.3 -0.7,-5.8 -2.2,-7.6c-1.4,-1.8 -3.5,-2.7 -6.1,-2.7c-2.6,0 -4.6,0.9 -6.1,2.7c-1.4,1.8 -2.2,4.3 -2.2,7.6m18.7,0c0,3.9 -0.9,6.9 -2.8,9.1c-1.9,2.2 -4.5,3.3 -7.8,3.3c-2.1,0 -3.9,-0.5 -5.5,-1.5s-2.8,-2.4 -3.6,-4.3c-0.8,-1.9 -1.3,-4.1 -1.3,-6.5c0,-3.9 0.9,-6.9 2.8,-9.1c1.9,-2.2 4.5,-3.2 7.7,-3.2c3.3,0 5.8,1.1 7.7,3.3c1.9,2.1 2.8,5.1 2.8,8.9m15.4,-12.2c1,0 2.1,0.1 3.2,0.3l-0.4,2.1c-1,-0.2 -2,-0.4 -3.1,-0.4c-2,0 -3.7,0.9 -5,2.6c-1.3,1.7 -1.9,3.9 -1.9,6.5l0,13l-2.2,0l0,-23.6l1.8,0l0.2,4.3l0.2,0c1,-1.7 2,-3 3.1,-3.7c1.2,-0.7 2.5,-1.1 4.1,-1.1m16.2,2c-2.6,0 -4.5,0.9 -5.8,2.7c-1.3,1.8 -1.9,4.5 -1.9,7.9c0,6.7 2.6,10.1 7.8,10.1c2.7,0 4.6,-0.8 5.9,-2.3c1.3,-1.6 1.9,-4.1 1.9,-7.7l0,-0.4c0,-3.7 -0.6,-6.3 -1.8,-7.9c-1.4,-1.6 -3.4,-2.4 -6.1,-2.4m0,-2c1.7,0 3.2,0.3 4.5,0.9c1.2,0.6 2.4,1.7 3.4,3.2l0.1,0c-0.1,-1.8 -0.1,-3.6 -0.1,-5.4l0,-8.5l2.1,0l0,33.9l-1.4,0l-0.5,-3.6l-0.2,0c-1.8,2.7 -4.4,4.1 -7.8,4.1c-3.3,0 -5.8,-1 -7.5,-3.1c-1.7,-2 -2.6,-5 -2.6,-8.9c0,-4.1 0.9,-7.2 2.6,-9.4c1.7,-2.1 4.2,-3.2 7.4,-3.2m32.1,18c0,2.1 -0.8,3.8 -2.4,4.9c-1.6,1.1 -3.9,1.7 -6.9,1.7c-3.2,0 -5.7,-0.5 -7.6,-1.5l0,-2.3c2.4,1.2 4.9,1.8 7.6,1.8c2.3,0 4.1,-0.4 5.3,-1.2c1.2,-0.8 1.8,-1.8 1.8,-3.1c0,-1.2 -0.5,-2.2 -1.5,-3c-1,-0.8 -2.6,-1.6 -4.8,-2.4c-2.4,-0.9 -4,-1.6 -5,-2.2c-1,-0.6 -1.7,-1.3 -2.2,-2.1c-0.5,-0.8 -0.7,-1.7 -0.7,-2.9c0,-1.8 0.7,-3.2 2.2,-4.2c1.5,-1 3.6,-1.6 6.3,-1.6c2.6,0 5,0.5 7.3,1.4l-0.8,2c-2.3,-1 -4.5,-1.4 -6.5,-1.4c-1.9,0 -3.5,0.3 -4.6,1c-1.1,0.6 -1.7,1.5 -1.7,2.7c0,1.2 0.4,2.2 1.3,3c0.9,0.8 2.6,1.6 5.2,2.5c2.1,0.8 3.7,1.5 4.7,2.1c1,0.6 1.7,1.3 2.2,2.1c0.6,0.7 0.8,1.6 0.8,2.7m-243.3,-3.1c1.4,-1.4 1.5,-3.2 1.5,-4.3c0,-4.2 -2.5,-10.8 -7.4,-10.8c-1.5,0 -3.2,0.8 -4.1,1.9c-1,1.2 -1.3,2.8 -1.3,4.4c0,3.9 2.3,10.5 7.3,10.5c1.5,0 3.1,-0.7 4,-1.7m-1.7,11.2c-0.5,-0.1 -0.8,-0.1 -1.3,-0.1s-3.7,0.1 -6.2,0.9c-1.3,0.5 -5,1.9 -5,6.1s4.1,7.2 10.3,7.2c5.6,0 8.6,-2.7 8.6,-6.4c-0.1,-3 -2,-4.5 -6.4,-7.7m4.1,-26c1.3,1.1 4.2,3.5 4.2,7.9s-2.5,6.4 -4.9,8.4c-0.8,0.8 -1.6,1.6 -1.6,2.9s0.9,2 1.5,2.5l2.1,1.6c2.6,2.2 4.9,4.2 4.9,8.3c0,5.5 -5.3,11.1 -15.3,11.1c-8.5,0 -12.5,-4.1 -12.5,-8.4c0,-2.1 1,-5.1 4.5,-7.2c3.6,-2.2 8.6,-2.5 11.2,-2.7c-0.8,-1.1 -1.8,-2.2 -1.8,-4c0,-1 0.3,-1.6 0.6,-2.3c-0.6,0.1 -1.3,0.1 -1.9,0.1c-6.2,0 -9.7,-4.7 -9.7,-9.2c0,-2.7 1.2,-5.7 3.8,-7.9c3.3,-2.8 7.3,-3.2 10.5,-3.2l12,0l-3.8,2.1l-3.8,0zm-29.4,20.3c1.4,-1.9 1.8,-4.2 1.8,-6.5c0,-5.2 -2.5,-14.9 -9.7,-14.9c-1.9,0 -3.9,0.8 -5.3,2c-2.3,2.1 -2.7,4.6 -2.7,7.2c0,5.8 2.9,15.3 10,15.3c2.2,-0.1 4.5,-1.2 5.9,-3.1m-7.3,4.8c-9.3,0 -14.2,-7.3 -14.2,-13.8c0,-7.7 6.3,-14.2 15.1,-14.2c8.6,0 13.9,6.8 13.9,13.8c-0.1,6.8 -5.3,14.2 -14.8,14.2m-24.4,-4.8c1.4,-1.9 1.8,-4.2 1.8,-6.5c0,-5.2 -2.4,-14.9 -9.7,-14.9c-1.9,0 -3.9,0.8 -5.3,2c-2.3,2.1 -2.7,4.6 -2.7,7.2c0,5.8 2.9,15.3 10,15.3c2.3,-0.1 4.6,-1.2 5.9,-3.1m-7.3,4.8c-9.3,0 -14.2,-7.3 -14.2,-13.8c0,-7.7 6.3,-14.2 15.1,-14.2c8.6,0 13.9,6.8 13.9,13.8c0.1,6.8 -5.2,14.2 -14.8,14.2m-18.7,-0.9l-8.4,1.9c-3.4,0.5 -6.5,1 -9.7,1c-16.2,0 -22.3,-12 -22.3,-21.3c0,-11.5 8.8,-22 23.7,-22c3.2,0 6.3,0.5 9,1.2c4.4,1.2 6.5,2.8 7.8,3.7l-4.9,4.7l-2.1,0.5l1.5,-2.4c-2,-1.9 -5.7,-5.5 -12.5,-5.5c-9.3,0 -16.2,7.1 -16.2,17.3c0,11.1 8,21.5 20.7,21.5c3.8,0 5.7,-0.8 7.5,-1.5l0,-9.5l-8.9,0.5l4.7,-2.5l12.4,0l-1.5,1.5c-0.4,0.3 -0.5,0.5 -0.6,0.9c-0.1,0.5 -0.1,2.3 -0.1,2.9l-0.1,7.1"/>
   <path id="svg_6" d="m240.7,54.9c-2,-0.2 -2.4,-0.5 -2.4,-2.8l0,-33.4l0,-0.4c0.2,-2.1 0.8,-2.4 2.6,-3.5l-8.4,0l-4.4,2.1l4.5,0l0,36.4c0,1.2 -0.2,1.4 -1.6,3.1l10.4,0l2.2,-1.3c-0.9,-0.1 -1.9,-0.1 -2.9,-0.2m18.4,-17c1.1,-0.4 1.7,-0.8 1.7,-1.6c0,-2.4 -2.6,-5.1 -5.8,-5.1c-2.3,0 -6.7,1.8 -6.7,8.2c0,1 0.1,2.1 0.2,3.1l10.6,-4.6m5.5,17.5c-0.6,0.4 -1.3,0.8 -1.9,1.1c-1.9,0.9 -3.9,1.1 -5.7,1.1c-1.9,0 -4.8,-0.1 -7.8,-2.3c-4.1,-2.9 -6,-8 -6,-12.4c0,-9.1 7.4,-13.5 13.3,-13.5c2.1,0 4.3,0.5 6,1.6c2.9,1.9 3.7,4.5 4.1,5.8l-13.6,5.5l-4.5,0.3c1.4,7.5 6.5,11.8 11.9,11.8c3,0 5.1,-1.1 7.1,-2l-2.9,3"/>
  </g>
 </g>
</svg>