<svg width="33" height="32" viewBox="0 0 33 32" fill="none" xmlns="http://www.w3.org/2000/svg">
<g clip-path="url(#clip0_670_49)">
<path d="M20.4558 10.1504H21.3973L24.0505 7.49715L24.2217 6.38447C22.082 4.50149 19.3431 3.30322 16.2618 3.30322C10.7841 3.30322 6.0766 7.06919 4.70715 12.2046C4.96392 12.0334 5.64864 12.119 5.64864 12.119L10.9552 11.2631C10.9552 11.2631 11.212 10.8352 11.3832 10.8352C13.6941 8.18187 17.7169 7.9251 20.4558 10.1504Z" fill="#EA4335"/>
<path d="M27.8166 12.2049C27.2174 9.97956 25.9336 7.92539 24.2218 6.38477L20.4558 10.1507C21.9964 11.4346 22.9379 13.3176 22.9379 15.2862V15.9709C24.7353 15.9709 26.2759 17.4259 26.2759 19.3089C26.2759 21.1919 24.8209 22.6469 22.9379 22.6469H16.2619L15.5771 23.3316V27.3544L16.2619 28.0391H22.9379C27.731 28.0391 31.5825 24.1875 31.5825 19.3945C31.5825 16.3132 30.0419 13.7455 27.8166 12.2049Z" fill="#4285F4"/>
<path d="M9.58575 27.9535H16.2618V22.6469H9.58575C9.07221 22.6469 8.64426 22.5613 8.21631 22.3901L7.27482 22.6469L4.62152 25.3002L4.36475 26.1561C5.90537 27.2688 7.70277 27.9535 9.58575 27.9535Z" fill="#34A853"/>
<path d="M9.5859 10.6641C4.79285 10.6641 0.941284 14.5156 0.941284 19.3087C0.941284 22.0476 2.22514 24.5297 4.36489 26.1559L8.21646 22.3043C7.01819 21.7908 6.24788 20.5925 6.24788 19.3087C6.24788 17.5113 7.70292 15.9707 9.5859 15.9707C10.8698 15.9707 12.068 16.741 12.5816 17.9392L16.4331 14.0877C14.8925 11.9479 12.4104 10.6641 9.5859 10.6641Z" fill="#FBBC05"/>
</g>
<defs>
<clipPath id="clip0_670_49">
<rect width="31.5168" height="31.5168" fill="white" transform="translate(0.853638 0.151611)"/>
</clipPath>
</defs>
</svg>
