<?xml version="1.0" encoding="utf-8"?>
<!-- Generator: Adobe Illustrator 21.0.0, SVG Export Plug-In . SVG Version: 6.00 Build 0)  -->
<svg version="1.1" id="Layer_1" xmlns="http://www.w3.org/2000/svg" xmlns:xlink="http://www.w3.org/1999/xlink" x="0px" y="0px"
	 viewBox="0 0 413.2 250.8" style="enable-background:new 0 0 413.2 250.8;" xml:space="preserve">
<style type="text/css">
	.st0{fill:#3C8BD9;}
	.st1{fill:#FABC04;}
	.st2{fill:#34A852;}
	.st3{fill:#E1C025;}
	.st4{fill:#757575;}
</style>
<g>
	<path class="st0" d="M181.4,44c1.5-4,3.6-7.7,6.8-10.7c12.5-12.1,33.1-9.1,41.5,6.2c6.4,11.6,13.1,22.9,19.7,34.3
		c10.9,19,22,38.1,32.8,57.1c9.1,15.9-0.8,36.1-18.8,38.9c-11.1,1.7-21.5-3.5-27.2-13.4c-9.6-16.7-19.2-33.5-28.9-50.2
		c-0.2-0.4-0.4-0.7-0.7-1c-1-0.8-1.4-2-2.1-3.1c-4.2-7.5-8.6-14.9-12.9-22.4c-2.7-4.8-5.6-9.6-8.3-14.4c-2.5-4.3-3.6-9.1-3.5-14
		C180,48.9,180.3,46.4,181.4,44"/>
	<path class="st1" d="M181.4,44c-0.6,2.3-1.1,4.6-1.2,7c-0.2,5.3,1.2,10.3,3.8,14.9c7,12,14,24.2,20.9,36.2c0.7,1.1,1.2,2.2,1.8,3.2
		c-3.8,6.6-7.6,13.1-11.5,19.8c-5.3,9.2-10.7,18.5-16.1,27.7c-0.3,0-0.3-0.2-0.4-0.3c-0.1-0.5,0.2-0.9,0.3-1.4
		c2.6-9.6,0.4-18-6.1-25.3c-4-4.4-9.1-6.9-14.9-7.7c-7.6-1.1-14.4,0.9-20.4,5.7c-1.1,0.8-1.8,2-3.1,2.7c-0.3,0-0.4-0.2-0.4-0.3
		c3.1-5.3,6-10.6,9.1-15.9c12.6-21.9,25.2-43.8,37.9-65.6C181.2,44.5,181.3,44.3,181.4,44"/>
	<path class="st2" d="M134.3,126.4c1.2-1.1,2.4-2.2,3.6-3.2c15.4-12.2,38.7-3.4,42.1,15.9c0.8,4.7,0.4,9.1-1,13.6
		c-0.1,0.4-0.2,0.7-0.3,1.1c-0.6,1-1.1,2.1-1.7,3.1c-5.7,9.3-14,14-24.9,13.3c-12.5-0.9-22.4-10.3-24.2-22.8c-0.8-6,0.4-11.7,3.5-17
		c0.7-1.2,1.4-2.2,2.1-3.3C133.9,126.9,133.7,126.4,134.3,126.4"/>
	<path class="st1" d="M134.3,126.4c-0.3,0.3-0.3,0.7-0.7,0.8c-0.1-0.4,0.2-0.7,0.4-1L134.3,126.4"/>
	<path class="st3" d="M178.7,153.8c-0.3-0.4,0-0.8,0.3-1.1c0.1,0.1,0.2,0.2,0.3,0.3L178.7,153.8"/>
	<path class="st4" d="M140,191.6c-7.2,0-13.1,5.8-13.1,12.9s6,12.9,13.1,12.9c3.9,0,6.8-1.3,9.1-3.6c2.4-2.4,3.1-5.6,3.1-8.2
		c0-0.8-0.1-1.6-0.2-2.2H140v3.5h8.5c-0.3,2-0.9,3.5-2,4.5c-1.2,1.2-3.2,2.6-6.5,2.6c-5.3,0-9.3-4.2-9.3-9.3c0-5.2,4.1-9.3,9.3-9.3
		c2.8,0,4.9,1.1,6.4,2.5l2.5-2.5C146.7,193.2,143.9,191.6,140,191.6z M161.5,200.9c-4.5,0-8.3,3.5-8.3,8.4c0,4.8,3.7,8.4,8.3,8.4
		c4.6,0,8.3-3.6,8.3-8.4S166.1,200.9,161.5,200.9 M161.5,214.3c-2.5,0-4.7-2.1-4.7-5.1c0-3,2.2-5.1,4.7-5.1c2.5,0,4.7,2,4.7,5.1
		C166.2,212.2,164,214.3,161.5,214.3 M179.5,200.9c-4.6,0-8.3,3.5-8.3,8.4c0,4.8,3.7,8.4,8.3,8.4c4.5,0,8.3-3.6,8.3-8.4
		S184,200.9,179.5,200.9 M179.5,214.3c-2.5,0-4.7-2.1-4.7-5.1c0-3,2.2-5.1,4.7-5.1c2.5,0,4.7,2,4.7,5.1
		C184.1,212.2,182,214.3,179.5,214.3 M197.4,200.9c-4.2,0-7.9,3.6-7.9,8.3c0,4.7,3.7,8.3,7.9,8.3c2,0,3.5-0.9,4.3-2h0.2v1.2
		c0,3.2-1.7,4.9-4.4,4.9c-2.2,0-3.6-1.6-4.2-3l-3.2,1.4c0.9,2.2,3.3,4.9,7.3,4.9c4.2,0,7.8-2.5,7.8-8.6v-14.9h-3.3v1.4h-0.2
		C200.8,201.7,199.3,200.9,197.4,200.9 M197.7,214.2c-2.5,0-4.6-2.1-4.6-5c0-2.9,2.1-5.1,4.6-5.1c2.5,0,4.4,2.2,4.4,5.1
		C202.1,212,200.2,214.2,197.7,214.2 M208,192.6h3.6v24.6H208V192.6z M221.3,200.9c-4.3,0-8,3.4-8,8.4c0,4.7,3.6,8.4,8.3,8.4
		c3.9,0,6.1-2.4,7-3.7l-2.9-2c-0.9,1.4-2.3,2.3-4.2,2.3c-2,0-3.2-0.8-4.1-2.5l11.3-4.7l-0.4-0.9
		C227.8,204.3,225.7,200.9,221.3,200.9 M216.9,209c-0.2-3.2,2.5-4.9,4.4-4.9c1.4,0,2.7,0.7,3.1,1.8L216.9,209z"/>
	<path class="st4" d="M235.3,216.8l8.4-22.4h3.2l8.4,22.4H252l-2.2-6h-9.3l-2.2,6H235.3z M241.5,208.1h7.5l-3.6-10.1h-0.2
		L241.5,208.1z"/>
	<path class="st4" d="M258.2,214.9c-1.4-1.6-2.1-3.5-2.1-5.8c0-2.2,0.7-4.2,2.1-5.8c1.4-1.6,3.1-2.4,5.2-2.4c1.2,0,2.2,0.3,3.1,0.7
		c0.9,0.5,1.7,1.1,2.2,2h0.2l-0.2-2.1v-7h2.9v22.4h-2.7v-2.1h-0.2c-0.5,0.8-1.2,1.4-2.2,2c-0.9,0.5-2,0.7-3.1,0.7
		C261.4,217.3,259.6,216.5,258.2,214.9 M267.3,213.2c0.9-1,1.4-2.4,1.4-4c0-1.6-0.4-3-1.4-4c-0.9-1-2-1.5-3.5-1.5s-2.5,0.5-3.5,1.5
		c-0.9,1-1.4,2.4-1.4,4c0,1.6,0.4,3,1.4,4c0.9,1,2.1,1.5,3.5,1.5C265.3,214.7,266.4,214.2,267.3,213.2"/>
	<path class="st4" d="M284.7,215.9c-1.2,0.9-2.6,1.4-4.4,1.4c-1.5,0-2.9-0.4-4.1-1.2c-1.2-0.8-2-1.9-2.5-3.2l2.5-1.1
		c0.4,0.9,0.9,1.7,1.7,2.2c0.7,0.5,1.5,0.8,2.4,0.8c0.9,0,1.7-0.2,2.3-0.6s0.9-0.9,0.9-1.4c0-0.9-0.8-1.7-2.2-2.2l-2.6-0.7
		c-3-0.8-4.5-2.2-4.5-4.3c0-1.4,0.6-2.5,1.7-3.4c1.2-0.8,2.6-1.3,4.3-1.3c1.4,0,2.5,0.3,3.7,0.9c1.1,0.7,1.9,1.5,2.3,2.6l-2.5,1.1
		c-0.3-0.7-0.8-1.2-1.4-1.5s-1.4-0.6-2.2-0.6c-0.8,0-1.4,0.2-2,0.6c-0.6,0.4-0.9,0.8-0.9,1.4c0,0.9,0.8,1.5,2.5,1.9l2.3,0.6
		c3.1,0.8,4.5,2.3,4.5,4.6C286.5,213.9,285.9,215,284.7,215.9"/>
</g>
</svg>
