<?xml version="1.0" encoding="utf-8"?>
<!-- Generator: Adobe Illustrator 21.0.0, SVG Export Plug-In . SVG Version: 6.00 Build 0)  -->
<svg version="1.1" id="Capa_1" xmlns="http://www.w3.org/2000/svg" xmlns:xlink="http://www.w3.org/1999/xlink" x="0px" y="0px"
	 viewBox="0 0 130 70" style="enable-background:new 0 0 130 70;" xml:space="preserve">
<style type="text/css">
	.st0{fill:#FFC107;}
	.st1{fill:#FFA000;}
</style>
<g>
	<g>
		<path class="st0" d="M72.5,26H57.5c-0.8,0-1.5,0.7-1.5,1.5v30c0,0.8,0.7,1.5,1.5,1.5h15c0.8,0,1.5-0.7,1.5-1.5v-30
			C74,26.7,73.3,26,72.5,26z"/>
		<path class="st0" d="M57.5,41h-15c-0.8,0-1.5,0.7-1.5,1.5v15c0,0.8,0.7,1.5,1.5,1.5h15c0.8,0,1.5-0.7,1.5-1.5V42.5
			C59,41.7,58.3,41,57.5,41z"/>
	</g>
	<path class="st1" d="M87.5,11h-15c-0.8,0-1.5,0.7-1.5,1.5v45c0,0.8,0.7,1.5,1.5,1.5h15c0.8,0,1.5-0.7,1.5-1.5v-45
		C89,11.7,88.3,11,87.5,11z"/>
</g>
</svg>
