<?xml version="1.0" encoding="utf-8"?>
<!-- Generator: Adobe Illustrator 21.0.0, SVG Export Plug-In . SVG Version: 6.00 Build 0)  -->
<svg version="1.1" id="layer" xmlns="http://www.w3.org/2000/svg" xmlns:xlink="http://www.w3.org/1999/xlink" x="0px" y="0px"
	 viewBox="0 0 600.4 159.8" style="enable-background:new 0 0 600.4 159.8;" xml:space="preserve">
<style type="text/css">
	.st0{fill:#7158A1;}
	.st1{fill:#36313F;}
	.st2{opacity:0.8;fill:#00ADE2;enable-background:new    ;}
	.st3{opacity:0.75;fill:#FF0600;enable-background:new    ;}
	.st4{opacity:0.75;fill:#FF9100;enable-background:new    ;}
	.st5{fill:none;stroke:#FFFFFF;stroke-width:2.146;stroke-miterlimit:10;}
</style>
<g>
	<polygon class="st0" points="193.5,94.1 131.3,72.6 131.3,16.9 193.5,38.3 	"/>
	<g>
		<path class="st1" d="M260.8,126.4h-8c-0.6-2.1-0.8-4.3-0.9-6.5c-3,4.3-8.4,7.3-17.3,7.3c-16.7,0-25.9-12.7-25.9-29.1
			c0-17.4,9.9-30.4,27.8-30.4c14.4,0,23,8,24.5,18.1h-10.9c-1.4-4.7-5-9.4-13.8-9.4c-12.4,0-16.5,10.2-16.5,21.3
			c0,10.6,4.4,20.8,16.4,20.8c11.4,0,13.9-7.8,13.9-14.6v-0.6h-13.9v-9h24.5L260.8,126.4L260.8,126.4z"/>
		<path class="st1" d="M268,95c0-4.9,0-8.5-0.1-11.7h10.2c0.2,1,0.3,5,0.3,8c2.1-5.2,6.8-8.8,14-9v10c-8.7-0.1-14,3-14,14.5v19.5
			H268L268,95L268,95z"/>
		<path class="st1" d="M328.7,115.9c0,3.5,0.2,7,0.6,10.5h-9.9c-0.4-1.5-0.6-3.1-0.6-4.7c-1.5,2.6-4.7,5.7-12.5,5.7
			c-10.3,0-14.6-6.7-14.6-13.3c0-9.7,7.7-14.2,20.4-14.2h6.5v-3c0-3.3-1.1-6.9-7.5-6.9c-5.8,0-6.9,2.6-7.5,5.8h-9.9
			c0.6-7,5-13.5,17.8-13.4c11.2,0.1,17.3,4.5,17.3,14.5L328.7,115.9C328.8,115.9,328.7,115.9,328.7,115.9z M318.5,106.3H313
			c-7.7,0-11,2.2-11,7c0,3.5,2.3,6.4,6.9,6.4c8.5,0,9.5-5.8,9.5-12.2V106.3z"/>
		<path class="st1" d="M344.6,122v20.9h-10.3V93.8c0-3.5,0-7-0.1-10.4h10.1c0.2,2,0.3,3.9,0.3,5.8c2-3.5,6-6.9,13-6.9
			c9.8,0,17.1,8.1,17.1,21.4c0,15.2-8.3,23.6-18.7,23.6C349.7,127.4,346.4,124.9,344.6,122z M364.2,104.2c0-8.3-3.5-13.3-9.7-13.3
			c-7.5,0-10.3,4.8-10.3,14c0,8.8,2.4,14.1,9.7,14.1C360.7,119,364.2,113.6,364.2,104.2L364.2,104.2z"/>
		<path class="st1" d="M389.1,65.2v23.7c2-3.2,5.6-6.5,12.7-6.5c7.7,0,14.4,4.4,14.4,16.4v27.6h-10.3v-25.9c0-6.2-2.4-9.5-7.7-9.5
			c-7,0-9,5-9,12.4v23h-10.4V65.3L389.1,65.2L389.1,65.2z"/>
		<path class="st1" d="M424.6,67.9h21c10.7,0,18.1,6,18.1,16.3c0,10.6-7.3,16.8-18.7,16.8h-15.7v25.4h-4.7V67.9z M429.3,96.6h16
			c9.4,0,13.2-5,13.2-12.2c0-7.8-5.1-12.2-12.9-12.2h-16.3L429.3,96.6L429.3,96.6z"/>
		<path class="st1" d="M497,118.4c0,2.7,0.2,5.4,0.6,8h-4.2c-0.3-1-0.6-2.8-0.8-6.4c-1.4,3.1-5,7.4-13.6,7.4
			c-9.7,0-13.9-6.3-13.9-12.5c0-9.2,7.1-13.4,19.6-13.4h7.9v-4.3c0-4.2-1.3-9.7-10.7-9.7c-8.4,0-9.6,4.4-10.5,7.8H467
			c0.5-4.7,3.4-11.8,15-11.8c9.5,0,14.9,4,14.9,13.2L497,118.4z M492.8,105.1h-8.1c-9.2,0-14.9,2.4-14.9,9.5c0,5.3,3.7,8.8,9.5,8.8
			c11.8,0,13.5-7.9,13.5-16.8L492.8,105.1z"/>
		<path class="st1" d="M536.9,64.8v49.5c0,4,0,7.9,0.1,12h-4.2c-0.2-1-0.2-4.9-0.2-7c-2.1,5-6.8,8-14,8c-10.9,0-17.4-8.8-17.4-21.4
			c0-12.9,7.1-22.4,18.5-22.4c8.3,0,11.7,3.5,12.9,6.2V64.8H536.9z M505.8,105.8c0,11.4,5.9,17.5,13,17.5c11,0,14-7.6,14-18.8
			c0-10.7-2.5-16.9-13.2-16.9C511.3,87.6,505.8,94.2,505.8,105.8z"/>
	</g>
	<polygon class="st2" points="172.7,108.4 110.6,86.9 110.6,31.2 172.7,52.6 	"/>
	<polygon class="st3" points="152.1,122.6 89.8,101.2 89.8,45.5 152.1,67 	"/>
	<polygon class="st4" points="131.3,136.9 69.2,115.5 69.2,59.8 131.3,81.2 	"/>
	<path class="st5" d="M63.8,110.2c0,0,61.1,18.6,81.5-32.2c12.9-32.2,49.3-27.8,49.3-27.8"/>
</g>
</svg>
