<?xml version="1.0" encoding="utf-8"?>
<!-- Generator: Adobe Illustrator 21.0.0, SVG Export Plug-In . SVG Version: 6.00 Build 0)  -->
<svg version="1.1" id="Layer_1" xmlns="http://www.w3.org/2000/svg" xmlns:xlink="http://www.w3.org/1999/xlink" x="0px" y="0px"
	 width="160px" height="60px" viewBox="0 0 160 60" style="enable-background:new 0 0 160 60;" xml:space="preserve">
<style type="text/css">
	.st0{fill:none;stroke:#C79900;stroke-width:3;stroke-linecap:round;stroke-linejoin:round;}
	.st1{fill:none;stroke:#C79900;stroke-width:2;stroke-linecap:round;stroke-linejoin:round;}
	.st2{fill:#39275B;}
	.st3{fill:none;stroke:#39275B;stroke-linecap:round;stroke-linejoin:round;}
</style>
<g>
	<title>Canvas 1</title>
	<g>
		<title>Layer 1</title>
		<line class="st0" x1="68.3" y1="10.3" x2="92.3" y2="10.3"/>
		<path class="st1" d="M80.3,17.3c0-8,4.1-7,12-7"/>
		<line class="st1" x1="83.8" y1="19.3" x2="84.8" y2="19.3"/>
		<line class="st1" x1="76.8" y1="19.3" x2="75.8" y2="19.3"/>
		<line class="st1" x1="86.7" y1="38.4" x2="85.8" y2="40.1"/>
		<line class="st1" x1="75.8" y1="35.3" x2="76.8" y2="35.3"/>
		<line class="st1" x1="82.7" y1="30.4" x2="81.8" y2="32.1"/>
		<line class="st1" x1="70.7" y1="22.4" x2="69.8" y2="24.1"/>
		<line class="st1" x1="69.8" y1="30.4" x2="70.7" y2="32.1"/>
		<line class="st1" x1="89.8" y1="22.4" x2="90.7" y2="24.1"/>
		<line class="st1" x1="85.8" y1="30.4" x2="86.7" y2="32.1"/>
		<line class="st1" x1="81.8" y1="22.4" x2="82.7" y2="24.1"/>
		<line class="st1" x1="77.8" y1="46.4" x2="78.7" y2="48.1"/>
		<line class="st1" x1="82.7" y1="46.4" x2="81.8" y2="48.1"/>
		<line class="st1" x1="73.8" y1="22.4" x2="74.7" y2="24.1"/>
		<circle class="st2" cx="68.3" cy="27.3" r="3"/>
		<circle class="st3" cx="68.3" cy="27.3" r="3"/>
		<circle class="st2" cx="76.3" cy="27.3" r="3"/>
		<circle class="st3" cx="76.3" cy="27.3" r="3"/>
		<circle class="st2" cx="84.3" cy="27.3" r="3"/>
		<circle class="st3" cx="84.3" cy="27.3" r="3"/>
		<circle class="st2" cx="92.3" cy="27.3" r="3"/>
		<circle class="st3" cx="92.3" cy="27.3" r="3"/>
		<circle class="st2" cx="72.3" cy="35.3" r="3"/>
		<circle class="st3" cx="72.3" cy="35.3" r="3"/>
		<circle class="st2" cx="80.3" cy="35.3" r="3"/>
		<circle class="st3" cx="80.3" cy="35.3" r="3"/>
		<circle class="st2" cx="88.3" cy="35.3" r="3"/>
		<circle class="st3" cx="88.3" cy="35.3" r="3"/>
		<circle class="st2" cx="76.3" cy="43.3" r="3"/>
		<circle class="st3" cx="76.3" cy="43.3" r="3"/>
		<circle class="st2" cx="84.3" cy="43.3" r="3"/>
		<circle class="st3" cx="84.3" cy="43.3" r="3"/>
		<circle class="st2" cx="80.3" cy="51.3" r="3"/>
		<circle class="st3" cx="80.3" cy="51.3" r="3"/>
		<circle class="st2" cx="72.3" cy="19.3" r="3"/>
		<circle class="st3" cx="72.3" cy="19.3" r="3"/>
		<circle class="st2" cx="80.3" cy="19.3" r="3"/>
		<circle class="st3" cx="80.3" cy="19.3" r="3"/>
		<circle class="st2" cx="88.3" cy="19.3" r="3"/>
		<circle class="st3" cx="88.3" cy="19.3" r="3"/>
	</g>
</g>
</svg>
