<?xml version="1.0" encoding="utf-8"?>
<!-- Generator: Adobe Illustrator 21.0.2, SVG Export Plug-In . SVG Version: 6.00 Build 0)  -->
<svg version="1.1" id="Layer_1" xmlns="http://www.w3.org/2000/svg" xmlns:xlink="http://www.w3.org/1999/xlink" x="0px" y="0px"
	 width="130px" height="70px" viewBox="0 0 130 70" style="enable-background:new 0 0 130 70;" xml:space="preserve">
<style type="text/css">
	.st0{fill:#1F1A17;}
	.st1{fill:#6DC2ED;}
	.st2{fill:#FFFF00;}
	.st3{fill:#FFFFCC;}
	.st4{fill:#CCCC00;}
</style>
<g>
	<g>
		<path d="M129.4,31.2c-0.8-1-1.9-1.1-3.1-1.1c-8.7,0-17.3,0-26.1,0c-0.8,0-1.6,0.3-2.4,0.7c-0.8-0.5-1.3-0.7-2.3-0.7
			c-3.9,0-7.9,0-11.9,0c0.3-1.4,0.7-2.9,1-4.4c-2.6,0-5.1,0-7.7,0c-0.3,1.4-0.7,2.9-0.9,4.3c-2.3,0-4.5,0-6.8,0
			c-0.9-0.1-1.8,0.3-2.6,0.8c-0.8-0.5-1.3-0.7-2.3-0.7c-7.5,0-14.9,0-22.4,0c0.3-1.5,0.7-2.9,1-4.5c-2.5,0-5.1,0-7.6,0
			c-1.5,6.6-2.9,13.2-4.5,19.8c2.5,0,5.1,0,7.6,0c0.8-3.4,1.5-6.7,2.3-10.2c0.8,0,1.8,0,2.6,0c0.3,0,0.3,0.2,0.2,0.4
			c-0.8,3.3-1.4,6.5-2.2,9.7c17,0,34,0,50.9,0c0.8,0,1.5-0.2,2.4-0.6c0.8,0.5,1.4,0.7,2.4,0.7l11.8-0.1c-0.3,1.4-0.7,2.9-0.9,4.4
			c2.5,0,5.1,0,7.6,0c0.3-1.4,0.7-2.9,0.9-4.4c2.2,0,4.5,0,6.6,0c1.1,0,2-0.3,2.9-0.9c1-0.7,1.8-1.8,2.1-3c0.5-2.2,1-4.4,1.4-6.6
			C130,33.7,130.4,32.3,129.4,31.2z M73.7,40.1c-0.8,0-1.5,0-2.2,0c-0.3,0-0.5-0.1-0.4-0.4c0.3-1.3,0.6-2.5,0.8-3.8
			c0.1-0.3,0.2-0.5,0.6-0.5c0.8,0,1.5,0,2.3,0C74.4,36.9,74.1,38.5,73.7,40.1z M90.5,36c-0.3,1.3-0.6,2.5-0.8,3.7
			c-0.1,0.4-0.3,0.4-0.8,0.4c-0.8,0-1.7,0-2.4,0c-0.3,0-0.3-0.3-0.3-0.5c0.3-1.3,0.6-2.5,0.8-3.7c0.1-0.4,0.3-0.5,0.8-0.5
			c0.8,0,1.6,0,2.4,0C90.7,35.4,90.6,35.7,90.5,36z M106.5,36c-0.3,1.3-0.6,2.5-0.8,3.7c-0.1,0.4-0.3,0.4-0.8,0.4
			c-0.8,0-1.6,0-2.4,0c-0.3,0-0.3-0.3-0.3-0.5c0.3-1.3,0.6-2.5,0.8-3.7c0.1-0.4,0.3-0.5,0.8-0.5c0.8,0,1.6,0,2.4,0
			C106.6,35.4,106.6,35.7,106.5,36z M121.6,35.9c-0.3,1.3-0.6,2.5-0.8,3.8c-0.1,0.3-0.2,0.5-0.6,0.5c-0.8,0-1.5,0-2.3,0
			c0.3-1.6,0.8-3.2,1.1-4.8c0.8,0,1.5,0,2.2,0C121.5,35.5,121.7,35.5,121.6,35.9z"/>
		<path class="st0" d="M95.7,31.2H86c-1.5,0-3,1.3-3.4,2.8L81,41.7c-0.3,1.5,0.6,2.8,2.1,2.8h9.7c1.5,0,3-1.3,3.4-2.8l1.7-7.7
			C98.1,32.5,97.2,31.2,95.7,31.2z M93.6,35.8l-0.9,4.1c-0.2,0.8-1,1.4-1.8,1.4h-4.8c-0.8,0-1.3-0.7-1.1-1.4l0.9-4.1
			c0.2-0.8,1-1.4,1.8-1.4h4.8C93.3,34.3,93.8,35,93.6,35.8z"/>
		<path class="st0" d="M111.5,31.2H102c-1.5,0-3,1.3-3.4,2.8l-1.7,7.7c-0.3,1.5,0.6,2.8,2.1,2.8h9.7c1.5,0,3-1.3,3.4-2.8l1.7-7.7
			C114.1,32.5,113.1,31.2,111.5,31.2z M109.6,35.8l-0.9,4.1c-0.2,0.8-1,1.4-1.8,1.4h-4.8c-0.8,0-1.3-0.7-1.1-1.4l0.9-4.1
			c0.2-0.8,1-1.4,1.8-1.4h4.8C109.3,34.3,109.8,35,109.6,35.8z"/>
		<path class="st0" d="M126.7,31.2h-11.6l-2.9,13.2h11.6c1.5,0,3-1.3,3.4-2.8l1.7-7.7C129.2,32.5,128.2,31.2,126.7,31.2z
			 M124.7,35.8l-0.9,4.1c-0.2,0.8-1,1.4-1.8,1.4h-5.5l1.6-7h5.5C124.3,34.3,124.8,35,124.7,35.8z"/>
		<polygon class="st0" points="111.2,48.9 112.7,42.1 116.4,42.1 114.9,48.9 		"/>
		<path class="st0" d="M70.9,31.1c-1.5,0-3,1.3-3.4,2.8l-1.7,7.7c-0.3,1.5,0.6,2.8,2.1,2.8h11.6l2.9-13.2L70.9,31.1z M76.5,41.2H71
			c-0.8,0-1.3-0.7-1.1-1.4l0.9-4.1c0.2-0.8,1-1.4,1.8-1.4h5.5L76.5,41.2z"/>
		<polygon class="st0" points="83.5,26.7 82,33.5 78.3,33.5 79.8,26.7 		"/>
		<path class="st0" d="M39.9,31.2h8.8c1.5,0,2.4,1.3,2.1,2.8l-1.3,5.7h-3.7l0.8-3.9c0.2-0.8-0.3-1.4-1.1-1.4h-5.5
			c-0.8,0-0.1,0.7-0.3,1.4L39,39.6h-3.7l1.3-5.6C36.8,32.5,38.3,31.2,39.9,31.2"/>
		<polygon class="st0" points="34.2,44.3 36.8,32.9 40.5,32.9 37.9,44.3 		"/>
		<polygon class="st0" points="36.7,33.5 38.2,26.7 41.9,26.7 40.4,33.5 		"/>
		<polygon class="st0" points="44.8,44.3 46.3,37.6 50,37.6 48.6,44.3 		"/>
		<path class="st0" d="M64.4,44.3L64.4,44.3H52c-1.5,0-2.4-1.3-2.1-2.8l0.5-2.3l0,0l0.1-0.4c0.3-1.5,1.8-2.8,3.4-2.8h8.7l0.1-0.6
			c0.2-0.8-0.3-1.3-1.1-1.4h-10l0.7-3.1h12.4c1.5,0,2.4,1.3,2.1,2.8l-0.3,1.1l0,0l-0.3,1.3l0,0l-1.4,6.6l0,0L64.4,44.3z M54.8,41.2
			h6.6l0.4-1.9h-6.5h-0.1c-0.5,0-1.1,0.4-1.2,0.9C54,40.8,54.3,41.2,54.8,41.2L54.8,41.2z"/>
		<path class="st1" d="M95.5,31.2h-9.7c-1.5,0-3,1.3-3.4,2.8l-1.7,7.7c-0.3,1.5,0.6,2.8,2.1,2.8h9.7c1.5,0,3-1.3,3.4-2.8l1.7-7.7
			C98,32.5,97,31.2,95.5,31.2z M93.6,35.8l-0.9,4.1c-0.2,0.8-1,1.4-1.8,1.4h-4.8c-0.8,0-1.3-0.7-1.1-1.4l0.9-4.1
			c0.2-0.8,1-1.4,1.8-1.4h4.8C93.2,34.3,93.7,35,93.6,35.8z"/>
		<polygon class="st1" points="111.2,48.9 112.7,42.1 116.4,42.1 114.9,48.9 		"/>
		<path class="st1" d="M70.9,31.1c-1.5,0-3,1.3-3.4,2.8l-1.7,7.7c-0.3,1.5,0.6,2.8,2.1,2.8h11.6l2.9-13.2L70.9,31.1z M76.5,41.2H71
			c-0.8,0-1.3-0.7-1.1-1.4l0.9-4.1c0.2-0.8,1-1.4,1.8-1.4h5.5L76.5,41.2z"/>
		<polygon class="st1" points="83.5,26.7 82,33.5 78.3,33.5 79.8,26.7 		"/>
		<path class="st1" d="M39.9,31.2h8.8c1.5,0,2.4,1.3,2.1,2.8l-1.3,5.7h-3.7l0.8-3.9c0.2-0.8-0.3-1.4-1.1-1.4h-5.5
			c-0.8,0-0.1,0.7-0.3,1.4L39,39.6h-3.7l1.3-5.6C36.8,32.5,38.3,31.2,39.9,31.2"/>
		<polygon class="st1" points="34.2,44.3 36.8,32.9 40.5,32.9 37.9,44.3 		"/>
		<polygon class="st1" points="36.7,33.5 38.2,26.7 41.9,26.7 40.4,33.5 		"/>
		<polygon class="st1" points="44.8,44.3 46.3,37.6 50,37.6 48.6,44.3 		"/>
		<path class="st1" d="M64.4,44.3L64.4,44.3H52c-1.5,0-2.4-1.3-2.1-2.8l0.5-2.3l0,0l0.1-0.4c0.3-1.5,1.8-2.8,3.4-2.8h8.7l0.1-0.6
			c0.2-0.8-0.3-1.3-1.1-1.4h-10l0.7-3.1h12.4c1.5,0,2.4,1.3,2.1,2.8l-0.3,1.1l0,0l-0.3,1.3l0,0l-1.4,6.6l0,0L64.4,44.3z M54.8,41.2
			h6.6l0.4-1.9h-6.5h-0.1c-0.5,0-1.1,0.4-1.2,0.9C54,40.8,54.3,41.2,54.8,41.2L54.8,41.2z"/>
		<path class="st1" d="M111.5,31.2H102c-1.5,0-3,1.3-3.4,2.8l-1.7,7.7c-0.3,1.5,0.6,2.8,2.1,2.8h9.7c1.5,0,3-1.3,3.4-2.8l1.7-7.7
			C114.1,32.5,113.1,31.2,111.5,31.2z M109.6,35.8l-0.9,4.1c-0.2,0.8-1,1.4-1.8,1.4h-4.8c-0.8,0-1.3-0.7-1.1-1.4l0.9-4.1
			c0.2-0.8,1-1.4,1.8-1.4h4.8C109.3,34.3,109.8,35,109.6,35.8z"/>
		<path class="st1" d="M126.7,31.2h-11.6l-2.9,13.2h11.6c1.5,0,3-1.3,3.4-2.8l1.7-7.7C129.2,32.5,128.2,31.2,126.7,31.2z
			 M124.7,35.8l-0.9,4.1c-0.2,0.8-1,1.4-1.8,1.4h-5.5l1.6-7h5.5C124.3,34.3,124.8,35,124.7,35.8z"/>
	</g>
	<path class="st2" d="M13.1,26l-2.4,0.4l-2.2,0.9l-1.8,1.2L5,30.6l-1,1L3.1,32l-0.3-0.6l0.4-0.6l0.1-0.9h0.3L4,30.2l-0.1-0.9L3.6,29
		v-0.3l-0.8,0.5L2,30.1L1.8,31l0.3,0.7l0.3,1.1l0.6,0.3h0.7l0.6-0.3l-0.4,2.1l0.4,2.4l-0.4,1.1l-1.5,1.6l0.3,0.9l0.7,0.9l1.3,0.9
		l0.7,0.2h0.8l-0.5,2l1.8,0.8l2.3,0.3l0.8-0.5l0.1-1.3l0.8-1.4l0.1-1.1l2.1,0.2l1.9-0.2l-1.8,1l0.3,1.4l1.2,1.9l1.2,0.5l0.9-0.4
		l0.4-0.8l2-1.5l0.4,0.3l3.1,0.1l0.6-0.5l0.1-0.9l-0.2-0.4l-0.2-2.4l-1-2.1l0.2-0.9l0.6,0.3l1.8,1.6l0.8,0.1l0.9-0.4l0.9-0.7
		l0.5-1.5l2.8,0.2l1.7-0.7l1.3-1.3l1-1.8l0.3-2.2l-0.2-2.5l-0.5-2.3l-0.7-0.5l-0.8-0.3l-1.3,1.4l-1.2,0.4l-1-1.7l-1.1-1L28,23.7
		l-2.3-1.8l-1.8-1l-1.8-0.2L20,21l-1.8,0.7l-1.3,1l-1,1.2l-1,0.3L13.1,26"/>
	<path class="st3" d="M6.2,31.4c-2,2.4-1.6,5.2-1,8.1c-0.3-0.8-0.6-1.5-0.9-2.3L4,35.1c0-0.7,0.1-1.4,0.1-2.1l0.8-2L6.2,29l2-1.7
		l2.2-0.9l2.5-0.3l-2.4,2.7C8.7,29.5,7.6,29.9,6.2,31.4"/>
	<path class="st3" d="M15.8,24.2c-1.4,1.3-2.2,2.4-3.1,4c-0.7,1.2-1.3,2.3-2,3.4c-0.3,0.6-0.3,1.1-0.5,1.7l-1-1.2
		c0.2-0.5,0.3-0.9,0.5-1.4l1.6-2.9l3.4-3.4C15.1,24.3,15.4,24.2,15.8,24.2 M22.7,20.7c-1.1,0.4-3,0.6-3.1,1.8
		c-0.1,0.9,0.1,1.3,0.6,2.4c-1.3-1.4-1.7-1.2-4.4-0.8l1.2-1.6l2-1.3l2.5-0.6L22.7,20.7"/>
	<path class="st4" d="M25.9,38.3c0.3,0.3,0.3,0.4,0.3,0.6c0.3-0.1,0.6-0.3,0.9-0.3l0.6-0.8l0.4-1.1l-0.6-0.4l-2.4,0.3
		c-0.1,0.2-0.1,0.3-0.2,0.5c0,0.3,0,0.4,0.1,0.7c0.1,0.2,0.2,0.3,0.3,0.4c0.1,0.1,0.3,0.1,0.3,0.2C25.7,38.3,25.7,38.3,25.9,38.3
		 M25.7,34.2c-1.2,0.3-1.2,0.4-1.5,1.6C24.6,35.1,24.9,34.7,25.7,34.2 M33.6,25.3c-0.3,0.1-0.4,0.2-0.6,0.3c-0.3,0.4-0.5,0.8-1,1.1
		c-0.3,0.2-0.5,0.3-0.8,0.3c-0.2,0.1-0.3,0-0.5,0.2c0.1,0,0.3,0,0.3,0.1h0.7l0.8-0.5l0.5-0.5L33.6,25.3 M14.6,27.9
		c-0.5,1.3-0.9,2.4-1.6,3.5c0.9-1,1.4-1.8,2-2.9c0.2-0.4,0.3-0.9,0.8-0.8c0,0.4,0.1,0.8,0.2,1.3c0.3-2.2,1.2-3.1,3.2-3.9l-1.7,0.2
		l-1.8,0.5L15,26.9L14.6,27.9 M18.4,27.9c0.4,2,1.1,4,1.3,6.1c0.2,1.3,0.2,2-0.5,3.2c-0.8-0.1-1.2,0-1.9,0.3
		c-2.9,0.9-4.5,2.3-6.4-0.4l1.8,0.8c0.4-0.1,0.8-0.2,1.3-0.3c0.8-0.4,1.5-0.9,2.4-1.3l1.8-0.3l0.6-2.4l-0.4-3.2c0-0.5,0-1-0.1-1.5
		C18.3,28.4,18.3,28.2,18.4,27.9 M23.3,40.5c-0.3,1.7,0.6,2.5,0.3,3c-0.1,0.2-0.3,0.3-0.3,0.4c-0.5,0.3-1.2,0-1.3,0.1h-1.7l-0.7-0.3
		l1-1.2c0.3-0.8,0.7-1.4,1-2.2l0.7-2.2h0.3L23.3,40.5"/>
	<path class="st4" d="M20.5,35.7c0.2,0.8,0.3,0.9,0.8,1.7C21,38.5,20.7,40,20.2,41c-0.2,0.4-0.3,0.7-0.7,1c-0.6,0.6-1.2,1.1-1.8,1.6
		c-0.5,0.3-0.8,0.2-1.3,0.1c-0.3,0.4-0.3,0.7-0.8,0.9c-0.7,0.3-1.3-0.4-1.8-0.8c0.4,0.6,0.8,1.3,1.2,1.8c0.3,0.3,0.5,0.5,0.8,0.8
		l0.7,0.1l0.9-0.6c0.2-0.3,0.3-0.6,0.5-0.9c0.3-0.3,0.7-0.5,1-0.8c0.4-0.3,0.8-0.7,1.3-1.1L21,42l0.7-1.3c0.3-0.9,0.6-1.8,0.9-2.8
		c0-0.3,0.1-0.7,0.1-1c-0.4-0.2-0.8-0.3-1.2-0.5C21.1,36.2,20.9,36,20.5,35.7 M11.5,41c1.3,0,2.6-0.1,3.8-0.6
		c0.3-0.5,0.7-0.9,1.1-1.3c-0.3,0.7-0.5,1.1-0.6,1.8l-0.4,0.6c-0.9,0-1.9,0.1-2.9,0.1c-0.3,0-0.6-0.1-0.9-0.1l-0.1-0.1
		C11.4,41.2,11.5,41.1,11.5,41 M11.3,40.1l-0.2-0.9c-0.3,1.3-0.2,2.2-0.8,3.4c-0.4,0.5-1,1-1.7,1.3c0.1,0.3,0.1,0.5,0,0.8
		c-0.1,0.8-1.8,0.5-2.5,0.4l3.4,0.8l0.8-0.3c0.1-0.5,0.2-1,0.3-1.5l0.7-1.3l0.2-0.8L11.3,40.1 M9.4,32.6c0,0.7-0.1,0.9,0.2,1.5
		c0.3,0.8,0.8,1.4,1.2,2.1l0.2-1.4C10.4,34.1,9.9,33.4,9.4,32.6 M4.1,37.5c-0.1,0.3-0.3,0.5-0.3,0.7c0.3,1,0.6,1.7,1.2,2.5
		c-0.1,0.3-0.2,0.5-0.4,0.8c-0.5-0.1-0.9-0.1-1.5-0.1c0.6,0.4,1.2,0.8,1.7,1.3c0.3-0.1,0.6-0.1,0.8-0.2l0.8-0.8L5.2,40
		C4.9,39.1,4.5,38.4,4.1,37.5 M33.6,25c0.3,1.6,0.8,3,0.8,4.6c-0.1,1.9-0.4,4.5-2.3,5.6c-2,1.3-4.5,0.7-6.6,0.2l2.7,1.1
		c0.8,0.1,1.7,0.1,2.5,0.1c0.6-0.2,1.2-0.3,1.8-0.5c0.4-0.3,0.9-0.8,1.3-1.1l1-2.1l0.4-2.4c-0.1-0.8-0.2-1.6-0.3-2.4l-0.6-2.4
		C34.1,25.3,33.9,25.2,33.6,25 M3.3,29.6c-0.9,0.6-1.3,0.8-1.2,2l0.3,1l0.4,0.2L3.3,33l0.8-0.2c0.2-0.5,0.3-0.9,0.4-1.4L3.3,32H3.1
		c-0.2-0.2-0.3-0.3-0.3-0.4L3.2,31l0.2-1.1c0.1,0,0.2,0.1,0.3,0.1C3.7,30,3.9,30.1,4,30.2l-0.1-0.6l-0.3-0.3c0-0.1-0.1-0.2-0.2-0.3
		L3.3,29.6 M24,20.9c0.8,0.8,1.8,1.4,2.4,2.4c0.3,0.3,0.5,0.5,0,1.1c0.6-0.2,0.8-0.2,1.3-0.1c0.8,0.1,1.6,1.3,1.7,2.1
		c0,0.1-0.3,0.3-0.8,0.4c0,0-0.3-0.1-0.3,0c0.1,0.2,0.2,0.2,0.3,0.3c0,0.2,0.1,0.5,0.2,0.8c0.4,0,0.8,0,1.2,0.1
		c0.2,0.3,0.1,0.4,0.1,0.7l0.4-0.1c-0.1-0.3-0.1-0.7-0.2-1c0.2-0.3,0.3-0.4,0.4-0.7l-0.6-1.3c-0.3-0.3-0.8-0.7-1.1-1.1h-0.1
		c-0.4-0.3-0.8-0.5-1.3-0.8l-2-1.7L24,20.9 M25.4,27.1c-0.1,0.1-0.1,0.2-0.2,0.3c0.3,0.3,0.5,0.5,0.7,1c-0.4,0.2-0.8,0.4-1.2,0.6
		l-1,0.9c-0.4-0.3-0.5-0.4-0.8-0.8c-0.3,0.1-0.5,0.1-0.7,0.1c0.1,0,0.2,0,0.3-0.1l0.6-0.7c0.3-0.3,0.8-0.6,1.1-0.8l0.8-0.3
		C25.2,27.3,25.3,27.2,25.4,27.1"/>
	<path class="st4" d="M26.4,28.3c-1.3,0.7-2.4,1.3-3,2.6C23.4,29.3,25,28.5,26.4,28.3 M23.2,25.2c-0.9,0.6-1.5,1.8-1.5,3.1
		c-0.3-1.1-0.2-2,0.8-2.8c0.2-0.1,0.3-0.2,0.4-0.3C23,25.2,23.1,25.2,23.2,25.2"/>
	<path d="M35.4,28c-0.2-1-0.4-2-0.8-2.8c-0.1-0.1-0.1-0.2-0.2-0.3c-0.2-0.2-0.5-0.3-0.8-0.4c-0.3-0.1-0.6-0.1-0.9,0
		c-0.1,0-0.2,0.1-0.2,0.2c-0.2,0.2-0.3,0.3-0.4,0.6c-0.2,0.3-0.3,0.4-0.5,0.6c-0.3,0.2-0.5,0.3-0.8,0.4c-0.1-0.3-0.3-0.5-0.4-0.8
		c-0.2-0.3-0.3-0.5-0.6-0.8c-0.2-0.2-0.3-0.3-0.5-0.5c-0.2-0.2-0.4-0.3-0.6-0.4c-0.6-0.4-1.1-0.8-1.7-1.3c-0.3-0.2-0.5-0.4-0.8-0.6
		c-1.3-1-2.4-1.5-3.7-1.6c-1.3-0.1-2.5,0.3-4.1,0.9c-0.8,0.3-1.3,0.7-1.8,1.1c-0.4,0.4-0.8,0.9-1.3,1.5c-0.3,0-0.5,0.1-0.7,0.2
		c-0.3,0.1-0.5,0.3-0.8,0.5c-0.2,0.2-0.4,0.3-0.6,0.6c-0.2,0.2-0.3,0.3-0.5,0.5c-1.4,0.3-2.5,0.5-3.6,0.8c-1,0.4-2,0.9-2.9,1.8
		c-0.3,0.3-0.8,0.7-1,1.1s-0.5,0.8-0.8,1.2c-0.2,0.3-0.4,0.4-0.6,0.6c-0.2,0.2-0.4,0.3-0.7,0.4l0,0c-0.1,0-0.1,0-0.1,0s0,0,0-0.1
		c0.3-0.3,0.4-0.8,0.4-1.3c0,0.1,0.1,0.1,0.1,0.2c0.1,0.1,0.1,0.2,0.2,0.3l0.3,0.3l0.1-0.3c0.1-0.3,0.1-0.8,0-1.1
		c-0.1-0.3-0.2-0.4-0.3-0.6c0-0.1,0-0.1,0.1-0.2c0.1-0.2,0.1-0.3,0.2-0.4l0.1-0.3l-0.3,0.1c-0.4,0.1-1.3,0.5-1.8,1.2
		c-0.3,0.3-0.4,0.5-0.6,0.8c-0.2,0.3-0.2,0.6-0.2,0.8c0.1,0.3,0.2,0.5,0.4,0.8c0.1,0.2,0.1,0.3,0.1,0.4C2,32.3,2,32.5,2,32.6
		c0.2,0.4,0.5,0.6,0.8,0.8c0.3,0.1,0.6,0.1,0.8,0c-0.1,0.3-0.1,0.7-0.1,1c0,0.5,0,1,0.1,1.6c0,0.2,0,0.3,0.1,0.4
		c0,0.2,0.1,0.3,0.1,0.4c-0.1,0.2-0.1,0.3-0.2,0.4l-0.3,0.7l-0.6,0.6c-0.2,0.2-0.3,0.3-0.5,0.5L2.2,39c-0.3,0.3-0.4,0.4-0.3,1
		C2,40.4,2,40.8,2.2,41.1c0.2,0.3,0.4,0.7,0.7,0.9c0.3,0.3,0.9,0.8,1.6,1.1c0.3,0.2,0.8,0.2,1.1,0.2c0,0.1,0,0.1-0.1,0.2
		c-0.1,0.2-0.1,0.3-0.2,0.4c-0.4,0.9,0,1.4,0.7,1.7c0.3,0.2,0.8,0.3,1.1,0.3c0.1,0,0.2,0,0.3,0.1c0.4,0.1,1.2,0.3,1.9,0.4
		s1.4-0.1,1.6-0.8C11,45.4,11,45.2,11,45c0-0.2,0-0.4,0-0.6c0.3-0.5,0.3-0.6,0.5-0.8c0-0.1,0.1-0.1,0.1-0.1c0.2-0.3,0.3-0.4,0.3-0.7
		c0-0.2,0-0.4,0-0.7v-0.1c0.4,0.1,0.8,0.1,1.3,0.1c0.3,0,0.4,0,0.7,0c-0.1,0-0.1,0.1-0.2,0.1h-0.1c-0.6,0.3-0.6,0.8-0.4,1.4
		c0.2,0.5,0.5,1.1,0.8,1.4c0.4,0.7,0.8,1.3,1.4,1.6c0.5,0.3,1.2,0.3,1.9-0.1c0.4-0.3,0.5-0.4,0.7-0.8c0.1-0.1,0.1-0.2,0.2-0.3
		c0.2-0.1,0.6-0.4,1-0.8c0.2-0.1,0.3-0.3,0.4-0.3c0.1,0.1,0.3,0.2,0.4,0.2c0.2,0.1,0.4,0.1,0.8,0.1c0.3,0,0.9,0,1.4,0
		c0.2,0,0.3,0,0.3,0c0.5,0,0.8,0,1.2-0.2c0.3-0.2,0.5-0.5,0.5-1.1c0-0.3,0-0.4,0-0.6c0-0.2-0.1-0.3-0.2-0.5c0-0.3,0-0.5,0-0.8
		c0-0.3,0-0.5,0-0.8c0-0.3,0-0.6-0.1-0.8c-0.1-0.3-0.2-0.5-0.3-0.8c-0.1-0.2-0.2-0.3-0.2-0.5l-0.2,0.1l0,0l0.2-0.1l0,0
		c-0.1-0.3-0.2-0.5-0.3-0.8c0-0.1,0-0.1,0-0.2l0.3,0.3l0.4,0.4c0.3,0.3,0.6,0.6,0.9,0.8c0.3,0.2,0.7,0.3,1.2,0.3
		c0.5,0,1.1-0.3,1.5-0.6c0.4-0.3,0.8-0.8,0.9-1.3l0.2-0.4l0.1-0.3c0.8,0.1,1.5,0.2,2.3,0.1c0.8-0.1,1.4-0.3,2-0.6
		c0.8-0.5,1.5-1.2,2-2l0,0c0.5-0.9,0.8-2,0.9-3.1C35.7,30.4,35.6,29.2,35.4,28L35.4,28z M26.2,35.5c-0.4-0.2-0.7-0.3-1.1-0.6
		c0.1,0.4,0.2,0.9,0,1.3c-0.2,0.7-0.5,1.8,0.4,2.1c0.3,0.1,0.5,0.1,1-0.2c-0.4,0.1-0.6,0.1-0.9,0c-0.3-0.1-0.4-0.3-0.5-0.4
		c0.1,0.1,0.3,0.1,0.5,0.2c0.7,0.2,1.3-0.2,1.5-0.7c0.1-0.3,0.1-0.4,0.3-0.8c0.2,0.1,0.3,0.1,0.4,0.1l-0.3,0.8
		c-0.3,0.8-1.1,1.3-1.9,1.3c-0.8,0-1.2-0.5-1.7-0.9c-0.3-0.3-0.7-0.6-1-0.9c-0.9-0.3-1.6-0.6-2.4-1.3c0.6,0.7,1,1.1,1.8,1.4
		c-0.1,1.3-0.6,2.1-0.9,3.3c-0.2,0.5-1.5,2.7-1.8,2.9c-0.3,0.2-1.8,1.5-2.2,1.7c-0.3,0.3-0.4,0.8-0.8,0.9c-1,0.6-1.7-0.5-2.3-1.4
		c-0.3-0.4-0.9-1.6-0.3-1.9s0.9-0.5,1.5-0.9c0.1,0.2,0.3,0.3,0.3,0.5l-0.1-0.5c0-0.3,0-0.6,0-0.9c0-0.3,0.1-0.6,0.1-0.9
		c-0.1,0.3-0.3,0.6-0.3,0.9c0,0.1-0.1,0.3-0.1,0.3c-1.3,0.3-2.7,0.3-3.9,0.1c-0.1-0.5-0.2-1-0.3-1.3c0,0.4,0,1.5,0,2.2
		c0,0.5,0,0.7-0.3,1.1c-0.3,0.4-0.3,0.5-0.7,1.2c0,0.4,0,0.7-0.1,1.1c-0.2,0.7-2,0.2-2.5,0c-0.6-0.2-1.8-0.4-1.5-1.3
		c0.3-0.7,0.4-1.4,0.6-2.4c-1.2-1.4-2.3-3.6-2.4-5.5c-0.2-1.5-0.1-2.4,0.3-3.4c0.5-1.4,1.3-2.8,2.4-3.8c1.6-1.3,3-1.9,5.4-2.3
		c-0.6,0.6-1.1,1.3-1.7,2c-0.6,0.7-0.9,1.4-1.3,2.2c-0.5,1.1-0.5,1.5,0.2,2.4c0.6,0.8,0.9,1.2,1.2,1.9c-0.3,0.4-0.3,0.8-0.3,1.4
		c0.8,0.8,1.3,1.3,2,1.5c0.7,0.2,1.3,0.2,1.9-0.2c1.4-0.8,2.7-1.7,4.3-1.7c0.8-1.8,0.7-3.3,0.3-5c-0.3-1.2-0.3-2.4-0.4-3.5
		c-0.3,1.3-0.3,2.4-0.2,3.6c0.3,1.5,0.5,3.2-0.3,4.5c-1.4,0.1-2.7,1-3.9,1.7c-0.5,0.3-1.1,0.3-1.6,0.2c-0.5-0.2-0.9-0.5-1.4-1.2
		c0-0.7,0.2-1,0.4-1.6c0.5-0.9,1-1.8,1.6-2.8c-0.8,0.8-1.4,1.6-2,2.5c-0.3-0.6-0.5-0.9-1-1.7c-0.5-0.7-0.6-1-0.2-1.8
		s0.7-1.5,1.3-2.2c1.1-1.2,2.1-2.5,3.4-3.7c0.7-0.7,0.9-0.6,1.8-0.8c0.8-0.1,1.6-0.3,2.4-0.4c-0.8,0.1-1.5,0.1-2.3,0.1l0,0
		c0.8-0.9,1.2-1.5,2.4-2c3-1.3,4.9-1.4,7.3,0.5c0.6,0.5,1.2,1,1.8,1.4c-0.3,0-0.4,0.1-0.7,0.2c0.3-0.1,0.7,0,1,0.1
		c0.1,0.1,0.2,0.1,0.3,0.2c0.4,0.3,0.7,0.4,1,0.8s0.6,0.8,0.8,1.3c-0.2-0.1-0.3-0.1-0.4-0.2c-0.3-0.1-0.6-0.1-0.8,0.1l0,0
		c-0.3,0.1-0.6,0.3-0.8,0.3c0.2,0.1,0.4,0.1,0.5,0c0,0,0,0,0.1,0C29,26.9,29,27.1,29,27.2c0,0.2,0,0.3,0.1,0.5l0,0
		c0,0.1,0.1,0.1,0.1,0.2c-0.1,0-0.3,0.1-0.3,0.2c0.6-0.1,1.1-0.1,1.6,0c0,0.2,0.1,0.3,0.1,0.5h-0.2l0,0c-0.3-0.2-0.6-0.2-0.9-0.1
		c-1.2,0.3-0.9,0.9-1.4,1.9c0.6-0.7,0.5-1.4,1.4-1.7c0.3-0.1,0.3-0.1,0.5-0.1c-0.3,0.2-0.5,0.3-0.6,0.6c-0.3,0.8-0.1,1.3-0.4,2
		c0.3-0.6,0.3-1.2,0.7-1.8c0.1-0.3,0.5-0.6,0.8-0.6h0.2c0.1,0.4,0.1,0.8,0.1,1.1c-0.1,0.6-0.2,1.5-0.3,1.8c0.3-0.4,0.4-1.3,0.6-1.8
		c0.2-0.6,0.1-1.3,0-2.1c-0.2-0.9,0.8-0.8,1.3-1.2c0.4-0.3,0.7-0.8,1.1-1.2c0.3-0.3,0.9,0.2,1.1,0.5c0.7,1.5,0.9,3.9,0.8,5.5
		c-0.2,1.8-1,3.6-2.5,4.5C30.4,36.8,28.1,36.2,26.2,35.5L26.2,35.5z M23.4,43.2c-0.1,0.7-0.3,0.8-0.9,0.8c-0.3,0-1.4,0-1.7,0
		c-0.4,0-0.7-0.1-0.8-0.2c0.7-0.5,1.8-2.4,1.9-3.1c0.3-0.7,0.5-1.3,0.7-1.9c0.1,0.3,0.2,0.5,0.3,0.8c0.2,0.5,0.3,0.8,0.3,1.3
		l0.1,1.6C23.4,42.7,23.4,42.8,23.4,43.2L23.4,43.2z M4.1,37.8c0.4,1.4,1.1,2.8,1.8,3.9l0,0c-0.1,0.2-0.1,0.4-0.3,0.6
		c-0.6,0.8-1.9-0.3-2.4-0.8c-0.4-0.4-0.8-1-0.8-1.5c-0.1-0.3,0-0.3,0.3-0.7l1.1-1L4.1,37.8L4.1,37.8z M3.4,28.9
		c-0.1,0.3-0.2,0.4-0.3,0.6c-0.3,0.8,0.1,1.4-0.6,2c0.3,0.7,0.3,0.9,1.1,0.6c0.3-0.1,0.5-0.3,0.8-0.5c-0.1,0.3-0.2,0.5-0.3,0.8
		c0,0.1,0,0.1-0.1,0.2c-0.5,0.3-1.3,0.3-1.5-0.2c-0.2-0.3-0.2-0.5-0.3-0.9C1.4,30.5,2.6,29.4,3.4,28.9L3.4,28.9z M3.8,29.9
		c-0.1-0.1-0.2-0.2-0.3-0.2c0-0.1,0-0.2,0.1-0.3c0-0.1,0-0.1,0-0.2C3.7,29.5,3.8,29.6,3.8,29.9L3.8,29.9z M30.3,26.5
		c0,0.1,0.1,0.2,0.1,0.3c0,0-0.1,0-0.1,0.1c-0.1-0.1-0.1-0.2-0.2-0.3C30.1,26.5,30.2,26.5,30.3,26.5L30.3,26.5z M4.8,30.6L4.8,30.6
		L4.8,30.6L4.8,30.6z M11.5,41.7L11.5,41.7L11.5,41.7z M19.5,44.1L19.5,44.1L19.5,44.1z M22.7,37.9L22.7,37.9L22.7,37.9L22.7,37.9z
		 M3.5,31.7L3.5,31.7L3.5,31.7L3.5,31.7L3.5,31.7z M34.5,34.3L34.5,34.3L34.5,34.3z M0.4,31.6C0.5,30,0.8,29.3,2,28
		C0.5,29,0.2,29.5,0.4,31.6"/>
	<path d="M0,30.2c0.2-0.8,0.3-1,0.8-1.6C0,29.1-0.1,29.4,0,30.2 M16.6,20.3c-0.8,0.2-1,0.3-1.3,1.2C15.7,20.9,16,20.6,16.6,20.3"/>
	<path d="M17.9,20.1c-1.7,0.4-2.2,0.7-2.8,2.7C15.9,21.4,16.4,20.8,17.9,20.1 M21.5,27.3c0.2-0.8,0.5-1.6,1.8-2.2
		C21.6,25.5,21.4,26.2,21.5,27.3 M32,27.3c1-0.3,1.4-1.1,1.7-2c-0.4,0.8-0.9,1.4-1.8,1.8c-0.4,0.3-0.7,0.2-1.2,0.1
		C31.2,27.3,31.5,27.4,32,27.3 M25.4,28.1c-0.1-0.3-0.3-0.4-0.6-0.6c0.3-0.1,0.5-0.3,0.7-0.4c-0.5,0.3-1.2,0.2-1.6,0.5
		c-0.4,0.3-0.9,1.2-1.3,1.5c0.3-0.1,0.6-0.3,0.8-0.5c0,0.4,0.3,0.8,0.6,0.9c-0.2,0.2-0.3,0.4-0.3,0.7c0.8-0.9,1.9-1.6,2.9-1.9
		c-0.3,0-0.7,0.1-1,0.2C25.5,28.3,25.4,28.2,25.4,28.1 M24.2,35.1c0,0.3-0.1,0.5-0.2,0.8c0.1-0.3,0.3-0.6,0.3-0.8s0.2-0.3,0.4-0.4
		c0.2-0.1,0.5-0.3,0.8-0.3c-0.2,0-0.5,0.1-0.8,0.2C24.4,34.4,24.3,34.6,24.2,35.1 M15.4,25.8c-0.6,0.6-1.2,2.6-1.3,3.4
		c0.3-0.7,1-2.6,1.6-3c0.2-0.2,0.3-0.3,0.4-0.3c-0.4,0.7-0.3,0.8-0.3,1.8c0.1-0.9,0.4-1.3,0.9-1.9c0.6-0.2,1.1-0.3,1.7-0.5
		c-0.7,0.1-1.3,0.2-2,0.2C15.9,25.4,15.8,25.4,15.4,25.8"/>
	<path class="st3" d="M23.6,29.3c-0.1-0.3,0-0.5,0.3-0.6c0.3-0.1,0.5,0,0.6,0.3c0,0,0,0,0,0.1c-0.3,0.2-0.4,0.3-0.6,0.6
		C23.7,29.5,23.6,29.4,23.6,29.3 M28.7,27.3c0-0.2,0.2-0.3,0.3-0.3c0.2,0,0.3,0.2,0.3,0.3v0.1c-0.2,0-0.3,0.1-0.5,0.2
		C28.8,27.5,28.7,27.4,28.7,27.3"/>
</g>
</svg>
