<?xml version="1.0" encoding="utf-8"?>
<!-- Generator: Adobe Illustrator 16.0.0, SVG Export Plug-In . SVG Version: 6.00 Build 0)  -->
<!DOCTYPE svg PUBLIC "-//W3C//DTD SVG 1.1//EN" "http://www.w3.org/Graphics/SVG/1.1/DTD/svg11.dtd">
<svg version="1.1" id="Layer_1" xmlns="http://www.w3.org/2000/svg" xmlns:xlink="http://www.w3.org/1999/xlink" x="0px" y="0px"
	 width="160px" height="60px" viewBox="0 0 160 60" enable-background="new 0 0 160 60" xml:space="preserve">
<g>
	<path fill-rule="evenodd" clip-rule="evenodd" fill="#B72126" d="M50.104,42.681c0-3.285,0-6.518,0-9.861
		c0.262,0,0.519,0.001,0.776,0c4.69,0,9.38,0.001,14.07,0c1.196,0,1.799-0.97,1.2-2.024c-0.141-0.248-0.585-0.436-0.899-0.452
		c-1.078-0.055-2.16-0.021-3.24-0.021c-3.684,0-7.367,0-11.05,0c-0.266,0-0.532,0-0.848,0c0-1.247,0-2.434,0-3.707
		c0.327,0,0.615,0,0.902,0c4.715,0,9.43,0.022,14.144-0.011c2.025-0.015,3.614,0.641,4.469,2.574c0.802,1.813,0.357,3.741-1.2,5.339
		c0.05,0.067,0.092,0.153,0.159,0.209c1.572,1.294,2.121,3.176,1.479,5.083c-0.599,1.778-2.134,2.891-4.182,2.901
		c-5.132,0.025-10.264,0.009-15.396,0.007C50.392,42.717,50.295,42.699,50.104,42.681z M53.828,38.979
		c4.047,0,8.018,0.007,11.988-0.019c0.213-0.001,0.51-0.225,0.621-0.426c0.584-1.056-0.006-2.045-1.194-2.046
		c-3.534-0.003-7.068-0.002-10.603,0.001c-0.261,0-0.522,0.026-0.813,0.042C53.828,37.358,53.828,38.111,53.828,38.979z"/>
	<path fill-rule="evenodd" clip-rule="evenodd" fill="#B72126" d="M94.197,42.664c0-1.209,0-2.397,0-3.678c0.32,0,0.607,0,0.894,0
		c4.198,0,8.396,0.001,12.595-0.001c0.938,0,1.233-0.29,1.243-1.211c0.011-0.966-0.295-1.285-1.262-1.286
		c-3.24-0.004-6.481,0.01-9.722-0.005c-2.544-0.012-4.324-1.798-4.565-4.541c-0.222-2.53,1.403-4.835,3.721-5.266
		c0.216-0.041,0.439-0.06,0.658-0.06c4.518-0.003,9.035-0.003,13.552-0.001c0.166,0,0.332,0.021,0.54,0.035c0,1.209,0,2.375,0,3.628
		c-0.316,0.015-0.624,0.04-0.933,0.04c-4.173,0.003-8.347,0.003-12.521,0.001c-0.446,0-0.996-0.057-1.101,0.485
		c-0.101,0.522-0.071,1.113,0.08,1.62c0.06,0.196,0.613,0.341,0.942,0.343c3.118,0.025,6.236,0.051,9.354,0.003
		c2.083-0.031,3.663,0.752,4.489,2.681c0.876,2.046,0.69,4.041-0.763,5.805c-0.791,0.961-1.874,1.443-3.107,1.45
		c-4.591,0.023-9.182,0.01-13.772,0.008C94.426,42.715,94.333,42.687,94.197,42.664z"/>
	<path fill-rule="evenodd" clip-rule="evenodd" fill="#B72126" d="M131.492,38.979c-4.526,0-8.957,0-13.425,0
		c0-0.808,0-1.541,0-2.358c4.168,0,8.326,0,12.533,0c0-0.05,0-0.097,0-0.146c0-1.225,0-2.351,0-3.562c0-0.049,0-0.097,0-0.146
		c-4.207,0-8.365,0-12.533,0c0-0.817,0-1.551,0-2.358c4.468,0,8.898,0,13.425,0c0-1.166-0.017-2.196,0.008-3.226
		c0.002-0.12-0.013-0.211-0.041-0.281c0-0.079,0-0.159,0-0.238c-5.759,0-17.183,0-17.183,0s0.001,0.15,0.001,0.42
		c-0.01,0.06-0.015,0.127-0.015,0.204c0.008,1.964,0.012,4.744,0.014,7.405c-0.002,2.661-0.006,5.441-0.014,7.405
		c0,0.078,0.005,0.146,0.015,0.204c0,0.271-0.001,0.421-0.001,0.421s11.424,0,17.183,0c0-0.08,0-0.159,0-0.239
		c0.028-0.07,0.043-0.161,0.041-0.28C131.476,41.175,131.492,40.145,131.492,38.979z"/>
	<path fill-rule="evenodd" clip-rule="evenodd" fill="#B72126" d="M91.646,42.686c-1.241,0-2.413,0-3.68,0c0-1.688,0-3.344,0-5.05
		c-4.153,0-8.213,0-12.344,0c0,1.665,0,3.3,0,5.009c-1.273,0-2.479,0-3.726,0c-0.016-0.191-0.044-0.382-0.045-0.573
		c-0.002-3.461-0.006-6.923,0-10.385c0.003-1.51,0.46-2.851,1.565-3.923c0.774-0.751,1.713-1.143,2.79-1.146
		c3.708-0.009,7.415-0.02,11.122,0.003c2.203,0.013,4.188,1.779,4.277,4.166C91.753,34.729,91.646,38.68,91.646,42.686z
		 M75.619,33.791c4.158,0,8.214,0,12.326,0c0-0.865,0.022-1.671-0.007-2.476c-0.025-0.671-0.38-1.003-1.09-1
		c-3.387,0.015-6.772,0.016-10.159-0.001c-0.675-0.004-1.033,0.299-1.062,0.938C75.591,32.08,75.619,32.91,75.619,33.791z"/>
	<path fill-rule="evenodd" clip-rule="evenodd" fill="#B72126" d="M48.415,30.281c-1.244,0-2.438,0-3.692,0c0-1.202,0-2.388,0-3.62
		c1.223,0,2.435,0,3.692,0C48.415,27.85,48.415,29.016,48.415,30.281z"/>
	<path fill-rule="evenodd" clip-rule="evenodd" fill="#5E6060" d="M131.479,17.425c0,0.517,0,0.974,0,1.523
		c-2.046,0-4.066,0-6.125,0c0,0.451,0,0.808,0,1.253c1.894,0,3.769,0,5.687,0c0,0.587,0,1.087,0,1.668c-1.905,0-3.782,0-5.69,0
		c0,0.41,0,0.741,0,1.137c2.028,0,4.031,0,6.091,0c0,0.563,0,1.062,0,1.618c-2.547,0-5.109,0-7.73,0c0-2.373,0-4.763,0-7.199
		C126.27,17.425,128.834,17.425,131.479,17.425z"/>
	<path fill-rule="evenodd" clip-rule="evenodd" fill="#5E6060" d="M95.06,23.03c0,0.575,0,1.058,0,1.603
		c-0.22,0.017-0.431,0.044-0.641,0.045c-1.668,0.003-3.336,0.006-5.004,0.001c-1.427-0.005-2.445-1.016-2.456-2.438
		c-0.007-0.809-0.009-1.618,0-2.428c0.017-1.453,0.994-2.427,2.451-2.433c1.861-0.008,3.723-0.002,5.63-0.002
		c0,0.519,0,0.996,0,1.583c-0.993,0-1.987,0-2.982,0c-0.858,0-1.717-0.002-2.575,0.001c-0.593,0.001-0.9,0.253-0.872,0.896
		c0.033,0.759,0.031,1.521,0.001,2.28c-0.026,0.68,0.29,0.905,0.933,0.898C91.355,23.018,93.168,23.03,95.06,23.03z"/>
	<path fill-rule="evenodd" clip-rule="evenodd" fill="#5E6060" d="M111.554,17.323c0,0.941,0,1.834,0,2.735
		c-1.497,0-2.907,0-4.378,0c0-0.918,0-1.792,0-2.723c-0.65,0-1.195,0-1.743,0c0,1.209,0,2.401,0,3.595c0,0.054,0,0.108,0,0.162
		c0,1.193,0,2.386,0,3.595c0.548,0,1.093,0,1.743,0c0-0.931,0-1.805,0-2.723c1.471,0,2.881,0,4.378,0c0,0.9,0,1.793,0,2.735
		c0.631,0,1.177,0,1.805,0c0-1.219,0-2.414,0-3.607c0-0.054,0-0.108,0-0.162c0-1.193,0-2.389,0-3.607
		C112.73,17.323,112.185,17.323,111.554,17.323z"/>
	<path fill-rule="evenodd" clip-rule="evenodd" fill="#5E6060" d="M37.612,24.623c-0.567,0-1.103,0-1.682,0c0-0.771,0-1.528,0-2.308
		c-1.898,0-3.753,0-5.641,0c0,0.761,0,1.508,0,2.288c-0.582,0-1.132,0-1.703,0c-0.007-0.087-0.02-0.175-0.02-0.262
		c-0.001-1.582-0.003-3.163,0-4.745c0.001-0.69,0.21-1.303,0.715-1.793c0.354-0.344,0.783-0.521,1.275-0.523
		c1.694-0.004,3.388-0.009,5.082,0.001c1.007,0.007,1.914,0.813,1.955,1.904C37.661,20.986,37.612,22.792,37.612,24.623z
		 M30.288,20.558c1.9,0,3.753,0,5.632,0c0-0.395,0.01-0.763-0.003-1.131c-0.011-0.307-0.173-0.458-0.498-0.457
		c-1.547,0.007-3.095,0.007-4.642,0c-0.309-0.002-0.472,0.136-0.485,0.429C30.276,19.776,30.288,20.155,30.288,20.558z"/>
	<path fill-rule="evenodd" clip-rule="evenodd" fill="#5E6060" d="M76.561,24.623c-0.567,0-1.103,0-1.682,0c0-0.771,0-1.528,0-2.308
		c-1.898,0-3.753,0-5.641,0c0,0.761,0,1.508,0,2.288c-0.582,0-1.133,0-1.703,0c-0.007-0.087-0.021-0.175-0.021-0.262
		c-0.001-1.582-0.003-3.163,0-4.745c0.001-0.69,0.21-1.303,0.715-1.793c0.354-0.344,0.783-0.521,1.275-0.523
		c1.694-0.004,3.388-0.009,5.082,0.001c1.007,0.007,1.914,0.813,1.955,1.904C76.61,20.986,76.561,22.792,76.561,24.623z
		 M69.237,20.558c1.9,0,3.753,0,5.632,0c0-0.395,0.011-0.763-0.003-1.131c-0.011-0.307-0.174-0.458-0.498-0.457
		c-1.547,0.007-3.095,0.007-4.642,0c-0.308-0.002-0.472,0.136-0.485,0.429C69.225,19.776,69.237,20.155,69.237,20.558z"/>
	<path fill-rule="evenodd" clip-rule="evenodd" fill="#5E6060" d="M54.849,17.354c0.004,0.002-6.625-0.015-6.899,0
		c0,2.443,0,4.879,0,7.269c0.556,0,1.076,0,1.659,0c0-0.785,0-1.557,0-2.308c0.178-0.02,0.295,0,0.413,0
		c1.619-0.003,3.239,0.018,4.857-0.01c1.385-0.022,2.385-1.132,2.325-2.561C57.157,18.622,56.26,17.284,54.849,17.354z
		 M54.689,20.625c-1.143-0.02-2.286-0.01-3.427-0.006h-1.656v-1.617h0.781C50.507,19,50.642,19,50.796,19
		c1.296,0,2.593,0.02,3.889-0.009c0.604-0.014,0.835,0.225,0.836,0.817C55.522,20.4,55.296,20.636,54.689,20.625z"/>
	<path fill-rule="evenodd" clip-rule="evenodd" fill="#B72126" d="M32.226,32.765c0-2.106,0-4.108,0-6.128c-1.259,0-2.434,0-3.725,0
		c0,0.364,0,0.654,0,0.944c0,4.347-0.003,8.693,0.003,13.04c0.021,0.045,0.039,0.086,0.056,0.124
		c-0.037,0.312-0.06,0.629-0.06,0.953c0,0.29,0,0.58,0,0.944c1.291,0,2.466,0,3.725,0c0-0.254,0-0.508,0-0.762
		c0.032-0.128,0.032-0.378,0.032-0.825c0-1.199,0-3.085,0-4.541c4.166,0,8.283,0,12.406,0c-0.005,1.594,0,3.803,0,5.386
		c0,0.26,0,0.519,0,0.742c1.323,0,2.534,0,3.757,0c0-3.309,0-6.54,0-9.878C43.025,32.765,37.667,32.765,32.226,32.765z"/>
</g>
</svg>
