<?xml version="1.0" encoding="utf-8"?>
<!-- Generator: Adobe Illustrator 16.0.0, SVG Export Plug-In . SVG Version: 6.00 Build 0)  -->
<!DOCTYPE svg PUBLIC "-//W3C//DTD SVG 1.1//EN" "http://www.w3.org/Graphics/SVG/1.1/DTD/svg11.dtd">
<svg version="1.1" id="Layer_1" xmlns="http://www.w3.org/2000/svg" xmlns:xlink="http://www.w3.org/1999/xlink" x="0px" y="0px"
	 width="200px" height="60px" viewBox="0 0 200 60" enable-background="new 0 0 200 60" xml:space="preserve">
<g>
	<g>
		<polygon fill="#59666C" points="30.277,25.541 25.136,34.454 25.136,34.454 20,25.541 25.138,16.642 		"/>
		<polygon fill="#BCAE79" points="35.417,16.642 25.141,16.642 30.28,25.542 40.559,25.541 		"/>
		<polygon fill="#59666C" points="35.416,34.458 40.556,25.546 40.556,25.546 45.692,34.458 40.554,43.358 		"/>
		<polygon fill="#BCAE79" points="30.274,43.357 40.551,43.357 35.412,34.457 25.133,34.458 		"/>
	</g>
	<polygon fill="#59666C" points="64.323,34.326 64.323,16.745 61.511,16.745 61.511,24.013 53.202,24.013 53.202,16.745 
		50.364,16.745 50.364,34.326 53.202,34.326 53.202,26.435 61.511,26.435 61.511,34.326 	"/>
	<polygon fill="#59666C" points="72.47,34.326 72.47,16.745 69.631,16.745 69.631,34.326 	"/>
	<path fill="#59666C" d="M89.47,29.013c0-1.823-1.068-3.567-3.36-4.011V24.95c1.797-0.625,2.995-2.214,2.995-4.011
		c0-2.709-1.979-4.271-5.808-4.271c-2.135,0-4.141,0.052-5.522,0.078v17.58c1.954,0.026,3.725,0.078,4.792,0.078
		C87.959,34.404,89.47,31.306,89.47,29.013L89.47,29.013z M86.136,21.382c0,1.771-1.38,2.839-4.01,2.839c-0.6,0-1.042,0-1.51-0.026
		v-5.209c0.677-0.025,1.432-0.052,2.213-0.052C85.329,18.934,86.136,19.949,86.136,21.382L86.136,21.382z M86.475,29.064
		c0,1.771-1.224,3.022-3.803,3.022c-0.912,0-1.615-0.054-2.057-0.131v-5.6c0.391-0.026,1.302-0.026,1.588-0.026
		C84.678,26.33,86.475,27.06,86.475,29.064L86.475,29.064z"/>
	<polygon fill="#59666C" points="102.935,34.326 102.935,31.904 96.501,31.904 96.501,26.435 102.622,26.435 102.622,24.116 
		96.501,24.116 96.501,19.116 102.935,19.116 102.935,16.745 93.662,16.745 93.662,34.326 	"/>
	<path fill="#59666C" d="M119.363,34.326l-4.636-6.121c-0.443-0.572-0.99-1.25-1.483-1.875c2.864-0.313,4.974-2.109,4.974-4.922
		c0-3.49-2.5-4.767-6.146-4.767c-1.98,0-3.438,0.025-4.715,0.104v17.581h2.839v-7.605h0.13l5.47,7.605H119.363L119.363,34.326z
		 M115.248,21.721c0,1.745-1.38,2.917-3.672,2.917c-0.625,0-1.119-0.026-1.38-0.052v-5.574c0.416-0.026,0.938-0.052,1.484-0.052
		C114.05,18.96,115.248,19.793,115.248,21.721L115.248,21.721z"/>
	<path fill="#BCAE79" d="M137.118,34.326V16.745h-2.762v5.209c0,2.579,0.079,6.355,0.182,8.361c-0.65-1.276-1.354-2.683-2.136-3.985
		l-5.808-9.585h-3.725v17.581h2.762v-5.912c0-2.5-0.053-6.068-0.157-7.788c0.547,1.173,1.172,2.423,1.954,3.699l6.016,10.001
		H137.118L137.118,34.326z"/>
	<path fill="#BCAE79" d="M155.892,34.326l-6.381-17.581h-3.152l-6.302,17.581h2.864l1.354-3.881h7.11l1.354,3.881H155.892
		L155.892,34.326z M150.63,28.18h-5.626l1.979-5.443c0.339-0.938,0.626-1.901,0.809-2.787h0.052
		c0.208,0.964,0.442,1.798,0.781,2.709L150.63,28.18L150.63,28.18z"/>
	<polygon fill="#BCAE79" points="167.791,19.142 167.791,16.745 155.29,16.745 155.29,19.142 160.108,19.142 160.108,34.326 
		162.946,34.326 162.946,19.142 	"/>
	<polygon fill="#BCAE79" points="180,34.326 180,31.904 173.566,31.904 173.566,26.435 179.688,26.435 179.688,24.116 
		173.566,24.116 173.566,19.116 180,19.116 180,16.745 170.728,16.745 170.728,34.326 	"/>
</g>
</svg>
