<?xml version="1.0" encoding="utf-8"?>
<!-- Generator: Adobe Illustrator 21.0.0, SVG Export Plug-In . SVG Version: 6.00 Build 0)  -->
<svg version="1.1" id="Layer_1" xmlns="http://www.w3.org/2000/svg" xmlns:xlink="http://www.w3.org/1999/xlink" x="0px" y="0px"
	 width="160px" height="60px" viewBox="0 0 160 60" style="enable-background:new 0 0 160 60;" xml:space="preserve">
<style type="text/css">
	.st0{stroke:#FDEE21;stroke-width:0.3048;}
	.st1{fill:#FDEE21;}
	.st2{fill:#C8C037;}
	.st3{fill:#FCF6A0;}
	.st4{fill:#FFFFFF;}
	.st5{stroke:#000000;stroke-width:6.773632e-03;}
</style>
<g>
	<g transform="translate(-.53268 66.8)">
		<path class="st0" d="M86.4-21.6v11.5h2.8v-5.3l0.6,0v5.3h2.8v-11.5h-2.8v4.3h-0.6v-4.3L86.4-21.6z"/>
		<path class="st0" d="M96.1-21.6h-2.7v11.5h2.7V-21.6z"/>
		<path class="st0" d="M96.6-21.6l2.2,11.5h3.3l2.2-11.5h-2.9l-0.7,4.9c-0.1,0.2-0.3,0.2-0.3,0l-0.7-4.9L96.6-21.6z"/>
		<path class="st0" d="M110.2-21.6h-5.4v11.5h5.4v-3l-3,0l0-1.3h1.4v-3h-1.4l0-1.2h3V-21.6z"/>
	</g>
	<g transform="translate(-.53268 66.8)">
		<path class="st1" d="M80.8-56.4c-0.5-1.3-16.2-7.4-16.4-6.7c-2.9,0.8-4.1,4.1-6.1,6.2l-4.4-0.3c-1.9,2.5-3,5.1-2.3,7.7
			c2.5,3.4,5.4,6.3,7.2,10.5c0.1,2,8.7,0.2,10.5-0.2c-2.5,1.8-4.7,4.6-3.7,12.5c0.9,3.7,1.4,7.9,9,12.2c1,0.6,3.1,1.2,4.3,1.7
			c1.2,0.6,2.6,0.8,6.7-0.4c2.3-1,4.8-1.6,7.1-2.6l-2.7,0.1c-3.8,0.1-6.7,0.4-7.6-0.7l-3.5-6l2-3.9c2.8,0.3,3.7,2.6,6.2,3.4L90-25
			c8.4,5,11.8-3.2,12.8-9.5c-0.1-2.6-5.6,0.8-5.3-0.4c0.1-2.8-2.1-6.4-3.6-9.2l1.7-6.5c0.8-0.7-3.5-8-7.1-8.9
			C85.5-60.3,80.8-56.4,80.8-56.4L80.8-56.4z"/>
	</g>
	<g>
		<g transform="translate(-.53268 66.8)">
			<path class="st2" d="M94.7-42.5c0,0.7,0,1.6,0.1,2.1c0,0.4-0.3,0.4-0.6,0.5l1.6,0.6c0.3,0.5,0.6,1.1,0.9,1.6
				c0.3,1.3,0.1,1.4-0.1,1.5c-0.6,0-1.2,0-1.7-0.1c0.2,0.1,0.3,0.2,0.3,0.4c0,0.3-0.2,0.7-0.5,1.1c0.5,0.3,1.4,0.5,2,0.8l0.8-1.7
				C97.1-38,96.1-40.3,94.7-42.5L94.7-42.5z"/>
			<path class="st2" d="M97.7-34.2c0.9,0.4,2.2,0.3,3.9-0.6c0.3-0.2,0.5-0.1,0,0.2C99.4-32.6,98.3-33.6,97.7-34.2L97.7-34.2z"/>
			<path class="st2" d="M101.8-35.1c0.3,0.5,0.1,0.9,0,1.4c-0.3,2.2-1,4-2.3,5.8c-4.4,7.1-8.9,2.7-12.5-0.2l-1.5,3.7
				c-0.1,0.3-0.4,0.6,1.9,1.6l2.3-1.7C98.7-17.7,105.1-34.1,101.8-35.1L101.8-35.1z"/>
			<path class="st2" d="M88.1-28.8c-0.6,0-2.4,0.7-2.5,1l0.8-1.2L88.1-28.8z"/>
			<path class="st2" d="M86.9-36.3c0.1,0,0.6,0.1,0.6,0.1c-0.1,0,0,0.7,0.2,1.2L87-33.6c1.2-1.4,3.2-1.3,5-1.5l-0.9-0.5
				c0.2-0.5,0-0.9-0.1-1.3L86.9-36.3z"/>
			<path class="st2" d="M90-40.6c-1.3,0.4-2.6,1.1-3.5,2.5c0.7-2.3,0.8-2.3,1-2.4C88.4-40.8,89.2-40.6,90-40.6L90-40.6z"/>
		</g>
		<g transform="translate(-.53268 66.8)">
			<path class="st3" d="M82.9-13.1c-1.6,1.8-5.2-0.1-8.2-1.1c-7.6-4.8-9.1-9.4-9.2-13.8c-0.4-6.4,1.6-10.1,4-11
				c-1.6,3.2-2.4,8.8-1.6,13c0.6,2.3,0.6,6.3,4.5,8.4c1.9,1.1,1.4,1.9,2.7,2.9C76.6-13.5,80.6-12.4,82.9-13.1L82.9-13.1z"/>
			<path class="st3" d="M85.3-42.6c-2.7-3.9-6.6-5.3-10.9-5.5c0.9-0.3,1.7-0.4,2.6-0.8c0.2-0.2,0.1-0.6,0.1-1
				c-4.2-1.1-6.8-2.4-10.1-3.7l9,2.2C82-51.2,81.5-49.7,85.3-42.6L85.3-42.6z"/>
			<path class="st3" d="M88.2-44.4c-2-2.9-4-6.4-6.6-8.6c-6.4-2.9-12.7-5-20.1-7l2.4-3c7.9,1.8,15.3,4.8,21.9,9.8
				C86.8-50.4,87.6-47.6,88.2-44.4L88.2-44.4z"/>
			<path class="st3" d="M92.3-49.5c0,0-1.1-2.5-1.7-3.5c-1.3-1.4-1.9-4-4.5-5.3c0.8,0.2,1.4,0,3.1,1.5l2.7,5L92.3-49.5z"/>
			<path class="st3" d="M93.7-45.1c0.3-2.2,0.8-5.7,0.2-7.1c-1.6-2.1-3.2-4.3-4.8-6.3c-0.3-0.2-0.5-0.6-0.7-0.8
				c2.2,0.6,4.6,2.1,7.7,8.3L93.7-45.1z"/>
		</g>
		<g transform="translate(-.53268 66.8)">
			<path d="M84.3-44.9c-0.9-0.7-1.7-3.2-3-3.7c-1.2-0.1-1.7-0.5-3.3-0.2c0.6-0.3,1.2-0.7,1.8-0.9c0.4-0.1,0.8,0,1.2,0.1
				c0.1,0,0.2-0.1,0.1-0.2c-1.7-1-5-1-7.3-1.6c2.7,0.1,5.6-0.1,7.6,0.6C82.9-49.3,83.4-46.7,84.3-44.9L84.3-44.9z"/>
			<path d="M89.1-56.8c0.4,0,2.4,3.2,2.4,3.7c0.2,1.1,0.6,2.4,0.7,3.6c-0.3-1.1-0.7-2.3-1.1-3.4c-0.1-0.3-0.5-1-1.4-2
				C89.3-55.7,89.2-56.2,89.1-56.8L89.1-56.8z"/>
			<path d="M95.9-39.7H95l0.9,0.2L95.9-39.7z"/>
			<path d="M90.1-40.6c-0.9-0.1-1.7-0.1-2.6,0.1c-0.3,0.5-0.4,0.9-0.5,1.4C88-40.3,88.4-40.3,90.1-40.6L90.1-40.6z"/>
			<path d="M101.7-34.7c-0.5,0.4-0.5,0.7-1.9,1.2c-1,0.2-1.6-0.2-2.1-0.7c0.7,0.2,0.8,0.8,2.8,0.1L101.7-34.7z"/>
			<path d="M97.4-34.4c-0.3,0.9-0.7,1.9-1.1,2.8c-0.9,1-0.5,0.4-1.8,2.1c0.4-0.7,1-1.3,1.3-2c0.2-0.4,0.5-0.9,0.6-1.3
				c-0.4-0.2-1.1-0.2-1.2-0.1c-1.2,0.7-1.4,1.4-2.1,2.1c0.5-0.8,0.9-1.7,1.5-2.4c0.1-0.1,0.5-0.1,0.8-0.2c-0.4-0.1-1.2-0.2-1.2-0.2
				c-0.8,0.2-1.2,0.9-1.8,1.3c0.4-0.6,0.8-1.2,1.3-1.7c0.1-0.1,1.5,0.1,2.2,0.4l0,0.3l0.4,0.2l0.3-0.8L97.4-34.4z"/>
			<path d="M88.1-28.8c-0.2-0.1-1.9-0.3-1.9-0.2c-0.6,0.5-0.7,0.9-0.7,1.3C86.6-28.8,86.6-28.8,88.1-28.8L88.1-28.8z"/>
			<path d="M86.9-36.3c0,0,1.2-0.2,1.2-0.1C88-36,88.2-35,88.2-35.1l-0.7,0.6c1.4-0.7,2.9-0.6,4.4-0.7c0,0-1.3-0.4-1.2-0.4
				c0.3,0-0.1-1.3-0.2-1.4c0.2-0.1,0.5-0.1,0.7-0.2C89.5-37.6,88.4-37.4,86.9-36.3L86.9-36.3z"/>
			<path d="M97.3-35.4L97-35.3c0-0.8-0.9-0.7-1.6-0.7l-0.6-0.1c0.2,0.2,0.7,0.2,0.5,0.5c-0.2,0.1-0.3,0.5-0.4,0.9l-0.3,0
				c0.6,0.2,1.1,0.4,1.7,0.7l0.4,0.1l0.9-0.5L97.3-35.4z"/>
		</g>
		<g transform="translate(-.53268 66.8)">
			<path class="st4" d="M89.3-36c-0.1-0.3-0.8-0.2-1-0.1c-0.1,0.1,0,1,0.1,0.9c0.2-0.2,0.5-0.3,0.9-0.3C89.4-35.6,89.4-35.7,89.3-36
				L89.3-36z"/>
			<path class="st4" d="M95.9-34.6c0.1,0,0.2-0.5,0.2-0.6c-0.1-0.3-0.7-0.3-0.7-0.3c-0.2,0.1-0.3,0.6-0.2,0.8
				C95.1-34.6,95.8-34.6,95.9-34.6L95.9-34.6z"/>
		</g>
		<g transform="translate(-.53268 66.8)">
			<path d="M68.7-18.9l0.4,0c2.4,1.2,6.3,2.9,12,2l0.9,1.4c-2.5,1.2-5.2,0.9-7.7,1L68.7-18.9z"/>
			<path d="M65.2-28.2l1.2,5c3.2,2,8.6,4.3,13.2,4.1l-1-2.3C69.1-23.4,68.3-25.9,65.2-28.2L65.2-28.2z"/>
			<path d="M68.2-38.4c0.6,3.9,1.4,6.8,4.7,9.3c2.1,1.5,4.1,3,6.6,4.2c0,0-0.2,1.1-0.4,1.1c-7.4-0.8-12.9-7-13.5-9.8
				C66.3-35.8,67.2-37.1,68.2-38.4L68.2-38.4z"/>
			<path d="M71.8-40.6c1,4.3,3.4,8.7,5.7,12.6c0.9,1.1,1.1,1.6,2.4,2.2c1.8,0.6,3.1,0.4,4.4,0.3c-0.4-0.7-0.7-1.3-1.1-2
				c-2.9-2.3-1.6-4.4-0.8-5.7c-1.6-0.4-3.8-1.3-4.1-2.4c-0.5-3.7-0.2-4.9,0.2-6.8C76.4-41.9,74.1-41.4,71.8-40.6L71.8-40.6z"/>
			<path class="st5" d="M63.7-63.5c-0.7,0.5-1.4,1.1-2.2,1.9c-1.2,1.3-2.1,2.5-3.3,3.5c-0.3,0.2-1,0.6-1.8,0.6c-0.4,0-0.7,0.1-1.5,0
				c-0.7-0.4-1.3-0.1-2,0.6c-0.7,1-1.6,2.9-1.9,4.1c-0.7,3,1.2,5.5,3,7.4c1.6,1.6,2.6,2.6,3.2,4c0.5,0.9,0.9,2.2,1.3,3.2
				c0.1,0.3,0.1,0.3,0.5,0.4c0.9,0.2,2,0.2,3.1,0.3c0.5,0,1.1,0,1.7-0.1c0.8-0.2,1.8-0.3,2.6-0.6c0.8-0.2,1.5-0.5,2.1-0.7
				c-0.1,0.3-0.7,0.5-0.9,0.9c-2.1,3.1-2.7,5.8-2.4,10.1c0.2,1.9,0.6,3.5,1.3,5.3c0.3,0.8,0.9,2.1,1.6,3c1.8,2.6,5.9,5.9,11.6,7.2
				c1,0.1,2.1,0.1,3.2-0.2c2.8-0.9,8.5-2.9,8.5-2.9s-5.1,0.4-7.4,0.2c-0.5-0.1-1.1-0.1-1.5-0.5c-0.1-0.1-0.3-0.5-0.1-0.5
				c0.2,0,0.8-0.2,1.7-0.3c-1.9-0.2-1.9-0.2-2-0.6c-0.2-0.5-0.5-1.3-0.9-1.9c0.8,0.1,2.7,0.2,3.3-0.5c0,0-1.1,0.1-2.1,0
				c-0.3,0-0.9-0.2-1.1-0.3c-0.4-0.2-0.8-0.2-0.9-0.3c-0.2-0.4-0.3-0.5-0.4-1c-0.2-0.7-0.3-1.4-0.3-2.1c0.6,0.8,1.4,1.4,2.5,1.8
				c0,0,1.4,0.6,2.4,0.3l0.2-0.1c0,0-0.7,0.1-0.9-0.1c-2-0.9-2.3-1.6-2.7-2l-0.9-1.3c0.3-0.5,0.4-0.6,0.8-0.6
				c1.1,0.1,1.5,0.2,2.2,0.1c0.4,0.9,0.6,1.8,1.6,2.5c3.3,1,4.1-0.3,4.9-1.4c2.4,1.8,6.3,2.3,9,0c3.5-4,4.5-10.3,4.2-10.7
				c-0.4-0.7-1-1.5-1.5-1.4c-1.7,0.5-2.4,1.4-4.1,1.2c0.2,0,0.5,0,0.6,0c0.1-1.5,0-2.2-0.1-2.3c-0.5-1.1-1.2-2.4-1.7-3.3
				c-0.1-0.2-0.5-1.6-1.1-2.2c-0.3-0.2-0.9-0.8-0.9-0.8L94.3-43c0,0,0.2,0,0.3,0.4c0.4,1.5,2.2,4.9,2.3,5.1c0.6,1,0.1,2.3,0.6,3.1
				c0,0.1,1,0,1.7,0c1.2-0.3,1.2-0.8,2.2-0.9c0.7-0.1,0.8,1.3,0.8,1.4c-0.1,1.5-0.6,3.2-1.3,4.7c-1.4,2.7-3,5.2-5.3,5.5
				c-2.8,0.5-4.2-0.7-5.7-1.5l-0.6,0.5c-1.9,1.9-4.2,1.8-5.2-0.8c-0.5-1-1.1-1.6-1.6-2.4l-2.8,2c-0.2,0.5-0.5,1.2-0.9,2.1
				c-0.2,0.6-0.4,1.6-0.4,2.4c-0.4,0.6,1.2,3.1,2.2,4.6c0.3,0.4,0.8,1.2,0.9,1.3c0.2,0.5,0.6,1,0.7,1c1.9,2.4-2.3,1.9-3.2,1.7
				c-1.7-0.3-3.4-1-5-1.9c-0.1-0.1-0.2-0.1-0.3-0.2c-1.9-1.2-3.6-2.7-5.1-4.2c-0.9-1-1.7-3-2.3-4.5c-0.9-3.5-2.2-9.5,1.3-14
				c0.2-0.3,0.5-0.7,0.7-0.8c1.1-0.7,2.2-1.2,3.5-1.5l-0.1-0.8c-0.6,0.1-2.7,0.9-3.3,1.2c-1.3,0.4-2.5,0.8-4.2,1.2
				c-0.6,0.1-1.1,0.1-1.6,0c-1.2-0.2-3.3,0-3.5-0.1c-0.8-1.2-1.1-3.2-1.8-4.4l0,0l0,0c-0.4-0.6-1-1.1-1.5-1.6
				c-1.8-1.8-3.4-3.6-3.8-5.4c-0.1-0.5-0.4-1.1-0.2-2.7l0,0l0,0c0.4-1.5,1.2-2.8,2.4-4c1.3,0,2.5,0,3.5,0.2c0.4,0.1,1.4,0.2,2.3,0.6
				c2.4,0.9,5.6,2.4,5.6,2.4c-2.4-1.3-5.1-3-6.8-3.4c-0.3,0-0.4-0.2-0.5-0.4c2.6-1.5,3-3.3,4.7-4.9c0.8-0.3,1.1-0.5,1.7-0.6
				c6,1,9.8,3.4,12.8,5c1.2,0.7,2.3,1.2,3.4,1.8c0.9,0.3,3.7,2.4,4.6,3.6c0.8,1.8,1.4,3.7,2,5.5c0.4,1.9,0.7,2.6,0.7,2.6
				s-0.3-1.6-0.3-1.8c0.4,0.1,1.2,0.4,1.5,0.3c0,0-1.5-0.8-1.7-1.5c-0.6-2.2-1.3-5.8-1.5-5.9c-0.5-0.6-2.5-2.2-3.8-2.9
				c-0.5-0.3-0.7-0.4-0.8-0.6c0.4-0.4,0.9-0.9,1.3-1.3c0.4-0.3,0.8-0.7,1.4-0.9c2.6-1.2,4.1,0.5,4.5,0.1c0,0-0.6-0.6-0.3-0.5
				c0.3,0.1,1.1,0.3,1.2,0.4c1,0.7,3.4,3.5,4.9,6.3c0.4,0.7,0.5,1.2,0.3,2c-0.2,0.8-0.3,1.3-0.5,1.9c-0.2,0.4-1.1,3-1.1,3.3
				c-0.2,1.4,0.6,3.2,0.6,3.2c0-0.5,0-0.7,0-1.1l0.1-0.6c0,0,0-0.2,0-0.2c0-0.4,0.1-0.8,0.2-1c0.3-1.9,0.8-3.2,1.4-4.8
				c0.2-0.4,0.4-0.6,0.4-1c0-0.6-0.5-1.3-0.8-2c-0.4-0.7-0.8-1.6-1.4-2.4c-1.3-1.9-2.4-3.3-4.4-4.2c-0.6-0.2-2.8-0.5-3.6-0.3
				c-0.9,0.2-1.7,0.4-2.4,0.8c-1,0.6-1.8,1.6-2.7,2.2c-2.1-1-3-1.8-3.2-1.9c-1.2-0.7-2.7-1.4-4.3-2.1C72.7-61.4,68-63.1,63.7-63.5
				L63.7-63.5z M90-25.2c-1.3-1-2.3-2-3-3.1c-0.2,1.2-1.1,2.1-1.7,3c-0.1,0.2-0.2,0.5,0.4,1.4c0.2,0.2,0.8,0.3,1.2,0.3
				c-0.4-0.3-1.1-0.7-1.2-0.9c0.7,0.5,1.4,0.7,2.1,0.6c0.1,0,0.3-0.2,0.5-0.4c0.3-0.6,0.5-0.7,0.7-0.9l0.5,0.6L90-25.2z"/>
		</g>
	</g>
</g>
</svg>
