<?xml version="1.0" encoding="utf-8"?>
<!-- Generator: Adobe Illustrator 16.0.0, SVG Export Plug-In . SVG Version: 6.00 Build 0)  -->
<!DOCTYPE svg PUBLIC "-//W3C//DTD SVG 1.1//EN" "http://www.w3.org/Graphics/SVG/1.1/DTD/svg11.dtd">
<svg version="1.1" id="Layer_1" xmlns="http://www.w3.org/2000/svg" xmlns:xlink="http://www.w3.org/1999/xlink" x="0px" y="0px"
	 width="185px" height="75px" viewBox="0 0 185 75" enable-background="new 0 0 185 75" xml:space="preserve">
<g>
	<polygon fill="#E54F26" points="122.542,3.5 92.5,3.5 92.5,3.5 62.458,3.5 68.088,64.58 92.5,71.5 92.5,71.5 92.5,71.5 92.5,71.5 
		92.5,71.5 116.903,64.58 	"/>
	<polygon fill="#F16529" points="92.5,8.476 92.5,66.328 92.5,66.328 112.268,60.724 117.083,8.476 	"/>
	<polygon fill="#FFFFFF" points="111.398,15.971 73.592,15.971 75.708,38.84 75.753,38.697 101.582,38.697 100.739,48.371 
		92.5,50.746 84.135,48.335 83.634,42.48 76.04,42.48 77.125,54.18 92.5,58.546 107.875,54.18 109.991,31.22 82.584,31.22 
		81.876,23.564 110.699,23.564 	"/>
	<g>
		<path fill="#EBEAEA" d="M92.5,15.971H73.592l2.116,22.87l0.045-0.144H92.5V31.22h-9.916l-0.708-7.656H92.5V15.971z M83.634,42.48
			H76.04l1.085,11.699L92.5,58.537v-7.791l-8.365-2.411L83.634,42.48z"/>
	</g>
</g>
</svg>
