<?xml version="1.0" encoding="utf-8"?>
<!-- Generator: Adobe Illustrator 21.0.0, SVG Export Plug-In . SVG Version: 6.00 Build 0)  -->
<svg version="1.1" id="Layer_1" xmlns="http://www.w3.org/2000/svg" xmlns:xlink="http://www.w3.org/1999/xlink" x="0px" y="0px"
	 viewBox="0 0 2500 728" style="enable-background:new 0 0 2500 728;" xml:space="preserve">
<style type="text/css">
	.st0{fill:#45535E;}
	.st1{fill:#F8761F;}
</style>
<path class="st0" d="M318.3,193.2h65v144.4h137.1V193.2h65.1v354.4h-65.1V400.2H383.3v147.4h-65V193.2z M791.3,432.2
	c0,29.7-24.2,53.8-53.8,53.8c-29.7,0-53.8-24.1-53.8-53.8V279.6H622v152.6c0,63.7,51.8,115.4,115.5,115.4
	c63.7,0,115.5-51.8,115.5-115.4V279.6h-61.6V432.2 M1025,281.4c-30.6,0-51.9,8.9-72.5,29.1V193.2h-61.8v217.4
	c0,81.4,58.8,137.1,124.9,137.1c73.5,0,137.8-56.7,137.8-133.1C1153.4,339.1,1094,281.4,1025,281.4L1025,281.4z M1026.5,490.4
	c-41.9,0-73.9-35-73.9-75.9c0-40.9,32-75.9,73.9-75.9c35.5,0,67.6,35,67.6,75.9C1094.1,455.4,1062,490.4,1026.5,490.4z M1257.2,297
	c0-31.1,20.7-40.9,43.4-40.9c18.3,0,42.4,13.8,58.2,30.6l40.4-47.3c-20.2-27.1-61.1-45.9-94.6-45.9c-67.1,0-115.4,39-115.4,103.6
	c0,119.8,147.4,81.8,147.4,148.9c0,20.7-20.2,38.9-43.4,38.9c-36.5,0-48.3-17.8-65.1-36.5l-44.9,46.3c28.6,35,64.1,52.8,106.5,52.8
	c63.6,0,114.9-39.4,114.9-101.1C1404.7,313.2,1257.2,354.7,1257.2,297 M1567.5,277.9c-66.1,0-124.9,55.7-124.9,137.1v217.9h61.8
	V515.1c20.6,20.2,41.9,29.1,72.5,29.1c69,0,128.4-57.7,128.4-133.1C1705.3,334.6,1640.9,277.9,1567.5,277.9L1567.5,277.9z
	 M1578.4,487c-41.9,0-73.9-35-73.9-75.9c0-40.9,32-75.9,73.9-75.9c35.5,0,67.6,35,67.6,75.9C1646,451.9,1613.9,487,1578.4,487z
	 M2160.5,490.4c-36.5,0-46.8-15.8-46.8-39.9v-107h56.7v-54.2h-56.7v-71.5l-62.6,28.1v217.9c0,55.7,38.4,83.8,91.2,83.8
	c7.9,0,18.7-0.5,24.7-2l15.3-56.2C2175.3,490,2167.4,490.4,2160.5,490.4"/>
<path class="st1" d="M1997.4,346.7c-11.9-20.4-28.5-36.7-49.4-49.1c-15.6-9.1-31.7-14.8-49.9-17.3v-64.8
	c18.2-7.7,29.5-24.8,29.5-44.8c0-27.2-21.8-49.2-49-49.2c-27.2,0-49.4,22-49.4,49.2c0,20,10.6,37.1,28.8,44.8v64.8
	c-14.6,2.1-29.7,6.6-43.5,13.6c-28.2-21.4-120.5-91.6-174.6-132.6c1.3-4.6,2.3-9.4,2.3-14.4c0-30.1-24.4-54.6-54.5-54.6
	s-54.5,24.4-54.5,54.6c0,30.1,24.4,54.6,54.6,54.6c10.3,0,19.8-3,28-8l11.4,8.7l156.7,112.9c-8.3,7.6-16,16.3-22.2,26
	c-12.5,19.8-20.1,41.6-20.1,65.3v5c0,16.7,3.2,32.4,8.6,47.2c4.8,12.9,11.7,24.6,20.3,35.3l-52,52.1c-15.4-5.7-32.7-1.9-44.3,9.7
	c-7.9,7.9-12.4,18.6-12.3,29.8c0,11.3,4.4,21.8,12.4,29.8c7.9,7.9,18.6,12.4,29.8,12.4c11.2,0,21.9-4.4,29.8-12.4
	c7.9-7.9,12.4-18.6,12.3-29.8c0-4.4-0.7-8.6-1.9-12.7l53.7-53.8c7.4,5.1,15.3,9.4,23.9,13.1c16.9,7.3,35.5,11.7,55.9,11.7h3.7
	c22.5,0,43.8-5.3,63.8-16.1c21.1-11.4,37.5-27.1,50-47.1c12.5-20,19.4-42.2,19.4-66.5V413C2014.6,389,2009,366.9,1997.4,346.7
	L1997.4,346.7z M1931.7,459.4c-14.6,16.2-31.4,26.2-50.3,26.2h-3.1c-10.8,0-21.4-3-31.8-8.4c-11.7-6-20.6-14.5-27.8-25.4
	c-7.5-10.6-11.6-22.2-11.6-34.5v-3.7c0-12.1,2.3-23.6,8.2-34.4c6.3-11.8,14.7-21,25.9-28.4c11-7.3,22.8-10.8,35.9-10.8h1.2
	c11.9,0,23.1,2.3,33.8,7.8c10.8,5.8,19.7,13.7,26.5,24.1c6.7,10.4,10.6,21.7,11.9,33.9c0.2,2.5,0.3,5.2,0.3,7.6
	C1950.8,430.1,1944.4,445.5,1931.7,459.4L1931.7,459.4z"/>
</svg>
