<?xml version="1.0" encoding="utf-8"?>
<!-- Generator: Adobe Illustrator 21.0.2, SVG Export Plug-In . SVG Version: 6.00 Build 0)  -->
<svg version="1.1" id="Layer_1" xmlns="http://www.w3.org/2000/svg" xmlns:xlink="http://www.w3.org/1999/xlink" x="0px" y="0px"
	 width="190px" height="72px" viewBox="0 0 190 72" style="enable-background:new 0 0 190 72;" xml:space="preserve">
<style type="text/css">
	.st0{fill:#2F3135;}
</style>
<path class="st0" d="M13.6,52.9c-0.1,0-0.1,0-0.1-0.1L2.5,37.4c0-0.1,0-0.1,0-0.2l7.9-17.2c0-0.1,0.1-0.1,0.1-0.1l18.9-1.7
	c0.1,0,0.1,0,0.2,0.1l10.9,15.5c0,0.1,0,0.1,0,0.2l-7.9,17.2c0,0.1-0.1,0.1-0.1,0.1L13.6,52.9L13.6,52.9z M2.9,37.2l10.8,15.3
	l18.7-1.7l7.8-17.1L29.4,18.4l-18.7,1.7L2.9,37.2z M32.5,51L32.5,51L32.5,51z"/>
<path class="st0" d="M13.5,52.9l-3-15.8l0-17.2l14.8,4.3l15.3,9.5L29.2,43.8L13.5,52.9z M10.7,20.1l0,17l3,15.5l15.4-8.9l11.2-9.9
	l-15.1-9.4L10.7,20.1z"/>
<path class="st0" d="M26,24.4c0,0.3-0.2,0.6-0.5,0.6c-0.3,0-0.5-0.2-0.5-0.6c0-0.3,0.2-0.6,0.5-0.6C25.8,23.8,26,24.1,26,24.4"/>
<path class="st0" d="M25.5,25.5c-0.6,0-1.1-0.5-1.1-1.1c0-0.6,0.5-1.1,1.1-1.1c0.6,0,1.1,0.5,1.1,1.1C26.6,25,26.1,25.5,25.5,25.5
	 M25.5,24.4L25.5,24.4C25.5,24.4,25.5,24.4,25.5,24.4L25.5,24.4z"/>
<path class="st0" d="M29.7,43.7c0,0.3-0.2,0.6-0.5,0.6c-0.3,0-0.5-0.2-0.5-0.6c0-0.3,0.2-0.6,0.5-0.6C29.5,43.2,29.7,43.4,29.7,43.7
	"/>
<path class="st0" d="M29.2,44.9c-0.6,0-1.1-0.5-1.1-1.1c0-0.6,0.5-1.1,1.1-1.1c0.6,0,1.1,0.5,1.1,1.1C30.3,44.4,29.8,44.9,29.2,44.9
	 M29.2,43.7L29.2,43.7C29.1,43.8,29.1,43.8,29.2,43.7L29.2,43.7z"/>
<path class="st0" d="M14.3,52.7c0,0.3-0.2,0.6-0.5,0.6c-0.3,0-0.5-0.2-0.5-0.6c0-0.3,0.2-0.6,0.5-0.6C14,52.2,14.3,52.4,14.3,52.7"
	/>
<path class="st0" d="M13.7,53.9c-0.6,0-1.1-0.5-1.1-1.1c0-0.6,0.5-1.1,1.1-1.1c0.6,0,1.1,0.5,1.1,1.1C14.9,53.4,14.4,53.9,13.7,53.9
	 M13.7,52.7L13.7,52.7C13.7,52.8,13.7,52.8,13.7,52.7L13.7,52.7z"/>
<path class="st0" d="M11.1,37.3c0,0.3-0.2,0.6-0.5,0.6c-0.3,0-0.5-0.2-0.5-0.6c0-0.3,0.2-0.6,0.5-0.6C10.9,36.7,11.1,37,11.1,37.3"
	/>
<path class="st0" d="M10.6,38.4c-0.6,0-1.1-0.5-1.1-1.1c0-0.6,0.5-1.1,1.1-1.1c0.6,0,1.1,0.5,1.1,1.1C11.7,37.9,11.2,38.4,10.6,38.4
	 M10.6,37.3L10.6,37.3C10.5,37.3,10.6,37.3,10.6,37.3L10.6,37.3z"/>
<path class="st0" d="M41,33.8c0,0.3-0.2,0.6-0.5,0.6c-0.3,0-0.5-0.2-0.5-0.6c0-0.3,0.2-0.6,0.5-0.6C40.7,33.2,41,33.5,41,33.8"/>
<path class="st0" d="M40.4,34.9c-0.6,0-1.1-0.5-1.1-1.1c0-0.6,0.5-1.1,1.1-1.1c0.6,0,1.1,0.5,1.1,1.1C41.5,34.4,41,34.9,40.4,34.9
	 M40.4,33.7L40.4,33.7C40.4,33.8,40.4,33.8,40.4,33.7L40.4,33.7z"/>
<path class="st0" d="M11.1,20c0,0.3-0.2,0.6-0.5,0.6c-0.3,0-0.5-0.2-0.5-0.6c0-0.3,0.2-0.6,0.5-0.6C10.9,19.4,11.1,19.7,11.1,20"/>
<path class="st0" d="M10.6,21.1c-0.6,0-1.1-0.5-1.1-1.1c0-0.6,0.5-1.1,1.1-1.1c0.6,0,1.1,0.5,1.1,1.1C11.7,20.6,11.2,21.1,10.6,21.1
	 M10.6,20L10.6,20C10.5,20,10.6,20,10.6,20L10.6,20z"/>
<path class="st0" d="M32.5,51.2C32.5,51.2,32.4,51.2,32.5,51.2L18,46.1L2.6,37.4c-0.1,0-0.1-0.1-0.1-0.1c0-0.1,0-0.1,0.1-0.2
	l11.6-10.7l15.2-8.4c0.1,0,0.1,0,0.2,0c0.1,0,0.1,0.1,0.1,0.1l3.4,15L32.7,51c0,0.1,0,0.1-0.1,0.1C32.5,51.2,32.5,51.2,32.5,51.2
	 M3,37.2l15.2,8.6l14.1,5l0.4-17.5l-3.3-14.7l-15,8.2L3,37.2z"/>
<path class="st0" d="M29.2,43.8L29.2,43.8l-18.7-6.5l0.1-0.1l15-12.9L29.2,43.8z M10.7,37.3l18.4,6.4l-3.6-19.2L10.7,37.3z"/>
<path class="st0" d="M18,46.3l-3.9-20l19.2,6.9L18,46.3z M14.5,26.9l3.7,18.7l14.3-12.3L14.5,26.9z"/>
<rect x="12.2" y="19.5" transform="matrix(0.8718 -0.4899 0.4899 0.8718 -9.8167 9.0757)" class="st0" width="0.4" height="7.6"/>
<polygon class="st0" points="13.9,52.8 13.6,52.6 17.9,45.8 18.2,46 "/>
<polygon class="st0" points="40.4,34 32.8,33.4 32.9,33 40.4,33.6 "/>
<polygon class="st0" points="49,29.1 52,29.1 52,34.2 57.9,34.2 57.9,29.1 61,29.1 61,42.8 58,42.8 57.9,36.9 52.1,36.9 52.1,42.8 
	49,42.8 "/>
<polygon class="st0" points="67,37 61.8,29.1 65.6,29.1 68.5,34.2 71.6,29.1 75.2,29.1 70,37 70,42.8 67,42.8 "/>
<path class="st0" d="M76,29.1l5.1,0c0.7,0,1.4,0.1,2,0.2c0.6,0.1,1.2,0.4,1.7,0.7c0.5,0.3,0.8,0.7,1.1,1.3c0.3,0.5,0.4,1.2,0.4,2
	c0,0.8-0.1,1.5-0.4,2c-0.3,0.5-0.6,1-1.1,1.3c-0.5,0.3-1,0.6-1.6,0.7c-0.6,0.1-1.3,0.2-2,0.2l-2.2,0l0,5.4l-3,0L76,29.1z M79,34.9
	l2,0c0.3,0,0.5,0,0.8-0.1c0.3-0.1,0.5-0.1,0.7-0.3c0.2-0.1,0.4-0.3,0.5-0.5c0.1-0.2,0.2-0.5,0.2-0.8c0-0.3-0.1-0.6-0.2-0.8
	c-0.2-0.2-0.4-0.4-0.6-0.5c-0.3-0.1-0.5-0.2-0.8-0.2c-0.3,0-0.6,0-0.9,0l-1.6,0L79,34.9z"/>
<polygon class="st0" points="88.2,29.1 97.5,29.1 97.5,31.9 91.2,31.9 91.2,34.4 97.2,34.4 97.2,37.2 91.2,37.2 91.2,40 97.9,40 
	97.9,42.8 88.2,42.8 "/>
<path class="st0" d="M100.1,29.1l5.3,0c0.7,0,1.4,0.1,2,0.2c0.6,0.1,1.2,0.4,1.7,0.7c0.5,0.3,0.9,0.7,1.1,1.3c0.3,0.5,0.4,1.2,0.4,2
	c0,1-0.3,1.8-0.8,2.5c-0.5,0.7-1.2,1.1-2.2,1.3l3.5,5.8l-3.6,0l-2.9-5.5l-1.5,0l0,5.5l-3,0L100.1,29.1z M103.2,34.8l1.8,0
	c0.3,0,0.6,0,0.9,0c0.3,0,0.6-0.1,0.8-0.2c0.2-0.1,0.4-0.3,0.6-0.5c0.2-0.2,0.2-0.5,0.2-0.9c0-0.4-0.1-0.6-0.2-0.8
	c-0.1-0.2-0.3-0.4-0.5-0.5c-0.2-0.1-0.5-0.2-0.8-0.2c-0.3,0-0.6-0.1-0.8-0.1l-2,0L103.2,34.8z"/>
<polygon class="st0" points="112.6,29.1 115.7,29.1 115.7,40 121.3,40 121.3,42.8 112.7,42.8 "/>
<polygon class="st0" points="122.9,29.1 132.2,29.1 132.3,31.9 125.9,31.9 125.9,34.4 131.9,34.4 131.9,37.2 125.9,37.2 125.9,40 
	132.6,40 132.6,42.8 122.9,42.8 "/>
<path class="st0" d="M134.8,29.1l4.6,0c1.1,0,2.1,0.1,3.1,0.4c1,0.2,1.9,0.6,2.6,1.2c0.7,0.5,1.3,1.3,1.8,2.1c0.4,0.9,0.7,2,0.7,3.2
	c0,1.1-0.2,2.1-0.6,2.9c-0.4,0.8-1,1.6-1.7,2.1c-0.7,0.6-1.5,1-2.5,1.3c-0.9,0.3-1.9,0.4-2.9,0.4l-5,0L134.8,29.1z M137.9,40l1.6,0
	c0.7,0,1.4-0.1,2-0.2c0.6-0.1,1.1-0.4,1.6-0.7c0.4-0.3,0.8-0.8,1-1.3c0.3-0.5,0.4-1.2,0.4-2c0-0.7-0.1-1.3-0.4-1.8
	c-0.3-0.5-0.6-0.9-1-1.2c-0.4-0.3-0.9-0.6-1.5-0.7c-0.6-0.2-1.2-0.2-1.8-0.2l-1.8,0L137.9,40z"/>
<path class="st0" d="M161.9,41.8c-0.9,0.5-1.8,0.8-2.8,1c-1,0.2-2,0.3-3,0.3c-1.1,0-2.1-0.2-3-0.5c-0.9-0.3-1.7-0.8-2.4-1.4
	c-0.7-0.6-1.2-1.4-1.5-2.3c-0.4-0.9-0.6-1.9-0.6-3c0-1.1,0.2-2.1,0.6-3c0.4-0.9,0.9-1.7,1.5-2.3c0.7-0.6,1.4-1.1,2.4-1.4
	c0.9-0.3,1.9-0.5,3-0.5c1.1,0,2.1,0.1,3,0.4c0.9,0.3,1.7,0.7,2.4,1.4l-2.1,2.3c-0.4-0.4-0.9-0.8-1.4-1c-0.5-0.2-1.2-0.3-1.9-0.3
	c-0.6,0-1.2,0.1-1.8,0.3c-0.5,0.2-1,0.5-1.4,0.9c-0.4,0.4-0.7,0.9-0.9,1.4c-0.2,0.5-0.3,1.1-0.3,1.8c0,0.6,0.1,1.2,0.3,1.8
	c0.2,0.5,0.5,1,0.9,1.4c0.4,0.4,0.8,0.7,1.4,0.9c0.5,0.2,1.1,0.3,1.8,0.3c0.7,0,1.2-0.1,1.7-0.2c0.5-0.1,0.9-0.3,1.1-0.5l0-2.2
	l-2.5,0l0-2.8l5.4,0L161.9,41.8z"/>
<polygon class="st0" points="164.5,29.1 173.8,29.1 173.8,31.9 167.5,31.9 167.5,34.4 173.5,34.4 173.5,37.2 167.5,37.2 167.5,40 
	174.2,40 174.2,42.8 164.5,42.8 "/>
<path class="st0" d="M176.4,29.1l5.3,0c0.7,0,1.4,0.1,2,0.2c0.6,0.1,1.2,0.4,1.7,0.7c0.5,0.3,0.8,0.7,1.1,1.3c0.3,0.5,0.4,1.2,0.4,2
	c0,1-0.3,1.8-0.8,2.5c-0.5,0.7-1.2,1.1-2.2,1.3l3.5,5.8l-3.6,0l-2.9-5.5l-1.5,0l0,5.5l-3,0L176.4,29.1z M179.4,34.8l1.8,0
	c0.3,0,0.6,0,0.9,0c0.3,0,0.6-0.1,0.8-0.2c0.2-0.1,0.4-0.2,0.6-0.5c0.2-0.2,0.2-0.5,0.2-0.9c0-0.4-0.1-0.6-0.2-0.8
	c-0.1-0.2-0.3-0.4-0.5-0.5c-0.2-0.1-0.5-0.2-0.8-0.2c-0.3,0-0.6-0.1-0.8-0.1l-2,0L179.4,34.8z"/>
<g>
</g>
<g>
</g>
<g>
</g>
<g>
</g>
<g>
</g>
<g>
</g>
<g>
</g>
<g>
</g>
<g>
</g>
<g>
</g>
<g>
</g>
<g>
</g>
<g>
</g>
<g>
</g>
<g>
</g>
</svg>
