<svg width="44" height="37" viewBox="0 0 44 37" fill="none" xmlns="http://www.w3.org/2000/svg">
<g clip-path="url(#clip0_670_55)">
<path d="M38.2517 14.4045C38.3869 14.4045 38.5222 14.3369 38.6574 14.2693L42.5122 12.1728C42.8503 12.0376 43.0532 11.5642 42.918 11.2261C42.7827 10.8203 42.3093 10.6174 41.8359 10.7527L41.7007 10.8203L37.8459 12.9167C37.4402 13.1196 37.3049 13.593 37.5078 13.9311C37.643 14.2693 37.9135 14.4045 38.2517 14.4045ZM31.5566 8.1152C31.8271 8.1152 32.0976 7.97995 32.3005 7.70944L34.5322 4.05756C34.7351 3.71943 34.6674 3.31366 34.3969 3.04316C34.0588 2.77265 33.5178 2.77265 33.2473 3.11078C33.2473 3.17841 33.1796 3.17841 33.1796 3.24604L30.9479 6.89791C30.7451 7.23605 30.8127 7.70944 31.1508 7.97995C31.2184 8.04758 31.3537 8.1152 31.5566 8.1152ZM23.2384 5.00435L23.2384 0.879083C23.2384 0.473319 22.9003 0.0675552 22.4269 0.0675551C21.9535 0.0675551 21.6154 0.40569 21.5477 0.811454L21.5477 5.1396C21.5477 5.54536 21.8859 5.95113 22.3593 5.95113L22.4269 5.95113C22.9003 5.74825 23.2384 5.41011 23.2384 5.00435ZM13.2972 8.1152C13.4325 8.1152 13.6353 8.04757 13.7706 7.97995C14.1087 7.70944 14.1764 7.23605 13.9735 6.89791L11.7418 3.24604C11.5389 2.9079 10.9979 2.77264 10.5921 2.97553C10.5245 2.97553 10.5245 3.04315 10.4569 3.04315C10.1864 3.31366 10.1187 3.71943 10.3216 4.05756L12.5533 7.70944C12.7562 7.97995 13.0267 8.1152 13.2972 8.1152ZM6.60211 14.4045C6.87262 14.4045 7.21076 14.2693 7.34601 13.9988C7.54889 13.593 7.41364 13.1196 7.00787 12.9844L3.15312 10.8879C2.81498 10.685 2.34159 10.7527 2.07108 11.0232C1.80057 11.3613 1.80057 11.8347 2.13871 12.1052C2.20634 12.1052 2.20634 12.1728 2.27396 12.1728L6.19635 14.2693C6.3316 14.3369 6.46686 14.4045 6.60211 14.4045Z" fill="url(#paint0_linear_670_55)"/>
<path d="M32.8416 32.0554C38.5899 26.6452 38.5899 17.8537 32.8416 12.4435C27.0933 7.03332 17.7607 7.03332 12.08 12.4435C11.6743 12.8493 11.2685 13.255 10.9304 13.6608C10.6598 13.9313 10.457 14.2694 10.1865 14.6076L11.539 15.4867C11.7419 15.2162 11.9448 14.9457 12.2153 14.6752C12.5534 14.2694 12.8915 13.9313 13.2297 13.5932C18.3017 8.79163 26.6199 8.79163 31.6919 13.5932C36.764 18.3947 36.764 26.1718 31.6919 31.041L32.8416 32.0554Z" fill="url(#paint1_linear_670_55)"/>
<path d="M11.9451 36.1128L34.6002 36.1128C39.8075 36.0452 44.0681 32.0552 44.0004 27.1184L42.3774 27.1184C42.3774 31.176 38.9284 34.5574 34.6002 34.5574L12.0127 34.5574C6.73779 34.5574 2.40965 30.4997 2.40965 25.4953C2.40965 23.2636 3.2888 21.0995 4.84423 19.4765L3.62694 18.4621C-0.498324 22.8578 -0.0925616 29.5529 4.50609 33.4077C6.53491 35.166 9.17238 36.1128 11.9451 36.1128Z" fill="url(#paint2_linear_670_55)"/>
<path d="M42.3771 27.1184L44.0001 27.1184C44.0001 22.7903 40.6188 19.0708 36.0877 18.3945L35.8172 19.8823C39.6043 20.4233 42.3094 23.5342 42.3771 27.1184Z" fill="url(#paint3_linear_670_55)"/>
<path d="M21.5477 25.4277L23.1708 25.4277C23.1031 19.6118 18.0311 14.8779 11.877 14.9455C8.69854 14.9455 5.72294 16.2304 3.55887 18.4621L4.77616 19.4765C8.29277 15.757 14.3792 15.4189 18.3016 18.7326C20.3304 20.4909 21.5477 22.9255 21.5477 25.4277Z" fill="url(#paint4_linear_670_55)"/>
</g>
<defs>
<linearGradient id="paint0_linear_670_55" x1="5.39638" y1="-1.0923" x2="9.16846" y2="19.573" gradientUnits="userSpaceOnUse">
<stop stop-color="#50FFD2"/>
<stop offset="0.01" stop-color="#0064FF"/>
</linearGradient>
<linearGradient id="paint1_linear_670_55" x1="16.5544" y1="4.69829" x2="29.7962" y2="33.7234" gradientUnits="userSpaceOnUse">
<stop stop-color="#50FFD2"/>
<stop offset="0.01" stop-color="#0064FF"/>
</linearGradient>
<linearGradient id="paint2_linear_670_55" x1="6.78229" y1="16.6367" x2="12.0791" y2="41.6346" gradientUnits="userSpaceOnUse">
<stop stop-color="#50FFD2"/>
<stop offset="0.01" stop-color="#0064FF"/>
</linearGradient>
<linearGradient id="paint3_linear_670_55" x1="37.3296" y1="17.1924" x2="42.8673" y2="27.1129" gradientUnits="userSpaceOnUse">
<stop stop-color="#50FFD2"/>
<stop offset="0.01" stop-color="#0064FF"/>
</linearGradient>
<linearGradient id="paint4_linear_670_55" x1="7.21363" y1="13.5614" x2="11.2649" y2="28.0507" gradientUnits="userSpaceOnUse">
<stop stop-color="#50FFD2"/>
<stop offset="0.01" stop-color="#0064FF"/>
</linearGradient>
<clipPath id="clip0_670_55">
<rect width="43.2815" height="36.113" fill="white" transform="translate(44 36.1128) rotate(-180)"/>
</clipPath>
</defs>
</svg>
