<?xml version="1.0" encoding="utf-8"?>
<!-- Generator: Adobe Illustrator 21.0.0, SVG Export Plug-In . SVG Version: 6.00 Build 0)  -->
<svg version="1.1" id="Capa_1" xmlns="http://www.w3.org/2000/svg" xmlns:xlink="http://www.w3.org/1999/xlink" x="0px" y="0px"
	 viewBox="0 0 512 512" style="enable-background:new 0 0 512 512;" xml:space="preserve">
<path d="M102.5,507c-1.6,0-3.1-0.8-4.1-2.1c-0.9-1.3-1.2-3-0.7-4.5l25.1-74c0.7-2,2.6-3.4,4.7-3.4h6.5V273c0-67.3,54.7-122,122-122
	s122,54.7,122,122v150h6.5c2.1,0,4,1.4,4.7,3.4l25.1,74c0.5,1.5,0.3,3.2-0.7,4.5c-0.9,1.3-2.5,2.1-4.1,2.1H102.5z M109.4,497h293.1
	l-21.7-64H131.1L109.4,497z M256,161c-61.8,0-112,50.2-112,112v150h224V273C368,211.2,317.8,161,256,161z"/>
<path d="M256,75c-2.8,0-5-2.2-5-5V10c0-2.8,2.2-5,5-5s5,2.2,5,5v60C261,72.8,258.8,75,256,75z"/>
<path d="M256,114c-1.3,0-2.6-0.5-3.5-1.5c-0.9-0.9-1.5-2.2-1.5-3.5c0-1.3,0.5-2.6,1.5-3.6c0.9-0.9,2.2-1.4,3.5-1.4s2.6,0.5,3.5,1.5
	c0.9,0.9,1.5,2.2,1.5,3.5c0,1.3-0.5,2.6-1.5,3.5C258.6,113.4,257.3,114,256,114z"/>
<path d="M49.6,282.7c-2.8,0-5-2.2-5-5s2.2-5,5-5h45.9c2.8,0,5,2.2,5,5s-2.2,5-5,5H49.6z"/>
<path d="M10,282.7c-1.3,0-2.6-0.5-3.5-1.5C5.6,280.3,5,279,5,277.7c0-1.3,0.5-2.6,1.5-3.5c0.9-0.9,2.2-1.5,3.5-1.5
	c1.3,0,2.6,0.5,3.5,1.5c0.9,0.9,1.5,2.2,1.5,3.5s-0.5,2.6-1.5,3.5C12.6,282.1,11.3,282.7,10,282.7z"/>
<path d="M179.4,97.8c-2,0-3.8-1.2-4.6-3.1L161.3,62c-1.1-2.5,0.2-5.5,2.7-6.5c0.6-0.3,1.3-0.4,1.9-0.4c2,0,3.8,1.2,4.6,3.1
	l13.6,32.7c1.1,2.5-0.2,5.5-2.7,6.5C180.7,97.7,180.1,97.8,179.4,97.8z"/>
<path d="M71.1,206.1c-0.7,0-1.3-0.1-1.9-0.4l-32.7-13.6c-2.5-1.1-3.8-4-2.7-6.5c0.8-1.9,2.6-3.1,4.6-3.1c0.7,0,1.3,0.1,1.9,0.4
	l32.7,13.6c2.5,1.1,3.8,4,2.7,6.5C75,204.9,73.2,206.1,71.1,206.1z"/>
<path d="M420.7,282.7c-2.8,0-5-2.2-5-5s2.2-5,5-5h45.9c2.8,0,5,2.2,5,5s-2.2,5-5,5H420.7z"/>
<path d="M502,282.7c-1.3,0-2.6-0.5-3.5-1.5c-0.9-0.9-1.5-2.2-1.5-3.5c0-1.3,0.5-2.6,1.5-3.5c0.9-0.9,2.2-1.5,3.5-1.5
	c1.3,0,2.6,0.5,3.5,1.5c0.9,0.9,1.5,2.2,1.5,3.5s-0.5,2.6-1.5,3.5C504.6,282.1,503.3,282.7,502,282.7z"/>
<path d="M397.5,141.2c-1.3,0-2.6-0.5-3.5-1.5c-1.9-1.9-1.9-5.1,0-7.1l49.2-49.2c0.9-0.9,2.2-1.5,3.5-1.5s2.6,0.5,3.5,1.5
	c1.9,1.9,1.9,5.1,0,7.1L401,139.7C400.1,140.7,398.8,141.2,397.5,141.2z"/>
<path d="M114.5,141.2c-1.3,0-2.6-0.5-3.5-1.5L61.8,90.5c-1.9-1.9-1.9-5.1,0-7.1c0.9-0.9,2.2-1.5,3.5-1.5s2.6,0.5,3.5,1.5l49.2,49.2
	c1.9,1.9,1.9,5.1,0,7.1C117.1,140.7,115.9,141.2,114.5,141.2z"/>
<path d="M332.6,97.8c-0.7,0-1.3-0.1-1.9-0.4c-2.5-1.1-3.8-4-2.7-6.5l13.6-32.7c0.8-1.9,2.6-3.1,4.6-3.1c0.7,0,1.3,0.1,1.9,0.4
	c2.5,1.1,3.8,4,2.7,6.5l-13.6,32.7C336.4,96.6,334.6,97.8,332.6,97.8z"/>
<path d="M440.8,206.1c-2,0-3.8-1.2-4.6-3.1c-1.1-2.5,0.2-5.5,2.7-6.5l32.7-13.6c0.6-0.3,1.3-0.4,1.9-0.4c2,0,3.8,1.2,4.6,3.1
	c1.1,2.5-0.2,5.5-2.7,6.5l-32.7,13.6C442.1,206,441.5,206.1,440.8,206.1z"/>
<path d="M256,312c-13.8,0-25-11.2-25-25v-48c0-13.8,11.2-25,25-25c13.8,0,25,11.2,25,25v48C281,300.8,269.8,312,256,312z M256,224
	c-8.3,0-15,6.7-15,15v48c0,8.3,6.7,15,15,15c8.3,0,15-6.7,15-15v-48C271,230.7,264.3,224,256,224z"/>
<path d="M256,392c-13.8,0-25-11.2-25-25s11.2-25,25-25c13.8,0,25,11.2,25,25S269.8,392,256,392z M256,352c-8.3,0-15,6.7-15,15
	s6.7,15,15,15c8.3,0,15-6.7,15-15S264.3,352,256,352z"/>
</svg>
