<?xml version="1.0" encoding="utf-8"?>
<!-- Generator: Adobe Illustrator 21.0.0, SVG Export Plug-In . SVG Version: 6.00 Build 0)  -->
<svg version="1.1" id="Layer_5" xmlns="http://www.w3.org/2000/svg" xmlns:xlink="http://www.w3.org/1999/xlink" x="0px" y="0px"
	 viewBox="0 0 512 512" style="enable-background:new 0 0 512 512;" xml:space="preserve">
<style type="text/css">
	.st0{fill:#020202;}
</style>
<g>
	<g>
		<path class="st0" d="M469.4,421.8l0.2-0.4l0.7-1.8l1.9-0.5l19.4-5v-52.2l-19.4-5l-1.9-0.5l-0.7-1.8c-0.1-0.4-0.3-0.7-0.4-1.1
			l-0.8-1.8l1-1.7l10.2-17.2l-17.7-17.7l-1.1-1.1v-1.6V21.9H83.1v88.6v3.9h-3.9H21.4v346.9H312h1.6l1.1,1.1l17.7,17.7l17.2-10.2
			l1.7-1l1.8,0.8c0.2,0.1,0.5,0.2,0.7,0.3l0.4,0.2l1.8,0.7l0.5,1.9l5,19.4h52.2l5-19.4l0.5-1.9l1.8-0.7c0.4-0.1,0.7-0.3,1.1-0.4
			l1.8-0.8l1.7,1l17.2,10.2l36.9-36.9l-10.2-17.2l-1-1.7l0.8-1.8C469.2,422.2,469.3,422,469.4,421.8z M90.8,79.7V33.5v-3.9h3.9
			h354.6h3.9v3.9v46.3v3.9h-3.9H94.6h-3.9V79.7z M90.8,110.5V95.1v-3.9h3.9h354.6h3.9v3.9v202v9.3l-6.6-6.6l-3.8-3.8l-17.2,10.2
			l-1.7,1l-1.8-0.8c-0.2-0.1-0.5-0.2-0.7-0.3l-0.4-0.2l-1.8-0.7l-0.5-1.9l-5-19.4H403h-3.9v-3.9V114.4H94.6h-3.9V110.5z M29.1,172.2
			V126v-3.9H33h354.6h3.9v3.9v46.3v3.9h-3.9H33h-3.9V172.2z M296.6,453.6H33h-3.9v-3.9V187.6v-3.9H33h354.6h3.9v3.9v92.5v3.9h-3.9
			h-26.1l-5,19.4l-0.5,1.9l-1.8,0.7c-0.4,0.1-0.7,0.3-1.1,0.4l-1.8,0.8l-1.7-1L332.4,296l-36.9,36.9l10.2,17.2l1,1.7l-0.8,1.8
			c-0.1,0.2-0.2,0.5-0.3,0.7l-0.2,0.4l-0.7,1.8l-1.9,0.5l-19.4,5v52.2l19.4,5l1.9,0.5l0.7,1.8c0.1,0.4,0.3,0.7,0.4,1.1l0.8,1.8
			l-1,1.7l-10.2,17.2l3.8,3.8l6.6,6.6H296.6z M468.4,439.4l1.5,2.6l-2.1,2.1l-24.2,24.2l-2.1,2.1l-2.6-1.5l-14.7-8.7l-1.9,0.9
			c-2.6,1.2-5.2,2.3-7.7,3.2l-1.9,0.7l-4.2,16.6l-0.7,2.9h-3h-34.3h-3l-0.7-2.9l-4.2-16.6l-1.9-0.7c-2.5-0.9-5.1-2-7.7-3.2l-1.9-0.9
			l-14.7,8.7l-2.6,1.5l-2.1-2.1l-24.2-24.2l-2.1-2.1l1.5-2.6l8.7-14.7l-0.9-1.8c-1.2-2.5-2.3-5.1-3.2-7.7l-0.7-1.9l-16.6-4.2
			l-2.9-0.7v-3v-34.3v-3l2.9-0.7l16.6-4.2l0.7-1.9c0.9-2.6,2-5.2,3.2-7.7l0.9-1.9l-8.7-14.7l-1.5-2.6l2.1-2.1l24.2-24.2l2.1-2.1
			l2.6,1.5l14.7,8.7l1.9-0.9c2.6-1.2,5.2-2.3,7.7-3.2l1.9-0.7l4.2-16.6l0.7-2.9h3h34.3h3l0.7,2.9l4.2,16.6l1.9,0.7
			c2.5,0.9,5.1,2,7.7,3.2l1.9,0.9l14.7-8.7l2.6-1.5l2.1,2.1l24.2,24.2l2.1,2.1l-1.5,2.6l-8.7,14.7l0.9,1.8c1.2,2.5,2.3,5.1,3.2,7.7
			l0.7,1.9l16.6,4.2l2.9,0.7v3v34.3v3l-2.9,0.7l-16.6,4.2l-0.7,1.9c-1,2.7-2,5.3-3.2,7.7l-0.9,1.9L468.4,439.4z M387.5,330.2
			c-31.9,0-57.8,25.9-57.8,57.8c0,31.9,25.9,57.8,57.8,57.8c31.9,0,57.8-25.9,57.8-57.8C445.4,356.2,419.4,330.2,387.5,330.2z
			 M387.5,438.1c-27.6,0-50.1-22.5-50.1-50.1c0-27.6,22.5-50.1,50.1-50.1c27.6,0,50.1,22.5,50.1,50.1
			C437.6,415.7,415.2,438.1,387.5,438.1z M387.5,361.1c-14.9,0-27,12.1-27,27c0,14.9,12.1,27,27,27c14.9,0,27-12.1,27-27
			C414.5,373.2,402.4,361.1,387.5,361.1z M387.5,407.3c-10.6,0-19.3-8.6-19.3-19.3c0-10.6,8.6-19.3,19.3-19.3
			c10.6,0,19.3,8.6,19.3,19.3C406.8,398.7,398.2,407.3,387.5,407.3z M59.9,145.2h-7.7v7.7h7.7V145.2z M90.8,145.2h-7.7v7.7h7.7
			V145.2z M121.6,145.2h-7.7v7.7h7.7V145.2z M121.6,52.7h-7.7v7.7h7.7V52.7z M152.4,52.7h-7.7v7.7h7.7V52.7z M183.3,52.7h-7.7v7.7
			h7.7V52.7z M52.2,337.9h177.3v-131H52.2V337.9z M59.9,326.4V218.5v-3.9h3.9H218h3.9v3.9v107.9v3.9H218H63.8h-3.9V326.4z
			 M52.2,368.8h177.3v-7.7H52.2V368.8z M59.9,391.9h-7.7v7.7h7.7V391.9z M83.1,399.6h146.5v-7.7H83.1V399.6z M221.8,430.4h7.7v-7.7
			h-7.7V430.4z M52.2,430.4h146.5v-7.7H52.2V430.4z"/>
	</g>
</g>
</svg>
