<?xml version="1.0" encoding="utf-8"?>
<!-- Generator: Adobe Illustrator 21.0.0, SVG Export Plug-In . SVG Version: 6.00 Build 0)  -->
<svg version="1.1" id="Layer_1" xmlns="http://www.w3.org/2000/svg" xmlns:xlink="http://www.w3.org/1999/xlink" x="0px" y="0px"
	 viewBox="0 0 512 512" style="enable-background:new 0 0 512 512;" xml:space="preserve">
<path d="M4,291.6V4h287.6v287.6H4z M11,284.5h273.5V11H11V284.5z"/>
<polygon points="220.4,508 220.4,317.1 227.5,317.1 227.5,501 501,501 501,227.5 317.1,227.5 317.1,220.4 508,220.4 508,508 "/>
<path d="M184.1,239.8c-12.1-3.8-23.6-9.3-34.1-16.1l-2.2-1.4l-2.2,1.4c-10.6,6.9-22,12.3-34.1,16.1L85.9,248l-11.2-35.3l25.6-8.1
	c5-1.6,9.8-3.5,14.4-5.8l4.4-2.2l-3.1-3.9c-1-1.2-1.9-2.5-2.8-3.7c-7.2-9.8-13-20.5-17.4-31.6l-1.3-3.3l34.5-13.6l1.3,3.3
	c3.6,9.1,8.4,17.6,14.3,25.3l3.2,4.1l3.2-4.1c10.3-13.4,17.1-29.2,19.9-45.9l0.8-4.7H64.1V81.4h64.1V48.5h41.1v32.9h62.1v37.1h-22.6
	l-0.4,3.5c-2.7,24.1-11.8,47.2-26.2,66.8c-0.9,1.2-1.8,2.5-2.8,3.7l-3.1,3.9l4.4,2.2c4.6,2.3,9.5,4.2,14.4,5.8l25.6,8.1L209.7,248
	L184.1,239.8z M149.8,215.1c11.1,7.8,23.4,13.9,36.4,18l18.9,6l7-22l-18.9-6c-8.4-2.7-16.5-6.3-24-10.9l-3.6-2.2l2.8-3.2
	c3-3.4,5.8-6.8,8.3-10.2c15-20.5,23.8-44.7,25.4-70l0.2-3.3h22.1v-23h-62.1V55.5h-27v32.9H71.1v23h108.1l-0.3,3.8
	c-2,24.3-12.2,47.5-28.6,65.4l-2.6,2.8l-2.6-2.8c-7.6-8.3-13.8-17.6-18.6-27.7l-1.6-3.4l-21.4,8.4l1.8,3.9c3.7,8,8.2,15.7,13.5,22.9
	c2.5,3.4,5.2,6.8,8.3,10.2l2.8,3.2l-3.6,2.2c-7.5,4.5-15.6,8.2-24,10.9l-18.9,6l7,21.9l18.9-6c13-4.1,25.3-10.2,36.4-18l2-1.4
	L149.8,215.1z"/>
<path d="M383.7,460.9v-31.1h-39.1v31.1h-41.1V350.2c0-33.4,27.2-60.6,60.6-60.6s60.6,27.2,60.6,60.6v110.7H383.7z M390.8,453.9h27
	V350.2c0-29.6-24-53.6-53.6-53.6s-53.6,24-53.6,53.6v103.7h27v-31.1h53.1V453.9z"/>
<path d="M337.7,393.8v-43.6c0-14.6,11.9-26.6,26.6-26.6s26.6,11.9,26.6,26.6v43.6H337.7z M364.2,330.7c-10.8,0-19.5,8.8-19.5,19.5
	v36.6h39.1v-36.6C383.7,339.4,375,330.7,364.2,330.7z"/>
<path d="M396.6,149.1l5-5l31.2,31.2V86.7c0-20.2-16.4-36.6-36.6-36.6h-36.1v-7h36.1c24,0,43.6,19.6,43.6,43.6v88.7l31.2-31.2l5,5
	l-39.7,39.7L396.6,149.1z"/>
<rect x="330.1" y="43.1" width="7" height="7"/>
<path d="M115.7,468.9c-24,0-43.6-19.6-43.6-43.6v-88.7l-31.2,31.3l-5-5l39.7-39.7l39.7,39.7l-5,5l-31.2-31.3v88.7
	c0,20.2,16.4,36.6,36.6,36.6h36.1v7H115.7z"/>
<rect x="174.8" y="461.9" width="7" height="7"/>
<rect x="227.9" y="35.1" width="32.1" height="7"/>
<rect x="197.9" y="35.1" width="7" height="7"/>
<polygon points="470.9,290.1 470.9,257.5 438.3,257.5 438.3,250.5 477.9,250.5 477.9,290.1 "/>
</svg>
