<?xml version="1.0" encoding="utf-8"?>
<!-- Generator: Adobe Illustrator 21.0.0, SVG Export Plug-In . SVG Version: 6.00 Build 0)  -->
<svg version="1.1" id="Layer_5" xmlns="http://www.w3.org/2000/svg" xmlns:xlink="http://www.w3.org/1999/xlink" x="0px" y="0px"
	 viewBox="0 0 512 512" style="enable-background:new 0 0 512 512;" xml:space="preserve">
<g>
	<g>
		<path d="M168,500c-19.9,0-36-16.1-36-36V340H84.9l-5.4-21.5l-19,11.4l-38.4-38.4l11.4-19.1L12,267.1v-54.3l21.5-5.4l-11.4-19.1
			L60.5,150l19,11.4l5.4-21.5H132V48c0-19.9,16.1-36,36-36h208c19.9,0,36,16.1,36,36v110l3.2,0.6c23.6,5.2,45.1,18.4,60.5,37.3
			c15.6,19.2,24.2,43.3,24.2,68s-8.6,48.9-24.3,68c-15.5,19-37,32.2-60.6,37.3l-3.2,0.6V464c0,19.9-16.1,36-36,36H168z M140,464
			c0,15.4,12.6,28,28,28h208c15.4,0,28-12.6,28-28v-28H140V464z M140,428h264v-56.7l-5.1,0.3c-2.4,0.2-4.6,0.3-6.9,0.3
			c-1.4,0-2.9-0.1-4.4-0.2c-0.8,0-1.7-0.1-2.5-0.1l-5.1-0.3V404H164V108h216v48.7l5.1-0.3c2.4-0.2,4.6-0.3,6.9-0.3
			c1.4,0,2.9,0.1,4.4,0.2c0.8,0,1.7,0.1,2.5,0.1l5.1,0.3V84H140V428z M172,396h200v-26l-3.2-0.6c-23.6-5.2-45.1-18.4-60.5-37.3
			C292.6,312.9,284,288.7,284,264c0-4.8,0.4-9.7,1.3-15.4l0.6-4.6H196V140h152v25.3l5.4-2c5-2,9.9-3.4,15.5-4.7l3.1-0.6v-42H172V396
			z M337.2,293.9C324.7,297,316,308.1,316,321v7.8l1,1.2c19.2,21.6,46.5,34,75,34c28.6,0,55.9-12.4,75-34.1l1-1.2V321
			c0-12.9-8.7-24-21.2-27.1L404,283.1v-17.9l2-1.1c8.8-5,14-14.1,14-24.1v-16c0-7.8-3.3-15.4-9-20.7c-5.2-4.8-11.8-7.3-19-7.3
			c-0.7,0-1.6,0-2.5,0.1c-14.2,1.3-25.5,14.3-25.5,29.6V240c0,9.9,5.2,18.9,14,24.1l2,1.1v17.9L337.2,293.9z M91.1,332H132v-43.8
			l-5.2,1.6c-5,1.5-10,2.3-14.8,2.3c-28.7,0-52-23.3-52-52s23.3-52,52-52c4.8,0,9.8,0.8,14.8,2.3l5.2,1.6v-44H91.1L86,168.6l-6,2.4
			l-18.3-10.9l-29.5,29.5l11,18.2l-2.5,6L20,219v41.7l20.6,5.1l2.4,6l-10.9,18.4l29.5,29.5l18.2-11l5.7,2.3l0.9,2.5L91.1,332z
			 M391.9,188c9.1,0,17.8,3.4,24.3,9.5c7.4,6.8,11.7,16.5,11.7,26.5v16c0,11.2-5.4,21.9-14.4,28.6l-1.6,1.2v7.1l36.7,9.2
			c11.6,2.9,20.9,11.4,25.1,22.7l3.2,8.6l4.2-8.1c7.2-14.2,10.9-29.4,10.9-45.1c0-55.1-44.9-100-100-100s-100,44.9-100,100
			c0,15.7,3.7,30.9,10.9,45.1l4.2,8.1l3.2-8.6c4.1-11.3,13.5-19.7,25.1-22.7l36.7-9.2v-7.1l-1.6-1.2c-9-6.8-14.4-17.5-14.4-28.6
			v-14.3c0-19.4,14.4-35.9,32.8-37.5C389.9,188.1,390.9,188,391.9,188z M112,196c-24.3,0-44,19.7-44,44c0,24.3,19.7,44,44,44
			c6.1,0,12-1.3,17.6-3.8l2.4-1v-78.5l-2.4-1C124,197.3,118.1,196,112,196z M204,236h83.7l0.8-2.9c7.8-26.4,25.4-48.6,49.5-62.5
			l2-1.2V148H204V236z M168,20c-15.4,0-28,12.6-28,28v28h264V48c0-15.4-12.6-28-28-28H168z"/>
	</g>
</g>
<g>
	<g>
		<rect x="308" y="44" width="8" height="8"/>
	</g>
</g>
<g>
	<g>
		<rect x="228" y="44" width="56" height="8"/>
	</g>
</g>
<g>
	<g>
		<rect x="244" y="460" width="56" height="8"/>
	</g>
</g>
<g>
	<g>
		<rect x="356" y="460" width="8" height="8"/>
	</g>
</g>
<g>
	<g>
		<rect x="180" y="460" width="8" height="8"/>
	</g>
</g>
<g>
	<g>
		<rect x="196" y="268" width="64" height="8"/>
	</g>
</g>
<g>
	<g>
		<rect x="196" y="300" width="64" height="8"/>
	</g>
</g>
<g>
	<g>
		<rect x="196" y="332" width="64" height="8"/>
	</g>
</g>
<g>
	<g>
		<rect x="196" y="364" width="64" height="8"/>
	</g>
</g>
<g>
	<g>
		<path d="M456,148c-11,0-20-9-20-20c0-8.4,5.4-15.9,13.4-18.7l2.6-1V44h8v64.3l2.6,1c8,2.8,13.4,10.4,13.4,18.7
			C476,139,467,148,456,148z M456,116c-6.6,0-12,5.4-12,12s5.4,12,12,12s12-5.4,12-12S462.6,116,456,116z"/>
	</g>
</g>
<g>
	<g>
		<rect x="452" y="12" width="8" height="8"/>
	</g>
</g>
<g>
	<g>
		<path d="M84,468v-64.3l-2.6-1c-8-2.8-13.4-10.4-13.4-18.7c0-11,9-20,20-20s20,9,20,20c0,8.4-5.4,15.9-13.4,18.7l-2.6,1V468H84z
			 M88,372c-6.6,0-12,5.4-12,12s5.4,12,12,12s12-5.4,12-12S94.6,372,88,372z"/>
	</g>
</g>
<g>
	<g>
		<rect x="84" y="492" width="8" height="8"/>
	</g>
</g>
</svg>
