<?xml version="1.0" encoding="utf-8"?>
<!-- Generator: Adobe Illustrator 21.0.0, SVG Export Plug-In . SVG Version: 6.00 Build 0)  -->
<svg version="1.1" id="Layer_1" xmlns="http://www.w3.org/2000/svg" xmlns:xlink="http://www.w3.org/1999/xlink" x="0px" y="0px"
	 viewBox="0 0 512 512" style="enable-background:new 0 0 512 512;" xml:space="preserve">
<path d="M196.3,406.1c-2.8,0-5-2.3-5-5c0-2.8,2.3-5,5-5h136.5c2.8,0,5,2.3,5,5c0,2.8-2.3,5-5,5H196.3z"/>
<path d="M196.3,440.2c-2.8,0-5-2.3-5-5c0-2.8,2.3-5,5-5h221.9c2.8,0,5,2.3,5,5c0,2.8-2.3,5-5,5H196.3z"/>
<path d="M196.3,474.4c-2.8,0-5-2.3-5-5c0-2.8,2.3-5,5-5h76.8c2.8,0,5,2.3,5,5c0,2.8-2.3,5-5,5H196.3z"/>
<path d="M503.5,285.4c-2.8,0-5-2.3-5-5v-17.1c0-2.8,2.3-5,5-5c2.8,0,5,2.3,5,5v17.1C508.5,283.2,506.2,285.4,503.5,285.4z"/>
<path d="M426.7,235.4c-2.8,0-5-2.3-5-5c0-2.8,2.3-5,5-5h17.1c2.8,0,5,2.3,5,5c0,2.8-2.3,5-5,5H426.7z"/>
<path d="M494.5,237.5c-0.8,0-1.6-0.2-2.3-0.6c-1.7-0.9-3.7-1.4-5.7-1.4h-8.6c-2.8,0-5-2.3-5-5c0-2.8,2.3-5,5-5h8.5
	c3.7,0,7.4,0.9,10.6,2.7c2.3,1.3,3.2,4.4,1.9,6.8C498,236.4,496.3,237.5,494.5,237.5z"/>
<path d="M496.6,436.8c-1.6,0-3.1-0.7-4-2c-0.8-1.1-1.1-2.4-1-3.7c0.2-1.3,0.9-2.5,2-3.3c3-2.2,4.8-5.9,4.8-9.7v-1.2c0-2.8,2.3-5,5-5
	c2.8,0,5,2.3,5,5v1.2c0,6.9-3.3,13.5-8.9,17.7C498.8,436.5,497.7,436.8,496.6,436.8L496.6,436.8z"/>
<path d="M503.5,336.6c-2.8,0-5-2.3-5-5v-17.1c0-2.8,2.3-5,5-5c2.8,0,5,2.3,5,5v17.1C508.5,334.4,506.2,336.6,503.5,336.6z"/>
<path d="M503.5,387.8c-2.8,0-5-2.3-5-5v-17.1c0-2.8,2.3-5,5-5c2.8,0,5,2.3,5,5v17.1C508.5,385.6,506.2,387.8,503.5,387.8z"/>
<path d="M443.7,201.3c-2.8,0-5-2.3-5-5v-20.8l-2.8-0.6c-19.8-4-33.2-22.2-31.1-42.3c2-20.1,18.8-35.2,39-35.2
	c20.2,0,36.9,15.1,39,35.2c2,20.1-11.4,38.3-31.1,42.3l-2.8,0.6v20.8C448.8,199,446.5,201.3,443.7,201.3z M443.7,107.4
	c-16,0-29.1,13.1-29.1,29.1c0,16,13.1,29.1,29.1,29.1c16,0,29.1-13.1,29.1-29.1C472.8,120.5,459.8,107.4,443.7,107.4z"/>
<circle cx="42.7" cy="42.7" r="5"/>
<circle cx="76.8" cy="42.7" r="5"/>
<circle cx="110.9" cy="42.7" r="5"/>
<path d="M170.7,508.5c-7.5,0-13.6-6.1-13.6-13.6v-54.7H25.6c-12.2,0-22.1-9.9-22.1-22.1V25.6c0-12.2,9.9-22.1,22.1-22.1h264.5
	c12.2,0,22.1,9.9,22.1,22.1v126.1l65.5,73.7h14.8c2.8,0,5,2.3,5,5c0,2.8-2.3,5-5,5h-14.8l-65.5,73.7v52.8h131.5
	c7.5,0,13.6,6.1,13.6,13.6v54.7h5.9c2.8,0,5,2.3,5,5c0,2.8-2.3,5-5,5h-5.9v54.7c0,7.5-6.1,13.6-13.6,13.6h0H170.7z M167.2,498.4
	h280.1l0-126.5H167.2V498.4z M13.6,418.1c0,6.6,5.4,12,12,12h131.5v-54.7c0-7.5,6.1-13.6,13.6-13.6h131.5v-52.8l-66.9-75.2
	l-24.1-24.1H42.7c-2.8,0-5-2.3-5-5v-85.3c0-7.5,6.1-13.6,13.6-13.6h17.1c7.5,0,13.6,6.1,13.6,13.6v80.3h24.1v-29.1
	c0-7.5,6.1-13.6,13.6-13.6h17.1c7.5,0,13.6,6.1,13.6,13.6v29.1h24.1v-63.2c0-7.5,6.1-13.6,13.6-13.6h17.1c7.5,0,13.6,6.1,13.6,13.6
	v66.2l20.4,20.4l63.4-71.4V81.8H13.6V418.1z M245.7,230.4l61.5,69.2l61.5-69.2l-61.5-69.2L245.7,230.4z M184.2,199.8h24.1V133h-24.1
	V199.8z M116,199.8H140v-32.6H116V199.8z M47.7,199.8h24.1V116H47.7V199.8z M25.6,13.6c-6.6,0-12,5.4-12,12v46.2h288.6V25.6
	c0-6.6-5.4-12-12-12H25.6z"/>
<path d="M42.7,406.1c-2.8,0-5-2.3-5-5c0-2.8,2.3-5,5-5H128c2.8,0,5,2.3,5,5c0,2.8-2.3,5-5,5H42.7z"/>
<path d="M42.7,372c-2.8,0-5-2.3-5-5c0-2.8,2.3-5,5-5h42.7c2.8,0,5,2.3,5,5c0,2.8-2.3,5-5,5H42.7z"/>
<path d="M42.7,337.8c-2.8,0-5-2.3-5-5c0-2.8,2.3-5,5-5h128c2.8,0,5,2.3,5,5c0,2.8-2.3,5-5,5H42.7z"/>
<path d="M42.7,303.7c-2.8,0-5-2.3-5-5c0-2.8,2.3-5,5-5h162.1c2.8,0,5,2.3,5,5c0,2.8-2.3,5-5,5H42.7z"/>
<path d="M42.7,269.6c-2.8,0-5-2.3-5-5c0-2.8,2.3-5,5-5h179.2c2.8,0,5,2.3,5,5c0,2.8-2.3,5-5,5H42.7z"/>
</svg>
