<?xml version="1.0" encoding="utf-8"?>
<!-- Generator: Adobe Illustrator 21.0.0, SVG Export Plug-In . SVG Version: 6.00 Build 0)  -->
<svg version="1.1" id="Layer_1_1_" xmlns="http://www.w3.org/2000/svg" xmlns:xlink="http://www.w3.org/1999/xlink" x="0px" y="0px"
	 viewBox="0 0 512 512" style="enable-background:new 0 0 512 512;" xml:space="preserve">
<path d="M56,500c-19.9,0-36-16.1-36-36s16.1-36,36-36c8.6,0,16.7,3.1,23.5,8.9l2.5,2.1l79.2-60.5l-1.4-2.9c-1.5-3.1-2.5-5.8-3-8.4
	l-0.7-3.2H91.9l-0.7,3.2C87.9,383.9,73,396,56,396c-19.9,0-36-16.1-36-36s16.1-36,36-36c8.6,0,16.7,3.1,23.5,9l2.5,2.1l35.5-27.1
	l-35.5-27.1l-2.5,2.1c-6.7,5.9-14.9,9-23.5,9c-19.9,0-36-16.1-36-36c0-19.9,16.1-36,36-36c8.6,0,16.7,3.1,23.5,9l2.5,2.1l35.5-27.1
	l-35.5-27.1l-2.5,2.1c-6.7,5.9-14.9,9-23.5,9c-19.9,0-36-16.1-36-36s16.1-36,36-36c17,0,31.9,12.1,35.3,28.8l0.7,3.2h64.1l0.7-3.2
	c0.5-2.7,1.5-5.3,3-8.4l1.4-2.9L81.9,72.9L79.5,75c-6.7,5.9-14.9,9-23.5,9c-19.9,0-36-16.1-36-36s16.1-36,36-36s36,16.1,36,36
	c0,5.3-1.3,10.5-3.7,15.6l-1.4,2.9l79.2,60.5l2.5-2.1c6.7-5.9,14.9-9,23.5-9c17,0,31.9,12.1,35.3,28.8l0.7,3.2H276v-28
	c0-11,9-20,20-20s20,9,20,20v12h18.3l94.8-94.8c0.7-0.7,1.8-1.2,2.8-1.2h20.3l0.9-2.7c2.8-8,10.4-13.3,18.8-13.3c11,0,20,9,20,20
	c0,11-9,20-20,20c-8.4,0-15.9-5.4-18.8-13.3l-0.9-2.7h-18.6l-94.8,94.8c-0.7,0.7-1.8,1.2-2.8,1.2h-20v32h42.3l62.8-62.8
	c0.7-0.7,1.8-1.2,2.8-1.2h28.3l0.9-2.7c2.8-8,10.4-13.3,18.8-13.3c11,0,20,9,20,20c0,11-9,20-20,20c-8.4,0-15.9-5.4-18.8-13.3
	l-0.9-2.7h-26.6l-62.8,62.8c-0.7,0.7-1.8,1.2-2.8,1.2h-44v32h74.3l30.8-30.8c0.7-0.7,1.8-1.2,2.8-1.2h28.3l0.9-2.7
	c2.8-8,10.4-13.3,18.8-13.3c11,0,20,9,20,20c0,11-9,20-20,20c-8.4,0-15.9-5.4-18.8-13.3l-0.9-2.7h-26.6l-30.8,30.8
	c-0.7,0.7-1.8,1.2-2.8,1.2h-76v32h136.3l0.9-2.7c2.8-8,10.4-13.3,18.8-13.3c11,0,20,9,20,20c0,11-9,20-20,20
	c-8.4,0-15.9-5.4-18.8-13.3l-0.9-2.7H316v32h76c1.1,0,2.1,0.4,2.8,1.2l30.8,30.8h26.6l0.9-2.7c2.8-8,10.4-13.3,18.8-13.3
	c11,0,20,9,20,20s-9,20-20,20c-8.4,0-15.9-5.4-18.8-13.3l-0.9-2.7H424c-1.1,0-2.1-0.4-2.8-1.2L390.3,300H316v32h44
	c1.1,0,2.1,0.4,2.8,1.2l62.8,62.8h26.6l0.9-2.7c2.8-8,10.4-13.3,18.8-13.3c11,0,20,9,20,20s-9,20-20,20c-8.4,0-15.9-5.4-18.8-13.3
	l-0.9-2.7H424c-1.1,0-2.1-0.4-2.8-1.2L358.3,340H316v32h20c1.1,0,2.1,0.4,2.8,1.2l94.8,94.8h18.6l0.9-2.7c2.8-8,10.4-13.3,18.8-13.3
	c11,0,20,9,20,20s-9,20-20,20c-8.4,0-15.9-5.4-18.8-13.3l-0.9-2.7H432c-1.1,0-2.1-0.4-2.8-1.2L334.3,380H316v4c0,11-9,20-20,20
	s-20-9-20-20v-20h-48.1l-0.7,3.2C223.9,383.9,209,396,192,396c-8.6,0-16.7-3.1-23.5-8.9l-2.5-2.1l-79.2,60.5l1.4,2.9
	c2.5,5.1,3.7,10.3,3.7,15.6C92,483.9,75.9,500,56,500z M56,436c-15.4,0-28,12.6-28,28s12.6,28,28,28s28-12.6,28-28S71.4,436,56,436z
	 M472,460c-6.6,0-12,5.4-12,12s5.4,12,12,12s12-5.4,12-12S478.6,460,472,460z M472,388c-6.6,0-12,5.4-12,12s5.4,12,12,12
	s12-5.4,12-12S478.6,388,472,388z M296,108c-6.6,0-12,5.4-12,12v264c0,6.6,5.4,12,12,12s12-5.4,12-12V120
	C308,113.4,302.6,108,296,108z M192,332c-15.4,0-28,12.6-28,28s12.6,28,28,28s28-12.6,28-28S207.4,332,192,332z M56,332
	c-15.4,0-28,12.6-28,28s12.6,28,28,28s28-12.6,28-28S71.4,332,56,332z M192,324c17,0,31.9,12.1,35.3,28.8l0.7,3.2H276v-96h-48.1
	l-0.7,3.2C223.9,279.9,209,292,192,292c-8.6,0-16.7-3.1-23.5-9l-2.5-2.1L130.6,308l35.5,27.1l2.5-2.1C175.3,327.1,183.4,324,192,324
	z M86.8,341.4l1.4,2.9c1.5,3.1,2.5,5.8,3,8.4l0.7,3.2h64.1l0.7-3.2c0.5-2.7,1.5-5.3,3-8.4l1.4-2.9L124,313L86.8,341.4z M472,316
	c-6.6,0-12,5.4-12,12s5.4,12,12,12s12-5.4,12-12S478.6,316,472,316z M91.3,263.2c-0.5,2.7-1.5,5.3-3,8.4l-1.4,2.9L124,303l37.2-28.4
	l-1.4-2.9c-1.5-3.1-2.5-5.8-3-8.4l-0.7-3.2H91.9L91.3,263.2z M192,228c-15.4,0-28,12.6-28,28c0,15.4,12.6,28,28,28s28-12.6,28-28
	C220,240.6,207.4,228,192,228z M56,228c-15.4,0-28,12.6-28,28c0,15.4,12.6,28,28,28s28-12.6,28-28C84,240.6,71.4,228,56,228z
	 M472,244c-6.6,0-12,5.4-12,12c0,6.6,5.4,12,12,12s12-5.4,12-12C484,249.4,478.6,244,472,244z M192,220c17,0,31.9,12.1,35.3,28.8
	l0.7,3.2H276v-96h-48.1l-0.7,3.2C223.9,175.9,209,188,192,188c-8.6,0-16.7-3.1-23.5-9l-2.5-2.1L130.6,204l35.5,27.1l2.5-2.1
	C175.3,223.1,183.4,220,192,220z M86.8,237.4l1.4,2.9c1.5,3.1,2.5,5.8,3,8.4l0.7,3.2h64.1l0.7-3.2c0.5-2.7,1.5-5.3,3-8.4l1.4-2.9
	L124,209L86.8,237.4z M91.3,159.2c-0.5,2.7-1.5,5.3-3,8.4l-1.4,2.9L124,199l37.2-28.4l-1.4-2.9c-1.5-3.1-2.5-5.8-3-8.4l-0.7-3.2
	H91.9L91.3,159.2z M472,172c-6.6,0-12,5.4-12,12s5.4,12,12,12s12-5.4,12-12S478.6,172,472,172z M192,124c-15.4,0-28,12.6-28,28
	s12.6,28,28,28s28-12.6,28-28S207.4,124,192,124z M56,124c-15.4,0-28,12.6-28,28s12.6,28,28,28s28-12.6,28-28S71.4,124,56,124z
	 M472,100c-6.6,0-12,5.4-12,12s5.4,12,12,12s12-5.4,12-12S478.6,100,472,100z M56,20c-15.4,0-28,12.6-28,28s12.6,28,28,28
	s28-12.6,28-28S71.4,20,56,20z M472,28c-6.6,0-12,5.4-12,12s5.4,12,12,12s12-5.4,12-12S478.6,28,472,28z"/>
<rect x="244" y="188" width="8" height="8"/>
<rect x="244" y="220" width="8" height="8"/>
<rect x="244" y="284" width="8" height="8"/>
<rect x="244" y="316" width="8" height="8"/>
</svg>
