<?xml version="1.0" encoding="utf-8"?>
<!-- Generator: Adobe Illustrator 21.0.0, SVG Export Plug-In . SVG Version: 6.00 Build 0)  -->
<svg version="1.1" id="Layer_1" xmlns="http://www.w3.org/2000/svg" xmlns:xlink="http://www.w3.org/1999/xlink" x="0px" y="0px"
	 viewBox="0 0 512 512" style="enable-background:new 0 0 512 512;" xml:space="preserve">
<path d="M86.1,439.7c-12.2,0-22.2-9.9-22.3-22.1v-8.4c0-0.5,0-1,0-1.6c0-0.4,0-0.7,0-1.1v-0.2l0-0.2c-0.5-4.4,0.3-8.7,2.3-12.6
	c4.6-6.1,10.8-10.6,18-13.2l0.2-0.1l0.7-0.3c1.5-0.7,2.9-1.4,4.3-2.1c8.8-4.7,18.8-10.1,28.4-15.6l0.1-0.1
	c10.4-6.3,21.7-10.8,33.6-13.3l0.1,0l0.1,0c13.8-3.8,26.7-9.9,38.4-18l1.7-1.2v-17l-1.3-1.2c-0.4-0.3-0.7-0.7-1.1-1
	c-0.9-0.9-1.8-1.8-2.9-2.7c-2.2-1.9-4.4-3.9-6.4-6c-1.2-1.2-1.7-2.9-1.2-4.5c0.5-1.6,1.7-2.8,3.3-3.2c0.3-0.1,0.7-0.1,1-0.1
	c1.3,0,2.5,0.5,3.3,1.5c1.9,2,3.8,3.8,5.8,5.5c8.5,7.5,16.1,16.1,22.5,25.5l0.1,0.1c9.2,12.7,14.2,18.8,27.7,18.8h26.6
	c13.6,0,18.6-6.1,27.7-18.8l0.1-0.1c6.4-9.4,14-18,22.5-25.5c1.9-1.6,3.9-3.5,5.7-5.4c0.9-1,2.1-1.5,3.4-1.5c0.3,0,0.7,0,1,0.1
	c1.6,0.4,2.9,1.6,3.3,3.2c0.4,1.6,0,3.3-1.1,4.4c-2.1,2.2-4.2,4.2-6.5,6.1c-1.1,1-2.1,1.9-3.1,2.8l-0.9,0.9l-1.2,1.2v17l1.7,1.2
	c11.8,8.1,24.7,14.2,38.5,18l0.1,0l0.1,0c11.9,2.5,23.2,7,33.6,13.3l0.1,0.1c8,4.6,16.2,9,24.2,13.3l4.2,2.3
	c1.3,0.7,2.8,1.4,4.8,2.4l0.2,0.1l0.2,0.1c7.2,2.6,13.4,7.1,18,13.2c2,3.9,2.7,8.3,2.3,12.6l0,0.2c-0.1,1-0.1,2-0.1,2.9v8.4
	c-0.1,12.1-10.1,22-22.3,22C425.9,439.7,86.1,439.7,86.1,439.7z M349.6,360.9c1.1,18.6-0.7,44.7-15.6,63.3l-5.2,6.5l97,0
	c7.2,0,13-5.6,13.2-12.8l0-8.4c0-1,0-2.1,0.1-3.1c0.3-2.5,0.1-5.1-0.7-7.5l-0.3-0.9l-0.7-0.7c-3.9-3.9-8.7-7-13.8-8.9
	c-0.5-0.3-1.1-0.5-1.6-0.8c-1.3-0.6-2.5-1.2-3.5-1.7c-8.8-4.7-18.8-10.1-28.5-15.7c-9.5-5.8-19.9-10-30.8-12.3l-0.2,0
	c-1.4-0.2-3-0.7-4.3-1l-5.4-1.5L349.6,360.9z M185.8,344.2c-3.8,2.2-7.6,4.2-11.4,6l-2,1l-0.3,2.2c-2.1,17.6-3.7,60.3,26.8,76.9
	l0.9,0.5h112.3l0.9-0.5c30.5-16.5,28.9-59.2,26.8-76.9l-0.3-2.2l-2-1c-3.7-1.8-7.6-3.8-11.4-6l-6-3.5v17.7c0,2.5-2,4.5-4.5,4.5
	c-2.5,0-4.5-2-4.5-4.5v-36l-7.2,10c-8.6,11.8-15.9,22-34.6,22h-26.6c-18.8,0-26.5-10.7-34.6-22l-7.2-10v36c0,2.5-2,4.5-4.5,4.5
	c-2.5,0-4.5-2-4.5-4.5v-17.7L185.8,344.2z M72.9,406.4c0.1,1,0.1,2,0.1,3v8.2c0.2,7.3,6,13,13.2,13l97,0l-5.2-6.5
	c-14.9-18.6-16.7-44.7-15.6-63.3l0.3-5.6l-5.4,1.5c-1.7,0.5-3.1,0.8-4.4,1l-0.1,0c-10.9,2.4-21.3,6.5-30.8,12.3
	c-8.2,4.7-17,9.5-28.6,15.7c-1.5,0.8-3.4,1.7-5.1,2.5c-5.2,1.9-10,5-13.8,8.9l-0.7,0.7l-0.3,0.9C72.8,401.3,72.5,403.9,72.9,406.4z"
	/>
<path d="M34.1,269.1c-2.5,0-4.5-2-4.5-4.5c0-2.5,2-4.5,4.5-4.5h130.1l0.1-3.9c0.1-1.6,0.1-3.3,0.2-5l0.1-2.7l-2.5-1.1
	c-14-6.2-24.5-18.2-28.9-32.9c-1.4-8.4-4.5-34.7,8.2-38.8c1.9-0.6,3.8-0.9,5.8-0.9c1.7,0,3.5,0.2,5.2,0.7l5.1,1.5v-5.3
	c0-5.2,0.1-10.2,0.3-15.3l0-0.1c0-1.9,0.1-4.2,0.2-6.1l0.3-5.1c2.8-54.6,60.6-71.4,90.8-72.6h13.5c30.3,1.2,88.3,17.9,91.2,72.6
	l0.2,4.7c0.1,2.3,0.2,4.6,0.2,6.7l0,0.1c0.2,4.5,0.2,9.3,0.2,15.2v5.3l5.1-1.4c1.7-0.5,3.4-0.7,5.2-0.7c2,0,4,0.3,5.9,0.9
	c12.6,4.2,9.4,30.2,8.1,38.4c-4.3,14.9-14.8,27-28.9,33.2l-2.5,1.1l0.1,2.7c0.1,1.7,0.2,3.3,0.2,5l0.1,3.9h130.1
	c2.5,0,4.5,2,4.5,4.5c0,2.5-2,4.5-4.5,4.5H34.1z M173.8,245l0,0.2c0,0.1,0,0.3,0,0.4l-0.2,5.7c0,0.9-0.1,1.8-0.1,2.8l-0.3,5.9h165.4
	l-0.3-5.9c0-1-0.1-1.9-0.1-2.9l-0.2-5.6c0-0.1,0-0.3,0-0.4l0-0.2l-0.2-5.7c0.1-7.3,1-14.6,2.7-21.6c2.3-10.5,3.7-21.2,4.2-31.9
	c0.5-9.1,0.5-18.7,0.2-29.3c0-2-0.1-3.9-0.1-5.7l0-0.8l-0.3-4.7c-3.1-60.2-81.5-64-82.3-64h-13.1l-0.1,0c-3.2,0.1-78.8,4.2-81.8,64
	l-0.3,4.7l0,0.5c-0.1,2-0.1,3.8-0.1,5.6c-0.4,11-0.3,20.4,0.2,29.6c0.5,10.7,2,21.4,4.2,31.8c1.7,7.2,2.6,14.4,2.7,21.7L173.8,245z
	 M142.2,212.8l0.2,0.7c2.9,8.4,8.4,15.6,15.7,20.7l7.4,5.1l-1.1-8.9c-0.5-3.6-1.1-7.1-1.9-11c-2.1-9.6-3.4-19.4-4.1-29.2l-0.1-1.8
	l-1.4-1.1c-2.9-2.3-6.5-3.5-10.2-3.5l-3.4,0.1l-0.7,3.1c-1.9,8.5-2,17.1-0.3,25.6V212.8z M365.4,183.8c-3.7,0-7.3,1.2-10.1,3.5
	l-1.4,1.1l-0.1,1.8c-0.7,9.8-2.1,19.6-4.1,29.2c-0.8,4.1-1.5,7.5-1.9,11l-1.1,8.9l7.4-5.1c7.4-5.1,13-12.7,15.7-21.2l0.1-0.2l0-0.2
	c1.7-8.5,1.6-17-0.2-25.5l-0.7-3.1l-3.2-0.1L365.4,183.8z"/>
<path d="M8.5,72.8c-2.5,0-4.5-2-4.5-4.5V42.7C4,21.4,21.4,4,42.7,4h25.6c2.5,0,4.5,2,4.5,4.5c0,2.5-2,4.5-4.5,4.5H42.7
	c-16.3,0-29.6,13.3-29.6,29.6v25.6C13.1,70.8,11,72.8,8.5,72.8z"/>
<path d="M42.7,508C21.4,508,4,490.6,4,469.3v-25.6c0-2.5,2-4.5,4.5-4.5c2.5,0,4.5,2,4.5,4.5v25.6c0,16.3,13.3,29.6,29.6,29.6h25.6
	c2.5,0,4.5,2,4.5,4.5c0,2.5-2,4.5-4.5,4.5H42.7z"/>
<path d="M443.7,508c-2.5,0-4.5-2-4.5-4.5c0-2.5,2-4.5,4.5-4.5h25.6c16.3,0,29.6-13.3,29.6-29.6v-25.6c0-2.5,2-4.5,4.5-4.5
	c2.5,0,4.5,2,4.5,4.5v25.6c0,21.3-17.4,38.6-38.7,38.7H443.7z"/>
<path d="M503.5,72.8c-2.5,0-4.5-2-4.5-4.5V42.7c0-16.3-13.3-29.6-29.6-29.6h-25.6c-2.5,0-4.5-2-4.5-4.5c0-2.5,2-4.5,4.5-4.5h25.6
	C490.6,4,508,21.4,508,42.7v25.6C508,70.8,506,72.8,503.5,72.8z"/>
<path d="M42.7,72.8c-2.5,0-4.5-2-4.5-4.5V51.2c0-7.2,5.9-13.1,13.1-13.1h17.1c2.5,0,4.5,2,4.5,4.5c0,2.5-2,4.5-4.5,4.5H47.2v21.1
	C47.2,70.8,45.2,72.8,42.7,72.8z"/>
<path d="M51.2,473.9c-7.2,0-13.1-5.9-13.1-13.1v-17.1c0-2.5,2-4.5,4.5-4.5c2.5,0,4.5,2,4.5,4.5v21.1h21.1c2.5,0,4.5,2,4.5,4.5
	c0,2.5-2,4.5-4.5,4.5H51.2z"/>
<path d="M443.7,473.9c-2.5,0-4.5-2-4.5-4.5c0-2.5,2-4.5,4.5-4.5h21.1v-21.1c0-2.5,2-4.5,4.5-4.5c2.5,0,4.5,2,4.5,4.5v17.1
	c0,7.2-5.9,13.1-13.1,13.1H443.7z"/>
<path d="M469.3,72.8c-2.5,0-4.5-2-4.5-4.5V47.2h-21.1c-2.5,0-4.5-2-4.5-4.5c0-2.5,2-4.5,4.5-4.5h17.1c7.2,0,13.1,5.9,13.1,13.1v17.1
	C473.9,70.8,471.8,72.8,469.3,72.8z"/>
</svg>
