<?xml version="1.0" encoding="utf-8"?>
<!-- Generator: Adobe Illustrator 21.0.0, SVG Export Plug-In . SVG Version: 6.00 Build 0)  -->
<svg version="1.1" id="Layer_1" xmlns="http://www.w3.org/2000/svg" xmlns:xlink="http://www.w3.org/1999/xlink" x="0px" y="0px"
	 viewBox="0 0 512 512" style="enable-background:new 0 0 512 512;" xml:space="preserve">
<path d="M50,466c-2.2,0-4-1.8-4-4s1.8-4,4-4h66v-60c0-2.2,1.8-4,4-4h18.1v-17c0-9.3,7.6-16.9,16.9-17c0.1,0,0.2,0,0.3,0
	c3.7,0,6.9-2.3,8.1-5.8c1.4-3.7,0.2-7.8-2.9-10.3c-5.1-4.2-10-8.9-14.5-13.9c-3.7-4.1-5.6-9.5-5.2-15c0.3-3.6,1.5-7,3.5-9.9l1.2-1.7
	l-1.1-1.7c-28.8-44.2-28.8-101.3,0-145.5c24.7-38,66.5-60.6,111.9-60.6c25.8,0,50.9,7.5,72.6,21.6c61.6,40.1,79.1,122.9,39,184.5
	l-1.1,1.7l1.1,1.7c5.3,7.8,4.5,18.4-2,25.3c-4.5,4.9-9.4,9.5-14.5,13.7c-2.1,1.7-3.3,4.2-3.2,6.9c0,4.9,4,8.9,8.9,8.9
	c9.4,0,17,7.6,17,17v17h18c2.2,0,4,1.8,4,4v60h66c2.2,0,4,1.8,4,4s-1.8,4-4,4H50z M124,458h264v-56H124L124,458z M155,368
	c-4.9,0-9,4-9,9v17h220v-17c0-4.9-4-9-9-9c-5.2,0-9.9-2.2-13.1-6.2c-5.9-7.2-4.9-17.9,2.3-23.8c4.8-4,9.5-8.4,13.7-13
	c4-4.1,4.6-10.6,1.3-15.4c-2.2-3.1-5.5-4.9-9.2-5.1c-0.2,0-0.4,0-0.6,0c-3.4,0-6.6,1.4-8.8,3.9c-2.1,2.3-4.3,4.6-6.6,6.7
	c-21.8,20.3-50.2,31.4-79.9,31.4c-32.5,0-63.8-13.6-85.9-37.4c-2.4-2.8-5.9-4.4-9.6-4.4c-2.6,0-5.1,0.8-7.3,2.3l-0.1,0.1l-0.1,0.1
	c-0.2,0.2-0.4,0.3-0.6,0.5c-2.4,2.2-3.7,5.1-3.9,8.3c-0.1,3.2,1,6.3,3.1,8.6c4.3,4.7,8.9,9.1,13.8,13.2c5.7,4.6,7.8,12.3,5.3,19.1
	c-2.4,6.6-8.7,11.1-15.7,11.1L155,368z M160.4,296.8c5.9,0,11.6,2.5,15.5,6.8c2,2.2,4.1,4.2,6.3,6.2c20.2,18.5,46.4,28.7,73.8,28.7
	c30.6,0,60-12.9,80.7-35.5c3.8-4.1,9.1-6.5,14.7-6.5c2.3,0,4.6,0.4,6.8,1.2l2.3,0.8l1.3-2c12.9-20.2,19.7-43.5,19.7-67.5
	c-0.1-69-56.2-125.1-125.2-125.1h-0.2c-24,0-47.3,6.8-67.5,19.8c-28.2,18-47.6,46-54.8,78.6c-7.2,32.7-1.2,66.2,16.8,94.4l1.3,2
	l2.2-0.7C156,297.2,158.2,296.8,160.4,296.8z"/>
<path d="M157.3,233.2c-1.1,0-2.1-0.4-2.8-1.2c-0.8-0.8-1.2-1.8-1.2-2.8c0-28.8,12.3-56.5,33.5-75.9l0.2-0.2c0.7-0.6,1.7-1,2.6-1
	c1.2,0,2.3,0.5,3,1.4c1.4,1.7,1.3,4.2-0.4,5.6c-19.7,18-30.9,43.5-31,70C161.3,231.4,159.5,233.2,157.3,233.2L157.3,233.2z"/>
<path d="M216.9,142.6c-1.6,0-3-0.9-3.7-2.4c-0.9-2,0.1-4.4,2.1-5.3c12.9-5.6,26.5-8.4,40.5-8.4h0.2c2.2,0,4,1.8,4,4s-1.8,4-4,4h-0.2
	c-12.9,0-25.5,2.6-37.3,7.7C218,142.5,217.5,142.6,216.9,142.6L216.9,142.6z"/>
<path d="M226.7,264.4c-2.2,0-4-1.8-4-4v-9.8c0-2.2,1.8-4,4-4s4,1.8,4,4v9.8C230.7,262.6,228.9,264.4,226.7,264.4z"/>
<path d="M237.7,275.4c-2.2,0-4-1.8-4-4s1.8-4,4-4h9.8c2.2,0,4,1.8,4,4s-1.8,4-4,4H237.7z"/>
<path d="M226.7,296.2c-2.2,0-4-1.8-4-4v-9.8c0-2.2,1.8-4,4-4c1.1,0,2.1,0.4,2.8,1.2s1.2,1.8,1.2,2.8v9.8
	C230.7,294.4,228.9,296.2,226.7,296.2z"/>
<path d="M205.9,275.4c-2.2,0-4-1.8-4-4s1.8-4,4-4h9.8c2.2,0,4,1.8,4,4s-1.8,4-4,4H205.9z"/>
<path d="M300,181.5c-2.2,0-4-1.8-4-4v-9.8c0-2.2,1.8-4,4-4s4,1.8,4,4v9.8C304,179.7,302.2,181.5,300,181.5z"/>
<path d="M311,192.5c-2.2,0-4-1.8-4-4c0-2.2,1.8-4,4-4h9.8c2.2,0,4,1.8,4,4s-1.8,4-4,4H311z"/>
<path d="M300,213.3c-2.2,0-4-1.8-4-4v-9.8c0-2.2,1.8-4,4-4s4,1.8,4,4v9.8C304,211.5,302.2,213.3,300,213.3z"/>
<path d="M279.2,192.5c-2.2,0-4-1.8-4-4s1.8-4,4-4h9.8c2.2,0,4,1.8,4,4s-1.8,4-4,4H279.2z"/>
<path d="M256,76c-2.2,0-4-1.8-4-4V50c0-2.2,1.8-4,4-4c2.2,0,4,1.8,4,4v22C260,74.2,258.2,76,256,76z"/>
<path d="M367.2,122c-1.1,0-2.1-0.4-2.8-1.2c-0.8-0.8-1.2-1.8-1.2-2.8c0-1.1,0.4-2.1,1.2-2.8l15.6-15.6c0.8-0.8,1.8-1.2,2.8-1.2
	c1.1,0,2.1,0.4,2.8,1.2c1.6,1.6,1.6,4.1,0,5.7L370,120.9c-0.7,0.7-1.7,1.1-2.7,1.2L367.2,122z"/>
<path d="M413.2,233.2c-2.2,0-4-1.8-4-4s1.8-4,4-4h22c2.2,0,4,1.8,4,4s-1.8,4-4,4H413.2z"/>
<path d="M76.8,233.2c-2.2,0-4-1.8-4-4s1.8-4,4-4h22c2.2,0,4,1.8,4,4s-1.8,4-4,4H76.8z"/>
<path d="M144.8,122c-1.1,0-2.1-0.4-2.8-1.2l-15.6-15.6c-0.8-0.8-1.2-1.8-1.2-2.8c0-1.1,0.4-2.1,1.2-2.8c0.8-0.8,1.8-1.2,2.8-1.2
	c1.1,0,2.1,0.4,2.8,1.2l15.6,15.6c0.8,0.8,1.2,1.8,1.2,2.8c0,1.1-0.4,2.1-1.2,2.8C146.9,121.6,145.9,122,144.8,122z"/>
</svg>
