<?xml version="1.0" encoding="utf-8"?>
<!-- Generator: Adobe Illustrator 21.0.0, SVG Export Plug-In . SVG Version: 6.00 Build 0)  -->
<svg version="1.1" id="Layer_5" xmlns="http://www.w3.org/2000/svg" xmlns:xlink="http://www.w3.org/1999/xlink" x="0px" y="0px"
	 viewBox="0 0 512 512" style="enable-background:new 0 0 512 512;" xml:space="preserve">
<style type="text/css">
	.st0{fill:#020202;}
</style>
<g>
	<g>
		<path class="st0" d="M476.5,68.1c-94,0.2-187.6,0.2-266.8,0.2c-29.6,0-59.3,0-88.9,0c-29.6,0-59.3,0-88.9,0c-2.3,0-5,0.1-7.4,0.6
			c-7.1,1.5-11.6,5.9-15.2,14.8c0,89.8,0,182.7-0.1,274c0.2,0.2,0.3,0.5,0.5,0.8l0.1,0.2l0.1,0.2c4,10.8,10.1,15,21.5,15h38.9
			c-1.8-2-3.6-4.1-5.5-5.9c-0.8-0.8-2.5-1.6-3.5-1.7c-3.7-0.1-7.8-0.2-12.8-0.2c-2.9,0-5.8,0-8.7,0c-2.9,0-5.8,0-8.7,0
			c-9.5,0-13.9-4.4-13.9-13.9v-262c0-9.8,4.5-14.1,14.5-14.1h449.9c9.3,0,13.8,4.5,13.8,13.6v262.9c0,8.9-4.5,13.4-13.5,13.4
			c-5.1,0-10.4,0-15.4,0c-5,0-10.2,0-15.3,0l0,0c-0.6,0-1.7,0.1-2.2,0.2c-2.5,2.4-5,4.9-7.6,7.5h45c0.1,0,0.3-0.1,0.5-0.1
			c0.3-0.1,0.7-0.2,1.1-0.3l0,0l0,0c7-1.6,11.6-6.1,15.2-14.9V83.7C498.8,72.6,491.1,68.1,476.5,68.1z M398.8,254.1
			c-4.5-1.1-9.2-1.7-14.1-2.3c-2-0.2-4.1-0.5-6.1-0.8l-3.2-0.4l-0.2-3.2c-2.4-38.2-34.1-68-72.1-68c-8,0-16.1,1.3-24,4l-3,1
			l-1.6-2.7c-16.1-26.8-44.2-42.9-75.2-42.9c-9.9,0-19.4,1.6-28.3,4.8c-16.9,6.2-30.6,16.4-40.7,30.4c-15.7,21.7-20.2,46.2-13.7,75
			l0.8,3.5l-3.4,1.1c-1.8,0.6-3.1,1-4.5,1.5l0,0l0,0c-23.7,8-40.7,30.8-41.2,55.5c-0.4,17.1,5.8,33,17.3,44.8
			c11.5,11.8,27.1,18.3,44.1,18.4c8.1,0,17,0,27.2,0c9.1,0,18.2,0,27.3,0c9.1,0,18.2,0,27.3,0h5.3h3.9v3.9v15.3v3l-2.8,0.8l-0.2,0.1
			c-0.7,0.2-1.3,0.4-2.1,0.4c-2.3,0-4.6,0-6.9-0.1c-2.2,0-4.5-0.1-6.7-0.1c-3.5,0-6.4,0.1-9.1,0.3c-4.5,0.4-9.1,2.2-13.5,4
			c-3,1.3-5.8,3.6-8.2,5.7c-9.2,8.1-18.7,12-29,12c-2.1,0-4.4-0.2-6.6-0.5c-0.1,0-0.2,0-0.4,0c-3.5,0.2-4.2,1.8-4.3,4.2l0,0l0,0
			c-0.2,5.6-0.1,11.4,0,16.9c0.1,2.7,1.5,4.4,3.9,4.4c3.4,0,3.8-3.5,3.8-4.6c0.1-1.9,0-3.8,0-5.9c0-1.1,0-2.2,0-3.3v-3.9h3.9
			c0.7,0,1.3,0,1.9,0c0.6,0,1.1,0,1.6,0c0.7,0,1.4,0,2,0.1c0.8,0.1,1.5,0.1,2.3,0.1c4.8,0,9.4-1.7,14-5.3c2.8-2.2,5.7-4.2,8.6-6.1
			c2.6-1.7,5.3-3.5,7.8-5.5c4.3-3.3,9.1-4.8,15.5-4.8c8.6,0,17.2,0.1,25.7,0.1c12.1,0.1,24.6,0.1,36.9,0.1c17.9,0,32.7-0.1,46.5-0.4
			c0.7,0,1.4,0,2.1,0c14.2,0,24.6,3.6,33.8,11.6c8.3,7.2,15.9,10.5,23.9,10.5c1.1,0,2.3-0.1,3.4-0.2l0.2,0h0.2c1.7,0,2.7,1,3.2,1.4
			c0.1,0.1,0.1,0.1,0.2,0.2l1.5,1.2v1.9c0,0.9,0,1.8,0,2.7c0,1.9,0,3.8,0,5.7c0.1,2.8,1.6,4.4,3.9,4.4c2.8,0,3.8-2.3,3.8-4.5
			c0.1-5.5,0.1-11,0-16.5c-0.1-4.5-2.3-4.5-3.1-4.5c-0.3,0-0.6,0-0.9,0.1c-2.1,0.3-4.1,0.4-6.1,0.4c-10.9,0-20.9-4.1-30.6-12.5
			c-0.6-0.5-1.4-1-2.2-1.5c-0.9-0.6-1.9-1.2-2.9-2c-5-4-10.7-6-17.4-6c-0.6,0-1.2,0-1.7,0c-2.5,0.1-5.2,0.2-8.5,0.2
			c-2.1,0-4.2,0-6.3-0.1c-2.1,0-4.2-0.1-6.3-0.1h-3.9v-3.9v-15.7v-3.9h3.9c2.3,0,4.3,0,6.5,0.1c2.7,0,5.3,0,8,0
			c7.2,0,14.4,0,21.5,0.1c7,0,14.3,0.1,21.5,0.1c12.7,0,23.1-0.1,32.6-0.3c30.3-0.6,55-23.8,58.7-55
			C447.5,289.9,427.6,261.5,398.8,254.1z M283.3,378.1v15.1v3.9h-3.9h-46.4H229v-3.9v-15.1v-3.9h3.9h46.4h3.9V378.1z M427.3,342.5
			c-9.9,14.6-26.4,23.3-44.2,23.4c-15.9,0.1-33.3,0.2-54.6,0.2c-12.1,0-24.3,0-36.4,0c-12.1,0-24.2,0-36.4,0c-10.6,0-21.2,0-31.7,0
			c-10.6,0-21.1,0-31.7,0c-25.6,0-45.1-0.1-63.4-0.2c-22.3-0.1-38.9-10.9-48.1-31.1c-8.8-19.8-6.2-39.3,7.7-56.4
			c7.8-9.6,18.3-15.6,31.5-18c4.8-0.8,6.3-1.8,6.7-2.4c0.4-0.7,0.5-2.5-1.1-7.3c-7.3-21.7-5-45.3,6.2-64.8
			c11.2-19.4,30.3-33.2,52.6-37.8c5-1,10.1-1.5,15.2-1.5c28.5,0,55.5,16.2,68.8,41.1c2.8,5.3,3.8,6.3,4.8,6.3c1.4,0,4.1-1,6.8-2.1
			c7.4-3.1,15.3-4.6,23.3-4.6c34.3,0,62.9,27.5,63.8,61.2c0.1,4.2,0.3,9.4,1.2,10.3c0.9,0.9,6.2,0.9,10.4,0.9
			c26.3,0,45.6,12,54.2,33.7C439.1,309.9,437.2,327.8,427.3,342.5z M391.4,174.4h-0.1l-0.1,0c-0.2,0-0.3,0-0.5,0
			c-0.7,0-2.9,0.1-3.2,1.4c-0.3,2.1,0.3,4.8,0.9,5.4c6.4,6.7,13.4,12.8,20.6,19c0.9,0.8,1.9,1.2,2.9,1.2c1.8,0,3.3-1.5,3.7-3.8
			c1.8-9.3,3.3-19,4.9-28.3c0.4-2.8-0.8-3.8-2.1-4.5c-0.6-0.3-1.2-0.5-1.7-0.5c-1.2,0-2.6,1-4.5,3.2l-3.5,4.2l-2.8-4.7
			c-0.2-0.4-0.5-0.8-0.7-1.1c-0.6-1-1.1-1.8-1.7-2.7l-0.1-0.1l-0.1-0.1c-8-13.3-18.5-22.3-31.1-26.8c-7.3-2.6-15.6-3.7-23.5-4.8
			c-0.9-0.1-1.9-0.3-2.8-0.4c-0.2,0-0.4,0-0.5,0c-2,0-3.2,1.9-3.2,3.8c0,3.4,3.2,3.9,4.6,3.9l0.1,0l0.1,0c0.4,0,0.9,0,1.4,0
			c0.6,0,1.3,0,2,0.1c20.6,1.6,36.2,11.4,47.5,30l4.3,7.1l-8.2-1.2C392.6,174.5,391.9,174.4,391.4,174.4z M200.8,182
			c-0.4,0-0.9,0-1.3,0c-3.2,0-6.2,0.3-9,0.9c-13.2,2.8-24,14-24.6,25.6c-0.1,2.5,1.3,4.4,3.6,4.8c0.1,0,0.3,0,0.4,0
			c2.3,0,3.7-2.9,4.2-4.2c1.7-4.4,3.7-9.3,7.4-12.9c4.2-4.3,10.2-6.4,18.3-6.4c0.3,0,0.5,0,0.8,0l0.2,0c2.6,0,4.2-1.4,4.3-3.7l0,0
			l0,0c0-1.1-0.3-2-0.9-2.7C203.4,182.5,202.2,182.1,200.8,182z"/>
	</g>
</g>
</svg>
