<?xml version="1.0" encoding="utf-8"?>
<!-- Generator: Adobe Illustrator 21.0.0, SVG Export Plug-In . SVG Version: 6.00 Build 0)  -->
<svg version="1.1" id="Layer_1" xmlns="http://www.w3.org/2000/svg" xmlns:xlink="http://www.w3.org/1999/xlink" x="0px" y="0px"
	 viewBox="0 0 512 512" style="enable-background:new 0 0 512 512;" xml:space="preserve">
<path d="M48.7,487c-2.1-0.1-3.8-1.9-3.7-4.1l0-87.5l-1.6-0.3c-13.9-2.6-24.6-13.3-27.3-27.3c-1.7-9,0.2-18,5.4-25.6
	c5.1-7.5,12.9-12.6,21.9-14.3l1.6-0.3v-62.3c0-2.1,1.4-4.3,3.7-4.3H101l0-32.3c0-2,1.7-3.7,3.8-3.7l77.2,0v-29.6l-1.4-0.4
	c-6.4-1.9-11.3-6.9-13.2-13.3c-1.4-5-0.8-10.2,1.7-14.8c2.5-4.5,6.7-7.8,11.7-9.3c1.8-0.5,3.6-0.8,5.4-0.8c8.6,0,16.3,5.8,18.7,14.1
	c2.9,10.3-3,21.1-13.4,24.1l-1.5,0.4V225c0,0,77.4,0,77.4,0c0.1,0,0.2,0,0.2,0c2,0.1,3.5,1.8,3.4,3.8l0,32.2h52.5
	c2.4,0.1,4.3,2,4.5,4.4v62.2l1.6,0.3c15.9,3.1,27.9,17.5,27.9,33.6c0,16-12,30.4-27.9,33.6l-1.6,0.3v87.4c0,2.1-2.2,4.2-4.5,4.2
	L48.7,487z M53,479h267V269H53V479z M42.4,336.4c-11.1,3.2-18.9,13.6-18.9,25.1c0.1,11.6,7.8,21.9,18.9,25.1l2.6,0.7v-51.7
	L42.4,336.4z M328,387.4l2.6-0.7c8.7-2.5,15.4-9.2,17.9-17.9c1.9-6.7,1.1-13.8-2.2-19.9c-3.4-6.1-8.9-10.5-15.7-12.5l-2.6-0.7V387.4
	z M109,261h154v-28H109V261z M186.1,164.9c-6.3,0-11.5,5.1-11.5,11.5c0,6.3,5.1,11.5,11.5,11.5c6.3,0,11.5-5.1,11.5-11.5
	S192.4,164.9,186.1,164.9z"/>
<path d="M118,452c-2.2,0-4-1.8-4-4v-60c0-2.2,1.8-4,4-4h137c2.2,0,4,1.8,4,4v60c0,2.2-1.8,4-4,4H118z M225,444h25v-52h-25V444z
	 M190,444h27v-52h-27V444z M155,444h27v-52h-27V444z M122,444h25v-52h-25V444z"/>
<path d="M112,358c-2.2,0-4-1.8-4-4v-39c0-2.2,1.8-4,4-4h39c2.2,0,4,1.8,4,4v39c0,2.2-1.8,4-4,4H112z M116,349h30v-30h-30V349z"/>
<path d="M222,358c-2.2,0-4-1.8-4-4v-39c0-2.2,1.8-4,4-4h39c2.2,0,4,1.8,4,4v39c0,2.2-1.8,4-4,4H222z M226,349h31v-30h-31V349z"/>
<path d="M376.6,143.5c-11.5,0-20.9-9.4-20.9-20.9c0-11.5,9.4-20.9,20.9-20.9c11.5,0,20.9,9.4,20.9,20.9
	C397.5,134.2,388.1,143.5,376.6,143.5L376.6,143.5z M376.6,109.8c-7.1,0-12.9,5.8-12.9,12.9c0,7.1,5.8,12.9,12.9,12.9
	c7.1,0,12.9-5.8,12.9-12.9c0-3.4-1.3-6.7-3.8-9.1C383.3,111.1,380.1,109.8,376.6,109.8L376.6,109.8z"/>
<path d="M317.6,143.5c-11.5,0-20.9-9.4-20.9-20.9c0-11.5,9.4-20.9,20.9-20.9c11.5,0,20.9,9.4,20.9,20.9
	C338.5,134.2,329.1,143.5,317.6,143.5z M317.6,109.8c-7.1,0-12.9,5.8-12.9,12.9s5.8,12.9,12.9,12.9c7.1,0,12.9-5.8,12.9-12.9
	C330.5,115.6,324.7,109.8,317.6,109.8z"/>
<path d="M435.7,143.5c-11.5,0-20.9-9.4-20.9-20.9c0-11.5,9.4-20.9,20.9-20.9c11.5,0,20.9,9.4,20.9,20.9
	C456.5,134.2,447.2,143.5,435.7,143.5z M435.7,109.8c-7.1,0-12.9,5.8-12.9,12.9s5.8,12.9,12.9,12.9c7.1,0,12.9-5.8,12.9-12.9
	C448.5,115.6,442.7,109.8,435.7,109.8z"/>
<path d="M294.5,242c-2.2-0.1-3.9-1.9-3.8-4.2l1.8-45.5l-0.8-0.6c-22.7-18.4-35.2-42.9-35.2-69c0-26.5,12.8-51.2,36-69.7
	C315.1,35,345,25.2,376.6,25.2c31.7,0,61.5,9.9,84.1,27.8c23.2,18.5,36,43.2,36,69.7c0,26.5-12.8,51.2-36,69.7
	c-22.6,17.9-52.4,27.8-84.1,27.8h-0.2c-8,0-16-0.7-23.9-1.9l-0.6-0.1l-55.7,23.6c-0.5,0.2-1,0.3-1.6,0.3L294.5,242z M376.6,33.2
	c-29.9,0-57.9,9.3-79.1,26c-21.3,16.9-33,39.4-33,63.4c0,24,11.7,46.5,33,63.4c0.4,0.3,0.9,0.7,1.3,1l0.2,0.1c1,0.8,1.6,2,1.6,3.3
	l-1.6,41.3l51-21.6c0.5-0.2,1-0.3,1.6-0.3c0.2,0,0.5,0,0.7,0.1c8,1.4,16.3,2.1,24.4,2.1c29.9,0,58-9.3,79.1-26
	c21.3-16.9,33-39.4,33-63.4c0-24-11.7-46.5-33-63.4C434.6,42.4,406.5,33.2,376.6,33.2z"/>
</svg>
