<?xml version="1.0" encoding="utf-8"?>
<!-- Generator: Adobe Illustrator 16.0.0, SVG Export Plug-In . SVG Version: 6.00 Build 0)  -->
<!DOCTYPE svg PUBLIC "-//W3C//DTD SVG 1.1//EN" "http://www.w3.org/Graphics/SVG/1.1/DTD/svg11.dtd">
<svg version="1.1" id="Layer_1" xmlns="http://www.w3.org/2000/svg" xmlns:xlink="http://www.w3.org/1999/xlink" x="0px" y="0px"
	 width="185px" height="75px" viewBox="0 0 185 75" enable-background="new 0 0 185 75" xml:space="preserve">
<g>
	
		<radialGradient id="SVGID_1_" cx="-182.9668" cy="116.2725" r="0.0214" gradientTransform="matrix(2291.6716 0 0 -2218.7549 419378 257998)" gradientUnits="userSpaceOnUse">
		<stop  offset="0" style="stop-color:#423325;stop-opacity:0.98"/>
		<stop  offset="1" style="stop-color:#1C0A00"/>
	</radialGradient>
	<path fill="url(#SVGID_1_)" d="M60.534,6.406h63.932v62.188H60.534V6.406z"/>
	<path fill="#FF7F18" d="M60.534,6.406h63.932v62.188H60.534V6.406z M57.628,71.5h69.743v-68H57.628V71.5z M103.31,27.736
		c0-0.232,0.087-0.349,0.349-0.349h4.562c0.232,0,0.349,0.087,0.349,0.349v22.928c0,0.232-0.058,0.349-0.349,0.349h-4.504
		c-0.291,0-0.378-0.145-0.378-0.377V27.736H103.31L103.31,27.736z M102.991,21.139c0-1.86,1.308-2.964,2.964-2.964
		c1.773,0,2.964,1.191,2.964,2.964c0,1.918-1.25,2.964-3.022,2.964C104.211,24.104,102.991,23.057,102.991,21.139z M89.914,37.296
		c-0.813-3.226-2.731-10.258-3.458-13.658h-0.058c-0.61,3.4-2.15,9.154-3.371,13.658H89.914z M81.835,42.004l-2.295,8.718
		c-0.058,0.232-0.146,0.291-0.436,0.291h-4.272c-0.291,0-0.349-0.087-0.291-0.436l8.253-28.885c0.146-0.523,0.232-0.988,0.291-2.412
		c0-0.203,0.087-0.291,0.232-0.291h6.103c0.204,0,0.291,0.058,0.349,0.291l9.241,31.355c0.058,0.232,0,0.378-0.232,0.378h-4.824
		c-0.232,0-0.378-0.058-0.436-0.261l-2.383-8.747H81.835L81.835,42.004z"/>
</g>
</svg>
