<?xml version="1.0" encoding="utf-8"?>
<!-- Generator: Adobe Illustrator 21.0.0, SVG Export Plug-In . SVG Version: 6.00 Build 0)  -->
<svg version="1.1" id="svg4419" xmlns:svg="http://www.w3.org/2000/svg"
	 xmlns="http://www.w3.org/2000/svg" xmlns:xlink="http://www.w3.org/1999/xlink" x="0px" y="0px" viewBox="0 0 250 115"
	 style="enable-background:new 0 0 250 115;" xml:space="preserve">
<style type="text/css">
	.st0{fill:#0071C5;}
</style>
<g>
	<path id="path4423" class="st0" d="M97,50.7v22h-7V45h14.4c6.2,0,8.2,4.3,8.2,8.3v19.4h-7V53.3c0-1.7-0.9-2.6-2.9-2.6L97,50.7
		L97,50.7z M144.6,50.4c-2.4,0-4.2,1.2-5,2.9c-0.4,1-0.6,1.8-0.7,3h10.7C149.5,53.3,148.2,50.4,144.6,50.4 M138.9,61
		c0,3.6,2.2,6.2,6.2,6.2c3.1,0,4.7-0.9,6.4-2.6l4.3,4.1c-2.7,2.7-5.6,4.4-10.8,4.4c-6.7,0-13.1-3.6-13.1-14.3
		c0-9.1,5.6-14.3,12.9-14.3c7.5,0,11.8,6,11.8,13.9v2.6L138.9,61 M126.1,72.6c-5.7,0-8.1-4-8.1-7.9V37.5h7v7.6h5.3v5.6h-5.3v13.6
		c0,1.6,0.8,2.5,2.5,2.5h2.8v5.8L126.1,72.6 M83.8,41.2h-7v-6.7h7V41.2z M83.8,73c-5.3-0.5-7-3.7-7-7.4V45.1h7V73L83.8,73z
		 M167.8,72.4c-5.3-0.5-7-3.7-7-7.4V33.6h7V72.4z M192.4,38.1C186,7,125.5,5.1,86.5,28.7v2.6c38.9-20,94.1-19.9,99.2,8.8
		c1.7,9.5-3.7,19.4-13.2,25.1v7.5C184,68.4,195.8,54.8,192.4,38.1 M121.6,92.6c-26.9,2.5-54.9-1.4-58.9-22.4
		c-1.9-10.4,2.8-21.4,9.1-28.2v-3.6C60.5,48.3,54.4,60.8,58,75.5c4.5,18.9,28.5,29.7,65.3,26.1c14.5-1.4,33.5-6.1,46.7-13.4V78
		C158,85.2,138.1,91.1,121.6,92.6"/>
	<path id="path4425" class="st0" d="M175.9,35.7c0-0.4-0.2-0.4-0.6-0.4h-0.4v1c0.1,0,0.4,0,0.4,0C175.8,36.2,175.9,36,175.9,35.7
		L175.9,35.7L175.9,35.7z M176.6,38.1h-0.5c-0.1,0-0.1,0-0.1-0.1l-0.7-1.2l-0.1-0.1h-0.4v1.2c0,0.1,0,0.2-0.1,0.2h-0.5
		c-0.1,0-0.1-0.1-0.1-0.2v-3c0-0.2,0.1-0.3,0.2-0.3c0.2,0,0.6,0,0.9,0c0.9,0,1.4,0.3,1.4,1.1v0.1c0,0.5-0.3,0.8-0.6,0.9l0.7,1.2
		L176.6,38.1C176.7,38.1,176.7,38.1,176.6,38.1 M175.4,34.1c-1.3,0-2.3,1.1-2.3,2.4s1.1,2.3,2.3,2.3c1.3,0,2.3-1.1,2.3-2.3
		C177.7,35.2,176.6,34.1,175.4,34.1 M175.4,39.2c-1.6,0-2.8-1.2-2.8-2.8s1.2-2.8,2.8-2.8s2.8,1.2,2.8,2.8S176.9,39.2,175.4,39.2"/>
</g>
</svg>
