<?xml version="1.0" encoding="utf-8"?>
<!-- Generator: Adobe Illustrator 21.0.0, SVG Export Plug-In . SVG Version: 6.00 Build 0)  -->
<svg version="1.1" id="Layer_1" xmlns="http://www.w3.org/2000/svg" xmlns:xlink="http://www.w3.org/1999/xlink" x="0px" y="0px"
	 viewBox="0 0 130 70" style="enable-background:new 0 0 130 70;" xml:space="preserve">
<style type="text/css">
	.st0{fill:#DC395F;}
	.st1{fill:#FFFFFF;}
</style>
<g>
	<path class="st0" d="M84.7,10.9H45.2c-2.4,0-4.3,1.9-4.3,4.3v39.4c0,2.4,1.9,4.3,4.3,4.3h39.4c2.4,0,4.3-1.9,4.3-4.3V15.2
		C89.1,12.8,87.1,10.9,84.7,10.9"/>
	<path class="st1" d="M57,26c1.6,0,3-1.2,3-2.9s-1.3-2.9-3-2.9c-1.7,0-3,1.2-3,2.9S55.4,26,57,26"/>
	<path class="st1" d="M50.9,41.6c-0.2,0.8-0.3,1.5-0.3,2.2c0,2.5,1.4,4.3,4.3,4.3c2.4,0,4.4-1.4,5.8-3.8l-0.9,3.5h4.8l2.8-11.1
		c0.7-2.8,2.1-4.3,4.1-4.3c1.6,0,2.6,1,2.6,2.6c0,0.5-0.1,1-0.2,1.6l-1.4,5c-0.2,0.8-0.3,1.4-0.3,2.1c0,2.4,1.4,4.2,4.4,4.2
		c2.5,0,4.6-1.7,5.7-5.6l-1.9-0.8c-1,2.6-1.8,3.1-2.4,3.1c-0.6,0-1-0.4-1-1.3c0-0.4,0.1-0.8,0.2-1.4l1.4-5c0.3-1.2,0.5-2.2,0.5-3.2
		c0-3.7-2.3-5.6-5-5.6c-2.5,0-5.2,2.3-6.5,4.7l1-4.3h-7.4l-1,3.9h3.4l-2.1,8.5c-1.7,3.7-4.7,3.8-5.2,3.7c-0.6-0.1-1-0.4-1-1.2
		c0-0.5,0.1-1.2,0.3-2l3.2-12.9h-8.1l-1,3.9h3.4L50.9,41.6"/>
</g>
</svg>
