<?xml version="1.0" encoding="utf-8"?>
<!-- Generator: Adobe Illustrator 21.0.0, SVG Export Plug-In . SVG Version: 6.00 Build 0)  -->
<svg version="1.1" id="Layer_1_1_" xmlns="http://www.w3.org/2000/svg" xmlns:xlink="http://www.w3.org/1999/xlink" x="0px" y="0px"
	 viewBox="0 0 512 512" style="enable-background:new 0 0 512 512;" xml:space="preserve">
<style type="text/css">
	.st0{fill:#FFFFFF;}
</style>
<path class="st0" d="M456.1,196.7c5.2-8.6,7.9-18.5,7.9-28.7c0-28.2-21-51.7-48.2-55.5c0.1-1.5,0.2-3,0.2-4.5
	c0-30.2-26.2-54.6-56.6-51.8C355.6,33.4,335.8,16,312,16c-26.5,0-48,21.5-48,48v384c0,26.5,21.5,48,48,48
	c23.8,0,43.6-17.4,47.4-40.2c30.4,2.8,56.6-21.6,56.6-51.8c0-1.5-0.1-3-0.2-4.5C443,395.7,464,372.2,464,344
	c0-10.2-2.8-20.1-7.9-28.7c23.7-9.6,39.9-32.9,39.9-59.3S479.8,206.3,456.1,196.7L456.1,196.7z M441.2,303.1
	c-2.9,0.6-5.2,2.6-6.1,5.4c-0.9,2.8-0.2,5.8,1.8,8c7.1,7.5,11,17.3,11,27.5c0,22-17.9,40-40.4,40c-0.1,0-0.9,0-1-0.1
	c-2.6-0.1-5,1-6.6,3.1c-1.6,2-2.1,4.7-1.4,7.1c0.9,3.3,1.4,6.6,1.4,9.9c0,19.8-16.2,36-36,36c-3.3,0-6.7-0.5-10-1.4
	c-2.5-0.7-5.2-0.2-7.2,1.4c-2,1.6-3.2,4.1-3,6.6c0,0.2,0.1,1.1,0.2,1.4c0,17.6-14.4,32-32,32s-32-14.4-32-32V288h32v89.5
	c-9.3,3.3-16,12.1-16,22.5c0,13.2,10.8,24,24,24s24-10.8,24-24c0-10.4-6.7-19.2-16-22.5V288h64v33.5c-9.3,3.3-16,12.1-16,22.5
	c0,13.2,10.8,24,24,24s24-10.8,24-24c0-10.4-6.7-19.2-16-22.5V280c0-4.4-3.6-8-8-8H280v-40h97.5c3.3,9.3,12.1,16,22.5,16
	c13.2,0,24-10.8,24-24s-10.8-24-24-24c-10.4,0-19.2,6.7-22.5,16H280v-40h72c4.4,0,8-3.6,8-8v-33.5c9.3-3.3,16-12.1,16-22.5
	c0-13.2-10.8-24-24-24s-24,10.8-24,24c0,10.4,6.7,19.2,16,22.5V160h-64V64c0-17.6,14.4-32,32-32s32,14.4,32,31.8
	c0,0.2-0.1,1.3-0.2,1.5c-0.1,2.6,1,5,3,6.6c2,1.6,4.7,2.1,7.2,1.4c3.3-0.9,6.7-1.4,10-1.4c19.8,0,36,16.2,36,36
	c0,3.3-0.5,6.6-1.4,9.9c-0.7,2.5-0.2,5.1,1.4,7.1s4,3.1,6.6,3.1c0.1,0,1.4-0.1,1.5-0.1c22.1,0,40,17.9,40,40
	c0,10.3-3.9,20.1-11,27.5c-2,2.1-2.7,5.2-1.8,8s3.2,4.9,6.1,5.4c22.5,4.4,38.8,24.2,38.8,47.1C480,278.9,463.7,298.7,441.2,303.1z
	 M328,400c0,4.4-3.6,8-8,8s-8-3.6-8-8s3.6-8,8-8S328,395.6,328,400z M408,344c0,4.4-3.6,8-8,8s-8-3.6-8-8s3.6-8,8-8
	S408,339.6,408,344z M392,224c0-4.4,3.6-8,8-8s8,3.6,8,8s-3.6,8-8,8S392,228.4,392,224z M344,112c0-4.4,3.6-8,8-8s8,3.6,8,8
	s-3.6,8-8,8S344,116.4,344,112z"/>
<path class="st0" d="M55.9,315.3c-5.2,8.6-7.9,18.5-7.9,28.7c0,28.2,21,51.7,48.2,55.5c-0.1,1.5-0.2,3-0.2,4.5
	c0,30.2,26.3,54.5,56.6,51.8c3.7,22.8,23.6,40.2,47.4,40.2c26.5,0,48-21.5,48-48V64c0-26.5-21.5-48-48-48
	c-23.8,0-43.6,17.4-47.4,40.2C122.3,53.4,96,77.8,96,108c0,1.5,0.1,3,0.2,4.5C69,116.3,48,139.8,48,168c0,10.2,2.8,20.1,7.9,28.7
	C32.2,206.3,16,229.6,16,256S32.2,305.7,55.9,315.3z M168,352c4.4,0,8,3.6,8,8s-3.6,8-8,8s-8-3.6-8-8S163.6,352,168,352z M176,382.5
	c9.3-3.3,16-12.1,16-22.5s-6.7-19.2-16-22.5V288h56v112h-56V382.5z M70.8,208.9c2.9-0.6,5.2-2.6,6.1-5.4c0.9-2.8,0.2-5.8-1.8-8
	c-7.1-7.5-11-17.3-11-27.5c0-22,17.9-40,40.4-40c0.1,0,0.9,0,1,0.1c2.5,0,5-1.1,6.6-3.1s2.1-4.7,1.4-7.1c-0.9-3.3-1.4-6.6-1.4-9.9
	c0-19.8,16.2-36,36-36c3.3,0,6.7,0.5,10,1.4c2.5,0.7,5.1,0.2,7.2-1.4c2-1.6,3.2-4.1,3-6.6c0-0.2-0.1-1.1-0.2-1.4
	c0-17.6,14.4-32,32-32s32,14.4,32,32v96h-40v-25.5c9.3-3.3,16-12.1,16-22.5c0-13.2-10.8-24-24-24s-24,10.8-24,24
	c0,10.4,6.7,19.2,16,22.5V160h-41.5c-3.3-9.3-12.1-16-22.5-16c-13.2,0-24,10.8-24,24s10.8,24,24,24c10.4,0,19.2-6.7,22.5-16H184h48
	v40H120c-4.4,0-8,3.6-8,8v49.5c-9.3,3.3-16,12.1-16,22.5c0,13.2,10.8,24,24,24s24-10.8,24-24c0-10.4-6.7-19.2-16-22.5V232h104v40
	h-64c-4.4,0-8,3.6-8,8v57.5c-9.3,3.3-16,12.1-16,22.5s6.7,19.2,16,22.5V408c0,4.4,3.6,8,8,8h64v32c0,17.6-14.4,32-32,32
	s-32-14.4-32-31.8c0-0.2,0.1-1.3,0.2-1.5c0.1-2.6-1-5-3-6.6c-1.4-1.1-3.2-1.7-5-1.7c-0.7,0-1.5,0.1-2.2,0.3c-3.3,1-6.6,1.4-10,1.4
	c-19.8,0-36-16.2-36-36c0-3.3,0.5-6.6,1.4-9.9c0.7-2.5,0.2-5.1-1.4-7.1c-1.6-2-4.1-3.2-6.6-3.1c-0.1,0-1.4,0.1-1.5,0.1
	c-22.1,0-40-17.9-40-40c0-10.3,3.9-20.1,11-27.5c2-2.1,2.7-5.2,1.8-8s-3.2-4.9-6.1-5.4C48.3,298.7,32,278.9,32,256
	S48.3,213.3,70.8,208.9L70.8,208.9z M176,112c0-4.4,3.6-8,8-8s8,3.6,8,8s-3.6,8-8,8S176,116.4,176,112z M120,168c0,4.4-3.6,8-8,8
	s-8-3.6-8-8s3.6-8,8-8S120,163.6,120,168z M128,296c0,4.4-3.6,8-8,8s-8-3.6-8-8s3.6-8,8-8S128,291.6,128,296z"/>
<path class="st0" d="M376,160h16v16h-16V160z"/>
<path class="st0" d="M48,248h16v16H48V248z"/>
<path class="st0" d="M96,344h16v16H96V344z"/>
<path class="st0" d="M440,248h16v16h-16V248z"/>
</svg>
