<?xml version="1.0" encoding="utf-8"?>
<!-- Generator: Adobe Illustrator 16.0.0, SVG Export Plug-In . SVG Version: 6.00 Build 0)  -->
<!DOCTYPE svg PUBLIC "-//W3C//DTD SVG 1.1//EN" "http://www.w3.org/Graphics/SVG/1.1/DTD/svg11.dtd">
<svg version="1.1" id="Layer_1" xmlns="http://www.w3.org/2000/svg" xmlns:xlink="http://www.w3.org/1999/xlink" x="0px" y="0px"
	 width="200px" height="60px" viewBox="0 0 200 60" enable-background="new 0 0 200 60" xml:space="preserve">
<g>
	<g>
		<path fill="#E92D2F" stroke="#E92D2F" stroke-width="0.0132" stroke-miterlimit="10" d="M80.522,1
			c1.328,1.512,1.766,3.673,1.385,5.623c-0.41,2.189-1.625,4.125-3.052,5.792c-1.145,1.342-2.458,2.529-3.829,3.63
			c-1.597,1.286-3.165,2.671-4.168,4.479c-0.847,1.469-1.045,3.278-0.466,4.874c0.946,2.741,3.15,4.775,4.352,7.36
			c-1.329-1.172-2.628-2.387-3.843-3.673c-1.271-1.356-2.472-2.797-3.264-4.493c-0.537-1.187-0.777-2.572-0.367-3.829
			c0.41-1.286,1.328-2.317,2.247-3.278c2.557-2.557,5.708-4.436,8.208-7.036c1.385-1.427,2.529-3.136,2.925-5.1
			C80.975,3.91,80.819,2.427,80.522,1L80.522,1z"/>
		<path fill="#E92D2F" stroke="#E92D2F" stroke-width="0.0132" stroke-miterlimit="10" d="M78.432,17.092
			c2.741-2.021,5.948-3.306,9.197-4.238c-2.571,1.639-5.255,3.136-7.474,5.241c-0.805,0.777-1.568,1.667-1.921,2.755
			c-0.269,0.805-0.156,1.695,0.169,2.458c0.593,1.356,1.596,2.458,2.359,3.701c0.65,1.06,0.763,2.417,0.269,3.561
			c-0.749,1.681-2.218,2.91-3.744,3.885c-0.198,0.113-0.367,0.325-0.607,0.354c1.018-0.918,1.809-2.218,1.78-3.617
			c-0.028-1.045-0.607-1.963-1.285-2.713c-1.399-1.667-2.571-3.786-2.331-6.033C75.083,20.2,76.694,18.392,78.432,17.092
			L78.432,17.092z"/>
		<path fill="#0774BA" stroke="#0774BA" stroke-width="0.0132" stroke-miterlimit="10" d="M88.152,33.423
			c0.593-0.72,1.54-0.904,2.401-1.017c1.498-0.198,3.094,0.184,4.224,1.215c0.933,0.833,1.456,2.134,1.257,3.391
			c-0.211,1.455-1.187,2.67-2.288,3.588c-1.992,1.597-4.451,2.529-6.909,3.151c0.141-0.156,0.297-0.297,0.48-0.41
			c1.865-1.003,3.715-2.176,5.085-3.814c0.834-1.017,1.484-2.345,1.215-3.687c-0.282-1.555-1.794-2.685-3.334-2.77
			C89.55,33,88.858,33.282,88.152,33.423L88.152,33.423z"/>
		<path fill="#0774BA" stroke="#0774BA" stroke-width="0.0132" stroke-miterlimit="10" d="M59.754,34.709
			c2.6-1.116,5.425-1.836,8.265-1.794c-1.653,0.48-3.348,0.89-4.902,1.625c-0.367,0.198-0.791,0.381-1.003,0.763
			c-0.113,0.297,0.198,0.495,0.423,0.593c0.961,0.396,2.021,0.452,3.052,0.551c3.617,0.24,7.248,0.099,10.85-0.127
			c3.56-0.226,7.092-0.706,10.61-1.272c-0.777,0.368-1.568,0.735-2.289,1.202c-0.367,0.254-0.819,0.325-1.229,0.424
			c-4.323,0.96-8.759,1.257-13.167,1.328c-1.709,0.014-3.405-0.014-5.101-0.127c-1.893-0.127-3.8-0.269-5.651-0.763
			c-0.537-0.155-1.102-0.325-1.526-0.706c-0.212-0.169-0.212-0.509-0.028-0.707C58.525,35.218,59.175,34.992,59.754,34.709
			L59.754,34.709z"/>
		<path fill="#0774BA" stroke="#0774BA" stroke-width="0.0132" stroke-miterlimit="10" d="M63.089,40.742
			c0.734-0.579,1.61-0.904,2.486-1.215c-0.283,0.339-0.678,0.664-0.707,1.13c-0.014,0.297,0.226,0.523,0.466,0.665
			c0.466,0.24,0.989,0.325,1.512,0.396C69.56,42,72.3,42.155,75.041,41.971c2.5-0.127,4.987-0.537,7.459-0.975
			c0.678,0.636,1.483,1.074,2.331,1.456c-2.981,0.875-6.047,1.384-9.126,1.625c-2.911,0.198-5.863,0.184-8.76-0.283
			c-1.144-0.212-2.317-0.452-3.362-0.989c-0.424-0.226-0.904-0.522-1.031-1.017C62.467,41.363,62.778,40.982,63.089,40.742
			L63.089,40.742z"/>
		<path fill="#0774BA" stroke="#0774BA" stroke-width="0.0132" stroke-miterlimit="10" d="M64.728,46.901
			c0.65-0.522,1.455-0.791,2.246-1.017c-0.254,0.24-0.706,0.537-0.509,0.946c0.382,0.495,1.088,0.551,1.653,0.679
			c2.388,0.297,4.803,0.495,7.191,0.311c1.808-0.113,3.588-0.438,5.354-0.749c1.017,0.593,2.077,1.102,3.164,1.554
			c-1.667,0.749-3.461,1.229-5.255,1.568c-3.023,0.537-6.146,0.607-9.183,0.127c-1.342-0.24-2.713-0.551-3.928-1.215
			c-0.466-0.268-0.96-0.579-1.158-1.102C64.148,47.594,64.403,47.156,64.728,46.901L64.728,46.901z"/>
		<path fill="#0774BA" stroke="#0774BA" stroke-width="0.0132" stroke-miterlimit="10" d="M56.887,50.9
			c1.3-0.438,2.642-0.791,4.012-0.833c0.551-0.014,1.116,0.014,1.597,0.296c-1.639,0.099-3.278,0.509-4.747,1.257
			c-0.325,0.184-0.692,0.396-0.819,0.777c0,0.438,0.494,0.579,0.819,0.72c2.048,0.763,4.238,1.003,6.386,1.229
			c6.4,0.537,12.842,0.396,19.242-0.184c2.416-0.269,4.846-0.537,7.191-1.201c0.749-0.254,1.596-0.509,2.091-1.173
			c0.297-0.395,0.099-0.89-0.198-1.229c0.48,0.269,1.159,0.608,1.06,1.258c-0.184,0.678-0.876,1.031-1.441,1.356
			c-1.808,0.918-3.8,1.385-5.779,1.794c-5.75,1.13-11.641,1.384-17.49,1.215c-4.408-0.156-8.816-0.58-13.167-1.328
			c-0.777-0.184-1.653-0.339-2.218-0.947c-0.368-0.424-0.042-1.018,0.311-1.328C54.626,51.762,55.771,51.31,56.887,50.9L56.887,50.9
			z"/>
		<path fill="#0774BA" stroke="#0774BA" stroke-width="0.0132" stroke-miterlimit="10" d="M92.093,55.731
			c1.428-0.494,2.954-1.017,4.013-2.147c-0.183,1.229-1.243,2.077-2.288,2.628c-2.007,1.045-4.253,1.526-6.485,1.921
			c-4.719,0.749-9.509,0.932-14.298,0.848c-3.263-0.099-6.555-0.226-9.762-0.904c-0.763-0.212-1.583-0.353-2.247-0.805
			c2.854,0.48,5.75,0.678,8.646,0.791c4.761,0.141,9.536-0.042,14.269-0.636C86.683,57.045,89.438,56.579,92.093,55.731
			L92.093,55.731z"/>
	</g>
	<path fill="#E92D2F" stroke="#E92D2F" stroke-width="0.0132" stroke-miterlimit="10" d="M104.028,37.709
		c0.015-4.634-0.013-9.269,0.015-13.917c0.961,0.028,1.922,0,2.882,0.028c-0.013,5.186,0,10.384-0.013,15.583
		c-0.028,1.455-0.057,2.981-0.764,4.281c-0.777,1.384-2.161,2.359-3.631,2.924c-0.466-0.508-0.89-1.045-1.356-1.554l0,0
		c1.188-0.692,2.374-1.682,2.656-3.109C104.085,40.549,104,39.122,104.028,37.709L104.028,37.709z"/>
	<path fill="#E92D2F" stroke="#E92D2F" stroke-width="0.0132" stroke-miterlimit="10" d="M109.595,29.374
		c1.907-0.819,4.026-1.243,6.103-1.018c1.075,0.127,2.19,0.523,2.882,1.385c0.58,0.734,0.791,1.682,0.777,2.6
		c0,3.165,0,6.315,0,9.48c-0.706,0-1.412,0-2.132,0c-0.071-0.466-0.142-0.947-0.198-1.427c-0.806,0.635-1.667,1.243-2.67,1.497
		c-1.145,0.297-2.402,0.269-3.518-0.169c-0.862-0.353-1.54-1.13-1.781-2.034c-0.353-1.314-0.169-2.854,0.763-3.914
		c0.834-0.975,2.091-1.455,3.334-1.681c1.145-0.226,2.317-0.226,3.49-0.226c-0.028-0.89,0.142-1.865-0.368-2.656
		c-0.41-0.608-1.158-0.848-1.851-0.891c-1.511-0.127-3.008,0.254-4.436,0.75C109.849,30.503,109.723,29.938,109.595,29.374
		 M113.1,35.929c-0.622,0.198-1.202,0.65-1.371,1.3c-0.198,0.721-0.142,1.568,0.325,2.176c0.452,0.593,1.271,0.735,1.978,0.65
		c0.989-0.113,1.851-0.678,2.614-1.286c0-1.059-0.014-2.105,0-3.165C115.458,35.604,114.244,35.533,113.1,35.929L113.1,35.929z"/>
	<path fill="#E92D2F" stroke="#E92D2F" stroke-width="0.0132" stroke-miterlimit="10" d="M134.432,29.374
		c1.921-0.819,4.041-1.257,6.131-1.018c1.045,0.127,2.12,0.509,2.812,1.328c0.65,0.777,0.848,1.809,0.833,2.798
		c-0.014,3.122,0.014,6.23-0.028,9.352c-0.706-0.028-1.412,0.014-2.118-0.028c-0.071-0.48-0.127-0.947-0.212-1.413
		c-0.99,0.847-2.176,1.54-3.518,1.652c-1.229,0.113-2.614-0.042-3.575-0.918c-1.003-0.933-1.172-2.444-0.918-3.729
		c0.241-1.187,1.131-2.162,2.205-2.685c1.681-0.819,3.602-0.862,5.439-0.848c-0.028-0.862,0.126-1.78-0.311-2.557
		c-0.34-0.622-1.06-0.905-1.738-0.975c-1.568-0.169-3.137,0.226-4.606,0.735C134.7,30.503,134.56,29.938,134.432,29.374
		 M137.894,35.943c-0.594,0.198-1.145,0.65-1.328,1.272c-0.198,0.72-0.142,1.568,0.311,2.189c0.466,0.607,1.3,0.735,2.02,0.65
		c0.975-0.141,1.865-0.678,2.6-1.328c-0.028-1.031-0.014-2.077-0.014-3.122C140.281,35.604,139.052,35.533,137.894,35.943
		L137.894,35.943z"/>
	<path fill="#E92D2F" stroke="#E92D2F" stroke-width="0.0132" stroke-miterlimit="10" d="M120.969,28.526c0.988,0,1.978,0,2.966,0
		c0.58,1.865,1.144,3.716,1.724,5.581c0.339,1.144,0.763,2.274,1.003,3.447c0.127,0.523,0.24,1.06,0.396,1.568
		c1.215-3.434,2.147-6.979,2.628-10.596c0.96,0,1.921,0,2.881,0c-0.833,4.578-2.146,9.084-4.125,13.294c-1.13,0-2.26,0-3.39,0
		C123.695,37.384,122.324,32.962,120.969,28.526L120.969,28.526z"/>
	<g>
		<path fill="#E92D2F" stroke="#E92D2F" stroke-width="0.0132" stroke-miterlimit="10" d="M144.976,28.676h-0.348v-0.125h0.846
			v0.125h-0.35v1.017h-0.149V28.676z"/>
		<path fill="#E92D2F" stroke="#E92D2F" stroke-width="0.0132" stroke-miterlimit="10" d="M146.564,29.191
			c-0.009-0.16-0.019-0.353-0.019-0.493h-0.003c-0.041,0.132-0.087,0.276-0.145,0.434l-0.201,0.554h-0.112l-0.186-0.543
			c-0.055-0.163-0.098-0.309-0.13-0.444h-0.004c-0.004,0.143-0.012,0.332-0.021,0.505l-0.031,0.49h-0.141l0.08-1.142h0.188
			l0.195,0.552c0.047,0.141,0.084,0.266,0.114,0.385h0.004c0.03-0.115,0.072-0.241,0.122-0.385l0.204-0.552h0.188l0.071,1.142
			h-0.145L146.564,29.191z"/>
	</g>
</g>
</svg>
