<?xml version="1.0" encoding="utf-8"?>
<!-- Generator: Adobe Illustrator 21.0.2, SVG Export Plug-In . SVG Version: 6.00 Build 0)  -->
<svg version="1.1" id="Layer_1" xmlns="http://www.w3.org/2000/svg" xmlns:xlink="http://www.w3.org/1999/xlink" x="0px" y="0px"
	 width="130px" height="70px" viewBox="0 0 130 70" style="enable-background:new 0 0 130 70;" xml:space="preserve">
<style type="text/css">
	.st0{fill:#ED2124;}
	.st1{fill:#038BC8;}
	.st2{fill:#FFFFFF;}
</style>
<g>
	<g>
		<path class="st0" d="M71.4,39.5c0,0.4-0.9,0.8-1.2,1c-1.3,0.8-3.2,1.4-4.5,0.2c-1.2-1.2-0.8-3.4,0.5-4.2c0.7-0.4,1.5-0.6,2.3-0.7
			c0.7-0.1,2.1-0.2,2.8-0.1L71.4,39.5L71.4,39.5z M62.5,27.9l0.6,2c0.8-0.2,1.4-0.6,2.7-0.7c1-0.2,2.1-0.3,3.3-0.2
			c1.1,0.2,1.7,0.6,2,1.4c0.2,0.4,0.3,0.9,0.4,1.4v1.7c-0.1,0-3.3,0.3-3.7,0.3c-3.2,0.4-6.4,2.1-5.9,6.1c0.3,2.5,1.7,3.6,4.2,3.9
			c1.4,0.2,2.3,0,3.4-0.5c0.5-0.2,0.9-0.5,1.3-0.7c0.6-0.4,1-0.8,1.1-0.9l0.4,1.7h2.6c0.1-0.6,0-7,0-7.7c0-1.3,0-2.6,0-3.8
			s-0.1-2.2-0.6-3.2c-1.8-2.8-5.6-2.7-8.7-1.9C64.6,27.1,62.9,27.6,62.5,27.9L62.5,27.9z"/>
		<path class="st0" d="M102.5,39.6c-0.2,0.1-0.5,0.4-0.7,0.6c-0.7,0.6-1.7,1-2.6,1.1c-2.9,0.4-3.5-2.6-2.6-4.1
			c1-1.6,4.1-1.6,5.9-1.6L102.5,39.6L102.5,39.6z M93.7,27.9c0,0.3,0.4,1.8,0.6,2c0.5-0.1,1.6-0.6,2.7-0.7c1.7-0.4,4.5-0.6,5.3,1.2
			c0.4,0.7,0.6,2.8,0.4,3.1c-0.2,0.1-1.6,0.1-1.9,0.1c-1.9,0.1-3.4,0.3-5,1.1c-1.7,0.9-3.2,2.5-2.8,5.2c0.3,2.5,1.7,3.6,4.2,3.9
			c1.9,0.2,3.3-0.3,4.8-1.2c0.6-0.4,0.9-0.7,1.1-0.9l0.4,1.8h2.6V32c0-1.3-0.1-2.2-0.6-3.2c-1.7-2.8-5.7-2.6-8.7-1.9
			C95.8,27.1,94.1,27.6,93.7,27.9L93.7,27.9z"/>
		<path class="st0" d="M82,43.5h4.2c0.1,0,0.5-0.7,0.6-0.8c0.2-0.3,0.3-0.7,0.5-0.9c0.3-0.7,0.6-1.3,0.7-1.9c1-2.7,1.9-5.7,2.5-8.4
			c0.2-0.6,0.9-4,0.9-4.5h-3.1c-0.7,0-0.4-0.1-0.6,1.3c-0.2,1.4-0.5,2.9-0.8,4.3c-0.3,1-2,7.2-2.4,7.7l-0.9-3.3
			c-0.4-1.1-0.7-2.2-1-3.3l-1.6-4.9c-0.2-0.6-0.4-1.1-0.6-1.7h-3.7c0,0.4,2.4,7.8,2.6,8.4c0.5,1.4,0.8,2.8,1.3,4.2
			C81,40.8,81.5,42.2,82,43.5L82,43.5z"/>
		<path class="st0" d="M55.5,26.6V41c0,2.7-0.8,5.8-3.5,6.6c0.2,0.4,1.3,1.5,1.7,1.9c0.9-0.2,2.2-1,2.8-1.5c0.7-0.7,1.2-1.3,1.9-2.5
			c1.1-2.3,0.9-4.8,0.9-7.6c0-5.7,0-11.4,0-17.1c-0.5-0.1-2.9,0-3.6,0L55.5,26.6L55.5,26.6z"/>
		<path class="st0" d="M26.1,29L25,27.3c-0.4-0.6-0.7-1.1-1.1-1.8c-0.6-1.1-1.4-2.5-1.8-3.9c-0.6-2.5,0.9-4.1,2.3-5.8
			c0.2-0.3,0.5-0.5,0.6-0.7c1.5-1.5,3.4-3.3,5-4.8c1.6-1.6,2.5-3.2,2.7-5.8c0.1-1.3-0.2-4.1-1.1-4.5c0.3,1.9,0.4,3.2-0.5,5.3
			c-0.9,2.3-2.4,3.6-4.2,5c-1.4,1.1-3.7,3.1-4.9,4.3c-0.8,0.7-2.1,2.1-2.7,3.4c-0.8,1.9,0,3.2,0.8,4.5c0.4,0.6,0.8,1.2,1.3,1.8
			c0.6,0.7,1,1.1,1.4,1.7c0.5,0.6,1,1.1,1.5,1.6C24.9,27.8,25.8,28.8,26.1,29L26.1,29z"/>
		<path class="st1" d="M42.9,45.8c0.6,0.9,0,1.3-0.7,1.7c-3.3,1.6-14.8,1.9-18.3,1.9c-3.6,0-7.3-0.2-10.9-0.7
			c-0.6-0.1-3.1-0.5-3.2-1.1c-0.1-0.4,0.4-0.7,0.6-0.8c0.8-0.5,2.3-0.8,3.3-1c0.3-0.1,1-0.1,1.2-0.2c-1.7-0.3-7.1,0.6-8.3,2.3
			c-0.7,1,0.5,1.6,1.3,1.9c3.2,0.8,9.7,1,13,1.1c5.1,0.1,17.4,0,21.8-3.1c0.3-0.2,0.7-0.6,0.8-0.9C43.7,46.3,43.2,45.9,42.9,45.8
			L42.9,45.8z"/>
		<path class="st0" d="M28.2,31.1c0.6-0.2,2.1-1.5,2.6-1.9c0.6-0.6,1.5-1.7,1.6-2.9c0.1-1.1-0.7-2.6-1.2-3.3
			c-1.5-2.3-2.7-3.6-0.7-6.1c0.7-0.8,1.4-1.5,2.3-2.2c1-0.8,2.8-2,4-2.8l1.4-0.9c-0.7,0.1-2.7,0.8-3.4,1.2c-1.1,0.3-2.3,0.9-3.2,1.4
			c-3.1,1.8-6.1,4.5-4.9,8.4c0.8,2.6,3.2,4.2,3.2,6.1C29.7,29.2,28.6,30.5,28.2,31.1L28.2,31.1z"/>
		<path class="st1" d="M34.6,43.9c-0.9-0.4-1.7-0.7-2.5-1.3c-0.5-0.3-0.3-0.3-0.9-0.1c-2.6,0.7-6.8,0.7-9.5,0.6
			c-0.6,0-2.7-0.1-3.1-0.7c-0.3-0.4,0.1-0.7,0.2-0.9c-1.8,0.4-3.5,1.9-1.1,3.1c2.8,1.4,8.6,1.4,11.6,0.8
			C30.3,45.1,34.2,44.2,34.6,43.9L34.6,43.9z"/>
		<path class="st1" d="M35.4,38.1c-0.7-0.2-1.4-0.7-1.9-1c-0.4-0.4-0.3-0.3-1.1-0.1c-3.1,0.5-12.1,1.4-14.6,0.3
			c-0.4-0.1-0.7-0.4-0.7-0.7c0-0.5,0.4-0.7,0.6-1c-2,0.3-4.1,2.2-1.3,3.2c3.2,1.1,9.9,1.1,13.2,0.7C30.7,39.3,34.6,38.5,35.4,38.1
			L35.4,38.1z"/>
		<path class="st1" d="M37.6,31.3c-0.4,0-0.9,0.2-1.3,0.2c-0.5,0.1-0.9,0.1-1.4,0.2c-2.8,0.4-5.8,0.7-8.6,0.8
			c-2.1,0.1-10.3,0.4-11.6-0.7c-0.1-0.6,0.5-0.8,0.8-1c1.4-0.7,2.9-1,4.3-1.4c-1.9-0.2-6.7,1.2-8.4,2.3c-1.9,1.2,1.2,1.7,2.4,1.8
			c6.9,0.9,13.3,0.5,20.1-0.6c1.1-0.2,1.3-0.1,2.1-0.6C36.4,32,37.1,31.7,37.6,31.3L37.6,31.3z"/>
		<path class="st1" d="M13.9,51.9c1.9,0.8,6,1.3,8.3,1.5c3.1,0.3,6.4,0.2,9.4,0c3.9-0.3,8.6-0.7,12.1-2.5c0.8-0.5,2.3-1.4,2.4-2.4
			c-0.3,0.1-0.5,0.4-0.7,0.5c-6.1,4.2-20.1,3.8-27.2,3.2L13.9,51.9L13.9,51.9z"/>
		<path class="st1" d="M39,29.6c1.5-0.5,3.2-0.2,4.2,0.6c1,0.9,1,2.6,0.3,4c-1,1.8-3.1,3.3-4.7,4.5c-0.3,0.2-0.6,0.4-0.8,0.6
			c1.1-0.1,3.7-1.3,4.7-1.9c1.3-0.7,2.7-1.9,3.2-3.4c0.8-2.1-0.4-3.7-1.7-4.5c-0.7-0.5-1.7-0.7-2.7-0.6C40.6,28.9,39.3,29.2,39,29.6
			L39,29.6z"/>
	</g>
	<path class="st0" d="M82.8,65.9c1.7,0,3.3,0,5.1,0c0,1.2,0,2.3,0,3.6c-1.6,0-3.2,0-4.7,0s-3.2,0-4.8,0c0-5.7,0-11.2,0-16.9
		c3.2,0,6.3,0,9.6,0c0,1,0,3.5,0,3.5h-0.8c0,0-2.9,0-4.4,0c0,1,0,1.9,0,3c1.6,0,3.2,0,4.8,0c0,1.3,0,2.4,0,3.6c-1.6,0-3.2,0-4.7,0
		C82.8,63.9,82.8,64.8,82.8,65.9z"/>
	<path class="st0" d="M63.3,52.6c0,2.4,0,4.7,0,7.1c0,1.8,0,3.6,0,5.4c-0.1,2.3-1.4,3.9-3.7,4.6c-2.1,0.6-4.4,0.1-5.7-1.6
		c-0.2-0.3-0.3-0.8-0.2-1c0.7-0.8,1.4-1.7,2.2-2.6c0.3,0.6,0.4,0.8,0.6,0.9c0.5,0.3,0.9,0.7,1.4,0.7c0.4,0,0.8-0.7,0.9-1
		c0.2-0.6,0.1-1.2,0.1-1.9c0-3.3,0-6.8,0-10.1c0-0.2,0.1-0.3,0.1-0.5C60.4,52.6,61.7,52.6,63.3,52.6z"/>
	<path class="st0" d="M66.6,69.5c1.4-1.9,2.7-3.5,3.9-5.1c0.1-0.2,0.3-0.3,0.4-0.5c0.6-0.9,1.1-1.9,0.5-3c-0.6-1-1.8-1.1-2.9-0.9
		c-0.3,0-0.6,0.1-0.9,0.2c0-0.7,0-1.5,0-2.5c1.2,0,2.4-0.2,3.6,0c2.9,0.6,4.1,3.1,2.7,5.8c-0.6,1.1-1.3,2.1-2.1,3.4
		c1.2,0,2.3,0,3.5,0c-0.4,0.8-0.7,1.6-1,2.2c-0.1,0.2-0.4,0.4-0.6,0.4C71.4,69.5,69.2,69.5,66.6,69.5z"/>
	<path d="M123.5,48.1c-21,0-42,0-63,0c0-0.1,0-0.2,0-0.2c21,0,42,0,63,0C123.5,48,123.5,48,123.5,48.1z"/>
	<path class="st2" d="M71.7,37.9c-0.1,0.7,0.3,1.8-0.8,2.4c-1.3,0.8-2.7,1.3-4.2,0.8c-1-0.3-1.4-1.1-1.5-2.1
		c-0.1-1.1,0.1-2.3,1.2-2.7c1.5-0.5,3.2-0.6,4.7-0.7c0.1,0,0.5,0.5,0.5,0.6C71.8,36.7,71.7,37.2,71.7,37.9z"/>
	<path class="st2" d="M102.9,37.8c-0.1,0.7,0.4,1.7-0.6,2.4c-1.3,0.8-2.6,1.3-4.2,0.9c-0.9-0.2-1.4-0.9-1.6-1.9
		c-0.2-1-0.1-2.1,0.8-2.8c1.6-1.2,3.4-1,5.2-1c0.2,0,0.4,0.4,0.4,0.7C103,36.7,102.9,37.1,102.9,37.8z"/>
	<path class="st0" d="M95.7,65.9c1.7,0,3.3,0,5.1,0c0,1.2,0,2.3,0,3.6c-1.6,0-3.2,0-4.7,0c-1.6,0-3.2,0-4.8,0c0-5.7,0-11.2,0-16.9
		c3.2,0,6.3,0,9.6,0c0,1,0,3.5,0,3.5H100c0,0-2.9,0-4.4,0c0,1,0,1.9,0,3c1.6,0,3.2,0,4.8,0c0,1.3,0,2.4,0,3.6c-1.6,0-3.2,0-4.7,0
		C95.7,63.9,95.7,64.8,95.7,65.9z"/>
</g>
</svg>
