<?xml version="1.0" encoding="utf-8"?>
<!-- Generator: Adobe Illustrator 21.0.2, SVG Export Plug-In . SVG Version: 6.00 Build 0)  -->
<svg version="1.1" id="Layer_1" xmlns="http://www.w3.org/2000/svg" xmlns:xlink="http://www.w3.org/1999/xlink" x="0px" y="0px"
	 width="288px" height="72.2px" viewBox="0 0 288 72.2" style="enable-background:new 0 0 288 72.2;" xml:space="preserve">
<style type="text/css">
	.st0{fill:#017DC6;}
</style>
<path d="M132.2,61.7c0.7-3.6,1.4-7,2.1-10.4c1-5.2,2.1-10.4,3.1-15.6c0.6-3.1-1.3-5.7-4.4-6.1c-4.6-0.6-8.5,2.2-9.4,6.7
	c-1.7,8.4-3.4,16.8-5.1,25.3c-2.4,0-4.9,0-7.4,0c0.7-3.2,1.3-6.4,1.9-9.6c1.1-5.6,2.1-11.1,3.4-16.7c2-9,11.8-14.9,20.6-12.7
	c2.4,0.6,4.3,1.9,5.9,3.9c0.3-0.2,0.5-0.4,0.8-0.5c4.4-3.4,9.4-4.6,14.8-3.2c5.4,1.4,8.6,6.8,7.5,12.4c-1.7,8.6-3.4,17.1-5.2,25.7
	c-0.1,0.3-0.5,0.8-0.7,0.8c-2.2,0.1-4.5,0-6.8,0c0.6-2.9,1.1-5.6,1.7-8.3c1.2-5.9,2.4-11.8,3.5-17.7c0.6-3.3-1.6-6-4.9-6.1
	c-4.7-0.2-7.9,2.3-8.9,7c-1.6,7.9-3.2,15.7-4.7,23.6c-0.2,1.2-0.6,1.7-2,1.6C136.1,61.6,134.2,61.7,132.2,61.7z"/>
<path d="M171.2,57.4c-0.8,4.2-1.6,8.3-2.3,12.4c-2.4,0-4.7,0-7.1,0c0.7-3.5,1.3-6.9,2-10.4c2.3-11.8,4.6-23.5,6.8-35.3
	c0.2-1,0.5-1.2,1.5-1.2c1.9,0.1,3.8,0,5.9,0c-0.2,1.3-0.4,2.5-0.7,4c0.6-0.5,1-1,1.5-1.3c5.9-4.2,12.2-4.8,18.7-2
	c4,1.7,6.3,5.2,6.8,9.4c1.3,10.1-1.5,18.8-9.6,25.3c-4.9,3.9-10.6,4.9-16.7,3.5C175.5,61.3,174.3,60.5,171.2,57.4z M197,38.4
	c0-0.5,0-1,0-1.6c-0.3-4.3-2.9-7.6-6.7-8.3c-4.8-0.9-9,0.6-12.1,4.4c-3.7,4.5-5.2,9.9-4.4,15.7c0.4,3.4,2.2,5.9,5.6,7
	c4.8,1.5,10.1-0.2,13.1-4.1C195.5,47.7,196.9,43.3,197,38.4z"/>
<path d="M111.2,22.8c-0.6,3.4-1.2,6.5-1.8,9.7c-1.7,9.2-3.5,18.3-5.2,27.5c-0.8,4.3-2.8,7.8-7.2,9.4c-2.6,0.9-5.2,0.8-7.9,0.3
	c0.4-2.1,0.8-4,1.2-6.1c1,0,1.9,0.1,2.8,0.1c2.1,0,3.2-0.6,3.7-2.7c0.6-2.3,1-4.7,1.5-7c1.9-10.1,3.9-20.2,5.7-30.3
	c0.1-0.8,0.4-1,1.2-1C107,22.8,109,22.8,111.2,22.8z"/>
<path class="st0" d="M122.4,4.7c1.2,3.5,0.2,6.6-0.9,9.9c4.6-0.5,9-0.2,12.9,2.4c-13.4-0.7-19,7-20.5,19c-2.1-5.7-1.4-11.3,1.6-16.9
	c-5.2,0.5-9.8-0.4-14.1-3.6C111.5,17.6,119.2,15.8,122.4,4.7z"/>
<path d="M111.4,2.4c2.2,0,4,1.8,4,4c0,2.2-1.8,4.1-4,4.1c-2.2,0-4-1.8-4.1-4C107.3,4.3,109.2,2.4,111.4,2.4z"/>
</svg>
