<?xml version="1.0" encoding="utf-8"?>
<!-- Generator: Adobe Illustrator 21.0.0, SVG Export Plug-In . SVG Version: 6.00 Build 0)  -->
<svg version="1.1" id="Layer_1" xmlns="http://www.w3.org/2000/svg" xmlns:xlink="http://www.w3.org/1999/xlink" x="0px" y="0px"
	 viewBox="0 0 185 75" style="enable-background:new 0 0 185 75;" xml:space="preserve">
<style type="text/css">
	.st0{fill:#0669AC;}
	.st1{fill:#343433;}
</style>
<g>
	<g>
		<g>
			<path class="st0" d="M75.9,51.8c0,0.3,0,0.6-0.1,1l1.3-2.3L77,49.7l1.3-0.2l0.5,3.2l0.6-2c0-0.2,0.1-0.3,0.1-0.5
				c0-0.1,0-0.3-0.1-0.5l1.4-0.3c0.1,0.3,0.1,0.5,0.1,0.8c0,0.3-0.1,0.7-0.3,1.2l-1.1,2.9h-1.6l-0.3-2.2l-1.3,2.2h-1.6
				c0.1-2,0-3.3-0.2-4.7l1.3-0.2C75.9,50.3,75.9,51,75.9,51.8z"/>
			<path class="st0" d="M84.3,50.7c-0.6,0.3-0.9,0.5-1.4,0.8l-0.6,2.9h-1.4l1-4.7l1.2-0.2l-0.1,0.7c0.5-0.3,0.9-0.5,1.3-0.7
				L84.3,50.7z"/>
			<path class="st0" d="M85.2,49.7l1.4-0.2l-1,4.9h-1.4L85.2,49.7z M85.6,47.5l1.4-0.2l-0.3,1.5L85.3,49L85.6,47.5z"/>
			<path class="st0" d="M89.2,50.7l-0.5,2.4c0,0.1,0,0.1,0,0.1c0,0.1,0,0.1,0.1,0.1c0.2,0,0.5-0.1,0.8-0.2l0.2,1
				c-0.4,0.2-1,0.4-1.6,0.4c-0.7,0-1.1-0.3-1.1-0.9c0-0.1,0-0.1,0-0.2l0.6-2.7h-0.7l0.2-1.1H88l0.2-1.2l1.4-0.2l-0.3,1.4h1.2
				l-0.3,1.1L89.2,50.7L89.2,50.7z"/>
			<path class="st0" d="M90.9,51.3c0.2-1.1,0.8-1.8,2.3-1.8c0.9,0,1.6,0.4,1.6,1.2c0,0.9-0.5,1.4-1.7,1.7c-0.6,0.2-0.6,0.2-1,0.3
				L91.9,53c0,0.2,0,0.3,0.2,0.3c0.5,0,1.3-0.2,1.9-0.5l0.2,1c-0.6,0.4-1.5,0.7-2.4,0.7c-1,0-1.4-0.4-1.4-1.3c0-0.2,0-0.4,0.1-0.6
				L90.9,51.3z M93.4,50.8c0-0.2-0.1-0.3-0.4-0.3c-0.5,0-0.7,0.3-0.7,0.7l-0.1,0.3c0.2-0.1,0.3-0.1,0.6-0.2
				C93.2,51.3,93.4,51.1,93.4,50.8z"/>
			<path class="st0" d="M98.3,47.6l1.4-0.2l-1.5,7h-1.4L98.3,47.6z"/>
			<path class="st0" d="M99.9,51.3c0.2-1.1,0.8-1.8,2.3-1.8c0.9,0,1.6,0.4,1.6,1.2c0,0.9-0.5,1.4-1.7,1.7c-0.6,0.2-0.6,0.2-1,0.3
				L101,53c0,0.2,0,0.3,0.2,0.3c0.5,0,1.3-0.2,1.9-0.5l0.2,1c-0.6,0.4-1.5,0.7-2.4,0.7c-1,0-1.4-0.4-1.4-1.3c0-0.2,0-0.4,0.1-0.6
				L99.9,51.3z M102.5,50.8c0-0.2-0.1-0.3-0.4-0.3c-0.5,0-0.7,0.3-0.7,0.7l-0.1,0.3c0.2-0.1,0.4-0.1,0.6-0.2
				C102.3,51.3,102.5,51.1,102.5,50.8z"/>
			<path class="st0" d="M103.9,54.2l0.3-1c0.4,0.1,0.8,0.2,1.3,0.2c0.5,0,0.5-0.1,0.5-0.4c0-0.2-0.1-0.3-0.6-0.6
				c-1-0.5-1-0.9-0.9-1.6c0.2-1,0.5-1.3,1.9-1.3c0.5,0,1,0.1,1.4,0.2l-0.3,1.1c-0.4-0.1-0.9-0.2-1.2-0.2c-0.4,0-0.5,0-0.5,0.3
				c0,0.2,0,0.3,0.5,0.5c1.1,0.6,1.3,0.8,1.1,1.6c-0.2,1.1-0.6,1.5-2,1.5C105,54.5,104.3,54.4,103.9,54.2z"/>
			<path class="st0" d="M107.9,54.2l0.3-1c0.4,0.1,0.8,0.2,1.3,0.2c0.5,0,0.5-0.1,0.5-0.4c0-0.2-0.1-0.3-0.6-0.6
				c-1-0.5-1-0.9-0.9-1.6c0.2-1,0.5-1.3,1.9-1.3c0.5,0,1,0.1,1.4,0.2l-0.3,1.1c-0.4-0.1-0.9-0.2-1.2-0.2c-0.4,0-0.5,0-0.5,0.3
				c0,0.2,0,0.3,0.5,0.5c1.1,0.6,1.3,0.8,1.1,1.6c-0.2,1.1-0.6,1.5-2,1.5C109,54.5,108.4,54.4,107.9,54.2z"/>
			<path class="st0" d="M111.8,55.5l0.8-1.1H112l0.3-1.6h1.4l-0.4,1.8l-1.2,1.4L111.8,55.5z"/>
			<path class="st0" d="M119.4,54.4l0-0.4c-0.4,0.3-0.9,0.5-1.6,0.5c-1.1,0-1.3-0.6-1.1-1.7l0.3-1.3c0.2-1.2,0.6-2,2.6-2
				c0.1,0,0.5,0,0.6,0.1l0.4-1.9l1.4-0.2l-1.5,7C120.6,54.4,119.4,54.4,119.4,54.4z M118.1,52.9c-0.1,0.3,0,0.4,0.3,0.4
				c0.5,0,0.9-0.3,1.1-0.5l0.5-2.2c-0.2,0-0.3,0-0.5,0c-0.7,0-0.9,0.4-1,0.9L118.1,52.9z"/>
			<path class="st0" d="M121.9,52.9c0-0.1,0-0.2,0-0.3l0.2-1.1c0.3-1.2,0.9-2,2.6-2c1.3,0,1.9,0.7,1.8,1.6c0,0.1,0,0.2,0,0.3
				l-0.2,1.1c-0.3,1.2-0.8,2-2.6,2C122.5,54.5,121.9,53.7,121.9,52.9z M125.2,51.2c0-0.4-0.2-0.5-0.7-0.5c-0.5,0-0.8,0.3-0.9,0.7
				l-0.3,1.2c0,0.1,0,0.1,0,0.2c0,0.3,0.2,0.5,0.7,0.5c0.5,0,0.8-0.3,0.9-0.7l0.3-1.2C125.2,51.3,125.2,51.2,125.2,51.2z"/>
			<path class="st0" d="M135.1,51.1c0-0.1,0-0.1,0-0.1c0-0.1,0-0.1-0.2-0.1c-0.3,0-0.9,0.3-1.3,0.5l-0.7,3.1h-1.4l0.7-3.3
				c0-0.1,0-0.1,0-0.1c0-0.1,0-0.1-0.2-0.1c-0.3,0-0.9,0.3-1.3,0.5l-0.7,3.1h-1.4l1-4.7l1.2-0.2l0,0.5c0.8-0.4,1.4-0.5,1.9-0.5
				c0.5,0,0.7,0.2,0.8,0.6c0.7-0.4,1.4-0.6,2-0.6c0.6,0,0.9,0.4,0.8,1c0,0.2,0,0.4-0.1,0.6l-0.7,3.4h-1.4L135.1,51.1z"/>
			<path class="st0" d="M137.1,52.9c0-0.1,0-0.2,0-0.3l0.2-1.1c0.3-1.2,0.9-2,2.6-2c1.3,0,1.9,0.7,1.8,1.6c0,0.1,0,0.2,0,0.3
				l-0.2,1.1c-0.3,1.2-0.8,2-2.6,2C137.7,54.5,137.1,53.7,137.1,52.9z M140.4,51.2c0-0.4-0.2-0.5-0.7-0.5c-0.5,0-0.8,0.3-0.9,0.7
				l-0.3,1.2c0,0.1,0,0.1,0,0.2c0,0.3,0.2,0.5,0.7,0.5c0.5,0,0.8-0.3,0.9-0.7l0.3-1.2C140.4,51.3,140.4,51.2,140.4,51.2z"/>
			<path class="st0" d="M145.5,50.7c-0.6,0.3-0.9,0.5-1.4,0.8l-0.6,2.9h-1.4l1-4.7l1.2-0.2l-0.1,0.7c0.5-0.3,0.9-0.5,1.3-0.7
				L145.5,50.7z"/>
			<path class="st0" d="M145.8,51.3c0.2-1.1,0.8-1.8,2.3-1.8c0.9,0,1.6,0.4,1.6,1.2c0,0.9-0.5,1.4-1.7,1.7c-0.6,0.2-0.6,0.2-1,0.3
				l-0.1,0.3c0,0.2,0,0.3,0.2,0.3c0.5,0,1.3-0.2,1.9-0.5l0.2,1c-0.6,0.4-1.5,0.7-2.4,0.7c-1,0-1.4-0.4-1.4-1.3c0-0.2,0-0.4,0.1-0.6
				L145.8,51.3z M148.4,50.8c0-0.2-0.1-0.3-0.4-0.3c-0.5,0-0.7,0.3-0.7,0.7l-0.1,0.3c0.2-0.1,0.3-0.1,0.6-0.2
				C148.2,51.3,148.4,51.1,148.4,50.8z"/>
			<path class="st0" d="M150.3,52.7h1.4l-0.3,1.6h-1.4L150.3,52.7z"/>
		</g>
	</g>
	<path class="st0" d="M21.9,26.1c-2.4,3.4-2.1,7.8-0.3,11.4c0,0.1,0.1,0.2,0.1,0.3c0,0.1,0.1,0.1,0.1,0.2c0,0,0,0.1,0.1,0.1
		c0,0.1,0.1,0.1,0.1,0.2c0.1,0.1,0.1,0.2,0.2,0.3c0,0.1,0.1,0.1,0.1,0.2c0.1,0.1,0.1,0.2,0.2,0.3c0,0,0.1,0.1,0.1,0.1
		c0.1,0.1,0.2,0.3,0.3,0.4c0,0,0,0,0,0c0,0,0,0,0,0.1c0.1,0.1,0.2,0.2,0.3,0.4c0,0,0.1,0.1,0.1,0.1c0.1,0.1,0.2,0.2,0.2,0.3
		c0,0,0.1,0.1,0.1,0.1c0.1,0.1,0.2,0.3,0.3,0.4c0,0,0,0,0,0c0,0,0,0,0,0c0.1,0.1,0.2,0.2,0.3,0.4c0,0,0.1,0.1,0.1,0.1
		c0.1,0.1,0.2,0.2,0.3,0.3c0,0,0.1,0.1,0.1,0.1c0.1,0.1,0.2,0.2,0.4,0.3c0,0,0,0,0,0c0,0,0,0,0.1,0.1c0.1,0.1,0.2,0.2,0.3,0.3
		c0,0,0.1,0.1,0.1,0.1c0.1,0.1,0.2,0.1,0.3,0.2c0.1,0,0.1,0.1,0.2,0.1c0.1,0.1,0.2,0.2,0.3,0.2c0,0,0.1,0.1,0.1,0.1c0,0,0,0,0,0
		c0.1,0.1,0.2,0.1,0.3,0.2c0,0,0.1,0.1,0.1,0.1c0.2,0.1,0.3,0.2,0.5,0.3c0,0,0.1,0.1,0.1,0.1c0.1,0.1,0.2,0.1,0.4,0.2
		c0.1,0,0.1,0.1,0.2,0.1c0.1,0,0.2,0.1,0.3,0.1c0,0,0,0,0.1,0c0,0,0.1,0,0.1,0.1c0.1,0.1,0.3,0.1,0.4,0.2c0,0,0.1,0,0.1,0
		c0.2,0.1,0.3,0.1,0.5,0.2c0,0,0.1,0,0.1,0c0.1,0.1,0.3,0.1,0.5,0.2c0,0,0,0,0.1,0c0.2,0.1,0.3,0.1,0.5,0.2c0,0,0.1,0,0.1,0
		c0.2,0.1,0.3,0.1,0.5,0.1c11.4,2.1,14.8-6.9,14.8-6.9c-2.8,3.6-7.8,4.6-12.4,3.5c-0.2,0-0.3-0.1-0.5-0.1c0,0-0.1,0-0.1,0
		c-0.2-0.1-0.3-0.1-0.5-0.2c0,0,0,0-0.1,0c-0.1-0.1-0.3-0.1-0.4-0.2c0,0-0.1,0-0.1,0c-0.2-0.1-0.3-0.1-0.5-0.2c0,0-0.1,0-0.1,0
		c-0.1-0.1-0.3-0.1-0.4-0.2c0,0-0.1,0-0.1-0.1c-0.1-0.1-0.2-0.1-0.3-0.2c-0.1,0-0.1-0.1-0.2-0.1c-0.1-0.1-0.3-0.1-0.4-0.2
		c0,0-0.1,0-0.1-0.1c-0.2-0.1-0.3-0.2-0.5-0.3c0,0-0.1-0.1-0.1-0.1c-0.1-0.1-0.2-0.2-0.3-0.2c0,0-0.1-0.1-0.1-0.1
		c-0.1-0.1-0.2-0.2-0.3-0.2c0,0-0.1-0.1-0.1-0.1c-0.1-0.1-0.2-0.2-0.3-0.2c0,0-0.1-0.1-0.1-0.1c-0.1-0.1-0.2-0.2-0.4-0.3
		c0,0,0,0,0,0c-0.1-0.1-0.3-0.2-0.4-0.4c0,0-0.1-0.1-0.1-0.1c-0.1-0.1-0.2-0.2-0.3-0.3c0,0-0.1-0.1-0.1-0.1
		c-0.1-0.1-0.2-0.2-0.3-0.4c0,0,0,0,0,0c-0.1-0.1-0.2-0.3-0.3-0.4c0,0-0.1-0.1-0.1-0.1c-0.1-0.1-0.2-0.2-0.3-0.3
		c0,0-0.1-0.1-0.1-0.1c-0.1-0.1-0.2-0.3-0.3-0.4c-2.6-3.6-3.5-8.5-1.5-12.5"/>
	<path class="st0" d="M29.2,23.2c-1.7,2.5-1.6,5.8-0.3,8.4c0.2,0.4,0.5,0.9,0.8,1.3c0.3,0.4,0.5,0.8,0.9,1.1
		c0.1,0.1,0.3,0.3,0.4,0.4c0,0,0.1,0.1,0.1,0.1c0.1,0.1,0.3,0.2,0.4,0.4c0,0,0,0,0,0c0,0,0,0,0,0c0.1,0.1,0.3,0.3,0.5,0.4
		c0,0,0.1,0.1,0.1,0.1c0.2,0.1,0.3,0.2,0.5,0.4c0,0,0,0,0,0c0.1,0.1,0.1,0.1,0.2,0.1c0,0,0.1,0,0.1,0.1c0.1,0.1,0.2,0.1,0.4,0.2
		c0,0,0,0,0.1,0c0.1,0.1,0.2,0.1,0.3,0.2c0,0,0.1,0,0.1,0.1c0.1,0,0.1,0.1,0.2,0.1c0,0,0,0,0,0c0.2,0.1,0.3,0.1,0.5,0.2
		c0,0,0.1,0,0.1,0c0.1,0.1,0.3,0.1,0.4,0.2c0.1,0,0.1,0,0.2,0.1c0.1,0,0.2,0.1,0.3,0.1c0.1,0,0.1,0,0.2,0.1c0.2,0.1,0.3,0.1,0.5,0.1
		c8.8,1.5,10.9-5.3,10.9-5.3c-1.8,2.7-5.4,3.9-9.2,2.9c-0.2,0-0.3-0.1-0.5-0.1c-0.1,0-0.1,0-0.1,0c-0.1,0-0.2-0.1-0.4-0.1
		c-0.1,0-0.1,0-0.2-0.1c-0.1,0-0.3-0.1-0.4-0.2c0,0-0.1,0-0.1,0c-0.2-0.1-0.3-0.1-0.5-0.2c-0.1,0-0.2-0.1-0.2-0.1c0,0-0.1,0-0.1-0.1
		c-0.1-0.1-0.2-0.1-0.3-0.2c0,0,0,0-0.1,0c-0.1-0.1-0.2-0.1-0.4-0.2c0,0-0.1,0-0.1-0.1c-0.1-0.1-0.2-0.1-0.2-0.2
		c-0.2-0.1-0.3-0.2-0.5-0.3c0,0-0.1-0.1-0.1-0.1c-1.7-1.3-3-3.1-3.6-5.1c-0.7-2.1-0.5-4.5,0.6-6.4"/>
	<path class="st0" d="M35.4,21.1c-1,1.5-1.1,3.3-0.4,5c0.7,1.7,2.3,3.1,4,3.8c0.1,0,0.1,0.1,0.2,0.1c0,0,0.1,0,0.1,0
		c0.1,0,0.2,0.1,0.3,0.1c4.9,0.9,6.2-2.5,6.6-3c-1.2,1.7-3.1,2.1-5.5,1.5c-0.2,0-0.4-0.1-0.6-0.2c-0.2-0.1-0.5-0.2-0.7-0.3
		c-0.4-0.2-0.8-0.5-1.2-0.7c-2.1-1.6-3.5-4.7-2.1-7.2"/>
	<path class="st1" d="M148.5,28.1l0.2,0.8c0.1,0.2-0.1,0.4-0.3,0.4"/>
	<path class="st1" d="M133.1,26.7c0,0.2-0.1,0.5-0.1,0.7l-1.7,7.9l1.8-8.3L133.1,26.7z"/>
	<polygon class="st1" points="82.5,32 81.6,35.3 82.5,32 	"/>
	<path class="st1" d="M148.7,28.9l-0.5-2.1c-0.4-1.5-1.5-2.2-3.9-2.2H134c-0.2,0-0.5,0.1-0.5,0.3l-3.9,18.5c-0.1,0.2-0.1,0.4,0,0.5
		c0,0.1,0.5,0.1,0.7,0.1h3.6c0.2,0,0.7,0,0.8,0c0.1-0.1,0.2-0.4,0.2-0.6l1.3-6.5l1.5-7.2c0.1-0.2,0.3-0.4,0.5-0.4l10.2,0
		C148.6,29.3,148.8,29.1,148.7,28.9"/>
	<path class="st1" d="M163.2,21.4c-0.2,0-4.5,0-4.5,0c-0.2,0-0.5,0.3-0.7,0.4l-7.9,11.7c-0.1,0.2-0.3,0.2-0.3,0l-0.6-2.6
		c-0.1-0.2-0.3-0.4-0.5-0.4h-5.1c-0.2,0-0.4,0.2-0.3,0.4l2.3,8c0.1,0.2,0.1,0.6,0,0.8l-1.1,4.1c-0.1,0.2,0.1,0.3,0.3,0.3h5
		c0.2,0,0.5-0.1,0.5-0.3l1.1-4.1c0.1-0.2,0.2-0.5,0.4-0.7l12.9-17.2c0.1-0.2,0.1-0.4-0.1-0.4L163.2,21.4z"/>
	<path class="st1" d="M110.1,24.6h-4.6c-0.2,0-0.5,0.1-0.5,0.3l-1.5,7.1l-1.5,6.8c0,0.2-0.3,0.2-0.5,0.2h-3c-3,0-2.6-1.9-2-4.7
		c0,0,1.9-9.4,1.9-9.4c0-0.2-0.1-0.3-0.3-0.3h-4.4c-0.2,0-0.5,0.1-0.5,0.3l-1.8,9.4c-0.9,5.1-0.9,9.6,5,9.7c0.1,0,9.3,0,9.3,0
		c0.2,0,0.5-0.1,0.5-0.3l2-9.4l2-9.5C110.1,24.8,110.2,24.6,110.1,24.6z"/>
	<path class="st1" d="M64.3,24.6h-4.9c-0.2,0-0.5,0.1-0.5,0.3L58,28.8c-0.1,0.2,0.1,0.4,0.3,0.4H63c0.2,0,0.5-0.2,0.5-0.4l0.9-3.9
		C64.4,24.8,64.5,24.6,64.3,24.6z"/>
	<path class="st1" d="M58,30.5c-0.2,0-0.5,0.2-0.5,0.4l-0.7,2.9l-1.5,6.8c0,0-0.8,3.6-0.9,3.8c0,0-0.7,2.6-2.3,2.5
		c-0.7,0-1.6-0.2-1.6-0.2h0c-0.4-0.1-0.5,0.3-0.5,0.6l-1,4.2c-0.1,0.2,0.1,0.4,0.3,0.4c0,0,2.1,0.3,3.6,0.3h0.2
		c3.7,0,5.7-2.2,6.9-8.1l1.5-6.8l1.4-6.4c0.1-0.2-0.1-0.4-0.3-0.4"/>
	<path class="st1" d="M121.8,24.6c-8.3,0-10.3,5.1-11.4,10.2c-1.1,5.2-1,9.3,7.6,9.3h0.3c3.4,0,7.5,0,7.5,0c0.2,0,0.5-0.2,0.5-0.4
		l0.8-3.3c0-0.2-0.1-0.3-0.3-0.3h-7.7c-2.8,0-3.8-0.9-3.7-2.8c0-0.2,0.3-0.8,0.5-0.8h11.9c0.5,0,0.5-0.3,0.5-0.3
		C129.5,30.7,129.6,24.6,121.8,24.6 M124,32.7c0,0.3-0.8,0.2-0.8,0.2l-6.5,0c-0.2,0-0.3-0.3-0.3-0.5c0,0,0-0.3,0-0.3
		c0.5-1.7,2-2.7,4.4-2.7c2.7,0,3.2,1.3,3.2,2.8"/>
	<path class="st1" d="M85.9,38.7c0,0,2.3-5.6,2.9-8.9c0.7-4.4-1.5-10.7-9.9-10.7c-8.4,0-12,6-13.4,12.6c-1.4,6.6,0.4,12.4,8.8,12.3
		l12.7,0c0.2,0,0.5-0.2,0.5-0.4l1.1-4.1c0.1-0.2-0.1-0.4-0.3-0.4l-1,0l-1,0C86,39.1,85.9,39,85.9,38.7
		C85.9,38.8,85.9,38.8,85.9,38.7 M81.5,35.3l-1,3.3c-0.1,0.2-0.3,0.4-0.6,0.4h-4.9c-3.7,0-4.7-2.9-3.7-7.2c0.9-4.4,2.7-7.1,6.4-7.4
		c5-0.4,6.1,3.2,4.8,7.3L81.5,35.3z"/>
</g>
</svg>
