<?xml version="1.0" encoding="utf-8"?>
<!-- Generator: Adobe Illustrator 21.0.0, SVG Export Plug-In . SVG Version: 6.00 Build 0)  -->
<svg version="1.1" id="Layer_1" xmlns="http://www.w3.org/2000/svg" xmlns:xlink="http://www.w3.org/1999/xlink" x="0px" y="0px"
	 viewBox="0 0 160 60" style="enable-background:new 0 0 160 60;" xml:space="preserve">
<style type="text/css">
	.st0{fill:#010101;}
</style>
<g>
	<path class="st0" d="M54,32.3c-1.7,0-3.2,0.7-4.2,1.9l-2.7-1.9c0.3-0.8,0.4-1.6,0.4-2.5c0-0.9-0.2-1.7-0.4-2.4l2.6-1.9
		c1,1.2,2.5,1.9,4.2,1.9c3.1,0,5.6-2.5,5.6-5.6c0-3.1-2.5-5.6-5.6-5.6c-3.1,0-5.6,2.5-5.6,5.6c0,0.6,0.1,1.1,0.2,1.6L46,25.3
		c-1.1-1.4-2.7-2.3-4.5-2.6v-3.2c2.6-0.5,4.5-2.8,4.5-5.5c0-3.1-2.5-5.6-5.6-5.6s-5.6,2.5-5.6,5.6c0,2.7,1.9,4.9,4.4,5.5v3.2
		c-3.4,0.6-6,3.6-6,7.2c0,3.6,2.6,6.6,6.1,7.2v3.4c-2.5,0.6-4.4,2.8-4.4,5.5c0,3.1,2.5,5.6,5.6,5.6s5.6-2.5,5.6-5.6
		c0-2.7-1.9-5-4.4-5.5v-3.4c1.7-0.3,3.3-1.2,4.4-2.6l2.7,1.9c-0.1,0.5-0.2,1-0.2,1.6c0,3.1,2.5,5.6,5.6,5.6c3.1,0,5.6-2.5,5.6-5.6
		C59.7,34.9,57.1,32.3,54,32.3L54,32.3z M54,19.1c1.5,0,2.7,1.2,2.7,2.7c0,1.5-1.2,2.7-2.7,2.7c-1.5,0-2.7-1.2-2.7-2.7
		S52.5,19.1,54,19.1L54,19.1z M37.6,14c0-1.5,1.2-2.7,2.7-2.7c1.5,0,2.7,1.2,2.7,2.7s-1.2,2.7-2.7,2.7C38.8,16.7,37.6,15.5,37.6,14z
		 M43,46c0,1.5-1.2,2.7-2.7,2.7c-1.5,0-2.7-1.2-2.7-2.7c0-1.5,1.2-2.7,2.7-2.7C41.8,43.3,43,44.5,43,46z M40.3,33.7
		c-2.1,0-3.8-1.7-3.8-3.8c0-2.1,1.7-3.8,3.8-3.8c2.1,0,3.8,1.7,3.8,3.8C44.1,32,42.4,33.7,40.3,33.7z M54,40.7
		c-1.5,0-2.7-1.2-2.7-2.7c0-1.5,1.2-2.7,2.7-2.7c1.5,0,2.7,1.2,2.7,2.7C56.8,39.5,55.5,40.7,54,40.7z"/>
	<g>
		<path class="st0" d="M67.8,21.3h3v9.1l4.3-4.8h3.6l-5.2,5.5l5.2,7h-3.4l-4.5-6.2v6.2h-3V21.3z"/>
		<path class="st0" d="M92.4,38.1h-3v-1.8c-0.8,1.5-2.5,2.2-4.2,2.2c-4,0-6.4-3.1-6.4-6.6c0-3.9,2.8-6.6,6.4-6.6
			c2.3,0,3.7,1.2,4.2,2.2v-1.8h3V38.1z M81.9,31.9c0,1.5,1.1,3.8,3.8,3.8c1.7,0,2.8-0.9,3.3-2c0.3-0.5,0.4-1.1,0.5-1.8
			c0-0.6-0.1-1.2-0.3-1.8C88.6,29,87.4,28,85.6,28C83.2,28,81.9,30,81.9,31.9L81.9,31.9L81.9,31.9z"/>
		<path class="st0" d="M95.6,27.9H94v-2.3h1.5v-0.7c0-3.7,2.8-3.9,5-4v2.3c-0.8,0-2,0-2,1.8v0.6h2v2.3h-2v10.2h-3V27.9z"/>
		<path class="st0" d="M102.3,21.3h3v9.1l4.3-4.8h3.6l-5.2,5.5l5.2,7h-3.4l-4.5-6.2v6.2h-3C102.3,38.1,102.3,21.3,102.3,21.3z"/>
		<path class="st0" d="M127,38.1h-3v-1.8c-0.8,1.5-2.5,2.2-4.2,2.2c-4,0-6.4-3.1-6.4-6.6c0-3.9,2.8-6.6,6.4-6.6
			c2.3,0,3.7,1.2,4.2,2.2v-1.8h3V38.1z M116.4,31.9c0,1.5,1.1,3.8,3.8,3.8c1.7,0,2.8-0.9,3.3-2c0.3-0.5,0.4-1.1,0.5-1.8
			c0-0.6-0.1-1.2-0.3-1.8c-0.5-1.2-1.7-2.2-3.5-2.2C117.8,28,116.4,30,116.4,31.9L116.4,31.9L116.4,31.9z"/>
	</g>
</g>
</svg>
