<?xml version="1.0" encoding="utf-8"?>
<!-- Generator: Adobe Illustrator 21.0.0, SVG Export Plug-In . SVG Version: 6.00 Build 0)  -->
<svg version="1.1" id="Layer_1" xmlns="http://www.w3.org/2000/svg" xmlns:xlink="http://www.w3.org/1999/xlink" x="0px" y="0px"
	 viewBox="0 0 583.3 113.3" style="enable-background:new 0 0 583.3 113.3;" xml:space="preserve">
<style type="text/css">
	.st0{fill:#54565A;}
	.st1{fill:#74BB20;}
	.st2{fill:#74BC20;}
	.st3{fill:#FDFDFD;}
	.st4{fill:#B4B5B7;}
</style>
<g>
	<path class="st0" d="M75.9,59.7c-0.1,5.6,0,11.3,0.2,16.8c0.1,2.5,0.1,5.1,0.3,7.5c0.2,3.3,0.5,6.7,0.8,10c0.1,0.9,0,1.6,0.2,2.5
		c0.2,0.8-0.5,0.6-0.9,0.6c-3.6,0-7.2,0-10.8,0c-2.1,0-4.2,0-6.3,0c-0.8,0-1.1-0.2-1.1-1.1c0.3-12.4,0.4-24.8,0.5-37.2
		c0.1-11.5,0.1-23-0.3-34.5c-0.1-1.9,0.2-3.8-0.4-5.6c-0.2-0.6,0.1-0.8,0.8-0.8c5.8,0,11.6,0,17.4,0c0.7,0,0.9,0.1,0.8,0.9
		c-0.6,8.2-0.8,16.5-1,24.7c-0.1,3.1,0,6,0,9.1c0.3-0.1,0.4-0.5,0.6-0.7c6.6-9.8,13.3-19.8,19.9-29.6c1.9-2.9,4.5-4.3,8-4.3
		c5.6,0.1,11.4,0,17.1,0c0,0.4-0.3,0.5-0.4,0.7c-3.4,3.3-6.4,7.2-9.4,10.9c-4.7,5.9-9.1,11.9-13.6,18c-1.8,2.5-3.6,5.1-5.5,7.6
		c-0.3,0.4-0.1,0.7,0.1,1c3.9,6.1,7.8,12.2,11.9,18.2c3.5,5.3,7.2,10.5,11,15.6c1.7,2.3,3.4,4.6,5.5,6.6c0.1,0.1,0.3,0.2,0.3,0.6
		c-0.3,0-0.7,0-1.1,0c-5.3,0-10.7-0.1-16,0c-3.8,0.1-6.4-1.5-8.3-4.8c-4.2-7-8.5-13.8-12.8-20.8c-2.4-3.9-4.9-7.9-7.3-11.8
		C76,59.7,76,59.7,75.9,59.7c0-0.1,0-0.1,0-0.2C75.9,59.6,75.9,59.6,75.9,59.7z"/>
	<path class="st1" d="M376.7,58.1c0,7.8-2.1,15.3-6.6,22c-3.3,4.9-7.5,8.7-12.7,11.6c-3.9,2.3-8.2,3.6-12.5,4.6
		c-3.3,0.7-6.9,0.7-10.3,0.6c-3.7-0.1-7.4-0.8-11-1.8c-4.7-1.4-8.9-3.5-12.7-6.5c-3.6-2.8-6.5-6.2-8.9-10.1
		c-2.1-3.5-3.6-7.3-4.5-11.3c-0.5-1.9-0.8-4-0.9-6c-0.1-1.8-0.2-3.6-0.1-5.3c0.3-4.8,1.2-9.5,3.2-13.9c1.2-2.8,2.7-5.3,4.5-7.7
		c3.1-4.1,6.8-7.3,11.2-9.8c3.1-1.7,6.3-3.1,9.7-3.9c2.3-0.6,4.6-1,6.9-1.1c2.4-0.2,4.7-0.3,7.1-0.2c7,0.5,13.6,2.3,19.6,5.9
		c2.6,1.5,4.9,3.3,7,5.4c4.8,4.9,8,10.6,9.6,17.2c0.8,2.9,1.2,5.8,1.1,8.9C376.5,56.9,376.8,57.4,376.7,58.1z M307.7,57.9
		c0,0.7,0,1.2,0,1.9s0.1,1.2,0.2,1.9c0.8,6.7,3.2,12.7,7.9,17.4c9.2,8.9,20.1,10.6,31.7,6.4c12.5-4.5,18.1-16.5,18-27.9
		c0-4.3-0.9-8.4-2.6-12.3c-3-6.8-7.8-11.7-14.7-14.6c-4.4-1.8-8.9-2.4-13.6-2.2c-7,0.4-13.2,2.8-18.2,7.6
		C310.4,42,307.8,49.5,307.7,57.9z"/>
	<path class="st0" d="M299.3,18.1c-1.9,3.4-3.3,7.1-4.8,10.6c-3.8,9.3-7.4,18.5-11,27.9c-3.8,9.9-7.7,19.9-11.6,29.9
		c-1,2.4-1.7,4.8-2.9,7.1c-1.1,2.4-3.1,3.7-5.7,3.7c-4.7,0.1-9.4,0-14,0.1c-0.7,0-0.7-0.2-0.4-0.8c3-5.4,5.3-11.3,7.5-17
		c1.9-4.7,3.8-9.5,5.7-14.1c0.6-1.3,1.1-2.6,1.7-4.1c-1.7,0-3.2,0-4.9,0c-1.9,0-3.8,0-5.7-0.1c-2.4-0.1-4-1.2-5-3.3
		c-1.2-2.8-2.3-5.6-3.3-8.6c-1.5-4.2-3.1-8.5-4.4-12.8c-1.1-3.5-2.2-7-3.5-10.4c-1.1-2.8-2.1-5.4-3.7-7.8c0.2-0.3,0.4-0.2,0.6-0.2
		c4.5,0,9,0,13.4,0c1.6,0,3.2,0.3,4.7,1.2c2.1,1.3,2.9,3.3,3.5,5.5c2.5,8.2,4.8,16.4,7.4,24.6c0.8,2.4,1.5,4.8,2.4,7.4
		c0.6-1.2,1-2.3,1.3-3.2c1.2-3.3,2.6-6.8,3.8-10.1c1.4-4,2.8-8,4.2-11.9c1.1-3.2,2.3-6.3,3.7-9.4c1.2-2.7,3.4-4,6.3-4
		C289.7,18,294.4,18.1,299.3,18.1z"/>
	<path class="st2" d="M522.1,28.6c-2.1,2.5-4.6,4.7-6.7,7.1c-0.4,0.5-0.7,0.7-1.2,0.1c-2.4-2.2-5.3-3.8-8.2-5.2
		c-2.5-1.1-5.2-1.6-7.8-1.9c-2.6-0.4-5.2-0.3-7.7-0.1c-3,0.3-5.7,0.9-8.5,2c-3.9,1.6-7.4,4-10.1,7.4c-3.1,3.6-5.2,7.7-6.2,12.3
		c-2.1,9.5-0.7,18.4,5.5,26.3c4.4,5.6,10.2,9.1,17.3,10.3c7.8,1.4,15.5,0.6,22.9-2.3c2.2-0.9,2.2-0.9,2.2-3.1c0-5.8,0-11.7,0-17.6
		c0-0.8-0.2-1-1-1c-5.1,0-10,0-15.1,0c-0.8,0-1-0.2-1-1c0-2.5,0-5.1,0-7.6c0-0.7,0.1-1,0.9-1c8.6,0,17.2,0,25.9,0
		c0.7,0,0.8,0.2,0.8,0.9c0,11.6,0,23.3,0,35c0,1-0.7,1.1-1.1,1.4c-4.9,2.5-10.1,3.9-15.5,5c-2.8,0.5-5.5,0.9-8.4,1.1
		c-1.9,0.2-3.9,0-5.9,0c-4.5,0-8.9-0.8-13.2-2.2c-3.4-1.1-6.7-2.6-9.7-4.6c-2.1-1.4-4.1-3-5.9-4.9c-3.9-4.1-6.7-8.8-8.5-14.1
		c-0.9-2.5-1.4-5.1-1.8-7.6c-0.4-2.5-0.3-5-0.2-7.4c0.1-5.1,1.2-9.8,3.2-14.4c1.4-3.3,3.3-6.4,5.7-9.2c5.8-6.8,13.3-10.9,22-12.6
		c4.4-0.9,8.9-1.1,13.5-0.8c5.5,0.4,11.1,1.3,16.1,3.7C516.9,24.3,519.7,26.1,522.1,28.6z"/>
	<path class="st0" d="M140.6,58.3c1-1.9,2-3.7,3-5.6c0.9-1.8,2.4-2.3,4.1-2.3c4.7,0,9.4,0,14.1,0c0.7,0,1.2,0,1.9,0
		c0.6,0,0.8,0.1,0.5,0.7c-1.1,2.1-2.2,4.1-3.2,6.2c-0.5,0.9-0.8,1.7-1.6,2.3c-1.1,0.8-2.2,1.1-3.5,1.1c-4.7,0-9.4,0-14.1,0
		c-0.4,0-0.8,0-1.1,0c-0.1,0-0.2,0-0.2,0.2c0,6.2-0.1,12.5-0.1,18.7c0,1.7,0,3.3,0,5.1c0,2.2,1.1,3.3,3.3,3.3c8.5,0,17,0,25.5,0
		c0.4,0,0.8,0,1.2,0c-1,1.8-1.9,3.6-2.9,5.3c-0.6,1.1-1.1,2.2-1.7,3.2c-0.2,0.5-0.5,0.7-1.1,0.7c-13.8,0-27.6,0-41.4,0
		c-0.6,0-1-0.1-0.9-0.8c0.4-2.1,0-4.3,0.3-6.4c0.2-1.5,0.2-3.2,0.2-4.7c0.3-16.5,0.3-33,0-49.6c-0.1-3.4-0.1-7-0.4-10.4
		c-0.1-2.1-0.2-4.3-0.4-6.4c-0.1-0.7,0.2-0.8,0.8-0.8c13.7,0,27.3,0,41.1,0c0.6,0,0.8,0.2,1,0.7c1.2,2.6,2.4,5.2,3.7,7.8
		c-1,0-1.8,0-2.8,0c-7.3,0-14.5,0-21.8-0.1c-2.6,0-3.9,1.7-3.9,3.9c0.1,9.3,0,18.6-0.1,27.9c0,0.1,0,0.1,0.1,0.2
		C140.6,58.4,140.6,58.3,140.6,58.3z"/>
	<path class="st2" d="M382.9,58.1c0-4,0.5-7.9,1.6-11.7s2.8-7.4,5.1-10.8c1.6-2.4,3.4-4.7,5.6-6.6c5.1-4.6,11-7.4,17.6-8.9
		c4.3-1,8.7-1.3,13.1-1c6.9,0.5,13.4,2.4,19,6.6c1.7,1.2,3.3,2.7,4.7,4.3c0.3,0.4,0.3,0.6-0.1,0.9c-2.6,1.9-5.3,3.8-7.8,5.7
		c-0.3,0.3-0.5,0.2-0.9-0.2c-2.5-2.8-5.4-4.9-9-6.2c-2.1-0.8-4.2-1.3-6.4-1.5c-4.5-0.5-8.9,0-13.1,1.5c-5.8,2.1-10.3,5.8-13.6,11.1
		c-2.6,4.1-4,8.6-4.5,13.4c-0.9,8.3,0.9,16,6,22.6c3.8,4.9,8.9,7.9,15,9.4c5.3,1.2,10.6,1.2,15.8-0.5c4.3-1.5,7.9-4,10.8-7.6
		c0.9-1.1,0.9-1.1,1.9-0.3c2.4,1.7,4.8,3.4,7.2,5.2c0.5,0.4,0.7,0.7,0.2,1.1c-2.4,2.7-5.1,5-8.1,6.9c-4.4,2.7-9.3,4.3-14.3,5.1
		c-2.8,0.4-5.5,0.4-8.3,0.4c-6.3-0.2-12.2-1.9-17.7-5c-3.1-1.7-5.7-3.8-8.2-6.3c-3-3-5.4-6.4-7.4-10.1c-1.8-3.5-3.1-7.4-3.7-11.4
		C383,62.2,383,60.1,382.9,58.1z"/>
	<path class="st0" d="M171.2,18.1c6.2,0,12.4,0,18.5,0c0.6,0,0.7,0.2,0.7,0.7c0,3.9-0.2,7.8-0.4,11.8c-0.2,3.9-0.3,7.8-0.4,11.8
		c-0.5,14.1-0.6,28.3-0.5,42.4c0,2.3,1.1,3.3,3.3,3.3c5.6,0,11.3,0,16.9,0c0.9,0,1,0.1,0.6,1c-1.3,2.5-2.6,5-3.8,7.4
		c-0.3,0.6-0.6,0.8-1.1,0.8c-10.8,0-21.5,0-32.3,0c-1,0-1.2-0.4-1-1.3c0.3-1.1,0.2-2.3,0.2-3.4c0-1.6,0.2-3.2,0.2-4.9
		c0.4-17.7,0.2-35.4-0.1-53.1c-0.1-3.1-0.3-6.1-0.4-9.1C171.5,22.8,171.3,20.5,171.2,18.1z"/>
	<path class="st0" d="M250.1,88.1c-1.5,3.1-3.1,5.8-4.5,8.7c-0.3,0.6-0.7,0.4-1.1,0.4c-7.8,0-15.6,0-23.4,0c-3,0-5.8,0-8.8,0
		c-0.6,0-1,0-0.9-0.9c0.2-3.4,0.4-6.9,0.4-10.3c0.3-16.2,0.2-32.5-0.1-48.7c-0.1-3.6-0.1-7.3-0.4-11c-0.1-2.3-0.2-4.6-0.3-6.8v-0.1
		c0.1-0.5-0.6-1.1-0.1-1.3c0.4-0.4,1.1-0.1,1.6-0.1c5.5,0,11.1,0,16.5,0c0.8,0,1.1,0.2,1.1,1.1c-0.2,4.8-0.3,9.5-0.5,14.3
		c-0.5,11-0.8,22-0.9,32.9c-0.1,6.2,0.1,12.3,0.1,18.5c0,2.2,1.1,3.2,3.3,3.2c5.5-0.1,11.1,0,16.6,0
		C249.3,88.1,249.7,88.1,250.1,88.1z"/>
	<path class="st3" d="M140.5,60.8c0-0.1,0-0.2,0.2-0.2C140.6,60.8,140.5,60.8,140.5,60.8z"/>
	<path class="st4" d="M75.9,59.7c0-0.1,0-0.1,0-0.2C75.9,59.6,75.9,59.6,75.9,59.7L75.9,59.7z"/>
	<path class="st4" d="M140.6,58.3C140.6,58.3,140.6,58.4,140.6,58.3c-0.1,0-0.1,0-0.2-0.1C140.5,58.2,140.6,58.2,140.6,58.3z"/>
</g>
</svg>
