<?xml version="1.0" encoding="utf-8"?>
<!-- Generator: Adobe Illustrator 21.0.2, SVG Export Plug-In . SVG Version: 6.00 Build 0)  -->
<svg version="1.1" id="Layer_1" xmlns="http://www.w3.org/2000/svg" xmlns:xlink="http://www.w3.org/1999/xlink" x="0px" y="0px"
	 viewBox="0 0 130 70" style="enable-background:new 0 0 130 70;" xml:space="preserve">
<style type="text/css">
	.st0{fill:#2393F5;}
	.st1{fill:#FFFFFF;}
</style>
<g>
	<g>
		<path d="M54.9,9.8l4.4,2.9L47.2,28.8c1.9-0.7,3.7-1,5.4-1c4.2,0,7.8,1.5,10.8,4.6s4.4,6.8,4.4,11.3c0,3.1-0.7,5.8-2.1,8.3
			s-3.5,4.4-6.1,5.9s-5.5,2.2-8.5,2.2c-2.9,0-5.6-0.7-8.2-2.1c-2.5-1.4-4.5-3.4-5.9-6s-2.1-5.3-2.1-8.2c0-2.2,0.4-4.5,1.3-6.9
			c0.9-2.4,2.5-5.3,4.7-8.7L54.9,9.8z M51.4,32.5c-3.1,0-5.7,1.1-7.9,3.3s-3.3,4.8-3.3,8c0,3.1,1.1,5.7,3.3,7.9s4.8,3.3,7.9,3.3
			c3.1,0,5.7-1.1,7.9-3.3s3.3-4.8,3.3-7.9c0-3.1-1.1-5.8-3.3-8C57.2,33.6,54.5,32.5,51.4,32.5z"/>
	</g>
	<g>
		<g>
			<path class="st0" d="M65,60.7c-2.5,0-5-0.6-7.4-1.8c-2.7-1.4-5-3.4-6.8-6c-1.7-2.5-2.7-5.2-2.9-8.2s0.3-5.8,1.7-8.5
				s3.3-4.9,5.8-6.6c1.8-1.2,4.1-2.2,6.6-2.8c2.5-0.6,5.9-0.9,10-0.9l23.4-0.1l0.1,6.3l-19.1,0.2c1.2,1,2.1,2.1,2.9,3.2
				c2.4,3.6,3.2,7.6,2.3,11.9c-0.9,4.3-3.3,7.7-7.1,10.3c-2.6,1.8-5.4,2.8-8.4,3C65.8,60.7,65.4,60.7,65,60.7z M64.9,32.9
				c-2.1,0-4,0.6-5.9,1.9c-2.4,1.6-4,3.9-4.5,6.8c-0.6,2.9,0,5.6,1.6,8s3.9,4,6.8,4.5c0.7,0.1,1.5,0.2,2.2,0.2c2.1,0,4-0.6,5.8-1.8
				c2.5-1.7,4-4,4.5-6.8c0.6-2.9,0-5.6-1.6-8s-3.9-4-6.8-4.5C66.3,32.9,65.6,32.9,64.9,32.9z"/>
			<path class="st1" d="M94.9,26.3l0.1,5.2l-20,0.2c1.6,1.2,2.9,2.6,3.9,4c2.4,3.5,3.1,7.3,2.2,11.5s-3.2,7.5-6.9,10
				c-2.5,1.7-5.2,2.7-8.1,2.9c-0.4,0-0.7,0-1.1,0c-2.5,0-4.9-0.6-7.2-1.8c-2.7-1.4-4.9-3.3-6.6-5.8c-1.6-2.4-2.6-5.1-2.8-7.9
				c-0.2-2.9,0.3-5.6,1.6-8.2c1.3-2.6,3.2-4.7,5.6-6.4c1.8-1.2,3.9-2.1,6.4-2.7s5.8-0.9,9.9-0.9L94.9,26.3 M65.1,54.9
				c2.2,0,4.2-0.6,6.1-1.9c2.6-1.7,4.2-4.1,4.8-7.2c0.6-3,0-5.8-1.7-8.4s-4.1-4.2-7.2-4.7c-0.8-0.2-1.5-0.2-2.3-0.2
				c-2.2,0-4.2,0.7-6.2,2c-2.6,1.7-4.1,4.1-4.7,7.2c-0.6,3,0,5.8,1.7,8.4s4.1,4.2,7.2,4.7C63.6,54.8,64.4,54.9,65.1,54.9 M95.9,25.3
				h-1L72,25.4c-4.1,0-7.5,0.3-10.1,1C59.3,27,57,28,55.1,29.3c-2.6,1.7-4.6,4-6,6.8s-2,5.7-1.8,8.8c0.2,3,1.2,5.9,3,8.4
				c1.8,2.6,4.1,4.7,6.9,6.1c2.5,1.3,5,1.9,7.7,1.9c0.4,0,0.8,0,1.2,0c3-0.2,5.9-1.2,8.6-3.1c3.9-2.6,6.4-6.2,7.3-10.6
				s0.1-8.6-2.4-12.3c-0.6-0.8-1.2-1.6-2-2.4L95,32.6h1v-1v-5.3L95.9,25.3L95.9,25.3z M65.1,53.8c-0.7,0-1.4-0.1-2.1-0.2
				c-2.8-0.5-4.9-2-6.5-4.3c-1.6-2.4-2.1-4.9-1.6-7.6c0.5-2.8,1.9-4.9,4.3-6.5c1.7-1.2,3.6-1.8,5.6-1.8c0.7,0,1.4,0.1,2.1,0.2
				c2.8,0.5,4.9,2,6.5,4.3c1.6,2.4,2.1,4.9,1.6,7.6c-0.5,2.8-2,4.9-4.3,6.5C68.9,53.2,67.1,53.8,65.1,53.8L65.1,53.8z"/>
		</g>
	</g>
	<g>
		<path d="M62.6,14h2.1v6.9h3.9v1.6h-6V14z"/>
		<path d="M69.2,14h6.1v1.6h-4v1.8h3.6v1.7h-3.6v1.8h4v1.6h-6.1V14z"/>
		<path d="M79.2,14h2.2l3.2,8.5h-2.2l-0.7-1.9h-2.8l-0.7,1.9H76L79.2,14z M81.4,19l-1.1-3l-1.1,3H81.4z"/>
		<path d="M85.7,14h1.8l3.5,5.1V14h2.1v8.5h-1.8l-3.5-5.1v5.1h-2.1V14z"/>
	</g>
</g>
</svg>
