<?xml version="1.0" encoding="utf-8"?>
<!-- Generator: Adobe Illustrator 21.0.0, SVG Export Plug-In . SVG Version: 6.00 Build 0)  -->
<svg version="1.1" id="Layer_1" xmlns="http://www.w3.org/2000/svg" xmlns:xlink="http://www.w3.org/1999/xlink" x="0px" y="0px"
	 width="190px" height="72px" viewBox="0 0 190 72" style="enable-background:new 0 0 190 72;" xml:space="preserve">
<style type="text/css">
	.st0{fill:#1A6896;}
</style>
<g>
	<g>
		<path d="M139.4,17.9c0,6.4,0,12.7,0,19c0.1,0,0.1,0.1,0.3,0.1c0.2-0.2,0.5-0.4,0.7-0.6c3.3-3.3,6.7-6.6,9.9-9.9
			c0.9-0.9,1.7-1.3,3-1.2c1.6,0.1,3.1,0,5,0c-0.4,0.4-0.5,0.7-0.7,0.9c-3.3,3.5-6.5,6.9-9.8,10.4c-0.9,0.9-0.9,1.1-0.2,2.1
			c3,4.6,6,9.3,9,14c0.3,0.4,0.4,0.9,0.6,1.4c-0.4,0.1-0.9,0.2-1.4,0.2c-1.2,0-2.3,0-3.5,0c-0.9,0.1-1.4-0.3-2-1.1
			c-2.2-3.6-4.5-7.2-6.7-10.7c-0.1-0.3-0.3-0.7-0.6-0.8c-0.3-0.1-0.8-0.3-0.9-0.1c-0.8,0.7-1.5,1.3-2.2,2.1c-0.3,0.4-0.4,1-0.4,1.5
			c-0.1,2.6,0,5.2,0,7.8c0,1.1-0.1,1.3-1.2,1.3c-1.2,0-2.5,0-3.6,0c-0.7,0-1.2-0.3-1.2-1.1c0-9.8,0-19.8,0-29.6
			c0-0.5,0.2-1.2,0.6-1.4c1.5-1.4,3.2-2.7,4.8-4.1C138.9,18.1,139,18.1,139.4,17.9z"/>
		<path d="M118.4,54.9c-2.5,0-5.4-0.5-8.2-1.9c-1-0.5-1.1-0.8-0.5-1.7c0.4-0.7,0.8-1.3,1.2-2c0.4-0.8,0.9-0.9,1.8-0.6
			c2.7,1.3,5.6,1.7,8.5,1.2c0.9-0.1,1.7-0.4,2.5-0.9c1.7-1,2-3.3,0.4-4.6c-1.2-0.9-2.5-1.5-3.8-2.2c-2.3-1.2-4.7-2.1-7-3.3
			c-2.2-1.2-3.4-3.2-3.6-5.8c-0.2-3.8,1.6-6.5,5.4-7.7c4.8-1.5,9.5-1,14.1,0.6c0.6,0.2,0.8,0.6,0.5,1.2c-0.6,0.9-1.1,1.9-1.7,2.8
			c-0.4,0.7-0.9,0.7-1.6,0.4c-2.3-0.8-4.6-1.3-7-1.1c-0.7,0.1-1.3,0.1-1.9,0.4c-2,0.7-2.4,3-0.8,4.3c0.8,0.7,1.7,1.2,2.7,1.5
			c2,0.9,4.1,1.7,6,2.5c0.5,0.2,1,0.5,1.5,0.8c3.1,1.7,4.4,4.3,4.1,7.9c-0.4,3.3-2.2,5.5-5.2,6.7C123.6,54.7,121.3,54.9,118.4,54.9z
			"/>
		<path d="M82.9,17.8c0,0.7,0.1,0.9,0.1,1.3c0,9.6,0,19.1,0,28.7c0,1.4,0.1,1.4,1.4,1.4c4,0,8,0,12,0c1.2,0,1.4,0.1,1.4,1.3
			c0,0.9,0,1.8,0,2.7c0,0.8-0.3,1.1-1.1,1.1c-6.2,0-12.4,0-18.7,0c-0.8,0-1.1-0.4-1.1-1.1c0-1.8,0-3.5,0-5.4c0-7.9,0-15.8,0-23.7
			c0-1.1,0.4-1.8,1.2-2.5c1.3-1,2.5-2.1,3.8-3.2C82.1,18.3,82.4,18.1,82.9,17.8z"/>
		<path d="M106.6,25.6c0.1,0.4,0.1,0.7,0.1,1c0,8.8,0,17.7,0,26.5c0,1.2-0.1,1.3-1.3,1.3c-1.2,0-2.4,0-3.5,0c-0.7,0-1.2-0.3-1.2-1.1
			c0-7.4,0-14.8,0.1-22.1c0-0.4,0.2-1,0.5-1.3c1.6-1.4,3.3-2.8,4.9-4.2C106.2,25.7,106.4,25.7,106.6,25.6z"/>
	</g>
	<g>
		<path class="st0" d="M55.5,20.7l-0.4,2.7l2.1,1.7l3.7-1.3l-2.5-2l-1.2-2.4l-6.6-6.3l1.7,4.5L55.5,20.7"/>
		<path class="st0" d="M50.7,22.1l-0.4,2.5l-4.6,3.3l0.4,5.4l3.5,9l2-3.6l-0.7-1l2-4.6v-2.4l3.7-5l-2.3-2l0.4-2.8l-3-2.9l-2.5-6.4
			l-0.1-0.1v5.9L50.7,22.1"/>
		<path class="st0" d="M60,38.2l0.4-0.7v-4.8l0.8-8.2L57.3,26l-3.6,4.9v2.2l-1.8,4.4l0.4,0.7l7.1,0.5L60,38.2 M48.6,49.6l1.1,0.6
			l0.9-0.9l2.5-0.4l0.9-1.3l2.1-0.1l0.1-0.7l2.1-0.4l0.7-6.9l-6.7-0.4l-2.4,4.3l-2.3,6.2l0.2,1.2L48.6,49.6 M43,39.7l-6.2,2.7
			l0.1,3.9l2.6,1.3l0.7,1.1l1.3-0.7l0.8,0.2l0.2-0.7l0.6-0.2l1.7,0.7l0.7,1.6l1.4-0.7H47l2.1-5.7l-3.4-8.8L43,39.7"/>
		<path class="st0" d="M35.7,40.1l0.5,1.7l6.1-2.7l2.9-5.7L44.8,28l-11.4-3.8L36,38L35.7,40.1 M49.6,24.1l0.3-1.9l-1.7-4.5v-6.9
			h-0.5L47,11L33.6,23.5l11.6,3.8L49.6,24.1z M62,45.6l-2.3-1.1l-0.1,1.7l0.7,0.4l-3,2l-3.3,2.6l-3.5,0.9l-2.8,1.4l-3.5-1.3
			l-6.3-3.5l-2.7-2.2l0.5-0.2l-0.1-1.7l-2.2,0.8l-1.7,3.1l0.3,5.4l3.4,1.4l0.5,0.4l7,3.4l0.6,0.1l3.3,1.8l1.7,0.1L51,60l7.2-3.4
			l5.4-3l0.4-4.8 M47.8,58v1.6h-0.3l-3.3-1.8l-0.7-0.1L37,54.4l-0.6-0.4l-2.7-1.2l-0.2-4l1-1.9l2.9,2.4l6.4,3.6l3.5,1.3l0.7,2.8
			 M62.1,52.7l-4.6,2.5l-7.2,3.4l-1.7,0.9v-1.4l0.4-0.9l-0.7-3l2.6-1.4l3.5-0.9l3.4-2.7l3.3-2.2l1.4,2.3"/>
	</g>
</g>
</svg>
