<?xml version="1.0" encoding="utf-8"?>
<!-- Generator: Adobe Illustrator 21.0.0, SVG Export Plug-In . SVG Version: 6.00 Build 0)  -->
<svg version="1.1" id="Layer_1" xmlns="http://www.w3.org/2000/svg" xmlns:xlink="http://www.w3.org/1999/xlink" x="0px" y="0px"
	 viewBox="0 0 130 70" style="enable-background:new 0 0 130 70;" xml:space="preserve">
<style type="text/css">
	.st0{fill:#684C46;}
	.st1{fill:#F5DCBA;}
	.st2{fill:#0788BF;}
	.st3{fill:#46B8E3;}
	.st4{fill:#FFD14F;}
	.st5{fill:#122030;}
	.st6{fill:#FFFFFF;}
	.st7{fill:#EABE8D;}
	.st8{fill:#9C7356;}
</style>
<g>
	<g>
		<g>
			<path d="M57.7,36.5L57.7,36.5L57.7,36.5z"/>
			<path d="M115.9,41.7L115.9,41.7c1.8,0,3-1.2,3-3c0-0.8-0.3-1.6-0.7-2.2c-0.5-0.6-1.2-0.9-1.9-0.9l0,0c-1.1,0-2.1,0.8-3,2.5
				l-0.1,0.2l-0.1-0.2c-0.3-0.7-0.5-1.4-0.6-1.7c-0.1-0.3-0.2-0.3-0.2-0.4c-0.1-0.2-0.2-0.3-0.4-0.3c-0.2,0-0.3,0.1-0.4,0.1
				c-0.2,0.1-0.2,0.2-0.3,0.3l0,0c-1,3-1.8,4.6-2.5,4.6c-0.1,0-0.2,0-0.3-0.1c-0.2-0.2-0.2-0.7-0.1-1.4c0.1-0.5,0.1-1,0.1-1.6
				c0-1.1-0.7-1.8-1.6-1.8c-1.3,0-2,1.4-2.5,2.1l-0.1,0.3v-0.3c-0.1-1-0.4-2.1-1.4-2.1c-1.2,0-2.1,1.4-2.7,2.6l-0.2,0.3v-0.3
				c0.1-1.6,0.1-2.5,0.2-2.8c0-0.3,0-0.4-0.1-0.5c-0.1-0.1-0.3-0.2-0.4-0.1c-0.4,0-0.6,0.3-0.8,1c-0.5,1.3-1.7,4.3-2.7,4.3
				c-0.2,0-0.3-0.1-0.5-0.2c-0.4-0.5-0.3-1.8,0-3.6v-0.2c0.1-0.8-0.1-1-0.5-1.1c-0.1,0-0.1,0-0.2,0c-0.3,0-0.5,0.3-0.8,1.4
				c-0.6,1.7-1.4,3.6-2.3,3.6h-0.1c-0.5-0.1-0.5-0.8-0.4-1.7c0-0.5,0-1-0.1-1.5c-0.2-0.9-0.7-1.4-1.4-1.4c-1.4,0-2.5,1.9-2.9,3
				L87,39v-0.3c-0.1-0.5-0.2-1.3-0.2-2.1l0,0l0,0c2.7-3.4,3.9-5.8,3.9-8c0-1.4-0.6-2.1-1.6-2.1c-0.8,0-2.5,0.7-3.2,6.5
				c-0.1,1.1-0.2,2.2-0.2,3.3l0,0l0,0c-1.3,1.8-3.9,4.8-6.4,4.8c-2.4,0-4.1-1.9-4.1-5.2c0-4.5,3.1-7.2,5.5-7.2l0,0
				c0.5,0,0.9,0.2,1.3,0.4c0.3,0.3,0.5,0.7,0.5,1.1c0,0.6-0.2,0.9-0.4,1.3c-0.1,0.1-0.1,0.2-0.2,0.3c-0.1,0.1-0.1,0.2,0,0.3
				c0.1,0.1,0.3,0.2,0.4,0.2c0.6,0,1.4-0.8,1.4-2c0-1.3-1.1-2.6-3-2.6c-3,0-6.9,3.2-6.9,8.5c0,3.7,2.3,6.3,5.4,6.3
				c2.2,0,4.4-1.6,6.3-4.2l0.1-0.2v0.2c0,1,0.1,1.8,0.2,2.3c0,0.3,0.1,0.6,0.1,0.8c0,0.3,0.1,0.5,0.2,0.7c0.1,0.2,0.3,0.2,0.5,0.2
				c0.4,0,0.5-0.3,0.7-1l0.1-0.3c0.3-0.9,1-3.8,2.2-3.8c0.2,0,0.3,0.1,0.4,0.2c0.3,0.3,0.3,0.8,0.2,1.5c0,0.4-0.1,0.8,0,1.3
				c0.1,1.1,0.6,1.7,1.5,1.7s1.9-1,2.4-1.9l0.1-0.2v0.2c0.1,0.5,0.5,2.1,1.8,2.1c1.2,0,2.2-1.3,3.3-3.8l0.2-0.3v0.3
				c0,0.9-0.1,2.1-0.1,3c0,0.7,0.1,1,0.4,1h0.1c0.3,0,0.5-0.2,0.7-0.6c0.8-2.9,1.5-4.2,2.3-4.2c0.7,0,0.8,1.3,0.8,3.6v0.2
				c0,0.8,0.1,1.1,0.5,1.1c0.3,0,0.5-0.3,0.7-1c0-0.2,0.1-0.3,0.1-0.4c0.7-2.4,1.3-3.3,1.9-3.3c0.6,0,0.6,0.6,0.7,0.8
				c0,0.4,0,0.8-0.1,1.4c0,0.4-0.1,0.8-0.1,1.2c0,0.9,0.5,1.4,1.4,1.4c1.1,0,2.1-1.4,3-4l0.1-0.2l0.1,0.2c0.2,0.4,0.3,0.9,0.6,1.6
				l0,0l0,0c-0.8,1.9-1.5,4.1-1.5,5.2c0,1.5,0.7,2.5,1.8,2.5l0,0c0.6,0,1.9-0.3,1.9-2.4c0-0.8-0.2-2.1-0.6-3.7l-0.1-0.2l0.2,0.1
				C114.7,41.5,115.3,41.7,115.9,41.7z M86.7,34.3c0-0.5,0.1-1.1,0.2-1.5c0.4-3.2,1.3-5.4,2.1-5.4l0,0c0.4,0,0.6,0.3,0.6,0.9
				c0,1.4-0.9,3.6-2.7,6.2l-0.2,0.2V34.3z M113.3,45.9c-0.2,0.2-0.3,0.3-0.6,0.3c-0.3,0-0.5-0.1-0.6-0.3c-0.3-0.5-0.3-1.7,0.3-3.9
				c0.1-0.3,0.2-0.5,0.3-0.8l0.1-0.3l0.1,0.3C113.7,43.7,113.7,45.3,113.3,45.9z M113.6,39.5L113.6,39.5L113.6,39.5L113.6,39.5
				c0.8-1.8,1.8-2.8,2.6-2.8l0,0c0.9,0,1.6,0.8,1.5,2c0,0.8-0.3,1.3-0.7,1.5c-0.3,0.3-0.8,0.4-1.2,0.4C114.8,40.7,114,40,113.6,39.5
				z"/>
			<path d="M116.1,36.8L116.1,36.8L116.1,36.8z"/>
			<path d="M60.9,41.5c1.3-0.1,2.3-1.9,2.6-2.5l0.1-0.2V39c0.2,1,0.8,2.8,2.5,2.8l0,0c0.8,0,1.6-0.5,2.5-1.4l0.1-0.1l0.1,0.1
				c0.6,1,1.4,1.5,2.2,1.4c1.3-0.1,2-0.9,2-1.5c0-0.2,0-0.3-0.1-0.4c-0.1-0.2-0.3-0.2-0.4,0l0.1-0.1c-0.3,0.3-0.8,0.8-1.4,0.8
				c-0.7,0-1.3-0.4-1.6-1.3l0,0l0,0c1.9-2.6,3.4-6.5,3.2-9.2c-0.1-1.2-0.4-2.7-1.8-2.7h-0.1c-0.5,0-1,0.3-1.4,0.8
				c-1.3,1.4-1.9,4.8-1.7,8.7c0.1,0.8,0.2,1.5,0.4,2.3l0,0l0,0c-0.8,0.8-1.4,1.4-2,1.4c-1.4,0-1.4-2.4-1.3-4.3
				c0-0.4,0.1-0.7-0.1-0.8c-0.1-0.1-0.3-0.2-0.4-0.2l0,0c-0.5,0-0.6,0.1-0.8,0.8c-0.5,1.5-1.6,4.1-2.6,4.1c-0.3,0-0.5-0.1-0.7-0.3
				c-0.5-0.7-0.1-2.3,0.2-3.6c0.1-0.3,0.1-0.4,0.2-0.7c0.1-0.3,0.1-0.5-0.1-0.7c-0.1-0.2-0.3-0.2-0.6-0.2c-0.4,0-0.8,0.3-0.8,1.1
				v0.2L59.1,36c-0.2-0.3-0.6-0.7-1.3-0.7c-0.1,0-0.2,0-0.2,0c-0.8,0.1-1.6,0.6-2.3,1.4c-0.8,0.9-1.1,2.1-1,3.3c0,0.1,0,0.1,0,0.2
				l0,0l0,0c-0.4,0.5-0.9,0.8-1.4,0.8c-0.7,0-1.1-0.5-1.1-1.4c0-1.4,1-5.8,1-7.4c0-1.7-0.8-2.5-2-2.6l0,0c-1.9,0-3.4,2.1-4.7,6.5
				c-0.2,0.4-0.3,0.8-0.4,1.3l-0.2,0.7l0.1-0.7c0.2-1.5,0.3-3,0.3-4.4c0.1-2.1-0.3-3.5-0.8-4.2c-0.3-0.3-0.8-0.6-1.4-0.6l0,0
				c-2.3,0-3.4,3.9-4.2,6.6c-0.3,0.8-0.7,2.7-1,4l0.2-0.3c0.2-1.6,0.6-5.7,0.5-7.8c0-2.4-0.8-3.4-2.5-3.4l0,0
				c-0.9,0-1.5,0.4-1.9,0.8c-0.6,0.6-1,1.5-0.9,2.3c0,0.5,0.3,0.9,0.5,0.9c0.2,0,0.3-0.2,0.3-0.3c0.5-1.8,1.2-2.6,2.1-2.6
				c0.3,0,0.7,0.1,0.8,0.3c0.7,0.8,0.6,2.7,0.3,6.3c-0.1,1.2-0.2,2.5-0.3,4c0,0.3,0,0.5-0.1,0.8c-0.2,1.2-0.3,2,0.2,2.1
				c0.5,0.1,0.8-0.2,1-0.7c0.3-0.8,0.8-2.9,1.9-6.6c1.1-3.6,1.9-5,2.9-5c1.2,0,1.3,2,1.1,6.3c-0.1,0.9-0.1,1.9-0.2,3
				c0,0.2,0,0.3,0,0.4c-0.1,0.9-0.1,1.7,0.2,1.9c0.1,0.1,0.2,0.2,0.3,0.2c0.5,0,0.7-0.4,0.9-1.2c0.1-0.2,0.1-0.3,0.2-0.4
				c1.8-4.9,3-9.1,4.8-9.1c0.5,0,0.9,0.4,0.9,1.3c0,1.9-0.9,5.7-0.9,7.5c0,0.7,0.2,1.3,0.6,1.7c0.3,0.4,0.9,0.7,1.5,0.7l0,0
				c0.6,0,1.2-0.3,1.8-0.8l0.1-0.1l0.1,0.1c0.4,0.6,1.1,0.8,1.8,0.8c1.1-0.1,2-1.1,2.4-1.9l0.1-0.2l0.1,0.2
				C59.2,40.7,59.8,41.5,60.9,41.5z M70.9,28.7L70.9,28.7c0.2,0,0.3,0.1,0.3,0.2c0.4,0.6,0.4,2.7-0.3,5.2c-0.4,1.4-1,2.7-1.7,3.8V38
				v-0.2c-0.1-0.6-0.1-1.2-0.2-1.7C68.9,32.4,70,28.8,70.9,28.7z M58.8,37.2c-0.3,1.5-1.1,3.4-2.5,3.5h-0.1c-0.5,0-0.8-0.3-0.9-1.1
				c-0.1-0.8,0.3-1.9,0.9-2.6c0.4-0.4,0.9-0.7,1.4-0.7l0,0C58.2,36.4,58.7,36.8,58.8,37.2L58.8,37.2L58.8,37.2z"/>
			<path d="M88.9,27.4L88.9,27.4L88.9,27.4z"/>
			<path d="M64.9,31.6c-0.5,0-0.8,0.4-0.8,0.8c0,0.5,0.4,0.8,0.8,0.8v0.1l0,0v-0.1c0.5,0,0.8-0.4,0.8-0.8
				C65.8,32.1,65.4,31.6,64.9,31.6z"/>
			<path d="M95.5,31.6c-0.5,0-0.8,0.4-0.8,0.8c0,0.5,0.4,0.8,0.8,0.8v0.1l0,0v-0.1c0.5,0,0.8-0.4,0.8-0.8
				C96.4,32.1,96.1,31.6,95.5,31.6z"/>
		</g>
		<g>
			<path d="M119.4,40.7c-0.3,0-0.6,0.3-0.6,0.6s0.3,0.6,0.6,0.6c0.3,0,0.6-0.3,0.6-0.6S119.7,40.7,119.4,40.7z M119.4,41.9
				c-0.3,0-0.5-0.3-0.5-0.5c0-0.3,0.3-0.5,0.5-0.5c0.3,0,0.5,0.3,0.5,0.5C119.9,41.6,119.7,41.9,119.4,41.9z"/>
			<path d="M119.7,41.2c0-0.1-0.1-0.2-0.3-0.2h-0.3v0.7h0.1v-0.3h0.1l0.2,0.3h0.1l-0.2-0.3C119.6,41.4,119.7,41.3,119.7,41.2z
				 M119.4,41.3L119.4,41.3l-0.1-0.3h0.2c0.1,0,0.2,0,0.2,0.1C119.6,41.3,119.5,41.3,119.4,41.3z"/>
		</g>
	</g>
	<g>
		<path class="st0" d="M32.3,39.8c0,0.1-1.8,6.8-8.6,6.8c-5.9,0-8.8-5.2-8.8-5.2c-0.4,0-0.8-0.1-1.3-0.2c-1.8-0.7-2.5-2.6-1.9-4.3
			l-0.9-0.8C7,33.3,17.6,20.4,21.3,23.3l0.8,0.7c1.4-0.8,2.6-1.3,3.7-1.3c0.8,0,1.4,0.3,1.9,0.7c0.9,1,0.6,3-0.7,5.1
			c0.3,0.3,0.5,0.7,0.7,1c0.4,0.3,0.7,0.8,0.8,1.5c0.2,0.8,0.2,1.9,0.3,2.3c0.3,0.2,0.2,0.1,0.6,0.3c0.4,0.2,0.8,0.4,1.4,0.9
			c0.9,0.3,1.3,1.3,0.8,1.9c0,0-0.1,0.1-0.2,0.2c0,0.1,0.2,0.3,0.3,0.9c0.4,0.1,0.7,0.3,0.8,0.7C32.9,38.9,32.3,39.8,32.3,39.8z
			 M29.6,44.8v0.3h0.1L29.6,44.8h0.2v-0.1h-0.3v0.1H29.6z M29.9,44.8v0.3H30L29.9,44.8l0.2,0.3h0.1l0.1-0.3v0.3h0.1v-0.3h-0.2
			L30.1,45L29.9,44.8L29.9,44.8z"/>
		<path class="st1" d="M16.3,37.2L16.3,37.2L16.3,37.2c0.2-0.3,0.3-0.7,0.3-0.7c0.2,0.5,0.3,1,0.2,1.6l0,0l0,0
			c0.2-0.2,0.3-0.6,0.3-0.6c0.3,1.5-0.8,3-2.4,3c-1.4,0-2.4-1.1-2.4-2.5c0-1.4,1.1-2.5,2.4-2.5c0.3,0,0.7,0.1,0.9,0.3
			C15.7,35.7,16.3,36,16.3,37.2z M29.5,42.7c1.9-1.4,2.2-3.2,2.2-3.3c0.4-0.6,0.3-1.1-0.3-1.1c-0.2,0-0.3,0.1-0.3,0.1s0-0.8-0.3-1.4
			c-0.3,0.3-1.1,0.9-2.1,1.4c-1,0.4-2.3,0.8-3.9,0.9l0,0c-0.4,0-0.8-0.1-0.9,0.5c-0.1,0.2,0,0.4,0,0.5c0.2,0.4,0.4,0.6,0.9,0.8
			c0.3,0.1,0.7,0.1,0.7,0.1c3.3,0.1,5.9-2.5,5.9-2.5l0.1-0.1v0.1c-0.5,1.1-3.2,3-5.9,3l0,0c-0.7,0-1.4-0.2-1.8-0.7
			c-0.7-0.8-0.3-2.1,0.7-2.1c0,0,0.3,0,0.3,0c2.5-0.1,4.7-1,6.3-2.9c0.3-0.3,0-0.7-0.5-0.7l0,0c-0.6-0.6-1.1-0.8-1.5-1
			c-0.9-0.5-0.8-0.1-1.1-2.4c-0.1-0.6-0.2-1.4-0.7-1.8c-0.3-0.3-0.4-0.3-0.6-0.3c-0.2,0-0.3,0-0.3,0c-0.3,0.1-0.5,0.3-0.7,0.4
			c-1,0.9-1.8,0.7-3,0.7c-1.1,0-2.1,0.8-2.3,1.9l0,0c-0.1,0.6,0,1.3,0.1,1.5c0,0-0.3-0.2-0.4-0.4c0.2,1.1,1.2,1.8,1.2,1.8
			c-0.2,0-0.4,0-0.4,0s0.6,0.4,1.1,0.6c-0.2,0.1-0.8,0.8-1.1,1.6c-0.3,0.8-0.2,1.9-0.2,1.9l0.3-0.4c0,0-0.2,0.9,0.2,1.8
			c0.1-0.3,0.3-0.8,0.3-0.8s0,1,0.4,1.8c0-0.2,0.1-0.7,0.1-0.7s0.3,0.8,0.9,1.4C24,44.3,27.1,44.5,29.5,42.7z"/>
		<path class="st2" d="M12.1,36.1c0,0-0.9-0.7-1-0.8c-0.8-1.3,0.6-3.9,1.5-5.3c2.3-3.6,6.2-6.6,7.9-6.2l1.8,0.9
			c-0.7,0.4-1.4,0.9-1.8,1.3l-0.3,0.3c0,0-1.1,0.8-1.7,1.2c-2.2,1.9-4.4,4.8-5.2,7.6C13.2,35.1,12.5,35.4,12.1,36.1z"/>
		<path class="st3" d="M20.4,23.8L20.4,23.8c-1.8-0.4-5.6,2.5-7.9,6.2l0,0l0,0l1.9,1.4c2-3.2,4.6-4.8,4.7-4.9l-0.3-1.9l0.5-0.3
			l1.1,0.3l-0.1-0.3L20.4,23.8L20.4,23.8z"/>
		<path class="st4" d="M22.3,24.7L20.5,26l-0.1,0.1l-1.5-1.3l-0.1-0.3l0.5-0.3c0,0,1,0.3,1.1,0.3v-0.7l0.1-0.2l0.5-0.2
			C20.9,23.6,22.3,24.7,22.3,24.7z"/>
		<g>
			<path class="st5" d="M25.7,23.4c-1.2,0-2.5,0.6-3.5,1.2c-0.2,0.1-0.3,0.2-0.4,0.3l-0.5-0.4l0.2,0.7c-0.1,0.1-0.2,0.1-0.3,0.2
				L20.2,25l0.7,0.6c-0.2,0.2-0.3,0.3-0.4,0.3l-1.7-1.4l0.1,0.7l1.3,1.1c0,0-1.1,0.8-1.7,1.2c-2.2,1.9-4.4,4.8-5.2,7.6h0.1l0,0h0.1
				c0,0,0,0,0.1,0h0.1l0,0h0.1l0,0h0.1c0.7-0.3,1.4-0.4,2.3,0c0.4-1.1,0.9-2.2,1.8-3.3c0.7-0.8,1.4-1.7,2.1-2.1
				c1.4-1.4,5.4-2.9,6.7-1.6c0.3-0.5,0.6-0.9,0.8-1.5C27.8,25,27.8,23.4,25.7,23.4z"/>
			<polygon class="st5" points="20.7,24.7 20.4,23.8 20.3,24.2 20.4,24.6 			"/>
		</g>
		<path class="st6" d="M31.1,38.3c0,0,0-0.8-0.3-1.4c-0.3,0.3-1.1,0.9-2.1,1.4c-1,0.4-2.3,0.8-3.9,0.9l0,0c-0.4,0-0.8-0.1-0.9,0.5
			c0,0.1,0,0.1,0,0.2l0,0l0,0c0,0,0,0,0,0.1s0,0.1,0,0.2l0,0l0,0v0.1l0,0l0,0c0,0.1,0,0.1,0,0.2l0,0l0,0c0.2,0.4,0.4,0.6,0.9,0.8
			c0.3,0.1,0.7,0.1,0.7,0.1c2.7,0.1,4.9-1.6,5.7-2.3C31.1,38.7,31.1,38.6,31.1,38.3z M23.4,24c0.7-0.3,1.4-0.5,1.9-0.6
			c-0.7,0.2-1.4,0.5-2.4,1.1c0,0-2.2,1.5-3.6,2.9c-0.8,0.8-3.7,4.2-3.7,4.2c0.5-1,0.9-1.5,1.8-2.6c0.5-0.6,1-1.2,1.5-1.8
			c0.2-0.2,0.3-0.3,0.5-0.5l0,0l0,0C19.6,26.7,21.2,25.1,23.4,24z"/>
		<path class="st7" d="M29.5,42.7c-0.3,0.3-0.7,0.5-1,0.7c-0.8-0.3-1.3-0.9-1.3-0.9s0.7-0.2,1.6-0.6c1.1-0.6,2.1-1.4,2.9-2.4
			C31.7,39.4,31.3,41.2,29.5,42.7z M27.3,34.2c-0.3-0.3-1-0.1-1.2,0.4c0.3,0,0.4,0.2,0.4,0.4c0.2-0.2,0.3-0.3,0.6-0.3
			C27.1,34.6,27.2,34.3,27.3,34.2z M23.3,39.7c0.1-0.4,0.4-0.8,1-0.8c0,0,0.3,0,0.3,0c2.5-0.1,4.7-1,6.3-2.9c0.3-0.3,0-0.7-0.5-0.7
			l0,0c-0.1,0.1-0.1,0.3-0.3,0.5c-0.5,0.8-1.2,1.3-2,1.7c-2.8,1.4-4.2,0.8-4.7,1.6C23.2,39.3,23.2,39.5,23.3,39.7L23.3,39.7z
			 M28.3,33.9c-0.3-0.2-0.3-0.5-0.4-2c-0.1-0.5-0.2-1.1-0.4-1.5c-0.1-0.1-0.2-0.1-0.3-0.1c-0.2,0-0.4,0.2-0.5,0.3
			c-0.3,0.5-0.7,0.8-1.3,1.1c-0.6,0.3-1.1,0.3-1.7,0.3c-0.4,0-0.8-0.1-1.2-0.1c-0.7,0-1.3,0.3-1.7,0.8c-0.3,0.3-0.4,0.8-0.4,1.2
			c0,0.1,0,0.1,0,0.2c0,0.1,0,0.2,0,0.3c0,0.3,0.1,0.3,0.1,0.3l0,0l0,0c0,0-0.3-0.2-0.4-0.4c0.2,0.9,0.8,1.5,1.1,1.8l0,0l0,0l0,0
			c-0.2,0-0.4,0-0.4,0s0.6,0.4,1.1,0.6c0.7-0.6,1.4-0.8,2-0.8c0.3-0.3,0.8-0.4,1.2-0.7c-0.2-0.8,0.6-1.6,1.5-1.7
			c0.7-0.1,1,0.3,1.3,0.6C28,34,28.1,33.9,28.3,33.9L28.3,33.9z M28.6,39.3L28.6,39.3c-0.3,0.1-3.1,1.2-4.9,0.6c0,0.1,0,0.3,0,0.4
			l0,0c0.3,0.1,0.6,0.1,1,0.1C27.1,40.4,28.8,39.3,28.6,39.3z M15.6,39.1L15.6,39.1c0.2-0.2,0.2-0.3,0.2-0.6
			c-0.1-0.3-0.4-0.3-0.6-0.6l0,0l0,0l0,0c-0.1-0.1-0.2-0.3-0.2-0.3c0-0.3,0.3-0.4,0.4-0.3c0,0,0.2,0,0.3,0.3l0,0
			c0-0.1,0-0.2-0.1-0.3c-0.2-0.3-0.5-0.5-1.1-0.4l0,0c-0.1,0-0.1,0-0.2,0l0,0h-0.1l0,0c0,0-0.1,0.1-0.2,0.1
			C13.5,37.8,14.5,39.2,15.6,39.1z"/>
		<path class="st8" d="M24.4,34.3c0.1,0.1,0.1,0.2,0.1,0.2c0,0.1-0.2,0-0.4-0.1c-0.6-0.2-0.9-0.3-1.7,0c-0.2,0.1-0.3,0.1-0.3,0.1
			c-0.1,0,0-0.2,0.3-0.3c0.4-0.3,1-0.4,1.5-0.3C24,34,24.3,34.2,24.4,34.3z M24.3,34.9c-0.2-0.1-0.4-0.2-0.7-0.2
			c-0.1,0-0.1,0-0.2,0.1c0,0,0,0-0.1,0c-0.1,0.1-0.3,0.1-0.3,0.2c-0.1,0.1-0.2,0.3-0.1,0.3c0,0,0.1,0,0.3-0.1
			c0.3-0.2,0.7-0.2,0.9-0.2C24.3,35,24.4,35,24.3,34.9C24.4,35,24.4,35,24.3,34.9z M15.4,37.1L15.4,37.1L15.4,37.1
			c0.1,0.1,0.1,0.1,0.2,0.2c0.2,0.2,0.1,0.3,0.2,0.3h0.1c0.1,0,0.1-0.2,0.1-0.3l0,0l0,0l0,0c0-0.2-0.1-0.4-0.3-0.6l0,0l0,0l0,0
			c-0.1-0.1-0.2-0.2-0.3-0.3c-0.2-0.1-0.3-0.2-0.4-0.2c-0.3-0.1-0.6,0-0.7,0l0,0c0,0-0.1,0-0.2,0c-0.4,0.2-0.8,0.5-0.9,0.9l0,0l0,0
			C13,37.4,13,37.6,13,37.7c0,0.2,0,0.3,0,0.3l0,0l0,0l0,0c0,0.2,0.1,0.3,0.3,0.5l0,0l0,0l0,0c0.2,0.2,0.3,0.2,0.3,0
			c0-0.1-0.1-0.3-0.2-0.5c0-0.3,0-0.4,0.1-0.6c0.1-0.1,0.1-0.3,0.2-0.3c0.4-0.1,0.6-0.2,0.6-0.2l0,0h0.1l0,0c0.1,0,0.1,0,0.2,0l0,0
			C14.9,36.8,15.2,36.9,15.4,37.1z M15.3,37.7c-0.1,0-0.1-0.1-0.1-0.2s0-0.2,0.1-0.3c0.1-0.1,0.1-0.1,0.1-0.1c0-0.1-0.3-0.1-0.3,0.1
			c-0.1,0.2-0.2,0.4,0,0.6c0.3,0.3,0.6,0.3,0.6,0.6c0,0.1,0,0.1,0,0.2c0,0.1,0,0.2,0,0.2c-0.1,0.3-0.3,0.6-0.8,0.5
			c-0.1,0-0.2,0-0.2,0c0,0.1,0.2,0.3,0.5,0.3s0.7-0.3,0.8-0.7c0,0,0-0.1,0-0.3c0-0.1,0-0.2,0-0.3C16,38,15.5,37.9,15.3,37.7z
			 M27.4,34.2c-0.2,0-0.3,0.1-0.3,0.3c0,0.2,0.1,0.3,0.2,0.3c0.2,0,0.3-0.1,0.3-0.3C27.7,34.3,27.6,34.2,27.4,34.2z M25.9,34.7
			c-0.1,0.2,0,0.3,0.2,0.4c0.2,0.1,0.4,0.1,0.5-0.1c0.1-0.2,0-0.3-0.2-0.4C26.2,34.6,26,34.6,25.9,34.7z M20.4,29.2
			c2.6-1.7,5.2-1.9,6.1-1.2l0,0v-0.1l0,0c-0.3-0.5-0.8-0.8-1.2-0.9c0.1,0.1,0.2,0.3,0.3,0.3c-0.3-0.3-0.8-0.4-1.3-0.6l0.1,0.1
			c0.1,0.1,0.3,0.3,0.3,0.3c-0.5-0.2-1.1-0.3-1.5-0.2H23h0.1c0.2,0.1,0.4,0.2,0.5,0.3c-0.8-0.2-1.8,0-2.3,0.3c0.1,0,0.1,0,0.1,0
			c0.2,0,0.6,0,0.7,0.2c-0.5,0.1-1.3,0.3-1.7,0.7c0.1,0,0.5-0.1,0.7,0c-2.4,1.4-3.4,3.3-3.4,3.3l0,0C18.4,30.8,19.2,29.9,20.4,29.2z
			"/>
		<path class="st0" d="M26.5,32.8c0-0.2,0-0.5,0.2-0.5l0,0l0,0l0,0c0.3-0.1,0.7,0.7,0.7,1.3c-0.3-0.1-0.5-0.2-0.8-0.2
			C26.6,33.2,26.5,33.1,26.5,32.8z"/>
	</g>
</g>
</svg>
