<?xml version="1.0" encoding="utf-8"?>
<!-- Generator: Adobe Illustrator 21.0.0, SVG Export Plug-In . SVG Version: 6.00 Build 0)  -->
<svg version="1.1" id="Layer_1" xmlns="http://www.w3.org/2000/svg" xmlns:xlink="http://www.w3.org/1999/xlink" x="0px" y="0px"
	 viewBox="0 0 130 70" style="enable-background:new 0 0 130 70;" xml:space="preserve">
<style type="text/css">
	.st0{fill:#5C4C9F;}
	.st1{fill:#1F1646;}
</style>
<g>
	<path class="st0" d="M45.5,21.5l-9.6-5.3v37.5l9.6-7.7V21.5z M31.4,21.8v23.8L23.7,49V19.5L31.4,21.8z M13.3,23.4v21.3l5.9-1.5
		V24.3L13.3,23.4z"/>
	<path class="st1" d="M60.9,35.4l-4.2-6.8h-2.2v12.5h2.1v-9l4.2,6.8L65,32v9.1h2.1V28.6H65L60.9,35.4z M74.1,41.1V40
		c-0.6,0.9-1.6,1.4-2.8,1.4c-1.6,0-2.7-1-2.7-2.5c0-1.6,1-2.6,3.1-2.9l2.2-0.3v-0.2c0-0.9-0.7-1.5-1.9-1.5c-1.1,0-2.2,0.5-2.9,1.2
		v-1.9c0.8-0.6,1.8-1,3.1-1c2.4,0,3.8,1.2,3.8,3.4v5.6L74.1,41.1z M71.9,39.7c1.3,0,2.2-0.9,2.2-2.1v-0.5l-2,0.3
		c-0.9,0.2-1.5,0.6-1.5,1.2C70.7,39.3,71.2,39.7,71.9,39.7 M82.9,34.4c-0.1-0.1-0.3-0.1-0.5-0.1c-1.6,0-2.4,1.2-2.4,2.9v3.9h-2.1
		v-8.7H80v1.5c0.4-1,1.5-1.6,2.6-1.6c0.3,0,0.3,0,0.4,0.1L82.9,34.4L82.9,34.4z M84.2,41.1h2.1v-3.4l0.4-0.4l3.1,3.9h2.5l-4-4.9
		l3.8-3.8h-2.5l-3.3,3.3v-7.1h-2.1L84.2,41.1z M100.1,40.4c-0.9,0.6-2.1,0.9-3.4,0.9c-2.9,0-4.7-2-4.7-4.6c0-2.6,1.8-4.6,4.4-4.6
		c2.6,0,4.2,1.9,4.2,4.5c0,0.3,0,0.4-0.1,0.7h-6.5c0.2,1.2,1.1,2.2,2.8,2.2c1.1,0,2.2-0.4,3.2-1.2L100.1,40.4L100.1,40.4z
		 M98.6,35.9c-0.1-1.2-0.9-2-2.2-2c-1.3,0-2.2,0.9-2.3,2H98.6z M105.8,39.5c0.3,0,0.7-0.1,0.9-0.3V41c-0.3,0.2-0.9,0.3-1.6,0.3
		c-1.7,0-2.8-1-2.8-2.9v-4.3h-1.6l3.6-4.6v2.8h2.3v1.7h-2.3V38C104.4,39,104.9,39.5,105.8,39.5 M116.7,36.8c0,2.6-2,4.6-4.7,4.6
		c-2.7,0-4.7-2-4.7-4.6c0-2.6,2-4.6,4.7-4.6C114.7,32.2,116.7,34.2,116.7,36.8 M109.4,36.8c0,1.5,1.1,2.7,2.6,2.7
		c1.5,0,2.6-1.2,2.6-2.7c0-1.5-1.1-2.7-2.6-2.7C110.6,34.1,109.4,35.3,109.4,36.8"/>
</g>
</svg>
