<?xml version="1.0" encoding="utf-8"?>
<!-- Generator: Adobe Illustrator 21.0.0, SVG Export Plug-In . SVG Version: 6.00 Build 0)  -->
<svg version="1.1" id="Layer_1" xmlns="http://www.w3.org/2000/svg" xmlns:xlink="http://www.w3.org/1999/xlink" x="0px" y="0px"
	 viewBox="0 0 130 70" style="enable-background:new 0 0 130 70;" xml:space="preserve">
<style type="text/css">
	.st0{fill:#1FB6FF;}
</style>
<path class="st0" d="M93.2,40C64,37.8,40,44.6,34.5,47.2c-3,1.3-3.3,3-2.8,3.9c0.4,0.7,1.8,1.2,3.4,0.4c11.6-6.2,34.9-11,58-9.6
	c0.5,0,1.1-0.4,1.1-1.1C94.1,40.5,93.7,40,93.2,40L93.2,40z M100.4,31.5c-1.2,1.3-3,2.4-3.5,1.8c-0.5-0.5,0-2.1,0-2.1
	c2.9-1.8,8.4-6.4,8.4-10.1c0-3.3-3-4.3-6.2-1.3c-2.5,2.8-4.5,6-5.4,9.7c-1.7,1.6-4.2,3.7-6.6,3.7c-1.2,0-1.6-0.8-1.4-2
	c2,0,7.6-1.6,7.6-6.2c0-0.8-0.4-1.4-0.9-2c-0.5-0.5-1.3-0.8-2.1-0.7c-2.5,0-5.8,2.5-7.4,6.2c-0.4-0.1-0.8-0.3-1.3-0.4
	c0.4-0.9,0.8-1.8,1.1-2.8c0.4-1.8-0.4-3-2-2.9c-1.1,0.1-2.2,0.9-2.4,2.9c-0.1,1.1,0.1,2,0.5,2.9c-0.7,2.1-3.5,4.7-4.5,4.6
	c-0.9-0.1,0.1-3.8,1.1-6.6c0.5-0.5,0.9-1.2,1.2-1.8c0.3-0.5,0.1-1.2-0.4-1.6c-1.4-0.5-3,0.1-3.7,1.6c-0.4,0.7-0.7,1.4-1.1,2.1
	c-0.8,0.9-2,2.1-2.4,2c-0.5-0.4,1.2-2.6,1.1-3.9c-0.1-1.1-1.2-1.8-2.2-1.7c-1.6,0.3-3.7,3.2-3.7,3.2c0.3-0.5,0.4-1.2,0.4-1.7
	c-0.1-1.2-2.2-1.6-3.3,0.4c-0.7,2-1.3,3.9-1.6,6c-0.4,0.9-2.2,3.7-3.5,3.8c-1.2,0.1,0.3-4.9,0.4-5.1c0.7-0.9,1.4-2.9,1.2-3.8
	c0-0.4-0.1-0.8-0.5-1.1c-0.4-0.3-0.8-0.3-1.2-0.3c-0.7,0.1-1.3,0.7-1.7,1.3c-0.5-0.7-1.3-0.9-2.1-0.8c-4.6,0.5-7.6,8.4-7.2,12.1
	c0.3,2,1.2,3.3,3,3c2-0.3,3.7-3.2,3.7-3.2s0.4,2.4,2.6,2.1c1.6-0.5,3-1.4,4.1-2.8c0,0.1-0.1,0.3-0.1,0.4c-0.4,2,3,1.8,3.3,0.3
	c1.1-7.6,3.5-10.6,4.3-10.6c0.7,0-1.7,3.5-0.4,5c1.1,1.2,2.8,0.3,4.2-1.1c-0.3,0.9-0.4,2-0.4,2.9c-0.1,2.1,0.7,3.8,2.8,3.8
	c2.8-0.1,5.8-3.5,7.6-6.7c0.5,0.3,1.1,0.5,1.7,0.7c-0.1,0.8-0.3,1.6-0.3,2.4c0.1,2.5,2,3.4,3.9,3.3c2.4-0.1,5.1-1.8,7.1-3.5
	c0,0.1,0,0.1-0.1,0.3c-0.1,1.2,0.1,3.4,1.8,3.5c2,0.1,5.5-1.8,7.2-3.9C102.9,31.6,101.4,30.3,100.4,31.5L100.4,31.5z M102.2,21.2
	c0.3,0,0.4,0.3,0.4,0.4c0,2.1-5.4,6.6-5.4,6.6S100.7,21.2,102.2,21.2L102.2,21.2z M89.2,25.6c0.1,0,0.4,0,0.5,0.1
	c0.1,0.1,0.1,0.3,0.1,0.5c0,1.2-1.7,2.1-3.5,2.1C87.3,27,88.4,25.6,89.2,25.6z M53.1,29c-0.1,1.3-2.4,7-3.7,7c-1.6,0.1,0.8-8,3.3-8
	C53.3,27.9,53.3,28.3,53.1,29L53.1,29z M33.6,30.4c1.4,0-1.2,7.6-0.8,10.9c0.4,3.3,4.1,2.4,3.8,0.4c-0.4-3.3,1.8-13.5,4.1-13.5
	c1.7,0-1.8,7.1-1.2,11.4c0.4,2.9,4.5,2,3.9,0.1c-1.2-5.8,2.9-11.4,2.4-15.5c-0.3-1.7-1.2-2.6-2.4-2.6c-3.8,0-6.8,7.5-6.8,7.5
	s0.4-4.2-2.6-4.5c-4.3-0.3-8.9,10.6-8.8,20.5c0.1,3.2,4.1,2.6,3.8,0.1C28.7,41,31.3,30.4,33.6,30.4L33.6,30.4z"/>
</svg>
