<?xml version="1.0" encoding="utf-8"?>
<!-- Generator: Adobe Illustrator 16.0.0, SVG Export Plug-In . SVG Version: 6.00 Build 0)  -->
<!DOCTYPE svg PUBLIC "-//W3C//DTD SVG 1.1//EN" "http://www.w3.org/Graphics/SVG/1.1/DTD/svg11.dtd">
<svg version="1.1" id="Capa_1" xmlns="http://www.w3.org/2000/svg" xmlns:xlink="http://www.w3.org/1999/xlink" x="0px" y="0px"
	 width="320px" height="444px" viewBox="0 0 320 444" enable-background="new 0 0 320 444" xml:space="preserve">
<g>
	<path fill="#FFFFFF" d="M303.525,186.444h-29.938c-4.812,0-8.775-2.649-10.619-7.093c-1.843-4.444-0.906-9.126,2.489-12.527
		l21.167-21.162c3.111-3.111,4.824-7.253,4.824-11.65c0-4.403-1.713-8.539-4.824-11.656l-26.98-26.98
		c-6.223-6.223-17.072-6.234-23.307,0l-21.162,21.161c-3.4,3.396-8.094,4.344-12.527,2.495c-4.443-1.843-7.093-5.808-7.093-10.619
		V78.474c0-9.084-7.39-16.474-16.474-16.474h-38.164c-9.084,0-16.474,7.39-16.474,16.474v29.938c0,4.812-2.649,8.776-7.093,10.619
		c-4.433,1.854-9.126,0.9-12.527-2.495L83.662,95.375c-6.234-6.234-17.084-6.223-23.307,0l-26.98,26.98
		c-3.111,3.111-4.824,7.253-4.824,11.656c0,4.397,1.712,8.533,4.824,11.65l21.167,21.162c3.396,3.401,4.326,8.083,2.489,12.527
		c-1.837,4.444-5.808,7.093-10.62,7.093H16.474C7.39,186.444,0,193.834,0,202.918v38.158c0,9.09,7.39,16.479,16.474,16.479h29.938
		c4.812,0,8.776,2.649,10.62,7.093c1.843,4.445,0.907,9.127-2.489,12.527l-21.167,21.162c-3.111,3.111-4.824,7.253-4.824,11.65
		c0,4.402,1.712,8.539,4.824,11.656l26.98,26.98c6.228,6.229,17.073,6.24,23.307,0l21.162-21.167
		c3.401-3.396,8.077-4.332,12.527-2.489c4.444,1.844,7.093,5.808,7.093,10.619v29.938c0,9.085,7.39,16.475,16.474,16.475h38.158
		c9.084,0,16.474-7.39,16.474-16.475v-29.938c0-4.812,2.649-8.775,7.093-10.619c4.451-1.849,9.127-0.906,12.527,2.489l21.162,21.167
		c6.234,6.234,17.084,6.223,23.307,0l26.98-26.98c3.111-3.111,4.824-7.254,4.824-11.656c0-4.397-1.713-8.533-4.824-11.65
		l-21.168-21.162c-3.395-3.4-4.325-8.082-2.488-12.527c1.837-4.443,5.813-7.093,10.625-7.093h29.938
		c9.085,0,16.475-7.39,16.475-16.474v-38.164C320,193.834,312.61,186.444,303.525,186.444z M308.148,241.082
		c0,2.548-2.074,4.621-4.623,4.621h-29.938c-9.623,0-17.891,5.523-21.57,14.412c-3.686,8.889-1.748,18.643,5.061,25.446
		l21.168,21.161c1.807,1.808,1.807,4.741,0,6.543l-26.98,26.98c-1.802,1.801-4.735,1.813-6.543,0l-21.161-21.168
		c-6.81-6.809-16.558-8.734-25.446-5.061c-8.889,3.68-14.412,11.947-14.412,21.57v29.938c0,2.549-2.074,4.623-4.621,4.623h-38.164
		c-2.548,0-4.622-2.074-4.622-4.623v-29.938c0-9.623-5.523-17.891-14.412-21.57c-2.98-1.238-6.05-1.843-9.084-1.843
		c-6.009,0-11.834,2.37-16.361,6.897L75.277,340.24c-1.813,1.813-4.747,1.801-6.542,0l-26.981-26.98
		c-1.807-1.809-1.807-4.741,0-6.543l21.167-21.161c6.803-6.804,8.747-16.558,5.061-25.446c-3.68-8.883-11.947-14.406-21.571-14.406
		H16.474c-2.548,0-4.622-2.073-4.622-4.621v-38.164c0-2.548,2.074-4.622,4.622-4.622h29.938c9.624,0,17.891-5.523,21.571-14.412
		c3.686-8.889,1.748-18.643-5.061-25.446l-21.167-21.162c-1.807-1.807-1.807-4.741,0-6.542l26.981-26.981
		c1.801-1.807,4.735-1.807,6.542,0l21.162,21.162c6.797,6.797,16.545,8.747,25.446,5.061c8.889-3.674,14.412-11.94,14.412-21.564
		V78.474c0-2.548,2.074-4.622,4.622-4.622h38.158c2.553,0,4.627,2.074,4.627,4.622v29.938c0,9.624,5.523,17.89,14.412,21.57
		c8.9,3.686,18.643,1.742,25.446-5.061l21.161-21.162c1.813-1.807,4.747-1.807,6.543,0l26.98,26.981
		c1.807,1.808,1.807,4.741,0,6.542l-21.168,21.161c-6.803,6.803-8.746,16.557-5.061,25.446c3.68,8.889,11.947,14.412,21.57,14.412
		h29.938c2.549-0.006,4.623,2.068,4.623,4.616V241.082z"/>
	<path fill="#FFFFFF" d="M160,168.667c-29.41,0-53.333,23.923-53.333,53.333S130.59,275.334,160,275.334S213.334,251.41,213.334,222
		S189.41,168.667,160,168.667z M160,263.481c-22.868,0-41.481-18.613-41.481-41.481s18.613-41.481,41.481-41.481
		s41.481,18.613,41.481,41.481S182.868,263.481,160,263.481z"/>
</g>
</svg>
