<?xml version="1.0" encoding="utf-8"?>
<!-- Generator: Adobe Illustrator 16.0.0, SVG Export Plug-In . SVG Version: 6.00 Build 0)  -->
<!DOCTYPE svg PUBLIC "-//W3C//DTD SVG 1.1//EN" "http://www.w3.org/Graphics/SVG/1.1/DTD/svg11.dtd">
<svg version="1.1" id="Capa_1" xmlns="http://www.w3.org/2000/svg" xmlns:xlink="http://www.w3.org/1999/xlink" x="0px" y="0px"
	 width="320px" height="444px" viewBox="0 0 320 444" enable-background="new 0 0 320 444" xml:space="preserve">
<g>
	<path fill="#FFFFFF" d="M226.666,179.333H93.333c-2.944,0-5.333,2.384-5.333,5.333c0,2.95,2.389,5.333,5.333,5.333h133.333
		c2.945,0,5.334-2.384,5.334-5.333C232,181.717,229.611,179.333,226.666,179.333z"/>
	<path fill="#FFFFFF" d="M93.333,147.333h53.333c2.944,0,5.333-2.384,5.333-5.333s-2.389-5.333-5.333-5.333H93.333
		c-2.944,0-5.333,2.384-5.333,5.333S90.389,147.333,93.333,147.333z"/>
	<path fill="#FFFFFF" d="M226.666,222H93.333c-2.944,0-5.333,2.384-5.333,5.334c0,2.949,2.389,5.332,5.333,5.332h133.333
		c2.945,0,5.334-2.383,5.334-5.332C232,224.384,229.611,222,226.666,222z"/>
	<path fill="#FFFFFF" d="M226.666,264.666H93.333c-2.944,0-5.333,2.385-5.333,5.334s2.389,5.334,5.333,5.334h133.333
		c2.945,0,5.334-2.385,5.334-5.334S229.611,264.666,226.666,264.666z"/>
	<path fill="#FFFFFF" d="M226.666,307.334H93.333c-2.944,0-5.333,2.383-5.333,5.332c0,2.95,2.389,5.334,5.333,5.334h133.333
		c2.945,0,5.334-2.384,5.334-5.334C232,309.717,229.611,307.334,226.666,307.334z"/>
	<path fill="#FFFFFF" d="M207.541,62H34.667v320h250.667V139.792L207.541,62z M210.666,80.208l56.459,56.458h-56.459V80.208z
		 M45.333,371.334V72.667H200v74.667h74.666v224H45.333z"/>
</g>
</svg>
