<?xml version="1.0" encoding="utf-8"?>
<!-- Generator: Adobe Illustrator 16.0.0, SVG Export Plug-In . SVG Version: 6.00 Build 0)  -->
<!DOCTYPE svg PUBLIC "-//W3C//DTD SVG 1.1//EN" "http://www.w3.org/Graphics/SVG/1.1/DTD/svg11.dtd">
<svg version="1.1" id="Capa_1" xmlns="http://www.w3.org/2000/svg" xmlns:xlink="http://www.w3.org/1999/xlink" x="0px" y="0px"
	 width="320px" height="444px" viewBox="0 0 320 444" enable-background="new 0 0 320 444" xml:space="preserve">
<path fill="#FFFFFF" d="M317.248,208.016L159.997,62L2.752,208.016c-2.215,2.062-2.347,5.532-0.285,7.753
	c2.05,2.215,5.532,2.341,7.747,0.285l18.197-16.897V382h87.724h87.724h87.724V199.151l18.197,16.897
	c1.053,0.981,2.396,1.464,3.733,1.464c1.475,0,2.939-0.586,4.014-1.749C319.595,213.548,319.463,210.078,317.248,208.016z
	 M127.101,371.035v-87.725c0-18.143,14.754-32.896,32.896-32.896c18.143,0,32.896,14.754,32.896,32.896v87.725H127.101z
	 M280.617,371.035h-76.758v-87.725c0-24.184-19.678-43.861-43.862-43.861c-24.184,0-43.862,19.678-43.862,43.861v87.725H39.377
	V188.969l120.62-112.007l120.62,112.007V371.035z"/>
</svg>
