<?xml version="1.0" encoding="utf-8"?>
<!-- Generator: Adobe Illustrator 16.0.0, SVG Export Plug-In . SVG Version: 6.00 Build 0)  -->
<!DOCTYPE svg PUBLIC "-//W3C//DTD SVG 1.1//EN" "http://www.w3.org/Graphics/SVG/1.1/DTD/svg11.dtd">
<svg version="1.1" id="Capa_1" xmlns="http://www.w3.org/2000/svg" xmlns:xlink="http://www.w3.org/1999/xlink" x="0px" y="0px"
	 width="320px" height="444px" viewBox="0 0 320 444" enable-background="new 0 0 320 444" xml:space="preserve">
<path fill="#FFFFFF" d="M320,222c0-88.221-71.779-160-160-160C71.779,62,0,133.779,0,222c0,46.598,20.038,88.6,51.933,117.865
	l-0.151,0.133l5.19,4.376c0.337,0.284,0.704,0.518,1.042,0.797c2.758,2.286,5.614,4.456,8.523,6.558
	c0.943,0.68,1.885,1.361,2.845,2.024c3.107,2.141,6.295,4.171,9.553,6.097c0.71,0.42,1.426,0.826,2.141,1.234
	c3.567,2.03,7.209,3.944,10.938,5.701c0.273,0.129,0.553,0.244,0.826,0.373c12.154,5.648,25.128,9.797,38.697,12.247
	c0.355,0.063,0.709,0.128,1.07,0.192c4.212,0.727,8.471,1.309,12.783,1.698c0.523,0.047,1.047,0.075,1.577,0.122
	C151.261,381.773,155.602,382,160,382c4.357,0,8.657-0.227,12.928-0.57c0.541-0.047,1.082-0.076,1.623-0.122
	c4.277-0.39,8.501-0.954,12.672-1.67c0.361-0.063,0.729-0.128,1.089-0.198c13.364-2.396,26.152-6.451,38.149-11.956
	c0.442-0.203,0.891-0.396,1.332-0.604c3.59-1.688,7.099-3.509,10.537-5.446c0.855-0.483,1.705-0.972,2.555-1.472
	c3.13-1.845,6.207-3.771,9.198-5.818c1.076-0.732,2.13-1.507,3.194-2.275c2.554-1.838,5.062-3.734,7.5-5.719
	c0.541-0.437,1.122-0.814,1.652-1.263l5.323-4.444l-0.157-0.135C299.77,311.029,320,268.836,320,222z M11.636,222
	C11.636,140.19,78.19,73.636,160,73.636S308.363,140.19,308.363,222c0,44.084-19.346,83.718-49.973,110.912
	c-1.71-1.182-3.432-2.24-5.195-3.125l-49.262-24.628c-4.422-2.211-7.168-6.655-7.168-11.596v-17.204
	c1.14-1.408,2.344-3.002,3.59-4.754c6.376-9.006,11.49-19.025,15.22-29.807c7.372-3.502,12.131-10.845,12.131-19.136v-20.625
	c0-5.044-1.851-9.937-5.161-13.783v-27.153c0.303-3.02,1.373-20.061-10.955-34.118c-10.723-12.242-28.078-18.438-51.59-18.438
	c-23.511,0-40.867,6.196-51.59,18.432c-12.329,14.057-11.258,31.098-10.956,34.118v27.153c-3.305,3.846-5.161,8.739-5.161,13.784
	v20.625c0,6.406,2.874,12.382,7.796,16.413c4.712,18.461,14.412,32.437,17.996,37.173v16.837c0,4.748-2.589,9.111-6.761,11.393
	l-46.004,25.094c-1.466,0.797-2.921,1.729-4.375,2.77C30.697,305.153,11.636,265.764,11.636,222z M247.034,342.041
	c-2.036,1.478-4.107,2.908-6.208,4.275c-0.966,0.629-1.926,1.258-2.909,1.868c-2.746,1.699-5.539,3.316-8.39,4.829
	c-0.629,0.332-1.263,0.646-1.896,0.972c-6.552,3.357-13.33,6.243-20.294,8.588c-0.245,0.081-0.489,0.169-0.739,0.25
	c-3.648,1.21-7.342,2.286-11.078,3.212c-0.012,0-0.023,0.006-0.035,0.006c-3.77,0.931-7.586,1.705-11.426,2.339
	c-0.105,0.017-0.21,0.04-0.314,0.058c-3.613,0.588-7.256,1.013-10.909,1.332c-0.646,0.059-1.292,0.1-1.943,0.146
	c-3.613,0.273-7.243,0.447-10.892,0.447c-3.688,0-7.366-0.18-11.025-0.453c-0.634-0.047-1.269-0.088-1.897-0.146
	c-3.688-0.325-7.36-0.762-10.996-1.355c-0.163-0.028-0.326-0.058-0.489-0.087c-7.692-1.286-15.261-3.177-22.633-5.649
	c-0.227-0.076-0.459-0.157-0.687-0.232c-3.66-1.245-7.278-2.624-10.833-4.148c-0.023-0.012-0.052-0.023-0.076-0.035
	c-3.363-1.449-6.662-3.055-9.92-4.748c-0.425-0.221-0.855-0.43-1.274-0.656c-2.973-1.589-5.882-3.305-8.751-5.098
	c-0.849-0.535-1.693-1.076-2.531-1.623c-2.642-1.729-5.248-3.525-7.785-5.428c-0.262-0.198-0.512-0.408-0.774-0.605
	c0.187-0.105,0.373-0.209,0.559-0.314l46.004-25.094c7.913-4.316,12.829-12.596,12.829-21.609l-0.006-20.957l-1.338-1.617
	c-0.128-0.145-12.707-15.447-17.46-36.166l-0.53-2.304l-1.984-1.286c-2.798-1.809-4.474-4.834-4.474-8.099v-20.625
	c0-2.706,1.146-5.225,3.241-7.116l1.92-1.734V160.77l-0.052-0.762c-0.018-0.14-1.734-14.132,8.122-25.367
	c8.413-9.588,22.831-14.458,42.839-14.458c19.934,0,34.305,4.829,42.74,14.348c9.845,11.119,8.232,25.373,8.221,25.49l-0.052,33.169
	l1.92,1.734c2.089,1.885,3.241,4.41,3.241,7.116v20.625c0,4.148-2.822,7.913-6.871,9.164l-2.893,0.89l-0.931,2.881
	c-3.433,10.664-8.319,20.514-14.522,29.276c-1.523,2.153-3.008,4.062-4.281,5.521l-1.443,1.646v21.521
	c0,9.379,5.213,17.815,13.603,22.005l49.263,24.628c0.314,0.157,0.623,0.32,0.932,0.483
	C248.303,341.15,247.662,341.587,247.034,342.041z"/>
</svg>
