<?xml version="1.0" encoding="utf-8"?>
<!-- Generator: Adobe Illustrator 16.0.0, SVG Export Plug-In . SVG Version: 6.00 Build 0)  -->
<!DOCTYPE svg PUBLIC "-//W3C//DTD SVG 1.1//EN" "http://www.w3.org/Graphics/SVG/1.1/DTD/svg11.dtd">
<svg version="1.1" id="Capa_1" xmlns="http://www.w3.org/2000/svg" xmlns:xlink="http://www.w3.org/1999/xlink" x="0px" y="0px"
	 width="320px" height="444px" viewBox="0 0 320 444" enable-background="new 0 0 320 444" xml:space="preserve">
<g>
	<path fill="#FFFFFF" d="M160,109.407c-55.55,0-100.741,45.191-100.741,100.741c0,42.145,26.021,79.479,65.185,94.222v53.927
		c0,3.276,2.649,5.926,5.926,5.926h5.926v11.852c0,3.277,2.649,5.926,5.926,5.926h35.555c3.277,0,5.926-2.648,5.926-5.926v-11.852
		h5.926c3.277,0,5.927-2.649,5.927-5.926V304.37c39.165-14.743,65.185-52.077,65.185-94.222
		C260.74,154.599,215.55,109.407,160,109.407z M177.777,352.37c-3.276,0-5.926,2.649-5.926,5.927v11.852h-23.704v-11.852
		c0-3.277-2.649-5.927-5.926-5.927h-5.926v-29.63h47.407v29.63H177.777z M187.781,294.545c-2.436,0.801-4.078,3.076-4.078,5.63
		v10.714h-47.407v-10.714c0-2.56-1.642-4.829-4.077-5.63c-36.545-12.018-61.108-45.938-61.108-84.397
		c0-49.013,39.875-88.889,88.889-88.889c49.014,0,88.889,39.875,88.889,88.889C248.889,248.607,224.326,282.527,187.781,294.545z"/>
	<path fill="#FFFFFF" d="M160,97.556c3.277,0,5.926-2.649,5.926-5.926V67.926c0-3.277-2.648-5.926-5.926-5.926
		c-3.277,0-5.926,2.649-5.926,5.926V91.63C154.074,94.907,156.723,97.556,160,97.556z"/>
	<path fill="#FFFFFF" d="M302.223,204.222h-23.704c-3.277,0-5.926,2.649-5.926,5.926c0,3.277,2.648,5.926,5.926,5.926h23.704
		c3.276,0,5.926-2.649,5.926-5.926C308.148,206.871,305.499,204.222,302.223,204.222z"/>
	<path fill="#FFFFFF" d="M41.481,204.222H17.778c-3.277,0-5.926,2.649-5.926,5.926c0,3.277,2.649,5.926,5.926,5.926h23.704
		c3.277,0,5.926-2.649,5.926-5.926C47.407,206.871,44.758,204.222,41.481,204.222z"/>
	<path fill="#FFFFFF" d="M256.379,105.39l-16.758,16.758c-2.317,2.317-2.317,6.063,0,8.379c1.155,1.156,2.672,1.736,4.189,1.736
		s3.033-0.581,4.189-1.736l16.758-16.758c2.318-2.317,2.318-6.063,0-8.379C262.441,103.073,258.69,103.079,256.379,105.39z"/>
	<path fill="#FFFFFF" d="M72,289.77l-16.758,16.758c-2.317,2.316-2.317,6.063,0,8.379c1.155,1.156,2.672,1.736,4.189,1.736
		s3.034-0.58,4.189-1.736l16.759-16.758c2.317-2.317,2.317-6.063,0-8.379C78.062,287.451,74.317,287.451,72,289.77z"/>
	<path fill="#FFFFFF" d="M248,289.77c-2.316-2.318-6.063-2.318-8.379,0c-2.317,2.316-2.317,6.062,0,8.379l16.758,16.758
		c1.156,1.156,2.673,1.736,4.189,1.736c1.518,0,3.035-0.58,4.189-1.736c2.318-2.316,2.318-6.063,0-8.379L248,289.77z"/>
	<path fill="#FFFFFF" d="M72,130.527c1.156,1.156,2.672,1.736,4.189,1.736s3.034-0.581,4.19-1.736c2.317-2.317,2.317-6.062,0-8.379
		L63.621,105.39c-2.317-2.317-6.062-2.317-8.379,0c-2.317,2.317-2.317,6.062,0,8.379L72,130.527z"/>
	<path fill="#FFFFFF" d="M160,139.037c-39.212,0-71.111,31.899-71.111,71.111c0,3.277,2.649,5.926,5.926,5.926
		c3.277,0,5.926-2.649,5.926-5.926c0-32.675,26.583-59.259,59.259-59.259c3.277,0,5.926-2.648,5.926-5.926
		C165.926,141.686,163.277,139.037,160,139.037z"/>
</g>
</svg>
