<?xml version="1.0" encoding="utf-8"?>
<!-- Generator: Adobe Illustrator 16.0.0, SVG Export Plug-In . SVG Version: 6.00 Build 0)  -->
<!DOCTYPE svg PUBLIC "-//W3C//DTD SVG 1.1//EN" "http://www.w3.org/Graphics/SVG/1.1/DTD/svg11.dtd">
<svg version="1.1" id="Capa_1" xmlns="http://www.w3.org/2000/svg" xmlns:xlink="http://www.w3.org/1999/xlink" x="0px" y="0px"
	 width="320px" height="444px" viewBox="0 0 320 444" enable-background="new 0 0 320 444" xml:space="preserve">
<g>
	<path fill="#FFFFFF" d="M161.043,132.128c-22.552,0-40.908,18.356-40.908,40.908c0,22.552,18.356,40.908,40.908,40.908
		c22.553,0,40.908-18.356,40.908-40.908C201.951,150.484,183.596,132.128,161.043,132.128z M161.043,202.256
		c-16.112,0-29.22-13.108-29.22-29.22s13.108-29.22,29.22-29.22c16.112,0,29.221,13.108,29.221,29.22
		S177.155,202.256,161.043,202.256z"/>
	<path fill="#FFFFFF" d="M239.254,94.826C218.086,73.659,189.941,62,160.009,62c-29.939,0-58.078,11.659-79.245,32.826
		c-39.172,39.167-44.041,112.859-10.542,157.508L160.009,382l89.653-129.485C283.294,207.685,278.426,133.992,239.254,94.826z
		 M240.183,245.683l-80.174,115.782L79.707,245.502c-30.383-40.511-26.029-107.063,9.327-142.413
		c18.958-18.958,44.163-29.401,70.976-29.401s52.018,10.443,70.981,29.401C266.346,138.439,270.7,204.991,240.183,245.683z"/>
</g>
</svg>
