<?xml version="1.0" encoding="utf-8"?>
<!-- Generator: Adobe Illustrator 21.0.0, SVG Export Plug-In . SVG Version: 6.00 Build 0)  -->
<svg version="1.1" id="Layer_2_1_" xmlns="http://www.w3.org/2000/svg" xmlns:xlink="http://www.w3.org/1999/xlink" x="0px" y="0px"
	 viewBox="0 0 1500 1500" style="enable-background:new 0 0 1500 1500;" xml:space="preserve">
<style type="text/css">
	.st0{fill:none;}
	.st1{fill:#3753A1;}
	.st2{fill:#FFFFFF;}
</style>
<g id="Layer_3">
	<g id="Layer_2">
	</g>
</g>
<line class="st0" x1="425" y1="515.3" x2="425" y2="988.2"/>
<polyline class="st1" points="425,988.2 793,1056.5 793,444.5 425,515.3 "/>
<g>
	<path class="st2" d="M570.7,638.8L587,735c3.1,19.4,6.2,38.8,9.3,60.4h0.9c2.6-22.1,5.3-40.1,8.4-60.4l16.8-96.2h56.9l-57.8,215.7
		H568l-58.7-215.7H570.7z"/>
</g>
<g>
	<polygon class="st1" points="1075,985.7 793,985.7 793,960.4 1049.7,960.4 1049.7,527.9 793,527.9 793,502.6 1075,502.6 	"/>
</g>
<g>
	<path class="st1" d="M939.4,728.5l-87.1-87.1l87.1-87.1l87.1,87.1L939.4,728.5z M888,641.4l51.4,51.4l51.4-51.4l-51.4-51.4
		L888,641.4z"/>
</g>
<g>
	<rect x="760.1" y="628.8" class="st1" width="110" height="25.3"/>
</g>
<g>
	<polygon class="st1" points="952,856.7 867,856.7 867,831.4 926.7,831.4 926.7,710.7 952,710.7 	"/>
</g>
<g>
	<path class="st1" d="M879.6,922.5h-148v-148h148V922.5z M757,897.2h97.4v-97.4H757V897.2z"/>
</g>
</svg>
