<svg width="32" height="32" viewBox="0 0 32 32" fill="none" xmlns="http://www.w3.org/2000/svg">
<path d="M14.5804 26.4111C18.6296 25.6958 21.974 25.1039 22.0124 25.0958L22.0823 25.0809L18.2594 20.5338C16.1569 18.0329 14.4366 15.977 14.4366 15.9651C14.4366 15.9427 18.384 5.07247 18.4062 5.03379C18.4136 5.02087 21.0999 9.65871 24.918 16.2762C28.4925 22.4717 31.4396 27.5799 31.467 27.6277L31.5168 27.7148L19.3675 27.7132L7.21831 27.7116L14.5804 26.4111ZM0 25.0244C0 25.018 1.8013 21.8911 4.00288 18.0758L8.00575 11.1387L12.6706 7.22394C15.2363 5.07081 17.3424 3.30653 17.3509 3.30331C17.3593 3.30009 17.3256 3.38504 17.2759 3.49208C17.2262 3.59913 14.9467 8.48827 12.2105 14.3569L7.23541 25.027L3.6177 25.0315C1.62797 25.034 0 25.0308 0 25.0244Z" fill="#0089D6"/>
</svg>
