<?xml version="1.0" encoding="utf-8"?>
<!-- Generator: Adobe Illustrator 21.0.2, SVG Export Plug-In . SVG Version: 6.00 Build 0)  -->
<svg version="1.1" id="Layer_1" xmlns="http://www.w3.org/2000/svg" xmlns:xlink="http://www.w3.org/1999/xlink" x="0px" y="0px"
	 width="130px" height="70px" viewBox="0 0 130 70" style="enable-background:new 0 0 130 70;" xml:space="preserve">
<style type="text/css">
	.st0{display:none;}
	.st1{display:inline;}
	.st2{fill:#0C0407;}
	.st3{fill:#35A8E1;}
</style>
<g id="Layer_1_1_" class="st0">
	<g class="st1">
		<path class="st2" d="M240,670.9l1.6-0.1c0.1,0.6,0.3,1.2,0.5,1.6c0.3,0.4,0.7,0.7,1.3,1s1.2,0.4,2,0.4c0.7,0,1.2-0.1,1.7-0.3
			s0.9-0.5,1.1-0.8s0.4-0.7,0.4-1.1c0-0.4-0.1-0.8-0.4-1.1s-0.6-0.6-1.2-0.8c-0.3-0.1-1.1-0.3-2.3-0.6s-2-0.6-2.5-0.8
			c-0.6-0.3-1.1-0.7-1.4-1.2c-0.3-0.5-0.5-1-0.5-1.6c0-0.7,0.2-1.3,0.6-1.8s0.9-1,1.6-1.3s1.5-0.4,2.4-0.4c1,0,1.8,0.2,2.5,0.5
			s1.3,0.8,1.7,1.4s0.6,1.3,0.6,2l-1.6,0.1c-0.1-0.8-0.4-1.4-0.9-1.8c-0.5-0.4-1.3-0.6-2.2-0.6c-1,0-1.8,0.2-2.3,0.6
			c-0.5,0.4-0.7,0.8-0.7,1.4c0,0.5,0.2,0.8,0.5,1.1s1.2,0.6,2.6,0.9c1.4,0.3,2.3,0.6,2.9,0.8c0.8,0.3,1.3,0.8,1.7,1.3
			s0.5,1.1,0.5,1.8s-0.2,1.3-0.6,1.9c-0.4,0.6-1,1.1-1.7,1.4c-0.7,0.3-1.6,0.5-2.5,0.5c-1.2,0-2.1-0.2-2.9-0.5
			c-0.8-0.3-1.4-0.9-1.9-1.5C240.3,672.6,240,671.8,240,670.9z"/>
		<path class="st2" d="M258.8,672.1l1.6,0.2c-0.3,1-0.7,1.7-1.4,2.2s-1.6,0.8-2.7,0.8c-1.4,0-2.4-0.4-3.2-1.3
			c-0.8-0.8-1.2-2-1.2-3.5c0-1.6,0.4-2.8,1.2-3.7s1.9-1.3,3.1-1.3c1.2,0,2.3,0.4,3.1,1.3s1.2,2,1.2,3.6c0,0.1,0,0.2,0,0.4h-7
			c0.1,1,0.3,1.8,0.9,2.4s1.2,0.8,2,0.8c0.6,0,1.1-0.2,1.5-0.5S258.6,672.7,258.8,672.1z M253.6,669.5h5.2c-0.1-0.8-0.3-1.4-0.6-1.8
			c-0.5-0.6-1.2-0.9-2-0.9c-0.7,0-1.3,0.2-1.8,0.7S253.6,668.7,253.6,669.5z"/>
		<path class="st2" d="M268.8,672.1l1.6,0.2c-0.3,1-0.7,1.7-1.4,2.2s-1.6,0.8-2.7,0.8c-1.4,0-2.4-0.4-3.2-1.3
			c-0.8-0.8-1.2-2-1.2-3.5c0-1.6,0.4-2.8,1.2-3.7s1.9-1.3,3.1-1.3s2.3,0.4,3.1,1.3s1.2,2,1.2,3.6c0,0.1,0,0.2,0,0.4h-7
			c0.1,1,0.3,1.8,0.9,2.4s1.2,0.8,2,0.8c0.6,0,1.1-0.2,1.5-0.5S268.6,672.7,268.8,672.1z M263.6,669.5h5.2c-0.1-0.8-0.3-1.4-0.6-1.8
			c-0.5-0.6-1.2-0.9-2-0.9c-0.7,0-1.3,0.2-1.8,0.7S263.7,668.7,263.6,669.5z"/>
		<path class="st2" d="M272.4,675.1v-12.9h1.6v7.3l3.7-3.8h2l-3.6,3.5l3.9,5.9h-2l-3.1-4.8l-1.1,1.1v3.7H272.4z"/>
		<path class="st2" d="M285.3,675.1l-5-12.9h1.8l3.3,9.4c0.3,0.8,0.5,1.5,0.7,2.1c0.2-0.7,0.4-1.4,0.7-2.1l3.5-9.4h1.7l-5,12.9
			H285.3z"/>
		<path class="st2" d="M298.8,672.1l1.6,0.2c-0.3,1-0.7,1.7-1.4,2.2s-1.6,0.8-2.7,0.8c-1.4,0-2.4-0.4-3.2-1.3
			c-0.8-0.8-1.2-2-1.2-3.5c0-1.6,0.4-2.8,1.2-3.7s1.9-1.3,3.1-1.3s2.3,0.4,3.1,1.3s1.2,2,1.2,3.6c0,0.1,0,0.2,0,0.4h-7
			c0.1,1,0.3,1.8,0.9,2.4s1.2,0.8,2,0.8c0.6,0,1.1-0.2,1.5-0.5S298.6,672.7,298.8,672.1z M293.6,669.5h5.2c-0.1-0.8-0.3-1.4-0.6-1.8
			c-0.5-0.6-1.2-0.9-2-0.9c-0.7,0-1.3,0.2-1.8,0.7S293.7,668.7,293.6,669.5z"/>
		<path class="st2" d="M308.5,671.7l1.6,0.2c-0.2,1.1-0.6,1.9-1.3,2.5c-0.7,0.6-1.6,0.9-2.6,0.9c-1.3,0-2.3-0.4-3.1-1.3
			c-0.8-0.8-1.2-2-1.2-3.6c0-1,0.2-1.9,0.5-2.6s0.8-1.3,1.5-1.7s1.4-0.6,2.2-0.6c1,0,1.8,0.3,2.5,0.8s1.1,1.2,1.2,2.2l-1.5,0.2
			c-0.1-0.6-0.4-1.1-0.8-1.4s-0.8-0.5-1.3-0.5c-0.8,0-1.4,0.3-1.9,0.9c-0.5,0.6-0.7,1.5-0.7,2.7c0,1.3,0.2,2.2,0.7,2.7
			s1.1,0.9,1.9,0.9c0.6,0,1.1-0.2,1.6-0.6S308.4,672.4,308.5,671.7z"/>
		<path class="st2" d="M314.9,673.7l0.2,1.4c-0.4,0.1-0.8,0.1-1.2,0.1c-0.6,0-1-0.1-1.3-0.3s-0.5-0.4-0.7-0.7s-0.2-0.9-0.2-1.9V667
			h-1.2v-1.2h1.2v-2.3l1.6-0.9v3.3h1.6v1.2h-1.6v5.5c0,0.5,0,0.7,0.1,0.9s0.1,0.2,0.3,0.3c0.1,0.1,0.3,0.1,0.5,0.1
			C314.4,673.7,314.6,673.7,314.9,673.7z"/>
		<path class="st2" d="M315.9,670.4c0-1.7,0.5-3,1.4-3.8c0.8-0.7,1.8-1,2.9-1c1.3,0,2.3,0.4,3.1,1.3s1.2,2,1.2,3.5
			c0,1.2-0.2,2.1-0.5,2.8c-0.4,0.7-0.9,1.2-1.6,1.6s-1.4,0.6-2.3,0.6c-1.3,0-2.4-0.4-3.2-1.3C316.3,673.2,315.9,672,315.9,670.4z
			 M317.5,670.4c0,1.2,0.3,2.1,0.8,2.7c0.5,0.6,1.2,0.9,2,0.9s1.4-0.3,2-0.9s0.8-1.5,0.8-2.7s-0.3-2-0.8-2.6s-1.2-0.9-2-0.9
			s-1.4,0.3-2,0.9S317.5,669.2,317.5,670.4z"/>
		<path class="st2" d="M326.4,675.1v-9.3h1.4v1.4c0.4-0.7,0.7-1.1,1-1.3s0.6-0.3,1-0.3c0.5,0,1.1,0.2,1.6,0.5l-0.5,1.5
			c-0.4-0.2-0.8-0.3-1.2-0.3c-0.3,0-0.7,0.1-0.9,0.3s-0.5,0.5-0.6,0.9c-0.2,0.6-0.3,1.2-0.3,1.8v4.9h-1.5V675.1z"/>
		<path class="st2" d="M332.6,675.1v-12.9h1.7v11.4h6.3v1.5H332.6z"/>
		<path class="st2" d="M341.9,670.4c0-1.7,0.5-3,1.4-3.8c0.8-0.7,1.8-1,2.9-1c1.3,0,2.3,0.4,3.1,1.3s1.2,2,1.2,3.5
			c0,1.2-0.2,2.1-0.5,2.8c-0.4,0.7-0.9,1.2-1.6,1.6s-1.4,0.6-2.3,0.6c-1.3,0-2.4-0.4-3.2-1.3C342.3,673.2,341.9,672,341.9,670.4z
			 M343.5,670.4c0,1.2,0.3,2.1,0.8,2.7c0.5,0.6,1.2,0.9,2,0.9s1.4-0.3,2-0.9s0.8-1.5,0.8-2.7s-0.3-2-0.8-2.6s-1.2-0.9-2-0.9
			s-1.4,0.3-2,0.9S343.5,669.2,343.5,670.4z"/>
		<path class="st2" d="M352.2,675.8l1.5,0.2c0.1,0.5,0.2,0.8,0.5,1c0.4,0.3,0.9,0.4,1.6,0.4s1.3-0.1,1.7-0.4s0.7-0.7,0.8-1.2
			c0.1-0.3,0.1-1,0.1-2c-0.7,0.8-1.6,1.2-2.6,1.2c-1.3,0-2.3-0.5-3-1.4s-1.1-2-1.1-3.3c0-0.9,0.2-1.7,0.5-2.5s0.8-1.3,1.4-1.7
			s1.3-0.6,2.2-0.6c1.1,0,2,0.4,2.7,1.3v-1.1h1.5v8.1c0,1.5-0.1,2.5-0.4,3.1s-0.8,1.1-1.4,1.4c-0.6,0.4-1.4,0.5-2.4,0.5
			c-1.1,0-2-0.3-2.7-0.8C352.5,677.6,352.2,676.9,352.2,675.8z M353.5,670.2c0,1.2,0.2,2.1,0.7,2.7s1.1,0.8,1.8,0.8
			c0.7,0,1.3-0.3,1.8-0.8s0.7-1.4,0.7-2.6c0-1.1-0.3-2-0.8-2.6s-1.1-0.9-1.8-0.9c-0.7,0-1.3,0.3-1.8,0.9
			C353.7,668.3,353.5,669.1,353.5,670.2z"/>
		<path class="st2" d="M361.9,670.4c0-1.7,0.5-3,1.4-3.8c0.8-0.7,1.8-1,2.9-1c1.3,0,2.3,0.4,3.1,1.3s1.2,2,1.2,3.5
			c0,1.2-0.2,2.1-0.5,2.8c-0.4,0.7-0.9,1.2-1.6,1.6s-1.4,0.6-2.3,0.6c-1.3,0-2.4-0.4-3.2-1.3C362.3,673.2,361.9,672,361.9,670.4z
			 M363.5,670.4c0,1.2,0.3,2.1,0.8,2.7c0.5,0.6,1.2,0.9,2,0.9s1.4-0.3,2-0.9s0.8-1.5,0.8-2.7s-0.3-2-0.8-2.6s-1.2-0.9-2-0.9
			s-1.4,0.3-2,0.9S363.5,669.2,363.5,670.4z"/>
		<path class="st2" d="M372.9,675.1v-1.8h1.8v1.8H372.9z"/>
		<path class="st2" d="M386.9,670.6l1.7,0.4c-0.4,1.4-1,2.5-1.9,3.2s-2.1,1.1-3.4,1.1c-1.4,0-2.5-0.3-3.4-0.8
			c-0.9-0.6-1.5-1.4-2-2.5s-0.7-2.2-0.7-3.5s0.3-2.5,0.8-3.5s1.2-1.8,2.2-2.3c0.9-0.5,2-0.8,3.1-0.8c1.3,0,2.4,0.3,3.3,1
			s1.5,1.6,1.8,2.8l-1.7,0.4c-0.3-0.9-0.7-1.6-1.3-2s-1.3-0.6-2.1-0.6c-1,0-1.8,0.2-2.5,0.7s-1.1,1.1-1.4,1.9
			c-0.3,0.8-0.4,1.6-0.4,2.5c0,1.1,0.2,2.1,0.5,2.9c0.3,0.8,0.8,1.4,1.5,1.8s1.4,0.6,2.2,0.6c1,0,1.8-0.3,2.4-0.8
			S386.7,671.6,386.9,670.6z"/>
		<path class="st2" d="M389.9,670.4c0-1.7,0.5-3,1.4-3.8c0.8-0.7,1.8-1,2.9-1c1.3,0,2.3,0.4,3.1,1.3s1.2,2,1.2,3.5
			c0,1.2-0.2,2.1-0.5,2.8c-0.4,0.7-0.9,1.2-1.6,1.6s-1.4,0.6-2.3,0.6c-1.3,0-2.4-0.4-3.2-1.3C390.3,673.2,389.9,672,389.9,670.4z
			 M391.5,670.4c0,1.2,0.3,2.1,0.8,2.7c0.5,0.6,1.2,0.9,2,0.9s1.4-0.3,2-0.9s0.8-1.5,0.8-2.7s-0.3-2-0.8-2.6s-1.2-0.9-2-0.9
			s-1.4,0.3-2,0.9S391.5,669.2,391.5,670.4z"/>
		<path class="st2" d="M400.5,675.1v-9.3h1.4v1.3c0.3-0.5,0.7-0.8,1.2-1.1s1-0.4,1.7-0.4s1.3,0.1,1.7,0.4c0.4,0.3,0.8,0.7,0.9,1.2
			c0.7-1.1,1.7-1.6,2.9-1.6c0.9,0,1.6,0.3,2.1,0.8s0.7,1.3,0.7,2.4v6.4h-1.6v-5.9c0-0.6-0.1-1.1-0.2-1.4c-0.1-0.3-0.3-0.5-0.6-0.7
			s-0.6-0.3-0.9-0.3c-0.7,0-1.2,0.2-1.6,0.7c-0.4,0.4-0.7,1.1-0.7,2.1v5.4h-1.6V669c0-0.7-0.1-1.2-0.4-1.6s-0.7-0.5-1.3-0.5
			c-0.4,0-0.9,0.1-1.2,0.4c-0.4,0.2-0.7,0.6-0.8,1s-0.3,1.1-0.3,2v4.8L400.5,675.1L400.5,675.1z"/>
	</g>
</g>
<g id="Layer_2">
	<g>
		<path class="st3" d="M17.5,18.3c7.3-1,14.6-2,21.9-3c0,6.4,0,12.8,0,19.3c-7.3,0-14.6,0-21.9,0C17.5,29.2,17.4,23.8,17.5,18.3"/>
		<path class="st3" d="M122.1,18.5c0.8-1,2.3-1.3,3.3-0.5c-0.8,0.2-1.7,0.2-2.4,0.6c-0.6,0.9-0.3,2-0.4,3.1c1.5,0,2.9,0,4.4,0
			c0-1.1,0-2.1,0-3.2l0.8,0c0,1,0,2.1,0,3.1c0.8,0,1.5,0,2.3,0v0.6c-0.8,0-1.5,0-2.3,0c0,2.3,0,4.5,0,6.7c0.1,0.6-0.1,1.4,0.4,1.8
			c0.5,0.4,1.3,0.3,1.9,0.4c0,0.1,0,0.4,0,0.6c-1.2,0-2.8-0.2-3-1.6c-0.1-2.6,0-5.3,0-7.9c-1.5,0-2.9,0-4.4,0c0,3.2,0,6.4,0,9.6
			c-0.2-0.1-0.5-0.2-0.7-0.2c-0.1-3.1,0-6.3,0-9.4c-0.7-0.1-1.7,0.3-2.1-0.6c0.7,0,1.4-0.1,2.1-0.1
			C121.8,20.5,121.7,19.4,122.1,18.5"/>
		<path class="st3" d="M50.5,17.6c0.3,0.1,0.9,0.2,1.2,0.3c2.1,4.2,3.9,8.6,5.9,12.8c2.3-4.1,3.9-8.6,5.9-12.9c0.4,0,0.9,0,1.3,0
			c0,4.6,0,9.3,0,13.9c-0.2,0-0.7-0.1-0.9-0.1c0-4.3,0.1-8.5,0-12.8c-2,4.2-3.8,8.6-5.8,12.8c-0.2,0-0.6,0-0.9,0
			c-1.3-2.8-2.6-5.7-3.9-8.5c-0.6-1.4-1.1-2.8-2-4c-0.1,4.2,0,8.3-0.1,12.5c-0.2,0-0.6,0-0.9,0C50.5,27,50.5,22.3,50.5,17.6"/>
		<path class="st3" d="M67.7,17.8c0.2,0,0.6,0,0.7,0v1.9c-0.2,0-0.6,0-0.8,0C67.7,19,67.7,18.4,67.7,17.8"/>
		<path class="st3" d="M0,20.8c5.5-0.8,11.1-1.5,16.7-2.4c0,5.4,0,10.8,0,16.2c-5.5,0-11.1-0.1-16.6,0.1C0,30,0,25.4,0,20.8"/>
		<path class="st3" d="M72,22.7c2.3-2.4,7.2-1.7,8.1,1.8c-0.2,0.1-0.5,0.2-0.7,0.3c-0.6-3.3-5.6-3.8-7.3-1.1
			c-1.2,1.8-1.1,4.5,0.1,6.3c1.6,2.1,5.7,1.9,6.7-0.7c0.3-0.5,0.5-1.2,1.2-1.1c-0.5,2.8-3.5,4.4-6.1,3.6
			C70.2,30.8,69.4,25.3,72,22.7"/>
		<path class="st3" d="M67.7,21.5l0.8,0c0,3.4,0,6.7,0,10.1l-0.7,0C67.7,28.3,67.7,24.9,67.7,21.5"/>
		<path class="st3" d="M82.1,21.5c0.2,0,0.6,0,0.8,0c0,0.6,0,1.2,0,1.9c1.1-1,2.5-2.1,4.1-1.8c0.1,0.1,0.3,0.3,0.4,0.4
			c-1.9,0.1-3.9,1.1-4.3,3c-0.3,2.3,0,4.5-0.2,6.8c-0.2-0.1-0.5-0.3-0.7-0.4C82,28.2,82.1,24.9,82.1,21.5"/>
		<path class="st3" d="M91.1,22.1c-3.7,1.2-3.9,7.2-0.5,8.9c1.5,0.6,3.4,0.5,4.6-0.7c1.8-1.8,1.8-5.1,0.2-7
			C94.3,22,92.6,21.6,91.1,22.1 M90.6,21.6c1.8-0.6,3.9-0.2,5.2,1.1c2.1,2.2,1.9,6.2-0.4,8.2c-2.2,1.8-5.9,1.2-7.3-1.3
			C86.5,26.9,87.5,22.6,90.6,21.6"/>
		<path class="st3" d="M100.5,21.9c1.7-0.9,3.9-0.9,5.5,0c0.9,0.5,1.1,1.6,1.4,2.6c-1.2,0-0.9-1.6-1.8-2.1c-1.4-0.8-3.2-0.8-4.6-0.1
			c-1.1,0.6-1.1,2.4,0,2.9c1.8,0.9,4,0.7,5.7,1.7c1,0.6,1.2,2,0.8,3c-0.5,1.1-1.9,1.5-3,1.7c-1.8,0.3-3.9-0.1-4.9-1.7
			c-0.4-0.6-0.9-1.6,0-2c0.3,0.8,0.5,1.8,1.3,2.4c1.4,1,3.3,0.9,4.9,0.4c1.4-0.4,1.7-2.5,0.5-3.3c-1.8-1-4.2-0.7-5.9-1.9
			C99,24.8,99.1,22.7,100.5,21.9"/>
		<path class="st3" d="M113.6,21.9c-3.3,0.3-4.5,4.5-3.2,7.1c0.9,2.3,4.1,2.9,6.1,1.5c2-1.6,2.3-4.8,1-6.9
			C116.7,22.4,115.1,21.7,113.6,21.9 M112.1,21.7c1.9-0.8,4.4-0.4,5.8,1.2c1.7,2.1,1.6,5.5-0.2,7.5c-1.8,1.8-4.9,1.9-6.8,0.2
			C108.2,28.3,108.7,23.1,112.1,21.7"/>
		<path class="st3" d="M0,35.4c5.5,0,11.1,0,16.6,0c0,5.4,0,10.7,0,16.1C11.1,51,5.6,49.9,0.1,49.3C0,44.6,0,40,0,35.4"/>
		<path class="st3" d="M17.5,51.6c0-5.4,0-10.9,0-16.3c7.3,0,14.6,0,21.8,0c0,6.4,0,12.9,0,19.3C32,53.8,24.7,52.7,17.5,51.6"/>
		<path class="st3" d="M53.4,45c1.8,0,3.5,0,5.2,0c-0.8-2.2-1.6-4.4-2.6-6.5C55.1,40.6,54.3,42.9,53.4,45 M55,36.8
			c0.8,0,1.5,0,2.2,0c1.9,4.6,3.9,9.3,5.9,13.9c-0.7,0-1.5,0-2.2,0c-0.5-1.4-1.1-2.8-1.6-4.2c-2.2,0-4.4,0-6.5,0
			c-0.6,1.4-1.1,2.8-1.7,4.2c-0.7,0-1.3,0-2,0C51.1,46.1,53,41.5,55,36.8"/>
		<path class="st3" d="M87.9,42.6c1-1.3,2.3-2.4,4.1-2.3c0,0.6,0,1.1,0,1.7c-1.5,0.1-3.3,0.6-3.7,2.3c-0.5,2.1-0.1,4.3-0.3,6.5
			c-0.6,0-1.2,0-1.8,0c0-3.4,0-6.8,0-10.2h1.7L87.9,42.6L87.9,42.6z"/>
		<path class="st3" d="M94.1,44.8c2.2,0,4.4,0,6.7,0c-0.4-1.7-1.8-3.3-3.6-3C95.4,41.7,94.4,43.3,94.1,44.8 M93.6,42.2
			c1.8-2.2,5.5-2.4,7.4-0.3c1.1,1.2,1.4,2.8,1.4,4.3c-2.8,0-5.6,0-8.4,0c0.2,0.8,0.3,1.8,1,2.4c1.6,1.6,4.8,1.3,5.7-1
			c0.4,0,1.3,0,1.6,0c-1,3.5-5.9,4.3-8.4,2C92,47.7,91.8,44.3,93.6,42.2"/>
		<path class="st3" d="M63.7,40.6c2.9,0,5.8,0,8.7,0c-0.1,1.1-0.9,1.9-1.6,2.7c-1.7,2-3.5,4-5.2,6c2.3,0.4,4.7-0.3,7,0.3
			c0,0.3,0,0.9,0,1.2c-3.1,0-6.1,0-9.2,0v-1.3c2.1-2.5,4.4-4.8,6.4-7.4c-2-0.2-4,0-6-0.1C63.9,41.7,63.8,41,63.7,40.6"/>
		<path class="st3" d="M74.3,40.6c0.6,0,1.2,0,1.8,0c0,2.5-0.1,5,0.1,7.5c0.9,2.7,5.5,1.4,5.5-1.3c0.1-2.1,0-4.2,0-6.3
			c0.4,0,1.3,0,1.7,0c0,3.4,0,6.8,0,10.2c-0.4,0-1.2,0-1.6,0c0-0.3-0.1-1-0.1-1.4c-1.4,1.6-3.8,2-5.7,1.1c-1.2-0.5-1.6-2-1.6-3.2
			C74.2,45.1,74.3,42.9,74.3,40.6"/>
	</g>
</g>
</svg>
