<?xml version="1.0" encoding="utf-8"?>
<!-- Generator: Adobe Illustrator 21.0.0, SVG Export Plug-In . SVG Version: 6.00 Build 0)  -->
<svg version="1.1" id="svg2816" xmlns:svg="http://www.w3.org/2000/svg"
	 xmlns="http://www.w3.org/2000/svg" xmlns:xlink="http://www.w3.org/1999/xlink" x="0px" y="0px" viewBox="0 0 130 70"
	 style="enable-background:new 0 0 130 70;" xml:space="preserve">
<style type="text/css">
	.st0{fill:url(#path12339_1_);}
	.st1{fill:url(#path12367_1_);}
	.st2{fill:#14559A;}
	.st3{fill:url(#path12459_1_);}
	.st4{fill:#3092C4;}
	.st5{fill:#1969BC;}
	.st6{fill:url(#path12553_1_);}
	.st7{fill:url(#path12581_1_);}
	.st8{fill:url(#path12651_1_);}
	.st9{fill:#2B74B1;}
	.st10{fill:#125A9E;}
	.st11{fill:url(#path12741_1_);}
	.st12{fill:url(#path12803_1_);}
	.st13{fill:#0D82CA;}
	.st14{fill:url(#path12831_1_);}
	.st15{fill:#127BCA;}
	.st16{fill:url(#path12923_1_);}
	.st17{fill:url(#path12949_1_);}
	.st18{fill:#05A1E6;}
	.st19{fill:url(#path12981_1_);}
	.st20{fill:url(#path13003_1_);}
	.st21{fill:url(#path13093_1_);}
	.st22{fill:#079AE1;}
	.st23{fill:#1E5CB3;}
	.st24{fill:#1D60B5;}
	.st25{fill:#175FAB;}
	.st26{fill:url(#path13139_1_);}
	.st27{fill:#7DCBEC;}
	.st28{fill:#5EC5ED;}
	.st29{fill:url(#path13245_1_);}
	.st30{fill:url(#path13255_1_);}
	.st31{fill:url(#path13333_1_);}
</style>
<g id="layer1" transform="translate(-937.60684,-1834.4815)">
	<path id="path12245" d="M1021.7,1862.7h-0.6v1.6h-0.2v-1.6h-0.6v-0.2h1.3L1021.7,1862.7L1021.7,1862.7z"/>
	<path id="path12257" d="M1023.8,1864.3h-0.2v-1.2c0-0.1,0-0.2,0-0.3l0,0c0,0.1,0,0.2-0.1,0.2l-0.6,1.3h-0.1l-0.6-1.3
		c0,0,0-0.1-0.1-0.2l0,0c0,0.1,0,0.2,0,0.3v1.2h-0.2v-1.8h0.3l0.6,1.3c0.1,0.1,0.1,0.2,0.1,0.2l0,0c0-0.1,0.1-0.2,0.1-0.2l0.6-1.3
		h0.2L1023.8,1864.3L1023.8,1864.3z"/>
	<path id="path12261" d="M1022.1,1870.9c0-0.1,0-0.2-0.1-0.2c-0.1-0.1-0.2-0.1-0.3-0.1h-0.2v0.6h0.2
		C1022.1,1871.2,1022.1,1871.1,1022.1,1870.9 M1022.5,1872.1h-0.3l-0.2-0.4c-0.1-0.2-0.2-0.3-0.3-0.3h-0.2v0.7h-0.2v-1.7h0.5
		c0.2,0,0.4,0.1,0.5,0.2s0.2,0.2,0.2,0.3c0,0.1,0,0.2-0.1,0.3c-0.1,0.1-0.2,0.2-0.3,0.2l0,0c0.1,0,0.2,0.2,0.3,0.3L1022.5,1872.1
		L1022.5,1872.1z M1023,1871.3c0-0.3-0.1-0.6-0.3-0.9c-0.2-0.2-0.5-0.3-0.9-0.3c-0.3,0-0.6,0.1-0.9,0.3c-0.2,0.2-0.3,0.5-0.3,0.9
		c0,0.3,0.1,0.6,0.3,0.9c0.2,0.2,0.5,0.3,0.9,0.3c0.3,0,0.6-0.1,0.9-0.3C1022.9,1871.9,1023,1871.7,1023,1871.3 M1023.2,1871.3
		c0,0.4-0.2,0.7-0.4,0.9s-0.6,0.4-0.9,0.4s-0.7-0.2-0.9-0.4s-0.4-0.6-0.4-0.9s0.2-0.7,0.4-0.9c0.2-0.2,0.6-0.4,0.9-0.4
		s0.7,0.2,0.9,0.4C1023.1,1870.6,1023.2,1870.9,1023.2,1871.3"/>
	<path id="path12265" d="M986.9,1876h-0.8v-4.7c0-0.4,0-0.8,0.1-1.3l0,0c-0.1,0.3-0.2,0.6-0.2,0.7l-2.4,5.4h-0.4l-2.4-5.4
		c-0.1-0.2-0.2-0.4-0.2-0.7l0,0c0,0.3,0,0.7,0,1.3v4.7h-0.8v-7h1.1l2.1,4.9c0.2,0.4,0.2,0.6,0.3,0.9l0,0c0.2-0.4,0.2-0.7,0.3-0.9
		l2.2-4.9h1L986.9,1876L986.9,1876z"/>
	<path id="path12267" d="M989.4,1876h-0.8v-5h0.8V1876z M989.6,1869.2c0,0.2-0.1,0.2-0.2,0.4c-0.1,0.1-0.2,0.2-0.4,0.2
		s-0.2-0.1-0.4-0.2c-0.1-0.1-0.2-0.2-0.2-0.4s0.1-0.2,0.2-0.4c0.1-0.1,0.2-0.2,0.4-0.2s0.2,0.1,0.4,0.2
		C989.5,1868.9,989.6,1869.1,989.6,1869.2"/>
	<path id="path12271" d="M994.4,1875.8c-0.4,0.2-0.9,0.3-1.3,0.3c-0.7,0-1.3-0.2-1.7-0.7c-0.4-0.5-0.6-1-0.6-1.8s0.2-1.5,0.7-2
		c0.5-0.5,1.1-0.8,1.9-0.8c0.5,0,0.8,0.1,1.2,0.2v0.8c-0.4-0.2-0.8-0.4-1.2-0.4c-0.5,0-0.9,0.2-1.3,0.6c-0.3,0.4-0.5,0.9-0.5,1.4
		c0,0.6,0.2,1,0.5,1.4c0.3,0.3,0.7,0.5,1.3,0.5c0.5,0,0.9-0.2,1.3-0.4L994.4,1875.8L994.4,1875.8z"/>
	<path id="path12275" d="M998.2,1871.8c-0.2-0.1-0.3-0.2-0.6-0.2c-0.3,0-0.6,0.2-0.8,0.5c-0.2,0.3-0.4,0.8-0.4,1.3v2.5h-0.8v-5h0.8
		v1l0,0c0.1-0.4,0.3-0.6,0.6-0.9c0.2-0.2,0.5-0.2,0.8-0.2c0.2,0,0.4,0,0.5,0.1V1871.8L998.2,1871.8z"/>
	<path id="path12279" d="M1002.6,1873.6c0-0.6-0.2-1.1-0.5-1.5c-0.3-0.3-0.7-0.5-1.2-0.5c-0.5,0-0.9,0.2-1.2,0.5s-0.5,0.9-0.5,1.5
		s0.2,1.1,0.5,1.4c0.3,0.3,0.7,0.5,1.2,0.5c0.6,0,0.9-0.2,1.2-0.6C1002.6,1874.6,1002.6,1874.1,1002.6,1873.6 M1003.5,1873.5
		c0,0.8-0.2,1.4-0.7,1.9s-1,0.7-1.8,0.7c-0.8,0-1.3-0.2-1.8-0.7c-0.4-0.5-0.6-1.1-0.6-1.8c0-0.9,0.2-1.6,0.7-2.1
		c0.5-0.5,1-0.6,1.8-0.6c0.7,0,1.3,0.2,1.7,0.7C1003.3,1872.1,1003.5,1872.7,1003.5,1873.5"/>
	<path id="path12283" d="M1007.5,1874.7c0,0.4-0.2,0.8-0.5,1c-0.3,0.3-0.8,0.5-1.3,0.5c-0.5,0-0.9-0.1-1.3-0.3v-0.9
		c0.4,0.3,0.8,0.5,1.3,0.5c0.6,0,0.9-0.2,0.9-0.7c0-0.2-0.1-0.4-0.2-0.5c-0.2-0.2-0.4-0.3-0.8-0.5c-0.4-0.2-0.7-0.4-0.9-0.6
		c-0.2-0.2-0.3-0.6-0.3-0.9c0-0.4,0.2-0.8,0.5-1c0.3-0.3,0.8-0.4,1.3-0.4c0.4,0,0.8,0.1,1.1,0.2v0.8c-0.3-0.2-0.7-0.4-1.1-0.4
		c-0.2,0-0.5,0.1-0.6,0.2c-0.2,0.2-0.2,0.3-0.2,0.5c0,0.2,0.1,0.4,0.2,0.6c0.2,0.1,0.4,0.2,0.8,0.4s0.7,0.4,0.9,0.6
		C1007.4,1874,1007.5,1874.3,1007.5,1874.7"/>
	<path id="path12287" d="M1012.4,1873.6c0-0.6-0.2-1.1-0.5-1.5c-0.3-0.3-0.7-0.5-1.2-0.5s-0.9,0.2-1.2,0.5c-0.3,0.3-0.5,0.9-0.5,1.5
		s0.2,1.1,0.5,1.4s0.7,0.5,1.2,0.5c0.6,0,0.9-0.2,1.2-0.6C1012.3,1874.6,1012.4,1874.1,1012.4,1873.6 M1013.2,1873.5
		c0,0.8-0.2,1.4-0.7,1.9c-0.5,0.5-1,0.7-1.8,0.7s-1.3-0.2-1.8-0.7c-0.4-0.5-0.6-1.1-0.6-1.8c0-0.9,0.2-1.6,0.7-2.1
		c0.5-0.5,1-0.6,1.8-0.6c0.7,0,1.3,0.2,1.7,0.7C1013,1872.1,1013.2,1872.7,1013.2,1873.5"/>
	<path id="path12291" d="M1016.8,1869.3c-0.2-0.1-0.3-0.2-0.6-0.2c-0.6,0-0.9,0.3-0.9,1v0.8h1.2v0.7h-1.2v4.3h-0.8v-4.3h-0.9v-0.7
		h0.9v-0.8c0-0.6,0.2-0.9,0.6-1.3c0.3-0.2,0.6-0.4,1.1-0.4c0.2,0,0.5,0,0.6,0.1L1016.8,1869.3L1016.8,1869.3z"/>
	<path id="path12295" d="M1019.9,1876c-0.2,0.1-0.5,0.2-0.8,0.2c-0.9,0-1.3-0.5-1.3-1.5v-3h-0.9v-0.7h0.9v-1.3
		c0.2-0.1,0.6-0.2,0.8-0.2v1.5h1.3v0.7h-1.3v2.8c0,0.3,0.1,0.6,0.2,0.7c0.1,0.2,0.3,0.2,0.6,0.2c0.2,0,0.4-0.1,0.6-0.2L1019.9,1876
		L1019.9,1876z"/>
	<path id="path12299" d="M976.5,1895.6c0,0.4-0.2,0.7-0.4,1c-0.3,0.3-0.6,0.4-1,0.4s-0.7-0.2-1-0.4c-0.2-0.3-0.4-0.6-0.4-1
		s0.2-0.7,0.4-1c0.2-0.3,0.6-0.4,1-0.4s0.7,0.2,1,0.4C976.4,1894.9,976.5,1895.2,976.5,1895.6"/>
	<path id="path12303" d="M994.5,1896.8h-2.6l-9.5-14.7c-0.2-0.3-0.4-0.7-0.6-1.2h-0.1c0.1,0.4,0.1,1.3,0.1,2.5v13.3h-2.1v-18.4h2.8
		l9.2,14.4c0.4,0.6,0.6,0.9,0.7,1.3h0.1c-0.1-0.6-0.2-1.4-0.2-2.7v-12.9h2.1L994.5,1896.8L994.5,1896.8z"/>
	<path id="path12307" d="M1008.3,1896.8h-9.8v-18.4h9.3v2h-7.2v6.2h6.6v2h-6.6v6.5h7.6L1008.3,1896.8L1008.3,1896.8z"/>
	<path id="path12311" d="M1023.2,1880.3h-5.3v16.5h-2.1v-16.5h-5.3v-2h12.8L1023.2,1880.3L1023.2,1880.3z"/>
	
		<linearGradient id="path12339_1_" gradientUnits="userSpaceOnUse" x1="360.6591" y1="-628.6562" x2="360.8431" y2="-628.6562" gradientTransform="matrix(0 149.7346 -149.7346 0 -93132.6406 -52160.9766)">
		<stop  offset="0" style="stop-color:#0994DC"/>
		<stop  offset="0.35" style="stop-color:#66CEF5"/>
		<stop  offset="0.35" style="stop-color:#66CEF5"/>
		<stop  offset="0.8462" style="stop-color:#127BCA"/>
		<stop  offset="0.8462" style="stop-color:#127BCA"/>
		<stop  offset="1" style="stop-color:#127BCA"/>
	</linearGradient>
	<path id="path12339" class="st0" d="M993.7,1846.5c2.1,6.4,2.8,17.7,9,17.7l0,0c0.5,0,0.9-0.1,1.4-0.2l0,0
		c-5.5-1.3-6.2-12.5-9.5-18.4l0,0C994.3,1846,994,1846.3,993.7,1846.5"/>
	
		<linearGradient id="path12367_1_" gradientUnits="userSpaceOnUse" x1="360.4942" y1="-628.3863" x2="360.6783" y2="-628.3863" gradientTransform="matrix(0 153.5506 -153.5506 0 -95489.0469 -53512.6289)">
		<stop  offset="0" style="stop-color:#0E76BC"/>
		<stop  offset="0.36" style="stop-color:#36AEE8"/>
		<stop  offset="0.36" style="stop-color:#36AEE8"/>
		<stop  offset="0.8462" style="stop-color:#00ADEF"/>
		<stop  offset="0.8462" style="stop-color:#00ADEF"/>
		<stop  offset="1" style="stop-color:#00ADEF"/>
	</linearGradient>
	<path id="path12367" class="st1" d="M994.6,1845.8c3.4,5.8,4,17,9.5,18.4l0,0c0.5-0.1,0.9-0.2,1.3-0.3l0,0
		c-5-2.4-6.3-13.3-10.2-18.6l0,0C995,1845.4,994.8,1845.6,994.6,1845.8"/>
	<path id="path12379" class="st2" d="M999.4,1842.3c-0.5,0-0.9,0.1-1.4,0.2c-1.3,0.2-2.4,0.8-3.7,1.6c0.3,0.3,0.7,0.7,0.9,1.2
		c1.3-1,2.5-1.8,3.9-2.3c0.5-0.2,0.9-0.3,1.4-0.4C1000.2,1842.4,999.8,1842.3,999.4,1842.3"/>
	
		<linearGradient id="path12459_1_" gradientUnits="userSpaceOnUse" x1="344.8672" y1="-607.4105" x2="345.0513" y2="-607.4105" gradientTransform="matrix(0 -122.178 122.178 0 75217.8906 43998.7969)">
		<stop  offset="0" style="stop-color:#1C63B7"/>
		<stop  offset="0.5" style="stop-color:#33BDF2"/>
		<stop  offset="1" style="stop-color:#33BDF2;stop-opacity:0.4196"/>
	</linearGradient>
	<path id="path12459" class="st3" d="M1009.4,1861.5c0.5-0.4,1-0.9,1.5-1.3c-2.1-6.3-2.8-17.8-9-17.8c-0.5,0-0.9,0.1-1.3,0.2
		C1006.1,1843.8,1006.8,1856,1009.4,1861.5"/>
	<path id="path12521" class="st4" d="M1000.5,1842.5c-0.3-0.1-0.7-0.2-1.1-0.2h2.4C1001.4,1842.3,1001,1842.4,1000.5,1842.5"/>
	<path id="path12525" class="st5" d="M1009.2,1862.9c-0.2-0.2-0.5-0.5-0.7-0.7c-1,0.7-2.1,1.3-3.1,1.7c0.4,0.2,0.7,0.3,1.2,0.4
		c0.3,0.1,0.6,0.1,0.9,0.1c1.2,0,2.1-0.2,2.8-0.5C1010,1863.5,1009.6,1863.2,1009.2,1862.9"/>
	
		<linearGradient id="path12553_1_" gradientUnits="userSpaceOnUse" x1="360.3055" y1="-627.9243" x2="360.4896" y2="-627.9243" gradientTransform="matrix(0 159.4252 -159.4252 0 -99102.7422 -55603.1563)">
		<stop  offset="0" style="stop-color:#166AB8"/>
		<stop  offset="0.4" style="stop-color:#36AEE8"/>
		<stop  offset="0.4" style="stop-color:#36AEE8"/>
		<stop  offset="0.8462" style="stop-color:#0798DD"/>
		<stop  offset="0.8462" style="stop-color:#0798DD"/>
		<stop  offset="1" style="stop-color:#0798DD"/>
	</linearGradient>
	<path id="path12553" class="st6" d="M999.1,1842.9c5,2.6,5.4,14.4,9.5,19.2l0,0c0.2-0.2,0.6-0.4,0.8-0.6l0,0
		c-2.5-5.5-3.2-17.7-8.8-19.1l0,0C1000,1842.6,999.6,1842.6,999.1,1842.9"/>
	
		<linearGradient id="path12581_1_" gradientUnits="userSpaceOnUse" x1="359.8789" y1="-627.4522" x2="360.0629" y2="-627.4522" gradientTransform="matrix(0 169.5276 -169.5276 0 -105368.6172 -59170.6328)">
		<stop  offset="0" style="stop-color:#124379"/>
		<stop  offset="0.39" style="stop-color:#1487CB"/>
		<stop  offset="0.39" style="stop-color:#1487CB"/>
		<stop  offset="0.7802" style="stop-color:#165197"/>
		<stop  offset="0.7802" style="stop-color:#165197"/>
		<stop  offset="1" style="stop-color:#165197"/>
	</linearGradient>
	<path id="path12581" class="st7" d="M995.2,1845.2c3.9,5.3,5.2,16.2,10.2,18.6l0,0c1-0.4,2.1-0.9,3.1-1.7l0,0
		c-4-4.8-4.4-16.6-9.5-19.2l0,0C997.8,1843.3,996.6,1844.1,995.2,1845.2"/>
	
		<linearGradient id="path12651_1_" gradientUnits="userSpaceOnUse" x1="1680.5076" y1="1719.2057" x2="1681.6" y2="1719.2057" gradientTransform="matrix(4.0385 0 0 4.0385 -5797.3813 -5094.7739)">
		<stop  offset="0" style="stop-color:#33BDF2;stop-opacity:0.698"/>
		<stop  offset="1" style="stop-color:#1DACD8"/>
	</linearGradient>
	<path id="path12651" class="st8" d="M991.3,1846.3c-0.6,1.3-1.2,3.2-2,5.4c1.5-2.1,2.9-3.9,4.4-5.4c-0.2-0.6-0.4-1.2-0.6-1.7
		C992.6,1845.3,991.9,1845.8,991.3,1846.3"/>
	<path id="path12655" class="st9" d="M993.7,1844.5c-0.2,0.2-0.3,0.2-0.6,0.4c0.2,0.5,0.5,1.1,0.6,1.7c0.2-0.2,0.6-0.5,0.8-0.8
		C994.3,1845.3,994,1844.8,993.7,1844.5"/>
	<path id="path12659" class="st10" d="M994.3,1844.1c-0.2,0.2-0.4,0.2-0.6,0.4c0.3,0.4,0.6,0.9,0.9,1.3c0.2-0.2,0.5-0.4,0.7-0.6
		C995,1844.8,994.6,1844.4,994.3,1844.1"/>
	
		<linearGradient id="path12741_1_" gradientUnits="userSpaceOnUse" x1="344.6246" y1="-607.729" x2="344.8087" y2="-607.729" gradientTransform="matrix(0 -119.0183 119.0183 0 73353.3203 42879.6914)">
		<stop  offset="0" style="stop-color:#136AB4"/>
		<stop  offset="0.6" style="stop-color:#59CAF5;stop-opacity:0.549"/>
		<stop  offset="1" style="stop-color:#59CAF5;stop-opacity:0.2353"/>
	</linearGradient>
	<path id="path12741" class="st11" d="M1028.4,1841.8c-2.8,10.9-8.8,19.6-13.7,21.9l0,0c-0.1,0.1-0.2,0.1-0.2,0.1l0,0h-0.1l0,0
		c-0.1,0-0.1,0-0.2,0.1c0,0,0,0-0.1,0h-0.1c0,0,0,0-0.1,0c0,0,0,0-0.1,0h-0.1c0,0,0,0-0.1,0h-0.1c0,0,0,0-0.1,0h-0.1h-0.1
		c0.2,0.1,0.5,0.2,0.7,0.2c4.7,0,9.5-8.4,17.3-22.4L1028.4,1841.8L1028.4,1841.8z"/>
	
		<linearGradient id="path12803_1_" gradientUnits="userSpaceOnUse" x1="1676.6311" y1="1720.5925" x2="1680.683" y2="1720.5925" gradientTransform="matrix(4.0385 0 0 4.0385 -5797.3813 -5094.7739)">
		<stop  offset="0" style="stop-color:#05A1E6;stop-opacity:0.2471"/>
		<stop  offset="1" style="stop-color:#05A1E6"/>
	</linearGradient>
	<path id="path12803" class="st12" d="M988.4,1842.8L988.4,1842.8L988.4,1842.8C988.4,1842.7,988.4,1842.7,988.4,1842.8
		C988.4,1842.8,988.4,1842.8,988.4,1842.8L988.4,1842.8L988.4,1842.8l0.2-0.1l0,0c0.1,0,0.2-0.1,0.2-0.1l0,0h0.1l0,0h0.1l0,0
		c0.1,0,0.2-0.1,0.2-0.1l0,0h0.1l0,0h0.1l0,0c0.1,0,0.1,0,0.2,0l0,0h0.1c0,0,0,0,0.1,0h0.1l0,0c0.1,0,0.1,0,0.2,0
		c-0.2,0-0.3,0-0.5,0c-5.3,0-12.5,9.8-15.9,22.6c0,0,0.2,0,0.6,0c1-1.9,2-3.6,2.8-5.3C979.5,1850.5,984.2,1844.4,988.4,1842.8"/>
	<path id="path12807" class="st13" d="M991.3,1846.3c0.6-0.6,1.2-1.1,1.8-1.6c-0.2-0.3-0.3-0.6-0.4-0.9
		C992.2,1844.6,991.8,1845.4,991.3,1846.3"/>
	<path id="path12811" class="st13" d="M991.8,1842.9c0.3,0.3,0.6,0.7,0.9,1.2c0.1-0.1,0.2-0.2,0.2-0.3
		C992.6,1843.3,992.2,1843,991.8,1842.9C991.7,1842.8,991.8,1842.8,991.8,1842.9C991.8,1842.8,991.8,1842.9,991.8,1842.9"/>
	
		<linearGradient id="path12831_1_" gradientUnits="userSpaceOnUse" x1="344.8454" y1="-606.5455" x2="345.0294" y2="-606.5455" gradientTransform="matrix(0 -121.8652 121.8652 0 74899.5156 43888.2734)">
		<stop  offset="0" style="stop-color:#318ED5"/>
		<stop  offset="1" style="stop-color:#38A7E4"/>
	</linearGradient>
	<path id="path12831" class="st14" d="M977.2,1859.5c4.8-9.3,7.1-15.1,11.1-16.8l0,0C984.2,1844.4,979.5,1850.5,977.2,1859.5"/>
	<path id="path12843" class="st15" d="M992.9,1843.7c-0.1,0.1-0.2,0.2-0.2,0.3c0.2,0.2,0.3,0.6,0.4,0.9c0.2-0.2,0.4-0.2,0.6-0.4
		C993.4,1844.1,993.2,1843.9,992.9,1843.7"/>
	
		<linearGradient id="path12923_1_" gradientUnits="userSpaceOnUse" x1="344.6078" y1="-606.2399" x2="344.7918" y2="-606.2399" gradientTransform="matrix(0 -118.4596 118.4596 0 72799.1641 42685.7969)">
		<stop  offset="0" style="stop-color:#05A1E6"/>
		<stop  offset="1" style="stop-color:#05A1E6;stop-opacity:0.549"/>
	</linearGradient>
	<path id="path12923" class="st16" d="M979.4,1864.8L979.4,1864.8L979.4,1864.8L979.4,1864.8h-0.2l0,0c-0.1,0-0.2,0-0.2,0l0,0
		c4.9-0.2,7.1-2.6,8.2-6.2c0.9-2.7,1.5-5,2.1-6.9c-2.1,2.8-4.1,6.3-6.2,10.2C982.2,1863.9,980.7,1864.6,979.4,1864.8"/>
	
		<linearGradient id="path12949_1_" gradientUnits="userSpaceOnUse" x1="343.0786" y1="-603.9529" x2="343.2627" y2="-603.9529" gradientTransform="matrix(0 -100.1002 100.1002 0 61441.1367 36207.0391)">
		<stop  offset="0" style="stop-color:#1959A6"/>
		<stop  offset="0.5" style="stop-color:#05A1E6"/>
		<stop  offset="0.5" style="stop-color:#05A1E6"/>
		<stop  offset="0.9176" style="stop-color:#7EC5EA"/>
		<stop  offset="1" style="stop-color:#7EC5EA"/>
	</linearGradient>
	<path id="path12949" class="st17" d="M979.4,1864.8L979.4,1864.8c1.3-0.2,2.8-0.9,3.8-2.8l0,0c2.1-3.9,4.1-7.3,6.2-10.2l0,0
		c0.7-2.4,1.3-4.1,2-5.4l0,0C987.3,1850.3,983.2,1856.7,979.4,1864.8"/>
	<path id="path12961" class="st18" d="M977.2,1859.5c-0.9,1.7-1.8,3.5-2.8,5.3c0.5,0,1.1,0,1.8,0
		C976.5,1863,976.8,1861.2,977.2,1859.5"/>
	
		<linearGradient id="path12981_1_" gradientUnits="userSpaceOnUse" x1="341.7334" y1="-607.1735" x2="341.9175" y2="-607.1735" gradientTransform="matrix(-19.138 -108.5369 108.5369 -19.138 73427.1094 27334.2246)">
		<stop  offset="0" style="stop-color:#165096"/>
		<stop  offset="1" style="stop-color:#0D82CA"/>
	</linearGradient>
	<path id="path12981" class="st19" d="M989.9,1842.4L989.9,1842.4L989.9,1842.4C989.8,1842.4,989.8,1842.4,989.9,1842.4
		L989.9,1842.4c-0.1,0-0.1,0-0.2,0l0,0h-0.1l0,0l0,0l0,0c-0.1,0-0.1,0-0.2,0l0,0l0,0l0,0h-0.1l0,0l0,0l0,0h-0.1l0,0l0,0l0,0
		c-0.1,0-0.2,0.1-0.2,0.1l0,0l0,0l0,0H989l0,0l0,0l0,0h-0.1l0,0l0,0l0,0c-0.1,0-0.1,0.1-0.2,0.1l0,0l0,0l0,0h-0.1l0,0l0,0l0,0h-0.1
		l0,0l0,0l0,0c-4,1.6-6.3,7.5-11.1,16.8l0,0c-0.4,1.7-0.8,3.5-1,5.3l0,0h0.2c0.7,0,0.9,0,1.7,0l0,0h0.1h0.2h0.1l0,0h0.1l0,0l0,0l0,0
		h0.1h0.1h0.1l0,0c0.1,0,0.1,0,0.2,0l0,0c0.1,0,0.1,0,0.2,0l0,0l0,0l0,0h0.1l0,0l0,0l0,0h0.1l0,0l0,0c3.8-8.1,7.9-14.5,11.9-18.5
		l0,0c0.5-1,0.9-1.8,1.3-2.4l0,0c-0.3-0.5-0.6-0.9-0.9-1.2l0,0l0,0l0,0c0,0,0,0-0.1,0l0,0c0,0,0,0-0.1,0l0,0c0,0,0,0-0.1,0l0,0h-0.1
		l0,0c0,0,0,0-0.1,0l0,0c0,0-0.1,0-0.1-0.1l0,0c0,0,0,0-0.1,0l0,0h-0.1l0,0c0,0,0,0-0.1,0l0,0h-0.1l0,0l0,0l0,0c-0.1,0-0.1,0-0.2,0
		l0,0l0,0l0,0h-0.1l0,0l0,0l0,0c-0.1,0-0.2-0.1-0.2-0.1l0,0l0,0l0,0h-0.1l0,0l0,0l0,0c-0.1,0-0.1,0-0.2,0l0,0l0,0l0,0h-0.1l0,0
		C990,1842.4,989.9,1842.4,989.9,1842.4"/>
	
		<linearGradient id="path13003_1_" gradientUnits="userSpaceOnUse" x1="334.3524" y1="-595.0563" x2="334.5364" y2="-595.0563" gradientTransform="matrix(0 -56.7206 56.7206 0 34770.6094 20816.9941)">
		<stop  offset="0" style="stop-color:#05A1E6"/>
		<stop  offset="0.8736" style="stop-color:#0495D6"/>
		<stop  offset="1" style="stop-color:#0495D6"/>
	</linearGradient>
	<path id="path13003" class="st20" d="M1017.3,1847.8c-0.9,3-1.7,5.4-2.4,7.4l0,0c2.5-3.5,5-7.9,7.4-13l0,0
		C1019.7,1843.2,1018.2,1845.2,1017.3,1847.8"/>
	
		<linearGradient id="path13093_1_" gradientUnits="userSpaceOnUse" x1="359.7738" y1="-630.3749" x2="359.9578" y2="-630.3749" gradientTransform="matrix(-23.0627 130.7947 -130.7947 -23.0627 -73128.6797 -59753.6445)">
		<stop  offset="0" style="stop-color:#38A7E4;stop-opacity:0.3294"/>
		<stop  offset="0.9615" style="stop-color:#0E88D3"/>
		<stop  offset="0.9615" style="stop-color:#0E88D3"/>
		<stop  offset="1" style="stop-color:#0E88D3"/>
	</linearGradient>
	<path id="path13093" class="st21" d="M1015.1,1863.5c-0.2,0.1-0.2,0.2-0.4,0.2c5-2.2,10.9-11,13.7-21.9h-0.6
		C1021.3,1853.4,1019.2,1861.3,1015.1,1863.5"/>
	<path id="path13097" class="st22" d="M1011.9,1862.6c1.1-1.3,2-3.5,3.2-7.3c-1.4,1.9-2.8,3.5-4.2,4.9l0,0
		C1011.2,1861.1,1011.5,1861.9,1011.9,1862.6"/>
	<path id="path13101" class="st5" d="M1011.9,1862.6c-0.4,0.5-0.8,0.8-1.2,1c-0.1,0.1-0.2,0.1-0.3,0.2c0.5,0.2,0.9,0.4,1.5,0.5l0,0
		l0,0c0.1,0,0.2,0,0.2,0l0,0c0,0,0.1,0,0.2,0l0,0c0.1,0,0.1,0,0.2,0c0.1,0,0.1,0,0.2,0c0,0,0,0,0.1,0h0.1c0,0,0,0,0.1,0h0.1l0,0l0,0
		h0.1l0,0l0,0h0.1l0,0h0.1l0,0l0,0c0.1,0,0.2,0,0.2-0.1C1012.8,1863.9,1012.3,1863.4,1011.9,1862.6"/>
	<path id="path13105" class="st23" d="M1002.7,1864.3c0.5,0,0.9-0.1,1.4-0.2s0.9-0.2,1.3-0.3c0.4,0.2,0.7,0.3,1.2,0.4
		c0.3,0.1,0.6,0.1,0.9,0.1H1002.7z"/>
	<path id="path13109" class="st23" d="M1007.5,1864.3c1.2,0,2.1-0.2,2.8-0.5c0.5,0.2,0.9,0.4,1.5,0.5l0,0l0,0c0.1,0,0.2,0,0.2,0l0,0
		c0,0,0.1,0,0.2,0l0,0c0.1,0,0.1,0,0.2,0H1007.5L1007.5,1864.3z"/>
	<path id="path13113" class="st24" d="M1012.4,1864.3c0.1,0,0.1,0,0.2,0c0,0,0,0,0.1,0h0.1c0,0,0,0,0.1,0h0.1l0,0l0,0h0.1l0,0l0,0
		h0.1l0,0h0.1l0,0l0,0c0.1,0,0.2,0,0.2-0.1l0,0c0.2,0.1,0.5,0.2,0.7,0.2L1012.4,1864.3L1012.4,1864.3z"/>
	<path id="path13117" class="st25" d="M1010.9,1860.2L1010.9,1860.2c-0.5,0.5-1,0.9-1.5,1.3c-0.2,0.2-0.6,0.4-0.8,0.6
		c0.2,0.2,0.5,0.6,0.7,0.7c0.4,0.3,0.8,0.6,1.2,0.9c0.1-0.1,0.2-0.1,0.3-0.2c0.4-0.2,0.8-0.6,1.2-1
		C1011.5,1861.9,1011.2,1861.1,1010.9,1860.2"/>
	
		<linearGradient id="path13139_1_" gradientUnits="userSpaceOnUse" x1="362.2374" y1="-629.937" x2="362.4215" y2="-629.937" gradientTransform="matrix(0 123.7424 -123.7424 0 -76930.1094 -42982.3555)">
		<stop  offset="0" style="stop-color:#168CD4"/>
		<stop  offset="0.5" style="stop-color:#1C87CC"/>
		<stop  offset="1" style="stop-color:#154B8D"/>
	</linearGradient>
	<path id="path13139" class="st26" d="M1026,1841.8h-2.4c-0.1,0-0.2,0-0.2,0l0,0c-0.1,0-0.2,0-0.2,0l0,0l0,0c-0.2,0-0.3,0-0.5,0l0,0
		c-0.1,0.2-0.2,0.3-0.2,0.5l0,0c-2.4,5.1-4.9,9.5-7.4,13l0,0c-1.2,3.7-2.1,5.9-3.2,7.3l0,0c0.5,0.8,1,1.3,1.7,1.6l0,0c0,0,0,0,0.1,0
		l0,0l0,0l0,0l0,0l0,0h0.1l0,0c0,0,0,0,0.1,0l0,0h0.1l0,0c0,0,0,0,0.1,0l0,0h0.1l0,0c0,0,0,0,0.1,0l0,0h0.1l0,0h0.1l0,0
		c0,0,0,0,0.1,0l0,0c0.1,0,0.1,0,0.2-0.1l0,0l0,0l0,0h0.1l0,0l0,0l0,0c0.1,0,0.2-0.1,0.2-0.1l0,0l0,0l0,0c0.2-0.1,0.2-0.2,0.4-0.2
		l0,0c4.1-2.3,6.2-10.1,12.7-21.7l0,0L1026,1841.8L1026,1841.8z"/>
	<path id="path13231" class="st27" d="M990.1,1842.3L990.1,1842.3C990.2,1842.3,990.2,1842.3,990.1,1842.3L990.1,1842.3
		c0.2,0,0.2,0,0.2,0l0,0h0.1l0,0c0.1,0,0.2,0,0.2,0.1l0,0h0.1l0,0c0.1,0,0.1,0,0.2,0l0,0h0.1c0,0,0,0,0.1,0h0.1c0,0,0,0,0.1,0
		c0,0,0.1,0,0.1,0.1c0,0,0,0,0.1,0h0.1c0,0,0,0,0.1,0c0,0,0,0,0.1,0c0.5,0.2,0.9,0.6,1.3,0.9c0.2-0.2,0.3-0.3,0.5-0.4
		c-0.9-0.6-1.8-0.9-2.9-0.9C990.3,1842.3,990.2,1842.3,990.1,1842.3"/>
	<path id="path13235" class="st28" d="M992.9,1843.7c0.2,0.2,0.5,0.5,0.7,0.7c0.2-0.2,0.4-0.3,0.6-0.4c-0.2-0.2-0.6-0.6-0.9-0.7
		C993.3,1843.4,993.1,1843.6,992.9,1843.7"/>
	<g id="g13243" transform="matrix(5.0481458,0,0,-5.0481458,-9064.2597,2270.6096)">
		
			<linearGradient id="path13245_1_" gradientUnits="userSpaceOnUse" x1="2278.2119" y1="-22.7176" x2="2278.3962" y2="-22.7176" gradientTransform="matrix(143.8888 -59.6807 -59.6807 -143.8888 -327173.1875 132781.5)">
			<stop  offset="0" style="stop-color:#97D6EE"/>
			<stop  offset="0.7033" style="stop-color:#55C1EA"/>
			<stop  offset="1" style="stop-color:#55C1EA"/>
		</linearGradient>
		<path id="path13245" class="st29" d="M1991.7,84.9C1991.7,84.9,1991.7,84.9,1991.7,84.9c0.3,0,0.5-0.1,0.6-0.2
			c0.2,0.2,0.4,0.2,0.7,0.2h-1.5C1991.6,84.9,1991.7,84.9,1991.7,84.9"/>
	</g>
	<g id="g13253" transform="matrix(5.0481458,0,0,-5.0481458,-9064.2597,2270.6096)">
		
			<linearGradient id="path13255_1_" gradientUnits="userSpaceOnUse" x1="2277.324" y1="-20.7461" x2="2277.5081" y2="-20.7461" gradientTransform="matrix(113.6429 51.5183 51.5183 -113.6429 -255740.3906 -119597.0938)">
			<stop  offset="0" style="stop-color:#7ACCEC"/>
			<stop  offset="1" style="stop-color:#3FB7ED"/>
		</linearGradient>
		<path id="path13255" class="st30" d="M1993.1,84.9c-0.3,0-0.6-0.1-0.7-0.2c0.1-0.1,0.1-0.1,0.2-0.2c0.2,0.2,0.5,0.2,0.7,0.3
			c0.1,0,0.2,0,0.3,0L1993.1,84.9L1993.1,84.9z"/>
	</g>
	
		<linearGradient id="path13333_1_" gradientUnits="userSpaceOnUse" x1="362.3934" y1="-630.295" x2="362.5775" y2="-630.295" gradientTransform="matrix(0 121.0325 -121.0325 0 -75269.3281 -42018.3516)">
		<stop  offset="0" style="stop-color:#1DA7E7"/>
		<stop  offset="1" style="stop-color:#37ABE7;stop-opacity:0"/>
	</linearGradient>
	<path id="path13333" class="st31" d="M1015,1855.3c0.6-2.1,1.4-4.5,2.4-7.4c0.9-2.7,2.3-4.7,5.1-5.5c0.1-0.2,0.2-0.3,0.2-0.5
		c-4.6,0.2-6.7,2.6-7.7,6c-1.9,6-3,9.9-4.1,12.3C1012.3,1858.9,1013.6,1857.2,1015,1855.3"/>
</g>
</svg>
