<?xml version="1.0" encoding="utf-8"?>
<!-- Generator: Adobe Illustrator 21.0.2, SVG Export Plug-In . SVG Version: 6.00 Build 0)  -->
<svg version="1.1" id="Layer_1" xmlns="http://www.w3.org/2000/svg" xmlns:xlink="http://www.w3.org/1999/xlink" x="0px" y="0px"
	 width="130px" height="70px" viewBox="0 0 130 70" style="enable-background:new 0 0 130 70;" xml:space="preserve">
<style type="text/css">
	.st0{fill:url(#SVGID_1_);}
	.st1{fill:url(#SVGID_2_);}
	.st2{fill:url(#SVGID_3_);}
	.st3{fill:#231F1F;}
</style>
<g>
	<g transform="matrix(.569 0 0 .569 199.451 -82.735)">
		
			<linearGradient id="SVGID_1_" gradientUnits="userSpaceOnUse" x1="-36409.8633" y1="-31833.8125" x2="-36380.7422" y2="-31851.0176" gradientTransform="matrix(0.1187 0 0 0.1187 4078.2219 4000.8662)">
			<stop  offset="0" style="stop-color:#909CA9"/>
			<stop  offset="1" style="stop-color:#EDEDEE"/>
		</linearGradient>
		<path class="st0" d="M-209.2,184.6l-16.8,5.5l-14.6,6.5l-4.1,1.1c-1,1-2.1,2-3.3,3c-1.3,1.1-2.5,2.1-3.4,2.9
			c-1,0.8-2.6,2.3-3.3,3.3c-1.2,1.4-2.1,3-2.5,4.2c-0.7,2.1-0.4,4.3,1,6.3c1.7,2.5,5.2,5.1,9.2,6.9c2,0.9,5.5,2.1,8.1,2.7
			c4.3,1.1,12.6,2.3,17.2,2.5c0.9,0,2.2,0,2.2,0c0.1-0.1,0.8-1.4,1.6-3.1c2.8-5.8,4.9-11.2,6-15.8c0.7-2.8,1.2-6.5,1.5-10.9
			c0.1-1.2,0.1-5.4,0.1-6.8c-0.1-2.3-0.3-4.1-0.6-6c-0.1-0.3-0.1-0.5,0-0.5c0.1,0,0.2-0.1,2.3-0.7L-209.2,184.6L-209.2,184.6
			L-209.2,184.6L-209.2,184.6z M-213,186.8c0.2,0,0.6,3.9,0.7,6.4c0,0.5,0,0.9,0,0.9c-0.1,0-2.1-1.2-3.6-2.1
			c-1.3-0.8-3.7-2.4-4.1-2.7c-0.1-0.1-0.1-0.1,0.9-0.5C-217.4,188.2-213.2,186.8-213,186.8z M-221.6,189.6c0.1,0,0.4,0.2,1.1,0.6
			c2.6,1.6,6.2,3.6,7.7,4.3c0.5,0.2,0.5,0.1-0.6,0.9c-2.3,1.6-5.2,3.1-8.7,4.7c-0.6,0.3-1.1,0.5-1.2,0.5c0,0,0.1-0.3,0.2-0.7
			c0.9-3.2,1.3-6.4,1.4-8.9C-221.7,189.7-221.7,189.7-221.6,189.6C-221.6,189.6-221.6,189.6-221.6,189.6L-221.6,189.6z
			 M-223.4,190.3c0.1,0.1,0,2.9-0.1,3.7c-0.2,1.9-0.6,3.6-1.2,5.5c-0.1,0.5-0.3,0.9-0.3,0.9c-0.1,0.1-1.8-1.6-2.4-2.3
			c-1-1.1-1.8-2.3-2.3-3.4c-0.3-0.6-0.7-1.7-0.7-1.7C-230.1,192.9-223.4,190.3-223.4,190.3L-223.4,190.3z M-231.7,193.6
			C-231.7,193.6-231.7,193.6-231.7,193.6c0.1,0,0.2,0.2,0.2,0.5c0.4,1.1,1.3,2.7,2.1,3.8c0.9,1.1,2,2.4,2.9,3.2
			c0.3,0.3,0.6,0.5,0.6,0.5c0.1,0.1,0.1,0.1-2,0.9c-2.4,0.9-5,1.8-8,2.8c-0.7,0.2-1.4,0.5-2.1,0.7c-0.1,0-0.1,0,0.3-0.5
			c1.5-2.3,3.7-6.9,5-10.1c0.2-0.6,0.4-1.1,0.5-1.2c0.1-0.2,0.1-0.2,0.3-0.3C-231.8,193.6-231.7,193.6-231.7,193.6L-231.7,193.6z
			 M-234.2,194.6c0,0-0.6,1.4-1.2,2.6c-1.2,2.4-2.6,4.8-4.4,7.6c-0.3,0.5-0.6,1-0.6,1c-0.1,0.1-0.1,0.1-0.3-0.3
			c-0.4-0.9-0.8-1.9-1-2.9c-0.2-1-0.2-2.7,0.1-3.8c0.2-0.8,0.2-0.8,0.5-1C-239.5,197-234.3,194.6-234.2,194.6L-234.2,194.6z
			 M-212.3,195.5v0.5c0,2.8-0.3,6.7-0.7,9.6c-0.1,0.5-0.1,0.9-0.2,0.9c0,0-0.4-0.1-0.8-0.2c-1.9-0.6-4-1.5-5.8-2.5
			c-1.2-0.7-3-1.8-3-1.8c0,0,0.5-0.3,1.2-0.6c2.5-1.3,4.9-2.7,6.9-4.1c0.8-0.5,1.9-1.4,2.2-1.6L-212.3,195.5L-212.3,195.5z
			 M-243.8,199.3c0.1,0,0,0.1,0,0.6c-0.1,0.3-0.1,0.9-0.1,1.4c-0.1,1.9,0.2,3.2,1.1,5.1c0.3,0.5,0.5,1,0.4,1
			c-0.1,0.1-8.5,2.5-11.1,3.3c-0.8,0.2-1.5,0.4-1.5,0.4c-0.1,0-0.1,0-0.1-0.2c0.3-1.9,1.7-4.3,3.7-6.4c1.3-1.4,2.4-2.2,4.2-3.2
			C-246,200.5-244,199.3-243.8,199.3C-243.8,199.3-243.8,199.3-243.8,199.3L-243.8,199.3z M-224,202.8c0,0,0.3,0.2,0.7,0.4
			c2.7,1.6,6.5,3,9.7,3.8l0.3,0.1l-0.4,0.2c-1.7,0.9-7.2,3.3-12.9,5.4c-0.8,0.3-1.6,0.6-1.8,0.7c-0.2,0.1-0.3,0.1-0.3,0.1
			c0,0,0.2-0.5,0.5-1c1.6-3,3.2-6.6,4-9.1C-224.1,203.1-224,202.8-224,202.8L-224,202.8z M-226,203.5c0,0-0.1,0.3-0.2,0.6
			c-1.1,2.7-2.6,5.6-4.4,8.9c-0.5,0.8-0.9,1.5-0.9,1.5c0,0-0.4-0.2-0.9-0.5c-2.7-1.7-5.1-3.7-6.6-5.7l-0.2-0.3l1.2-0.3
			c4.1-1.1,7.7-2.3,11.2-3.8C-226.4,203.7-226,203.5-226,203.5z M-213.5,207.9C-213.5,207.9-213.5,207.9-213.5,207.9
			c0,0.3-0.6,2.9-1.2,4.8c-0.4,1.6-0.8,2.8-1.5,5c-0.3,1-0.6,1.8-0.6,1.8c0,0-0.1,0-0.2,0c-3.8-0.7-7.2-1.6-10.3-2.9
			c-0.9-0.4-2.2-0.9-2.2-1c0,0,0.7-0.4,1.7-0.8c5.8-2.5,11.8-5.4,13.8-6.6C-213.7,207.9-213.5,207.9-213.5,207.9L-213.5,207.9z
			 M-242.4,208.9c0,0-1.6,2.3-3.8,5.5c-0.8,1.1-1.7,2.4-2,2.9c-0.3,0.5-0.9,1.2-1.2,1.7l-0.5,0.8l-0.6-0.5c-0.7-0.6-1.8-1.8-2.4-2.4
			c-1.1-1.4-1.8-2.8-2.1-4.1c-0.1-0.6-0.1-0.9,0-1c0.2-0.1,3.6-0.9,6.8-1.6c1.8-0.4,3.8-0.9,4.5-1.1
			C-243,209-242.5,208.9-242.4,208.9L-242.4,208.9z M-240.8,209.5l0.4,0.5c1.8,2,3.7,3.6,6,4.9c0.4,0.2,0.7,0.4,0.7,0.4
			c-0.1,0.1-7.8,2.8-11.4,4.1c-2,0.7-3.7,1.3-3.7,1.3c0,0-0.1-0.1-0.3-0.2l-0.2-0.2l0.4-0.5c1.2-1.7,2.7-3.6,6-7.6L-240.8,209.5
			L-240.8,209.5z M-230.7,216.7c0,0,0.6,0.2,1.3,0.4c1.7,0.6,3,1,4.7,1.5c2.2,0.5,5.3,1.1,7.1,1.2c0.3,0,0.4,0.1,0.4,0.1
			c-0.1,0.1-2,0.7-3.3,1.1c-2.2,0.7-8.9,2.7-14.3,4.2c-1,0.3-1.9,0.5-1.9,0.5c-0.1,0-0.5-0.1-0.5-0.1c0,0,0.3-0.4,0.7-0.9
			c1.8-2.2,3.6-4.6,5.2-6.9C-231,217.3-230.7,216.8-230.7,216.7L-230.7,216.7z M-232.9,216.8c0,0-0.9,1.5-2.5,4
			c-0.7,1.1-1.4,2.2-1.7,2.7c-0.3,0.4-0.6,1-0.9,1.4l-0.4,0.6l-0.2-0.1c-0.5-0.1-3.7-1.3-4.5-1.6c-1.1-0.4-2.1-0.9-3-1.4
			c-1-0.5-2.3-1.4-2.2-1.4c0,0,1.8-0.5,3.9-1.1c5.6-1.5,8.6-2.4,10.7-3C-233.2,216.9-232.9,216.8-232.9,216.8L-232.9,216.8z
			 M-217.1,220.5L-217.1,220.5c0.1,0.1-2,5.8-2.7,7.6c-0.2,0.4-0.2,0.5-0.3,0.5c-0.2,0-3.2-0.4-5-0.7c-3.2-0.5-8.5-1.4-9.8-1.7
			l-0.3-0.1l1.9-0.4c4.1-0.9,6-1.4,8-2c2.5-0.8,5-1.7,7.5-2.9C-217.5,220.7-217.2,220.5-217.1,220.5L-217.1,220.5z"/>
		
			<linearGradient id="SVGID_2_" gradientUnits="userSpaceOnUse" x1="-36408.7148" y1="-32403.7285" x2="-36385.2852" y2="-32403.7285" gradientTransform="matrix(0.1187 0 0 0.1187 4078.2219 4000.8662)">
			<stop  offset="0" style="stop-color:#939FAB"/>
			<stop  offset="1" style="stop-color:#DCDEE1"/>
		</linearGradient>
		<path class="st1" d="M-226.5,145.4c-0.3,0-4.8,1.6-7.7,2.8c-3.9,1.6-7,3.1-8.9,4.4c-0.7,0.5-1.6,1.4-1.7,1.7
			c-0.1,0.1-0.1,0.3-0.1,0.4l1.7,1.6l4.1,1.3l9.6,1.7l11,1.9l0.1-1c0,0-0.1,0-0.1,0l-1.4-0.2l-0.3-0.5c-1.5-2.6-3.2-5.9-4.1-8.1
			c-0.7-1.7-1.5-3.7-1.9-5.1C-226.4,145.5-226.4,145.4-226.5,145.4L-226.5,145.4L-226.5,145.4L-226.5,145.4z M-226.7,146.1
			L-226.7,146.1c0,0,0.1,0.4,0.1,0.8c0.2,1.8,0.6,3.5,1.2,5.3c0.5,1.4,0.5,1.3-0.1,1.2c-1.3-0.4-7.1-1.4-11.3-1.9
			c-0.7-0.1-1.2-0.2-1.2-0.2c-0.1-0.1,3-1.7,4.4-2.3C-231.9,148.1-227.1,146.1-226.7,146.1L-226.7,146.1z M-239,151.7l0.5,0.2
			c2.7,0.9,9.5,2.2,13.2,2.5c0.4,0,0.8,0.1,0.8,0.1c0,0-0.3,0.2-0.8,0.4c-1.8,0.9-3.8,2-5.2,2.9c-0.4,0.3-0.8,0.5-0.8,0.5
			c-0.1,0-0.3-0.1-0.6-0.1l-0.5-0.1l-1.3-1.2c-2.2-2.2-4-3.8-4.7-4.5L-239,151.7z M-239.5,152.1l1.8,2.2c1,1.2,2,2.4,2.2,2.7
			c0.2,0.3,0.4,0.5,0.4,0.5c-0.1,0-2.6-0.5-3.9-0.8c-1.4-0.3-2-0.5-2.8-0.7l-0.7-0.2v-0.2c0-0.9,1.1-2.1,2.9-3.4L-239.5,152.1
			L-239.5,152.1z M-224.3,155.2c0.1,0,0.1,0.1,0.3,0.5c0.4,1,1.8,3.5,2.1,4c0.1,0.2,0.3,0.2-1.5-0.1c-4.3-0.7-5.7-0.9-5.7-1
			c0,0,0.1-0.1,0.3-0.2c1.3-0.7,2.7-1.7,3.9-2.7C-224.6,155.5-224.4,155.2-224.3,155.2C-224.3,155.2-224.3,155.2-224.3,155.2
			L-224.3,155.2z"/>
		
			<radialGradient id="SVGID_3_" cx="19650.8965" cy="-2798.6626" r="31.1076" gradientTransform="matrix(-0.114 -1.712736e-02 3.463960e-02 -0.228 2117.4165 -125.9018)" gradientUnits="userSpaceOnUse">
			<stop  offset="0" style="stop-color:#EE352C"/>
			<stop  offset="1" style="stop-color:#A91D22"/>
		</radialGradient>
		<path class="st2" d="M-244.7,154.2c0,0-0.3,0.4,0,1.1c0.2,0.4,0.6,0.9,1.2,1.4c0,0,5.7,5.5,6.3,6.3c3.1,3.6,4.5,7.2,4.6,12.1
			c0.1,3.2-0.5,5.9-2,9.1c-2.6,5.8-8.2,12.1-16.8,19.2l1.3-0.4c0.8-0.6,1.9-1.3,4.5-2.7c6-3.3,12.7-6.3,21-9.4
			c11.9-4.5,31.4-9.7,42.6-11.4l1.2-0.2l-0.2-0.3c-1-1.6-1.7-2.6-2.6-3.6c-2.4-3-5.4-5.5-9-7.5c-5-2.8-11.4-5-19.6-6.6
			c-1.5-0.3-4.9-0.9-7.7-1.3c-5.8-0.9-9.6-1.5-13.7-2.2c-1.5-0.3-3.7-0.6-5.2-1c-0.8-0.2-2.2-0.5-3.4-0.9
			C-243.1,155.6-244.4,155.2-244.7,154.2L-244.7,154.2z M-241.4,157.3c0,0,0.2,0.1,0.5,0.2c0.5,0.2,1.1,0.4,1.8,0.6
			c0.6,0.2,1.1,0.3,1.7,0.4c0.8,0.2,1.4,0.4,1.4,0.4c0.1,0.1,1.4,4.2,1.8,5.8c0.2,0.6,0.3,1.1,0.3,1.1c0,0-0.2-0.2-0.3-0.5
			c-1.5-2.6-3.8-5.3-6.6-7.4C-241.2,157.6-241.4,157.3-241.4,157.3L-241.4,157.3z M-235.2,159.1c0.1,0,0.3,0,0.7,0.1
			c2.2,0.5,6,1.2,8.5,1.6c0.4,0.1,0.7,0.1,0.7,0.2c0,0-0.2,0.1-0.3,0.2c-0.4,0.2-2.1,1.2-2.7,1.6c-1.4,0.9-2.7,2-3.6,2.9
			c-0.4,0.4-0.7,0.7-0.7,0.7s-0.1-0.2-0.1-0.5c-0.5-1.8-1.4-4.4-2.3-6.2C-235.1,159.3-235.2,159.1-235.2,159.1
			C-235.2,159.1-235.2,159.1-235.2,159.1L-235.2,159.1z M-224.2,161.2c0.1,0,0.2,0.5,0.5,1.4c0.5,1.8,0.7,3.9,0.6,5.8
			c0,0.5-0.1,1-0.1,1.1l0,0.1l-0.7-0.2c-1.4-0.4-3.6-1.1-5.5-1.6c-1.1-0.3-2-0.6-2-0.6c0-0.1,1.6-1.7,2.2-2.2
			C-227.8,163.8-224.3,161.1-224.2,161.2L-224.2,161.2z M-223.3,161.3c0,0,5.3,0.9,7.6,1.3c1.8,0.3,4.3,0.9,4.5,0.9
			c0.1,0-0.2,0.2-1,0.6c-3.4,1.5-5.8,2.9-8.3,4.5c-0.6,0.4-1.2,0.8-1.2,0.8s0-0.4,0-0.8c0-2.4-0.5-4.9-1.4-6.9
			C-223.2,161.5-223.3,161.3-223.3,161.3z M-209.8,163.9c0,0-0.1,1.1-0.3,1.7c-0.5,1.9-1.7,4.7-3.2,7.3c-0.3,0.5-0.5,0.9-0.5,0.9
			c0,0-0.4-0.2-0.8-0.4c-1.5-0.9-3.1-1.7-5-2.4c-0.5-0.2-1-0.4-1-0.4c-0.1-0.1,4-2.8,6.2-4.1C-212.7,165.4-209.9,163.9-209.8,163.9
			L-209.8,163.9z M-208.8,164.1c0.1,0,2.4,0.6,3.6,1c3,0.9,6.4,2.1,8.6,3.2l0.9,0.4l-0.6,0.2c-5.5,1.3-10.1,2.7-14.6,4.5
			c-0.4,0.2-0.7,0.3-0.7,0.3c0,0,0.1-0.3,0.3-0.6c1.4-2.9,2.2-5.9,2.5-8.5C-208.9,164.3-208.9,164.1-208.8,164.1L-208.8,164.1z
			 M-231.9,169.4c0,0,1.8,0.4,2.8,0.6c1.4,0.4,4.5,1.4,4.5,1.5c0,0-0.3,0.3-0.7,0.7c-1.7,1.4-3.3,2.8-5.2,4.7c-0.6,0.5-1.1,1-1.1,1
			c0,0,0-0.1,0-0.2c0.3-2.1,0.2-4.9-0.2-7.7C-231.8,169.7-231.9,169.4-231.9,169.4z M-194.8,169.4c0,0-0.8,1.3-1.3,2.1
			c-0.8,1.1-1.9,2.5-4.4,5.7c-1.3,1.7-2.8,3.6-3.3,4.2c-0.5,0.6-0.9,1.2-0.9,1.2c0,0-0.2-0.2-0.4-0.5c-1.4-2.1-3.1-4-5.1-5.7
			c-0.4-0.3-0.8-0.7-0.9-0.8c-0.1-0.1-0.3-0.2-0.3-0.2c0,0,2.2-1,3.8-1.6c2.9-1.2,6.8-2.6,9.7-3.5
			C-196.4,169.9-194.8,169.4-194.8,169.4L-194.8,169.4z M-193.8,169.7c0.1,0,0.4,0.1,0.7,0.4c3.1,1.8,6.1,4,8.5,6.4
			c0.7,0.7,2.3,2.4,2.3,2.4c0,0-0.6,0.1-1.3,0.1c-5.3,0.4-12.2,1.5-18.8,3.1c-0.4,0.1-0.8,0.2-0.9,0.2c0,0,0.5-0.5,1.1-1.1
			c3.9-3.7,5.6-6.1,7.7-10.3C-194.1,170.2-193.8,169.7-193.8,169.7C-193.8,169.7-193.8,169.7-193.8,169.7L-193.8,169.7z
			 M-222.1,172.6c0.2,0,1.8,0.8,3.1,1.4c1.1,0.6,2.9,1.5,2.9,1.6c0,0-0.6,0.3-1.3,0.7c-2.4,1.2-4.4,2.3-6.6,3.6
			c-0.6,0.4-1.1,0.7-1.1,0.7c-0.1,0,0-0.1,0.3-0.7c1.1-2.1,2.1-4.6,2.6-7C-222.2,172.7-222.1,172.6-222.1,172.6L-222.1,172.6z
			 M-223.7,172.9c0,0-0.4,1.6-0.7,2.5c-0.5,1.6-1.4,3.6-2.2,5.2c-0.2,0.4-0.5,0.9-0.7,1.2l-0.3,0.5l-0.7-0.7
			c-0.8-0.8-1.5-1.3-2.4-1.7c-0.3-0.2-0.6-0.3-0.6-0.4c0-0.1,2.2-2.1,3.8-3.5C-226.3,174.9-223.8,172.8-223.7,172.9L-223.7,172.9z
			 M-213.6,177l0.6,0.4c1.4,0.9,3.1,2.2,4.4,3.2c0.7,0.6,2.1,1.9,2.4,2.2l0.2,0.2l-1,0.3c-5.8,1.6-10.3,3-15.6,5
			c-0.6,0.2-1.1,0.4-1.1,0.4c-0.1,0-0.1,0.1,1.2-1.1c3.4-3.1,6.3-6.5,8.5-9.8L-213.6,177L-213.6,177z M-216.3,177.7
			c0,0-1.7,2.5-2.8,3.9c-1.2,1.7-3.5,4.4-5,6.2c-0.6,0.7-1.2,1.4-1.2,1.4c0,0-0.1-0.2-0.1-0.5c0-1.5-0.4-3.2-1.1-4.6
			c-0.3-0.6-0.3-0.7-0.3-0.8c0.2-0.2,3.9-2.3,6.3-3.6C-218.8,178.9-216.3,177.7-216.3,177.7L-216.3,177.7z M-232.3,181.6
			c0,0,0.3,0.2,0.7,0.3c0.8,0.4,1.5,0.9,2.2,1.5c0,0-0.3,0.3-0.7,0.6c-1.2,0.9-3,2.2-4.1,3.1c-1.1,0.9-1.2,0.9-1,0.7
			c0.8-1.3,1.3-2,1.7-2.9c0.4-0.8,0.8-1.8,1.1-2.7C-232.5,181.9-232.4,181.6-232.3,181.6L-232.3,181.6z M-228,185
			c0.1,0,0.1,0.1,0.5,0.6c0.7,1.1,1.3,2.5,1.4,3.7l0,0.3l-1.7,0.7c-3.1,1.2-6,2.4-7.9,3.3c-0.5,0.3-1.5,0.7-2.1,1
			c-0.6,0.3-1.1,0.6-1.1,0.5c0,0,0.4-0.3,0.9-0.7c3.8-2.8,7.1-5.8,9.6-8.8C-228.3,185.3-228.1,185-228,185L-228,185L-228,185z
			 M-230,185.5c0.1,0.1-1.4,1.7-2.4,2.7c-2.5,2.5-4.9,4.5-7.9,6.4c-0.4,0.2-0.7,0.5-0.8,0.5c-0.1,0.1,0-0.1,1.3-1.5
			c0.8-0.9,1.5-1.7,2.2-2.6c0.5-0.6,0.6-0.7,1.3-1.2C-234.4,188.3-230.1,185.4-230,185.5z"/>
	</g>
	<path class="st3" d="M37.3,52.7c-0.1,0-0.3,0-0.4,0c-2.7,0.1-4.5,1.3-5.6,3.6c-0.9,2.1-0.8,4.8,0,6.9c1,2.1,2.5,3.1,5.1,3.6
		c0.5,0.1,0.9,0.4,2,1.6l1.3,1.5H42l-1.6-1.6c-0.9-0.9-1.6-1.6-1.6-1.7c0-0.1,0.3-0.2,0.7-0.3c1.3-0.4,2.4-1.4,3.2-3
		c0.6-1.3,0.7-1.6,0.8-3.2C43.8,55.6,41.4,52.7,37.3,52.7L37.3,52.7L37.3,52.7z M39.3,64.9c-1.1,0.6-2.8,0.7-3.9,0.3
		c-1.1-0.4-2.2-1.6-2.7-2.9c-0.5-1.4-0.5-4.1,0.2-5.3c1-1.9,2.3-2.8,4.2-2.8c2.9,0,4.5,1.8,4.7,5C42,61.9,41.1,64,39.3,64.9
		L39.3,64.9z M79.9,56.7c-1,0-1.7,0.4-2.2,1.2l-0.4,0.6v-1.6h-1.7v9.7h1.7v-3.1c0-2.8,0-3.2,0.4-3.9c0.5-1.1,1.5-1.6,2.4-1.3
		l0.6,0.2v-1.7L79.9,56.7L79.9,56.7L79.9,56.7z M69.9,56.6c-0.3,0-0.7,0-1,0.1c-2.3,0.6-3.6,2.8-3.5,5c0,1.9,0.4,2.8,1.3,3.8
		c1.9,1.5,3.5,1.6,5.8,0.8c0.4-0.2,0.8-0.4,0.8-0.4v-1.5l-0.8,0.4c-1.8,0.8-3.2,0.8-4.3-0.1c-0.7-0.7-1-1.6-1.2-2.6h6.9v-1.3
		C73.8,58.2,72.2,56.6,69.9,56.6L69.9,56.6L69.9,56.6z M67.1,60.9c0,0,0.3-1.7,1.2-2.3c0.5-0.3,1-0.5,1.5-0.5c0.5,0,1,0.2,1.4,0.5
		c0.9,0.7,1,2.3,1,2.3L67.1,60.9L67.1,60.9L67.1,60.9L67.1,60.9z M26,59.1c-1.8-1.1-2.7-1.9-2.6-2.9c0.3-2.6,3.5-2.3,5.3-1.3l0-1.8
		c0,0-1-0.4-2.4-0.5c-2.2,0-3.6,0.7-4.3,2.1c-1,2.2-0.1,3.8,3,5.6c1.8,1,2.5,1.9,2.5,2.9c0,2-2.4,2.7-4.9,1.4
		c-0.5-0.3-0.9-0.5-1-0.5c-0.1,0.6,0,1.9,0,1.9s0.8,0.3,1.9,0.5c2.8,0.6,5.4-0.8,5.7-2.9C29.5,61.8,28.8,60.8,26,59.1L26,59.1
		L26,59.1z M95,56.6c-0.3,0-0.7,0-1.1,0.1c-2.3,0.6-3.6,2.8-3.5,5c0,1.9,0.4,2.8,1.3,3.8c1.9,1.5,3.5,1.7,5.8,0.8
		c0.4-0.2,0.8-0.4,0.8-0.4v-1.5l-0.8,0.4c-1.8,0.8-3.2,0.8-4.3-0.1c-0.7-0.7-1-1.6-1.2-2.6H99v-1.3C99,58.2,97.4,56.5,95,56.6
		L95,56.6L95,56.6z M92.2,60.8c0,0,0.3-1.7,1.2-2.3c0.5-0.3,1-0.5,1.5-0.5c0.5,0,1,0.2,1.4,0.5c0.9,0.7,1,2.3,1,2.3L92.2,60.8
		L92.2,60.8L92.2,60.8z M61,59.1c-1.8-1.1-2.7-1.9-2.6-2.9c0.3-2.6,3.5-2.3,5.3-1.3l0-1.8c0,0-1-0.4-2.4-0.5c-2.2,0-3.6,0.7-4.3,2.1
		c-1,2.2-0.1,3.8,3,5.6c1.8,1,2.5,1.9,2.5,2.9c0,2-2.4,2.7-4.9,1.4c-0.5-0.3-0.9-0.5-1-0.5c-0.1,0.6,0,1.9,0,1.9s0.8,0.3,1.9,0.5
		c2.8,0.6,5.4-0.8,5.7-2.9C64.5,61.9,63.7,60.8,61,59.1L61,59.1L61,59.1z M105,56.7c-1,0-1.7,0.4-2.2,1.2l-0.4,0.6v-1.6h-1.7v9.7
		h1.7v-3.1c0-2.8,0-3.2,0.4-3.9c0.5-1.1,1.5-1.6,2.4-1.3l0.6,0.2v-1.7L105,56.7L105,56.7z M47.4,59.1v-6.2h-1.7v13.7h7.2V65h-5.5
		L47.4,59.1L47.4,59.1z M87.2,61l-1.4,3.7L84.4,61L83,56.9h-1.8c1.1,3.2,2.4,6.5,3.6,9.7c0.5,0,1.1,0,1.6,0l1.9-4.8l1.9-4.9h-1.7
		C88.7,56.9,88,58.8,87.2,61L87.2,61L87.2,61z M51.4,49.2c0.3,0,0.5-0.1,0.7-0.3c0.2-0.2,0.3-0.4,0.3-0.7c0-0.3-0.1-0.5-0.3-0.7
		c-0.2-0.2-0.4-0.3-0.7-0.3c-0.3,0-0.5,0.1-0.7,0.3c-0.2,0.2-0.3,0.4-0.3,0.7c0,0.3,0.1,0.5,0.3,0.7C50.9,49.1,51.1,49.2,51.4,49.2
		L51.4,49.2L51.4,49.2z M50.8,47.6c0.2-0.2,0.4-0.2,0.6-0.2c0.2,0,0.4,0.1,0.6,0.2c0.2,0.2,0.3,0.4,0.3,0.6c0,0.2-0.1,0.5-0.3,0.6
		c-0.2,0.2-0.4,0.2-0.6,0.2c-0.2,0-0.4-0.1-0.6-0.2c-0.2-0.2-0.3-0.4-0.3-0.6C50.5,47.9,50.6,47.7,50.8,47.6z M51.2,48.3h0.1
		c0.1,0,0.2,0.1,0.2,0.2l0.1,0.3h0.2l-0.2-0.3c-0.1-0.1-0.1-0.2-0.2-0.2c0.1,0,0.2-0.1,0.2-0.1c0.1-0.1,0.1-0.1,0.1-0.2
		c0-0.1,0-0.2-0.1-0.2c-0.1-0.1-0.2-0.1-0.4-0.1H51v1.2h0.2L51.2,48.3L51.2,48.3L51.2,48.3z M51.2,47.7h0.2c0.1,0,0.2,0,0.2,0.1
		c0,0,0.1,0.1,0.1,0.2c0,0.1-0.1,0.2-0.3,0.2h-0.2L51.2,47.7L51.2,47.7L51.2,47.7z M22.8,48.2c0-0.4,0-0.8,0-0.9h0
		c0,0.2,0.1,0.4,0.1,0.5l1.7,3.7h0.3l1.7-3.7c0-0.1,0.1-0.3,0.1-0.5h0c0,0.4,0,0.7,0,0.9v3.3h0.6v-4.8h-0.7L24.9,50
		c-0.1,0.1-0.1,0.3-0.2,0.6h0c0-0.1-0.1-0.3-0.2-0.6L23,46.6h-0.8v4.8h0.5L22.8,48.2L22.8,48.2L22.8,48.2z M28.4,48.2h0.5v3h-0.5
		V48.2z M28.6,47.1c0.1,0,0.2,0,0.3-0.1c0.1-0.1,0.1-0.2,0.1-0.3c0-0.1,0-0.2-0.1-0.3c-0.1-0.1-0.2-0.1-0.3-0.1
		c-0.1,0-0.2,0-0.3,0.1c-0.1,0.1-0.1,0.2-0.1,0.3c0,0.1,0,0.2,0.1,0.3C28.5,47,28.5,47.1,28.6,47.1L28.6,47.1L28.6,47.1z M32.4,51.3
		v-0.5c-0.3,0.2-0.6,0.3-0.9,0.3c-0.4,0-0.6-0.1-0.9-0.4c-0.2-0.2-0.3-0.6-0.3-1c0-0.4,0.1-0.8,0.3-1c0.2-0.2,0.5-0.4,0.9-0.4
		c0.3,0,0.6,0.1,0.8,0.3V48c-0.2-0.1-0.5-0.2-0.8-0.2c-0.6,0-1,0.2-1.3,0.5c-0.3,0.3-0.5,0.8-0.5,1.4c0,0.5,0.1,0.9,0.4,1.2
		c0.3,0.3,0.7,0.5,1.2,0.5C31.8,51.5,32.1,51.4,32.4,51.3L32.4,51.3z M33.8,49.7c0-0.4,0.1-0.7,0.3-0.9c0.2-0.2,0.3-0.3,0.6-0.3
		c0.2,0,0.3,0,0.4,0.1v-0.6c-0.1,0-0.2,0-0.3,0c-0.2,0-0.4,0.1-0.5,0.2c-0.2,0.1-0.3,0.3-0.4,0.6h0V48h-0.6v3.5h0.6L33.8,49.7
		L33.8,49.7z M36.9,51.5c0.5,0,0.9-0.2,1.3-0.5c0.3-0.3,0.5-0.8,0.5-1.3c0-0.6-0.1-1-0.4-1.3c-0.3-0.3-0.7-0.5-1.2-0.5
		c-0.5,0-0.9,0.2-1.3,0.5c-0.3,0.3-0.5,0.8-0.5,1.4c0,0.5,0.1,1,0.4,1.3C36,51.3,36.4,51.5,36.9,51.5L36.9,51.5L36.9,51.5z
		 M36.1,48.7c0.2-0.2,0.5-0.3,0.8-0.3c0.4,0,0.6,0.1,0.8,0.3c0.2,0.2,0.3,0.6,0.3,1c0,0.4-0.1,0.8-0.3,1C37.6,50.9,37.4,51,37,51
		c-0.4,0-0.6-0.1-0.8-0.4c-0.2-0.2-0.3-0.6-0.3-1C35.8,49.3,35.9,48.9,36.1,48.7L36.1,48.7z M41.1,51.2c0.2-0.2,0.3-0.4,0.3-0.7
		c0-0.3-0.1-0.5-0.3-0.6c-0.1-0.1-0.3-0.3-0.6-0.4c-0.3-0.1-0.4-0.2-0.5-0.3c-0.1-0.1-0.1-0.2-0.1-0.4c0-0.1,0.1-0.3,0.2-0.3
		c0.1-0.1,0.3-0.1,0.4-0.1c0.3,0,0.6,0.1,0.8,0.2V48c-0.2-0.1-0.5-0.2-0.7-0.2c-0.4,0-0.7,0.1-0.9,0.3c-0.2,0.2-0.3,0.4-0.3,0.7
		c0,0.3,0.1,0.5,0.2,0.6c0.1,0.1,0.3,0.3,0.6,0.4c0.3,0.1,0.5,0.2,0.6,0.3c0.1,0.1,0.1,0.2,0.1,0.3c0,0.3-0.2,0.5-0.7,0.5
		c-0.3,0-0.6-0.1-0.9-0.3v0.6c0.2,0.1,0.5,0.2,0.9,0.2C40.5,51.5,40.8,51.4,41.1,51.2L41.1,51.2L41.1,51.2z M43.7,47.9
		c-0.5,0-0.9,0.2-1.3,0.5c-0.3,0.3-0.5,0.8-0.5,1.4c0,0.5,0.1,1,0.4,1.3c0.3,0.3,0.7,0.5,1.2,0.5c0.5,0,0.9-0.2,1.3-0.5
		c0.3-0.3,0.5-0.8,0.5-1.3c0-0.6-0.1-1-0.4-1.3C44.6,48,44.2,47.9,43.7,47.9L43.7,47.9L43.7,47.9z M44.8,49.7c0,0.4-0.1,0.8-0.3,1
		C44.3,50.9,44,51,43.7,51c-0.4,0-0.6-0.1-0.8-0.4c-0.2-0.2-0.3-0.6-0.3-1c0-0.4,0.1-0.8,0.3-1c0.2-0.2,0.5-0.3,0.8-0.3
		c0.3,0,0.6,0.1,0.8,0.3C44.7,48.9,44.8,49.2,44.8,49.7L44.8,49.7L44.8,49.7z M46.3,51.4h0.6v-3h0.8V48h-0.8v-0.5
		c0-0.5,0.2-0.7,0.6-0.7c0.1,0,0.3,0,0.4,0.1v-0.5c-0.1,0-0.2-0.1-0.4-0.1c-0.3,0-0.5,0.1-0.7,0.3c-0.2,0.2-0.4,0.5-0.4,0.9V48h-0.6
		v0.5h0.6L46.3,51.4L46.3,51.4z M48.5,50.5c0,0.7,0.3,1,0.9,1c0.2,0,0.4,0,0.5-0.1v-0.5C49.9,51,49.8,51,49.6,51
		c-0.2,0-0.3,0-0.4-0.1c-0.1-0.1-0.1-0.3-0.1-0.5v-1.9H50V48h-0.9v-1c-0.2,0.1-0.4,0.1-0.6,0.2V48H48v0.5h0.6L48.5,50.5L48.5,50.5z
		 M108,56.8c-0.2-0.2-0.4-0.3-0.7-0.3c-0.3,0-0.5,0.1-0.7,0.3c-0.2,0.2-0.3,0.4-0.3,0.7c0,0.3,0.1,0.5,0.3,0.7
		c0.2,0.2,0.4,0.3,0.7,0.3c0.3,0,0.5-0.1,0.7-0.3c0.2-0.2,0.3-0.4,0.3-0.7C108.3,57.3,108.2,57,108,56.8L108,56.8z M107.9,58.1
		c-0.2,0.2-0.4,0.2-0.6,0.2c-0.2,0-0.4-0.1-0.6-0.2c-0.2-0.2-0.3-0.4-0.3-0.6c0-0.2,0.1-0.4,0.2-0.6c0.2-0.2,0.4-0.2,0.6-0.2
		c0.2,0,0.4,0.1,0.6,0.2c0.2,0.2,0.3,0.4,0.3,0.6C108.2,57.8,108.1,58,107.9,58.1z M107.4,57.6c0.1,0,0.2-0.1,0.2-0.1
		c0.1-0.1,0.1-0.1,0.1-0.2c0-0.1,0-0.2-0.1-0.2c-0.1-0.1-0.2-0.1-0.4-0.1h-0.4v1.2h0.2v-0.5h0.1c0.1,0,0.2,0.1,0.2,0.2l0.1,0.3h0.2
		l-0.2-0.3C107.5,57.7,107.5,57.6,107.4,57.6L107.4,57.6L107.4,57.6z M107.3,57.5h-0.2v-0.4h0.2c0.1,0,0.2,0,0.2,0.1
		c0,0,0.1,0.1,0.1,0.2C107.5,57.4,107.4,57.5,107.3,57.5L107.3,57.5L107.3,57.5z M76.4,47.8h0.2v-1.2h0.4v-0.2h-1v0.2h0.4L76.4,47.8
		L76.4,47.8z M77.3,46.9c0-0.1,0-0.2,0-0.3c0,0.1,0,0.1,0,0.1l0.5,1.1h0.1l0.5-1.1c0,0,0-0.1,0-0.1c0,0.1,0,0.2,0,0.3v0.9h0.2v-1.4
		h-0.2l-0.4,1c0,0,0,0.1-0.1,0.2h0c0,0,0-0.1-0.1-0.2l-0.4-1h-0.2v1.4h0.2L77.3,46.9L77.3,46.9L77.3,46.9z"/>
</g>
</svg>
