<?xml version="1.0" encoding="utf-8"?>
<!-- Generator: Adobe Illustrator 21.0.0, SVG Export Plug-In . SVG Version: 6.00 Build 0)  -->
<svg version="1.1" id="Layer_1" xmlns="http://www.w3.org/2000/svg" xmlns:xlink="http://www.w3.org/1999/xlink" x="0px" y="0px"
	 viewBox="0 0 130 70" style="enable-background:new 0 0 130 70;" xml:space="preserve">
<style type="text/css">
	.st0{fill:#E83F24;}
</style>
<g>
	<g>
		<path class="st0" d="M60.2,44.4c-2.5,0-4.5-0.8-6-2.5c-1.5-1.7-2.3-3.8-2.3-6.5c0-2.9,0.8-5.1,2.3-6.8c1.5-1.7,3.6-2.6,6.3-2.6
			c2.5,0,4.4,0.8,5.9,2.5c1.5,1.7,2.2,3.8,2.2,6.5c0,2.9-0.8,5.2-2.3,6.9C64.8,43.5,62.8,44.4,60.2,44.4z M60.3,27.9
			c-1.9,0-3.4,0.7-4.5,2c-1.2,1.3-1.7,3.1-1.7,5.3c0,2.2,0.6,3.9,1.7,5.3c1.1,1.3,2.6,2,4.4,2c1.9,0,3.5-0.6,4.6-1.9
			c1.1-1.3,1.7-3.1,1.7-5.3c0-2.3-0.5-4.2-1.6-5.4C63.8,28.6,62.3,27.9,60.3,27.9z"/>
		<path class="st0" d="M83.1,26.8c0.5,0,1,0.1,1.3,0.3v-1.8c-0.4-0.1-0.9-0.2-1.5-0.2c-1.1,0-2.1,0.4-2.9,1.2
			c-0.8,0.8-1.2,1.8-1.2,3.2v2.1h-2.1h-0.1h-2.9v-2c0-1.8,0.7-2.7,2.1-2.7c0.5,0,1,0.1,1.3,0.3v-1.8c-0.4-0.1-0.9-0.2-1.5-0.2
			c-1.1,0-2.1,0.4-2.9,1.2c-0.8,0.8-1.2,1.8-1.2,3.2v2.1h-2.2v1.7h2.2v10.9h2V33.1h2.9h0.1h2.1v10.9h2V33.1h3v-1.7h-3v-2
			C80.9,27.7,81.6,26.8,83.1,26.8z"/>
		<path class="st0" d="M86.8,28.2c-0.4,0-0.7-0.1-0.9-0.4c-0.3-0.2-0.4-0.6-0.4-0.9c0-0.4,0.1-0.7,0.4-0.9c0.3-0.3,0.6-0.4,0.9-0.4
			c0.4,0,0.7,0.1,0.9,0.4c0.3,0.3,0.4,0.6,0.4,0.9c0,0.4-0.1,0.7-0.4,0.9C87.5,28.1,87.2,28.2,86.8,28.2z M87.8,44.1h-2V31.4h2V44.1
			z"/>
		<path class="st0" d="M99.2,43.5c-1,0.6-2.1,0.9-3.5,0.9c-1.8,0-3.3-0.6-4.4-1.8c-1.1-1.2-1.7-2.7-1.7-4.6c0-2.1,0.6-3.8,1.8-5
			c1.2-1.3,2.8-1.9,4.8-1.9c1.1,0,2.1,0.2,2.9,0.6v2.1c-0.9-0.7-1.9-1-3-1c-1.3,0-2.4,0.5-3.2,1.4c-0.8,0.9-1.2,2.1-1.2,3.7
			c0,1.5,0.4,2.7,1.2,3.5c0.8,0.9,1.8,1.3,3.1,1.3c1.1,0,2.1-0.4,3.1-1.1V43.5z"/>
		<path class="st0" d="M111.6,38.3h-9c0,1.4,0.4,2.5,1.1,3.3c0.7,0.8,1.7,1.2,3,1.2c1.4,0,2.7-0.5,3.9-1.4v1.9
			c-1.1,0.8-2.6,1.2-4.4,1.2c-1.8,0-3.2-0.6-4.2-1.7c-1-1.2-1.5-2.8-1.5-4.9c0-2,0.6-3.6,1.7-4.8c1.1-1.2,2.5-1.9,4.2-1.9
			c1.7,0,2.9,0.5,3.9,1.6c0.9,1.1,1.4,2.6,1.4,4.5V38.3z M109.5,36.5c0-1.2-0.3-2.1-0.8-2.7c-0.6-0.7-1.3-1-2.3-1
			c-1,0-1.8,0.3-2.4,1c-0.7,0.7-1.1,1.6-1.2,2.7H109.5z"/>
	</g>
	<polygon class="st0" points="34.4,20.1 18.4,26.3 18.4,44.2 18.4,44.2 24.1,41.8 24.1,27.7 34.5,25.3 34.5,46.3 18.4,44.2 
		34.4,49.9 43.3,47 43.3,23.1 	"/>
</g>
</svg>
