<?xml version="1.0" encoding="utf-8"?>
<!-- Generator: Adobe Illustrator 16.0.0, SVG Export Plug-In . SVG Version: 6.00 Build 0)  -->
<!DOCTYPE svg PUBLIC "-//W3C//DTD SVG 1.1//EN" "http://www.w3.org/Graphics/SVG/1.1/DTD/svg11.dtd">
<svg version="1.1" id="Layer_1" xmlns="http://www.w3.org/2000/svg" xmlns:xlink="http://www.w3.org/1999/xlink" x="0px" y="0px"
	 width="200px" height="60px" viewBox="0 0 200 60" enable-background="new 0 0 200 60" xml:space="preserve">
<g>
	<path fill="#8E714E" d="M165.688,26.256c-0.138,0.027-0.274,0.329-0.274,0.493c-0.027,1.098-0.056,4.005-0.056,5.979
		c0,0.055,0.083,0.165,0.165,0.165c0.411,0.027,1.398,0.055,2.249,0.055c1.18,0,1.865-0.165,2.249-0.329
		c0.987-0.494,1.454-1.563,1.454-2.744c0-2.66-1.865-3.675-4.636-3.675C166.646,26.173,166.099,26.173,165.688,26.256
		L165.688,26.256z M172.764,38.516c0-2.716-2.003-4.224-5.623-4.224c-0.164,0-1.316-0.027-1.591,0.027
		c-0.082,0.027-0.192,0.083-0.192,0.165c0,1.947-0.026,5.046,0.056,6.253c0.055,0.521,0.439,1.262,0.905,1.482
		c0.493,0.274,1.618,0.328,2.386,0.328C170.871,42.547,172.764,41.341,172.764,38.516L172.764,38.516z M160.093,24.748
		c0.274,0,1.097,0.082,3.208,0.082c2.002,0,3.593-0.055,5.54-0.055c2.387,0,5.678,0.85,5.678,4.416c0,1.756-1.234,3.154-2.853,3.84
		c-0.082,0.027-0.082,0.082,0,0.109c2.304,0.577,4.334,2.002,4.334,4.69c0,2.634-1.646,4.307-4.031,5.349
		c-1.455,0.631-3.265,0.85-5.103,0.85c-1.398,0-5.156-0.165-7.24-0.109c-0.219-0.083,0.192-1.069,0.384-1.235
		c0.494-0.027,0.878-0.055,1.398-0.219c0.741-0.191,0.823-0.411,0.933-1.536c0.055-0.96,0.055-4.361,0.055-6.775
		c0-3.319,0.028-5.568,0-6.665c-0.027-0.85-0.329-1.125-0.933-1.29c-0.465-0.082-1.233-0.192-1.865-0.274
		C159.461,25.789,159.928,24.857,160.093,24.748L160.093,24.748z M144.267,41.807c0.659,0.521,1.947,0.74,3.1,0.74
		c1.481,0,2.962-0.273,4.388-1.563c1.453-1.316,2.468-3.346,2.468-6.582c0-3.1-1.179-5.623-3.593-7.104
		c-1.372-0.851-3.127-1.207-5.157-1.207c-0.603,0-1.179,0.027-1.535,0.192c-0.083,0.055-0.275,0.302-0.275,0.438
		c-0.055,0.548-0.055,4.772-0.055,7.242c0,2.55,0,6.116,0.055,6.527C143.663,40.902,143.855,41.533,144.267,41.807L144.267,41.807z
		 M138.041,24.747c0.521,0,2.523,0.083,3.483,0.083c1.729,0,2.962-0.082,6.226-0.082c2.743,0,5.047,0.74,6.693,2.139
		c2.001,1.728,3.045,4.115,3.045,7.021c0,4.142-1.893,6.528-3.785,7.899c-1.893,1.399-4.361,2.222-7.872,2.222
		c-1.865,0-5.075-0.055-7.735-0.083h-0.027c-0.137-0.247,0.219-1.207,0.438-1.234c0.713-0.083,0.906-0.11,1.262-0.247
		c0.576-0.22,0.686-0.521,0.768-1.536c0.082-1.893,0.055-4.169,0.055-6.748c0-1.837,0.027-5.431-0.028-6.583
		c-0.082-0.959-0.493-1.207-1.316-1.371c-0.412-0.083-0.96-0.192-1.728-0.274C137.41,25.762,137.904,24.912,138.041,24.747
		L138.041,24.747z"/>
	<path fill="#442D22" d="M104.853,42.877c-0.686-0.083-1.179-0.193-1.782-0.467c-0.083-0.055-0.22-0.329-0.22-0.439
		c-0.055-0.96-0.055-3.703-0.055-5.54c0-1.481-0.247-2.77-0.878-3.675c-0.741-1.043-1.81-1.646-3.182-1.646
		c-1.207,0-2.825,0.822-4.169,1.974c-0.027,0.027-0.247,0.22-0.219-0.082c0-0.302,0.055-0.905,0.082-1.317
		c0.028-0.384-0.191-0.575-0.191-0.575c-0.878,0.438-3.347,1.014-4.252,1.096c-0.658,0.138-0.823,0.769-0.137,0.988h0.027
		c0.74,0.22,1.234,0.467,1.618,0.714c0.274,0.219,0.247,0.521,0.247,0.768c0.027,2.056,0.027,5.21-0.054,6.938
		c-0.027,0.686-0.22,0.932-0.714,1.042l0.055-0.027c-0.384,0.083-0.686,0.165-1.152,0.22c-0.165,0.164-0.165,1.042,0,1.233
		c0.301,0,1.892-0.082,3.209-0.082c1.81,0,2.743,0.082,3.209,0.082c0.192-0.219,0.247-1.042,0.137-1.233
		c-0.521-0.028-0.905-0.083-1.262-0.193c-0.494-0.11-0.631-0.356-0.659-0.932c-0.054-1.454-0.054-4.526-0.054-6.61
		c0-0.576,0.165-0.85,0.329-1.015c0.631-0.548,1.646-0.933,2.551-0.933c0.878,0,1.454,0.274,1.893,0.631
		c0.604,0.494,0.795,1.207,0.878,1.728c0.137,1.179,0.082,3.511,0.082,5.54c0,1.097-0.082,1.372-0.493,1.509
		c-0.192,0.082-0.686,0.192-1.262,0.247c-0.192,0.192-0.137,1.042,0,1.234c0.795,0,1.729-0.082,3.1-0.082
		c1.7,0,2.797,0.082,3.236,0.082C104.908,43.892,104.963,43.097,104.853,42.877L104.853,42.877z M112.45,32.4
		c-1.453,0-2.358,1.124-2.358,2.879c0,1.783,0.795,3.84,3.044,3.84c0.384,0,1.097-0.164,1.426-0.548
		c0.521-0.494,0.877-1.481,0.877-2.523C115.44,33.771,114.315,32.399,112.45,32.4L112.45,32.4z M112.259,44.522
		c-0.549,0-0.933,0.165-1.179,0.302c-1.152,0.74-1.673,1.453-1.673,2.303c0,0.796,0.301,1.426,0.959,1.975
		c0.795,0.686,1.893,1.015,3.292,1.015c2.798,0,4.032-1.509,4.032-2.99c0-1.042-0.521-1.728-1.591-2.111
		C115.331,44.687,113.932,44.522,112.259,44.522L112.259,44.522z M112.45,51.654c-1.673,0-2.879-0.357-3.922-1.152
		c-1.014-0.769-1.453-1.92-1.453-2.716c0-0.219,0.055-0.823,0.548-1.371c0.301-0.33,0.96-0.96,2.523-2.03
		c0.055-0.027,0.082-0.055,0.082-0.11c0-0.055-0.055-0.109-0.109-0.136c-1.29-0.494-1.673-1.289-1.783-1.729v-0.055
		c-0.027-0.165-0.082-0.329,0.165-0.494c0.192-0.137,0.467-0.302,0.768-0.493c0.466-0.275,0.96-0.577,1.261-0.824
		c0.056-0.055,0.056-0.109,0.056-0.164c0-0.056-0.056-0.11-0.11-0.138c-1.919-0.631-2.879-2.057-2.879-4.196
		c0-1.399,0.631-2.66,1.755-3.456c0.769-0.604,2.688-1.344,3.95-1.344h0.082c1.29,0.027,2.002,0.302,3.017,0.658
		c0.549,0.192,1.071,0.274,1.784,0.274c1.069,0,1.536-0.329,1.919-0.712c0.027,0.055,0.083,0.192,0.11,0.548
		c0.026,0.356-0.083,0.878-0.357,1.261c-0.219,0.302-0.713,0.521-1.207,0.521h-0.137c-0.494-0.055-0.713-0.109-0.713-0.109
		l-0.109,0.055c-0.027,0.055,0,0.109,0.027,0.192l0.028,0.055c0.055,0.247,0.164,0.987,0.164,1.179c0,2.25-0.905,3.236-1.865,3.977
		c-0.932,0.686-2.002,1.125-3.208,1.235c-0.027,0-0.137,0-0.385,0.027c-0.137,0-0.329,0.027-0.356,0.027h-0.027
		c-0.22,0.055-0.768,0.329-0.768,0.795c0,0.411,0.246,0.905,1.426,0.988c0.247,0.026,0.494,0.026,0.768,0.055
		c1.563,0.109,3.511,0.247,4.416,0.548c1.262,0.466,2.057,1.59,2.057,2.935c0,2.03-1.453,3.923-3.867,5.101
		C114.92,51.379,113.74,51.654,112.45,51.654L112.45,51.654z M128.084,32.537c-0.575,0-1.096,0.137-1.48,0.411
		c-1.07,0.658-1.618,1.975-1.618,3.895c0,3.593,1.81,6.117,4.388,6.117c0.768,0,1.371-0.22,1.893-0.658
		c0.795-0.659,1.207-1.976,1.207-3.813C132.473,34.923,130.69,32.537,128.084,32.537L128.084,32.537z M128.579,44.276
		c-4.663,0-6.336-3.428-6.336-6.638c0-2.249,0.905-3.977,2.715-5.211c1.289-0.795,2.826-1.234,4.197-1.234
		c3.565,0,6.061,2.551,6.061,6.226c0,2.496-0.987,4.471-2.879,5.678C131.431,43.7,129.867,44.276,128.579,44.276L128.579,44.276
		L128.579,44.276z M79.702,32.537c-0.576,0-1.097,0.137-1.481,0.412c-1.069,0.658-1.618,1.975-1.618,3.895
		c0,3.593,1.81,6.117,4.389,6.117c0.768,0,1.372-0.22,1.893-0.658c0.795-0.659,1.207-1.976,1.207-3.813
		C84.091,34.923,82.335,32.537,79.702,32.537L79.702,32.537z M80.196,44.276c-4.663,0-6.336-3.428-6.336-6.638
		c0-2.249,0.905-3.977,2.715-5.211c1.29-0.795,2.825-1.234,4.197-1.234c3.565,0,6.062,2.551,6.062,6.226
		c0,2.496-0.987,4.471-2.88,5.678C83.076,43.7,81.512,44.276,80.196,44.276L80.196,44.276z M48.846,44.001
		c-0.055-0.082-0.11-0.329-0.082-0.63c0-0.22,0.055-0.357,0.082-0.412c0.576-0.082,0.878-0.165,1.207-0.247
		c0.549-0.137,0.768-0.438,0.795-1.125c0.083-1.646,0.083-4.772,0.055-6.939v-0.055c0-0.247,0-0.548-0.301-0.768
		c-0.439-0.274-0.96-0.521-1.646-0.713c-0.247-0.082-0.411-0.219-0.384-0.383c0-0.165,0.164-0.357,0.521-0.412
		c0.905-0.083,3.263-0.658,4.196-1.07c0.055,0.055,0.137,0.22,0.137,0.439l-0.027,0.301c-0.028,0.302-0.055,0.659-0.055,1.015
		c0,0.109,0.11,0.192,0.22,0.192c0.055,0,0.11-0.027,0.165-0.055c1.755-1.371,3.346-1.865,4.168-1.865
		c1.345,0,2.387,0.631,3.182,1.947c0.055,0.083,0.11,0.11,0.192,0.11c0.055,0,0.137-0.027,0.165-0.083
		c1.618-1.234,3.236-1.975,4.306-1.975c2.551,0,4.06,1.893,4.06,5.102c0,0.905,0,2.085-0.027,3.154c0,0.96-0.027,1.837-0.027,2.469
		c0,0.137,0.191,0.576,0.493,0.658c0.384,0.193,0.905,0.275,1.591,0.384h0.027c0.055,0.192-0.054,0.905-0.164,1.042
		c-0.165,0-0.412,0-0.686-0.027c-0.694-0.036-1.389-0.055-2.084-0.055c-1.701,0-2.579,0.027-3.429,0.082
		c-0.054-0.219-0.082-0.877,0-1.042c0.494-0.082,0.741-0.164,1.042-0.247c0.549-0.165,0.686-0.412,0.714-1.125
		c0-0.521,0.109-4.965-0.056-6.034c-0.164-1.097-0.987-2.387-2.798-2.387c-0.686,0-1.755,0.275-2.797,1.07
		c-0.055,0.055-0.11,0.192-0.11,0.274v0.027c0.11,0.576,0.11,1.235,0.11,2.249v1.783c0,1.234-0.027,2.386,0,3.264
		c0,0.604,0.357,0.74,0.659,0.851c0.165,0.027,0.274,0.055,0.411,0.083c0.247,0.055,0.494,0.109,0.878,0.191
		c0.055,0.11,0.055,0.466-0.027,0.768c-0.028,0.165-0.083,0.247-0.11,0.274c-0.932-0.027-1.892-0.055-3.291-0.055
		c-0.411,0-1.125,0.027-1.728,0.027c-0.495,0-0.96,0.027-1.234,0.027c-0.028-0.055-0.083-0.246-0.083-0.548
		c0-0.247,0.055-0.438,0.11-0.494c0.137-0.027,0.247-0.055,0.384-0.055c0.329-0.055,0.604-0.109,0.878-0.165
		c0.466-0.138,0.631-0.384,0.658-0.987c0.082-1.372,0.165-5.294-0.027-6.281c-0.329-1.59-1.234-2.386-2.688-2.386
		c-0.85,0-1.92,0.412-2.797,1.07c-0.138,0.109-0.248,0.384-0.248,0.631v1.618c0,1.975,0,4.443,0.027,5.513
		c0.028,0.328,0.137,0.713,0.769,0.851c0.137,0.027,0.356,0.082,0.631,0.109l0.493,0.082c0.055,0.165,0.027,0.823-0.082,1.042
		c-0.274,0-0.603-0.027-0.987-0.027c-0.576-0.027-1.316-0.055-2.139-0.055c-0.96,0-1.646,0.027-2.195,0.055
		C49.477,44.001,49.175,44.001,48.846,44.001L48.846,44.001z"/>
	<path fill="#FFFFFF" d="M34.418,50.584L33.294,50.2c0,0,0.137-5.732-1.92-6.144c-1.371-1.591,0.22-67.472,5.157-0.219
		c0,0-1.701,0.85-2.002,2.304C34.199,47.567,34.418,50.584,34.418,50.584L34.418,50.584z"/>
	<path fill="#A6A385" d="M34.418,50.584L33.294,50.2c0,0,0.137-5.732-1.92-6.144c-1.371-1.591,0.22-67.472,5.157-0.219
		c0,0-1.701,0.85-2.002,2.304C34.199,47.567,34.418,50.584,34.418,50.584L34.418,50.584z"/>
	<path fill="#FFFFFF" d="M35.022,45.044c0,0,9.847-6.473,7.542-19.94c-2.222-9.791-7.46-13-8.036-14.234
		c-0.631-0.878-1.234-2.414-1.234-2.414l0.412,27.236C33.706,35.718,32.855,44.029,35.022,45.044"/>
	<path fill="#499D4A" d="M35.022,45.044c0,0,9.847-6.473,7.542-19.94c-2.222-9.791-7.46-13-8.036-14.234
		c-0.631-0.878-1.234-2.414-1.234-2.414l0.412,27.236C33.706,35.718,32.855,44.029,35.022,45.044"/>
	<path fill="#FFFFFF" d="M32.719,45.4c0,0-9.244-6.309-8.695-17.417c0.521-11.109,7.049-16.566,8.311-17.554
		c0.823-0.877,0.85-1.207,0.905-2.084c0.576,1.234,0.466,18.458,0.548,20.488C34.035,36.65,33.349,43.919,32.719,45.4z"/>
	<path fill="#58AA50" d="M32.719,45.4c0,0-9.244-6.309-8.695-17.417c0.521-11.109,7.049-16.566,8.311-17.554
		c0.823-0.877,0.85-1.207,0.905-2.084c0.576,1.234,0.466,18.458,0.548,20.488C34.035,36.65,33.349,43.919,32.719,45.4z"/>
</g>
</svg>
