<?xml version="1.0" encoding="utf-8"?>
<!-- Generator: Adobe Illustrator 21.0.0, SVG Export Plug-In . SVG Version: 6.00 Build 0)  -->
<svg version="1.1" id="Capa_1" xmlns="http://www.w3.org/2000/svg" xmlns:xlink="http://www.w3.org/1999/xlink" x="0px" y="0px"
	 viewBox="0 0 480 480" style="enable-background:new 0 0 480 480;" xml:space="preserve">
<style type="text/css">
	.st0{fill:#FFFFFF;}
</style>
<g>
	<g>
		<path class="st0" d="M208,152c-13.2,0-24,10.8-24,24h16c0-4.4,3.6-8,8-8s8,3.6,8,8h16C232,162.8,221.2,152,208,152z"/>
	</g>
</g>
<g>
	<g>
		<path class="st0" d="M272,152c-13.2,0-24,10.8-24,24h16c0-4.4,3.6-8,8-8s8,3.6,8,8h16C296,162.8,285.2,152,272,152z"/>
	</g>
</g>
<g>
	<g>
		<path class="st0" d="M240,368c-17.6,0-32,14.4-32,32s14.4,32,32,32s32-14.4,32-32S257.6,368,240,368z M240,416
			c-8.8,0-16-7.2-16-16s7.2-16,16-16s16,7.2,16,16S248.8,416,240,416z"/>
	</g>
</g>
<g>
	<g>
		<path class="st0" d="M432,464V360c0-66.2-53.8-120-120-120h-8.7c2.8-2.5,5.5-5.2,8.1-8h8.6c22.1,0,40-17.9,40-40v-14.1
			c9.6-6.5,16-17.5,16-29.9c0-12.5-6.4-23.5-16.1-30C358.8,52.8,305.5,0,240,0S121.2,52.8,120.1,118c-9.7,6.5-16.1,17.5-16.1,30
			c0,19.8,16.2,36,36,36h5.4c3.7,22.2,15.1,41.7,31.3,56H168c-66.2,0-120,53.8-120,120v104H0v16h56h40h288h40h56v-16H432z M344,192
			c0,12.1-9.1,22.1-20.8,23.7c5.5-9.6,9.4-20.3,11.3-31.7h5.4c1.4,0,2.7-0.3,4-0.4V192z M360,148c0,11-9,20-20,20h-4v-40h4
			C351,128,360,137,360,148z M144,168h-4c-11,0-20-9-20-20s9-20,20-20h4V168z M140,112c-1.2,0-2.4,0.2-3.6,0.4
			C140.3,58.6,185.2,16,240,16s99.7,42.6,103.6,96.4c-1.2-0.1-2.4-0.4-3.6-0.4h-5.4c-7.6-45.3-47.1-80-94.6-80s-86.9,34.7-94.6,80
			H140z M320,127.8c-57.7-2-96-25.6-96-47.8c0-4.4-3.6-8-8-8s-8,3.6-8,8c0,20-20.7,36.6-47.5,39.5C164.7,79.4,198.8,48,240,48
			C284,48,319.9,83.8,320,127.8z M160,168v-32.4c25-2.2,46.2-14.2,56.8-31.1c16.7,22.2,55.8,37.8,103.2,39.4V168
			c0,18-6.1,34.6-16.2,48H240v16h47.8c-4.6,3.4-9.5,6.4-14.8,8.8c-21,9.5-45,9.5-66,0C179.3,228.2,160,200.4,160,168z M215.3,260.7
			c7.9,2.1,16.2,3.3,24.7,3.3s16.8-1.2,24.7-3.3L240,310.1L215.3,260.7z M227.1,320h-14.1l-32-64h14.1L227.1,320z M284.9,256h14.1
			l-32,64h-14.1L284.9,256z M88,360v104H64V360c0-55.7,44.1-101.2,99.2-103.8l31.9,63.8H128C105.9,320,88,337.9,88,360z M376,464
			H104V360c0-13.2,10.8-24,24-24h80h32h32h80c13.2,0,24,10.8,24,24V464z M416,464h-24V360c0-22.1-17.9-40-40-40h-67.1l31.9-63.8
			c55.1,2.5,99.2,48,99.2,103.8V464z"/>
	</g>
</g>
<g>
	<g>
		<rect x="344" y="392" class="st0" width="16" height="56"/>
	</g>
</g>
<g>
	<g>
		<rect x="344" y="360" class="st0" width="16" height="16"/>
	</g>
</g>
<g>
	<g>
		<rect x="416" y="72" class="st0" width="16" height="16"/>
	</g>
</g>
<g>
	<g>
		<rect x="416" y="104" class="st0" width="16" height="16"/>
	</g>
</g>
<g>
	<g>
		<rect x="416" y="136" class="st0" width="16" height="16"/>
	</g>
</g>
<g>
	<g>
		<rect x="48" y="168" class="st0" width="16" height="16"/>
	</g>
</g>
<g>
	<g>
		<rect x="48" y="200" class="st0" width="16" height="16"/>
	</g>
</g>
<g>
	<g>
		<rect x="48" y="232" class="st0" width="16" height="16"/>
	</g>
</g>
</svg>
