<?xml version="1.0" encoding="utf-8"?>
<!-- Generator: Adobe Illustrator 21.0.0, SVG Export Plug-In . SVG Version: 6.00 Build 0)  -->
<svg version="1.1" id="Layer_1" xmlns="http://www.w3.org/2000/svg" xmlns:xlink="http://www.w3.org/1999/xlink" x="0px" y="0px"
	 viewBox="0 0 130 70" style="enable-background:new 0 0 130 70;" xml:space="preserve">
<style type="text/css">
	.st0{fill:#00678F;}
	.st1{fill:#E48D1A;}
	.st2{fill:#989A9D;}
</style>
<g>
	<path class="st0" d="M9.3,58.7H13V44.2l5.7,12.6c0.7,1.5,1.6,2.1,3.4,2.1c1.8,0,2.7-0.5,3.3-2.1l5.7-12.6v14.5h3.7V44.2
		c0-1.4-0.6-2.1-1.7-2.5c-2.8-0.9-4.6-0.1-5.5,1.8L22,56l-5.5-12.5c-0.8-1.9-2.7-2.7-5.5-1.8c-1.2,0.3-1.7,1-1.7,2.5V58.7L9.3,58.7z
		"/>
	<path class="st0" d="M37.8,46.8h3.7v8c0,0.4,0.2,1.5,2.1,1.5c1,0,7.9,0,8,0v-9.4h3.7c0,0,0,12.9,0,13c0,3.2-3.9,3.9-5.8,3.9H37.8
		v-2.5h11.6c2.4-0.3,2.1-1.5,2.1-1.8v-0.9h-7.8c-3.6,0-5.9-1.6-6-3.4C37.8,54.9,37.8,46.9,37.8,46.8L37.8,46.8z"/>
	<path class="st1" d="M58.1,58.7h10.5c1.2,0,2.4-0.3,3.4-0.7c1.6-0.8,2.4-1.7,2.4-3v-2.7c0-1-0.9-2.1-2.6-2.7
		c-0.9-0.3-2.1-0.5-3.2-0.5h-4.5c-1.5,0-2.2-0.4-2.4-1.5c0-0.1,0-0.2,0-0.3v-1.6c0-0.1,0-0.2,0-0.3c0.2-0.8,0.6-0.9,1.9-1.1
		c0.1,0,0.3,0,0.3,0h10.5v-2.5H64.2c-1.5,0-2.2,0.1-3,0.3c-2.1,0.7-3.1,1.7-3.1,3.6v2.1c0,1.6,1.9,3.1,5,3.4c0.3,0,0.7,0.1,1,0.1
		h3.8c0.2,0,0.3,0,0.4,0c1.2,0.1,1.6,0.3,2,0.8c0.2,0.2,0.3,0.4,0.3,0.7v2.1c0,0.3-0.2,0.6-0.5,0.9c-0.3,0.3-0.9,0.4-1.5,0.5
		c-0.2,0-0.3,0-0.4,0h-10V58.7L58.1,58.7z"/>
	<path class="st1" d="M97.3,54.4c0,2.5,1.9,3.9,5.7,4.2c0.3,0,0.7,0.1,1,0.1h9.6v-2.5H104c-2.1,0-3-0.5-3-1.8V41.7h-3.7L97.3,54.4
		L97.3,54.4z"/>
	<path class="st1" d="M76.8,54.6v-8.7c0-2.2,1.5-3.6,4.6-3.9c0.3-0.1,0.7-0.1,1-0.1h6.9c0.3,0,0.7,0,1,0.1c3.1,0.4,4.6,1.8,4.6,3.9
		v8.7c0,1.8-0.7,2.7-2.1,3.4l3.6,3.3h-4.3l-2.9-2.7l-2.9,0.2h-3.9c-0.7,0-1.4-0.1-2.1-0.3C77.9,57.8,76.8,56.5,76.8,54.6L76.8,54.6z
		 M80.7,54.3c0,0.1,0,0.3,0.1,0.3c0.2,1,1.2,1.5,2.7,1.5h3.3l-3.1-2.7H88l2.7,2.4c0.5-0.3,0.9-0.7,0.9-1.2c0-0.1,0-0.3,0-0.3v-8.4
		c0-0.1,0-0.2,0-0.3c-0.2-0.9-1.2-1.5-2.6-1.5h-5.6c-1.6,0-2.7,0.7-2.7,1.8L80.7,54.3L80.7,54.3z"/>
	<path class="st0" d="M116.8,37.7c-2.2-0.1-3.9,0.2-5.5,0.8c-0.4,0.2-1.1,0.2-1.1,0.7c0.3,0.3,0.3,0.6,0.4,0.9
		c0.3,0.6,0.9,1.4,1.5,1.7c0.6,0.4,1.2,0.9,1.8,1.3c1.1,0.7,2.3,1,3.4,1.7c0.6,0.4,1.3,0.9,1.9,1.4c0.3,0.3,0.5,0.6,0.9,0.7
		c0,0,0,0,0-0.1c-0.2-0.3-0.3-0.6-0.4-0.9c-0.3-0.3-0.5-0.5-0.9-0.9c-0.9-1.1-1.9-2.1-2.9-2.8c-0.9-0.6-2.8-1.5-3.2-2.5
		c0,0,0,0-0.1-0.1c0.6-0.1,1.4-0.3,1.9-0.4c0.9-0.3,1.8-0.2,2.8-0.4c0.4-0.1,0.9-0.3,1.4-0.4c0-0.1,0-0.2,0-0.3
		c-0.5-0.5-0.9-1.2-1.4-1.6c-1.5-1.2-3-2.5-4.6-3.4c-0.9-0.6-2-0.9-2.9-1.4c-0.3-0.2-0.9-0.3-1.1-0.5c-0.5-0.6-0.8-1.5-1.1-2.1
		c-0.8-1.5-1.6-3.3-2.3-4.9c-0.5-1.1-0.8-2.2-1.4-3.2c-2.9-4.8-6.1-7.7-10.9-10.5c-1-0.6-2.3-0.9-3.6-1.1c-0.7,0-1.4-0.1-2.1-0.1
		c-0.4-0.2-0.9-0.7-1.3-0.9c-1.6-1-5.7-3.3-6.9-0.3c-0.8,1.8,1.1,3.6,1.8,4.5c0.4,0.7,1.1,1.4,1.4,2.1c0.3,0.5,0.3,0.9,0.4,1.5
		c0.4,1.3,0.9,2.7,1.5,3.8c0.3,0.6,0.6,1.2,1,1.7c0.3,0.3,0.6,0.4,0.7,0.9c-0.4,0.5-0.4,1.5-0.6,2.1c-1,3.2-0.6,7.1,0.9,9.4
		c0.4,0.7,1.5,2.2,2.9,1.6c1.3-0.5,0.9-2.1,1.4-3.5c0.1-0.3,0-0.5,0.2-0.8c0,0,0,0,0,0.1c0.3,0.8,0.8,1.5,1.1,2.3
		c0.9,1.4,2.4,2.8,3.7,3.8c0.7,0.5,1.2,1.4,2.1,1.6c0,0,0,0,0-0.1c0,0,0,0-0.1,0c-0.2-0.3-0.4-0.3-0.6-0.6c-0.5-0.5-1-1.1-1.5-1.6
		C94,35.2,93,33.5,92,31.7c-0.4-0.9-0.9-1.8-1.2-2.7c-0.2-0.3-0.2-0.9-0.4-1c-0.4,0.7-1,1.2-1.4,1.9c-0.5,1.2-0.6,2.7-0.8,4.2
		c-0.1,0-0.1,0-0.1,0.1c-0.9-0.3-1.2-1.1-1.5-1.9c-0.9-2-1-5.2-0.3-7.5c0.2-0.6,1-2.5,0.7-3c-0.2-0.5-0.7-0.9-1-1.3
		c-0.3-0.5-0.8-1.2-1-1.8c-0.7-1.5-1-3.3-1.7-4.9c-0.3-0.8-0.9-1.5-1.4-2.1c-0.5-0.8-1.1-1.3-1.5-2.1c-0.2-0.3-0.3-0.9-0.1-1.1
		C80.4,8.1,80.4,8,80.6,8C81,7.8,82,8.1,82.4,8.3c1,0.4,1.9,0.9,2.7,1.4c0.4,0.3,0.9,0.8,1.4,0.9c0.2,0,0.3,0,0.6,0
		c0.9,0.2,1.9,0.1,2.7,0.3c1.5,0.4,2.8,1.2,4,1.9c3.7,2.3,6.7,5.7,8.8,9.6c0.3,0.6,0.5,1.3,0.8,1.9c0.6,1.4,1.4,2.7,1.9,4.1
		c0.6,1.4,1.2,2.7,2,3.8c0.4,0.6,2.1,0.9,2.9,1.2c0.5,0.3,1.5,0.4,1.9,0.8c0.9,0.6,1.9,1.3,2.8,1.9
		C115.3,36.4,116.8,37.1,116.8,37.7L116.8,37.7z"/>
	<path class="st0" d="M88.2,13.2c-0.4,0-0.8,0.1-1.1,0.1c0,0,0,0,0,0.1c0,0,0,0,0.1,0c0.3,0.4,0.6,0.8,0.9,1.1
		c0.2,0.4,0.4,0.9,0.6,1.4c0,0,0,0,0.1-0.1c0.4-0.3,0.6-0.7,0.6-1.4c-0.2-0.2-0.2-0.3-0.3-0.6C88.8,13.6,88.4,13.4,88.2,13.2
		L88.2,13.2z"/>
	<path class="st1" d="M115.3,56.1c0,1.6,1.3,2.7,2.7,2.7s2.7-1.1,2.7-2.7c0-1.6-1.3-2.7-2.7-2.7C116.6,53.4,115.3,54.6,115.3,56.1
		L115.3,56.1z M120.1,56.1c0,1.2-0.9,2.1-2.1,2.1c-1.2,0-2.1-0.9-2.1-2.1c0-1.2,0.9-2.1,2.1-2.1C119.2,54,120.1,54.9,120.1,56.1
		L120.1,56.1z M118.8,57.6h0.6l-0.9-1.4c0.5-0.1,0.9-0.3,0.9-0.9s-0.4-0.9-1.2-0.9H117v3.1h0.5v-1.4h0.5L118.8,57.6L118.8,57.6z
		 M117.5,55.9v-0.9h0.6c0.3,0,0.7,0.1,0.7,0.4c0,0.4-0.3,0.4-0.7,0.4H117.5L117.5,55.9z"/>
	<g>
		<path class="st2" d="M9.5,31.9c0.3-0.1,0.9-0.1,1.4-0.1c0.7,0,1.3,0.2,1.6,0.4c0.3,0.3,0.5,0.7,0.5,1.2c0,0.5-0.2,0.9-0.4,1.2
			c-0.4,0.4-1,0.6-1.7,0.6c-0.3,0-0.4,0-0.6-0.1v2.3H9.5C9.5,37.5,9.5,31.9,9.5,31.9z M10.1,34.7c0.2,0,0.3,0.1,0.6,0.1
			c0.9,0,1.5-0.4,1.5-1.2s-0.5-1.1-1.4-1.1c-0.3,0-0.5,0-0.7,0V34.7L10.1,34.7z"/>
		<path class="st2" d="M15.5,37.7c-1.1,0-2-0.9-2-2.1c0-1.4,0.9-2.1,2.1-2.1s2,0.9,2,2.1C17.6,37,16.5,37.7,15.5,37.7L15.5,37.7
			L15.5,37.7z M15.6,37.1c0.7,0,1.2-0.7,1.2-1.6c0-0.7-0.3-1.5-1.2-1.5c-0.9,0-1.3,0.8-1.3,1.5C14.3,36.4,14.9,37.1,15.6,37.1
			L15.6,37.1z"/>
		<path class="st2" d="M18.8,33.5l0.5,2.1c0.1,0.4,0.3,0.9,0.3,1.3l0,0c0.1-0.4,0.3-0.9,0.3-1.3l0.7-2.1h0.7l0.6,2.1
			c0.2,0.5,0.3,0.9,0.3,1.3l0,0c0.1-0.4,0.2-0.9,0.3-1.3l0.6-2.1h0.8l-1.3,4H22l-0.6-2c-0.2-0.4-0.3-0.9-0.3-1.4l0,0
			c-0.1,0.5-0.3,0.9-0.3,1.4l-0.7,2h-0.7l-1.2-4H18.8L18.8,33.5z"/>
		<path class="st2" d="M25.1,35.6c0,1,0.7,1.4,1.4,1.4c0.5,0,0.9-0.1,1.1-0.2l0.2,0.5c-0.3,0.2-0.8,0.3-1.4,0.3c-1.3,0-2-0.9-2-2.1
			c0-1.2,0.8-2.2,1.9-2.2c1.3,0,1.7,1.2,1.7,1.9c0,0.2,0,0.3,0,0.3L25.1,35.6L25.1,35.6z M27.3,35.1c0-0.4-0.2-1.2-1-1.2
			c-0.8,0-1.1,0.7-1.1,1.2H27.3z"/>
		<path class="st2" d="M28.9,34.8c0-0.5,0-0.9,0-1.3h0.7v0.8l0,0c0.2-0.5,0.6-0.9,1.1-0.9c0.1,0,0.2,0,0.2,0v0.7c-0.1,0-0.2,0-0.3,0
			c-0.5,0-0.9,0.4-1,0.9c0,0.1,0,0.3,0,0.3v2.1h-0.8L28.9,34.8L28.9,34.8z"/>
		<path class="st2" d="M32.1,35.6c0,1,0.7,1.4,1.4,1.4c0.5,0,0.9-0.1,1.1-0.2l0.2,0.5c-0.3,0.1-0.7,0.3-1.4,0.3c-1.3,0-2-0.9-2-2.1
			c0-1.2,0.8-2.2,1.9-2.2c1.3,0,1.7,1.2,1.7,1.9c0,0.2,0,0.3,0,0.3L32.1,35.6L32.1,35.6z M34.2,35.1c0-0.4-0.2-1.2-1-1.2
			c-0.8,0-1.1,0.7-1.1,1.2H34.2z"/>
		<path class="st2" d="M39.4,31.6v4.9c0,0.3,0,0.8,0,1h-0.7v-0.7l0,0c-0.3,0.4-0.7,0.8-1.4,0.8c-0.9,0-1.7-0.9-1.7-2.1
			c0-1.4,0.9-2.1,1.8-2.1c0.6,0,1,0.3,1.2,0.6l0,0v-2.4H39.4L39.4,31.6z M38.6,35.1c0-0.1,0-0.3,0-0.3c-0.1-0.4-0.5-0.9-1-0.9
			c-0.8,0-1.2,0.7-1.2,1.5s0.4,1.5,1.2,1.5c0.5,0,0.9-0.3,1.1-0.9c0-0.1,0-0.2,0-0.3C38.6,35.9,38.6,35.1,38.6,35.1z"/>
		<path class="st2" d="M42.4,31.6h0.8v2.6l0,0c0.3-0.4,0.8-0.8,1.4-0.8c1,0,1.7,0.9,1.7,2.1c0,1.5-0.9,2.1-1.8,2.1
			c-0.6,0-1-0.3-1.4-0.8l0,0v0.7h-0.6c0-0.3,0-0.7,0-1L42.4,31.6L42.4,31.6z M43.1,35.9c0,0.1,0,0.2,0,0.3c0.2,0.5,0.6,0.9,1.1,0.9
			c0.8,0,1.2-0.6,1.2-1.5c0-0.9-0.4-1.5-1.2-1.5c-0.5,0-0.9,0.3-1.1,0.9c0,0.1,0,0.2,0,0.3V35.9L43.1,35.9z"/>
		<path class="st2" d="M47.4,33.5l0.9,2.4c0.1,0.3,0.2,0.6,0.3,0.9l0,0c0.1-0.3,0.2-0.5,0.3-0.9l0.8-2.4h0.9l-1.1,2.9
			c-0.5,1.4-0.9,2.1-1.4,2.6c-0.3,0.3-0.7,0.4-0.9,0.4l-0.2-0.6c0.2-0.1,0.4-0.2,0.7-0.3c0.2-0.2,0.4-0.4,0.6-0.9
			c0-0.1,0.1-0.2,0.1-0.2s0-0.1-0.1-0.2l-1.5-3.8L47.4,33.5L47.4,33.5z"/>
	</g>
</g>
</svg>
