<svg xmlns="http://www.w3.org/2000/svg" width="4.1667in" height="0.5181in" viewBox="0 0 300 37.3"><defs><style>.a{fill:#ed1f24;}.b{isolation:isolate;}.c{fill:#a7a9ac;}</style></defs><title>Netpace-Logo</title><path class="a" d="M10,9.2,13.4,8v3.8c0,.1.1.4.3.4s.5-.3.7-.5l.8-1a6.456,6.456,0,0,1,5.3-2.5,5.3021,5.3021,0,0,1,2.8.7c.9.5,1.6,1.4,1.6,4.3v15H21.2v-15c0-.5,0-2.6-2.2-2.6-2,0-3.5,1.9-3.8,2.1a12.7456,12.7456,0,0,0-1.6,2.1V28.1H10V9.2Z"/><path class="a" d="M47.3,18.7h-13c0,4.4,1.4,7.4,5.3,7.4A5.8575,5.8575,0,0,0,44,24.4l2.2,1.8a9.8925,9.8925,0,0,1-7.1,2.5c-5.1,0-8.6-3.6-8.6-9.8C30.5,8.9,37.1,8,39.1,8c5.3,0,8.1,4,8.2,8.9Zm-3.8-2.3c0-3.4-1.4-5.9-4.4-5.9A4.2,4.2,0,0,0,35.2,13a9.8344,9.8344,0,0,0-.8,3.4Z"/><path class="a" d="M50.1,10.1h3.1V5.6l3.5-3.1h.4V10h3.5v2.2H57V23.9a1.6056,1.6056,0,0,0,1.8,1.8,9.3614,9.3614,0,0,0,3.7-1.1v3a10.434,10.434,0,0,1-4.3,1c-1,0-5-.3-5-4.2V12.2H50.1Z"/><path class="a" d="M66.1,8.9l3.3-1.3v4.2c0,.3.2.4.3.4a.3674.3674,0,0,0,.3-.1c.4-.3,1.4-4.3,5.6-4.3a6.3138,6.3138,0,0,1,5.3,3A15.0751,15.0751,0,0,1,82.7,18c0,6.9-3.2,10.4-7.1,10.4a6.521,6.521,0,0,1-4.8-2.5c-.5-.8-.6-.9-.8-.9s-.2.3-.2.5v9.3H66.1Zm8.6,1.7c-3.2,0-5,4.1-5,7.5,0,5.9,2.9,7.5,5.2,7.5,1.8,0,4.1-1.5,4.1-7.7C78.9,15.8,78.6,10.6,74.7,10.6Z"/><path class="a" d="M101.8,23.8c0,1,0,2.2,1.9,2.1v2.7c-1.8-.1-3.1-.2-4.3-1.3a3.7557,3.7557,0,0,1-1.1-2l-.1-.1a14.9316,14.9316,0,0,0-1.4,1.2,8.2249,8.2249,0,0,1-6.1,2.1,5.057,5.057,0,0,1-5.3-4.8,6.7278,6.7278,0,0,1,3.2-5.6C91,16.6,94.4,16,98,16V13.4c0-.8,0-2.7-3.4-2.7a13.1255,13.1255,0,0,0-6.3,2.1l-1.6-2.5A15.1117,15.1117,0,0,1,94.8,8a9.8285,9.8285,0,0,1,5,1.3,5.0837,5.0837,0,0,1,2,4.5ZM98,18c-4.6,0-8.7,1.6-8.7,5.1a3.1046,3.1046,0,0,0,3.3,3.1c2.4,0,4.3-1.8,5.5-2.8V18Z"/><path class="a" d="M118.7,13.9c-.3-.9-1.2-3.1-3.7-3.1-2.6,0-4.5,2.5-4.5,6.5a14.5645,14.5645,0,0,0,.7,5.2,4.6053,4.6053,0,0,0,4.2,3.2c2.3,0,3.4-1.8,3.7-3.8l3.3,1.4c-.7,3.2-3.3,5.3-7.1,5.3-8.3,0-8.6-8.9-8.6-10a11.838,11.838,0,0,1,2.2-7.8A7.3314,7.3314,0,0,1,114.8,8c.9,0,3.9.2,5.6,2.3a6.415,6.415,0,0,1,1.4,2.1Z"/><path class="a" d="M142.4,18.7H129.5c0,4.4,1.4,7.4,5.3,7.4a5.8575,5.8575,0,0,0,4.4-1.7l2.2,1.8a9.8925,9.8925,0,0,1-7.1,2.5c-5.1,0-8.6-3.6-8.6-9.8,0-10,6.6-10.9,8.6-10.9,5.3,0,8.1,4,8.2,8.9Zm-3.8-2.3c0-3.4-1.4-5.9-4.4-5.9a4.2,4.2,0,0,0-3.9,2.5,9.8347,9.8347,0,0,0-.8,3.4Z"/><g class="b"><path class="c" d="M158.8,24.4V12.7h2.5c3.9,0,5.5,2.3,5.5,6a7.5,7.5,0,0,1-.8,3.5c-.5.9-1.5,2.2-4.6,2.2Zm1.6-10.2V23h1.2c2.8,0,3.4-2.2,3.4-4.4a6.0013,6.0013,0,0,0-.9-3.4c-.6-.8-1.5-1-2.9-1Z"/><path class="c" d="M175.4,22h-4.6l-.7,2.4h-1.7l3.8-11.7H174l4,11.7h-1.7Zm-.5-1.4-1.9-6a.0979.0979,0,0,0-.1-.1c-.1,0-.1,0-.1.1l-1.7,6Z"/><path class="c" d="M186.6,12.7v1.5h-3.4V24.5h-1.7V14.2h-3.4V12.7Z"/><path class="c" d="M194.3,22h-4.6l-.7,2.4h-1.7l3.8-11.7h1.8l4,11.7h-1.7Zm-.5-1.4-1.9-6a.0979.0979,0,0,0-.1-.1c-.1,0-.1,0-.1.1l-1.7,6Z"/><path class="c" d="M203.4,24.4V12.7h2.5c3.9,0,5.5,2.3,5.5,6a7.5,7.5,0,0,1-.8,3.5c-.5.9-1.5,2.2-4.6,2.2ZM205,14.2V23h1.2c2.8,0,3.4-2.2,3.4-4.4a6.0013,6.0013,0,0,0-.9-3.4c-.6-.8-1.5-1-2.9-1Z"/><path class="c" d="M214.3,12.7h3.6c3.3,0,4,2,4,3.2a3,3,0,0,1-2.5,3.1l3.1,5.4h-1.9l-2.8-5.2H216v5.2h-1.6V12.7Zm1.6,1.3v3.9a22.6236,22.6236,0,0,0,2.7-.1,1.7582,1.7582,0,0,0,1.6-1.8c0-1.4-.9-2-2.7-2Z"/><path class="c" d="M224.3,23.4h1V13.8h-1V12.7H228v1.1h-1v9.6h1v1h-3.7Z"/><path class="c" d="M239.3,12.7l-3.8,11.7h-1.8l-3.8-11.7h1.7l2.9,9.3.1.1.1-.1,2.9-9.3Z"/><path class="c" d="M241.9,12.7h7.3v1.4h-5.6v3.4h4.1V19h-4.1v3.9h5.9v1.5h-7.6V12.7Z"/><path class="c" d="M252.5,12.7h2.1l3.4,7.6.5,1.2c.1.2.4,1.1.5,1.3h.1c.1-.1.1-.1.1-.2,0-.2-.1-1-.1-1.1V12.9h1.3V24.6h-2L255,17a16.08,16.08,0,0,1-.9-2.5H254c-.1.1-.1.1-.1.2,0,.3.1,2.1.1,2.2v7.8h-1.3v-12Z"/><rect class="c" x="197.125" y="17.85" width="4.3" height="1.4"/></g></svg>