<?xml version="1.0" encoding="utf-8"?>
<!-- Generator: Adobe Illustrator 21.0.0, SVG Export Plug-In . SVG Version: 6.00 Build 0)  -->
<svg version="1.1" id="Layer_1" xmlns="http://www.w3.org/2000/svg" xmlns:xlink="http://www.w3.org/1999/xlink" x="0px" y="0px"
	 width="300px" height="37.3px" viewBox="0 0 300 37.3" style="enable-background:new 0 0 300 37.3;" xml:space="preserve">
<style type="text/css">
	.st0{fill:#ED1F24;}
	.st1{enable-background:new    ;}
	.st2{fill:#A7A9AC;}
</style>
<g>
	<g>
		<path class="st0" d="M10,9.2L13.4,8v3.8c0,0.1,0.1,0.4,0.3,0.4s0.5-0.3,0.7-0.5l0.8-1c1.3-1.6,3-2.5,5.3-2.5c1,0,2,0.2,2.8,0.7
			c0.9,0.5,1.6,1.4,1.6,4.3v15h-3.7v-15c0-0.5,0-2.6-2.2-2.6c-2,0-3.5,1.9-3.8,2.1c-1.3,1.5-1.6,2.1-1.6,2.1v13.3H10V9.2L10,9.2z"/>
		<path class="st0" d="M47.3,18.7h-13c0,4.4,1.4,7.4,5.3,7.4c2.5,0,3.8-1.1,4.4-1.7l2.2,1.8c-1.4,1.1-3.1,2.5-7.1,2.5
			c-5.1,0-8.6-3.6-8.6-9.8c0-10,6.6-10.9,8.6-10.9c5.3,0,8.1,4,8.2,8.9L47.3,18.7z M43.5,16.4c0-3.4-1.4-5.9-4.4-5.9
			c-1.8,0-3.2,1-3.9,2.5c-0.7,1.4-0.7,2.8-0.8,3.4H43.5L43.5,16.4z"/>
		<path class="st0" d="M50.1,10.1h3.1V5.6l3.5-3.1h0.4V10h3.5v2.2H57v11.7c0,0.4,0,1.8,1.8,1.8c1.3,0,2.6-0.6,3.7-1.1v3
			c-1.1,0.6-3,1-4.3,1c-1,0-5-0.3-5-4.2V12.2h-3.1C50.1,12.2,50.1,10.1,50.1,10.1z"/>
		<path class="st0" d="M66.1,8.9l3.3-1.3v4.2c0,0.3,0.2,0.4,0.3,0.4c0.1,0,0.2,0,0.3-0.1c0.4-0.3,1.4-4.3,5.6-4.3
			c2.4,0,4.3,1.4,5.3,3c1.2,2,1.8,4.9,1.8,7.2c0,6.9-3.2,10.4-7.1,10.4c-1.4,0-3.5-0.8-4.8-2.5C70.3,25.1,70.2,25,70,25
			s-0.2,0.3-0.2,0.5v9.3h-3.7C66.1,34.8,66.1,8.9,66.1,8.9z M74.7,10.6c-3.2,0-5,4.1-5,7.5c0,5.9,2.9,7.5,5.2,7.5
			c1.8,0,4.1-1.5,4.1-7.7C78.9,15.8,78.6,10.6,74.7,10.6z"/>
		<path class="st0" d="M101.8,23.8c0,1,0,2.2,1.9,2.1v2.7c-1.8-0.1-3.1-0.2-4.3-1.3c-0.3-0.3-1-1.1-1.1-2l-0.1-0.1
			c-0.2,0.1-1.2,1-1.4,1.2c-2.5,2-4.1,2.1-6.1,2.1c-3.1,0-5.3-2.3-5.3-4.8c0-2.4,1.3-4.3,3.2-5.6C91,16.6,94.4,16,98,16v-2.6
			c0-0.8,0-2.7-3.4-2.7c-2.2,0-4.4,1-6.3,2.1l-1.6-2.5C89.3,8.9,91.3,8,94.8,8c1.5,0,3.7,0.4,5,1.3c1.5,1.1,2,2.6,2,4.5V23.8z
			 M98,18c-4.6,0-8.7,1.6-8.7,5.1c0,1.7,1.3,3.1,3.3,3.1c2.4,0,4.3-1.8,5.5-2.8V18H98z"/>
		<path class="st0" d="M118.7,13.9c-0.3-0.9-1.2-3.1-3.7-3.1c-2.6,0-4.5,2.5-4.5,6.5c0,1.7,0.1,3.8,0.7,5.2c0.6,1.4,1.8,3.2,4.2,3.2
			c2.3,0,3.4-1.8,3.7-3.8l3.3,1.4c-0.7,3.2-3.3,5.3-7.1,5.3c-8.3,0-8.6-8.9-8.6-10c0-1.9,0-5,2.2-7.8c1.9-2.4,4.4-2.8,5.9-2.8
			c0.9,0,3.9,0.2,5.6,2.3c0.8,0.9,1,1.2,1.4,2.1L118.7,13.9z"/>
		<path class="st0" d="M142.4,18.7h-12.9c0,4.4,1.4,7.4,5.3,7.4c2.5,0,3.8-1.1,4.4-1.7l2.2,1.8c-1.4,1.1-3.1,2.5-7.1,2.5
			c-5.1,0-8.6-3.6-8.6-9.8c0-10,6.6-10.9,8.6-10.9c5.3,0,8.1,4,8.2,8.9L142.4,18.7z M138.6,16.4c0-3.4-1.4-5.9-4.4-5.9
			c-1.8,0-3.2,1-3.9,2.5c-0.7,1.4-0.7,2.8-0.8,3.4H138.6L138.6,16.4z"/>
	</g>
</g>
<g class="st1">
	<path class="st2" d="M158.8,24.4V12.7h2.5c3.9,0,5.5,2.3,5.5,6c0,0.8-0.1,2.2-0.8,3.5c-0.5,0.9-1.5,2.2-4.6,2.2H158.8z M160.4,14.2
		v8.8h1.2c2.8,0,3.4-2.2,3.4-4.4c0-1.1-0.2-2.4-0.9-3.4c-0.6-0.8-1.5-1-2.9-1H160.4z"/>
	<path class="st2" d="M175.4,22h-4.6l-0.7,2.4h-1.7l3.8-11.7h1.8l4,11.7h-1.7L175.4,22z M174.9,20.6l-1.9-6c0,0,0-0.1-0.1-0.1
		s-0.1,0-0.1,0.1l-1.7,6H174.9z"/>
	<path class="st2" d="M186.6,12.7v1.5h-3.4v10.3h-1.7V14.2h-3.4v-1.5H186.6z"/>
	<path class="st2" d="M194.3,22h-4.6l-0.7,2.4h-1.7l3.8-11.7h1.8l4,11.7h-1.7L194.3,22z M193.8,20.6l-1.9-6c0,0,0-0.1-0.1-0.1
		s-0.1,0-0.1,0.1l-1.7,6H193.8z"/>
	<path class="st2" d="M203.4,24.4V12.7h2.5c3.9,0,5.5,2.3,5.5,6c0,0.8-0.1,2.2-0.8,3.5c-0.5,0.9-1.5,2.2-4.6,2.2H203.4z M205,14.2
		v8.8h1.2c2.8,0,3.4-2.2,3.4-4.4c0-1.1-0.2-2.4-0.9-3.4c-0.6-0.8-1.5-1-2.9-1H205z"/>
	<path class="st2" d="M214.3,12.7h3.6c3.3,0,4,2,4,3.2c0,2.2-1.5,2.8-2.5,3.1l3.1,5.4h-1.9l-2.8-5.2h-1.8v5.2h-1.6V12.7z M215.9,14
		v3.9c0.9,0,2,0,2.7-0.1c0.6-0.1,1.6-0.5,1.6-1.8c0-1.4-0.9-2-2.7-2H215.9z"/>
	<path class="st2" d="M224.3,23.4h1v-9.6h-1v-1.1h3.7v1.1h-1v9.6h1v1h-3.7V23.4z"/>
	<path class="st2" d="M239.3,12.7l-3.8,11.7h-1.8l-3.8-11.7h1.7l2.9,9.3c0,0,0.1,0.1,0.1,0.1s0.1-0.1,0.1-0.1l2.9-9.3H239.3z"/>
	<path class="st2" d="M241.9,12.7h7.3v1.4h-5.6v3.4h4.1V19h-4.1v3.9h5.9v1.5h-7.6V12.7z"/>
	<path class="st2" d="M252.5,12.7h2.1l3.4,7.6c0,0,0.5,1.2,0.5,1.2c0.1,0.2,0.4,1.1,0.5,1.3c0,0,0.1,0,0.1,0
		c0.1-0.1,0.1-0.1,0.1-0.2c0-0.2-0.1-1-0.1-1.1c0-0.7,0-1.3,0-1.7v-6.9h1.3v11.7h-2l-3.4-7.6c-0.4-1-0.9-2.2-0.9-2.5
		c0,0-0.1,0-0.1,0c-0.1,0.1-0.1,0.1-0.1,0.2c0,0.3,0.1,2.1,0.1,2.2v7.8h-1.3V12.7z"/>
</g>
</svg>
