<?xml version="1.0" encoding="utf-8"?>
<!-- Generator: Adobe Illustrator 21.0.2, SVG Export Plug-In . SVG Version: 6.00 Build 0)  -->
<svg version="1.1" id="Layer_1" xmlns="http://www.w3.org/2000/svg" xmlns:xlink="http://www.w3.org/1999/xlink" x="0px" y="0px"
	 width="130px" height="70px" viewBox="0 0 130 70" style="enable-background:new 0 0 130 70;" xml:space="preserve">
<style type="text/css">
	.st0{fill:#00467F;}
	.st1{fill:#B9C7D4;}
</style>
<g>
	<g id="Layer_3">
		<polygon points="43.8,43.3 40.9,43.3 40.9,29.8 44.7,29.8 49.1,37.6 49.1,29.8 52,29.8 52,43.3 48.9,43.3 43.8,34.1 		"/>
		<path d="M54.6,29.8"/>
		<polygon points="63.4,29.8 54.6,29.8 54.6,43.3 63.4,43.3 63.4,40.7 57.7,40.7 57.7,37.4 63,37.4 63,34.7 57.7,34.7 57.7,32.5 
			63.4,32.5 		"/>
		<path d="M65.2,29.8h10.7v2.7h-3.8v10.9H69V32.5c0,0-3.3,0-3.8,0C65.2,32.3,65.2,29.8,65.2,29.8z"/>
		<path d="M69,32.5c0,0-3.6,0-3.8,0"/>
		<g>
			<path d="M77.9,40.2c0.8,0.5,2,1.6,4.1,1.8c2.5,0.3,3.5-1.1,3.6-2.2c0.2-1.7-1.3-2-3.5-2.5c-2.4-0.5-4-0.9-4.2-3.8
				c-0.2-2.2,1.7-4.1,5.3-4c1.4,0.1,2.8,0.5,3.6,0.9v2.1c-0.5-0.3-1.8-1.4-4.2-1.5c-1.8-0.1-2.8,1.1-2.9,2.1c0,2.3,1.9,2,3.7,2.5
				c2.6,0.7,3.9,1.3,3.9,3.9c-0.1,2.4-2.2,4-5.3,4c-1.5,0-3.1-0.5-4-1.1L77.9,40.2L77.9,40.2z"/>
		</g>
		<g>
			<path d="M92.1,29.8v8.1c0,3,1.3,4.3,3,4.3c1.9,0,3.1-1.3,3.1-4.3v-8.1h1.7v7.9c0,4.2-2.1,5.9-4.9,5.9c-2.6,0-4.6-1.6-4.6-5.8v-8
				L92.1,29.8L92.1,29.8z"/>
		</g>
		<rect x="104.8" y="29.8" width="1.6" height="13.5"/>
		<polygon points="109.2,29.8 119.5,29.8 119.5,31.4 115.2,31.4 115.2,43.3 113.6,43.3 113.6,31.4 109.2,31.4 		"/>
		<polygon points="130,29.8 122.1,29.8 122.1,43.3 130,43.3 130,41.8 123.6,41.8 123.6,36.7 130,36.7 130,35.1 123.6,35.1 
			123.6,31.4 130,31.4 		"/>
	</g>
	<g id="Layer_1_1_">
		<g>
			<path class="st0" d="M0,18.8c7,0,14.1,0,21,0c0,6,0,12.1,0,18c-8.2-10.4,0,0-8.2-10.4c-4.3,0-8.6,0-12.9,0C0,24,0,18.9,0,18.8z"
				/>
			<path class="st0" d="M12.8,33.3c2.7,3.4,5.4,6.9,8.1,10.3c4.3,0,8.6,0,12.9,0c0,2.5,0,5.1,0,7.6c-7,0-14,0-21,0
				C12.8,45.2,12.8,39.3,12.8,33.3z"/>
			<path class="st1" d="M22.4,26.4c0-2,0-4,0-6.1c3.3,0,6.6,0,9.9,0c0,7.3,0,14.6,0,21.9c-2.2,0-4.4,0-6.6,0c0-5.3,0-10.6,0-15.8
				C24.6,26.4,22.4,26.4,22.4,26.4z"/>
			<path class="st1" d="M8.2,27.7c0,5.2,0,10.5,0,15.7c1,0,2.2,0,3.3,0c0,2.1,0,4.1,0,6.2c-3.3,0-6.6,0-9.9,0c0-7.3,0-14.6,0-21.9
				C3.8,27.7,6,27.7,8.2,27.7z"/>
		</g>
	</g>
</g>
</svg>
