<?xml version="1.0" encoding="utf-8"?>
<!-- Generator: Adobe Illustrator 16.0.0, SVG Export Plug-In . SVG Version: 6.00 Build 0)  -->
<!DOCTYPE svg PUBLIC "-//W3C//DTD SVG 1.1//EN" "http://www.w3.org/Graphics/SVG/1.1/DTD/svg11.dtd">
<svg version="1.1" id="Layer_1" xmlns="http://www.w3.org/2000/svg" xmlns:xlink="http://www.w3.org/1999/xlink" x="0px" y="0px"
	 width="105px" height="65px" viewBox="0 0 105 65" enable-background="new 0 0 105 65" xml:space="preserve">
<g>
	<defs>
		<rect id="SVGID_1_" x="15.5" y="3.721" width="74" height="57.558"/>
	</defs>
	<clipPath id="SVGID_2_">
		<use xlink:href="#SVGID_1_"  overflow="visible"/>
	</clipPath>
	<g clip-path="url(#SVGID_2_)">
		<defs>
			<rect id="SVGID_3_" x="15.5" y="3.721" width="74" height="57.558"/>
		</defs>
		<clipPath id="SVGID_4_">
			<use xlink:href="#SVGID_3_"  overflow="visible"/>
		</clipPath>
		<g opacity="0.3" clip-path="url(#SVGID_4_)" enable-background="new    ">
			<g>
				<defs>
					<rect id="SVGID_5_" x="38.959" y="50.293" width="11.241" height="2.679"/>
				</defs>
				<clipPath id="SVGID_6_">
					<use xlink:href="#SVGID_5_"  overflow="visible"/>
				</clipPath>
				<rect x="38.959" y="50.293" clip-path="url(#SVGID_6_)" fill="#528AC8" width="11.241" height="2.679"/>
			</g>
		</g>
		
			<path clip-path="url(#SVGID_4_)" fill="none" stroke="#3D6CB4" stroke-width="0.5354" stroke-linecap="round" stroke-linejoin="round" stroke-miterlimit="10" d="
			M62.927,50.362H22.214c-3.546,0-6.447-2.902-6.447-6.447v-31.49c0-3.545,2.901-6.447,6.447-6.447h44.847
			c3.545,0,6.447,2.901,6.447,6.447V24.49"/>
		
			<path clip-path="url(#SVGID_4_)" fill="none" stroke="#3D6CB4" stroke-width="0.5354" stroke-linecap="round" stroke-linejoin="round" stroke-miterlimit="10" d="
			M62.927,41.127h-40.67c-1.905,0-3.463-1.558-3.463-3.463V12.607c0-1.904,1.558-3.463,3.463-3.463H67.02
			c1.905,0,3.464,1.558,3.464,3.463V24.21"/>
		<g opacity="0.3" clip-path="url(#SVGID_4_)" enable-background="new    ">
			<g>
				<defs>
					<rect id="SVGID_7_" x="18.793" y="9.144" width="51.689" height="4.563"/>
				</defs>
				<clipPath id="SVGID_8_">
					<use xlink:href="#SVGID_7_"  overflow="visible"/>
				</clipPath>
				<path clip-path="url(#SVGID_8_)" fill="#528AC8" d="M18.793,13.706v-1.099c0-1.904,1.558-3.463,3.463-3.463h44.762
					c1.906,0,3.464,1.558,3.464,3.463v1.1H18.793z"/>
			</g>
		</g>
		
			<path clip-path="url(#SVGID_4_)" fill="none" stroke="#3D6CB4" stroke-width="0.5354" stroke-linecap="round" stroke-linejoin="round" stroke-miterlimit="10" d="
			M18.793,13.706v-1.099c0-1.904,1.558-3.463,3.463-3.463h44.762c1.906,0,3.464,1.558,3.464,3.463v1.1H18.793z"/>
		<g opacity="0.3" clip-path="url(#SVGID_4_)" enable-background="new    ">
			<g>
				<defs>
					<rect id="SVGID_9_" x="42.708" y="43.947" width="3.859" height="3.86"/>
				</defs>
				<clipPath id="SVGID_10_">
					<use xlink:href="#SVGID_9_"  overflow="visible"/>
				</clipPath>
				<path clip-path="url(#SVGID_10_)" fill="#528AC8" d="M44.638,43.947c1.066,0,1.93,0.864,1.93,1.93
					c0,1.066-0.864,1.931-1.93,1.931s-1.93-0.864-1.93-1.931C42.708,44.812,43.572,43.947,44.638,43.947"/>
			</g>
		</g>
		
			<circle clip-path="url(#SVGID_4_)" fill="none" stroke="#3D6CB4" stroke-width="0.5354" stroke-linecap="round" stroke-linejoin="round" stroke-miterlimit="10" cx="44.638" cy="45.877" r="1.93"/>
		
			<path clip-path="url(#SVGID_4_)" fill="none" stroke="#3D6CB4" stroke-width="0.5354" stroke-linecap="round" stroke-linejoin="round" stroke-miterlimit="10" d="
			M50.282,50.499c0,0-1.019,6.59,3.999,6.59H44.246h0.627h-9.877c5.017,0,3.919-6.521,3.919-6.521"/>
		
			<rect x="22.672" y="17.136" clip-path="url(#SVGID_4_)" fill="none" stroke="#3D6CB4" stroke-width="0.5354" stroke-linecap="round" stroke-linejoin="round" stroke-miterlimit="10" width="19.249" height="7.192"/>
		
			<line clip-path="url(#SVGID_4_)" fill="none" stroke="#3D6CB4" stroke-width="0.5354" stroke-linecap="round" stroke-linejoin="round" stroke-miterlimit="10" x1="45.062" y1="18.008" x2="61.122" y2="18.008"/>
		
			<line clip-path="url(#SVGID_4_)" fill="none" stroke="#3D6CB4" stroke-width="0.5354" stroke-linecap="round" stroke-linejoin="round" stroke-miterlimit="10" x1="45.062" y1="21.22" x2="63.799" y2="21.22"/>
		
			<line clip-path="url(#SVGID_4_)" fill="none" stroke="#3D6CB4" stroke-width="0.5354" stroke-linecap="round" stroke-linejoin="round" stroke-miterlimit="10" x1="45.062" y1="23.361" x2="61.122" y2="23.361"/>
		<g opacity="0.3" clip-path="url(#SVGID_4_)" enable-background="new    ">
			<g>
				<defs>
					<rect id="SVGID_11_" x="22.672" y="28.295" width="9.625" height="9.624"/>
				</defs>
				<clipPath id="SVGID_12_">
					<use xlink:href="#SVGID_11_"  overflow="visible"/>
				</clipPath>
				<rect x="22.672" y="28.295" clip-path="url(#SVGID_12_)" fill="#528AC8" width="9.625" height="9.624"/>
			</g>
		</g>
		
			<rect x="22.672" y="28.295" clip-path="url(#SVGID_4_)" fill="none" stroke="#3D6CB4" stroke-width="0.5354" stroke-linecap="round" stroke-linejoin="round" stroke-miterlimit="10" width="9.625" height="9.624"/>
		
			<rect x="35.787" y="28.295" clip-path="url(#SVGID_4_)" fill="none" stroke="#3D6CB4" stroke-width="0.5354" stroke-linecap="round" stroke-linejoin="round" stroke-miterlimit="10" width="9.625" height="9.624"/>
		
			<rect x="48.901" y="28.295" clip-path="url(#SVGID_4_)" fill="none" stroke="#3D6CB4" stroke-width="0.5354" stroke-linecap="round" stroke-linejoin="round" stroke-miterlimit="10" width="9.624" height="9.624"/>
		
			<path clip-path="url(#SVGID_4_)" fill="none" stroke="#3D6CB4" stroke-width="0.5354" stroke-linecap="round" stroke-linejoin="round" stroke-miterlimit="10" d="
			M85.945,61.009H65.531c-1.42,0-2.582-1.16-2.582-2.58v-31.36c0-1.42,1.162-2.582,2.582-2.582h20.414
			c1.419,0,2.581,1.162,2.581,2.582v31.36C88.526,59.849,87.364,61.009,85.945,61.009z"/>
		
			<path clip-path="url(#SVGID_4_)" fill="none" stroke="#3D6CB4" stroke-width="0.5354" stroke-linecap="round" stroke-linejoin="round" stroke-miterlimit="10" d="
			M85.075,55.134H66.401c-0.918,0-1.665-0.746-1.665-1.665V28.235c0-0.919,0.746-1.665,1.665-1.665h18.674
			c0.919,0,1.665,0.745,1.665,1.665V53.47C86.739,54.389,85.994,55.134,85.075,55.134z"/>
		<g opacity="0.3" clip-path="url(#SVGID_4_)" enable-background="new    ">
			<g>
				<defs>
					<rect id="SVGID_13_" x="75.518" y="56.812" width="2.363" height="2.363"/>
				</defs>
				<clipPath id="SVGID_14_">
					<use xlink:href="#SVGID_13_"  overflow="visible"/>
				</clipPath>
				<path clip-path="url(#SVGID_14_)" fill="#528AC8" d="M76.699,56.812c0.651,0,1.182,0.529,1.182,1.182s-0.53,1.182-1.182,1.182
					c-0.652,0-1.182-0.529-1.182-1.182S76.047,56.812,76.699,56.812"/>
			</g>
		</g>
		
			<circle clip-path="url(#SVGID_4_)" fill="none" stroke="#3D6CB4" stroke-width="0.5354" stroke-linecap="round" stroke-linejoin="round" stroke-miterlimit="10" cx="76.699" cy="57.994" r="1.182"/>
		<g opacity="0.3" clip-path="url(#SVGID_4_)" enable-background="new    ">
			<g>
				<defs>
					<rect id="SVGID_15_" x="67.868" y="29.299" width="16.379" height="13.73"/>
				</defs>
				<clipPath id="SVGID_16_">
					<use xlink:href="#SVGID_15_"  overflow="visible"/>
				</clipPath>
				<rect x="67.868" y="29.299" clip-path="url(#SVGID_16_)" fill="#528AC8" width="16.379" height="13.73"/>
			</g>
		</g>
		
			<rect x="67.523" y="29.299" clip-path="url(#SVGID_4_)" fill="none" stroke="#3D6CB4" stroke-width="0.5354" stroke-linecap="round" stroke-linejoin="round" stroke-miterlimit="10" width="16.724" height="13.73"/>
		
			<line clip-path="url(#SVGID_4_)" fill="none" stroke="#3D6CB4" stroke-width="0.5354" stroke-linecap="round" stroke-linejoin="round" stroke-miterlimit="10" x1="68.082" y1="46.916" x2="80.93" y2="46.916"/>
		
			<line clip-path="url(#SVGID_4_)" fill="none" stroke="#3D6CB4" stroke-width="0.5354" stroke-linecap="round" stroke-linejoin="round" stroke-miterlimit="10" x1="68.082" y1="49.059" x2="78.789" y2="49.059"/>
		
			<line clip-path="url(#SVGID_4_)" fill="none" stroke="#3D6CB4" stroke-width="0.5354" stroke-linecap="round" stroke-linejoin="round" stroke-miterlimit="10" x1="81.025" y1="15.842" x2="81.025" y2="19.178"/>
		
			<line clip-path="url(#SVGID_4_)" fill="none" stroke="#3D6CB4" stroke-width="0.5354" stroke-linecap="round" stroke-linejoin="round" stroke-miterlimit="10" x1="82.694" y1="17.51" x2="79.358" y2="17.51"/>
		
			<line clip-path="url(#SVGID_4_)" fill="none" stroke="#3D6CB4" stroke-width="0.5354" stroke-linecap="round" stroke-linejoin="round" stroke-miterlimit="10" x1="86.446" y1="3.989" x2="86.446" y2="9.561"/>
		
			<line clip-path="url(#SVGID_4_)" fill="none" stroke="#3D6CB4" stroke-width="0.5354" stroke-linecap="round" stroke-linejoin="round" stroke-miterlimit="10" x1="89.231" y1="6.775" x2="83.661" y2="6.775"/>
	</g>
</g>
</svg>
