<?xml version="1.0" encoding="utf-8"?>
<!-- Generator: Adobe Illustrator 21.0.0, SVG Export Plug-In . SVG Version: 6.00 Build 0)  -->
<svg version="1.1"
	 id="svg2" inkscape:version="0.43" sodipodi:docbase="/home/sdeibel" sodipodi:docname="logo-python-inkscape.svg" sodipodi:version="0.32" xmlns:cc="http://web.resource.org/cc/" xmlns:dc="http://purl.org/dc/elements/1.1/" xmlns:inkscape="http://www.inkscape.org/namespaces/inkscape" xmlns:rdf="http://www.w3.org/1999/02/22-rdf-syntax-ns#" xmlns:sodipodi="http://inkscape.sourceforge.net/DTD/sodipodi-0.dtd" xmlns:svg="http://www.w3.org/2000/svg"
	 xmlns="http://www.w3.org/2000/svg" xmlns:xlink="http://www.w3.org/1999/xlink" x="0px" y="0px" viewBox="0 0 130 70"
	 style="enable-background:new 0 0 130 70;" xml:space="preserve">
<style type="text/css">
	.st0{enable-background:new    ;}
</style>
<sodipodi:namedview  bordercolor="#666666" borderopacity="1.0" gridtolerance="10.0" guidetolerance="10.0" height="40mm" id="base" inkscape:current-layer="svg2" inkscape:cx="250.73166" inkscape:cy="67.50975" inkscape:pageopacity="0.0" inkscape:pageshadow="2" inkscape:window-height="882" inkscape:window-width="1233" inkscape:window-x="0" inkscape:window-y="6" inkscape:zoom="2.1461642" objecttolerance="10.0" pagecolor="#ffffff" units="mm" width="210mm">
	</sodipodi:namedview>
<g class="st0">
	<path d="M54.1,20.1v29.8h-4.9L34.6,27.7v22.2h-4.9V20.1h4.9l14.6,22.1V20.1H54.1z"/>
	<path d="M65.4,20.2V46h10v3.9H60.5V20.2H65.4z"/>
	<path d="M89.8,37.8h-5.4v12.1h-4.9V20.2h10.3c7,0,10.5,4,10.5,8.9C100.3,33.3,97.5,37.8,89.8,37.8z M89.8,33.8
		c3.8,0,5.5-1.9,5.5-4.9c0-3.1-1.7-4.9-5.5-4.9h-5.4v9.7H89.8z"/>
</g>
</svg>
