<?xml version="1.0" encoding="utf-8"?>
<!-- Generator: Adobe Illustrator 21.0.2, SVG Export Plug-In . SVG Version: 6.00 Build 0)  -->
<svg version="1.1"
	 id="svg2" inkscape:version="0.43" sodipodi:docbase="/home/sdeibel" sodipodi:docname="logo-python-inkscape.svg" sodipodi:version="0.32" xmlns:cc="http://web.resource.org/cc/" xmlns:dc="http://purl.org/dc/elements/1.1/" xmlns:inkscape="http://www.inkscape.org/namespaces/inkscape" xmlns:rdf="http://www.w3.org/1999/02/22-rdf-syntax-ns#" xmlns:sodipodi="http://inkscape.sourceforge.net/DTD/sodipodi-0.dtd" xmlns:svg="http://www.w3.org/2000/svg"
	 xmlns="http://www.w3.org/2000/svg" xmlns:xlink="http://www.w3.org/1999/xlink" x="0px" y="0px" width="669px" height="146px"
	 viewBox="0 0 669 146" style="enable-background:new 0 0 669 146;" xml:space="preserve">
<style type="text/css">
	.st0{fill:#646464;}
	.st1{fill:url(#path1948_1_);}
	.st2{fill:url(#path1950_1_);}
	.st3{opacity:0.4438;fill:url(#path1894_1_);enable-background:new    ;}
	.st4{font-family:'Poppins-Medium';}
	.st5{font-size:150px;}
</style>
<sodipodi:namedview  bordercolor="#666666" borderopacity="1.0" gridtolerance="10.0" guidetolerance="10.0" height="40mm" id="base" inkscape:current-layer="svg2" inkscape:cx="250.73166" inkscape:cy="67.50975" inkscape:pageopacity="0.0" inkscape:pageshadow="2" inkscape:window-height="882" inkscape:window-width="1233" inkscape:window-x="0" inkscape:window-y="6" inkscape:zoom="2.1461642" objecttolerance="10.0" pagecolor="#ffffff" units="mm" width="210mm">
	</sodipodi:namedview>
<g>
	<path id="path46" class="st0" d="M455.7,76c0-9.6-2.7-14.5-8.2-14.7c-2.2-0.1-4.3,0.2-6.4,1c-1.6,0.6-2.8,1.2-3.3,1.8v22.8
		c3.5,2.2,6.6,3.2,9.3,3C452.8,89.6,455.7,84.9,455.7,76z M462.4,76.4c0,4.9-1.1,8.9-3.4,12.1c-2.6,3.6-6.1,5.5-10.6,5.6
		c-3.4,0.1-6.9-1-10.5-3.2v20.7l-5.9-2.1V63.5c1-1.2,2.2-2.2,3.7-3c3.5-2,7.7-3.1,12.7-3.1l0.1,0.1c4.6-0.1,8.1,1.8,10.5,5.6
		C461.2,66.5,462.4,71,462.4,76.4z"/>
	<path id="path48" class="st0" d="M498.1,90c0,6.5-0.7,11-2,13.5c-1.3,2.5-3.8,4.5-7.5,6c-3,1.2-6.2,1.8-9.7,1.9l-1-3.7
		c3.5-0.5,6-1,7.5-1.4c2.8-1,4.8-2.4,5.9-4.4c0.9-1.6,1.3-4.7,1.3-9.2v-1.5c-4,1.8-8.2,2.7-12.6,2.7c-2.9,0-5.4-0.9-7.6-2.7
		c-2.5-2-3.7-4.5-3.7-7.5V59.4l5.9-2v24.5c0,2.6,0.8,4.6,2.5,6c1.7,1.4,3.9,2.1,6.6,2c2.7-0.1,5.6-1.1,8.6-3.1V58.2h5.9V90z"/>
	<path id="path50" class="st0" d="M521,93.8c-0.7,0.1-1.3,0.1-1.9,0.1c-3.3,0-5.9-0.8-7.7-2.4c-1.8-1.6-2.8-3.8-2.8-6.5v-23h-4v-3.7
		h4v-9.8l5.8-2.1v11.9h6.6v3.7h-6.6v22.9c0,2.2,0.6,3.8,1.8,4.7c1,0.7,2.6,1.2,4.8,1.3V93.8z"/>
	<path id="path52" class="st0" d="M556.4,93.3h-5.9V70.7c0-2.3-0.5-4.3-1.6-5.9c-1.2-1.9-3-2.8-5.2-2.8c-2.7,0-6,1.4-10.1,4.2v27.1
		h-5.9v-54l5.9-1.8v24.6c3.7-2.7,7.8-4.1,12.3-4.1c3.1,0,5.6,1,7.5,3.1c1.9,2.1,2.9,4.7,2.9,7.8V93.3L556.4,93.3z"/>
	<path id="path54" class="st0" d="M587.5,75.1c0-3.7-0.7-6.7-2.1-9.1c-1.7-2.9-4.2-4.5-7.7-4.6c-6.4,0.4-9.6,5-9.6,13.8
		c0,4,0.7,7.4,2,10.1c1.7,3.5,4.3,5.2,7.7,5.1C584.3,90.3,587.5,85.2,587.5,75.1z M593.9,75.1c0,5.2-1.3,9.6-4,13.1
		c-2.9,3.9-7,5.8-12.2,5.8c-5.1,0-9.1-2-12-5.8c-2.6-3.5-3.9-7.8-3.9-13.1c0-4.9,1.4-9.1,4.2-12.4c3-3.6,6.9-5.4,11.8-5.4
		c4.9,0,8.8,1.8,11.9,5.4C592.5,66.1,593.9,70.2,593.9,75.1z"/>
	<path id="path56" class="st0" d="M627.5,93.3h-5.9V69.4c0-2.6-0.8-4.7-2.4-6.1c-1.6-1.5-3.7-2.2-6.3-2.1c-2.8,0.1-5.4,1-7.9,2.7
		v29.4h-5.9V63.2c3.4-2.5,6.5-4.1,9.3-4.8c2.7-0.7,5-1,7.1-1c1.4,0,2.7,0.1,3.9,0.4c2.3,0.5,4.2,1.5,5.6,3c1.6,1.6,2.4,3.5,2.4,5.8
		V93.3z"/>
	
		<linearGradient id="path1948_1_" gradientUnits="userSpaceOnUse" x1="1444.2618" y1="-604.3727" x2="1515.8628" y2="-665.9756" gradientTransform="matrix(0.5625 0 0 -0.568 -476.1685 -301.6202)">
		<stop  offset="0" style="stop-color:#5A9FD4"/>
		<stop  offset="1" style="stop-color:#306998"/>
	</linearGradient>
	<path id="path1948" class="st1" d="M374.1,39.5c-3,0-5.9,0.3-8.4,0.7c-7.5,1.3-8.8,4.1-8.8,9.2v6.7h17.6v2.2h-17.6h-6.6
		c-5.1,0-9.6,3.1-11,8.9c-1.6,6.7-1.7,10.9,0,17.9c1.3,5.2,4.2,8.9,9.4,8.9h6.1v-8c0-5.8,5-10.9,11-10.9h17.6c4.9,0,8.8-4,8.8-8.9
		V49.4c0-4.8-4-8.4-8.8-9.2C380.3,39.8,377.2,39.5,374.1,39.5z M364.6,44.9c1.8,0,3.3,1.5,3.3,3.4c0,1.8-1.5,3.3-3.3,3.3
		c-1.8,0-3.3-1.5-3.3-3.3C361.3,46.5,362.8,44.9,364.6,44.9z"/>
	
		<linearGradient id="path1950_1_" gradientUnits="userSpaceOnUse" x1="1543.5441" y1="-703.2603" x2="1517.9755" y2="-667.0851" gradientTransform="matrix(0.5625 0 0 -0.568 -476.1685 -301.6202)">
		<stop  offset="0" style="stop-color:#FFD43B"/>
		<stop  offset="1" style="stop-color:#FFE873"/>
	</linearGradient>
	<path id="path1950" class="st2" d="M394.3,58.4v7.8c0,6.1-5.1,11.2-11,11.2h-17.6c-4.8,0-8.8,4.1-8.8,8.9v16.8
		c0,4.8,4.1,7.6,8.8,8.9c5.6,1.6,10.9,1.9,17.6,0c4.4-1.3,8.8-3.9,8.8-8.9v-6.7h-17.6v-2.2h17.6h8.8c5.1,0,7-3.6,8.8-8.9
		c1.8-5.5,1.8-10.8,0-17.9c-1.3-5.1-3.7-8.9-8.8-8.9H394.3z M384.4,100.8c1.8,0,3.3,1.5,3.3,3.3c0,1.9-1.5,3.4-3.3,3.4
		c-1.8,0-3.3-1.5-3.3-3.4C381.1,102.3,382.6,100.8,384.4,100.8z"/>
	<path id="text3004" sodipodi:nodetypes="ccccccccccccccccccccccc" class="st0" d="M638.9,53h1v-6.4h2.4v-0.8h-5.9v0.8h2.4V53
		 M643.2,53h0.9v-5.9L646,53h1l2-5.9V53h1v-7.2h-1.3l-2.2,6.2l-1.8-6.2h-1.4V53"/>
	
		<radialGradient id="path1894_1_" cx="-4465.9087" cy="-482.0682" r="19.0712" gradientTransform="matrix(1.749057e-08 -0.2399 -1.0547 -3.791546e-07 -133.6828 -948.1639)" gradientUnits="userSpaceOnUse">
		<stop  offset="0" style="stop-color:#B8B8B8;stop-opacity:0.498"/>
		<stop  offset="1" style="stop-color:#7F7F7F;stop-opacity:0"/>
	</radialGradient>
	
		<path id="path1894" sodipodi:cx="61.518883" sodipodi:cy="132.28575" sodipodi:rx="48.948284" sodipodi:ry="8.6066771" sodipodi:type="arc" class="st3" d="
		M398.3,123.4c0,2.5-10.6,4.6-23.6,4.6c-13,0-23.6-2-23.6-4.6s10.6-4.6,23.6-4.6C387.8,118.8,398.3,120.9,398.3,123.4z"/>
</g>
<text transform="matrix(1 0 0 1 36.9105 126.4171)" class="st4 st5">NLP</text>
</svg>
