<?xml version="1.0" encoding="utf-8"?>
<!-- Generator: Adobe Illustrator 21.0.0, SVG Export Plug-In . SVG Version: 6.00 Build 0)  -->
<svg version="1.1" id="Layer_1" xmlns="http://www.w3.org/2000/svg" xmlns:xlink="http://www.w3.org/1999/xlink" x="0px" y="0px"
	 width="227px" height="134px" viewBox="0 0 227 134" style="enable-background:new 0 0 227 134;" xml:space="preserve">
<style type="text/css">
	.st0{fill:#F37D3C;}
	.st1{fill:#177BB2;}
	.st2{fill:#BDD63C;}
	.st3{fill:#282425;}
	.st4{fill:#272324;}
	.st5{fill:#187CB3;}
	.st6{fill:#BED63D;}
	.st7{fill:#F37E3D;}
	.st8{fill:#2C2829;}
	.st9{fill:#2A2627;}
	.st10{fill:#2F2C2D;}
	.st11{fill:#FCFCFC;}
	.st12{fill:#F7F7F7;}
</style>
<g>
	<path class="st0" d="M3.9,33.6c2.5-0.7,4.8-1.6,7.3-2.1c6.6-1.5,13.2-1.9,19.9-1.3c0.7,0.1,0.8,0.3,0.6,0.9c-2.1,6.6-3,13.3-3,20.2
		c0,0.6-0.2,0.8-0.7,1c-6.5,2.3-12.7,5.1-18.4,9.1c-0.6,0.4-0.7,0-0.8-0.4c-1.8-4.4-3.1-8.8-4-13.4c-0.3-1.9-0.6-3.8-0.8-5.8
		c0-0.2,0-0.4-0.2-0.5C3.9,38.7,3.9,36.2,3.9,33.6z"/>
	<path class="st1" d="M77.5,19c-2.7,1.4-5.3,3-7.8,4.7c-3.3,2.3-6.3,4.9-9.2,7.8C60,32,59.7,32,59,31.7c-6.1-2.9-12.5-5.3-19.1-6.5
		c-0.6-0.1-0.7-0.3-0.5-0.8C43,16,47.8,8.5,54.6,2.2c0.5-0.5,0.9-0.6,1.6-0.3c8.3,4,15.3,9.7,21.2,16.8C77.4,18.8,77.4,18.9,77.5,19
		z"/>
	<path class="st2" d="M117.9,36.6c0,2,0,3.9-0.2,5.9c-0.1,0.6-0.2,0.7-0.8,0.5c-6.3-1.9-12.6-2.9-19.2-3c-1.9,0-1.9-0.1-2.6-1.9
		c-2.2-6-4.9-11.8-8.5-17.1c-0.4-0.5-0.3-0.8,0.3-1c5.9-2.4,12.1-4.1,18.4-4.7c2.7-0.3,5.4-0.4,8.1-0.2c0.6,0,0.8,0.3,1,0.8
		c1.8,4.8,2.8,9.8,3.3,14.9C117.8,32.8,117.9,34.7,117.9,36.6z"/>
	<path class="st1" d="M34.1,48.7c0.4-5.6,1.2-11.4,2.8-17.1c0.4-1.3,0.4-1.3,1.7-1.1c5.8,1,11.3,3.1,16.7,5.6
		c0.6,0.3,0.5,0.5,0.2,0.9c-2.8,3.3-5.2,6.9-7.2,10.7c-0.3,0.5-0.6,0.6-1.1,0.6c-4.2,0.2-8.4,0.6-12.6,1.6C34,50,34,49.9,34.1,48.7z
		"/>
	<path class="st0" d="M23.1,82.9c-3.3-3.6-6.1-7.4-8.7-11.4c-0.9-1.3-1.7-2.7-2.4-4.1c-0.3-0.6-0.3-0.8,0.3-1.2
		c2.8-2,5.7-3.6,8.7-5.1c2.3-1.1,4.6-2.1,7-2.9c1.1-0.4,1.1-0.4,1.3,0.8c0.4,3.8,1,7.5,2.1,11.2c0.4,1.3,0.2,2.1-0.7,3.1
		c-2.6,2.7-4.9,5.8-7,9C23.5,82.4,23.3,82.6,23.1,82.9z"/>
	<path class="st2" d="M90,40c0,0.4-0.3,0.3-0.6,0.3c-3.1,0.3-6.2,0.8-9.2,1.5c-1.2,0.3-2.4,0.6-3.6,1c-0.4,0.1-0.7,0.1-1-0.2
		c-3.1-2.9-6.4-5.6-10-7.8c-0.5-0.3-0.5-0.6-0.1-1c4.6-4,9.5-7.7,14.9-10.7c0.7-0.4,1-0.1,1.4,0.4c2.6,3.5,4.5,7.3,6.2,11.3
		c0.7,1.6,1.3,3.1,1.9,4.7C89.9,39.7,90,39.9,90,40z"/>
	<path class="st3" d="M82.4,82c0,4,0,7.9,0,11.9c0,0.7-0.2,0.9-0.9,0.9c-2.2,0-2.2,0-2.2-2.2c0-5.6,0-11.2,0-16.7c0-0.8,0.2-0.9,1-1
		c1.6-0.2,2.4,0.4,3.1,1.9c1.3,3.2,2.9,6.4,4.5,9.6c0.1,0.2,0.2,0.4,0.4,0.7c0.4-0.9,0.8-1.7,1.1-2.4c1.4-3,2.8-6,4.1-9
		c0.3-0.6,0.5-0.8,1.2-0.8c2.2,0,2.2,0,2.2,2.2c0,5.6,0,11.2,0,16.7c0,0.7-0.1,1-1,1c-2.1-0.1-2.1,0-2.1-2.1c0-3.5,0-7-0.2-10.6
		c-0.3,0.5-0.6,1.1-0.8,1.6c-1.1,2.3-2.2,4.5-3.2,6.8c-0.2,0.5-0.5,0.8-1.1,0.7c-0.6-0.1-1.4,0.3-1.9-0.6
		C85.3,87.7,83.8,84.9,82.4,82C82.5,82,82.4,82,82.4,82z"/>
	<path class="st4" d="M62.3,80.9c0,4.5,0,8.6,0,12.8c0,0.8-0.2,1.1-1,1c-2-0.1-2,0-2-2c0-5.7,0-11.3,0-16.9c0-0.7,0.2-0.9,0.9-1
		c1.5-0.2,2.2,0.4,3,1.6c2.4,3.9,5,7.6,7.5,11.5c0.2,0.2,0.3,0.4,0.6,0.8c0-0.6,0-1,0-1.3c0-3.9,0-7.7,0-11.6c0-0.6,0.1-1,0.8-1
		c2.2,0,2.2,0,2.2,2.3c0,5.6,0,11.2,0,16.8c0,0.6-0.2,0.8-0.8,0.8c-1.5,0.2-2.3-0.4-3.1-1.6c-2.4-3.9-5.1-7.8-7.6-11.7
		C62.6,81.3,62.5,81.2,62.3,80.9z"/>
	<path class="st5" d="M43.3,83.1C37.7,74.9,35,66,34.2,56.4c0-0.5-0.2-0.9,0.6-1.1c3.2-0.7,6.4-1.3,9.7-1.6c0.8-0.1,1,0,0.6,0.8
		c-2.4,6.4-3.6,12.9-3.1,19.8c0.2,2.5,0.6,5,1.2,7.4C43.4,82.1,43.4,82.5,43.3,83.1z"/>
	<path class="st6" d="M48.3,64.6c0.5-3.8,1.6-7.4,3.1-11c2.3-5.3,5.4-10.1,9.1-14.6c0.5-0.6,0.8-0.8,1.6-0.3
		c2.6,1.7,5.2,3.5,7.6,5.5c0.8,0.7,0.9,0.7-0.2,1.2c-8.1,3.7-14.9,9.1-19.7,16.7C49.2,63,48.7,63.8,48.3,64.6z"/>
	<path class="st7" d="M33.8,77.4c4.2,9.5,10.4,17.2,19.5,22.2c-1.9-0.1-3.7-0.6-5.5-1.1c-7.5-2.3-14.1-6.2-20.1-11.3
		c-0.3-0.3-0.6-0.5-0.3-1C29.3,83.2,31.4,80.2,33.8,77.4z"/>
	<path class="st4" d="M118.4,84.7c0-3,0-6.1,0-9.1c0-0.6,0.2-0.8,0.8-0.8c1.9,0,3.8,0,5.7,0c4.8,0,7.1,2.1,7.5,6.9
		c0.2,2.6,0.3,5.2-0.2,7.7c-0.6,3.1-2.8,5.1-5.9,5.2c-2.4,0.1-4.9,0-7.4,0.1c-0.6,0-0.5-0.4-0.5-0.7
		C118.4,90.9,118.4,87.8,118.4,84.7z M121.5,84.7c0,2.2,0,4.4,0,6.6c0,0.5,0.2,0.7,0.7,0.7c1,0,2.1,0,3.2,0c2.3-0.1,3.7-1.3,4-3.6
		c0.3-2.4,0.3-4.9,0-7.3c-0.3-2.1-1.6-3.4-3.8-3.5c-1.1-0.1-2.2,0-3.3,0c-0.6,0-0.8,0.2-0.8,0.7C121.5,80.5,121.5,82.6,121.5,84.7z"
		/>
	<path class="st3" d="M107.2,94.9c-2.6,0-4.7-0.5-6.6-2.1c-0.4-0.3-0.5-0.6,0-1s0.9-1.1,1.5-1.3s1,0.6,1.5,0.9
		c1.8,0.9,3.7,1.1,5.6,0.5c1.5-0.4,2.2-1.5,2.1-3.1c-0.1-1.3-0.8-2.1-2.4-2.4c-1.1-0.2-2.1-0.3-3.2-0.5c-3.1-0.5-4.8-2.3-4.9-5.2
		c-0.1-2.9,1.6-5.2,4.5-5.8c2.8-0.6,5.4-0.3,7.7,1.5c0.5,0.4,0.5,0.7,0,1.1c-0.1,0-0.2,0.2-0.2,0.2c-0.4,0.3-0.7,0.9-1.1,1
		c-0.5,0.2-0.8-0.5-1.3-0.7c-1.4-0.7-2.9-0.8-4.4-0.5c-1.4,0.3-2.3,1.5-2.4,2.9c0,1.3,0.6,2.2,2.2,2.6c1.1,0.3,2.3,0.4,3.4,0.6
		c3.1,0.5,4.8,2.2,5,5c0.2,2.9-1.4,5.1-4.3,6C109.1,94.8,108.1,94.9,107.2,94.9z"/>
	<path class="st3" d="M139.2,84.8c0.1,1.3,0,2.6,0.2,3.9c0.3,1.9,1.6,3.2,3.4,3.4c1.9,0.2,3.6-0.7,4.2-2.5c0.3-0.8,0.7-1,1.5-0.9
		c0.1,0,0.3,0,0.4,0c1.8,0,1.8,0,1.1,1.7c-1.2,3.2-4,4.8-7.6,4.4c-3.2-0.3-5.7-2.6-6-5.9c-0.3-2.8-0.3-5.7,0-8.5
		c0.4-3.2,3.2-5.7,6.5-5.7c3.9-0.1,6.8,2,7.4,5.5c0.1,0.5,0,0.7-0.5,0.6c-0.2,0-0.5,0-0.6,0c-1.1,0.1-1.9,0-2.3-1.3
		c-0.6-1.6-2.4-2.3-4.1-2.1c-1.7,0.3-2.9,1.5-3.2,3.2C139.2,82.1,139.3,83.4,139.2,84.8z"/>
	<path class="st8" d="M117.4,106.7c0,1.8,0,3.6,0,5.3c0,0.7-0.3,0.7-0.8,0.8c-0.6,0-0.8-0.2-0.7-0.8c0-2.8,0-5.6,0-8.4
		c0-0.3-0.3-0.8,0.3-0.8c0.5,0,1.1-0.3,1.4,0.4c0.7,1.6,1.5,3.1,2.2,4.7c0.1,0.3,0.3,0.5,0.5,1c0.9-1.9,1.8-3.7,2.5-5.5
		c0.4-0.9,1-0.6,1.6-0.6c0.3,0,0.2,0.3,0.2,0.5c0,2.9,0,5.9,0,8.8c0,0.6-0.3,0.6-0.8,0.6s-0.8,0-0.8-0.6c0-1.8,0-3.6-0.2-5.4
		c-0.6,1.2-1.1,2.4-1.7,3.6c-0.2,0.3-0.3,0.6-0.8,0.6s-0.8-0.2-1-0.6C118.7,109.1,118.1,107.8,117.4,106.7
		C117.6,106.7,117.5,106.7,117.4,106.7z"/>
	<path class="st9" d="M60.6,105.9c0,2.2,0,4.1,0,6c0,0.6-0.1,0.8-0.8,0.8c-0.6,0-0.8-0.2-0.8-0.8c0-2.8,0-5.5,0-8.2
		c0-0.3-0.3-0.9,0.3-1c0.5-0.1,1-0.2,1.4,0.4c1.2,1.9,2.4,3.7,3.7,5.6c0.1,0.2,0.3,0.3,0.5,0.8c0-1.7,0-3.2,0-4.7c0-0.4,0-0.8,0-1.3
		s0-1,0.8-1s0.8,0.4,0.8,1c0,2.6,0,5.3,0,7.9c0,0.3,0.3,0.9-0.3,1c-0.6,0.1-1.1,0.1-1.5-0.6c-1.1-1.9-2.4-3.7-3.6-5.5
		C61,106.4,60.9,106.2,60.6,105.9z"/>
	<path class="st8" d="M109,125.8c0-0.9,0-1.8,0-2.7c0-0.8,0.7-1.3,1.3-0.8c0.4,0.3,0.5,0.2,0.8,0.1c1-0.4,2-0.4,2.9,0.4
		c0.3,0.3,0.4,0.2,0.7,0c1-0.8,2.1-0.8,3.1-0.3c1.1,0.5,1.3,1.5,1.3,2.6s0,2.3,0,3.4c0,0.5,0,0.9-0.7,0.9c-0.6,0-0.8-0.2-0.8-0.8
		c0-1.1,0-2.3,0-3.4s-0.5-1.6-1.3-1.6c-0.9,0-1.5,0.5-1.5,1.6c0,1.2,0,2.4,0,3.6c0,0.6-0.3,0.6-0.8,0.6s-0.8,0-0.7-0.6
		c0-1.1,0-2.2,0-3.4c0-1.3-0.5-1.9-1.4-1.9c-1,0-1.4,0.6-1.4,1.8c0,1.1,0,2.3,0,3.4c0,0.7-0.3,0.6-0.8,0.7c-0.5,0-0.7-0.1-0.7-0.7
		C109.1,127.8,109,126.8,109,125.8z"/>
	<path class="st9" d="M59.1,124.4c0-1.5,0-2.9,0-4.3c0-0.3-0.1-0.7,0.5-0.6c1.3,0,2.6-0.1,3.9,0.1c1.5,0.3,2.3,1.1,2.6,2.6
		c0.3,1.6,0.3,3.2,0,4.8c-0.3,1.3-1.3,2.3-2.6,2.4c-1.3,0.1-2.6,0-3.8,0.1c-0.5,0-0.5-0.3-0.5-0.6c0-0.7,0-1.5,0-2.2
		C59.1,125.8,59.1,125.1,59.1,124.4z M64.6,124.4c0-0.7,0-1.4-0.2-2.1c-0.2-0.8-0.7-1.3-1.5-1.4c-0.6-0.1-1.3,0-1.9-0.1
		c-0.3,0-0.5,0.2-0.5,0.5c0,2.1,0,4.1,0,6.2c0,0.3,0.1,0.5,0.5,0.5c2.6,0.3,3.5-0.5,3.5-3.2C64.6,124.7,64.6,124.5,64.6,124.4z"/>
	<path class="st8" d="M173.8,112.8c-1.3,0-2.3-0.2-3.1-0.9c-0.2-0.2-0.7-0.3-0.2-0.7c0.3-0.2,0.5-1,1.1-0.5c0.8,0.6,1.8,0.7,2.7,0.6
		s1.5-0.6,1.5-1.5s-0.6-1.3-1.4-1.4c-0.5-0.1-1.1-0.1-1.6-0.2c-1.4-0.3-2.1-1.1-2.2-2.4c-0.1-1.5,0.5-2.5,1.9-2.9
		c1.4-0.5,2.8-0.3,4,0.5c0.2,0.1,0.7,0.3,0.3,0.6c-0.3,0.2-0.4,1-1.1,0.5c-0.6-0.5-1.4-0.6-2.2-0.5s-1.4,0.6-1.4,1.4
		s0.5,1.2,1.2,1.4c0.5,0.1,1,0.2,1.5,0.3c1.6,0.3,2.5,1.1,2.5,2.6s-0.8,2.6-2.3,2.9C174.6,112.8,174.1,112.8,173.8,112.8z"/>
	<path class="st9" d="M196.4,112.2c0,1,0,1.9,0,2.8c0,0.7-0.4,0.5-0.8,0.6c-0.5,0-0.7,0-0.7-0.6c0-2.9,0-5.8,0-8.7
		c0-0.2-0.1-0.6,0.2-0.6c0.4,0,0.9-0.2,1.1,0.2c0.2,0.3,0.2,0.3,0.5,0.2c2-1.1,3.7-0.1,3.9,2.1c0,0.6,0,1.1,0,1.7
		C200.6,112.5,198.9,113.5,196.4,112.2z M199.3,109c0-0.3,0-0.8-0.2-1.2c-0.2-0.6-0.5-0.9-1.1-1c-0.6,0-1.1,0.2-1.4,0.8
		c-0.3,1-0.3,2,0,3c0.2,0.5,0.6,0.8,1.2,0.8c0.6,0,1-0.2,1.3-0.8C199.3,110.2,199.2,109.6,199.3,109z"/>
	<path class="st9" d="M102.8,128.9c0,1,0,1.8,0,2.6c0,0.6-0.2,0.7-0.8,0.7c-0.5,0-0.7-0.1-0.7-0.7c0-2.9,0-5.7,0-8.6
		c0-0.2-0.1-0.6,0.2-0.6c0.4,0,1-0.3,1.1,0.2c0.2,0.4,0.3,0.2,0.5,0.1c1.9-1,3.6-0.2,3.9,1.9c0.2,0.9,0.2,1.8,0,2.8
		c-0.3,2-2,2.8-3.8,1.8C103.1,129.1,103,129,102.8,128.9z M105.7,125.7c0-0.4,0-0.9-0.2-1.4c-0.2-0.6-0.6-0.8-1.3-0.8
		c-0.6,0-1.1,0.3-1.3,0.8c-0.3,1-0.3,1.9,0,2.9c0.2,0.6,0.6,0.8,1.3,0.8c0.6,0,1-0.3,1.2-0.9C105.7,126.8,105.6,126.3,105.7,125.7z"
		/>
	<path class="st8" d="M188.7,112.2c0,1,0,1.9,0,2.8c0,0.6-0.2,0.6-0.7,0.6c-0.4,0-0.8,0.2-0.8-0.6c0-2.9,0-5.8,0-8.8
		c0-0.6,0.8-0.9,1.4-0.5c0.2,0.2,0.2,0.3,0.5,0.2c2.1-1,3.7,0,3.9,2.3c0,0.6,0,1.2,0,1.8C192.8,112.5,191,113.5,188.7,112.2z
		 M188.6,109.1c0,0.5,0,0.8,0.1,1.2c0.2,0.7,0.6,1.2,1.4,1.2c0.7,0,1.1-0.5,1.3-1.2c0.2-0.8,0.2-1.6,0-2.4c-0.2-0.7-0.6-1.1-1.3-1.1
		c-0.8,0-1.2,0.3-1.4,1.1C188.7,108.3,188.7,108.8,188.6,109.1z"/>
	<path class="st8" d="M144.8,124.4c0-0.6,0-1.4,0.1-2.1c0.2-1.5,1.4-2.7,2.9-2.8c1.8-0.2,3.2,0.6,3.9,2.1c0.1,0.3,0.5,0.8,0,0.9
		c-0.4,0.1-1.1,0.4-1.4-0.3c-0.2-0.4-0.4-0.7-0.7-1c-1.1-0.8-2.8-0.2-3,1.1c-0.3,1.4-0.3,2.9,0,4.3c0.2,0.8,0.7,1.4,1.5,1.5
		c0.9,0.2,1.6-0.2,2.1-1c0.2-0.3,0.1-0.7,0.6-0.6c0.4,0,0.9-0.1,1.1,0.1c0.3,0.3,0,0.7-0.2,1c-0.7,1.4-2.1,2.1-3.7,1.9
		s-2.8-1.3-3-2.9C144.8,125.8,144.8,125.1,144.8,124.4z"/>
	<path class="st10" d="M105.7,110.1c0,0.6,0,1.2,0,1.8c0,0.3,0.2,0.6-0.2,0.8c-0.4,0.1-1,0.2-1.2,0c-0.3-0.5-0.5-0.2-0.7-0.1
		c-1.7,0.8-3.6,0-3.7-1.7c-0.1-1.1,0.5-2,1.6-2.2c0.6-0.1,1.1,0,1.7-0.2c0.3,0,0.8,0.3,0.9-0.3c0.1-0.5-0.1-1-0.6-1.3
		c-0.7-0.3-1.4-0.3-2,0.2s-0.8-0.1-1.1-0.3c-0.5-0.5,0.2-0.6,0.3-0.8c0.9-0.7,3.1-0.6,4,0c0.6,0.5,0.8,1.1,0.9,1.8
		C105.7,108.6,105.7,109.3,105.7,110.1z M103.1,109.6c-0.3,0-0.6,0-0.9,0c-0.5,0.1-0.9,0.4-0.8,1c0,0.6,0.4,0.8,0.9,0.9
		c0.3,0,0.5,0,0.8,0c0.8-0.1,1.2-0.6,1.2-1.4C104.2,109.1,103.4,109.8,103.1,109.6z"/>
	<path class="st8" d="M74.2,110c0,0.6,0,1.2,0,1.8c0,0.9-0.6,1.3-1.3,0.8c-0.5-0.4-0.6-0.1-1,0c-1.4,0.5-3,0-3.4-1.2
		c-0.5-1.3,0.2-2.6,1.6-2.8c0.5-0.1,1.1,0,1.6-0.1c0.3,0,0.8,0.3,1-0.3c0.1-0.6-0.1-1.1-0.7-1.3c-0.7-0.2-1.4-0.3-1.9,0.2
		c-0.6,0.5-0.8,0-1.1-0.3c-0.4-0.5,0.2-0.6,0.4-0.8c0.9-0.6,3-0.6,3.9,0c0.6,0.4,0.9,1,0.9,1.8C74.2,108.5,74.2,109.3,74.2,110z
		 M71.2,111.6c0.2,0,0.3,0,0.5,0c0.8-0.2,1.1-0.7,1-1.5c0-0.8-0.7-0.3-1.1-0.5c-0.2,0-0.3,0-0.5,0c-0.7,0-1.3,0.2-1.3,1.1
		C70,111.5,70.6,111.6,71.2,111.6z"/>
	<path class="st8" d="M92.5,109.1c0-0.9,0-1.8,0-2.8c0-0.3-0.2-0.6,0.2-0.7c0.3-0.1,1-0.1,1.1,0.1c0.2,0.5,0.4,0.3,0.7,0.2
		c2-0.9,3.7,0.2,3.7,2.4c0,1.3,0,2.5,0,3.7c0,0.6-0.2,0.8-0.8,0.8c-0.7,0-0.7-0.3-0.7-0.9c0-1.1,0-2.3,0-3.4c0-1-0.5-1.6-1.4-1.6
		s-1.4,0.5-1.4,1.6c0,1.2,0,2.4,0,3.6c0,0.7-0.3,0.6-0.8,0.7c-0.6,0-0.7-0.2-0.6-0.7C92.6,111.1,92.5,110.1,92.5,109.1z"/>
	<path class="st10" d="M214.2,109.6c-0.5,0-1,0-1.5,0c-0.9-0.1-0.8,0.4-0.6,0.9c0.4,1,1.7,1.4,2.8,0.7c0.7-0.5,1-0.1,1.3,0.3
		c0.3,0.5-0.3,0.6-0.6,0.8c-2.2,1.4-4.9,0.1-5-2.5c0-0.5,0-1.1,0-1.6c0.3-1.9,1.7-2.9,3.6-2.6c1.5,0.2,2.7,1.9,2.4,3.6
		c0,0.3-0.2,0.4-0.5,0.4C215.4,109.6,214.7,109.6,214.2,109.6z M213.5,108.5c0.2,0,0.3,0,0.5,0c0.3-0.1,0.9,0.2,1-0.2
		c0.2-0.5-0.2-1-0.6-1.3c-0.7-0.4-1.3-0.3-1.9,0.2c-0.3,0.3-0.5,0.7-0.4,1.1s0.6,0.2,0.9,0.2C213.1,108.6,213.3,108.5,213.5,108.5z"
		/>
	<path class="st8" d="M184.9,109.2c0,0.9,0,1.8,0,2.7c0,0.3,0.2,0.7-0.2,0.8c-0.4,0.1-1,0.2-1.1-0.1c-0.3-0.5-0.4-0.2-0.6-0.1
		c-2,0.9-3.7-0.1-3.7-2.3c-0.1-1.3,0-2.7,0-4c0-0.6,0.4-0.6,0.8-0.6c0.5,0,0.8,0.1,0.7,0.7c0,1.2,0,2.4,0,3.6c0,1.1,0.5,1.7,1.4,1.7
		s1.4-0.6,1.4-1.7c0-1.2,0-2.4,0-3.6c0-0.6,0.2-0.7,0.7-0.6c0.5,0,0.8,0,0.8,0.6C184.9,107.2,184.9,108.2,184.9,109.2z"/>
	<path class="st8" d="M130.8,109.2c0-0.9,0-1.8,0-2.8c0-0.3-0.2-0.6,0.2-0.8c0.4-0.1,1-0.2,1.1,0.1c0.3,0.4,0.4,0.2,0.6,0.1
		c2.1-0.9,3.7,0.2,3.7,2.4c0,1.3,0,2.6,0,3.9c0,0.7-0.4,0.6-0.8,0.6c-0.4,0-0.7,0-0.7-0.6c0-1.3,0-2.5,0-3.7c0-1-0.5-1.5-1.3-1.6
		c-0.9,0-1.5,0.5-1.5,1.5c0,1.3,0,2.5,0,3.7c0,0.6-0.2,0.6-0.7,0.6s-0.8-0.1-0.7-0.6C130.8,111.1,130.8,110.1,130.8,109.2z"/>
	<path class="st10" d="M167,125.8c0,0.9,0,1.8,0,2.7c0,0.3,0.2,0.8-0.2,0.8c-0.4,0.1-1,0.3-1.2-0.1c-0.2-0.4-0.3-0.2-0.6-0.1
		c-2.1,0.9-3.7-0.1-3.8-2.4c0-1.3,0-2.6,0-3.8c0-0.6,0.2-0.7,0.7-0.7s0.8,0,0.8,0.7c0,1.2,0,2.4,0,3.6c0,1,0.5,1.5,1.3,1.5
		s1.4-0.5,1.5-1.5c0-1.2,0-2.4,0-3.6c0-0.6,0.3-0.7,0.8-0.7s0.7,0.1,0.7,0.7C167,123.9,167,124.9,167,125.8z"/>
	<path class="st10" d="M169.3,125.9c0-0.9,0-1.8,0-2.7c0-0.3-0.2-0.7,0.2-0.8s0.9-0.2,1.1,0.1c0.3,0.4,0.4,0.2,0.6,0.1
		c2-0.9,3.7,0.2,3.7,2.4c0,1.3,0,2.6,0,3.8c0,0.6-0.3,0.7-0.8,0.7c-0.6,0-0.8-0.2-0.7-0.8c0-1.2,0-2.4,0-3.6c0-1.1-0.5-1.6-1.4-1.6
		s-1.4,0.5-1.4,1.6c0,1.2,0,2.4,0,3.6c0,0.7-0.3,0.6-0.8,0.7c-0.5,0-0.7-0.1-0.7-0.7C169.3,127.8,169.3,126.8,169.3,125.9z"/>
	<path class="st8" d="M160,105.7c1.5-0.2,1.5-0.2,1.9,1.1c0.4,1.1,0.8,2.3,1.3,3.6c0.5-1.5,0.9-2.8,1.3-4.1c0.2-0.7,0.8-1,1.5-0.8
		c0.4,0.1,0.2,0.3,0.1,0.5c-1,2.8-2,5.5-3.1,8.3c-0.3,0.7-0.9,1.1-1.6,1.1c-0.3,0-0.8,0.2-0.8-0.3c0-0.4-0.3-0.9,0.6-1
		c0.7,0,1.3-1.4,1-2.3c-0.6-1.8-1.3-3.6-2-5.5C160.2,106.2,160.1,105.9,160,105.7z"/>
	<path class="st8" d="M124.6,126.3c-0.5,0-1,0-1.5,0c-0.8-0.1-0.8,0.3-0.5,0.9c0.5,1,1.7,1.4,2.8,0.7c0.6-0.5,0.9-0.2,1.2,0.3
		c0.4,0.6-0.2,0.7-0.5,0.8c-2.1,1.4-4.6,0.2-5-2.2c-0.1-0.7-0.1-1.4,0-2.1c0.4-1.8,1.8-2.8,3.6-2.4c1.5,0.3,2.6,2,2.3,3.6
		c0,0.3-0.2,0.4-0.5,0.4C125.9,126.3,125.3,126.3,124.6,126.3z M124,125.3c0.4,0,0.8,0,1.1,0c0.4,0,0.4-0.2,0.3-0.5
		c-0.2-0.6-0.4-1-1-1.3c-0.6-0.2-1.1,0-1.6,0.4c-0.3,0.3-0.5,0.7-0.4,1.1c0.2,0.4,0.6,0.2,0.9,0.2
		C123.6,125.3,123.8,125.3,124,125.3z"/>
	<path class="st8" d="M128.9,125.8c0-0.9,0-1.8,0-2.7c0-0.3-0.2-0.7,0.2-0.8c0.3-0.1,0.9-0.2,1.1,0.1c0.3,0.5,0.5,0.2,0.7,0.1
		c1.9-0.8,3.6,0.1,3.7,2.2c0.1,1.4,0,2.8,0,4.2c0,0.7-0.5,0.5-0.8,0.5c-0.5,0-0.7-0.1-0.6-0.6c0-1.2,0-2.4,0-3.6
		c0-1.1-0.5-1.7-1.4-1.7s-1.5,0.6-1.5,1.7c0,1.2,0,2.4,0,3.6c0,0.6-0.3,0.6-0.8,0.6s-0.7-0.1-0.6-0.6
		C128.9,127.8,128.9,126.8,128.9,125.8z"/>
	<path class="st8" d="M85.5,126.3c-0.6,0-1.2,0-1.8,0c-0.5,0-0.5,0.2-0.5,0.6c0.3,1.2,1.6,1.7,2.9,1c0.3-0.2,0.5-0.3,0.9,0
		c0.5,0.4,0.5,0.7,0,1.1c-1.1,0.7-2.3,0.8-3.6,0.3c-1.2-0.5-1.6-1.5-1.7-2.7c-0.1-0.8-0.1-1.6,0.2-2.4c0.6-1.6,2.1-2.3,3.7-1.8
		c1.3,0.4,2.4,2.2,2.1,3.6c-0.1,0.4-0.3,0.3-0.5,0.3C86.7,126.3,86.1,126.3,85.5,126.3z M84.6,125.3c0.3,0,0.6,0,1,0
		c0.9,0.1,0.8-0.4,0.5-0.9c-0.5-1-1.8-1.2-2.5-0.3c-0.3,0.3-0.5,0.7-0.4,1c0.1,0.5,0.6,0.2,0.9,0.2
		C84.3,125.3,84.5,125.3,84.6,125.3z"/>
	<path class="st8" d="M84.7,109.1c0-0.6,0-1.1,0.2-1.7c0.5-1.3,1.5-2,3.1-1.9c1.3,0.1,2.3,1,2.5,2.2c0.2,0.8,0.2,1.5,0.1,2.3
		c-0.2,1.7-1.3,2.8-2.9,2.8s-2.8-1.1-2.9-2.8C84.7,109.7,84.7,109.4,84.7,109.1z M89.1,109c0-0.2,0-0.5-0.1-0.9
		c-0.2-0.8-0.6-1.2-1.4-1.2s-1.3,0.4-1.4,1.2c-0.1,0.4-0.1,0.8-0.1,1.1c0,1.6,0.5,2.3,1.5,2.3C88.7,111.4,89.1,110.7,89.1,109z"/>
	<path class="st8" d="M71.6,126.3c-0.5,0-1,0-1.4,0c-0.9,0-1,0.2-0.6,1c0.5,1,1.7,1.3,2.7,0.5c0.6-0.5,1-0.1,1.2,0.3
		c0.4,0.5-0.2,0.6-0.5,0.8c-2,1.4-4.7,0.3-5.1-2.1c-0.2-1-0.1-2,0.3-2.9c0.6-1.5,2.2-2.1,3.7-1.6c1.3,0.5,2.3,2.3,1.9,3.6
		c-0.1,0.3-0.3,0.3-0.5,0.3C72.8,126.3,72.2,126.3,71.6,126.3z M70.9,125.3c0.1,0,0.3,0,0.4,0c0.4-0.1,1,0.3,1.1-0.2s-0.2-1-0.7-1.3
		c-0.6-0.4-1.5-0.2-2,0.3c-0.2,0.3-0.5,0.7-0.3,1.1s0.6,0.2,0.8,0.2C70.5,125.3,70.7,125.3,70.9,125.3z"/>
	<path class="st8" d="M159.4,125.8c0,2.6-1.5,4-3.7,3.6c-1.5-0.3-2.2-1.5-2.2-3.4c0-2.1,0.6-3.4,2.1-3.7
		C157.8,121.7,159.4,123.2,159.4,125.8z M154.9,125.7c0,0.4,0,0.8,0.1,1.1c0.1,0.8,0.6,1.4,1.4,1.4c0.8,0,1.3-0.5,1.5-1.3
		c0.1-0.7,0.1-1.5,0-2.2c-0.2-0.7-0.6-1.1-1.4-1.1c-0.7,0-1.2,0.3-1.4,1.1C155,125,155,125.4,154.9,125.7z"/>
	<path class="st8" d="M93.4,125.8c0-0.5,0-0.9,0.1-1.3c0.3-1.4,1.3-2.3,2.8-2.3s2.6,0.8,2.9,2.2c0.2,1,0.2,1.9,0,2.8
		c-0.3,1.4-1.4,2.2-2.8,2.2s-2.6-0.8-2.8-2.2C93.5,126.8,93.5,126.3,93.4,125.8z M97.9,125.8c0-0.2,0-0.3,0-0.5
		c-0.1-1.2-0.6-1.8-1.5-1.8s-1.4,0.6-1.5,1.8c0,0.2,0,0.3,0,0.5c0,1.6,0.5,2.3,1.5,2.3C97.4,128.2,97.9,127.4,97.9,125.8z"/>
	<path class="st8" d="M144.3,109.2c0,2.6-1.5,4-3.7,3.5c-1.4-0.3-2.1-1.4-2.1-3.2c0-2.3,0.6-3.5,2-3.9
		C142.8,105,144.3,106.5,144.3,109.2z M139.8,109.1c0,0.4,0.1,0.7,0.2,1.1c0.1,0.8,0.6,1.2,1.3,1.2c0.8,0,1.3-0.4,1.5-1.2
		c0.2-0.8,0.2-1.6,0-2.4c-0.2-0.7-0.7-1.1-1.4-1c-0.7,0-1.2,0.4-1.3,1.1C139.9,108.4,139.9,108.8,139.8,109.1z"/>
	<path class="st8" d="M77.9,126.8c0.4-1.3,0.8-2.6,1.3-3.9c0.2-0.5,1-0.9,1.5-0.6c0.2,0.1,0.2,0.3,0.1,0.5c-0.8,2.1-1.5,4.1-2.3,6.2
		c-0.2,0.4-0.4,0.5-0.7,0.4c-0.4,0-0.6,0-0.8-0.5c-0.7-2-1.5-4-2.2-6.1c-0.1-0.2-0.3-0.5,0.1-0.5c0.5,0,1.1-0.4,1.4,0.4
		c0.4,1.1,0.7,2.2,1.1,3.2c0.1,0.3,0.2,0.6,0.3,0.8C77.8,126.8,77.9,126.8,77.9,126.8z"/>
	<path class="st8" d="M176.9,125.8c0-2.9,2.4-4.6,4.7-3.3c0.8,0.5,0.8,0.7,0.2,1.3c-0.3,0.3-0.4,0.2-0.7,0c-1.1-0.8-2.3-0.3-2.6,1.1
		c-0.2,0.6-0.2,1.3,0,1.9c0.3,1.2,1.5,1.7,2.4,1c0.8-0.5,1,0,1.3,0.4c0.4,0.5-0.3,0.6-0.5,0.8c-1,0.6-2.1,0.6-3.2,0.1
		S176.9,127.4,176.9,125.8z"/>
	<path class="st10" d="M139,129.4c-1.4,0-2-0.7-2.1-2c0-1,0-2,0-3.1c0-0.4,0.1-0.7-0.5-0.8c-0.5-0.1-0.3-1-0.2-1
		c1-0.2,0.6-0.9,0.6-1.4c0-0.6,0-0.9,0.8-0.9s0.8,0.5,0.7,1c0,0.7-0.1,1.4,1,1.2c0.5-0.1,0.3,0.3,0.4,0.6c0,0.3,0,0.6-0.5,0.5
		c-1-0.2-1,0.4-1,1.1c0,0.8,0,1.7,0,2.6c0,0.5,0.2,0.9,0.8,0.9c0.8,0,0.6,0.4,0.6,0.9C139.8,129.7,139.3,129.3,139,129.4z"/>
	<path class="st9" d="M76.6,109.2c0-0.6,0-1.1,0-1.7c0-0.3,0-0.6-0.5-0.6c-0.6-0.2-0.5-1-0.2-1c1-0.2,0.7-0.9,0.7-1.5
		s0.2-0.8,0.8-0.8c0.6,0,0.7,0.2,0.7,0.7c0,0.3,0,0.5,0,0.8c0,0.5,0.2,0.7,0.6,0.6c0.4,0,0.7-0.1,0.7,0.5s-0.3,0.6-0.7,0.6
		c-0.6-0.1-0.7,0.2-0.7,0.7c0,1,0,1.9,0,2.9c0,0.6,0.2,1,0.8,1c0.7,0,0.5,0.5,0.5,0.8c0.1,0.4-0.1,0.5-0.5,0.5
		c-1.5,0-2.2-0.6-2.3-2.1C76.6,110.2,76.6,109.7,76.6,109.2z"/>
	<path class="st3" d="M89.6,123.8c0-1.2,0-2.5,0-3.7c0-0.6,0.3-0.6,0.8-0.6s0.7,0.1,0.7,0.6c0,2.3,0,4.6,0,6.9c0,0.7,0.1,1.2,1,1.2
		c0.6,0,0.4,0.4,0.5,0.7c0,0.4-0.1,0.5-0.5,0.6c-1.5,0.1-2.3-0.6-2.3-2.2c0-0.6,0-1.1,0-1.7S89.6,124.4,89.6,123.8z"/>
	<path class="st10" d="M156.3,109.1c0-0.5,0-1,0-1.5c0-0.4,0.1-0.8-0.5-0.8c-0.3,0-0.4-1-0.1-1c1-0.1,0.6-0.8,0.6-1.3
		c0-0.7,0.1-1,0.9-0.9c0.5,0,0.7,0.2,0.6,0.6c0,0.3,0,0.5,0,0.8c0,0.5,0.1,0.8,0.6,0.7c0.4-0.1,0.7,0,0.7,0.6c0,0.5-0.3,0.6-0.6,0.5
		c-0.6-0.1-0.7,0.2-0.7,0.8c0,1,0,2,0,3c0,0.5,0.2,0.8,0.7,0.8c0.7,0,0.6,0.4,0.6,0.8c0,0.6-0.4,0.5-0.7,0.5c-1.3,0-2.1-0.7-2.1-2
		C156.3,110.1,156.3,109.6,156.3,109.1z"/>
	<path class="st9" d="M107.8,107c0-1.3,0-2.5,0-3.7c0-0.6,0.3-0.6,0.7-0.6c0.4,0,0.8-0.1,0.8,0.6c0,2.3,0,4.6,0,6.9
		c0,0.7,0,1.3,1,1.2c0.5,0,0.4,0.4,0.4,0.6c0,0.3,0,0.6-0.5,0.6c-1.5,0.2-2.4-0.6-2.4-2C107.8,109.5,107.9,108.3,107.8,107
		L107.8,107z"/>
	<path class="st10" d="M187.7,123.8c0-1.3,0-2.5,0-3.7c0-0.6,0.3-0.6,0.8-0.6s0.8,0,0.8,0.6c0,2.4,0,4.7,0,7.1c0,0.6,0.2,1,0.8,1
		s0.5,0.4,0.5,0.7c0,0.5-0.2,0.6-0.6,0.6c-1.5,0-2.3-0.6-2.3-2.2C187.7,126.1,187.7,124.9,187.7,123.8z"/>
	<path class="st10" d="M202.6,107.1c0-1.2,0-2.4,0-3.6c0-0.5,0.1-0.7,0.7-0.7c0.5,0,0.8,0,0.8,0.7c0,2.3,0,4.5,0,6.8
		c0,0.7,0,1.3,1,1.2c0.6,0,0.4,0.5,0.4,0.8s-0.1,0.5-0.5,0.5c-1.5,0.2-2.4-0.6-2.4-2.1C202.6,109.4,202.6,108.3,202.6,107.1z"/>
	<path class="st10" d="M218.3,109.1c0-0.9,0-1.8,0-2.7c0-0.3-0.2-0.7,0.2-0.8c0.3-0.1,0.9-0.2,1.1,0.1c0.3,0.5,0.5,0.2,0.8,0.1
		c0.7-0.3,1.5-0.4,2.2,0c0.2,0.1,0.8,0.2,0.5,0.6c-0.3,0.3-0.5,1-1.1,0.8c-1.6-0.5-2.2,0-2.2,1.6c0,1.1,0,2.2,0,3.4
		c0,0.6-0.3,0.6-0.8,0.6s-0.8,0-0.8-0.6C218.4,111.1,218.3,110.1,218.3,109.1z"/>
	<path class="st9" d="M146.3,109.1c0-0.9,0-1.8,0-2.8c0-0.3-0.2-0.6,0.2-0.7c0.3-0.1,1-0.2,1.1,0.1c0.2,0.6,0.5,0.2,0.7,0.1
		c0.7-0.3,1.5-0.4,2.2-0.1c0.3,0.1,0.8,0.2,0.5,0.6c-0.3,0.3-0.4,1-1.1,0.7c-1.3-0.5-2.1,0-2.2,1.5c0,1.2,0,2.4,0,3.6
		c0,0.6-0.3,0.6-0.8,0.6s-0.7-0.1-0.6-0.6C146.3,111.1,146.3,110.1,146.3,109.1z"/>
	<path class="st10" d="M185.6,125.9c0,1,0,2,0,2.9c0,0.7-0.4,0.6-0.8,0.6c-0.4,0-0.7,0-0.7-0.6c0-2,0-4,0-6c0-0.6,0.4-0.5,0.8-0.5
		c0.4,0,0.8-0.1,0.8,0.5C185.5,123.9,185.6,124.8,185.6,125.9z"/>
	<path class="st10" d="M127,109.1c0-1,0-1.9,0-2.9c0-0.6,0.3-0.6,0.7-0.6c0.5,0,0.8,0,0.8,0.6c0,2,0,3.9,0,5.9
		c0,0.7-0.4,0.6-0.8,0.6c-0.5,0-0.7,0-0.7-0.6C127.1,111.1,127,110.1,127,109.1z"/>
	<path class="st10" d="M208.6,109.1c0,1,0,2,0,2.9c0,0.6-0.3,0.6-0.8,0.6s-0.8,0-0.8-0.6c0-2,0-3.9,0-5.9c0-0.7,0.4-0.6,0.8-0.6
		c0.4,0,0.7,0,0.7,0.6C208.5,107.2,208.6,108.2,208.6,109.1z"/>
	<path class="st4" d="M81.3,109.1c0-1,0-1.9,0-2.9c0-0.5,0.2-0.6,0.6-0.6s0.8,0,0.8,0.6c0,2,0,3.9,0,5.9c0,0.6-0.3,0.6-0.7,0.6
		c-0.4,0-0.8,0-0.7-0.6C81.3,111.1,81.3,110.1,81.3,109.1z"/>
	<path class="st4" d="M153.9,109.2c0,1,0,2,0,2.9c0,0.6-0.3,0.6-0.7,0.6s-0.7,0-0.7-0.6c0-2,0-4,0-6c0-0.5,0.3-0.5,0.6-0.5
		s0.8-0.1,0.8,0.5C153.8,107.2,153.9,108.2,153.9,109.2z"/>
	<path class="st10" d="M152.4,103.4c-0.2-0.8,0.4-0.6,0.8-0.7c0.8-0.1,0.6,0.4,0.7,0.9c0.1,0.8-0.4,0.6-0.9,0.7
		C152.3,104.4,152.4,103.9,152.4,103.4z"/>
	<path class="st10" d="M82.7,103.5c0.2,0.7-0.2,0.8-0.8,0.8c-0.8,0-0.7-0.3-0.7-0.8c0-0.6,0.2-0.8,0.8-0.8
		C82.6,102.7,82.9,102.8,82.7,103.5z"/>
	<path class="st8" d="M184.8,120.9c-0.7,0.2-0.7-0.2-0.8-0.8c0-0.7,0.3-0.7,0.8-0.8c0.7,0,0.7,0.3,0.8,0.8
		C185.6,120.9,185.4,121,184.8,120.9z"/>
	<path class="st10" d="M127.9,102.7c0.8-0.2,0.6,0.4,0.7,0.8c0.1,0.8-0.4,0.6-0.9,0.7c-0.8,0.1-0.6-0.4-0.7-0.9
		C126.9,102.7,127.4,102.7,127.9,102.7z"/>
	<path class="st10" d="M207.8,104.3c-0.7,0.2-0.7-0.2-0.8-0.8c0-0.6,0.2-0.8,0.8-0.8s0.8,0.2,0.8,0.8
		C208.6,104.2,208.4,104.4,207.8,104.3z"/>
	<path class="st11" d="M121.5,84.7c0-2.1,0-4.3,0-6.4c0-0.6,0.2-0.8,0.8-0.7c1.1,0,2.2,0,3.3,0c2.1,0.1,3.5,1.4,3.8,3.5
		c0.3,2.4,0.3,4.9,0,7.3c-0.3,2.3-1.7,3.5-4,3.6c-1,0-2.1,0-3.2,0c-0.5,0-0.7-0.2-0.7-0.7C121.5,89.1,121.5,87,121.5,84.7z"/>
	<path class="st12" d="M64.6,124.4c0,0.2,0,0.3,0,0.5c0,2.7-0.9,3.4-3.5,3.2c-0.4,0-0.5-0.2-0.5-0.5c0-2.1,0-4.1,0-6.2
		c0-0.3,0.1-0.5,0.5-0.5c0.6,0,1.3,0,1.9,0.1c0.8,0.1,1.3,0.6,1.5,1.4C64.6,123,64.6,123.7,64.6,124.4z"/>
	<path class="st12" d="M105.7,125.7c0,0.6,0,1.1-0.2,1.6c-0.2,0.6-0.6,0.9-1.2,0.9s-1.1-0.3-1.3-0.8c-0.3-1-0.3-1.9,0-2.9
		c0.2-0.6,0.6-0.8,1.3-0.8c0.6,0,1,0.2,1.3,0.8C105.7,124.8,105.6,125.3,105.7,125.7z"/>
	<path class="st12" d="M103.1,109.6c0.3,0.2,1-0.4,1.1,0.5c0,0.8-0.3,1.3-1.2,1.4c-0.3,0-0.5,0-0.8,0c-0.5-0.1-0.9-0.3-0.9-0.9
		s0.3-0.9,0.8-1C102.5,109.6,102.8,109.6,103.1,109.6z"/>
	<path class="st12" d="M71.2,111.6c-0.6,0-1.3-0.1-1.3-0.9c0-0.9,0.6-1,1.3-1.1c0.2,0,0.3,0,0.5,0c0.4,0.2,1-0.4,1.1,0.5
		c0,0.8-0.2,1.3-1,1.5C71.6,111.6,71.4,111.6,71.2,111.6z"/>
	<path class="st12" d="M124,125.3c-0.2,0-0.4,0-0.6,0c-0.3-0.1-0.8,0.2-0.9-0.2c-0.2-0.4,0.1-0.8,0.4-1.1c0.4-0.4,1-0.6,1.6-0.4
		s0.9,0.7,1,1.3c0.1,0.3,0,0.5-0.3,0.5C124.7,125.2,124.3,125.3,124,125.3z"/>
	<path class="st12" d="M84.6,125.3c-0.2,0-0.3,0-0.5,0c-0.3-0.1-0.8,0.2-0.9-0.2c-0.1-0.3,0.1-0.7,0.4-1c0.7-0.9,2-0.7,2.5,0.3
		c0.3,0.5,0.3,1-0.5,0.9C85.3,125.2,85,125.3,84.6,125.3z"/>
	<path class="st12" d="M89.1,109c0,1.8-0.5,2.5-1.5,2.5s-1.6-0.7-1.5-2.3c0-0.4,0-0.8,0.1-1.1c0.1-0.8,0.6-1.2,1.4-1.2
		s1.3,0.4,1.4,1.2C89.1,108.4,89.1,108.8,89.1,109z"/>
	<path class="st12" d="M70.9,125.3c-0.2,0-0.5,0-0.6,0c-0.3,0-0.7,0.2-0.8-0.2c-0.2-0.4,0-0.7,0.3-1.1c0.5-0.6,1.3-0.7,2-0.3
		c0.5,0.3,0.8,0.8,0.7,1.3c-0.1,0.5-0.7,0.2-1.1,0.2C71.2,125.3,71,125.3,70.9,125.3z"/>
	<path class="st12" d="M154.9,125.7c0-0.3,0-0.7,0.2-1.1c0.2-0.7,0.6-1.1,1.4-1.1s1.2,0.4,1.4,1.1s0.2,1.5,0,2.2
		c-0.2,0.8-0.6,1.3-1.5,1.3s-1.3-0.6-1.4-1.4C155,126.5,155,126.1,154.9,125.7z"/>
	<path class="st12" d="M97.9,125.8c0,1.5-0.5,2.3-1.5,2.3s-1.5-0.8-1.5-2.3c0-0.2,0-0.3,0-0.5c0.1-1.2,0.6-1.8,1.5-1.8
		s1.4,0.6,1.5,1.8C97.9,125.5,97.9,125.7,97.9,125.8z"/>
	<path class="st12" d="M139.8,109.1c0-0.4,0.1-0.8,0.2-1.2c0.2-0.7,0.6-1.1,1.3-1.1s1.2,0.3,1.4,1c0.2,0.8,0.2,1.6,0,2.4
		s-0.7,1.2-1.5,1.2s-1.2-0.5-1.3-1.2C139.9,109.9,139.9,109.5,139.8,109.1z"/>
</g>
</svg>
