<?xml version="1.0" encoding="utf-8"?>
<!-- Generator: Adobe Illustrator 21.0.2, SVG Export Plug-In . SVG Version: 6.00 Build 0)  -->
<svg version="1.1" id="Layer_1" xmlns="http://www.w3.org/2000/svg" xmlns:xlink="http://www.w3.org/1999/xlink" x="0px" y="0px"
	 width="321.9px" height="79.4px" viewBox="0 0 321.9 79.4" style="enable-background:new 0 0 321.9 79.4;" xml:space="preserve">
<style type="text/css">
	.st0{fill:#404137;}
	.st1{fill:#83CD29;}
	.st2{fill:#B3B3B3;}
	.st3{fill:#A6120D;}
	.st4{fill:#DD1B16;}
	.st5{fill:#F2F2F2;}
</style>
<g id="layer1" transform="translate(-115.94417,-501.42131)">
	<path id="path22" class="st0" d="M1222.9,1281.9c-0.1,0-0.3,0-0.4,0.1c-0.3,0.2-0.4,0.4-0.4,0.7v21.5c0,0.2-0.1,0.4-0.3,0.5
		c-0.2,0.1-0.4,0.1-0.6,0l-3.5-2c-0.5-0.3-1.2-0.3-1.7,0l-14.1,8.1c-0.5,0.3-0.8,0.9-0.8,1.5v16.2c0,0.6,0.3,1.2,0.8,1.5l14.1,8.1
		c0.5,0.3,1.2,0.3,1.7,0l14.1-8.1c0.5-0.3,0.8-0.9,0.8-1.5v-40.5c0-0.6-0.3-1.2-0.9-1.5l-8.4-4.7
		C1223.2,1281.9,1223.1,1281.9,1222.9,1281.9L1222.9,1281.9z M1132.5,1302.2c-0.3,0-0.5,0.1-0.8,0.2l-14.1,8.1
		c-0.5,0.3-0.8,0.9-0.8,1.5l0,21.8c0,0.3,0.2,0.6,0.4,0.7c0.3,0.2,0.6,0.2,0.8,0l8.3-4.8c0.5-0.3,0.9-0.9,0.9-1.5V1318
		c0-0.6,0.3-1.2,0.8-1.5l3.5-2.1c0.3-0.2,0.5-0.2,0.8-0.2c0.3,0,0.6,0.1,0.8,0.2l3.5,2.1c0.5,0.3,0.8,0.9,0.8,1.5v10.2
		c0,0.6,0.3,1.2,0.9,1.5l8.3,4.8c0.3,0.2,0.6,0.2,0.8,0c0.3-0.1,0.4-0.4,0.4-0.7l0-21.8c0-0.6-0.3-1.2-0.8-1.5l-14.1-8.1
		c-0.2-0.1-0.5-0.2-0.8-0.2H1132.5L1132.5,1302.2z M1258.8,1302.4c-0.3,0-0.6,0.1-0.8,0.2l-14.1,8.1c-0.5,0.3-0.8,0.9-0.8,1.5v16.2
		c0,0.6,0.3,1.2,0.9,1.5l13.9,7.9c0.5,0.3,1.1,0.3,1.7,0l8.5-4.7c0.3-0.1,0.4-0.4,0.5-0.7c0-0.3-0.2-0.6-0.4-0.7l-14.1-8.1
		c-0.3-0.2-0.5-0.5-0.5-0.8v-5.1c0-0.3,0.2-0.6,0.5-0.7l4.4-2.5c0.3-0.2,0.6-0.2,0.8,0l4.4,2.5c0.3,0.2,0.4,0.4,0.4,0.7v4
		c0,0.3,0.2,0.6,0.4,0.7c0.3,0.2,0.6,0.2,0.8,0l8.4-4.9c0.5-0.3,0.8-0.9,0.8-1.5v-3.9c0-0.6-0.3-1.2-0.8-1.5l-14-8.1
		C1259.4,1302.4,1259.1,1302.4,1258.8,1302.4L1258.8,1302.4z M1216.8,1314.5c0.1,0,0.2,0,0.2,0.1l4.8,2.8c0.1,0.1,0.2,0.2,0.2,0.4
		v5.6c0,0.2-0.1,0.3-0.2,0.4l-4.8,2.8c-0.1,0.1-0.3,0.1-0.4,0l-4.8-2.8c-0.1-0.1-0.2-0.2-0.2-0.4v-5.6c0-0.2,0.1-0.3,0.2-0.4
		l4.8-2.8C1216.7,1314.5,1216.7,1314.5,1216.8,1314.5L1216.8,1314.5z"/>
	<path id="path28" class="st1" d="M1300.9,1302c-0.5,0-1,0.1-1.4,0.3l-13.3,7.7c-0.9,0.5-1.4,1.4-1.4,2.4v15.3c0,1,0.5,1.9,1.4,2.4
		l3.5,2c1.7,0.8,2.3,0.8,3.1,0.8c2.5,0,3.9-1.5,3.9-4.1v-15.1c0-0.2-0.2-0.4-0.4-0.4h-1.7c-0.2,0-0.4,0.2-0.4,0.4v15.1
		c0,1.2-1.2,2.3-3.2,1.4l-3.6-2.1c-0.1-0.1-0.2-0.2-0.2-0.3v-15.3c0-0.1,0.1-0.3,0.2-0.4l13.2-7.6c0.1-0.1,0.3-0.1,0.4,0l13.2,7.6
		c0.1,0.1,0.2,0.2,0.2,0.4v15.3c0,0.1-0.1,0.3-0.2,0.4l-13.3,7.6c-0.1,0.1-0.3,0.1-0.4,0l-3.4-2c-0.1-0.1-0.2-0.1-0.3,0
		c-0.9,0.5-1.1,0.6-2,0.9c-0.2,0.1-0.5,0.2,0.1,0.6l4.5,2.6c0.4,0.2,0.9,0.4,1.4,0.4c0.5,0,1-0.1,1.4-0.4l13.3-7.6
		c0.9-0.5,1.4-1.4,1.4-2.4v-15.3c0-1-0.5-1.9-1.4-2.4l-13.3-7.7C1301.9,1302.1,1301.4,1302,1300.9,1302L1300.9,1302z M1174.8,1302.3
		c-0.3,0-0.6,0.1-0.8,0.2l-14.1,8.1c-0.5,0.3-0.8,0.9-0.8,1.5v16.2c0,0.6,0.3,1.2,0.8,1.5l14.1,8.1c0.5,0.3,1.2,0.3,1.7,0l14.1-8.1
		c0.5-0.3,0.8-0.9,0.8-1.5v-16.2c0-0.6-0.3-1.2-0.8-1.5l-14.1-8.1C1175.3,1302.3,1175,1302.3,1174.8,1302.3z M1320.6,1302.4v0.4h1.1
		v2.9h0.5v-2.9h1.1v-0.4H1320.6z M1323.7,1302.4v3.3h0.4v-1.9c0-0.1,0-0.2,0-0.4c0-0.2,0-0.3,0-0.4v-0.1l0.9,2.8h0.5l1-2.8
		c0,0.2,0,0.3,0,0.5c0,0.2,0,0.3,0,0.3v1.9h0.4v-3.3h-0.6l-1,2.8l-0.9-2.8L1323.7,1302.4L1323.7,1302.4z M1304.5,1312.9
		c-3.8,0-6,1.6-6,4.3c0,2.9,2.2,3.7,5.9,4.1c4.3,0.4,4.7,1.1,4.7,1.9c0,1.5-1.2,2.1-4,2.1c-3.5,0-4.3-0.9-4.5-2.6
		c0-0.2-0.2-0.3-0.4-0.3h-1.7c-0.2,0-0.4,0.2-0.4,0.4c0,2.2,1.2,4.9,7,4.9c4.2,0,6.6-1.6,6.6-4.5c0-2.9-2-3.6-6-4.2
		c-4.1-0.5-4.5-0.8-4.5-1.8c0-0.8,0.3-1.9,3.4-1.9c2.7,0,3.7,0.6,4.1,2.4c0,0.2,0.2,0.3,0.4,0.3h1.7c0.1,0,0.2-0.1,0.3-0.1
		c0.1-0.1,0.1-0.2,0.1-0.3C1310.9,1314.4,1308.7,1312.9,1304.5,1312.9L1304.5,1312.9z M1258.8,1316.7c-0.1,0-0.1,0-0.2,0l-2.7,1.6
		c-0.1,0.1-0.2,0.2-0.2,0.3v3.1c0,0.1,0.1,0.2,0.2,0.3l2.7,1.5c0.1,0.1,0.2,0.1,0.3,0l2.7-1.5c0.1-0.1,0.2-0.2,0.2-0.3v-3.1
		c0-0.1-0.1-0.2-0.2-0.3l-2.7-1.6C1258.9,1316.7,1258.9,1316.7,1258.8,1316.7z"/>
</g>
<path class="st2" d="M946.4,773.7L909,786.9l5.9,49l31.5,17.3l31.7-17.6l5.9-49L946.4,773.7z"/>
<path class="st3" d="M980.3,789.5l-34-11.6v71.1l28.5-15.8L980.3,789.5L980.3,789.5z"/>
<path class="st4" d="M913.2,789.7l5.1,43.8l28,15.6v-71.1L913.2,789.7L913.2,789.7z"/>
<path class="st5" d="M955.7,815.8l-9.4,4.4h-9.9l-4.6,11.6l-8.6,0.2l23.1-51.4L955.7,815.8L955.7,815.8z M954.8,813.6l-8.4-16.6
	l-6.9,16.3h6.8L954.8,813.6L954.8,813.6z"/>
<path class="st2" d="M946.3,780.5l0.1,16.5l7.8,16.3h-7.9l0,6.8l10.9,0l5.1,11.8l8.2,0.2L946.3,780.5L946.3,780.5z"/>
<g>
	<g id="layer1_1_" transform="translate(-115.94417,-501.42131)">
		<path id="path22_1_" class="st0" d="M333.9,508.2c-0.1,0-0.3,0-0.4,0.1c-0.3,0.2-0.4,0.4-0.4,0.7v21.5c0,0.2-0.1,0.4-0.3,0.5
			c-0.2,0.1-0.4,0.1-0.6,0l-3.5-2c-0.5-0.3-1.2-0.3-1.7,0l-14.1,8.1c-0.5,0.3-0.8,0.9-0.8,1.5v16.2c0,0.6,0.3,1.2,0.8,1.5l14.1,8.1
			c0.5,0.3,1.2,0.3,1.7,0l14.1-8.1c0.5-0.3,0.8-0.9,0.8-1.5v-40.5c0-0.6-0.3-1.2-0.9-1.5l-8.4-4.7
			C334.2,508.2,334,508.2,333.9,508.2L333.9,508.2z M243.5,528.4c-0.3,0-0.5,0.1-0.8,0.2l-14.1,8.1c-0.5,0.3-0.8,0.9-0.8,1.5l0,21.8
			c0,0.3,0.2,0.6,0.4,0.7c0.3,0.2,0.6,0.2,0.8,0l8.3-4.8c0.5-0.3,0.9-0.9,0.9-1.5v-10.2c0-0.6,0.3-1.2,0.8-1.5l3.5-2.1
			c0.3-0.2,0.5-0.2,0.8-0.2c0.3,0,0.6,0.1,0.8,0.2l3.5,2.1c0.5,0.3,0.8,0.9,0.8,1.5v10.2c0,0.6,0.3,1.2,0.9,1.5l8.3,4.8
			c0.3,0.2,0.6,0.2,0.8,0c0.3-0.1,0.4-0.4,0.4-0.7l0-21.8c0-0.6-0.3-1.2-0.8-1.5l-14.1-8.1c-0.2-0.1-0.5-0.2-0.8-0.2H243.5
			L243.5,528.4z M369.8,528.6c-0.3,0-0.6,0.1-0.8,0.2l-14.1,8.1c-0.5,0.3-0.8,0.9-0.8,1.5v16.2c0,0.6,0.3,1.2,0.9,1.5l13.9,7.9
			c0.5,0.3,1.1,0.3,1.7,0l8.5-4.7c0.3-0.1,0.4-0.4,0.5-0.7c0-0.3-0.2-0.6-0.4-0.7l-14.1-8.1c-0.3-0.2-0.5-0.5-0.5-0.8V544
			c0-0.3,0.2-0.6,0.5-0.7l4.4-2.5c0.3-0.2,0.6-0.2,0.8,0l4.4,2.5c0.3,0.2,0.4,0.4,0.4,0.7v4c0,0.3,0.2,0.6,0.4,0.7
			c0.3,0.2,0.6,0.2,0.8,0l8.4-4.9c0.5-0.3,0.8-0.9,0.8-1.5v-3.9c0-0.6-0.3-1.2-0.8-1.5l-14-8.1C370.4,528.7,370.1,528.6,369.8,528.6
			L369.8,528.6z M327.8,540.7c0.1,0,0.2,0,0.2,0.1l4.8,2.8c0.1,0.1,0.2,0.2,0.2,0.4v5.6c0,0.2-0.1,0.3-0.2,0.4l-4.8,2.8
			c-0.1,0.1-0.3,0.1-0.4,0l-4.8-2.8c-0.1-0.1-0.2-0.2-0.2-0.4v-5.6c0-0.2,0.1-0.3,0.2-0.4l4.8-2.8
			C327.6,540.7,327.7,540.7,327.8,540.7L327.8,540.7z"/>
		<path id="path28_1_" class="st1" d="M411.9,528.2c-0.5,0-1,0.1-1.4,0.3l-13.3,7.7c-0.9,0.5-1.4,1.4-1.4,2.4v15.3
			c0,1,0.5,1.9,1.4,2.4l3.5,2c1.7,0.8,2.3,0.8,3.1,0.8c2.5,0,3.9-1.5,3.9-4.1v-15.1c0-0.2-0.2-0.4-0.4-0.4h-1.7
			c-0.2,0-0.4,0.2-0.4,0.4V555c0,1.2-1.2,2.3-3.2,1.4l-3.6-2.1c-0.1-0.1-0.2-0.2-0.2-0.3v-15.3c0-0.1,0.1-0.3,0.2-0.4l13.2-7.6
			c0.1-0.1,0.3-0.1,0.4,0l13.2,7.6c0.1,0.1,0.2,0.2,0.2,0.4v15.3c0,0.1-0.1,0.3-0.2,0.4l-13.3,7.6c-0.1,0.1-0.3,0.1-0.4,0l-3.4-2
			c-0.1-0.1-0.2-0.1-0.3,0c-0.9,0.5-1.1,0.6-2,0.9c-0.2,0.1-0.5,0.2,0.1,0.6l4.5,2.6c0.4,0.2,0.9,0.4,1.4,0.4c0.5,0,1-0.1,1.4-0.4
			l13.3-7.6c0.9-0.5,1.4-1.4,1.4-2.4v-15.3c0-1-0.5-1.9-1.4-2.4l-13.3-7.7C412.9,528.3,412.4,528.2,411.9,528.2L411.9,528.2z
			 M285.7,528.5c-0.3,0-0.6,0.1-0.8,0.2l-14.1,8.1c-0.5,0.3-0.8,0.9-0.8,1.5v16.2c0,0.6,0.3,1.2,0.8,1.5l14.1,8.1
			c0.5,0.3,1.2,0.3,1.7,0l14.1-8.1c0.5-0.3,0.8-0.9,0.8-1.5v-16.2c0-0.6-0.3-1.2-0.8-1.5l-14.1-8.1
			C286.3,528.6,286,528.5,285.7,528.5z M431.6,528.6v0.4h1.1v2.9h0.5V529h1.1v-0.4H431.6z M434.7,528.6v3.3h0.4V530
			c0-0.1,0-0.2,0-0.4c0-0.2,0-0.3,0-0.4v-0.1l0.9,2.8h0.5l1-2.8c0,0.2,0,0.3,0,0.5c0,0.2,0,0.3,0,0.3v1.9h0.4v-3.3h-0.6l-1,2.8
			l-0.9-2.8L434.7,528.6L434.7,528.6z M415.5,539.1c-3.8,0-6,1.6-6,4.3c0,2.9,2.2,3.7,5.9,4.1c4.3,0.4,4.7,1.1,4.7,1.9
			c0,1.5-1.2,2.1-4,2.1c-3.5,0-4.3-0.9-4.5-2.6c0-0.2-0.2-0.3-0.4-0.3h-1.7c-0.2,0-0.4,0.2-0.4,0.4c0,2.2,1.2,4.9,7,4.9
			c4.2,0,6.6-1.6,6.6-4.5c0-2.9-2-3.6-6-4.2c-4.1-0.5-4.5-0.8-4.5-1.8c0-0.8,0.3-1.9,3.4-1.9c2.7,0,3.7,0.6,4.1,2.4
			c0,0.2,0.2,0.3,0.4,0.3h1.7c0.1,0,0.2-0.1,0.3-0.1c0.1-0.1,0.1-0.2,0.1-0.3C421.8,540.6,419.7,539.1,415.5,539.1L415.5,539.1z
			 M369.8,543c-0.1,0-0.1,0-0.2,0l-2.7,1.6c-0.1,0.1-0.2,0.2-0.2,0.3v3.1c0,0.1,0.1,0.2,0.2,0.3l2.7,1.5c0.1,0.1,0.2,0.1,0.3,0
			l2.7-1.5c0.1-0.1,0.2-0.2,0.2-0.3v-3.1c0-0.1-0.1-0.2-0.2-0.3l-2.7-1.6C369.9,543,369.8,543,369.8,543z"/>
	</g>
	<path class="st2" d="M37.4,0L0,13.2l5.9,49l31.5,17.3l31.7-17.6l5.9-49L37.4,0z"/>
	<path class="st3" d="M71.3,15.8l-34-11.6v71.1l28.5-15.8L71.3,15.8L71.3,15.8z"/>
	<path class="st4" d="M4.2,16l5.1,43.8l28,15.6V4.2L4.2,16L4.2,16z"/>
	<path class="st5" d="M46.6,42l-9.4,4.4h-9.9L22.8,58l-8.6,0.2L37.3,6.7L46.6,42L46.6,42z M45.7,39.8l-8.4-16.6l-6.9,16.3h6.8
		L45.7,39.8L45.7,39.8z"/>
	<path class="st2" d="M37.3,6.7l0.1,16.5l7.8,16.3h-7.9l0,6.8l10.9,0l5.1,11.8l8.2,0.2L37.3,6.7L37.3,6.7z"/>
</g>
</svg>
