<?xml version="1.0" encoding="utf-8"?>
<!-- Generator: Adobe Illustrator 21.0.0, SVG Export Plug-In . SVG Version: 6.00 Build 0)  -->
<svg version="1.1" id="Layer_1" xmlns="http://www.w3.org/2000/svg" xmlns:xlink="http://www.w3.org/1999/xlink" x="0px" y="0px"
	 viewBox="0 0 250 115" style="enable-background:new 0 0 250 115;" xml:space="preserve">
<style type="text/css">
	.st0{fill:#0460A9;}
	.st1{fill:url(#_Path__1_);}
</style>
<title>novartis_logo_pos_rgb</title>
<g>
	<path id="_Compound_Path_" class="st0" d="M68.9,109L57.1,93.8v13.7l2.4,0.6v0.6h-5.4v-0.6l2-0.6V92.7c-0.5-0.5-1-0.8-1.7-0.9
		c-0.2-0.1-0.6-0.1-0.6-0.1V91h4.6l10,13V92.2L66,91.6V91h5.4v0.6l-2,0.6v13.5c0,1.3,0.1,3.1,0.1,3.3C69.6,109,68.9,109,68.9,109z
		 M93.4,99.3c0,6.3-4.4,9.9-9.2,9.9c-4.7,0-9.2-3.7-9.2-9.4s4.4-9.4,9.2-9.4c4.9-0.1,9,3.7,9.2,8.6C93.4,99.1,93.4,99.2,93.4,99.3
		L93.4,99.3z M90.3,100.4c0-4.6-2.8-9.1-6.4-9.1c-4,0-5.8,3.8-5.8,7.9s2.3,9.2,6.6,9.2C88.5,108.4,90.3,104.3,90.3,100.4z
		 M97.2,92.2l-1.8-0.6V91h7.2v0.6l-2.3,0.6l4.9,13.5l0,0l4.9-13.5l-2.3-0.6V91h5.4v0.6l-1.8,0.6l-6.2,16.8h-1.6L97.2,92.2z
		 M139.6,99.7h-1.2V92c3.7,0,6,0.8,6,3.9C144.5,98.1,142.5,99.7,139.6,99.7z M171.7,108.1l2.4-0.6V92.2l-2.4-0.6V91h7.8v0.6
		l-2.4,0.6v15.3l2.4,0.6v0.6h-7.8V108.1z M184.3,103.8h0.5l1.7,3.8c1,0.5,2.1,0.8,3.1,0.8c2.1,0,4-1.3,4-3.5c0-1.7-1.2-2.8-2.9-3.7
		l-1.8-0.9c-2.1-1.2-4.3-2.6-4.3-5.2c0-2.8,1.8-4.8,5.9-4.8c1.5,0,2.8,0.2,4.1,0.7l0.5,4h-0.5l-1.5-3.3c-0.8-0.5-1.7-0.7-2.6-0.7
		c-2.1,0-3.5,1.3-3.5,3c0,1.5,1,2.5,2.8,3.5l2.1,1.2c2.9,1.5,4.1,2.9,4.1,5.4c0,3.1-3,5.1-6.6,5.1c-1.7,0-3.5-0.2-5.1-0.8
		L184.3,103.8z M112,108.1l2.1-0.6l6.2-16.6l2.1-0.5l6.3,17l2.1,0.6v0.6h-7.6v-0.6l2.5-0.6l-1.8-4.9h-6.8l-1.8,4.9l2.5,0.6v0.6H112
		L112,108.1z M117.5,101.3h5.9l-2.9-7.9l0,0L117.5,101.3z M143.2,100c0.6-0.1,4.1-1,4.1-4.4c0-2.6-2.1-4.7-7-4.7
		c-3.1,0-6.3,0.1-6.7,0.1v0.6l2.1,0.6v15.3l-2.1,0.6v0.7h7.2v-0.6l-2.4-0.6v-6.9h2.1l5.3,8.2h4.7v-0.6l-2.4-0.6L143.2,100z
		 M158.6,91.9v15.6l-2.4,0.6v0.5h7.8V108l-2.4-0.6V91.9h4.3l1.4,3h0.5l-0.5-3.9H153l-0.5,3.9h0.5l1.4-3H158.6z"/>
</g>
<g>
	
		<linearGradient id="_Path__1_" gradientUnits="userSpaceOnUse" x1="145.1355" y1="-697.173" x2="211.0967" y2="-697.173" gradientTransform="matrix(1 0 0 -1 -56.72 -649.9)">
		<stop  offset="0.3" style="stop-color:#E74A21"/>
		<stop  offset="0.7" style="stop-color:#EC9A1E"/>
	</linearGradient>
	<path id="_Path_" class="st1" d="M134,39.7l-0.2,0.5c3.1,1.3,10,6.7,10,17.6c0,10.2-8.6,20.5-22.2,20.5c-16.8,0-22.7-9.9-22.7-18.9
		c0-11.5,8.2-19.2,8.2-29.9c0-7.7-5.4-14.3-13-15.9l-0.2,0.5c2.8,2.5,4.1,6.1,4.1,9.9c0,11.3-9.7,19.4-9.7,32.7
		c0,12.2,8.4,24.3,32.9,24.3c21.7,0,33.1-10.7,33.1-22C154.4,49.4,147.4,41.2,134,39.7z"/>
	<polygon class="st0" points="121.4,64.6 127.8,6.4 115,6.4 121,64.6 	"/>
</g>
</svg>
