<?xml version="1.0" encoding="utf-8"?>
<!-- Generator: Adobe Illustrator 21.0.2, SVG Export Plug-In . SVG Version: 6.00 Build 0)  -->
<svg version="1.1" id="Layer_1" xmlns="http://www.w3.org/2000/svg" xmlns:xlink="http://www.w3.org/1999/xlink" x="0px" y="0px"
	 width="190px" height="72px" viewBox="0 0 190 72" style="enable-background:new 0 0 190 72;" xml:space="preserve">
<style type="text/css">
	.st0{fill:#777777;}
	.st1{fill:#01A4EF;}
</style>
<polygon class="st0" points="25.4,33 25.4,39.6 19.1,43.2 12.8,39.6 12.8,32.4 19.1,28.8 19.1,28.8 23.7,26.1 19.1,23.5 8.3,29.8 
	8.3,42.2 19.1,48.5 30,42.2 30,30.4 "/>
<g>
	<polygon class="st1" points="24.3,39 24.3,32.4 30.5,28.8 36.8,32.4 36.8,32.6 39.2,28.5 30.5,23.5 19.7,29.8 19.7,41.6 	"/>
	<polygon class="st1" points="30.5,43.2 30.5,43.2 26,45.9 30.5,48.5 39.1,43.6 36.8,39.6 	"/>
</g>
<g>
	<g>
		<path class="st0" d="M53.4,29.1c1.3,0,2.5,0.3,3.6,1c1.1,0.6,2,1.5,2.7,2.6c0.6,1.1,1,2.3,1,3.6c0,1.3-0.3,2.5-1,3.6
			c-0.6,1.1-1.5,2-2.6,2.6c-1.1,0.6-2.3,0.9-3.7,0.9c-2,0-3.6-0.7-5-2.1c-1.4-1.4-2.1-3.1-2.1-5.1c0-2.1,0.8-3.9,2.3-5.3
			C50,29.8,51.6,29.1,53.4,29.1z M53.4,32.4c-1.1,0-2,0.4-2.7,1.1c-0.7,0.7-1.1,1.7-1.1,2.8c0,1.2,0.4,2.2,1.1,2.9
			c0.7,0.7,1.6,1.1,2.7,1.1c1.1,0,2-0.4,2.7-1.1c0.7-0.7,1.1-1.7,1.1-2.9s-0.4-2.1-1.1-2.9C55.4,32.7,54.5,32.4,53.4,32.4z"/>
		<path class="st0" d="M67.3,29.5V31c0.6-0.6,1.3-1.1,2-1.4s1.5-0.5,2.3-0.5c1.8,0,3.3,0.7,4.5,2c1.2,1.3,1.9,3.1,1.9,5.2
			c0,2-0.6,3.7-1.9,5.1c-1.3,1.4-2.8,2.1-4.6,2.1c-0.8,0-1.5-0.1-2.2-0.4c-0.7-0.3-1.4-0.7-2-1.4v6.4h-3.4V29.5H67.3z M70.9,32.3
			c-1.1,0-2,0.4-2.7,1.1c-0.7,0.7-1.1,1.7-1.1,2.9c0,1.2,0.4,2.2,1.1,2.9c0.7,0.7,1.6,1.1,2.7,1.1c1,0,1.9-0.4,2.6-1.1
			c0.7-0.8,1.1-1.7,1.1-2.9c0-1.2-0.4-2.1-1.1-2.9C72.9,32.7,72,32.3,70.9,32.3z"/>
		<path class="st0" d="M95,37.3H84c0.2,1,0.6,1.7,1.3,2.3c0.7,0.6,1.6,0.9,2.6,0.9c1.3,0,2.4-0.4,3.3-1.3l2.9,1.4
			c-0.7,1-1.6,1.8-2.6,2.3c-1,0.5-2.2,0.7-3.6,0.7c-2.1,0-3.9-0.7-5.2-2c-1.3-1.4-2-3-2-5.1c0-2.1,0.7-3.8,2-5.2
			c1.3-1.4,3-2.1,5.1-2.1c2.2,0,3.9,0.7,5.2,2.1s2,3.2,2,5.5L95,37.3z M91.6,34.6c-0.2-0.8-0.7-1.4-1.3-1.9
			c-0.7-0.5-1.4-0.7-2.3-0.7c-1,0-1.8,0.3-2.5,0.8c-0.5,0.3-0.9,0.9-1.3,1.8L91.6,34.6L91.6,34.6z"/>
		<path class="st0" d="M98.3,29.5h3.4v1.4c0.8-0.7,1.5-1.1,2.1-1.4s1.3-0.4,1.9-0.4c1.4,0,2.5,0.5,3.4,1.4c0.8,0.8,1.2,2,1.2,3.6v9
			H107v-6c0-1.6-0.1-2.7-0.2-3.2c-0.1-0.5-0.4-0.9-0.8-1.2c-0.4-0.3-0.8-0.4-1.3-0.4c-0.7,0-1.3,0.2-1.8,0.7c-0.5,0.5-0.8,1.1-1,1.9
			c-0.1,0.4-0.1,1.3-0.1,2.8v5.5h-3.4L98.3,29.5L98.3,29.5z"/>
		<path class="st0" d="M127.6,32.2l-2.9,1.6c-0.5-0.6-1.1-1-1.6-1.2c-0.5-0.2-1.1-0.3-1.8-0.3c-1.3,0-2.3,0.4-3.1,1.1
			c-0.8,0.8-1.2,1.7-1.2,2.9c0,1.2,0.4,2.1,1.1,2.8c0.8,0.7,1.8,1.1,3,1.1c1.5,0,2.7-0.5,3.6-1.6l2.7,1.8c-1.5,1.9-3.5,2.9-6.2,2.9
			c-2.4,0-4.3-0.7-5.6-2.1c-1.4-1.4-2-3.1-2-5c0-1.3,0.3-2.5,1-3.7c0.7-1.1,1.6-2,2.8-2.6s2.5-1,4-1c1.4,0,2.6,0.3,3.7,0.8
			C126,30.5,126.9,31.3,127.6,32.2z"/>
		<path class="st0" d="M131.2,24.2h3.4v6.7c0.7-0.6,1.3-1,2-1.3c0.7-0.3,1.4-0.4,2.1-0.4c1.4,0,2.5,0.5,3.4,1.4
			c0.8,0.8,1.2,2,1.2,3.6v9h-3.4v-6c0-1.6-0.1-2.7-0.2-3.2c-0.1-0.6-0.4-1-0.8-1.3c-0.4-0.3-0.8-0.4-1.3-0.4c-0.7,0-1.3,0.2-1.8,0.7
			c-0.5,0.5-0.8,1.1-1,1.9c-0.1,0.4-0.1,1.3-0.1,2.8v5.5h-3.4L131.2,24.2L131.2,24.2z"/>
		<path class="st0" d="M157.2,29.5h3.4v13.7h-3.4v-1.4c-0.7,0.6-1.3,1.1-2,1.4c-0.7,0.3-1.4,0.4-2.2,0.4c-1.8,0-3.3-0.7-4.6-2.1
			s-1.9-3.1-1.9-5.1c0-2.1,0.6-3.8,1.9-5.2c1.2-1.3,2.8-2,4.5-2c0.8,0,1.6,0.2,2.3,0.5s1.4,0.8,2,1.4V29.5z M153.6,32.3
			c-1.1,0-1.9,0.4-2.6,1.1c-0.7,0.7-1.1,1.7-1.1,2.9c0,1.2,0.4,2.2,1.1,2.9c0.7,0.8,1.6,1.1,2.6,1.1c1.1,0,2-0.4,2.7-1.1
			c0.7-0.7,1.1-1.7,1.1-2.9c0-1.2-0.4-2.2-1.1-2.9C155.5,32.7,154.6,32.3,153.6,32.3z"/>
		<path class="st0" d="M165.9,23.9c0.6,0,1.1,0.2,1.5,0.7c0.4,0.4,0.6,1,0.6,1.6c0,0.6-0.2,1.1-0.6,1.6c-0.4,0.4-0.9,0.6-1.5,0.6
			c-0.6,0-1.1-0.2-1.6-0.7c-0.4-0.4-0.6-1-0.6-1.6c0-0.6,0.2-1.1,0.6-1.5C164.8,24.1,165.3,23.9,165.9,23.9z M164.2,29.5h3.4v13.7
			h-3.4V29.5z"/>
		<path class="st0" d="M171.2,29.5h3.4v1.4c0.8-0.7,1.5-1.1,2.1-1.4c0.6-0.3,1.3-0.4,1.9-0.4c1.4,0,2.5,0.5,3.4,1.4
			c0.8,0.8,1.2,2,1.2,3.6v9h-3.4v-6c0-1.6-0.1-2.7-0.2-3.2c-0.1-0.5-0.4-0.9-0.8-1.2c-0.4-0.3-0.8-0.4-1.3-0.4
			c-0.7,0-1.3,0.2-1.8,0.7c-0.5,0.5-0.8,1.1-1,1.9c-0.1,0.4-0.1,1.3-0.1,2.8v5.5h-3.4V29.5z"/>
	</g>
</g>
<g>
</g>
<g>
</g>
<g>
</g>
<g>
</g>
<g>
</g>
<g>
</g>
<g>
</g>
<g>
</g>
<g>
</g>
<g>
</g>
<g>
</g>
<g>
</g>
<g>
</g>
<g>
</g>
<g>
</g>
</svg>
