<?xml version="1.0" encoding="utf-8"?>
<!-- Generator: Adobe Illustrator 16.0.0, SVG Export Plug-In . SVG Version: 6.00 Build 0)  -->
<!DOCTYPE svg PUBLIC "-//W3C//DTD SVG 1.1//EN" "http://www.w3.org/Graphics/SVG/1.1/DTD/svg11.dtd">
<svg version="1.1" id="Layer_1" xmlns="http://www.w3.org/2000/svg" xmlns:xlink="http://www.w3.org/1999/xlink" x="0px" y="0px"
	 width="160px" height="60px" viewBox="0 0 160 60" enable-background="new 0 0 160 60" xml:space="preserve">
<g>
	<path fill-rule="evenodd" clip-rule="evenodd" fill="#FFFFFF" d="M69.611,23.715c-0.012,0.063-0.024,0.095-0.024,0.127
		c0,1.445-0.022,2.891,0.012,4.335c0.021,0.913,0.872,1.624,1.717,1.623c5.284-0.005,10.568-0.015,15.853-0.017
		c0.897,0,1.763-0.848,1.738-1.748c-0.031-1.151-0.01-2.303-0.012-3.455c0-0.29,0-0.58-0.001-0.875
		c-1.485,0.002-2.935,0.003-4.402,0.005c0,0.225,0.001,0.427,0.001,0.629c0,0.638-0.398,1.042-1.04,1.042
		c-2.789,0.005-5.578,0.009-8.367,0.01c-0.693,0-1.096-0.406-1.098-1.09c0-0.197,0-0.395,0-0.594
		C72.5,23.712,71.067,23.713,69.611,23.715z"/>
	<path fill-rule="evenodd" clip-rule="evenodd" fill="#4E4540" d="M71.644,45.854c0-0.152,0-0.274,0-0.396
		c-0.002-1.807-0.006-3.614-0.006-5.421c0-0.549,0.204-1.008,0.602-1.393c0.639-0.618,2.013-0.49,2.368,0.311
		c0.175,0.394,0.326,0.835,0.335,1.258c0.039,1.749,0.02,3.5,0.022,5.25c0,0.121,0,0.242,0,0.372
		c0.693-0.001,1.351-0.002,2.032-0.003c0-0.144,0-0.266,0-0.389c-0.002-1.728,0.007-3.455-0.013-5.183
		c-0.006-0.578-0.031-1.167-0.146-1.73c-0.158-0.774-0.568-1.421-1.298-1.798c-0.561-0.289-1.158-0.372-1.794-0.301
		c-0.6,0.066-1.109,0.288-1.541,0.697c-0.188,0.178-0.354,0.378-0.579,0.622c0-0.432-0.001-0.787-0.001-1.15
		c-0.686,0.001-1.344,0.002-1.997,0.003c0.004,3.097,0.007,6.172,0.011,9.253C70.307,45.855,70.95,45.854,71.644,45.854z"/>
	<path fill-rule="evenodd" clip-rule="evenodd" fill="#4E4540" d="M108.987,33.229c0.006,4.205,0.011,8.386,0.016,12.559
		c0.683-0.001,1.341-0.001,2.01-0.002c-0.002-0.817-0.005-1.607-0.001-2.397c0.001-0.105,0.009-0.237,0.068-0.313
		c0.354-0.443,0.725-0.874,1.091-1.308c0.526-0.62,1.059-1.234,1.58-1.859c0.648-0.776,1.289-1.56,1.932-2.34
		c0.271-0.329,0.542-0.659,0.858-1.045c-0.838,0.001-1.601,0.001-2.364,0.007c-0.058,0.001-0.135,0.037-0.17,0.082
		c-0.711,0.922-1.415,1.847-2.123,2.771c-0.271,0.353-0.548,0.702-0.884,1.133c-0.004-2.498-0.007-4.886-0.01-7.289
		C110.314,33.227,109.664,33.228,108.987,33.229z"/>
	<path fill-rule="evenodd" clip-rule="evenodd" fill="#4E4540" d="M84.825,37.392c-0.458-0.225-0.874-0.481-1.324-0.641
		c-1.176-0.417-2.354-0.507-3.51,0.104c-1.236,0.652-1.62,2.227-1.102,3.372c0.276,0.61,0.785,0.99,1.357,1.281
		c0.7,0.354,1.428,0.652,2.124,1.016c0.345,0.179,0.677,0.444,0.646,0.895c-0.025,0.36-0.228,0.649-0.579,0.792
		c-0.459,0.186-0.941,0.213-1.392,0.023c-0.636-0.266-1.248-0.589-1.899-0.901c-0.227,0.345-0.476,0.763-0.765,1.152
		c-0.131,0.177-0.104,0.283,0.046,0.389c0.271,0.189,0.535,0.399,0.83,0.545c1.025,0.505,2.103,0.78,3.249,0.557
		c0.601-0.116,1.171-0.321,1.618-0.782c0.44-0.455,0.675-0.983,0.754-1.616c0.093-0.738-0.051-1.384-0.544-1.94
		c-0.547-0.616-1.29-0.927-2.008-1.278c-0.476-0.233-0.957-0.463-1.398-0.752c-0.35-0.229-0.548-0.696-0.097-1.161
		c0.378-0.389,0.854-0.407,1.306-0.274c0.615,0.183,1.203,0.459,1.831,0.707C84.221,38.439,84.507,37.944,84.825,37.392z"/>
	<path fill-rule="evenodd" clip-rule="evenodd" fill="#4E4540" d="M106.746,43.251c-0.3,0.231-0.539,0.454-0.812,0.622
		c-0.972,0.597-1.982,0.38-2.54-0.313c-1.06-1.319-1.053-2.791-0.324-4.274c0.397-0.81,1.281-1.233,2.244-0.997
		c0.453,0.111,0.804,0.36,1.116,0.686c0.109,0.113,0.219,0.224,0.355,0.041c0.278-0.372,0.541-0.757,0.831-1.118
		c0.178-0.222,0.117-0.357-0.073-0.524c-1.022-0.896-2.232-1.181-3.528-0.949c-1.647,0.293-2.675,1.368-3.207,2.909
		c-0.346,0.999-0.315,2.048-0.162,3.081c0.177,1.186,0.735,2.159,1.719,2.874c0.926,0.673,1.949,0.829,3.063,0.675
		c0.991-0.137,1.744-0.646,2.421-1.359C107.47,44.138,107.105,43.691,106.746,43.251z"/>
	<path fill-rule="evenodd" clip-rule="evenodd" fill="#4E4540" d="M86.881,38.325c0.001,0.482-0.004,0.942,0.003,1.401
		c0.021,1.496,0.029,2.992,0.082,4.487c0.02,0.548,0.26,1.058,0.743,1.348c1.023,0.613,2.09,0.555,3.151,0.077
		c0.067-0.03,0.152-0.12,0.153-0.184c0.013-0.522,0.006-1.045,0.006-1.598c-0.113,0.046-0.172,0.081-0.234,0.092
		c-0.378,0.068-0.757,0.183-1.135,0.182c-0.438-0.002-0.728-0.437-0.729-0.993c-0.006-1.523-0.006-3.047-0.007-4.57
		c0-0.075,0.012-0.15,0.021-0.261c0.7-0.001,1.382-0.002,2.063-0.003c0-0.597-0.001-1.156-0.002-1.753
		c-0.696,0.001-1.378,0.002-2.095,0.003c-0.001-0.854-0.002-1.67-0.003-2.476c-0.695,0.001-1.354,0.001-2.036,0.002
		c0.001,0.837,0.002,1.646,0.003,2.485c-0.345,0.001-0.665,0.001-0.991,0.002c0.119,0.603,0.231,1.172,0.347,1.759
		C86.446,38.326,86.646,38.326,86.881,38.325z"/>
	<path fill-rule="evenodd" clip-rule="evenodd" fill="#FFFFFF" d="M73.962,22.533c-0.001-1.475-0.003-2.922-0.005-4.36
		c-1.472,0.002-2.919,0.003-4.36,0.005c0.002,1.467,0.004,2.906,0.005,4.36C71.059,22.536,72.499,22.535,73.962,22.533z"/>
	<path fill-rule="evenodd" clip-rule="evenodd" fill="#FFFFFF" d="M84.506,22.511c1.475-0.002,2.922-0.004,4.36-0.006
		c-0.002-1.471-0.004-2.919-0.005-4.36c-1.467,0.002-2.906,0.003-4.36,0.005C84.502,19.608,84.504,21.047,84.506,22.511z"/>
	<path fill-rule="evenodd" clip-rule="evenodd" fill="#4E4540" d="M112.356,42.48c0.094,0.163,0.188,0.324,0.279,0.486
		c0.511,0.903,1.021,1.808,1.535,2.709c0.032,0.056,0.105,0.125,0.161,0.126c0.738,0.008,1.478,0.004,2.288,0.003
		c-0.951-1.648-1.867-3.237-2.813-4.879C113.294,41.475,112.83,41.973,112.356,42.48z"/>
	<path fill-rule="evenodd" clip-rule="evenodd" fill="#EB2148" d="M87.593,10.877c0.585,0.255,1.074,0.605,1.24,1.27
		c0.019,0.074,0.045,0.149,0.046,0.225c0.004,1.467,0.005,2.935,0.005,4.402c0,0.031-0.013,0.063-0.023,0.113
		c-1.442,0.001-2.883,0.003-4.377,0.005c0-0.19,0-0.388,0-0.585c-0.002-0.636-0.383-1.021-1.012-1.021
		c-2.833,0.003-5.666,0.006-8.499,0.011c-0.57,0-0.983,0.411-0.994,0.986c-0.004,0.201,0,0.401,0,0.622
		c-1.467,0.001-2.908,0.003-4.402,0.005c0-0.11,0-0.229,0-0.347c-0.001-1.298,0.018-2.597-0.014-3.894
		c-0.016-0.645,0.486-1.517,1.226-1.708c0.026-0.007,0.045-0.042,0.067-0.063C76.435,10.891,82.014,10.884,87.593,10.877z"/>
	<path fill-rule="evenodd" clip-rule="evenodd" fill="#4E4540" d="M51.184,48.529c-0.005-3.962-0.01-7.924-0.015-11.905
		c0.675-0.001,1.326-0.002,2.017-0.003c0,0.42,0.001,0.852,0.001,1.284c0.384-0.35,0.718-0.714,1.109-1.001
		c1.011-0.74,2.555-0.583,3.508,0.127c1.028,0.766,1.494,1.832,1.638,3.073c0.136,1.186,0.154,2.369-0.277,3.498
		c-0.438,1.147-1.162,2.028-2.429,2.354c-1.474,0.379-2.611-0.179-3.524-1.4c0.002,1.379,0.003,2.675,0.005,3.971
		C52.539,48.527,51.862,48.528,51.184,48.529z M53.203,41.247c0.017,0.872,0.186,1.68,0.799,2.366
		c0.694,0.778,1.856,0.867,2.589,0.138c0.517-0.515,0.75-1.145,0.835-1.87c0.118-1.017,0.031-1.976-0.58-2.825
		c-0.871-1.211-2.335-1.041-3.113,0.164C53.338,39.834,53.183,40.519,53.203,41.247z"/>
	<path fill-rule="evenodd" clip-rule="evenodd" fill="#4E4540" d="M41.62,40.342c0.128-0.415,0.229-0.841,0.391-1.242
		c0.55-1.365,1.519-2.258,2.985-2.56c1.472-0.303,2.777,0.04,3.843,1.103c0.732,0.73,1.114,1.654,1.255,2.684
		c0.129,0.94,0.1,1.866-0.201,2.77c-0.503,1.506-1.49,2.537-3.057,2.892c-1.305,0.296-2.529,0.073-3.596-0.81
		c-0.91-0.752-1.387-1.724-1.557-2.87c-0.003-0.025-0.04-0.046-0.061-0.068C41.622,41.606,41.621,40.974,41.62,40.342z
		 M43.626,41.251c0.033,0.321,0.049,0.646,0.104,0.962c0.038,0.214,0.11,0.428,0.202,0.626c0.436,0.943,1.014,1.431,1.98,1.47
		c0.792,0.032,1.408-0.425,1.778-1.139c0.457-0.88,0.56-1.824,0.35-2.784c-0.171-0.783-0.509-1.484-1.259-1.897
		c-0.875-0.481-1.773-0.242-2.388,0.444C43.804,39.592,43.627,40.389,43.626,41.251z"/>
	<path fill-rule="evenodd" clip-rule="evenodd" fill="#EB2148" d="M69.611,23.715c1.456-0.002,2.889-0.003,4.376-0.005
		c0,0.199,0,0.396,0,0.594c0.002,0.684,0.405,1.09,1.098,1.09c2.789-0.001,5.578-0.005,8.367-0.01
		c0.642-0.001,1.04-0.405,1.04-1.042c0-0.202-0.001-0.404-0.001-0.629c1.468-0.002,2.917-0.003,4.402-0.005
		c0.001,0.295,0.001,0.585,0.001,0.875c0.002,1.152-0.02,2.304,0.012,3.455c0.024,0.899-0.841,1.748-1.738,1.748
		c-5.284,0.002-10.568,0.012-15.853,0.017c-0.845,0-1.695-0.71-1.717-1.623c-0.034-1.444-0.012-2.89-0.012-4.335
		C69.587,23.811,69.599,23.778,69.611,23.715z"/>
	<path fill-rule="evenodd" clip-rule="evenodd" fill="#4E4540" d="M97.459,45.803c0-0.32-0.001-0.621-0.001-0.983
		c-0.707,0.888-1.605,1.264-2.657,1.208c-1.378-0.071-2.446-0.837-2.672-2.24c-0.153-0.962-0.094-1.96,0.618-2.751
		c0.391-0.434,0.906-0.694,1.482-0.828c1.08-0.251,2.138-0.134,3.182,0.197c0.217-1.254-0.49-2.092-1.762-2.157
		c-0.743-0.038-1.446,0.173-2.121,0.473c-0.188,0.083-0.29,0.102-0.359-0.151c-0.109-0.403-0.267-0.794-0.42-1.184
		c-0.065-0.166-0.028-0.228,0.135-0.298c0.831-0.359,1.678-0.599,2.598-0.621c0.751-0.019,1.48,0.026,2.169,0.321
		c0.963,0.412,1.488,1.192,1.692,2.195c0.062,0.304,0.071,0.621,0.072,0.933c0.009,1.953,0.008,3.905,0.011,5.885
		C98.776,45.801,98.141,45.802,97.459,45.803z M97.514,41.847c-0.793-0.368-1.938-0.431-2.498-0.229
		c-0.823,0.297-1.088,1.066-0.907,1.767c0.198,0.766,0.669,1.022,1.378,1.085c0.74,0.066,1.646-0.426,1.818-1.04
		C97.449,42.914,97.451,42.359,97.514,41.847z"/>
	<path fill-rule="evenodd" clip-rule="evenodd" fill="#4E4540" d="M62.58,42.015c1.897-0.002,3.792-0.005,5.809-0.007
		c-0.025-0.458-0.019-0.878-0.078-1.288c-0.086-0.6-0.161-1.212-0.347-1.783c-0.279-0.856-0.771-1.577-1.593-2.041
		c-0.7-0.395-1.431-0.504-2.223-0.453c-0.866,0.056-1.581,0.405-2.189,0.987c-0.939,0.898-1.329,2.054-1.425,3.313
		c-0.073,0.962,0.02,1.92,0.41,2.815c0.436,1,1.126,1.759,2.162,2.187c0.809,0.335,1.629,0.396,2.483,0.263
		c1.012-0.158,1.823-0.645,2.476-1.431c-0.368-0.426-0.721-0.835-1.077-1.247C65.165,45.15,62.819,44.314,62.58,42.015z
		 M64.088,38.19c0.598-0.145,1.319,0.082,1.667,0.602c0.413,0.618,0.622,1.252,0.575,1.778c-1.263,0.002-2.5,0.003-3.737,0.005
		C62.58,39.726,63.109,38.428,64.088,38.19z"/>
	<path fill-rule="evenodd" clip-rule="evenodd" fill="#4E4540" d="M71.644,45.854c-0.694,0.001-1.337,0.002-2.006,0.003
		c-0.004-3.081-0.007-6.156-0.011-9.253c0.653-0.001,1.311-0.002,1.997-0.003c0,0.363,0.001,0.719,0.001,1.15
		c0.226-0.244,0.392-0.444,0.579-0.622c0.432-0.409,0.941-0.631,1.541-0.697c0.636-0.071,1.233,0.012,1.794,0.301
		c0.73,0.377,1.14,1.023,1.298,1.798c0.115,0.563,0.139,1.152,0.146,1.73c0.02,1.728,0.01,3.455,0.013,5.183
		c0,0.123,0,0.245,0,0.389c-0.681,0.001-1.339,0.002-2.032,0.003c0-0.13,0-0.251,0-0.372c-0.002-1.75,0.017-3.501-0.022-5.25
		c-0.009-0.423-0.16-0.864-0.335-1.258c-0.355-0.801-1.729-0.929-2.368-0.311c-0.398,0.385-0.602,0.844-0.602,1.393
		c0,1.807,0.003,3.614,0.006,5.421C71.644,45.579,71.644,45.701,71.644,45.854z"/>
	<path fill-rule="evenodd" clip-rule="evenodd" fill="#4E4540" d="M108.987,33.229c0.677-0.001,1.327-0.002,2.003-0.002
		c0.003,2.403,0.006,4.791,0.01,7.289c0.336-0.431,0.612-0.78,0.884-1.133c0.708-0.924,1.412-1.849,2.123-2.771
		c0.035-0.045,0.112-0.081,0.17-0.082c0.764-0.006,1.526-0.006,2.364-0.007c-0.316,0.386-0.587,0.716-0.858,1.045
		c-0.643,0.78-1.283,1.563-1.932,2.34c-0.521,0.625-1.054,1.239-1.58,1.859c-0.366,0.434-0.736,0.864-1.091,1.308
		c-0.06,0.075-0.067,0.207-0.068,0.313c-0.004,0.79-0.001,1.58,0.001,2.397c-0.669,0.001-1.327,0.001-2.01,0.002
		C108.998,41.614,108.993,37.434,108.987,33.229z"/>
	<path fill-rule="evenodd" clip-rule="evenodd" fill="#4E4540" d="M84.825,37.392c-0.318,0.553-0.604,1.048-0.857,1.486
		c-0.628-0.248-1.216-0.524-1.831-0.707c-0.451-0.133-0.928-0.114-1.306,0.274c-0.452,0.465-0.253,0.933,0.097,1.161
		c0.441,0.289,0.923,0.519,1.398,0.752c0.718,0.352,1.461,0.662,2.008,1.278c0.493,0.557,0.637,1.202,0.544,1.94
		c-0.079,0.633-0.313,1.161-0.754,1.616c-0.447,0.461-1.018,0.666-1.618,0.782c-1.146,0.224-2.224-0.052-3.249-0.557
		c-0.295-0.146-0.559-0.355-0.83-0.545c-0.15-0.105-0.177-0.212-0.046-0.389c0.289-0.39,0.539-0.808,0.765-1.152
		c0.651,0.313,1.263,0.636,1.899,0.901c0.45,0.189,0.933,0.162,1.392-0.023c0.352-0.143,0.554-0.432,0.579-0.792
		c0.031-0.45-0.301-0.716-0.646-0.895c-0.695-0.363-1.424-0.661-2.124-1.016c-0.573-0.291-1.081-0.671-1.357-1.281
		c-0.519-1.146-0.134-2.72,1.102-3.372c1.157-0.611,2.334-0.521,3.51-0.104C83.951,36.91,84.367,37.167,84.825,37.392z"/>
	<path fill-rule="evenodd" clip-rule="evenodd" fill="#4E4540" d="M106.746,43.251c0.359,0.44,0.724,0.887,1.104,1.353
		c-0.677,0.713-1.43,1.223-2.421,1.359c-1.114,0.154-2.138-0.002-3.063-0.675c-0.983-0.715-1.542-1.688-1.719-2.874
		c-0.153-1.033-0.184-2.082,0.162-3.081c0.532-1.541,1.56-2.616,3.207-2.909c1.296-0.231,2.506,0.054,3.528,0.949
		c0.19,0.167,0.251,0.303,0.073,0.524c-0.29,0.361-0.553,0.746-0.831,1.118c-0.137,0.183-0.246,0.072-0.355-0.041
		c-0.313-0.325-0.663-0.574-1.116-0.686c-0.963-0.236-1.847,0.188-2.244,0.997c-0.729,1.483-0.735,2.955,0.324,4.274
		c0.558,0.692,1.568,0.909,2.54,0.313C106.207,43.705,106.446,43.482,106.746,43.251z"/>
	<path fill-rule="evenodd" clip-rule="evenodd" fill="#4E4540" d="M86.881,38.325c-0.235,0.001-0.435,0.001-0.661,0.001
		c-0.115-0.587-0.228-1.156-0.347-1.759c0.326-0.001,0.646-0.001,0.991-0.002c-0.001-0.84-0.002-1.648-0.003-2.485
		c0.683-0.001,1.341-0.001,2.036-0.002c0.001,0.806,0.002,1.622,0.003,2.476c0.717-0.001,1.398-0.002,2.095-0.003
		c0.001,0.597,0.002,1.156,0.002,1.753c-0.681,0.001-1.362,0.002-2.063,0.003c-0.009,0.11-0.021,0.186-0.021,0.261
		c0.001,1.523,0.001,3.047,0.007,4.57c0.002,0.557,0.291,0.991,0.729,0.993c0.378,0.001,0.757-0.113,1.135-0.182
		c0.063-0.011,0.121-0.046,0.234-0.092c0,0.553,0.007,1.075-0.006,1.598c-0.001,0.063-0.086,0.153-0.153,0.184
		c-1.062,0.478-2.128,0.536-3.151-0.077c-0.483-0.29-0.724-0.8-0.743-1.348c-0.053-1.495-0.061-2.991-0.082-4.487
		C86.877,39.268,86.882,38.808,86.881,38.325z"/>
	<path fill-rule="evenodd" clip-rule="evenodd" fill="#EB2148" d="M73.962,22.533c-1.463,0.002-2.903,0.003-4.36,0.005
		c-0.001-1.454-0.003-2.894-0.005-4.36c1.441-0.002,2.889-0.003,4.36-0.005C73.958,19.611,73.96,21.058,73.962,22.533z"/>
	<path fill-rule="evenodd" clip-rule="evenodd" fill="#EB2148" d="M84.506,22.511c-0.002-1.464-0.004-2.903-0.005-4.361
		c1.454-0.002,2.894-0.003,4.36-0.005c0.001,1.441,0.003,2.889,0.005,4.36C87.428,22.507,85.98,22.509,84.506,22.511z"/>
	<path fill-rule="evenodd" clip-rule="evenodd" fill="#4E4540" d="M112.356,42.48c0.474-0.508,0.938-1.006,1.45-1.555
		c0.946,1.642,1.862,3.23,2.813,4.879c-0.811,0.001-1.55,0.005-2.288-0.003c-0.056-0.001-0.129-0.07-0.161-0.126
		c-0.515-0.901-1.024-1.806-1.535-2.709C112.544,42.805,112.45,42.644,112.356,42.48z"/>
</g>
</svg>
