<?xml version="1.0" encoding="utf-8"?>
<!-- Generator: Adobe Illustrator 21.0.2, SVG Export Plug-In . SVG Version: 6.00 Build 0)  -->
<svg version="1.1" id="layer" xmlns="http://www.w3.org/2000/svg" xmlns:xlink="http://www.w3.org/1999/xlink" x="0px" y="0px"
	 width="130px" height="70px" viewBox="0 0 130 70" style="enable-background:new 0 0 130 70;" xml:space="preserve">
<style type="text/css">
	.st0{fill:#ED1D24;}
</style>
<g>
	<path class="st0" d="M54.2,23.4h8.3l-4.4-7l-8,12.7h-3.7l9.8-15.3c0.4-0.6,1.1-1,1.9-1c0.8,0,1.5,0.4,1.9,1l9.8,15.3h-3.7l-1.7-2.8
		H56L54.2,23.4"/>
	<path class="st0" d="M92.2,26.3V13h-3.1v14.6c0,0.4,0.2,0.8,0.5,1.1c0.3,0.3,0.7,0.5,1.1,0.5h14.1l1.8-2.8H92.2"/>
	<path class="st0" d="M40.9,23.9c3,0,5.4-2.4,5.4-5.5c0-3-2.4-5.5-5.4-5.5H27.3v16.1h3.1V15.8h10.2c1.5,0,2.6,1.2,2.6,2.6
		c0,1.4-1.2,2.6-2.6,2.6h-8.7l9.3,8.1h4.5l-6.2-5.2L40.9,23.9"/>
	<path class="st0" d="M8.2,29.1c-4.4,0-8.1-3.6-8.1-8.1S3.8,13,8.2,13h9.4c4.5,0,8,3.6,8,8.1c0,4.5-3.6,8.1-8,8.1H8.2 M17.4,26.3
		c2.9,0,5.2-2.3,5.2-5.2c0-2.9-2.3-5.2-5.2-5.2H8.4c-2.9,0-5.2,2.3-5.2,5.2c0,2.9,2.3,5.2,5.2,5.2H17.4"/>
	<path class="st0" d="M76.3,29.1c-4.5,0-8.1-3.6-8.1-8.1s3.6-8.1,8.1-8.1h11.1l-1.8,2.8h-9.1c-2.9,0-5.2,2.3-5.2,5.2
		c0,2.9,2.3,5.2,5.2,5.2h11.2l-1.8,2.8H76.3"/>
	<path class="st0" d="M114.2,26.3c-2.4,0-4.4-1.6-5-3.8h13.3l1.8-2.8h-15.1c0.6-2.2,2.6-3.8,5-3.8h9.1l1.8-2.8H114
		c-4.4,0-8.1,3.6-8.1,8.1c0,4.5,3.6,8.1,8.1,8.1h9.6l1.8-2.8L114.2,26.3"/>
	<path class="st0" d="M126.8,14.7c0-0.8,0.6-1.4,1.4-1.4c0.8,0,1.4,0.6,1.4,1.4c0,0.8-0.6,1.4-1.4,1.4
		C127.4,16.1,126.8,15.5,126.8,14.7 M128.2,16.5c1,0,1.8-0.8,1.8-1.8s-0.8-1.8-1.8-1.8c-1,0-1.8,0.8-1.8,1.8
		C126.4,15.7,127.2,16.5,128.2,16.5 M128,13.6c0.3,0,0.4,0,0.5,0c0.3,0.1,0.4,0.5,0.4,0.6c0,0,0,0.1,0,0.2c0,0.1-0.1,0.2-0.3,0.3
		c0,0,0,0-0.1,0l0.5,0.8h-0.5l-0.4-0.8h-0.3v0.8h-0.4v-2H128 M128.2,14.5c0.1,0,0.3,0,0.3-0.1c0.1,0,0.1-0.1,0.1-0.2
		c0-0.1-0.1-0.2-0.2-0.2c-0.1,0-0.2,0-0.4,0h-0.1v0.6L128.2,14.5"/>
	<rect y="37.3" width="125.7" height="0.9"/>
	<g>
		<path d="M43.3,49.8c0-0.4-0.2-1.8-1.7-1.8c-1.7,0-2.4,1.7-2.4,3.9c0,0.6,0,3.6,2.2,3.6c1,0,1.8-0.6,1.9-2h2.4c0,0.6-0.1,1.6-1,2.5
			c-0.9,1-2.1,1.2-3.1,1.2c-3.6,0-4.8-2.7-4.8-5.3c0-3.3,1.9-5.5,4.8-5.5c2.3,0,3.9,1.4,3.9,3.5L43.3,49.8L43.3,49.8z"/>
		<polygon points="47.8,46.4 50,46.4 50,55.1 54.6,55.1 54.6,56.9 47.8,56.9 		"/>
		<path d="M60.9,46.2c1.1,0,2.7,0.3,3.7,1.4c1.1,1.3,1.3,2.9,1.3,4c0,1.5-0.5,3.2-1.3,4.1c-1.2,1.3-2.9,1.5-3.7,1.5
			c-1.4,0-2.8-0.4-3.7-1.4c-1.1-1.2-1.3-3-1.3-3.9C55.9,49,57.2,46.2,60.9,46.2 M59,54.7c0.3,0.4,0.9,0.8,1.9,0.8c0.9,0,1.5-0.3,2-1
			c0.3-0.5,0.7-1.3,0.7-3c0-0.5,0-1.2-0.3-1.9c-0.4-1.3-1.3-1.9-2.4-1.9c-0.8,0-1.5,0.3-1.9,0.9c-0.6,0.7-0.8,1.9-0.8,3.1
			C58.2,52.7,58.4,53.8,59,54.7"/>
		<path d="M70.4,46.4v6.4c0,1.1,0.1,2.6,2.3,2.6c0.4,0,1.5,0,2-0.9c0.2-0.3,0.3-0.7,0.3-1.8v-6.3h2.2v6.6c0,3.1-2.5,4.1-4.6,4.1
			c-1,0-3-0.2-3.9-1.8c-0.5-0.8-0.5-1.6-0.5-2.6v-6.3H70.4z"/>
		<path d="M79.9,46.4l3.5,0c0.6,0,2.4,0,3.6,1c1.3,1,1.8,2.6,1.8,4.1c0,3.2-1.7,4.9-3.7,5.3c-0.4,0.1-0.8,0.1-1.9,0.1h-3.3
			L79.9,46.4L79.9,46.4z M82.2,55.2c0.2,0,0.6,0,0.9,0c1,0,1.8-0.1,2.4-0.7c0.9-0.9,1-2.4,1-3c0-1.5-0.5-2.8-1.9-3.3
			c-0.5-0.1-1.1-0.2-2.4-0.2V55.2z"/>
	</g>
</g>
</svg>
