<?xml version="1.0" encoding="utf-8"?>
<!-- Generator: Adobe Illustrator 21.0.2, SVG Export Plug-In . SVG Version: 6.00 Build 0)  -->
<svg version="1.1" id="Layer_1" xmlns="http://www.w3.org/2000/svg" xmlns:xlink="http://www.w3.org/1999/xlink" x="0px" y="0px"
	 width="130px" height="70px" viewBox="0 0 130 70" style="enable-background:new 0 0 130 70;" xml:space="preserve">
<style type="text/css">
	.st0{fill:#EA1B22;}
</style>
<g>
	<path class="st0" d="M93.7,27H91v16.3h12.5l1.7-2.7H93.7L93.7,27L93.7,27z M57.2,27.8l-9.8,15.5h3.2l2.9-4.7h6.3l1.7-2.7h-6.3
		l3.4-5.4l8,12.7h3.2l-9.8-15.5C59.5,26.7,57.9,26.7,57.2,27.8z M76.1,29.6h11.2l1.7-2.7L76,27c-4.5,0-7.5,3.6-7.5,8.1
		c0,4.5,3,8.1,7.5,8.1l10.9,0l1.7-2.6H76.1c-3,0-4.8-2.5-4.8-5.5C71.3,32.1,73.1,29.6,76.1,29.6z M19,27H7.5C3,27,0,30.6,0,35.1
		s3,8.1,7.5,8.1H19c4.5,0,7.5-3.6,7.5-8.1S23.5,27,19,27z M19,40.6H7.5c-3,0-4.8-2.5-4.8-5.5s1.8-5.5,4.8-5.5H19
		c3,0,4.8,2.5,4.8,5.5S22,40.6,19,40.6z M112.8,29.6H124l1.7-2.7l-12.9,0c-4.5,0-7.5,3.6-7.5,8.1c0,4.5,3,8.1,7.5,8.1l10.9,0
		l1.7-2.6h-12.6c-2.6,0-4.2-1.8-4.7-4.2h14.1l1.7-2.7h-15.8C108.6,31.4,110.3,29.6,112.8,29.6z M41.6,36.6c2.7,0,4.8-2.2,4.8-4.8
		S44.3,27,41.6,27L28,27v16.3h3V29.6h10.6c1.2,0,2.2,1,2.2,2.2c0,1.2-1,2.2-2.2,2.2h-8.5l9.6,9.3h3.9l-6.9-6.6L41.6,36.6z
		 M128.5,26.8c-0.8,0-1.5,0.6-1.5,1.4c0,0.8,0.7,1.5,1.5,1.5c0.8,0,1.5-0.6,1.5-1.5C130,27.4,129.3,26.8,128.5,26.8z M128.5,29.4
		c-0.7,0-1.2-0.5-1.2-1.2c0-0.7,0.5-1.2,1.2-1.2c0.7,0,1.2,0.5,1.2,1.2C129.7,28.9,129.2,29.4,128.5,29.4z"/>
	<path class="st0" d="M128.8,28.3c0.2,0,0.4-0.2,0.4-0.5c0-0.3-0.2-0.5-0.6-0.5H128V29h0.3v-0.7h0.3L129,29h0.3L128.8,28.3
		L128.8,28.3z M128.2,28.1v-0.5h0.3c0.2,0,0.4,0,0.4,0.2c0,0.3-0.2,0.3-0.4,0.3L128.2,28.1L128.2,28.1L128.2,28.1z"/>
</g>
</svg>
