<?xml version="1.0" encoding="utf-8"?>
<!-- Generator: Adobe Illustrator 21.0.0, SVG Export Plug-In . SVG Version: 6.00 Build 0)  -->
<svg version="1.1" id="Layer_1" xmlns="http://www.w3.org/2000/svg" xmlns:xlink="http://www.w3.org/1999/xlink" x="0px" y="0px"
	 viewBox="0 0 160 60" style="enable-background:new 0 0 160 60;" xml:space="preserve">
<style type="text/css">
	.st0{fill:#E7202C;}
</style>
<g>
	<path class="st0" d="M69.4,19.2h8.1l-4.3-6.9l-7.9,12.5h-3.6l9.6-15c0.7-1,2.2-1.3,3.2-0.5c0.2,0.2,0.4,0.4,0.5,0.5l9.6,15h-3.5
		l-1.7-2.8h-8.2L69.4,19.2"/>
	<path class="st0" d="M106.6,21.9v-13h-3v14.3c0,0.4,0.2,0.7,0.5,1.1c0.3,0.3,0.7,0.5,1.1,0.5H119l1.8-2.8H106.6"/>
	<path class="st0" d="M56.2,19.6c2.9,0,5.4-2.5,5.3-5.4c0-2.9-2.4-5.3-5.3-5.3H43v15.8h3V11.7h10.1c1.5,0,2.5,1.1,2.5,2.5
		s-1.1,2.5-2.5,2.5c0,0,0,0-0.1,0l0,0h-8.6l9.1,7.9h4.4l-6.1-5.1H56.2"/>
	<path class="st0" d="M33.2,22c2.8,0,5.1-2.3,5.2-5.1c0-2.8-2.3-5.1-5.1-5.2h-8.9c-2.8,0-5.1,2.4-5.1,5.2s2.3,5,5.1,5.1H33.2
		 M24.2,24.7c-4.4,0-7.9-3.5-7.9-7.9s3.6-7.9,7.9-7.9h9.2c4.4,0,7.9,3.6,7.9,7.9s-3.6,7.9-7.9,7.9H24.2"/>
	<path class="st0" d="M91,24.7c-4.4,0-7.9-3.5-7.9-7.9s3.6-7.9,7.9-7.9h10.9l-1.8,2.8h-8.9c-2.8,0-5.1,2.3-5.2,5.1
		c0,2.8,2.3,5.1,5.1,5.2h11l-1.8,2.8L91,24.7"/>
	<path class="st0" d="M128.2,22c-2.3,0-4.3-1.5-4.9-3.7h13l1.8-2.8h-14.7c0.6-2.2,2.6-3.7,4.9-3.7h8.9l1.8-2.8h-10.9
		c-4.4,0-7.9,3.6-7.9,7.9s3.5,7.9,7.9,7.9h9.3l1.8-2.8L128.2,22"/>
	<path class="st0" d="M141.9,10.4c0.1,0,0.3,0,0.4-0.1c0.1,0,0.1-0.1,0.1-0.2s-0.1-0.2-0.2-0.3c-0.1,0-0.3-0.1-0.4,0h-0.1v0.5H141.9
		 M141.7,9.5c0.2,0,0.4,0,0.5,0.1c0.3,0.1,0.4,0.3,0.4,0.5c0,0,0,0.1,0,0.2c0,0.2-0.1,0.3-0.3,0.4c0,0-0.1,0-0.1,0.1l0.5,0.8h-0.5
		l-0.4-0.8h-0.3v0.7h-0.4v-2H141.7 M141.9,12.3c1,0,1.8-0.8,1.8-1.8s-0.8-1.8-1.8-1.8c-1,0-1.8,0.8-1.8,1.8
		C140.2,11.6,140.9,12.3,141.9,12.3L141.9,12.3L141.9,12.3 M140.5,10.6c0-0.8,0.6-1.4,1.4-1.4c0.8,0,1.4,0.6,1.4,1.4
		c0,0.8-0.6,1.4-1.4,1.4l0,0C141.2,12,140.5,11.3,140.5,10.6L140.5,10.6"/>
	<rect x="16.3" y="33.3" width="122.8" height="0.9"/>
	<path d="M58.3,44.2c0-0.4-0.2-1.7-1.6-1.7c-1.6,0-2.3,1.6-2.3,3.7c0,0.6,0,3.5,2.1,3.5c0.9,0,1.7-0.5,1.8-1.9h2.3
		c0,0.9-0.3,1.7-0.9,2.4c-0.8,0.7-1.8,1.2-2.9,1.1c-3.5,0-4.6-2.5-4.6-5c0-3.2,1.8-5.3,4.6-5.3c2.2,0,3.7,1.4,3.7,3.4L58.3,44.2z"/>
	<path d="M63,40.9h2.2v8.3h4.3v1.7H63C63,50.9,63,40.9,63,40.9z"/>
	<path d="M75.5,40.7c1.1,0,2.5,0.3,3.6,1.4c0.8,1.1,1.3,2.4,1.3,3.8c0,1.5-0.5,3-1.3,3.9c-1.1,1.3-2.7,1.5-3.6,1.5
		c-1.4,0-2.6-0.5-3.6-1.4c-1.1-1.2-1.3-2.8-1.3-3.7C70.7,43.5,71.9,40.7,75.5,40.7z M73.7,48.8c0.5,0.5,1.1,0.9,1.8,0.8
		c0.7,0.1,1.5-0.3,1.9-0.9c0.4-0.5,0.6-1.3,0.6-2.9c0-0.6-0.1-1.2-0.3-1.8c-0.5-1.3-1.3-1.8-2.3-1.8c-0.7,0-1.4,0.3-1.8,0.8
		c-0.5,0.7-0.7,1.8-0.7,2.9C72.9,47,73.2,48,73.7,48.8L73.7,48.8z"/>
	<path d="M85.1,40.9V47c0,1.1,0.1,2.5,2.2,2.5c0.4,0,1.4,0,1.9-0.9c0.2-0.3,0.4-0.7,0.4-1.7v-5.9h2.1v6.3c0,3-2.4,3.9-4.4,3.9
		c-1,0-2.8-0.2-3.8-1.7c-0.5-0.7-0.5-1.5-0.5-2.5v-6H85.1z"/>
	<path d="M94.7,40.9H98c0.5,0,2.3,0,3.5,0.9c1.3,0.9,1.7,2.5,1.7,3.9c0,3.1-1.6,4.7-3.6,5c-0.6,0.1-1.2,0.1-1.8,0.1h-3.1V40.9z
		 M96.9,49.3c0.3,0,0.6,0,0.8,0c0.9,0,1.7-0.1,2.4-0.7c0.8-0.8,0.9-2.4,0.9-2.8c0-1.5-0.5-2.7-1.8-3.1c-0.7-0.2-1.5-0.2-2.3-0.2
		V49.3z"/>
</g>
</svg>
