<svg width="53" height="34" viewBox="0 0 53 34" fill="none" xmlns="http://www.w3.org/2000/svg">
<path d="M44.807 29.8507C43.9931 29.6977 43.1793 29.5652 42.3654 29.3918C42.1111 29.3408 41.9382 29.3612 41.7347 29.5244C39.812 31.0337 37.6248 31.5844 35.2036 31.3192C34.1659 31.207 33.1995 30.9011 32.2839 30.4218C32.0194 30.279 31.8465 30.3198 31.6532 30.5646C29.4355 33.4608 25.2544 34.4602 21.8871 33.1549C20.4323 32.5838 19.181 31.7475 18.2451 30.4728C18.0417 30.1974 17.8382 30.1669 17.5534 30.33C16.536 30.8705 15.4679 31.2886 14.3387 31.4926C13.2502 31.6863 12.1515 31.7475 11.0426 31.666C9.7201 31.564 8.45864 31.2478 7.25822 30.6971C4.21648 29.2898 2.08014 27.0361 0.981449 23.8543C-0.198626 20.438 0.116739 17.1338 1.88685 13.9928C3.22969 11.6167 5.23379 9.95445 7.77705 8.94485C9.64889 8.20039 11.5818 8.02703 13.5655 8.23099C13.9521 8.27178 14.0945 8.12901 14.2268 7.80267C15.2746 5.07981 17.0549 2.97903 19.6185 1.5819C22.2533 0.143987 25.0611 -0.253733 27.9909 0.419334C31.7244 1.26577 34.3796 3.48892 36.1192 6.87466C36.2718 7.1602 36.3532 7.58851 36.5871 7.70069C36.8109 7.81287 37.1975 7.61911 37.5129 7.54772C41.0735 6.76248 44.5119 8.34317 46.2007 11.5759C46.5364 12.2184 46.7297 12.9527 46.9128 13.6665C46.9942 13.9928 47.1366 14.156 47.4316 14.258C48.7948 14.7577 49.9647 15.5327 50.9108 16.6341C53.4337 19.5813 53.3828 24.1806 50.8091 27.0769C49.2017 28.8513 47.2078 29.7385 44.807 29.8507Z" fill="#FF141D"/>
<path d="M22.9026 19.6135H25.3921L24.0771 17.4861L21.6595 21.3284H20.5602L23.5005 16.7186C23.5646 16.6267 23.6498 16.5514 23.7489 16.4992C23.848 16.4469 23.9581 16.4193 24.0701 16.4185C24.1821 16.4177 24.2926 16.4438 24.3925 16.4946C24.4923 16.5454 24.5785 16.6194 24.6439 16.7105L27.5924 21.3284H26.4931L25.9753 20.4693H23.4564L22.9075 19.6135H22.9026ZM34.3307 20.4693V16.465H33.3963V20.8637C33.3961 20.9248 33.4083 20.9853 33.4322 21.0416C33.4561 21.0979 33.4911 21.1487 33.5351 21.191C33.5794 21.2363 33.6322 21.2723 33.6906 21.2967C33.749 21.3212 33.8116 21.3336 33.8749 21.3333H38.122L38.6758 20.4742H34.3258L34.3307 20.4693ZM18.8826 19.7542C19.318 19.7542 19.7355 19.5809 20.0434 19.2725C20.3513 18.9641 20.5242 18.5458 20.5242 18.1096C20.5242 17.6734 20.3513 17.2551 20.0434 16.9467C19.7355 16.6383 19.318 16.465 18.8826 16.465H14.7988V21.3284H15.7315V17.3258H18.8254C19.0338 17.3258 19.2336 17.4087 19.381 17.5563C19.5283 17.7039 19.6111 17.9041 19.6111 18.1129C19.6111 18.3216 19.5283 18.5218 19.381 18.6695C19.2336 18.8171 19.0338 18.9 18.8254 18.9H16.1938L18.9806 21.3284H20.3347L18.4627 19.7542H18.8826ZM9.06189 21.3284H11.883C12.5156 21.312 13.1169 21.0487 13.5585 20.5946C14.0002 20.1405 14.2474 19.5315 14.2474 18.8975C14.2474 18.2635 14.0002 17.6546 13.5585 17.2005C13.1169 16.7464 12.5156 16.4831 11.883 16.4666H9.06189C8.73793 16.4582 8.41557 16.5149 8.11381 16.6332C7.81205 16.7516 7.53701 16.9293 7.30491 17.1559C7.0728 17.3825 6.88833 17.6533 6.76238 17.9524C6.63642 18.2515 6.57153 18.5729 6.57153 18.8975C6.57153 19.2222 6.63642 19.5435 6.76238 19.8427C6.88833 20.1418 7.0728 20.4126 7.30491 20.6392C7.53701 20.8657 7.81205 21.0435 8.11381 21.1618C8.41557 21.2802 8.73793 21.3369 9.06189 21.3284ZM11.8193 20.4726H9.12397C8.71618 20.4594 8.32949 20.2879 8.04568 19.9942C7.76187 19.7006 7.60319 19.3079 7.60319 18.8992C7.60319 18.4905 7.76187 18.0977 8.04568 17.8041C8.32949 17.5105 8.71618 17.3389 9.12397 17.3258H11.8193C12.0298 17.319 12.2395 17.3546 12.436 17.4306C12.6325 17.5066 12.8117 17.6214 12.963 17.7682C13.1144 17.915 13.2347 18.0908 13.3168 18.285C13.399 18.4793 13.4414 18.6882 13.4414 18.8992C13.4414 19.1102 13.399 19.319 13.3168 19.5133C13.2347 19.7076 13.1144 19.8834 12.963 20.0301C12.8117 20.1769 12.6325 20.2917 12.436 20.3677C12.2395 20.4437 12.0298 20.4794 11.8193 20.4726ZM29.5412 21.3284H32.4211L32.9667 20.4726H29.6049C29.3944 20.4794 29.1847 20.4437 28.9882 20.3677C28.7917 20.2917 28.6125 20.1769 28.4611 20.0301C28.3098 19.8834 28.1895 19.7076 28.1073 19.5133C28.0252 19.319 27.9828 19.1102 27.9828 18.8992C27.9828 18.6882 28.0252 18.4793 28.1073 18.285C28.1895 18.0908 28.3098 17.915 28.4611 17.7682C28.6125 17.6214 28.7917 17.5066 28.9882 17.4306C29.1847 17.3546 29.3944 17.319 29.6049 17.3258H32.341L32.8932 16.4666H29.5412C29.2172 16.4582 28.8949 16.5149 28.5931 16.6332C28.2914 16.7516 28.0163 16.9293 27.7842 17.1559C27.5521 17.3825 27.3676 17.6533 27.2417 17.9524C27.1157 18.2515 27.0508 18.5729 27.0508 18.8975C27.0508 19.2222 27.1157 19.5435 27.2417 19.8427C27.3676 20.1418 27.5521 20.4126 27.7842 20.6392C28.0163 20.8657 28.2914 21.0435 28.5931 21.1618C28.8949 21.2802 29.2172 21.3369 29.5412 21.3284ZM40.9545 20.4726C40.6123 20.4727 40.2793 20.3609 40.0063 20.1542C39.7333 19.9474 39.5351 19.657 39.4419 19.3271H43.4309L43.9798 18.4696H39.4419C39.5349 18.1396 39.733 17.849 40.0061 17.6422C40.2792 17.4354 40.6122 17.3237 40.9545 17.3241H43.6923L44.2395 16.465H40.8908C40.2582 16.4814 39.6569 16.7448 39.2153 17.1989C38.7736 17.653 38.5264 18.2619 38.5264 18.8959C38.5264 19.5299 38.7736 20.1389 39.2153 20.5929C39.6569 21.047 40.2582 21.3104 40.8908 21.3268H43.7707L44.3179 20.471H40.9529" fill="white"/>
</svg>
