<?xml version="1.0" encoding="utf-8"?>
<!-- Generator: Adobe Illustrator 21.0.0, SVG Export Plug-In . SVG Version: 6.00 Build 0)  -->
<svg version="1.1" id="Layer_1" xmlns="http://www.w3.org/2000/svg" xmlns:xlink="http://www.w3.org/1999/xlink" x="0px" y="0px"
	 viewBox="0 0 130 70" style="enable-background:new 0 0 130 70;" xml:space="preserve">
<style type="text/css">
	.st0{fill:#7D888E;}
</style>
<g>
	<path class="st0" d="M14.6,29.3c-0.2,0.2-0.4,0.4-0.7,0.6v-3.1h-2.7v24.1H14V42c4,4.5,8.5,4.1,11.5,2.2c3.6-2.2,5.2-7.1,3.9-11.6
		C27.5,26.2,19.2,23.8,14.6,29.3z M19.7,42.9c-3.6,0-5.9-3.1-5.9-7s3-7.1,6.6-7.1s6.5,3.1,6.5,7.1C26.9,39.8,23.7,42.9,19.7,42.9
		L19.7,42.9L19.7,42.9L19.7,42.9z"/>
	<path class="st0" d="M113,21.2v5.5h5.8v2.5h-5.6c0,0.6-0.1,1.1-0.1,1.6c0,2.9,0.1,5.7,0,8.5c-0.2,3.4,1.6,4.1,4.6,3.5
		c0.2-0.1,0.5-0.2,0.7-0.2c0.7,2.2,0.2,2.7-1.8,3c-4.4,0.5-6.5-1.3-6.5-5.8V29.2l-2.5-0.1v-2.3l2.5-0.2v-5.5H113L113,21.2z"/>
	<path class="st0" d="M55.8,45.2H53V26.8h2.7V31c1.9-2.9,4.1-4.8,7.4-4.6v2.9c-5.5,1.1-7.4,3.4-7.4,9.1
		C55.8,40.5,55.8,42.8,55.8,45.2z"/>
	<path class="st0" d="M80.3,19.1v10.7c-4.9-4.4-9.3-4.6-13-1.2c-3.7,3.5-4.1,9.7-0.9,13.7c1.2,1.7,3.1,2.7,5.1,3.1
		c3.6,0.7,6.3-0.7,8.8-3.7v3.4h2.6v-26H80.3L80.3,19.1z M73.6,43c-3.6-0.1-6.4-3.3-6.4-7.3s2.8-7,6.5-6.9c3.7,0.1,6.7,3.2,6.6,7.3
		C80.3,40,77.2,43.2,73.6,43L73.6,43z"/>
	<path class="st0" d="M48.2,32.3c-0.2-2.8-1.9-4.6-4.5-5.4c-3.3-0.8-6.8-0.4-9.8,1.2l0.7,2.3c3.2-1.2,5-1.5,7.1-1.2
		c2.4,0.3,4.5,2.6,3.7,5.3l-0.8-0.2c-3.1-0.6-6.2-0.9-9.2,0.4c-2.8,1.2-4.1,4.4-2.9,7.2c0.4,1,1.1,1.8,2,2.4
		c1.6,1.1,3.4,1.5,5.3,1.3c2.2-0.2,4.3-1.2,5.9-2.8l0.2,2.3h2.6c0-0.4,0.1-0.7,0.1-1.1C48.4,40.1,48.5,36.2,48.2,32.3z M42.8,42.5
		c-2.3,1.1-4.6,1.2-6.8-0.3c-1.4-1.2-1.7-3.2-0.5-4.6c0.2-0.2,0.5-0.5,0.7-0.7c2.6-1.2,5.5-1.4,8.3-0.5c0.5,0.2,0.8,0.7,0.9,1.2
		C46,39.6,44.8,41.7,42.8,42.5L42.8,42.5z"/>
	<path class="st0" d="M96.5,26.2c-5.4-0.1-9.8,4.2-9.9,9.6c-0.1,5.4,4.2,9.8,9.6,9.9s9.8-4.2,9.9-9.6v-0.1c0.1-5.3-4.1-9.7-9.4-9.8
		l0,0C96.7,26.2,96.5,26.2,96.5,26.2z M96.5,43.1c-3.8,0-6.8-3.2-6.8-7.3s2.9-7.1,6.8-7s6.8,3.1,6.8,7.2
		C103.2,40,100.2,43.1,96.5,43.1L96.5,43.1z"/>
</g>
</svg>
