<?xml version="1.0" encoding="utf-8"?>
<!-- Generator: Adobe Illustrator 16.0.0, SVG Export Plug-In . SVG Version: 6.00 Build 0)  -->
<!DOCTYPE svg PUBLIC "-//W3C//DTD SVG 1.1//EN" "http://www.w3.org/Graphics/SVG/1.1/DTD/svg11.dtd">
<svg version="1.1" id="Layer_1" xmlns="http://www.w3.org/2000/svg" xmlns:xlink="http://www.w3.org/1999/xlink" x="0px" y="0px"
	 width="185px" height="75px" viewBox="0 0 185 75" enable-background="new 0 0 185 75" xml:space="preserve">
<g>
	
		<radialGradient id="SVGID_1_" cx="-182.9668" cy="116.2725" r="0.0214" gradientTransform="matrix(2291.6716 0 0 -2218.7549 419378 257998)" gradientUnits="userSpaceOnUse">
		<stop  offset="0" style="stop-color:#34364E;stop-opacity:0.98"/>
		<stop  offset="1" style="stop-color:#0C0824"/>
	</radialGradient>
	<path fill="url(#SVGID_1_)" d="M60.534,6.406h63.932v62.188H60.534V6.406z"/>
	<path fill="#31C5F0" d="M60.534,6.406h63.932v62.188H60.534V6.406z M57.628,71.5h69.743v-68H57.628V71.5z M104.647,31.397
		c-2.296,0-3.08,1.162-3.08,2.121c0,1.046,0.523,1.773,3.603,3.371c4.563,2.208,5.986,4.33,5.986,7.439
		c0,4.649-3.545,7.148-8.34,7.148c-2.528,0-4.708-0.523-5.958-1.25c-0.203-0.087-0.232-0.232-0.232-0.465v-4.272
		c0-0.291,0.146-0.378,0.349-0.232c1.831,1.192,3.923,1.715,5.841,1.715c2.295,0,3.254-0.959,3.254-2.267
		c0-1.046-0.668-1.976-3.604-3.487c-4.126-1.976-5.841-3.981-5.841-7.323c0-3.749,2.935-6.858,8.021-6.858
		c2.499,0,4.243,0.377,5.202,0.813c0.232,0.146,0.291,0.378,0.291,0.581v3.981c0,0.232-0.145,0.377-0.436,0.291
		C108.425,31.892,106.536,31.397,104.647,31.397L104.647,31.397z M79.656,34.855c0.668,0.058,1.191,0.058,2.354,0.058
		c3.4,0,6.597-1.191,6.597-5.812c0-3.69-2.296-5.55-6.161-5.55c-1.162,0-2.267,0.058-2.79,0.087V34.855z M74.483,19.425
		c0-0.204,0.407-0.349,0.639-0.349c1.86-0.087,4.621-0.146,7.498-0.146c8.05,0,11.188,4.417,11.188,10.055
		c0,7.381-5.347,10.549-11.915,10.549c-1.104,0-1.482-0.058-2.267-0.058v11.159c0,0.232-0.087,0.349-0.349,0.349h-4.446
		c-0.232,0-0.349-0.087-0.349-0.349V19.425L74.483,19.425z"/>
</g>
</svg>
