<?xml version="1.0" encoding="utf-8"?>
<!-- Generator: Adobe Illustrator 21.0.0, SVG Export Plug-In . SVG Version: 6.00 Build 0)  -->
<svg version="1.1" id="Layer_1" xmlns="http://www.w3.org/2000/svg" xmlns:xlink="http://www.w3.org/1999/xlink" x="0px" y="0px"
	 viewBox="0 0 397 118" style="enable-background:new 0 0 397 118;" xml:space="preserve">
<style type="text/css">
	.st0{fill:#EDBD11;}
</style>
<g>
	<rect x="25" y="12.9" class="st0" width="347" height="92.2"/>
	<g>
		<path d="M60.1,80.3L60.1,80.3c-2.4,0-4.3-1.9-4.3-4.3V64.8c0-2.4,1.9-4.3,4.3-4.3l0,0c2.4,0,4.3,1.9,4.3,4.3v11.3
			C64.4,78.4,62.5,80.3,60.1,80.3z M77,79.9V60.4c0-2.4-1.9-4.3-4.3-4.3l0,0c-2.4,0-4.3,1.9-4.3,4.3v19.5c0,2.4,1.9,4.3,4.3,4.3l0,0
			C75.1,84.2,77,82.3,77,79.9z M89.6,84.2V56.3c0-2.4-1.9-4.3-4.3-4.3l0,0c-2.4,0-4.3,1.9-4.3,4.3v27.9c0,2.4,1.9,4.3,4.3,4.3l0,0
			C87.7,88.5,89.6,86.6,89.6,84.2z M102.3,88.2V51.9c0-2.4-1.9-4.3-4.3-4.3l0,0c-2.4,0-4.3,1.9-4.3,4.3v36.4c0,2.4,1.9,4.3,4.3,4.3
			l0,0C100.4,92.5,102.3,90.6,102.3,88.2z M121,42.3L64,25.7c-0.4-0.1-0.9-0.2-1.3-0.2c-2.4,0-4.5,1.9-4.5,4.5v26.9h3.4V30
			c0-0.7,0.6-1.1,1.1-1.1c0.1,0,0.2,0,0.3,0l57,16.6c0.5,0.1,0.8,0.6,0.8,1.1v35.9c0,0.7-0.6,1.1-1.1,1.1c-0.1,0-0.2,0-0.3,0
			l-13-3.8v3.5l12,3.5c0.4,0.1,0.9,0.2,1.3,0.2c2.4,0,4.5-1.9,4.5-4.5V46.6C124.2,44.6,122.9,42.9,121,42.3z M157.3,41.7
			c2.2-0.4,5.2-0.7,8.9-0.7c4.6,0,8,1.1,10.1,3c2,1.7,3.1,4.3,3.1,7.5c0,3.3-1,5.8-2.8,7.7c-2.5,2.6-6.5,3.9-11,3.9
			c-1.4,0-2.7-0.1-3.7-0.3v14.4h-4.6V41.7z M161.9,59c1,0.3,2.3,0.4,3.8,0.4c5.6,0,9-2.7,9-7.7c0-4.8-3.4-7-8.5-7
			c-2,0-3.6,0.2-4.4,0.4V59z M207.6,64.1c0,9.6-6.6,13.7-12.9,13.7c-7,0-12.4-5.1-12.4-13.3c0-8.6,5.7-13.7,12.8-13.7
			C202.6,50.8,207.6,56.2,207.6,64.1z M187.1,64.4c0,5.7,3.3,9.9,7.8,9.9c4.5,0,7.8-4.2,7.8-10c0-4.4-2.2-9.9-7.7-9.9
			C189.5,54.3,187.1,59.4,187.1,64.4z M215,51.4l3.4,13.1c0.7,2.9,1.4,5.6,1.9,8.2h0.2c0.6-2.6,1.4-5.4,2.3-8.2l4.2-13.2h3.9l4,12.9
			c1,3.1,1.7,5.8,2.3,8.4h0.2c0.4-2.6,1.1-5.3,2-8.4l3.7-13h4.6l-8.3,25.8h-4.3l-3.9-12.3c-0.9-2.9-1.7-5.4-2.3-8.5h-0.1
			c-0.6,3.1-1.4,5.8-2.3,8.5l-4.2,12.3H218l-7.8-25.8H215z M254.5,65.2c0.1,6.4,4.2,9,8.9,9c3.4,0,5.4-0.6,7.2-1.3l0.8,3.4
			c-1.7,0.7-4.5,1.6-8.6,1.6c-8,0-12.7-5.2-12.7-13s4.6-13.9,12.1-13.9c8.4,0,10.7,7.4,10.7,12.2c0,1-0.1,1.7-0.2,2.2H254.5z
			 M268.3,61.8c0.1-3-1.2-7.6-6.5-7.6c-4.8,0-6.8,4.4-7.2,7.6H268.3z M278.6,59.4c0-3-0.1-5.7-0.2-8.1h4.1l0.2,5.1h0.2
			c1.2-3.5,4-5.7,7.2-5.7c0.5,0,0.9,0.1,1.3,0.2v4.4c-0.5-0.1-1-0.2-1.6-0.2c-3.3,0-5.7,2.5-6.3,6c-0.1,0.6-0.2,1.4-0.2,2.2v13.8
			h-4.6V59.4z M307.6,41.7c2-0.4,5.2-0.7,8.5-0.7c4.6,0,7.6,0.8,9.9,2.6c1.9,1.4,3,3.5,3,6.4c0,3.5-2.3,6.5-6.1,7.9V58
			c3.4,0.9,7.4,3.7,7.4,9c0,3.1-1.2,5.4-3,7.2c-2.5,2.3-6.6,3.4-12.4,3.4c-3.2,0-5.7-0.2-7.2-0.4V41.7z M312.2,56.5h4.2
			c4.9,0,7.8-2.6,7.8-6c0-4.2-3.2-5.9-7.9-5.9c-2.1,0-3.4,0.2-4.1,0.3V56.5z M312.2,73.7c0.9,0.2,2.2,0.2,3.9,0.2
			c4.8,0,9.2-1.8,9.2-7c0-4.9-4.2-6.9-9.3-6.9h-3.8V73.7z M341.1,41.2v36h-4.6v-36H341.1z"/>
	</g>
</g>
</svg>
