<?xml version="1.0" encoding="utf-8"?>
<!-- Generator: Adobe Illustrator 21.0.2, SVG Export Plug-In . SVG Version: 6.00 Build 0)  -->
<svg version="1.1" id="Layer_1" xmlns="http://www.w3.org/2000/svg" xmlns:xlink="http://www.w3.org/1999/xlink" x="0px" y="0px"
	 viewBox="0 0 130 70" style="enable-background:new 0 0 130 70;" xml:space="preserve">
<style type="text/css">
	.st0{fill:#6D6E71;}
	.st1{fill:#6CC04A;}
</style>
<g id="XMLID_42_">
	<g id="XMLID_43_">
		<polygon id="XMLID_41_" class="st0" points="31.9,15.5 15,25.3 15,33.9 31.9,24.1 41.3,29.5 39.5,30.6 31.9,26.3 25.3,30.1 
			40.3,38.8 48.7,33.9 48.7,25.3 		"/>
		<polygon id="XMLID_38_" class="st1" points="31.9,54.5 48.7,44.7 48.7,36.1 31.9,45.9 22.4,40.5 24.3,39.4 31.9,43.7 38.5,39.9 
			23.4,31.2 15,36.1 15,44.7 		"/>
		<g id="XMLID_47_">
			<path id="XMLID_50_" class="st0" d="M65.6,28.4c1.5-2.2,3.8-3.3,6.8-3.3c2.7,0,4.9,0.9,6.6,2.8c1.7,1.9,2.5,4.2,2.5,6.9
				c0,2.8-0.8,5.1-2.5,6.9c-1.7,1.9-4,2.8-6.8,2.8c-2.9,0-5.1-1.1-6.6-3.4v10.6h-2.8V25.3h2.8V28.4z M72,27.6c-2,0-3.7,0.7-4.9,2.1
				c-1.1,1.3-1.7,3-1.7,5.1c0,2,0.6,3.7,1.7,5.1c1.2,1.4,2.8,2.1,4.9,2.1c2,0,3.7-0.7,4.9-2.1c1.2-1.3,1.8-3,1.8-5.1
				c0-2-0.6-3.7-1.8-5.1C75.7,28.3,74,27.6,72,27.6"/>
			<polygon id="XMLID_33_" class="st0" points="87.5,44.3 87.5,27.8 83.6,27.8 83.6,25.3 87.5,25.3 87.5,18.5 90.3,18.5 90.3,25.3 
				94.7,25.3 94.7,27.8 90.3,27.8 90.3,44.3 			"/>
			<path id="XMLID_32_" class="st0" d="M106.7,42c1.2,0,2.3-0.3,3.2-1c0.9-0.7,1.6-1.6,2-2.7h3.1c-0.6,1.9-1.6,3.4-3.2,4.5
				c-1.6,1.2-3.5,1.7-5.8,1.7c-2.8,0-5-0.9-6.8-2.8c-1.7-1.8-2.5-4.2-2.5-6.9c0-2.8,0.8-5.1,2.5-6.9c1.7-1.9,4-2.8,6.8-2.8
				c2.2,0,4.1,0.6,5.8,1.7c1.5,1.1,2.6,2.6,3.2,4.5h-3.1c-0.4-1.1-1.1-2-2-2.7c-0.9-0.7-2-1-3.2-1c-1.2,0-2.2,0.2-3.1,0.6
				c-0.8,0.4-1.6,0.9-2.1,1.6c-1.2,1.4-1.9,3.1-1.9,5.1c0,2,0.6,3.7,1.9,5.1C102.7,41.3,104.4,42,106.7,42"/>
		</g>
	</g>
</g>
<g>
</g>
<g>
</g>
<g>
</g>
<g>
</g>
<g>
</g>
<g>
</g>
</svg>
