<?xml version="1.0" encoding="utf-8"?>
<!-- Generator: Adobe Illustrator 21.0.0, SVG Export Plug-In . SVG Version: 6.00 Build 0)  -->
<svg version="1.1"
	 id="svg2" inkscape:version="0.43" sodipodi:docbase="/home/sdeibel" sodipodi:docname="logo-python-inkscape.svg" sodipodi:version="0.32" xmlns:cc="http://web.resource.org/cc/" xmlns:dc="http://purl.org/dc/elements/1.1/" xmlns:inkscape="http://www.inkscape.org/namespaces/inkscape" xmlns:rdf="http://www.w3.org/1999/02/22-rdf-syntax-ns#" xmlns:sodipodi="http://inkscape.sourceforge.net/DTD/sodipodi-0.dtd" xmlns:svg="http://www.w3.org/2000/svg"
	 xmlns="http://www.w3.org/2000/svg" xmlns:xlink="http://www.w3.org/1999/xlink" x="0px" y="0px" viewBox="0 0 130 70"
	 style="enable-background:new 0 0 130 70;" xml:space="preserve">
<style type="text/css">
	.st0{fill:#646464;}
	.st1{fill:url(#path1948_1_);}
	.st2{fill:url(#path1950_1_);}
	.st3{opacity:0.4438;fill:url(#path1894_1_);enable-background:new    ;}
</style>
<sodipodi:namedview  bordercolor="#666666" borderopacity="1.0" gridtolerance="10.0" guidetolerance="10.0" height="40mm" id="base" inkscape:current-layer="svg2" inkscape:cx="250.73166" inkscape:cy="67.50975" inkscape:pageopacity="0.0" inkscape:pageshadow="2" inkscape:window-height="882" inkscape:window-width="1233" inkscape:window-x="0" inkscape:window-y="6" inkscape:zoom="2.1461642" objecttolerance="10.0" pagecolor="#ffffff" units="mm" width="210mm">
	</sodipodi:namedview>
<g>
	<path id="path46" class="st0" d="M51.9,32.7c0-3.3-0.9-4.9-2.8-5c-0.7,0-1.5,0.1-2.2,0.3c-0.6,0.2-1,0.4-1.1,0.7v7.8
		c1.2,0.7,2.3,1.1,3.2,1.1C50.9,37.4,51.9,35.7,51.9,32.7z M54.2,32.9c0,1.6-0.4,3-1.1,4.1c-0.9,1.2-2,1.9-3.6,1.9
		c-1.1,0-2.4-0.3-3.6-1.1v7l-2-0.7V28.4c0.3-0.4,0.7-0.7,1.2-1.1c1.2-0.7,2.6-1.1,4.3-1.1l0,0c1.6,0,2.8,0.7,3.6,1.9
		C53.8,29.4,54.2,31,54.2,32.9z"/>
	<path id="path48" class="st0" d="M66.4,37.4c0,2.2-0.2,3.8-0.7,4.6c-0.4,0.8-1.3,1.6-2.5,2c-1.1,0.4-2.1,0.7-3.3,0.7l-0.3-1.2
		c1.2-0.2,2-0.3,2.5-0.5c1-0.3,1.6-0.8,2-1.5c0.3-0.6,0.4-1.6,0.4-3.1v-0.5c-1.4,0.7-2.8,0.9-4.3,0.9c-1,0-1.9-0.3-2.6-0.9
		c-0.8-0.7-1.2-1.6-1.2-2.5v-8.3l2-0.7v8.3c0,0.9,0.2,1.6,0.8,2s1.3,0.7,2.3,0.7c0.9,0,1.9-0.4,2.9-1.1v-9.7h2L66.4,37.4L66.4,37.4z
		"/>
	<path id="path50" class="st0" d="M74.2,38.8c-0.2,0-0.4,0-0.7,0c-1.1,0-2-0.2-2.6-0.8c-0.7-0.6-1-1.3-1-2.2v-7.9h-1.4v-1.2h1.4
		v-3.4l2-0.7v4.1h2.3v1.2h-2.3v7.8c0,0.7,0.2,1.3,0.7,1.6c0.3,0.2,0.9,0.4,1.6,0.4L74.2,38.8L74.2,38.8z"/>
	<path id="path52" class="st0" d="M86.3,38.6h-2v-7.7c0-0.8-0.2-1.5-0.6-2c-0.4-0.7-1.1-1-1.8-1c-0.9,0-2,0.5-3.4,1.5v9.2h-2V20.2
		l2-0.7V28c1.2-0.9,2.7-1.4,4.2-1.4c1.1,0,1.9,0.3,2.5,1.1c0.7,0.7,1,1.6,1,2.7L86.3,38.6L86.3,38.6z"/>
	<path id="path54" class="st0" d="M96.9,32.4c0-1.2-0.2-2.3-0.7-3.1c-0.6-1-1.5-1.6-2.6-1.6c-2.2,0.2-3.3,1.7-3.3,4.7
		c0,1.4,0.2,2.5,0.7,3.4c0.6,1.2,1.5,1.8,2.6,1.7C95.8,37.5,96.9,35.8,96.9,32.4z M99,32.4c0,1.8-0.4,3.3-1.4,4.5
		c-1,1.3-2.4,2-4.2,2c-1.7,0-3.1-0.7-4.1-2c-0.9-1.2-1.3-2.7-1.3-4.5c0-1.6,0.5-3.1,1.5-4.3c1.1-1.2,2.4-1.9,4-1.9s3,0.7,4.1,1.9
		C98.5,29.3,99,30.7,99,32.4z"/>
	<path id="path56" class="st0" d="M110.5,38.6h-2v-8.2c0-0.9-0.2-1.6-0.8-2c-0.6-0.5-1.2-0.7-2.1-0.7c-1,0-1.9,0.3-2.7,0.9v10.1h-2
		V28.4c1.1-0.8,2.2-1.4,3.2-1.6c0.9-0.2,1.7-0.3,2.5-0.3c0.5,0,0.9,0,1.3,0.2c0.8,0.2,1.5,0.5,1.9,1.1c0.6,0.6,0.8,1.2,0.8,2
		L110.5,38.6L110.5,38.6z"/>
	
		<linearGradient id="path1948_1_" gradientUnits="userSpaceOnUse" x1="3136.0137" y1="4542.21" x2="3160.4197" y2="4563.2085" gradientTransform="matrix(0.5625 0 0 0.568 -1752.7935 -2558.9961)">
		<stop  offset="0" style="stop-color:#5A9FD4"/>
		<stop  offset="1" style="stop-color:#306998"/>
	</linearGradient>
	<path id="path1948" class="st1" d="M24.1,20.3c-1.1,0-2,0.1-2.9,0.2c-2.5,0.4-3,1.4-3,3.1v2.3h6v0.7h-5.9H16c-1.7,0-3.3,1.1-3.8,3
		c-0.6,2.3-0.6,3.7,0,6.1c0.4,1.8,1.5,3,3.2,3h2.1v-2.7c0-2,1.7-3.7,3.8-3.7h6c1.6,0,3-1.4,3-3v-5.7c0-1.6-1.4-2.9-3-3.1
		C26.2,20.4,25.2,20.3,24.1,20.3z M20.9,22.1c0.7,0,1.1,0.5,1.1,1.1c0,0.7-0.5,1.1-1.1,1.1c-0.7,0-1.1-0.5-1.1-1.1
		C19.8,22.6,20.3,22.1,20.9,22.1z"/>
	
		<linearGradient id="path1950_1_" gradientUnits="userSpaceOnUse" x1="3169.7629" y1="4575.9873" x2="3161.0474" y2="4563.6563" gradientTransform="matrix(0.5625 0 0 0.568 -1752.7935 -2558.9961)">
		<stop  offset="0" style="stop-color:#FFD43B"/>
		<stop  offset="1" style="stop-color:#FFE873"/>
	</linearGradient>
	<path id="path1950" class="st2" d="M31,26.7v2.7c0,2-1.7,3.8-3.8,3.8h-6c-1.6,0-3,1.4-3,3V42c0,1.6,1.4,2.6,3,3
		c1.9,0.6,3.7,0.7,6,0c1.5-0.4,3-1.3,3-3v-2.3h-6V39h6h3c1.7,0,2.4-1.2,3-3c0.7-1.9,0.7-3.7,0-6.1c-0.4-1.7-1.2-3-3-3L31,26.7
		L31,26.7z M27.6,41.1c0.7,0,1.1,0.5,1.1,1.1s-0.5,1.1-1.1,1.1c-0.7,0-1.1-0.5-1.1-1.1C26.5,41.6,27,41.1,27.6,41.1z"/>
	<path id="text3004" sodipodi:nodetypes="ccccccccccccccccccccccc" class="st0" d="M114.4,24.8h0.3v-2.2h0.8v-0.2h-2v0.2h0.8
		L114.4,24.8 M115.9,24.8h0.3v-2l0.7,2h0.3l0.7-2v2h0.3v-2.5h-0.4l-0.7,2.1l-0.7-2.1h-0.5L115.9,24.8"/>
	
		<radialGradient id="path1894_1_" cx="-15460.4941" cy="3348.4915" r="6.5007" gradientTransform="matrix(1.749057e-08 -0.2399 1.0547 3.791546e-07 -3507.3132 -3660.1921)" gradientUnits="userSpaceOnUse">
		<stop  offset="0" style="stop-color:#B8B8B8;stop-opacity:0.498"/>
		<stop  offset="1" style="stop-color:#7F7F7F;stop-opacity:0"/>
	</radialGradient>
	
		<path id="path1894" sodipodi:cx="61.518883" sodipodi:cy="132.28575" sodipodi:rx="48.948284" sodipodi:ry="8.6066771" sodipodi:type="arc" class="st3" d="
		M32.4,48.8c0,0.8-3.6,1.6-8,1.6s-8.1-0.7-8.1-1.6s3.7-1.6,8.1-1.6S32.4,48,32.4,48.8z"/>
</g>
</svg>
