<?xml version="1.0" encoding="utf-8"?>
<!-- Generator: Adobe Illustrator 21.0.0, SVG Export Plug-In . SVG Version: 6.00 Build 0)  -->
<svg version="1.1" id="Layer_1" xmlns="http://www.w3.org/2000/svg" xmlns:xlink="http://www.w3.org/1999/xlink" x="0px" y="0px"
	 viewBox="0 0 160 60" style="enable-background:new 0 0 160 60;" xml:space="preserve">
<style type="text/css">
	.st0{fill:#F05732;}
	.st1{fill:#9E529F;}
	.st2{fill:#333333;}
</style>
<g>
	<path class="st0" d="M81.7,25.2c-0.8-0.6-1.1,2.4-2.6,2.4c-1.8,0-2.4-7.9-3.8-7.9c-0.4,0-0.5-0.2-4.8,13c-1.8,5.4,2.6,9.6,7.1,9.6
		c2.8,0,7.4-1.8,7.4-7.7C85,30.2,82.9,26.1,81.7,25.2z M77.5,39.2c-2.2,0-4-1.9-4-4.3c0-2.4,1.8-4.3,4-4.3c2.2,0,4,1.9,4,4.3
		C81.6,37.3,79.8,39.2,77.5,39.2z"/>
	<path class="st1" d="M79.9,17.8c-0.3,0-1.1,1.6-1.1,2.2c0,0.9,0.6,1.2,1.1,1.2S81,20.9,81,20C81,19.3,80.2,17.8,79.9,17.8z"/>
	<path class="st2" d="M19.3,41.8v-15h7c3.2,0,5,2.2,5,4.8c0,2.6-1.8,4.8-5,4.8h-3.8v5.4H19.3z M28.1,31.6c0-1.2-1-2-2.2-2h-3.3v4
		h3.3C27.1,33.7,28.1,32.9,28.1,31.6z M40.7,41.8v-6.1L35,26.8h3.6l3.7,6l3.7-6h3.6l-5.7,8.8v6.1C43.9,41.8,40.7,41.8,40.7,41.8z
		 M57.8,41.8V29.6h-4.3v-2.8h11.9v2.8H61v12.2C60.9,41.8,57.8,41.8,57.8,41.8z M99.2,41.8l-2.9-5.3h-2.3v5.3h-3.2v-15h6.9
		c3.1,0,5,2.1,5,4.8c0,2.6-1.7,4-3.3,4.4l3.4,5.7H99.2L99.2,41.8z M99.4,31.6c0-1.2-1-2-2.2-2h-3.3v4h3.3
		C98.5,33.7,99.4,33,99.4,31.6z M107.8,34.4c0-4.6,3.5-7.7,8-7.7c3.3,0,5.2,1.8,6.3,3.6l-2.7,1.3c-0.6-1.2-1.9-2.2-3.5-2.2
		c-2.7,0-4.7,2.1-4.7,4.9s1.9,4.9,4.7,4.9c1.6,0,2.9-1,3.5-2.2l2.7,1.3c-1,1.9-2.9,3.6-6.3,3.6C111.2,42,107.8,38.9,107.8,34.4z
		 M137.4,41.8v-6.4h-7v6.3h-3.2V26.8h3.2v5.9h7.1v-5.9h3.2v15C140.7,41.8,137.4,41.8,137.4,41.8z"/>
</g>
</svg>
