<?xml version="1.0" encoding="utf-8"?>
<!-- Generator: Adobe Illustrator 21.0.0, SVG Export Plug-In . SVG Version: 6.00 Build 0)  -->
<svg version="1.1" id="Layer_1" xmlns="http://www.w3.org/2000/svg" xmlns:xlink="http://www.w3.org/1999/xlink" x="0px" y="0px"
	 viewBox="0 0 1035 325" style="enable-background:new 0 0 1035 325;" xml:space="preserve">
<style type="text/css">
	.st0{fill:#606163;}
	.st1{fill:#61A730;}
</style>
<g>
	<path class="st0" d="M231.2,158.4c0,32.6-26.4,59-59,59c-32.6,0-59-26.4-59-59c0-32.6,26.4-59,59-59
		C204.8,99.4,231.2,125.8,231.2,158.4 M282,245.3c0,0,3.9-4.5-0.6-8.4l-24.6-21.4c11.1-16.3,17.5-36,17.5-57.2
		c0-56.4-45.7-102.2-102.2-102.2C115.7,56.2,70,101.9,70,158.4s45.7,102.2,102.2,102.2c20.7,0,39.8-6.2,55.9-16.7l27,23.4
		c0,0,4.5,3.9,8.4-0.6L282,245.3z M350.9,253.5V63.2c0-7-7-7-7-7h-30.6c-7,0-7,7-7,7v190.2c0,7,7,7,7,7h30.6
		C350.9,260.4,350.9,253.5,350.9,253.5 M426.1,82.5V62.9c0,0,0-6.7-6.7-6.7H390c0,0-6.7,0-6.7,6.7v19.7c0,0,0,6.7,6.7,6.7h29.4
		C419.4,89.2,426.1,89.2,426.1,82.5 M427.2,253.5V116.1c0-6.9-7-6.9-7-6.9h-30.1c-6.9,0-6.9,6.9-6.9,6.9v137.3c0,7,6.9,7,6.9,7h30.1
		C427.2,260.4,427.2,253.5,427.2,253.5 M556.1,169.2c-3.6-6,1.2-11,1.2-11l42.4-43.8c4.8-5-2.1-5-2.1-5H558c-7,0-11.7,5.1-11.7,5.1
		l-39.3,41.6c-4.8,5.1-4.8-1.9-4.8-1.9V63.2c0-7-7-7-7-7h-30c-6.7,0-6.7,6.7-6.7,6.7v190.5c0,7,6.9,7,6.9,7h29.7
		c6.7,0,6.7-6.7,6.7-6.7v-33.5c0-7,5.1-11.7,5.1-11.7l14-13.2l35.2,59.1c3.6,6,10.5,6,10.5,6h37.5c7,0,3.4-6,3.4-6L556.1,169.2z"/>
	<path class="st1" d="M875.5,157c0,45.2-36.6,81.9-81.8,81.9c-45.2,0-81.9-36.7-81.9-81.9c0-45.2,36.6-81.8,81.9-81.8
		C838.9,75.1,875.5,111.8,875.5,157 M943.6,259.3L906.3,228c13-20.6,20.6-44.9,20.6-71c0-73.6-59.6-133.2-133.2-133.2
		c-73.6,0-133.2,59.6-133.2,133.2c0,73.6,59.6,133.2,133.2,133.2c28.5,0,55-9,76.7-24.3l39.7,33.3c0,0,5.9,5,10.9-0.9l23.6-28.1
		C944.5,270.2,949.5,264.3,943.6,259.3"/>
	<path class="st0" d="M741.2,157c0-29,23.5-52.5,52.5-52.5c29,0,52.5,23.5,52.5,52.5c0,29-23.5,52.5-52.5,52.5
		C764.7,209.5,741.2,186,741.2,157"/>
	<path class="st0" d="M949.3,65.8h3.5c2,0,3.5-0.5,3.5-2.8c0-2-1.5-2.8-3.5-2.8h-3.5V65.8z M949.3,74.3h-1.7V58.7h5.7
		c2.7,0,4.8,1.4,4.8,4.3c0,2.5-1.3,4.1-3.7,4.3l4.4,6.9h-2.1l-4.1-6.9h-3.1L949.3,74.3L949.3,74.3z M952.2,55.4
		c-6,0-10.7,4.9-10.7,11.1c0,6.2,4.6,11.1,10.7,11.1s10.7-4.9,10.7-11.1C962.9,60.4,958.3,55.4,952.2,55.4 M939.5,66.5
		c0-7.1,5.8-12.8,12.8-12.8c7.1,0,12.8,5.8,12.8,12.8c0,7-5.7,12.8-12.8,12.8C945.2,79.3,939.5,73.5,939.5,66.5"/>
</g>
</svg>
