<?xml version="1.0" encoding="utf-8"?>
<!-- Generator: Adobe Illustrator 21.0.2, SVG Export Plug-In . SVG Version: 6.00 Build 0)  -->
<svg version="1.1" id="Layer_1" xmlns="http://www.w3.org/2000/svg" xmlns:xlink="http://www.w3.org/1999/xlink" x="0px" y="0px"
	 viewBox="0 0 130 70" style="enable-background:new 0 0 130 70;" xml:space="preserve">
<style type="text/css">
	.st0{fill-rule:evenodd;clip-rule:evenodd;fill:#5F6062;}
	.st1{fill-rule:evenodd;clip-rule:evenodd;fill:#6EB440;}
	.st2{fill-rule:evenodd;clip-rule:evenodd;fill:#6EB43F;}
</style>
<g>
	<g>
		<path class="st0" d="M49,27.7c1.7,0,3.2,0.5,4.6,1.6c1.1,0.9,1.8,2.2,2.2,3.6c0.6,2,0.5,4-0.5,5.9c-0.1,0.1,0,0.2,0.1,0.3
			c0.6,0.5,1.2,1,1.9,1.6c0.1,0.1,0.1,0.2,0,0.3c-0.6,0.7-1.2,1.4-1.8,2.1c-0.1,0.1-0.2,0.1-0.3,0c-0.6-0.5-1.2-1-1.8-1.5
			c-0.1-0.1-0.2-0.1-0.3,0c-1.1,0.8-2.4,1.2-3.7,1.2c-1.3,0.1-2.6-0.2-3.7-0.8c-1.7-0.9-2.7-2.3-3.3-4.1c-0.7-2.4-0.5-4.7,0.7-6.8
			c1.1-1.9,2.8-3,5.1-3.2C48.4,27.7,48.7,27.7,49,27.7z M52.6,35.3c0-0.3,0-0.6,0-0.8c-0.1-0.8-0.3-1.5-0.6-2.1
			c-0.6-1.1-1.6-1.7-2.8-1.7c-1.4-0.1-2.4,0.6-3.1,1.8c-0.5,1-0.7,2.1-0.6,3.2c0.1,0.8,0.2,1.5,0.6,2.2c0.4,0.8,1.1,1.4,1.9,1.6
			c1.6,0.5,3.2-0.2,4-1.7C52.5,37,52.6,36.1,52.6,35.3z"/>
		<path class="st0" d="M74.1,37.7c-0.4,0.4-0.8,0.8-1.2,1.2c-0.1,0.1-0.1,0.2-0.1,0.2c0,1,0,1.9,0,2.9c0,0.2,0,0.2-0.2,0.2
			c-0.9,0-1.7,0-2.6,0c-0.2,0-0.2,0-0.2-0.2c0-4.6,0-9.2,0-13.7c0-0.2,0.1-0.2,0.2-0.2c0.9,0,1.7,0,2.6,0c0.2,0,0.2,0,0.2,0.2
			c0,2.2,0,4.5,0,6.7c0,0.1,0,0.2,0,0.2c0.2-0.2,0.5-0.4,0.7-0.6c0.9-0.9,1.7-1.8,2.6-2.7c0.1-0.1,0.1-0.1,0.2-0.1
			c1.2,0,2.4,0,3.5,0c0,0,0,0,0.1,0c-0.3,0.3-0.5,0.6-0.8,0.8c-0.9,0.9-1.8,1.8-2.6,2.7c-0.1,0.1-0.1,0.2,0,0.3
			c1.3,2.1,2.5,4.2,3.8,6.3c0,0.1,0.1,0.1,0.1,0.2c0,0-0.1,0-0.2,0c-1,0-2.1,0-3.1,0c-0.2,0-0.2,0-0.3-0.2c-0.8-1.4-1.6-2.7-2.4-4.1
			C74.2,37.9,74.1,37.8,74.1,37.7z"/>
		<path class="st1" d="M112.9,35.3c-0.4,1.2-0.8,2.4-1.2,3.6c-0.3,1-0.7,2.1-1,3.1c0,0.1-0.1,0.2-0.2,0.2c-0.4,0-0.8,0-1.1,0
			c-0.1,0-0.2,0-0.2-0.2c-0.6-1.7-1.2-3.5-1.8-5.2c-0.4-1.3-0.9-2.6-1.3-3.8c-0.1-0.2-0.1-0.2,0.2-0.2c0.4,0,0.9,0,1.3,0
			c0.2,0,0.2,0,0.3,0.2c0.6,1.7,1.1,3.3,1.7,5c0.2,0.6,0.4,1.1,0.6,1.7c0.1-0.1,0.1-0.2,0.1-0.3c0.7-2.1,1.4-4.3,2.1-6.4
			c0.1-0.2,0.1-0.2,0.3-0.2c0.3,0,0.6,0,1,0c0.1,0,0.2,0,0.2,0.2c0.7,2.2,1.4,4.3,2.1,6.5c0,0.1,0.1,0.2,0.1,0.3
			c0.1-0.4,0.3-0.8,0.4-1.2c0.7-1.9,1.3-3.8,2-5.6c0.1-0.2,0.1-0.2,0.3-0.2c0.4,0,0.8,0,1.3,0c0.2,0,0.2,0,0.2,0.2
			c-0.7,2-1.5,3.9-2.2,5.9c-0.4,1-0.8,2.1-1.1,3.1c-0.1,0.2-0.1,0.2-0.3,0.2c-0.3,0-0.7,0-1,0c-0.2,0-0.2-0.1-0.3-0.2
			c-0.7-2.2-1.4-4.4-2.1-6.5C113,35.4,113,35.3,112.9,35.3z"/>
		<path class="st1" d="M86.1,39.8c0.5-1.5,1-3,1.5-4.4c0.7-2.3,1.5-4.5,2.2-6.8c0.2-0.5,0.2-0.5,0.7-0.5c0.4,0,0.8,0,1.1,0
			c0.3,0,0.3,0,0.2,0.3c-0.5,1.4-1,2.8-1.5,4.2c-1.1,3.1-2.2,6.3-3.3,9.4c-0.1,0.2-0.1,0.3-0.3,0.3c-0.5,0-1,0-1.5,0
			c-0.1,0-0.2-0.1-0.2-0.2c-1.1-3.3-2.3-6.7-3.4-10c-0.4-1.2-0.8-2.5-1.2-3.7c-0.1-0.2,0-0.2,0.2-0.2c0.5,0,1,0,1.5,0
			c0.2,0,0.3,0,0.3,0.2c1.2,3.7,2.4,7.5,3.6,11.2C86.1,39.6,86.1,39.7,86.1,39.8z"/>
		<path class="st0" d="M61.7,35.2c0,2.3,0,4.5,0,6.8c0,0.2,0,0.2-0.2,0.2c-0.9,0-1.8,0-2.6,0c-0.2,0-0.2-0.1-0.2-0.2
			c0-4.6,0-9.1,0-13.7c0-0.2,0-0.2,0.2-0.2c0.9,0,1.8,0,2.7,0c0.2,0,0.2,0,0.2,0.2C61.7,30.6,61.7,32.9,61.7,35.2z"/>
		<path class="st1" d="M101.7,37.7c-1.1,0-2.2,0-3.4,0c-0.2,0-0.2,0-0.2,0.2c0.1,1,0.3,1.9,1,2.6c1,0.9,2.6,1,3.6,0.2
			c0.4-0.4,0.7-0.9,0.8-1.4c0-0.2,0.1-0.2,0.3-0.2c0.4,0.1,0.8,0.1,1.2,0.2c0.2,0,0.2,0.1,0.1,0.2c-0.7,2-2.3,3.1-4.4,3
			c-2.2-0.1-3.9-1.5-4.3-3.7c-0.2-1.2-0.2-2.4,0.2-3.5c0.7-1.6,1.9-2.5,3.6-2.8c1.2-0.2,2.4,0.1,3.3,1c0.8,0.7,1.3,1.7,1.4,2.8
			c0.1,0.4,0.1,0.9,0.1,1.3c0,0.2,0,0.2-0.2,0.2C103.9,37.7,102.8,37.7,101.7,37.7z M100.8,36.6c0.8,0,1.7,0,2.5,0
			c0.2,0,0.2,0,0.2-0.2c0-0.3-0.1-0.6-0.2-0.9c-0.6-1.8-2.9-2.4-4.2-1.1c-0.6,0.5-0.8,1.2-0.9,2c0,0.2,0,0.2,0.2,0.2
			C99.2,36.6,100,36.6,100.8,36.6z"/>
		<path class="st0" d="M67.2,37c0,1.7,0,3.3,0,5c0,0.2,0,0.2-0.2,0.2c-0.9,0-1.8,0-2.6,0c-0.2,0-0.2,0-0.2-0.2c0-3.4,0-6.7,0-10.1
			c0-0.1,0-0.2,0.2-0.2c0.9,0,1.8,0,2.7,0c0.2,0,0.2,0.1,0.2,0.2C67.2,33.6,67.2,35.3,67.2,37z"/>
		<path class="st1" d="M94.6,37.5c0,1.5,0,3,0,4.5c0,0.2,0,0.2-0.2,0.2c-0.4,0-0.7,0-1.1,0c-0.2,0-0.2,0-0.2-0.2c0-1,0-1.9,0-2.9
			c0-2,0-4.1,0-6.1c0-0.2,0-0.2,0.2-0.2c0.4,0,0.7,0,1.1,0c0.2,0,0.2,0.1,0.2,0.2C94.6,34.5,94.6,36,94.6,37.5z"/>
		<path class="st0" d="M65.7,28.1c0.4,0,0.9,0,1.3,0c0.1,0,0.2,0,0.2,0.2c0,0.7,0,1.4,0,2.1c0,0.1,0,0.1-0.1,0.1c-0.9,0-1.8,0-2.7,0
			c-0.1,0-0.1,0-0.1-0.1c0-0.7,0-1.4,0-2.1c0-0.1,0.1-0.2,0.2-0.2C64.8,28.1,65.3,28.1,65.7,28.1z"/>
		<path class="st1" d="M94.6,29c0,0.3,0,0.5,0,0.8c0,0.1,0,0.1-0.1,0.1c-0.4,0-0.9,0-1.3,0c-0.1,0-0.1,0-0.1-0.1c0-0.5,0-1,0-1.6
			c0-0.1,0.1-0.1,0.2-0.1c0.4,0,0.8,0,1.2,0c0.1,0,0.2,0,0.2,0.2C94.6,28.5,94.6,28.7,94.6,29z"/>
	</g>
	<g>
		<path class="st2" d="M33.6,43.9c-0.4-0.3-0.8-0.7-1.2-1c-0.7-0.6-1.4-1.2-2.1-1.8c-0.1-0.1-0.1-0.2,0-0.3c1.5-2.2,2.1-4.7,1.8-7.4
			c-0.3-3-1.7-5.5-4.1-7.4c-2-1.6-4.3-2.4-7-2.5c-0.1,0-0.3,0-0.5,0c-1,0-2.1,0.2-3,0.6c-2.1,0.7-3.9,1.9-5.2,3.7
			c-2.2,2.9-2.8,6.1-1.9,9.5c0.6,2.5,2,4.5,4,6c1.8,1.4,3.9,2.1,6.2,2.2c1.5,0.1,2.9-0.2,4.3-0.7c1-0.4,1.9-0.9,2.8-1.5
			c0.1-0.1,0.1-0.1,0.2,0c0.6,0.5,1.3,1.1,1.9,1.6c0.5,0.4,1.1,0.9,1.6,1.3c0.1,0.1,0.1,0.1,0.2,0c0.7-0.8,1.3-1.6,2-2.4
			C33.7,44,33.7,43.9,33.6,43.9z M21.1,41.4c-3.8,0-6.8-3-6.8-6.8c0-3.8,3-6.8,6.8-6.8c3.8,0,6.8,3,6.8,6.8
			C27.9,38.3,24.8,41.4,21.1,41.4z"/>
		<path class="st0" d="M21.1,38.9c-2.4,0-4.4-2-4.4-4.4c0-2.4,2-4.3,4.4-4.3c2.4,0,4.4,1.9,4.4,4.4C25.4,37,23.5,39,21.1,38.9z"/>
	</g>
</g>
</svg>
