<?xml version="1.0" encoding="utf-8"?>
<!-- Generator: Adobe Illustrator 16.0.0, SVG Export Plug-In . SVG Version: 6.00 Build 0)  -->
<!DOCTYPE svg PUBLIC "-//W3C//DTD SVG 1.1//EN" "http://www.w3.org/Graphics/SVG/1.1/DTD/svg11.dtd">
<svg version="1.1" id="Layer_1" xmlns="http://www.w3.org/2000/svg" xmlns:xlink="http://www.w3.org/1999/xlink" x="0px" y="0px"
	 width="105px" height="65px" viewBox="0 0 105 65" enable-background="new 0 0 105 65" xml:space="preserve">
<g>
	<defs>
		<rect id="SVGID_1_" x="20.256" y="3.5" width="64.488" height="58"/>
	</defs>
	<clipPath id="SVGID_2_">
		<use xlink:href="#SVGID_1_"  overflow="visible"/>
	</clipPath>
	<g clip-path="url(#SVGID_2_)">
		<defs>
			<rect id="SVGID_3_" x="20.256" y="3.5" width="64.488" height="58"/>
		</defs>
		<clipPath id="SVGID_4_">
			<use xlink:href="#SVGID_3_"  overflow="visible"/>
		</clipPath>
		
			<path clip-path="url(#SVGID_4_)" fill="none" stroke="#3D6CB4" stroke-width="0.4702" stroke-linecap="round" stroke-linejoin="round" stroke-miterlimit="10" d="
			M75.66,59.017l-27.302,0.011c-2.037,0-3.704-1.667-3.704-3.704l-0.003-0.977"/>
		
			<path clip-path="url(#SVGID_4_)" fill="none" stroke="#3D6CB4" stroke-width="0.4702" stroke-linecap="round" stroke-linejoin="round" stroke-miterlimit="10" d="
			M44.654,35.321V7.439c0-2.038,1.667-3.704,3.704-3.704h32.447c2.037,0,3.703,1.666,3.703,3.704v47.885
			c0,2.037-1.666,3.704-3.703,3.704h-1.576"/>
		<g opacity="0.3" clip-path="url(#SVGID_4_)" enable-background="new    ">
			<g>
				<defs>
					<rect id="SVGID_5_" x="44.654" y="3.735" width="39.854" height="6.285"/>
				</defs>
				<clipPath id="SVGID_6_">
					<use xlink:href="#SVGID_5_"  overflow="visible"/>
				</clipPath>
				<path clip-path="url(#SVGID_6_)" fill="#528AC8" d="M44.654,10.02V7.439c0-2.038,1.667-3.704,3.704-3.704h32.447
					c2.037,0,3.703,1.666,3.703,3.704v2.581H44.654z"/>
			</g>
		</g>
		
			<path clip-path="url(#SVGID_4_)" fill="none" stroke="#3D6CB4" stroke-width="0.4702" stroke-linecap="round" stroke-linejoin="round" stroke-miterlimit="10" d="
			M44.654,10.02V7.439c0-2.038,1.667-3.704,3.704-3.704h32.447c2.037,0,3.703,1.666,3.703,3.704v2.581H44.654z"/>
		
			<line clip-path="url(#SVGID_4_)" fill="none" stroke="#3D6CB4" stroke-width="0.4702" stroke-linecap="round" stroke-linejoin="round" stroke-miterlimit="10" x1="49.084" y1="16.994" x2="78.234" y2="16.994"/>
		
			<line clip-path="url(#SVGID_4_)" fill="none" stroke="#3D6CB4" stroke-width="0.4702" stroke-linecap="round" stroke-linejoin="round" stroke-miterlimit="10" x1="49.084" y1="29.217" x2="69.303" y2="29.217"/>
		
			<line clip-path="url(#SVGID_4_)" fill="none" stroke="#3D6CB4" stroke-width="0.4702" stroke-linecap="round" stroke-linejoin="round" stroke-miterlimit="10" x1="49.084" y1="23.576" x2="72.123" y2="23.576"/>
		
			<polygon clip-path="url(#SVGID_4_)" fill="none" stroke="#3D6CB4" stroke-width="0.4702" stroke-linecap="round" stroke-linejoin="round" stroke-miterlimit="10" points="
			79.23,61.264 75.662,61.264 75.662,32.722 77.445,29.234 79.23,32.722 		"/>
		
			<line clip-path="url(#SVGID_4_)" fill="none" stroke="#3D6CB4" stroke-width="0.4702" stroke-linecap="round" stroke-linejoin="round" stroke-miterlimit="10" x1="75.662" y1="33.352" x2="79.23" y2="33.352"/>
		
			<line clip-path="url(#SVGID_4_)" fill="none" stroke="#3D6CB4" stroke-width="0.4702" stroke-linecap="round" stroke-linejoin="round" stroke-miterlimit="10" x1="75.662" y1="57.277" x2="79.23" y2="57.277"/>
		
			<line clip-path="url(#SVGID_4_)" fill="none" stroke="#3D6CB4" stroke-width="0.4702" stroke-linecap="round" stroke-linejoin="round" stroke-miterlimit="10" x1="75.662" y1="54.758" x2="79.23" y2="54.758"/>
		<g opacity="0.3" clip-path="url(#SVGID_4_)" enable-background="new    ">
			<g>
				<defs>
					<rect id="SVGID_7_" x="75.662" y="54.758" width="3.566" height="2.519"/>
				</defs>
				<clipPath id="SVGID_8_">
					<use xlink:href="#SVGID_7_"  overflow="visible"/>
				</clipPath>
				<rect x="75.662" y="54.758" clip-path="url(#SVGID_8_)" fill="#528AC8" width="3.566" height="2.519"/>
			</g>
		</g>
		
			<line clip-path="url(#SVGID_4_)" fill="none" stroke="#3D6CB4" stroke-width="0.4702" stroke-linecap="round" stroke-linejoin="round" stroke-miterlimit="10" x1="75.662" y1="33.352" x2="79.23" y2="33.352"/>
		
			<polygon clip-path="url(#SVGID_4_)" fill="none" stroke="#3D6CB4" stroke-width="0.4702" stroke-linecap="round" stroke-linejoin="round" stroke-miterlimit="10" points="
			79.23,61.264 75.662,61.264 75.662,32.722 77.445,29.234 79.23,32.722 		"/>
		
			<line clip-path="url(#SVGID_4_)" fill="none" stroke="#3D6CB4" stroke-width="0.4702" stroke-linecap="round" stroke-linejoin="round" stroke-miterlimit="10" x1="75.662" y1="57.277" x2="79.23" y2="57.277"/>
		
			<line clip-path="url(#SVGID_4_)" fill="none" stroke="#3D6CB4" stroke-width="0.4702" stroke-linecap="round" stroke-linejoin="round" stroke-miterlimit="10" x1="75.662" y1="54.758" x2="79.23" y2="54.758"/>
		<g opacity="0.3" clip-path="url(#SVGID_4_)" enable-background="new    ">
			<g>
				<defs>
					<rect id="SVGID_9_" x="75.662" y="29.234" width="3.568" height="4.118"/>
				</defs>
				<clipPath id="SVGID_10_">
					<use xlink:href="#SVGID_9_"  overflow="visible"/>
				</clipPath>
				<polygon clip-path="url(#SVGID_10_)" fill="#528AC8" points="79.23,33.352 75.662,33.352 75.662,32.722 77.445,29.234 
					79.23,32.722 				"/>
			</g>
		</g>
		
			<line clip-path="url(#SVGID_4_)" fill="none" stroke="#3D6CB4" stroke-width="0.4702" stroke-linecap="round" stroke-linejoin="round" stroke-miterlimit="10" x1="75.662" y1="33.352" x2="79.23" y2="33.352"/>
		
			<line clip-path="url(#SVGID_4_)" fill="none" stroke="#3D6CB4" stroke-width="0.4702" stroke-linecap="round" stroke-linejoin="round" stroke-miterlimit="10" x1="75.662" y1="57.277" x2="79.23" y2="57.277"/>
		
			<line clip-path="url(#SVGID_4_)" fill="none" stroke="#3D6CB4" stroke-width="0.4702" stroke-linecap="round" stroke-linejoin="round" stroke-miterlimit="10" x1="75.662" y1="54.758" x2="79.23" y2="54.758"/>
		
			<line clip-path="url(#SVGID_4_)" fill="none" stroke="#3D6CB4" stroke-width="0.4702" stroke-linecap="round" stroke-linejoin="round" stroke-miterlimit="10" x1="36.906" y1="23.849" x2="36.906" y2="27.339"/>
		
			<line clip-path="url(#SVGID_4_)" fill="none" stroke="#3D6CB4" stroke-width="0.4702" stroke-linecap="round" stroke-linejoin="round" stroke-miterlimit="10" x1="38.651" y1="25.594" x2="35.161" y2="25.594"/>
		
			<line clip-path="url(#SVGID_4_)" fill="none" stroke="#3D6CB4" stroke-width="0.4702" stroke-linecap="round" stroke-linejoin="round" stroke-miterlimit="10" x1="31.382" y1="9.579" x2="31.382" y2="15.41"/>
		
			<line clip-path="url(#SVGID_4_)" fill="none" stroke="#3D6CB4" stroke-width="0.4702" stroke-linecap="round" stroke-linejoin="round" stroke-miterlimit="10" x1="34.297" y1="12.495" x2="28.466" y2="12.495"/>
		
			<rect x="20.492" y="35.323" clip-path="url(#SVGID_4_)" fill="none" stroke="#3D6CB4" stroke-width="0.4702" stroke-linecap="round" stroke-linejoin="round" stroke-miterlimit="10" width="34.625" height="19.024"/>
		<g opacity="0.3" clip-path="url(#SVGID_4_)" enable-background="new    ">
			<g>
				<defs>
					<rect id="SVGID_11_" x="24.115" y="39.456" width="8.958" height="10.72"/>
				</defs>
				<clipPath id="SVGID_12_">
					<use xlink:href="#SVGID_11_"  overflow="visible"/>
				</clipPath>
				<rect x="24.115" y="39.456" clip-path="url(#SVGID_12_)" fill="#528AC8" width="8.958" height="10.72"/>
			</g>
		</g>
		
			<rect x="24.115" y="39.456" clip-path="url(#SVGID_4_)" fill="none" stroke="#3D6CB4" stroke-width="0.4702" stroke-linecap="round" stroke-linejoin="round" stroke-miterlimit="10" width="8.958" height="10.72"/>
		
			<line clip-path="url(#SVGID_4_)" fill="none" stroke="#3D6CB4" stroke-width="0.4702" stroke-linecap="round" stroke-linejoin="round" stroke-miterlimit="10" x1="37.33" y1="40.032" x2="51.905" y2="40.032"/>
		
			<line clip-path="url(#SVGID_4_)" fill="none" stroke="#3D6CB4" stroke-width="0.4702" stroke-linecap="round" stroke-linejoin="round" stroke-miterlimit="10" x1="37.33" y1="43.792" x2="47.204" y2="43.792"/>
		
			<circle clip-path="url(#SVGID_4_)" fill="none" stroke="#3D6CB4" stroke-width="0.4702" stroke-linecap="round" stroke-linejoin="round" stroke-miterlimit="10" cx="38.463" cy="48.596" r="1.062"/>
		
			<circle clip-path="url(#SVGID_4_)" fill="none" stroke="#3D6CB4" stroke-width="0.4702" stroke-linecap="round" stroke-linejoin="round" stroke-miterlimit="10" cx="43.294" cy="48.596" r="1.062"/>
		
			<circle clip-path="url(#SVGID_4_)" fill="none" stroke="#3D6CB4" stroke-width="0.4702" stroke-linecap="round" stroke-linejoin="round" stroke-miterlimit="10" cx="48.125" cy="48.596" r="1.062"/>
	</g>
</g>
</svg>
