<?xml version="1.0" encoding="utf-8"?>
<!-- Generator: Adobe Illustrator 21.0.0, SVG Export Plug-In . SVG Version: 6.00 Build 0)  -->
<svg version="1.1" id="Layer_1" xmlns="http://www.w3.org/2000/svg" xmlns:xlink="http://www.w3.org/1999/xlink" x="0px" y="0px"
	 viewBox="0 0 170 50" style="enable-background:new 0 0 170 50;" xml:space="preserve">
<style type="text/css">
	.st0{fill:#DC1935;}
	.st1{fill:#FFFFFF;}
</style>
<g>
	<g>
		<path class="st0" d="M66.8,25.7h-3.9v5.8h-1.1V18.9h5.5c2.3,0,4.1,1.2,4.1,3.4c0,1.9-1.3,3.1-3.3,3.4l3.4,5.8h-1.3L66.8,25.7z
			 M67.1,19.8h-4.2v5.1h4.2c1.8,0,3.2-0.8,3.2-2.5C70.3,20.6,68.9,19.8,67.1,19.8z"/>
		<path class="st0" d="M77.1,30.8c1.1,0,1.8-0.3,2.7-1.1l0.8,0.6c-1,0.8-1.9,1.3-3.5,1.3c-2.7,0-4.1-1.5-4.1-4.3
			c0-2.7,1.5-4.3,3.9-4.3s3.9,1.5,3.9,4.1v0.4h-6.7C73.9,29.6,75,30.8,77.1,30.8z M79.3,25.1c-0.4-0.9-1.4-1.4-2.5-1.4
			s-2.1,0.6-2.5,1.4c-0.2,0.6-0.3,0.8-0.4,1.6h5.7C79.6,25.9,79.6,25.6,79.3,25.1z"/>
		<path class="st0" d="M88.6,30.4c-0.8,1-1.8,1.2-2.9,1.2c-1.1,0-1.9-0.3-2.4-0.8c-1-0.8-1.3-2.2-1.3-3.6c0-1.3,0.3-2.7,1.3-3.6
			c0.5-0.4,1.3-0.8,2.4-0.8c1.1,0,2,0.2,2.9,1.2v-5.2h1.1v12.5h-1.1V30.4z M85.9,23.6c-2.4,0-2.7,1.8-2.7,3.6c0,1.8,0.4,3.6,2.7,3.6
			s2.7-1.8,2.7-3.6S88.3,23.6,85.9,23.6z"/>
		<path class="st0" d="M92.5,18.9h1.1v11.7h7.6v0.8h-8.7V18.9z"/>
		<path class="st0" d="M108.2,30.6c-0.8,0.7-1.6,1-2.9,1c-1.5,0-2.2-0.2-2.9-0.8c-0.5-0.4-0.7-1.1-0.7-1.7c0-1.5,1.3-2.5,3.4-2.5
			h3.2v-1c0-1.3-0.8-2.1-2.7-2.1c-1.4,0-2,0.3-2.7,1.1l-0.8-0.6c0.8-1,1.8-1.3,3.4-1.3c2.6,0,3.8,1,3.8,2.8v5.8h-1.1
			C108.2,31.4,108.2,30.6,108.2,30.6z M105.1,27.4c-1.7,0-2.5,0.6-2.5,1.7c0,1.1,0.8,1.7,2.5,1.7c0.9,0,1.7-0.1,2.4-0.6
			c0.4-0.3,0.6-0.8,0.6-1.6v-1.1H105.1z"/>
		<path class="st0" d="M114.7,31.5c-1.7,0-2.9-0.4-3.9-1.2l0.7-0.6c0.8,0.7,1.8,1.1,3.2,1.1c1.9,0,2.9-0.6,2.9-1.8
			c0-0.9-0.6-1.3-1.8-1.4l-1.6-0.1c-2-0.1-2.9-0.9-2.9-2.2c0-1.5,1.4-2.5,3.5-2.5c1.3,0,2.5,0.4,3.4,0.9l-0.7,0.6
			c-0.8-0.5-1.7-0.7-2.7-0.7c-1.6,0-2.5,0.6-2.5,1.6c0,0.9,0.6,1.3,2,1.4l1.5,0.1c1.6,0.1,2.8,0.6,2.8,2.2
			C118.6,30.6,117.1,31.5,114.7,31.5z"/>
		<path class="st0" d="M124,30.8c1.1,0,1.8-0.3,2.7-1.1l0.8,0.6c-1,0.8-1.9,1.3-3.5,1.3c-2.7,0-4.1-1.5-4.1-4.3
			c0-2.7,1.5-4.3,3.9-4.3c2.5,0,3.9,1.5,3.9,4.1v0.4h-6.7C120.8,29.6,122,30.8,124,30.8z M126.2,25.1c-0.4-0.9-1.4-1.4-2.5-1.4
			s-2.1,0.6-2.5,1.4c-0.2,0.6-0.3,0.8-0.4,1.6h5.7C126.5,25.9,126.5,25.6,126.2,25.1z"/>
		<path class="st0" d="M133.2,23.6c-1.7,0-2.6,1.2-2.6,2.6v5.3h-1.1V23h1.1v1.1c0.6-0.8,1.7-1.3,2.8-1.3c0.9,0,1.6,0.2,2.3,0.8
			l-0.8,0.6C134.5,23.8,134.1,23.6,133.2,23.6z"/>
	</g>
	<g>
		<path class="st0" d="M54.5,35.3H43.4c-2,0-3.7-1.7-3.7-3.7V20.5c0-2,1.7-3.7,3.7-3.7h11.1c2,0,3.7,1.7,3.7,3.7v11.1
			C58.2,33.7,56.5,35.3,54.5,35.3z"/>
		<g>
			<path class="st1" d="M44.9,21.9h0.7v8.3h-0.7V21.9z"/>
			<path class="st1" d="M51.3,26.4h-2.6v3.8H48v-8.3h3.6c1.5,0,2.7,0.8,2.7,2.2c0,1.3-0.8,2-2.2,2.2l2.2,3.8h-0.8L51.3,26.4z
				 M51.5,22.4h-2.8v3.4h2.8c1.2,0,2.1-0.5,2.1-1.7C53.6,22.9,52.7,22.4,51.5,22.4z"/>
			<path class="st1" d="M46.6,21.9H47v8.3h-0.4V21.9z"/>
			<path class="st1" d="M43.5,21.9h0.4v8.3h-0.4V21.9z"/>
		</g>
	</g>
</g>
</svg>
