<?xml version="1.0" encoding="utf-8"?>
<!-- Generator: Adobe Illustrator 21.0.0, SVG Export Plug-In . SVG Version: 6.00 Build 0)  -->
<svg version="1.1" id="Layer_1" xmlns="http://www.w3.org/2000/svg" xmlns:xlink="http://www.w3.org/1999/xlink" x="0px" y="0px"
	 viewBox="0 0 130 70" style="enable-background:new 0 0 130 70;" xml:space="preserve">
<style type="text/css">
	.st0{fill:#00A1E0;}
	.st1{fill:#FFFFFF;}
</style>
<g>
	<path class="st0" d="M58.5,13.8c2.5-2.6,6-4.2,9.8-4.2c5.1,0,9.6,2.9,11.9,7c2.1-0.9,4.3-1.5,6.7-1.5c9.2,0,16.7,7.5,16.7,16.8
		S96.2,48.8,87,48.8c-1.1,0-2.2-0.1-3.2-0.3c-2.1,3.7-6,6.3-10.7,6.3c-1.9,0-3.7-0.5-5.3-1.2c-2.1,4.9-7,8.5-12.8,8.5
		c-6,0-11.1-3.8-13.1-9.1c-0.9,0.2-1.8,0.3-2.6,0.3c-7,0.1-12.8-5.8-12.8-13c0-4.8,2.6-9,6.4-11.3c-0.8-1.9-1.2-3.9-1.2-6
		c0-8.3,6.7-15,15.1-15C51.5,7.9,55.8,10.2,58.5,13.8"/>
	<path class="st1" d="M37.5,36c-0.1,0.2,0,0.2,0,0.2c0.2,0.1,0.3,0.2,0.5,0.2c0.8,0.4,1.5,0.5,2.3,0.5c1.6,0,2.6-0.9,2.6-2.2l0,0
		c0-1.2-1.1-1.7-2.2-2l-0.2-0.1c-0.8-0.2-1.5-0.5-1.5-1l0,0c0-0.5,0.4-0.8,1-0.8c0.7,0,1.5,0.2,2,0.5c0,0,0.2,0.1,0.2-0.1
		c0-0.1,0.3-0.8,0.3-0.9s0-0.2-0.1-0.2c-0.6-0.4-1.4-0.6-2.2-0.6h-0.2c-1.5,0-2.5,0.9-2.5,2.2l0,0c0,1.3,1.1,1.8,2.2,2.1l0.2,0.1
		c0.8,0.2,1.4,0.5,1.4,1l0,0c0,0.5-0.5,0.9-1.1,0.9c-0.2,0-1.2,0-2-0.6c-0.1-0.1-0.2-0.1-0.2-0.2c-0.1,0-0.2-0.1-0.2,0.1L37.5,36
		L37.5,36z M60.7,36c-0.1,0.2,0,0.2,0,0.2c0.2,0.1,0.3,0.2,0.5,0.2c0.8,0.4,1.5,0.5,2.3,0.5c1.6,0,2.6-0.9,2.6-2.2l0,0
		c0-1.2-1.1-1.7-2.2-2l-0.1-0.1c-0.8-0.2-1.5-0.5-1.5-1l0,0c0-0.5,0.4-0.8,1-0.8c0.7,0,1.5,0.2,2,0.5c0,0,0.2,0.1,0.2-0.1
		c0-0.1,0.3-0.8,0.3-0.9s0-0.2-0.1-0.2c-0.6-0.4-1.4-0.6-2.2-0.6h-0.2c-1.5,0-2.5,0.9-2.5,2.2l0,0c0,1.3,1.1,1.8,2.2,2.1l0.2,0.1
		c0.8,0.2,1.4,0.5,1.4,1l0,0c0,0.5-0.5,0.9-1.1,0.9c-0.2,0-1.2,0-2-0.6c-0.1-0.1-0.2-0.1-0.2-0.2c0,0-0.2-0.1-0.2,0.1L60.7,36
		L60.7,36z M76.6,33.4c0,0.8-0.2,1.4-0.4,1.8c-0.3,0.4-0.7,0.6-1.3,0.6s-1-0.2-1.3-0.6c-0.3-0.5-0.4-1-0.4-1.8
		c0-0.8,0.2-1.4,0.4-1.8c0.3-0.4,0.7-0.6,1.3-0.6c0.6,0,1,0.2,1.3,0.6C76.4,32,76.6,32.6,76.6,33.4 M77.9,31.9
		c-0.2-0.5-0.3-0.9-0.6-1.2c-0.2-0.3-0.6-0.6-1-0.8c-0.4-0.2-0.9-0.3-1.4-0.3c-0.5,0-1,0.1-1.4,0.3c-0.4,0.2-0.8,0.5-1,0.8
		c-0.3,0.4-0.5,0.8-0.6,1.2c-0.2,0.5-0.2,0.9-0.2,1.4c0,0.5,0.1,1,0.2,1.4c0.2,0.5,0.3,0.9,0.6,1.2c0.2,0.3,0.6,0.6,1,0.8
		c0.4,0.2,0.9,0.3,1.4,0.3s1-0.1,1.4-0.3c0.4-0.2,0.8-0.5,1-0.8s0.5-0.7,0.6-1.2c0.2-0.5,0.2-0.9,0.2-1.4
		C78.1,32.8,78.1,32.4,77.9,31.9 M88.8,35.5c-0.1-0.2-0.2-0.1-0.2-0.1c-0.2,0.1-0.4,0.2-0.6,0.2s-0.5,0.1-0.7,0.1
		c-0.6,0-1.2-0.2-1.5-0.5c-0.4-0.4-0.5-1-0.5-1.8c0-0.8,0.2-1.3,0.5-1.8c0.3-0.5,0.9-0.6,1.5-0.6c0.5,0,0.9,0.1,1.4,0.2
		c0,0,0.1,0.1,0.2-0.1c0.1-0.3,0.2-0.5,0.3-0.9c0-0.1-0.1-0.2-0.1-0.2c-0.2-0.1-0.5-0.2-0.9-0.2c-0.3-0.1-0.6-0.1-1-0.1
		c-0.5,0-1.1,0.1-1.5,0.3c-0.4,0.2-0.8,0.5-1.1,0.8c-0.3,0.3-0.5,0.7-0.6,1.2c-0.2,0.5-0.2,0.9-0.2,1.4c0,1.1,0.3,2,0.9,2.6
		c0.6,0.6,1.5,1,2.6,1c0.7,0,1.4-0.2,1.9-0.3c0,0,0.1-0.1,0.1-0.2L88.8,35.5L88.8,35.5z M91.1,32.6c0.1-0.5,0.2-0.8,0.4-1.1
		c0.3-0.4,0.7-0.6,1.3-0.6c0.6,0,1,0.2,1.2,0.6c0.2,0.3,0.2,0.6,0.3,1.1H91.1L91.1,32.6z M95.6,31.7c-0.1-0.4-0.4-0.9-0.5-1.1
		c-0.3-0.3-0.5-0.5-0.9-0.6c-0.4-0.2-0.8-0.2-1.3-0.2s-1.1,0.1-1.5,0.3c-0.4,0.2-0.8,0.5-1,0.8c-0.3,0.3-0.5,0.7-0.6,1.2
		s-0.2,0.9-0.2,1.5c0,0.5,0.1,1,0.2,1.5c0.2,0.5,0.4,0.9,0.6,1.2c0.3,0.3,0.7,0.5,1.2,0.8c0.5,0.2,1,0.2,1.6,0.2
		c1.3,0,2-0.3,2.2-0.5c0.1,0,0.1-0.1,0-0.2l-0.3-0.9c-0.1-0.2-0.2-0.1-0.2-0.1c-0.3,0.2-0.8,0.3-1.9,0.3c-0.7,0-1.2-0.2-1.5-0.5
		c-0.3-0.3-0.5-0.8-0.5-1.5h4.5c0,0,0.2,0,0.2-0.2C95.7,33.5,95.9,32.7,95.6,31.7 M55.3,32.6c0.1-0.5,0.2-0.8,0.4-1.1
		c0.3-0.4,0.7-0.6,1.3-0.6s1,0.2,1.2,0.6c0.2,0.3,0.2,0.6,0.3,1.1H55.3z M59.7,31.7c-0.1-0.4-0.4-0.9-0.5-1.1
		c-0.3-0.3-0.5-0.5-0.9-0.6c-0.4-0.2-0.8-0.2-1.3-0.2c-0.5,0-1.1,0.1-1.5,0.3c-0.4,0.2-0.8,0.5-1,0.8c-0.3,0.3-0.5,0.7-0.6,1.2
		s-0.2,0.9-0.2,1.5c0,0.5,0.1,1,0.2,1.5c0.2,0.5,0.4,0.9,0.6,1.2c0.3,0.3,0.7,0.5,1.2,0.8c0.5,0.2,1,0.2,1.6,0.2
		c1.3,0,2-0.3,2.2-0.5c0.1,0,0.1-0.1,0-0.2l-0.3-0.9c-0.1-0.2-0.2-0.1-0.2-0.1c-0.3,0.2-0.8,0.3-1.9,0.3c-0.7,0-1.2-0.2-1.5-0.5
		c-0.3-0.3-0.5-0.8-0.5-1.5h4.5c0,0,0.2,0,0.2-0.2C59.8,33.5,60,32.7,59.7,31.7 M45.5,35.5c-0.2-0.2-0.2-0.2-0.2-0.2
		c-0.1-0.2-0.2-0.3-0.2-0.6c0-0.4,0.2-0.7,0.4-0.9c0,0,0.4-0.3,1.3-0.3c0.6,0,1.2,0.1,1.2,0.1v2l0,0c0,0-0.5,0.2-1.2,0.2
		C46,35.8,45.5,35.5,45.5,35.5 M47.3,32.4c-0.2,0-0.4,0-0.7,0c-0.4,0-0.8,0.1-1.1,0.2c-0.4,0.1-0.7,0.2-0.9,0.5
		c-0.2,0.2-0.5,0.5-0.6,0.8s-0.2,0.6-0.2,1c0,0.4,0.1,0.8,0.2,1c0.2,0.3,0.3,0.5,0.6,0.7c0.2,0.2,0.5,0.3,0.9,0.4
		c0.4,0.1,0.8,0.2,1.2,0.2c0.5,0,0.9,0,1.4-0.1c0.5-0.1,1-0.2,1.2-0.2c0.1,0,0.2-0.1,0.3-0.1s0.1-0.2,0.1-0.2v-4.1
		c0-0.9-0.2-1.5-0.7-2c-0.5-0.4-1.2-0.6-2.1-0.6c-0.3,0-0.9,0.1-1.2,0.1c0,0-1,0.2-1.4,0.5c0,0-0.1,0.1-0.1,0.2l0.3,0.9
		c0.1,0.1,0.2,0.1,0.2,0.1s0,0,0.1,0c0.9-0.5,1.9-0.5,1.9-0.5c0.5,0,0.9,0.1,1.1,0.3c0.2,0.2,0.4,0.5,0.4,1.1v0.2
		C47.7,32.4,47.3,32.4,47.3,32.4 M83.5,30c0-0.1,0-0.2-0.1-0.2c-0.1,0-0.5-0.1-0.8-0.2c-0.5,0-0.9,0.1-1.2,0.2
		c-0.3,0.2-0.6,0.3-0.8,0.5v-0.5c0-0.1-0.1-0.2-0.2-0.2h-1.2c-0.1,0-0.2,0.1-0.2,0.2v6.7c0,0.1,0.1,0.2,0.2,0.2h1.2
		c0.1,0,0.2-0.1,0.2-0.2v-3.3c0-0.5,0.1-0.9,0.2-1.2c0.1-0.3,0.2-0.5,0.4-0.7c0.2-0.2,0.4-0.2,0.5-0.3C82,31,82.2,31,82.4,31
		c0.2,0,0.5,0.1,0.5,0.1c0.1,0,0.2-0.1,0.2-0.2C83.3,30.8,83.4,30.2,83.5,30"/>
	<path class="st1" d="M72.4,26.9c-0.2-0.1-0.3-0.1-0.5-0.1s-0.4-0.1-0.6-0.1c-0.8,0-1.5,0.2-1.9,0.7s-0.8,1.2-0.9,2l-0.1,0.3h-1
		c0,0-0.2,0-0.2,0.2l-0.2,0.9c0,0.1,0,0.2,0.2,0.2h1l-0.9,5.6c-0.1,0.5-0.2,0.9-0.2,1.1c-0.1,0.3-0.2,0.5-0.3,0.6s-0.2,0.2-0.4,0.3
		s-0.3,0.1-0.5,0.1c-0.1,0-0.2,0-0.4-0.1c-0.1,0-0.2-0.1-0.2-0.1c0,0-0.1-0.1-0.2,0.1c0,0.1-0.3,0.9-0.3,0.9c0,0.1,0,0.2,0.1,0.2
		c0.2,0.1,0.2,0.1,0.4,0.2c0.2,0.1,0.5,0.1,0.6,0.1c0.4,0,0.8-0.1,1.1-0.2c0.3-0.1,0.6-0.3,0.9-0.5c0.2-0.3,0.4-0.6,0.6-1
		c0.2-0.4,0.3-0.9,0.4-1.5l1-5.7h1.4c0,0,0.2,0,0.2-0.2l0.2-0.9c0-0.1,0-0.2-0.2-0.2h-1.5c0,0,0.1-0.5,0.2-1
		c0.1-0.2,0.2-0.4,0.3-0.5c0.1-0.1,0.2-0.2,0.4-0.2c0.2-0.1,0.3-0.1,0.5-0.1s0.2,0,0.4,0s0.2,0.1,0.2,0.1c0.2,0.1,0.2,0,0.2-0.1
		l0.3-0.9C72.6,27,72.4,27,72.4,26.9 M52.4,36.7c0,0.1-0.1,0.2-0.2,0.2h-1.2c-0.1,0-0.2-0.1-0.2-0.2v-9.6c0-0.1,0.1-0.2,0.2-0.2h1.2
		c0.1,0,0.2,0.1,0.2,0.2V36.7z"/>
</g>
</svg>
