<?xml version="1.0" encoding="utf-8"?>
<!-- Generator: Adobe Illustrator 21.0.2, SVG Export Plug-In . SVG Version: 6.00 Build 0)  -->
<svg version="1.1" id="Layer_1" xmlns="http://www.w3.org/2000/svg" xmlns:xlink="http://www.w3.org/1999/xlink" x="0px" y="0px"
	 width="130px" height="70px" viewBox="0 0 130 70" style="enable-background:new 0 0 130 70;" xml:space="preserve">
<style type="text/css">
	.st0{fill:#022169;}
	.st1{fill:#FFFFFF;}
</style>
<g>
	<polyline class="st0" points="35,49.8 65.3,49.8 95,20.2 35,20.2 35,49.8 	"/>
	<path class="st1" d="M70.6,25.7h-5.9v14l-5.2-14h-5.1L50,37.5c-0.5-3-3.5-4-5.9-4.7c-1.6-0.5-3.3-1.3-3.3-2.1
		c0-0.7,0.9-1.3,2.7-1.2c1.2,0.1,2.2,0.2,4.3,1.2l2.1-3.6c-1.9-1-4.5-1.6-6.7-1.6h0c-2.5,0-4.6,0.8-5.9,2.2
		c-0.9,0.9-1.4,2.1-1.4,3.4c0,1.8,0.6,3.1,2,4.1c1.2,0.9,2.7,1.4,4,1.8c1.6,0.5,3,0.9,3,1.9c0,0.3-0.1,0.7-0.4,0.9
		c-0.4,0.4-1,0.6-1.9,0.6c-1.7,0-2.9-0.2-4.9-1.4l-1.8,3.6c2,1.1,4.3,1.8,6.7,1.8l0.3,0c2.1,0,3.7-0.6,5.1-1.7
		c0.1-0.1,0.1-0.1,0.2-0.2l-0.6,1.6h5.4l0.9-2.7c0.9,0.3,2,0.5,3.2,0.5c1.1,0,2.2-0.2,3.1-0.5l0.9,2.7h8.7v-5.7h1.9
		c4.6,0,7.3-2.3,7.3-6.3C78.9,27.8,76.3,25.7,70.6,25.7 M57,37.8c-0.7,0-1.3-0.1-1.9-0.3l1.9-5.9h0l1.8,5.9
		C58.3,37.6,57.6,37.8,57,37.8z M71,34.4h-1.3v-4.8H71c1.7,0,3.1,0.6,3.1,2.4C74.1,33.8,72.7,34.4,71,34.4"/>
	<path class="st0" d="M72.6,47.9c0-0.9,0.7-1.6,1.6-1.6c0.9,0,1.6,0.7,1.6,1.6c0,0.9-0.7,1.6-1.6,1.6C73.3,49.5,72.6,48.8,72.6,47.9
		 M74.2,49.8c1,0,1.9-0.8,1.9-1.9c0-1.1-0.9-1.9-1.9-1.9c-1.1,0-2,0.8-2,1.9C72.2,49,73.1,49.8,74.2,49.8z M73.8,48.1h0.4l0.6,1h0.4
		l-0.6-1c0.3,0,0.6-0.2,0.6-0.6c0-0.4-0.3-0.6-0.8-0.6h-0.8V49h0.3C73.8,49,73.8,48.1,73.8,48.1z M73.8,47.8v-0.7h0.5
		c0.2,0,0.5,0.1,0.5,0.3c0,0.3-0.3,0.4-0.5,0.4H73.8z"/>
</g>
</svg>
