<?xml version="1.0" encoding="utf-8"?>
<!-- Generator: Adobe Illustrator 21.0.0, SVG Export Plug-In . SVG Version: 6.00 Build 0)  -->
<svg version="1.1" id="Layer_1" xmlns="http://www.w3.org/2000/svg" xmlns:xlink="http://www.w3.org/1999/xlink" x="0px" y="0px"
	 viewBox="0 0 130 70" style="enable-background:new 0 0 130 70;" xml:space="preserve">
<style type="text/css">
	.st0{fill:none;}
	.st1{fill:#007DC3;}
</style>
<g>
	<rect x="18.5" y="15.7" class="st0" width="93" height="38.6"/>
	<g>
		<path d="M50.8,37.6c0.1,3.5,2.9,4.6,5.9,4.6c2.3,0,5.4-0.6,5.4-3.6c0-3.1-3.6-3.6-7.2-4.4c-3.6-0.9-7.2-2.1-7.2-6.7
			c0-4.8,4.4-6.8,8.3-6.8c4.9,0,8.8,1.6,9.1,7.5h-3.6c-0.3-3.1-2.8-4-5.2-4c-2.2,0-4.7,0.6-4.7,3.1c0,2.8,3.9,3.3,7.2,4.1
			c3.6,0.9,7.2,2.1,7.2,6.8c-0.1,5.6-5,7.4-9.5,7.4c-5,0-9.2-2.1-9.4-8.1H50.8L50.8,37.6z"/>
		<path d="M81.6,36.8c0,2.1-1.9,5.4-6.8,5.4c-2.2,0-4.3-0.9-4.3-3.5c0-2.9,2.1-3.9,4.4-4.3c2.4-0.5,5.2-0.5,6.7-1.6V36.8L81.6,36.8z
			 M87.5,42.1c-0.5,0.2-0.9,0.2-1.1,0.2c-1.1,0-1.1-0.9-1.1-2.6V27.3c0-5.6-4.4-6.6-8.4-6.6c-4.9,0-9.2,2.1-9.4,8H71
			c0.1-3.5,2.4-4.5,5.6-4.5c2.3,0,4.9,0.6,4.9,3.9c0,2.9-3.4,2.6-7.5,3.5c-3.7,0.8-7.5,1.9-7.5,7.4c0,4.7,3.3,6.7,7.4,6.7
			c3.1,0,5.8-1.1,7.8-3.7c0,2.6,1.2,3.7,3.1,3.7c1.1,0,1.9-0.2,2.6-0.6L87.5,42.1L87.5,42.1z"/>
		<path d="M90.9,37.6c0.1,3.5,2.9,4.6,5.9,4.6c2.3,0,5.4-0.6,5.4-3.6c0-3.1-3.6-3.6-7.2-4.4c-3.6-0.9-7.2-2.1-7.2-6.7
			c0-4.8,4.4-6.8,8.3-6.8c4.9,0,8.8,1.6,9.1,7.5h-3.6c-0.3-3.1-2.8-4-5.2-4c-2.2,0-4.7,0.6-4.7,3.1c0,2.8,3.9,3.3,7.2,4.1
			c3.6,0.9,7.2,2.1,7.2,6.8c0,5.7-4.9,7.5-9.4,7.5c-5,0-9.2-2.1-9.4-8.1L90.9,37.6L90.9,37.6z"/>
	</g>
	<g>
		<g>
			<g>
				<path class="st1" d="M35.4,27.8l-0.6-0.7c-0.9-1-2.2-1-3.2-0.1s-1.4,2.2-0.5,3.3c0,0,0.1,0.1,0.3,0.4"/>
				<path class="st1" d="M31.3,30.5c1.9,2.3,4.5,5.4,4.5,5.4c3.2,3.9,1.8,8.8-2.6,11.5C29.4,49.9,22.3,49,19.8,45
					c1.9,5.7,8.2,9.4,15.3,7.6c6.2-1.5,12.9-9.4,5.4-18.4L35,27.5"/>
			</g>
			<path class="st1" d="M31.9,38.9c-1.9-2.2-4.1-5-4.1-5c-3.2-3.9-1.8-8.8,2.6-11.6c3.9-2.4,10.9-1.6,13.4,2.4
				c-1.9-5.6-8.3-9.2-15.3-7.5c-6.2,1.6-13,9.4-5.6,18.5l5.3,6.4"/>
			<path class="st1" d="M27.4,41.1l1.3,1.5c0.9,1,2.2,1,3.2,0.1c1-0.9,1.4-2.2,0.5-3.3c0,0-0.5-0.6-1.2-1.4"/>
		</g>
	</g>
	<g>
		<path d="M104.6,45.1c0-0.6,0.5-1.1,1.1-1.1c0.6,0,1.1,0.5,1.1,1.1s-0.5,1.1-1.1,1.1C105.1,46.3,104.6,45.8,104.6,45.1z
			 M105.7,46.6c0.8,0,1.4-0.6,1.4-1.4c0-0.9-0.6-1.4-1.4-1.4c-0.8,0-1.4,0.6-1.4,1.4S104.9,46.6,105.7,46.6z M105.4,45.2h0.3
			l0.4,0.7h0.3l-0.5-0.7c0.3,0,0.4-0.1,0.4-0.4c0-0.3-0.2-0.5-0.6-0.5h-0.6v1.6h0.3L105.4,45.2L105.4,45.2z M105.4,45v-0.5h0.4
			c0.1,0,0.4,0,0.4,0.3c0,0.3-0.2,0.3-0.4,0.3C105.7,45,105.4,45,105.4,45z"/>
	</g>
	<g>
		<path d="M44.7,45.1c0-0.6,0.5-1.1,1.1-1.1s1.1,0.5,1.1,1.1s-0.5,1.1-1.1,1.1S44.7,45.8,44.7,45.1z M45.8,46.6
			c0.8,0,1.4-0.6,1.4-1.4c0-0.9-0.6-1.4-1.4-1.4s-1.4,0.6-1.4,1.4C44.4,45.9,45,46.6,45.8,46.6z M45.5,45.2h0.3l0.4,0.7h0.3L46,45.2
			c0.3,0,0.4-0.1,0.4-0.4c0-0.3-0.2-0.5-0.6-0.5h-0.6v1.6h0.3V45.2L45.5,45.2z M45.5,45v-0.5h0.4c0.1,0,0.4,0,0.4,0.3
			c0,0.3-0.2,0.3-0.4,0.3C45.8,45,45.5,45,45.5,45z"/>
	</g>
</g>
</svg>
