<?xml version="1.0" encoding="utf-8"?>
<!-- Generator: Adobe Illustrator 21.0.0, SVG Export Plug-In . SVG Version: 6.00 Build 0)  -->
<svg version="1.1" id="Layer_1" xmlns="http://www.w3.org/2000/svg" xmlns:xlink="http://www.w3.org/1999/xlink" x="0px" y="0px"
	 width="160px" height="60px" viewBox="0 0 160 60" style="enable-background:new 0 0 160 60;" xml:space="preserve">
<style type="text/css">
	.st0{fill:#F89939;}
	.st1{fill:#3499CD;}
	.st2{fill:#010101;}
	.st3{fill:#FFFFFF;}
</style>
<path class="st0" d="M111.3,50.5c13.1-13.1,15.3-32.2,4.9-42.6c-10.4-10.4-29.5-8.2-42.6,4.9s-9.3,38.2-4.9,42.6
	C72.3,59,98.2,63.6,111.3,50.5z"/>
<path class="st1" d="M57.5,31.6c-7.6-7.6-18.7-8.9-24.7-2.8c-6,6-4.8,17.1,2.8,24.7s22.1,5.4,24.7,2.8
	C62.4,54.2,65.1,39.2,57.5,31.6L57.5,31.6z"/>
<path class="st2" d="M82.5,29.4c-0.1,0-0.2,0-0.3,0.1l-3.8,1.4c-1.3,2.4-2.4,5.1-3.3,8.1c-0.9,2.9-1.4,5.4-1.4,7.5
	c0,1.4,0.3,2.5,1,3.3c0.7,0.8,1.5,1.2,2.6,1.2c0.9,0,1.9-0.3,2.9-0.9c1-0.6,2.2-1.5,3.5-2.7l0,0c0.2,0.9,0.5,1.7,1.2,2.4
	c0.8,0.9,1.9,1.3,3.3,1.3c1.2,0,2.3-0.3,3.3-0.9c1-0.6,2.1-1.4,3.3-2.6c0.1,0.9,0.4,1.6,0.9,2.3c0.6,0.8,1.4,1.2,2.2,1.2
	c0.9,0,1.7-0.3,2.6-1c0.9-0.7,1.7-1.7,2.7-3.1c-0.1,2.7,0.7,4.1,2.2,4.1c0.6,0,1.3-0.2,2-0.7c0.7-0.5,1.8-1.4,3.4-2.9l0,0
	c1.4-1.4,2.4-2.6,3-3.8c0.9-0.2,1.7-0.4,2.4-0.8c-1.5,2.4-2.2,4.2-2.2,5.6c0,0.7,0.2,1.4,0.6,1.9c0.4,0.5,0.9,0.8,1.5,0.8
	c1.3,0,3.2-1.2,5.6-3.5c0,0.2,0,0.3,0,0.5c0,0.7,0,1.7,0.2,3l3.3-0.8c0-0.9,0-1.6,0-2.1c0-0.7,0.2-1.5,0.3-2.3
	c0.1-0.5,0.3-1,0.7-1.4l0.8-1c0.3-0.3,0.6-0.7,0.9-1c0.3-0.3,0.5-0.6,0.8-0.8c0.3-0.2,0.5-0.4,0.7-0.6s0.4-0.2,0.5-0.2
	c0.2,0,0.4,0.2,0.4,0.5c0,0.3-0.2,1-0.7,2.2c-0.9,2.2-1.3,3.8-1.3,4.8c0,0.8,0.2,1.4,0.6,1.9c0.4,0.5,0.9,0.7,1.6,0.7
	c1.6,0,3.6-1.2,5.9-3.6v-1.7c-1.6,1.9-2.8,2.9-3.5,2.9c-0.5,0-0.7-0.3-0.7-0.9c0-0.5,0.3-1.4,0.9-2.9c0.9-2.2,1.3-3.8,1.3-4.7
	c0-0.6-0.2-1-0.5-1.4c-0.3-0.4-0.8-0.6-1.3-0.6c-0.7,0-1.6,0.3-2.6,1s-2.2,1.9-3.9,3.8c0.2-1.2,0.7-2.8,1.5-4.8l-3.6,0.7
	c-0.8,1.8-1.4,3.4-1.8,4.8c-0.2,0.7-0.3,1.4-0.4,2.2c-1.1,1.1-1.9,1.8-2.2,2c-0.3,0.2-0.7,0.3-1,0.3c-0.3,0-0.6-0.1-0.8-0.4
	c-0.2-0.2-0.3-0.6-0.3-1s0.1-1,0.3-1.5c0.2-0.6,0.5-1.7,1.1-3.3l1.4-3.8l-1.4,0.1c-1.2,2.3-2.7,3.6-4.3,3.8c0.5-1.2,0.7-2.1,0.7-2.7
	c0-0.8-0.4-1.2-1.2-1.2c-0.9,0-1.6,0.4-2.1,1.3c-0.5,0.9-0.8,1.7-0.8,2.4c0,0.7,0.4,1.3,1.3,1.7c-0.5,0.8-1.1,1.5-1.7,2.2l0,0
	c-0.9,0.9-1.5,1.5-2,1.9c-0.5,0.4-0.9,0.6-1.3,0.6c-0.6,0-0.9-0.4-0.9-1.3c0-0.8,0.3-2.3,1-4.5l1.3-4.3h-0.8l-3,1.7
	c-0.5-1.1-1.4-1.7-2.6-1.7c-1,0-2.1,0.4-3.4,1.2c-1.3,0.8-2.3,1.9-3.1,3.3c-0.6,1-1,2.1-1.2,3.3c-1.1,1.1-2,1.9-2.6,2.2
	c-0.6,0.3-1.2,0.5-1.9,0.5c-1.7,0-2.7-1-3.1-2.9c4.3-1.3,6.5-2.9,6.5-5c0-0.8-0.3-1.4-0.8-1.9c-0.5-0.5-1.3-0.7-2.2-0.7
	c-1.8,0-3.4,0.9-4.8,2.6c-1.3,1.5-2.1,3.3-2.2,5.1c-1.2,1.2-2.1,2-2.7,2.4c-0.6,0.4-1.2,0.6-1.7,0.6c-0.5,0-0.9-0.2-1.3-0.8
	c-0.3-0.5-0.5-1.2-0.5-2.1c0-0.4,0-1.1,0.1-2.1c2-2.1,3.4-4.2,4.4-6c0.9-1.9,1.4-3.8,1.4-5.8c0-0.7-0.1-1.3-0.3-1.7
	C83,29.6,82.7,29.4,82.5,29.4L82.5,29.4z M81.7,31.1c0.2,0,0.3,0.1,0.4,0.3s0.2,0.5,0.2,0.9c0,1.2-0.4,2.7-1.2,4.5s-1.8,3.3-3.1,4.7
	c0.7-3.3,1.4-5.8,2.1-7.7C80.9,32,81.4,31.1,81.7,31.1L81.7,31.1z M102.6,39.2c0.4,0,0.7,0.2,1,0.5c0.2,0.3,0.4,0.7,0.4,1.3
	c0,1.4-0.4,3-1.3,4.6c-0.9,1.7-1.8,2.5-2.8,2.5c-0.4,0-0.7-0.2-1-0.5c-0.3-0.3-0.4-0.8-0.4-1.3c0-1.4,0.4-2.9,1.3-4.6
	C100.7,40,101.6,39.2,102.6,39.2L102.6,39.2z M89.8,39.2c0.7,0,1,0.5,1,1.4c0,1.9-1.3,3.2-3.8,3.9c0-1.6,0.3-2.9,0.9-3.9
	S89.2,39.2,89.8,39.2z"/>
<g>
	<path class="st3" d="M89.4,31.6c0,0.3,0.1,0.5,0.2,0.6c0.2,0.3,0.5,0.4,1,0.4c0.3,0,0.5-0.1,0.8-0.2c0.2-0.1,0.3-0.3,0.3-0.6
		c0-0.2-0.1-0.3-0.3-0.5c-0.1-0.1-0.3-0.2-0.7-0.2L90.2,31c-0.4-0.1-0.7-0.2-0.9-0.3c-0.3-0.2-0.5-0.5-0.5-0.9
		c0-0.4,0.2-0.8,0.5-1.1c0.3-0.3,0.7-0.4,1.3-0.4c0.7,0,1.2,0.2,1.5,0.6c0.2,0.3,0.3,0.5,0.3,0.9h-0.7c0-0.2-0.1-0.3-0.2-0.5
		c-0.2-0.2-0.5-0.3-0.9-0.3c-0.3,0-0.5,0-0.7,0.2c-0.2,0.1-0.2,0.3-0.2,0.5c0,0.2,0.1,0.3,0.3,0.5c0.1,0.1,0.3,0.2,0.5,0.2l0.5,0.1
		c0.6,0.2,0.9,0.3,1.1,0.4c0.3,0.2,0.5,0.5,0.5,0.9c0,0.4-0.2,0.8-0.5,1.1s-0.8,0.5-1.4,0.5c-0.7,0-1.2-0.2-1.5-0.5
		c-0.3-0.3-0.4-0.7-0.5-1.2L89.4,31.6L89.4,31.6z M95.2,28.2c0.5,0,1,0.1,1.3,0.4c0.3,0.3,0.5,0.7,0.6,1.3h-0.8
		c0-0.3-0.2-0.5-0.3-0.7c-0.2-0.2-0.4-0.3-0.8-0.3c-0.5,0-0.9,0.2-1.1,0.7c-0.2,0.3-0.2,0.7-0.2,1.2s0.1,0.9,0.3,1.2
		c0.2,0.3,0.5,0.5,0.9,0.5c0.3,0,0.6-0.1,0.8-0.3c0.2-0.2,0.3-0.5,0.4-0.8h0.8c-0.1,0.6-0.3,1.1-0.7,1.4c-0.3,0.3-0.8,0.4-1.4,0.4
		c-0.6,0-1.1-0.2-1.5-0.7c-0.3-0.5-0.5-1-0.5-1.7c0-0.8,0.2-1.5,0.6-1.9C94.1,28.4,94.6,28.2,95.2,28.2L95.2,28.2z M97.8,28.4h0.8
		V33h-0.8V28.4z M97.8,26.6h0.8v0.9h-0.8V26.6z M99.8,26.6h0.7v3.7l2-2h1l-1.8,1.7l1.9,2.9h-1l-1.5-2.4l-0.7,0.6V33h-0.7V26.6
		L99.8,26.6z M104.3,28.4h0.8V33h-0.8V28.4z M104.3,26.6h0.8v0.9h-0.8V26.6z M106.5,27h0.8v1.3h0.7V29h-0.7v3.1c0,0.2,0,0.3,0.2,0.3
		c0.1,0,0.2,0,0.3,0h0.1c0,0,0.1,0,0.2,0V33c-0.1,0-0.2,0-0.3,0s-0.2,0-0.3,0c-0.3,0-0.6-0.1-0.7-0.3c-0.1-0.2-0.2-0.4-0.2-0.7V29
		h-0.6v-0.7h0.6L106.5,27L106.5,27z"/>
</g>
</svg>
