<?xml version="1.0" encoding="utf-8"?>
<!-- Generator: Adobe Illustrator 21.0.0, SVG Export Plug-In . SVG Version: 6.00 Build 0)  -->
<svg version="1.1" id="Layer_1" xmlns="http://www.w3.org/2000/svg" xmlns:xlink="http://www.w3.org/1999/xlink" x="0px" y="0px"
	 viewBox="0 0 130 70" style="enable-background:new 0 0 130 70;" xml:space="preserve">
<style type="text/css">
	.st0{fill:#FDB300;}
	.st1{fill:#EA6C00;}
	.st2{fill:#FDAD00;}
	.st3{fill:#FDD231;}
	.st4{fill:#FEEEB7;}
</style>
<g>
	<path class="st0" d="M47.7,9.2L65,7.4l17.3,1.8l13.4,17.9L65,62.6L34.3,27.1L47.7,9.2z"/>
	<g>
		<path class="st1" d="M46.7,27.3L65,62.6L34.3,27.3H46.7z"/>
		<path class="st1" d="M83.3,27.3L65,62.6l30.8-35.3H83.3z"/>
	</g>
	<path class="st2" d="M46.4,27.3h36.5L64.7,62.6L46.4,27.3z"/>
	<g>
		<path class="st3" d="M64.4,7.4l-17,1.8l-0.9,18.1L64.4,7.4z"/>
		<path class="st3" d="M65,7.4l17,1.8L83,27.3L65,7.4z"/>
	</g>
	<g>
		<path class="st2" d="M95.8,27.3l-13.4-18l0.9,18C83.3,27.3,95.8,27.3,95.8,27.3z"/>
		<path class="st2" d="M34.3,27.3l13.4-18l-0.9,18C46.7,27.3,34.3,27.3,34.3,27.3z"/>
	</g>
	<path class="st4" d="M64.7,7.4L46.4,27.3h36.5L64.7,7.4z"/>
</g>
</svg>
