<?xml version="1.0" encoding="utf-8"?>
<!-- Generator: Adobe Illustrator 21.0.0, SVG Export Plug-In . SVG Version: 6.00 Build 0)  -->
<svg version="1.1" id="Vrstva_1" xmlns="http://www.w3.org/2000/svg" xmlns:xlink="http://www.w3.org/1999/xlink" x="0px" y="0px"
	 viewBox="0 0 365.8 96.4" style="enable-background:new 0 0 365.8 96.4;" xml:space="preserve">
<style type="text/css">
	.st0{fill:#EE3124;}
</style>
<path class="st0" d="M60.8,21.6c-0.3-1,4.8-2.4,10.3-2.6c5.6-0.2,12.3,0.9,13.6,4.6c2,6.1-8.2,15-17.3,19.3
	c-2.2,1.1-3.5,1.4-4.1,1.3c-0.5-0.1-0.6-0.6-0.4-0.9c0.3-0.6,1.8-1.9,3.7-3.3c10-7.4,13.4-12.9,11.4-15.1c-1.2-1.4-6.3-2.4-11.6-2.4
	C64.9,22.5,61.2,22.9,60.8,21.6 M72.1,49.4c-3.2-2.2-8.8-2.9-13.6-2.7c-4.1,0.2-11.3,1.5-11,2.8c0.3,1.4,4.8,1,6.8,1
	c4.5,0,11.8,0.3,13,3.2c2.5,6.3-14.3,17.7-17.8,16.6c-1.6-0.5,3.3-8.7,5-11.7c1.1-1.8,2.6-4.5,1.3-4.7c-1.5-0.2-3.2,2.4-4.3,3.9
	c-3,4.1-6,8.6-8.4,13.3c-0.7,1.4-3.2,5.7-2.4,6.2c0.8,0.5,4.6-0.2,9.4-2.1c15.3-6,22.1-14,24-20.4C74.8,52.4,73.7,50.5,72.1,49.4
	 M95,39.1C90,38.3,81.1,38,78.1,42.6c-2.3,3.6,2.1,8.5,6.1,13.3c3.2,3.8,6.7,7.4,5.3,9.6c-1.2,1.7-8.7,1.7-11.2,1.9
	c-3.1,0.2-7.6,0.2-8.4,0.6c-0.7,0.4-1.1,1.6,1.5,2c2.1,0.4,7.2,1.2,12.7,1.2c5.6,0,11.5-0.9,12.8-5.2c1-3.5-2.5-7.2-5.6-11
	c-3.4-4.1-6.9-7.1-6.6-10c0.2-2.3,4.7-2.4,12.1-2.5c1.5,0,4.6-0.1,4-1.3C100.1,39.9,97.9,39.5,95,39.1 M155.7,59.4
	c-1.1,6.6-5.6,12.1-14,12.1c-8.3,0-11-5.5-9.9-12.1c1.1-6.6,5.6-12.1,14-12.1C154.1,47.2,156.8,52.7,155.7,59.4 M145.2,51.2
	c-4.7,0-7.2,2.7-8.1,8.1c-0.9,5.4,0.7,8.1,5.4,8.1c4.7,0,7.2-2.7,8.1-8.1C151.5,53.9,149.9,51.2,145.2,51.2 M185.5,47.2h-4.4
	l-4.2,23.4h5.2l4.1-22.6C186.3,47.6,186,47.2,185.5,47.2 M173.2,66.8h-9.9l3.4-18.8c0.1-0.4-0.2-0.8-0.7-0.8h-4.4l-4.2,23.4h16.5
	l0.4-2.3C174.4,67.2,174.1,66.8,173.2,66.8 M203,47.2h-12.6l-0.1,0.4c-0.3,1.6-0.2,3.4,2.3,3.4h9.3c3.7,0,5.1,2.7,4.2,7.6
	c-0.8,4.6-3.3,8.1-7,8.1h-5l2.4-13.2h-4.3c-0.6,0-1,0.4-1,0.8l-2.9,16.2h9.8c7.2,0,12.4-3.4,14-12C213.3,51.8,210.4,47.2,203,47.2
	 M112.6,52.2c-0.3,1.9,0.3,4.1,2.4,5.5l7.4,5.2c0.8,0.5,1.2,0.9,1.1,1.5c-0.1,0.9-0.6,1.2-2.1,1.2h-8.7c-0.9,0-1.4,0.5-1.6,1.5v3.2
	h10.1c4.4,0,6.6-2.6,7.1-5.4c0.4-2.6-0.5-4.5-2.2-5.7l-7.9-5.6c-0.6-0.5-0.8-0.7-0.7-1c0.1-0.6,0.6-0.8,1.5-0.8h9
	c1.1,0,1.7-1.1,1.9-2.2v-2.5h-11.9C115.4,47.2,113,49.5,112.6,52.2 M285.5,49.4c1,1.2,1.1,3.4,0.8,4.7c-0.4,1.6-1.9,5.8-7.8,6.3
	l4.9,8.5c0,0,0.3,0.5,0.3,0.8c0,0.2-0.1,0.5-0.3,0.6c-0.2,0.1-0.4,0.2-0.6,0.2h-1.3l-5.8-10h-4.7l-1.8,10h-2.6l4.3-23.4h6
	C280.5,47.3,283.6,47.3,285.5,49.4 M283,50.8c-0.5-0.5-1.2-0.7-2.3-0.9c-0.3-0.1-0.8-0.1-1.3-0.1c-1.3-0.1-5.3,0-6.5,0l-1.5,8.5
	c0.9,0,2,0,2.7,0c2.1,0,4.1-0.1,5.5-0.5C283.2,57,285,52.7,283,50.8 M307.2,47.5c-0.2-0.1-0.4-0.2-0.6-0.2h-1.1l-12,10.2l1.6-9.1
	c0.1-0.5-0.1-0.8-0.3-1c-0.2-0.2-0.5-0.2-0.7-0.2h-1.2l-4.3,23.4h2.6l1.9-10.3l9.5,10.3h1.1c0.2,0,0.4,0,0.6-0.2
	c0.2-0.1,0.3-0.4,0.3-0.6c0-0.4-0.3-0.8-0.3-0.8l-9-9.7l12-10.2c0,0,0.3-0.3,0.3-0.8C307.5,47.9,307.4,47.6,307.2,47.5 M264.7,60.3
	c-1.6,6.6-6.3,11.8-14.1,11.2l0,0c-7.1-0.8-9.1-7-7.6-13.1c1.7-6.6,6.4-11.8,14-11.2l0,0C264,48,266.1,54.3,264.7,60.3 M256.3,49.6
	c-4.3-0.2-9.1,2.3-10.8,9.1c-1.7,6.7,1.4,9.9,5.6,10.4h0.4c4.3,0.2,8.9-2.3,10.5-9.1C263.8,53.4,260.6,50,256.3,49.6 M325.2,47.3
	h-9.6c-4.5,0-5,3.7-5,5.4c0,1.8,1.3,3.3,2,3.9l6.5,6.4c0.8,0.8,1.2,1.7,1.2,2.5c0,1.4-1.1,2.6-2.8,2.6h-8.5c-0.3,0-0.6,0.4-0.6,0.7
	l0,0l0,0c0,0,0,1.4,0,1.7h9.5c4.5,0,5-3.7,5-5.4l0,0c0-2.4-2.2-4.3-2.2-4.3l-6.2-6.1c-0.8-0.8-1.3-1.5-1.3-2.4
	c0-1.4,1.1-2.6,2.8-2.6h8.6v0.1v-0.1c0.3-0.1,0.6-0.4,0.6-0.7l0,0C325.2,49,325.2,47.6,325.2,47.3 M243,48.2c0-0.2-0.1-0.6-0.3-0.7
	c-0.2-0.2-0.4-0.2-0.7-0.2h-1.1l-9,20.6l-2.4-11c-0.1-1-0.9-1.6-1.8-1.6h-1.5L219,67.7l0.1-19.5c0-0.3-0.1-0.6-0.3-0.8
	c-0.2-0.2-0.5-0.2-0.7-0.2h-1.5v23.4h1.9l0,0l0,0c0.6,0,1.1-0.1,1.5-0.4c0.4-0.3,0.7-0.7,1-1.1l6.2-11.1l2.6,12.8h1.6l0,0
	c1.1,0,2-0.6,2.4-1.7l9-20.3C243,48.5,243,48.4,243,48.2"/>
</svg>
