<?xml version="1.0" encoding="utf-8"?>
<!-- Generator: Adobe Illustrator 16.0.0, SVG Export Plug-In . SVG Version: 6.00 Build 0)  -->
<!DOCTYPE svg PUBLIC "-//W3C//DTD SVG 1.1//EN" "http://www.w3.org/Graphics/SVG/1.1/DTD/svg11.dtd">
<svg version="1.1" id="Layer_1" xmlns="http://www.w3.org/2000/svg" xmlns:xlink="http://www.w3.org/1999/xlink" x="0px" y="0px"
	 width="160px" height="60px" viewBox="0 0 160 60" enable-background="new 0 0 160 60" xml:space="preserve">
<g>
	<path fill="#201F26" d="M52.473,38.866c-1.063-0.565-2.264-0.964-3.569-1.185c-1.282-0.216-2.586-0.324-3.876-0.324
		c-1.063-0.001-2.124-0.092-3.171-0.271c-1.023-0.174-1.948-0.494-2.753-0.953c-0.784-0.446-1.432-1.07-1.927-1.855
		c-0.489-0.773-0.736-1.799-0.736-3.035c0.023-1.093,0.277-2.027,0.755-2.778c0.474-0.753,1.118-1.384,1.879-1.843
		c0.782-0.472,1.685-0.818,2.684-1.03c1.699-0.361,3.495-0.429,5.324-0.173c0.713,0.1,1.419,0.278,2.098,0.529
		c0.666,0.247,1.292,0.585,1.861,1.004c0.56,0.415,1.055,0.935,1.471,1.546l0.233,0.342l1.716-0.722l-0.364-0.515
		c-0.451-0.64-0.966-1.232-1.539-1.767c-0.565-0.522-1.229-0.965-1.974-1.317c-0.735-0.347-1.577-0.614-2.502-0.793
		c-0.916-0.178-1.984-0.268-3.173-0.268c-1.142,0-2.32,0.131-3.503,0.389c-1.2,0.263-2.314,0.697-3.309,1.292
		c-1.005,0.597-1.858,1.42-2.489,2.404c-0.646,1.006-0.974,2.247-0.974,3.689c0,1.514,0.304,2.802,0.903,3.829
		c0.595,1.02,1.394,1.847,2.373,2.457c0.959,0.599,2.078,1.028,3.326,1.278c1.249,0.247,2.52,0.37,3.792,0.367
		c1.031,0,2.124,0.078,3.247,0.233c1.093,0.151,2.109,0.455,3.022,0.905c0.89,0.439,1.63,1.05,2.201,1.814
		c0.553,0.741,0.833,1.742,0.833,2.975c0,1.106-0.27,2.05-0.802,2.807c-0.549,0.781-1.262,1.426-2.12,1.916
		c-0.876,0.501-1.869,0.87-2.95,1.096c-1.099,0.23-2.187,0.347-3.232,0.347c-1.755,0-3.489-0.335-5.154-0.997
		c-1.651-0.652-3.141-1.654-4.369-2.938l-0.333-0.347L34,48.161l0.385,0.385c1.225,1.226,2.746,2.293,4.52,3.173
		c1.796,0.892,3.923,1.343,6.321,1.343c1.141,0,2.35-0.13,3.598-0.387c1.264-0.262,2.451-0.708,3.526-1.329
		c1.092-0.629,2-1.453,2.702-2.449c0.72-1.022,1.085-2.303,1.085-3.806c0-1.523-0.342-2.813-1.017-3.834
		C54.452,40.251,53.562,39.445,52.473,38.866 M68.62,51.454c-1.238,0-2.371-0.255-3.365-0.76c-1.008-0.509-1.907-1.21-2.646-2.063
		c-0.752-0.864-1.349-1.875-1.775-3.005c-0.427-1.125-0.67-2.312-0.722-3.515c0-1.1,0.205-2.225,0.606-3.343
		c0.394-1.103,0.982-2.126,1.737-3.021c0.75-0.887,1.662-1.621,2.712-2.185c1.033-0.553,2.194-0.833,3.455-0.833
		c1.185,0,2.303,0.263,3.325,0.779c1.027,0.518,1.947,1.227,2.709,2.088c0.763,0.864,1.374,1.876,1.813,3.006
		c0.437,1.118,0.66,2.309,0.66,3.51c0,1.099-0.204,2.225-0.605,3.343c-0.394,1.104-0.982,2.127-1.737,3.021
		c-0.754,0.89-1.673,1.624-2.708,2.162C71.045,51.181,69.881,51.454,68.62,51.454 M76.132,34.516c-0.898-1.05-1.99-1.918-3.246-2.58
		c-1.273-0.672-2.709-1.012-4.267-1.012c-1.419,0-2.776,0.304-4.03,0.903c-1.241,0.592-2.353,1.42-3.274,2.439
		c-0.923,1.02-1.664,2.22-2.2,3.568c-0.538,1.351-0.811,2.789-0.811,4.277c0,1.406,0.251,2.782,0.748,4.091
		c0.485,1.29,1.194,2.484,2.096,3.527c0.9,1.038,1.994,1.887,3.251,2.522c1.268,0.641,2.685,0.979,4.21,1.008h0.019
		c1.444-0.028,2.811-0.354,4.064-0.965c1.237-0.603,2.347-1.438,3.271-2.458c0.923-1.02,1.657-2.207,2.18-3.529
		c0.524-1.324,0.791-2.736,0.791-4.196c0-1.322-0.244-2.669-0.725-4.004C77.727,36.773,77.028,35.565,76.132,34.516 M88.284,50.953
		c-0.303,0.076-0.57,0.134-0.794,0.171c-0.254,0.042-0.508,0.081-0.763,0.117c-0.253,0.036-0.503,0.055-0.743,0.055
		c-0.605,0-1.052-0.201-1.363-0.614c-0.345-0.455-0.513-0.907-0.513-1.382V22.862h-1.806V49.3c0,0.992,0.313,1.87,0.931,2.607
		c0.641,0.767,1.553,1.154,2.712,1.154c0.363,0,0.724-0.021,1.072-0.063c0.304-0.036,0.606-0.076,0.909-0.121
		c0.276-0.042,0.597-0.104,0.951-0.186l0.612-0.142l-0.804-1.697L88.284,50.953L88.284,50.953z M96.077,32.743
		c-0.939,0.66-1.77,1.499-2.479,2.502v-4.004h-1.806v21.623h1.806V39.401c0.25-0.882,0.595-1.709,1.025-2.459
		c0.423-0.742,0.964-1.41,1.603-1.977c0.631-0.556,1.363-1.007,2.181-1.341c0.814-0.333,1.734-0.528,2.732-0.578l0.481-0.024v-1.781
		h-0.506C99.189,31.241,97.495,31.746,96.077,32.743"/>
	<path fill="#C7402B" d="M121.879,11.549l-14.955,16.168l18.795-8.671C125.172,16.234,123.841,13.635,121.879,11.549L121.879,11.549
		z M110.783,6.739c-2.007-0.002-3.994,0.394-5.847,1.166l-2.007,16.91l10.028-17.918C112.237,6.792,111.511,6.74,110.783,6.739z
		 M125.867,19.977l-17.809,9.967l16.709-1.983c0.815-1.896,1.234-3.939,1.232-6.004C126,21.285,125.952,20.625,125.867,19.977
		L125.867,19.977z M119.302,34.567c1.995-1.352,3.644-3.156,4.809-5.266l-15.661,3.11L119.302,34.567z M113.874,7.054l-8.718,18.896
		l16.172-14.958C119.301,9.041,116.735,7.645,113.874,7.054L113.874,7.054z M112.055,37.117c1.646-0.135,3.261-0.539,4.776-1.195
		l-8.772-1.041L112.055,37.117L112.055,37.117z M96.911,15.701c-0.698,1.546-1.132,3.2-1.281,4.891l2.363,4.224L96.911,15.701z
		 M103.618,8.53c-2.143,1.147-3.981,2.789-5.362,4.789l2.206,11.104L103.618,8.53L103.618,8.53z"/>
</g>
</svg>
