<?xml version="1.0" encoding="utf-8"?>
<!-- Generator: Adobe Illustrator 21.0.0, SVG Export Plug-In . SVG Version: 6.00 Build 0)  -->
<svg version="1.1" id="Layer_1" xmlns="http://www.w3.org/2000/svg" xmlns:xlink="http://www.w3.org/1999/xlink" x="0px" y="0px"
	 viewBox="0 0 112.7 60.7" style="enable-background:new 0 0 112.7 60.7;" xml:space="preserve">
<style type="text/css">
	.st0{fill:#E36B25;}
	.st1{fill:#434243;}
</style>
<g>
	<path class="st0" d="M86.9,29c1.9,0.5,3.8,1,5.6,1.5c0.1-0.1,0.1-0.1,0.1-0.1c-0.1-0.2-0.1-0.5-0.3-0.7c-1-1.9-2-3.8-3.1-5.8
		c-0.2-0.3-0.1-0.5,0.1-0.7c1.7-1.9,3.3-3.9,4.9-5.8c0.1-0.1,0.2-0.3,0.3-0.4c0-0.1-0.1-0.1-0.1-0.1c-0.2,0-0.5,0-0.7,0.1
		c-2.3,0.6-4.6,1.2-6.9,1.8c-0.5,0.1-0.7,0-0.9-0.4C85,16.6,84,14.8,82.8,13c-0.1-0.2-0.3-0.3-0.5-0.5c-0.1,0.3-0.2,0.6-0.2,0.8
		c-0.4,2.3-0.8,4.6-1.2,6.9c-0.1,0.3-0.3,0.5-0.5,0.6c-2.3,0.7-4.6,1.4-6.9,2.1c-0.3,0.1-0.5,0.2-0.7,0.3c0,0.1,0,0.1,0,0.2
		c1.9,0.8,3.9,1.5,5.9,2.4c-0.1,0.1-0.1,0.2-0.2,0.2c-1.1,0.7-2.2,1.4-3.3,2.1c-0.2,0.1-0.5,0.1-0.7,0.1c-1.5-0.7-3-1.3-4.6-2
		c-0.9-0.4-1.6-0.9-2-1.9c-0.5-1.1-0.1-2.2,1.1-2.9c0.6-0.3,1.2-0.6,1.9-0.8c2.2-0.7,4.4-1.4,6.7-2.1c0.5-0.1,0.6-0.4,0.7-0.8
		c0.4-2.3,0.8-4.5,1.2-6.8c0.1-0.9,0.5-1.7,1.1-2.5c1.1-1.2,2.6-1.1,3.6,0.3c0.9,1.4,1.8,2.9,2.7,4.4c0.3,0.6,0.7,1.1,1.1,1.7
		c0.2,0.4,0.5,0.3,0.9,0.3c2.7-0.7,5.3-1.5,8-2.1c0.6-0.1,1.3-0.1,2,0.1c0.8,0.2,1.2,1,0.9,1.8c-0.3,0.7-0.7,1.4-1.2,2
		c-1.7,2.1-3.5,4.2-5.3,6.2c-0.3,0.4-0.3,0.7-0.1,1.1c1.1,1.9,2.1,4,3.1,5.9c0.3,0.5,0.5,1.2,0.6,1.8c0.1,1.1-0.7,2.3-1.8,2.5
		c-0.7,0.1-1.4,0.1-2.1-0.1c-1.7-0.5-3.4-1-5.2-1.5c-0.2-0.1-0.5-0.3-0.5-0.4C87.3,31.3,87.1,30.3,86.9,29z"/>
	<path class="st1" d="M26.5,53c0.2-1.5,0.4-3,0.6-4.4c0.4-2.9,0.7-5.8,1.1-8.7c0.5-3.4,2.4-5.8,5.4-7.4c2.4-1.3,5-1.5,7.5-0.3
		c2.4,1.1,3.8,3.2,4.1,5.8c0.5,4.8-3.4,9.5-8.3,10.3c-2,0.3-4,0-5.7-1.2c-0.1-0.1-0.2-0.1-0.3-0.2c-0.1,0.7-0.2,1.5-0.3,2.1
		c-0.1,1.2-0.3,2.4-0.5,3.6c0,0.1-0.2,0.3-0.3,0.3C28.7,53,27.6,53,26.5,53z M36,44.7c2.6,0,4.9-1.9,5.4-4.6c0.5-2.6-1.3-5-4-5
		C34.7,35,32,37.2,31.8,40C31.6,42.7,33.3,44.7,36,44.7z"/>
	<path class="st1" d="M16.4,41.8c0.3,0.6,0.7,1.3,1.1,1.8c0.7,1,1.8,1.2,3,0.9c1.1-0.3,1.9-0.9,2.1-2.1c0.1-0.9-0.4-1.7-1-2.4
		c-1.1-1.2-2.2-2.4-3.3-3.6c-0.9-0.9-1.6-1.9-1.9-3.2c-0.4-1.9,0.3-3.6,1.5-5c1.5-1.6,3.3-2.5,5.4-2.6c1.9-0.1,3.4,0.7,4.6,2.1
		c0.3,0.4,0.7,0.9,1.1,1.4c-1.2,0.9-2.4,1.8-3.5,2.6c-0.5-0.6-1-1.2-1.6-1.7c-0.7-0.6-1.6-0.6-2.5-0.2c-1.2,0.6-1.5,1.7-0.6,2.7
		c1.1,1.2,2.2,2.4,3.4,3.6c0.5,0.5,0.9,1,1.4,1.6c1.7,2.4,1.5,5-0.1,7.4c-1.9,2.9-5.8,4.2-9.1,3.2c-1.7-0.5-2.8-1.7-3.4-3.4
		c-0.4-1-0.4-1,0.5-1.5C14.4,42.8,15.4,42.3,16.4,41.8z"/>
	<path class="st1" d="M59,48c0.1-1.1,0.3-2.1,0.4-3.2c0.2-1.7,0.5-3.4,0.5-5.1c0.1-1.2-0.2-2.4-1.1-3.4c-1.1-1.3-2.7-1.5-4.2-1.1
		c-2.7,0.5-4.6,3.2-4.3,5.8c0.2,2,1.9,3.6,3.9,3.6c1.7,0.1,3-0.5,4.3-1.7c-0.1,0.9-0.2,1.7-0.3,2.6C58.1,46,58,46.5,58,47
		c0,0.4-0.2,0.6-0.5,0.7c-3,1.1-5.8,1-8.4-1.1c-1.6-1.3-2.4-3.1-2.4-5.2c-0.2-4.8,3.6-9.2,8.5-9.9c4.2-0.6,7.8,1.9,8.5,5.8
		c0.3,1.3,0.1,2.5-0.1,3.7c-0.3,2.1-0.5,4.2-0.8,6.3c-0.1,0.5-0.2,0.7-0.7,0.6C61,48,60,48,59,48z"/>
	<path class="st1" d="M80.2,26.2c-0.4,3.3-0.9,6.4-1.3,9.5l0.1,0.1c2.1-2.4,4.3-4.8,6.6-7.3c0.2,1.3,0.5,2.5,0.7,3.7
		c0,0.1-0.1,0.3-0.3,0.5c-1.3,1.3-2.6,2.7-3.8,4.1c-0.1,0.1-0.3,0.3-0.5,0.5c2.5,3.5,5,7,7.5,10.6c-0.2,0-0.4,0.1-0.5,0.1
		c-1.3,0-2.6,0-3.8,0c-0.3,0-0.6-0.1-0.8-0.4c-1.7-2.6-3.5-5.3-5.2-7.9c-0.1-0.1-0.2-0.3-0.4-0.5c-0.4,3-0.8,6-1.1,8.9
		c-1.3,0-2.6,0-4,0c0.1-1.2,0.3-2.4,0.5-3.6c0.5-4,1.1-7.9,1.5-11.8c0.1-1,0.3-2,0.4-3c0-0.2,0.1-0.5,0.3-0.5
		C77.4,28,78.8,27.2,80.2,26.2z"/>
	<path class="st1" d="M73.1,35.6c-0.7,0-1.5,0-2.2,0s-1.3,0.5-1.4,1.2c-0.3,1.8-0.5,3.6-0.7,5.4C68.5,44.2,68.2,46,68,48
		c-1.2,0-2.4,0-3.7,0c0.1-0.9,0.2-1.7,0.3-2.6c0.4-2.9,0.8-5.8,1.1-8.7c0.3-2.8,2.5-4.8,5.4-4.8c0.7,0,1.3,0,2.1,0
		c0.1,0,0.4,0.2,0.4,0.3C73.5,33.3,73.3,34.4,73.1,35.6z"/>
</g>
</svg>
