<?xml version="1.0" encoding="utf-8"?>
<!-- Generator: Adobe Illustrator 16.0.0, SVG Export Plug-In . SVG Version: 6.00 Build 0)  -->
<!DOCTYPE svg PUBLIC "-//W3C//DTD SVG 1.1//EN" "http://www.w3.org/Graphics/SVG/1.1/DTD/svg11.dtd">
<svg version="1.1" id="Layer_1" xmlns="http://www.w3.org/2000/svg" xmlns:xlink="http://www.w3.org/1999/xlink" x="0px" y="0px"
	 width="200px" height="60px" viewBox="0 0 200 60" enable-background="new 0 0 200 60" xml:space="preserve">
<g>
	<path fill-rule="evenodd" clip-rule="evenodd" fill="#CCD329" d="M137.957,1.117c0,0,1.79,7.757,1.84,12.382
		c0.05,4.625-1.84,15.366-13.824,15.068c-11.984-0.298-11.984-1.939-17.206,0.547c0,0,1.89-2.834-0.597-4.724
		s-2.835-4.583-2.586-6.771c0.248-2.188,3.083-9.739,13.228-9.142S132.935,6.835,137.957,1.117z"/>
	<path fill="#6DB33F" d="M108.305,24.292c0,0,9.537-0.499,12.67-1.618c3.133-1.119,9.287-2.387,14.546-11.823
		c0,0-4.065,10.96-13.24,14.093c-9.175,3.133-10.592,1.907-13.314,3.995C108.966,28.939,111.054,26.851,108.305,24.292z"/>
	<g>
		<path fill-rule="evenodd" clip-rule="evenodd" fill="#6DB33F" d="M145.419,35.711c0-0.343-0.022-0.687,0.004-1.027
			c0.094-1.239,0.982-2.092,2.196-2.129c1.251-0.038,2.153,0.715,2.324,1.969c0.054,0.391,0.05,0.792,0.048,1.189
			c-0.021,4.737,0.077,9.479-0.101,14.21c-0.191,5.063-3.072,8.044-8.11,8.683c-3.455,0.438-6.801,0.009-9.972-1.513
			c-1.329-0.636-1.797-1.58-1.301-2.681c0.492-1.094,1.663-1.409,2.949-0.762c2.376,1.195,4.867,1.677,7.508,1.224
			c2.539-0.437,4.248-2.366,4.304-5.124c-0.403,0.493-0.637,0.856-0.944,1.14c-3.939,3.64-10.394,2.715-13.213-2.021
			c-2.291-3.85-2.313-7.92-0.202-11.843c2.847-5.289,10.376-6.235,13.975-1.591c0.098,0.126,0.133,0.302,0.196,0.454
			C145.193,35.832,145.306,35.771,145.419,35.711z M134.14,43.291c0.016,1.34,0.498,3.02,1.876,4.343
			c2.25,2.163,5.859,1.943,7.965-0.475c2.149-2.467,2.04-6.656-0.234-9.01c-1.56-1.613-4.001-2.138-6.038-1.296
			C135.499,37.765,134.146,40.013,134.14,43.291z"/>
		<path fill-rule="evenodd" clip-rule="evenodd" fill="#6DB33F" d="M72.138,36.006c1.277-1.604,2.636-2.722,4.433-3.216
			c4.007-1.101,8.386,0.838,10.241,4.718c1.73,3.618,1.711,7.326-0.147,10.905c-2.792,5.378-10.305,6.398-14.079,1.93
			c-0.102-0.12-0.147-0.288-0.219-0.434c-0.092,0.05-0.183,0.099-0.274,0.148c0,2.135,0.022,4.271-0.007,6.405
			c-0.021,1.55-0.957,2.457-2.41,2.42c-1.146-0.028-2.007-0.795-2.158-1.932c-0.03-0.229-0.031-0.463-0.031-0.694
			c-0.002-6.993-0.005-13.986,0.001-20.979c0.001-1.62,0.741-2.573,2.042-2.687c1.278-0.112,2.336,0.718,2.526,2.005
			C72.111,34.983,72.104,35.38,72.138,36.006z M83.341,42.633c-0.023-0.249-0.042-0.713-0.112-1.17
			c-0.419-2.725-2.457-4.705-5.066-4.937c-2.593-0.231-4.968,1.38-5.837,3.991c-0.576,1.732-0.513,3.46,0.203,5.14
			c1.41,3.31,5.475,4.557,8.29,2.541C82.643,46.89,83.31,45.014,83.341,42.633z"/>
		<path fill-rule="evenodd" clip-rule="evenodd" fill="#6DB33F" d="M114.716,35.476c1.224-1.465,2.627-2.418,4.444-2.755
			c4.725-0.876,8.389,1.845,8.593,6.653c0.164,3.84,0.066,7.692,0.039,11.538c-0.01,1.338-0.999,2.193-2.336,2.168
			c-1.311-0.024-2.214-0.928-2.221-2.288c-0.016-2.952,0-5.903-0.011-8.854c-0.002-0.527-0.029-1.063-0.119-1.582
			c-0.422-2.427-1.851-3.629-4.229-3.591c-2.249,0.037-4.051,1.539-4.184,3.844c-0.172,3.008-0.091,6.03-0.117,9.046
			c-0.004,0.431,0.018,0.864-0.02,1.292c-0.118,1.345-1.058,2.173-2.387,2.132c-1.267-0.039-2.151-0.908-2.163-2.239
			c-0.027-3.051-0.01-6.102-0.01-9.153c0-2.122-0.003-4.245,0.001-6.367c0.003-1.652,0.772-2.635,2.109-2.729
			c1.201-0.083,2.537,0.901,2.478,2.405C114.581,35.11,114.646,35.227,114.716,35.476z"/>
		<path fill-rule="evenodd" clip-rule="evenodd" fill="#6DB33F" d="M58.355,53.149c-2.702-0.082-5.159-0.865-7.393-2.355
			c-0.982-0.656-1.239-1.759-0.649-2.67c0.544-0.842,1.676-1.101,2.64-0.514c1.459,0.888,2.973,1.654,4.693,1.765
			c0.901,0.058,1.884,0.001,2.707-0.32c0.524-0.205,0.977-0.934,1.184-1.525c0.26-0.741-0.227-1.39-0.908-1.688
			c-1.146-0.501-2.343-0.889-3.519-1.327c-1.053-0.392-2.141-0.71-3.151-1.191c-4.271-2.034-3.507-7.497-0.539-9.422
			c2.244-1.456,4.675-1.588,7.17-1.044c1.185,0.258,2.34,0.717,3.458,1.202c1.224,0.531,1.657,1.636,1.188,2.67
			c-0.461,1.017-1.571,1.271-2.82,0.785c-1.257-0.487-2.539-0.964-3.854-1.221c-0.726-0.142-1.604,0.031-2.304,0.324
			c-1.301,0.545-1.436,2.054-0.269,2.849c0.698,0.476,1.528,0.774,2.327,1.081c1.234,0.474,2.526,0.811,3.734,1.341
			c2.993,1.314,4.027,3.037,3.7,5.946c-0.288,2.569-2.176,4.476-5.034,5.031C59.939,53.018,59.143,53.058,58.355,53.149z"/>
		<path fill-rule="evenodd" clip-rule="evenodd" fill="#6DB33F" d="M94.422,35.169c1.059-1.4,2.406-2.197,4.013-2.524
			c2.096-0.426,3.553,1.048,2.941,2.93c-0.259,0.798-0.807,1.3-1.618,1.441c-3.623,0.632-5.526,3.879-5.482,7.245
			c0.026,2.086,0.028,4.173-0.006,6.259c-0.024,1.492-0.776,2.41-1.984,2.552c-1.53,0.179-2.619-0.814-2.641-2.493
			c-0.029-2.484-0.008-4.968-0.008-7.452c0-2.683-0.018-5.366,0.009-8.048c0.013-1.286,0.638-2.134,1.671-2.424
			c0.978-0.273,2.089,0.126,2.582,1.009C94.133,34.085,94.225,34.584,94.422,35.169z"/>
		<path fill-rule="evenodd" clip-rule="evenodd" fill="#6DB33F" d="M103.167,42.819c0-2.552-0.004-5.103,0.001-7.655
			c0.003-1.591,0.872-2.577,2.256-2.578c1.378-0.001,2.312,0.995,2.314,2.538c0.011,5.169,0.013,10.338,0,15.507
			c-0.004,1.552-0.923,2.471-2.37,2.448c-1.359-0.022-2.196-0.966-2.199-2.506C103.162,47.988,103.167,45.404,103.167,42.819z"/>
		<path fill-rule="evenodd" clip-rule="evenodd" fill="#6DB33F" d="M107.741,27.17c-0.006,1.328-0.99,2.282-2.335,2.263
			c-1.281-0.018-2.249-0.977-2.271-2.251c-0.021-1.268,1.04-2.349,2.308-2.351C106.735,24.83,107.748,25.86,107.741,27.17z"/>
	</g>
</g>
</svg>
