<?xml version="1.0" encoding="utf-8"?>
<!-- Generator: Adobe Illustrator 21.0.2, SVG Export Plug-In . SVG Version: 6.00 Build 0)  -->
<svg version="1.1" id="Layer_1" xmlns="http://www.w3.org/2000/svg" xmlns:xlink="http://www.w3.org/1999/xlink" x="0px" y="0px"
	 viewBox="0 0 130 70" style="enable-background:new 0 0 130 70;" xml:space="preserve">
<style type="text/css">
	.st0{fill-rule:evenodd;clip-rule:evenodd;fill:#ED174C;}
</style>
<g>
	<path class="st0" d="M117.5,22.6c-1.5,0-2.6,1.1-2.6,2.5c0,1.4,1.1,2.5,2.6,2.5c1.4,0,2.5-1.1,2.5-2.5
		C120,23.7,118.9,22.6,117.5,22.6L117.5,22.6L117.5,22.6z M117.4,23C117.4,23,117.4,23,117.4,23c1.2,0,2.1,1,2.1,2.1
		c0,1.2-0.9,2.1-2,2.1c-1.2,0-2.1-1-2.1-2.1C115.4,23.9,116.2,23.1,117.4,23L117.4,23L117.4,23z M116.4,23.7v2.9h0.5v-1.3h0.5
		l0.8,1.3h0.5l-0.8-1.4c0.5,0,0.7-0.3,0.7-0.8c0-0.6-0.3-0.8-1-0.8H116.4L116.4,23.7z M116.9,25v-1h0.6c0.4,0,0.6,0.2,0.6,0.5
		c0,0.3-0.2,0.5-0.6,0.5H116.9L116.9,25z"/>
	<path class="st0" d="M36.9,33.9c-1.4-1-3-1.9-5.2-2.5c-2.9-1-6.9-1.9-8.6-2.5c-1-0.4-1.5-1-1.5-1.9c0-1.2,1.4-1.9,3.2-2
		c2.9,0.1,3.7,1.7,3.9,2.9h8.3V33.9L36.9,33.9z M47.2,41.6h6.1c5.3-0.1,9.6-2.8,11.8-6.6c0.2-0.3,0.3-0.6,0.5-1c0.3,0.4,0.6,0.6,1,1
		c1.5,1.3,3.3,2.2,5.3,2.9c3.2,1.1,5.6,1.9,6.5,2.2c1.6,0.7,2.6,1.2,2.6,2.6c0,1.7-1.9,2.4-3.8,2.5c-2.6-0.1-5.3-1.4-5.2-4.1H61.5
		C62,48,68.9,53.5,77,53.6c4.9-0.1,9.5-1.5,12.4-5c2.9,3,6.4,4.9,11.2,5c7.6-0.1,15.6-3.8,15.7-11.9c0-2.5-0.7-4.9-2.3-6.7
		c-1.4-1.7-3.5-2.9-6.4-3.7c-2.9-1-6.9-1.9-8.6-2.5c-1-0.4-1.5-1-1.5-1.9c0-1.2,1.4-1.9,3.2-2c2.9,0.1,3.7,1.7,3.9,2.9h9.9
		c0.1-6.8-5.6-11.5-13.8-11.5c-6.1,0-10.3,2.3-12.2,5.6c-2.2-3.5-6.7-5.6-12.2-5.6c-5.9,0-9.9,2.2-12,5.4c-2.4-3.1-6.4-5.1-11.1-5.1
		H36.9V22c-2.2-3.5-6.7-5.6-12.2-5.6c-8.5,0-13.1,4.7-13.6,10.1c0,3.3,1.6,6.4,4.1,8.5c1.4,1.3,3.2,2.2,5.2,2.9
		c3.2,1.1,5.6,1.9,6.5,2.2c1.6,0.7,2.6,1.2,2.6,2.6c0,1.7-2,2.4-3.8,2.5c-2.6-0.1-5.3-1.4-5.2-4.1H10c0.6,6.9,7.4,12.3,15.5,12.5
		c4.5-0.1,8.6-1.3,11.4-3.9v3.3h10.3V41.6L47.2,41.6z M47.2,25.3h5.6c2.1,0,3.8,1.7,3.8,3.9c0,2.1-1.7,3.9-3.8,3.9h-5.6V25.3
		L47.2,25.3z M89.5,35c-1.4-1.7-3.5-2.9-6.4-3.7c-2.9-1-6.9-1.9-8.5-2.5c-1.1-0.4-1.6-1-1.6-1.9c0-1.2,1.4-1.9,3.2-2
		c2.9,0.1,3.7,1.7,3.9,2.9h7c0.4,2.8,1.8,5.2,4.1,7.2c1.5,1.3,3.3,2.2,5.2,2.9c3.2,1.1,5.6,1.9,6.4,2.2c1.7,0.7,2.7,1.2,2.7,2.6
		c0,1.7-2,2.4-3.8,2.5c-2.6-0.1-5.3-1.4-5.2-4.1h-4.7C91.6,38.7,90.9,36.7,89.5,35L89.5,35z"/>
</g>
</svg>
