<?xml version="1.0" encoding="utf-8"?>
<!-- Generator: Adobe Illustrator 21.0.2, SVG Export Plug-In . SVG Version: 6.00 Build 0)  -->
<svg version="1.1" id="Layer_1" xmlns="http://www.w3.org/2000/svg" xmlns:xlink="http://www.w3.org/1999/xlink" x="0px" y="0px"
	 width="130px" height="70px" viewBox="0 0 130 70" style="enable-background:new 0 0 130 70;" xml:space="preserve">
<style type="text/css">
	.st0{fill:url(#SVGID_1_);}
	.st1{fill:url(#SVGID_2_);}
	.st2{fill:url(#SVGID_3_);}
	.st3{fill:#231F1F;}
</style>
<g>
	<g>
		<g transform="matrix(.569 0 0 .569 199.451 -82.735)">
			
				<linearGradient id="SVGID_1_" gradientUnits="userSpaceOnUse" x1="-100442.6641" y1="-73932.6484" x2="-100422.8203" y2="-73944.375" gradientTransform="matrix(3.840750e-02 0 0 3.840750e-02 3516.6055 3068.927)">
				<stop  offset="0" style="stop-color:#909CA9"/>
				<stop  offset="1" style="stop-color:#EDEDEE"/>
			</linearGradient>
			<path class="st0" d="M-317.5,205l-11.5,3.7l-10,4.4l-2.8,0.7c-0.7,0.7-1.5,1.4-2.3,2.1c-0.9,0.8-1.7,1.5-2.3,2
				c-0.7,0.6-1.7,1.6-2.3,2.2c-0.8,1-1.4,2-1.7,2.8c-0.5,1.5-0.2,2.9,0.7,4.3c1.2,1.7,3.5,3.5,6.3,4.7c1.4,0.6,3.7,1.4,5.5,1.8
				c2.9,0.7,8.6,1.5,11.7,1.7c0.6,0,1.5,0,1.5,0c0.1,0,0.6-1,1.1-2.1c1.9-3.9,3.3-7.6,4.1-10.7c0.5-1.9,0.8-4.4,1-7.4
				c0.1-0.8,0.1-3.7,0-4.6c-0.1-1.6-0.2-2.8-0.4-4.1c0-0.2,0-0.3,0-0.4c0,0,0.1-0.1,1.5-0.5L-317.5,205L-317.5,205L-317.5,205
				L-317.5,205z M-320.2,206.5c0.1,0,0.4,2.7,0.4,4.3c0,0.4,0,0.6,0,0.6c-0.1,0-1.5-0.8-2.5-1.4c-0.9-0.5-2.5-1.6-2.8-1.8
				c-0.1-0.1-0.1-0.1,0.6-0.3C-323.1,207.4-320.3,206.5-320.2,206.5z M-326,208.4c0.1,0,0.3,0.1,0.8,0.4c1.8,1.1,4.2,2.5,5.2,2.9
				c0.3,0.1,0.4,0.1-0.4,0.6c-1.6,1.1-3.5,2.1-5.9,3.2c-0.4,0.2-0.8,0.3-0.8,0.3c0,0,0-0.2,0.1-0.5c0.6-2.2,0.9-4.3,0.9-6.1
				C-326.1,208.4-326.1,208.4-326,208.4C-326,208.4-326,208.4-326,208.4L-326,208.4z M-327.2,208.9c0.1,0.1,0,2-0.1,2.5
				c-0.2,1.3-0.4,2.4-0.8,3.8c-0.1,0.3-0.2,0.6-0.2,0.6c0,0-1.2-1.1-1.6-1.6c-0.7-0.8-1.2-1.6-1.6-2.3c-0.2-0.4-0.5-1.2-0.5-1.2
				C-331.8,210.6-327.2,208.9-327.2,208.9L-327.2,208.9z M-332.9,211.1C-332.8,211.1-332.8,211.1-332.9,211.1c0,0,0.1,0.2,0.2,0.3
				c0.3,0.8,0.9,1.9,1.4,2.6c0.6,0.8,1.4,1.6,2,2.2c0.2,0.2,0.4,0.3,0.4,0.4c0.1,0.1,0.1,0-1.3,0.6c-1.6,0.6-3.4,1.2-5.5,1.9
				c-0.5,0.2-1,0.3-1.5,0.5c-0.1,0-0.1,0,0.2-0.4c1-1.6,2.6-4.7,3.4-6.9c0.1-0.4,0.3-0.8,0.3-0.8c0-0.1,0.1-0.2,0.2-0.2
				C-332.9,211.1-332.9,211.1-332.9,211.1L-332.9,211.1z M-334.6,211.8c0,0-0.4,0.9-0.8,1.8c-0.8,1.6-1.8,3.2-3,5.2
				c-0.2,0.3-0.4,0.6-0.4,0.7c0,0.1-0.1,0-0.2-0.2c-0.3-0.6-0.5-1.3-0.7-2c-0.1-0.7-0.1-1.9,0-2.6c0.1-0.5,0.1-0.5,0.4-0.7
				C-338.2,213.5-334.6,211.8-334.6,211.8L-334.6,211.8z M-319.7,212.4v0.4c0,1.9-0.2,4.6-0.5,6.5c-0.1,0.3-0.1,0.6-0.1,0.6
				c0,0-0.3-0.1-0.5-0.2c-1.3-0.4-2.7-1-4-1.7c-0.8-0.5-2.1-1.2-2-1.2c0,0,0.4-0.2,0.8-0.4c1.7-0.9,3.3-1.8,4.7-2.8
				c0.5-0.4,1.3-0.9,1.5-1.1L-319.7,212.4L-319.7,212.4L-319.7,212.4z M-341.1,215c0,0,0,0.1,0,0.4c0,0.2-0.1,0.6-0.1,0.9
				c-0.1,1.3,0.1,2.2,0.8,3.5c0.2,0.4,0.3,0.6,0.3,0.7c-0.1,0.1-5.8,1.7-7.6,2.2c-0.5,0.1-1,0.3-1,0.3c-0.1,0-0.1,0,0-0.1
				c0.2-1.3,1.2-2.9,2.5-4.3c0.9-0.9,1.6-1.5,2.8-2.2C-342.6,215.8-341.2,215-341.1,215C-341.1,215-341.1,215-341.1,215z
				 M-327.6,217.4c0,0,0.2,0.1,0.5,0.3c1.9,1.1,4.4,2.1,6.6,2.6l0.2,0l-0.3,0.2c-1.2,0.6-4.9,2.2-8.8,3.7c-0.6,0.2-1.1,0.4-1.2,0.5
				c-0.1,0-0.2,0.1-0.2,0.1c0,0,0.2-0.3,0.4-0.7c1.1-2,2.2-4.5,2.7-6.2C-327.7,217.6-327.6,217.4-327.6,217.4L-327.6,217.4z
				 M-329,217.9c0,0-0.1,0.2-0.1,0.4c-0.8,1.8-1.7,3.8-3,6.1c-0.3,0.6-0.6,1-0.6,1c0,0-0.3-0.2-0.6-0.3c-1.8-1.1-3.5-2.5-4.5-3.9
				l-0.2-0.2l0.8-0.2c2.8-0.8,5.2-1.6,7.6-2.6C-329.3,218-329,217.9-329,217.9z M-320.4,220.9C-320.4,220.9-320.4,220.9-320.4,220.9
				c0,0.2-0.4,2-0.8,3.3c-0.3,1.1-0.6,1.9-1,3.4c-0.2,0.7-0.4,1.2-0.4,1.2c0,0-0.1,0-0.1,0c-2.6-0.5-4.9-1.1-7-2
				c-0.6-0.2-1.5-0.6-1.5-0.7c0,0,0.5-0.3,1.2-0.5c3.9-1.7,8-3.7,9.4-4.5C-320.6,220.9-320.5,220.9-320.4,220.9z M-340.2,221.5
				c0,0-1.1,1.6-2.6,3.8c-0.5,0.8-1.2,1.6-1.4,2c-0.2,0.3-0.6,0.8-0.8,1.2l-0.4,0.6l-0.4-0.3c-0.5-0.4-1.3-1.2-1.6-1.6
				c-0.7-0.9-1.2-1.9-1.4-2.8c-0.1-0.4-0.1-0.6,0-0.6c0.1,0,2.4-0.6,4.6-1.1c1.2-0.3,2.6-0.6,3.1-0.7
				C-340.6,221.6-340.2,221.5-340.2,221.5L-340.2,221.5z M-339.1,221.9l0.3,0.3c1.2,1.4,2.5,2.4,4.1,3.3c0.3,0.2,0.5,0.3,0.5,0.3
				c-0.1,0-5.3,1.9-7.8,2.8c-1.4,0.5-2.5,0.9-2.5,0.9s-0.1-0.1-0.2-0.1l-0.2-0.1l0.3-0.4c0.8-1.2,1.8-2.5,4.1-5.1L-339.1,221.9
				L-339.1,221.9z M-332.2,226.9c0,0,0.4,0.1,0.9,0.3c1.1,0.4,2,0.7,3.2,1c1.5,0.4,3.6,0.7,4.9,0.8c0.2,0,0.3,0,0.3,0.1
				c-0.1,0-1.3,0.5-2.3,0.8c-1.5,0.5-6,1.8-9.7,2.9c-0.7,0.2-1.3,0.4-1.3,0.4c-0.1,0-0.4-0.1-0.4-0.1c0,0,0.2-0.3,0.5-0.6
				c1.2-1.5,2.5-3.2,3.5-4.7C-332.4,227.3-332.2,226.9-332.2,226.9L-332.2,226.9z M-333.7,226.9c0,0-0.6,1-1.7,2.7
				c-0.5,0.7-1,1.5-1.2,1.8c-0.2,0.3-0.4,0.7-0.6,1l-0.3,0.4l-0.1,0c-0.3-0.1-2.5-0.9-3.1-1.1c-0.7-0.3-1.5-0.6-2-0.9
				c-0.7-0.4-1.6-0.9-1.5-0.9c0,0,1.2-0.3,2.6-0.7c3.8-1,5.9-1.6,7.3-2.1C-333.9,227-333.7,226.9-333.7,226.9L-333.7,226.9z
				 M-322.9,229.5L-322.9,229.5c0,0.1-1.4,4-1.9,5.2c-0.1,0.3-0.2,0.3-0.2,0.3c-0.1,0-2.2-0.3-3.4-0.5c-2.2-0.3-5.8-1-6.7-1.2
				l-0.2,0l1.3-0.3c2.8-0.6,4.1-1,5.5-1.4c1.7-0.5,3.4-1.2,5.1-2C-323.2,229.6-323,229.5-322.9,229.5L-322.9,229.5z"/>
			
				<linearGradient id="SVGID_2_" gradientUnits="userSpaceOnUse" x1="-100411.6953" y1="-75121.5391" x2="-100395.7266" y2="-75121.5391" gradientTransform="matrix(3.840750e-02 0 0 3.840750e-02 3516.6055 3068.927)">
				<stop  offset="0" style="stop-color:#939FAB"/>
				<stop  offset="1" style="stop-color:#DCDEE1"/>
			</linearGradient>
			<path class="st1" d="M-329.4,178.3c-0.2,0-3.3,1.1-5.2,1.9c-2.7,1.1-4.8,2.1-6,3c-0.5,0.3-1.1,0.9-1.2,1.2c0,0.1-0.1,0.2-0.1,0.3
				l1.2,1.1l2.8,0.9l6.6,1.2l7.5,1.3l0.1-0.6c0,0,0,0-0.1,0l-1-0.2l-0.2-0.4c-1-1.8-2.1-4-2.8-5.5c-0.5-1.2-1-2.5-1.3-3.5
				C-329.2,178.3-329.3,178.3-329.4,178.3L-329.4,178.3L-329.4,178.3L-329.4,178.3L-329.4,178.3z M-329.5,178.7L-329.5,178.7
				c0,0,0.1,0.3,0.1,0.5c0.1,1.2,0.4,2.4,0.8,3.6c0.3,1,0.3,0.9-0.1,0.8c-0.9-0.2-4.8-0.9-7.7-1.3c-0.5-0.1-0.8-0.1-0.8-0.1
				c0,0,2.1-1.1,3-1.6C-333,180.1-329.7,178.8-329.5,178.7z M-337.8,182.6l0.3,0.1c1.8,0.6,6.4,1.5,9,1.7c0.3,0,0.5,0.1,0.5,0.1
				c0,0-0.2,0.1-0.5,0.3c-1.2,0.6-2.6,1.4-3.5,1.9c-0.3,0.2-0.5,0.3-0.6,0.3c0,0-0.2,0-0.4-0.1l-0.3-0.1l-0.9-0.8
				c-1.5-1.5-2.7-2.6-3.2-3.1L-337.8,182.6z M-338.2,182.9l1.2,1.5c0.7,0.8,1.3,1.7,1.5,1.8c0.1,0.2,0.3,0.3,0.3,0.3
				c0,0-1.8-0.3-2.7-0.5c-0.9-0.2-1.3-0.3-1.9-0.5l-0.5-0.2v-0.1c0-0.6,0.7-1.4,2-2.3L-338.2,182.9z M-327.8,184.9
				c0,0,0.1,0.1,0.2,0.3c0.3,0.6,1.2,2.4,1.4,2.7c0.1,0.1,0.2,0.1-1-0.1c-2.9-0.5-3.9-0.6-3.9-0.6c0,0,0.1-0.1,0.2-0.1
				c0.9-0.5,1.8-1.1,2.6-1.8C-328.1,185.1-327.9,185-327.8,184.9C-327.8,184.9-327.8,184.9-327.8,184.9L-327.8,184.9z"/>
			
				<radialGradient id="SVGID_3_" cx="851.203" cy="126.0317" r="3.939" gradientTransform="matrix(0.2354 0 0 0.2354 -518.4697 176.1472)" gradientUnits="userSpaceOnUse">
				<stop  offset="0" style="stop-color:#EE352C"/>
				<stop  offset="1" style="stop-color:#A91D22"/>
			</radialGradient>
			<path class="st2" d="M-341.7,184.2c0,0-0.2,0.3,0,0.8c0.1,0.3,0.4,0.6,0.8,1c0,0,3.9,3.8,4.3,4.3c2.1,2.5,3.1,4.9,3.1,8.2
				c0.1,2.1-0.4,4-1.4,6.2c-1.8,3.9-5.6,8.3-11.5,13.1l0.9-0.3c0.6-0.4,1.3-0.9,3.1-1.8c4.1-2.2,8.7-4.3,14.3-6.4
				c8.1-3,21.4-6.6,29-7.8l0.8-0.1l-0.1-0.2c-0.7-1.1-1.2-1.7-1.7-2.4c-1.7-2.1-3.7-3.7-6.1-5.1c-3.4-1.9-7.8-3.4-13.3-4.5
				c-1-0.2-3.3-0.6-5.2-0.9c-4-0.6-6.5-1-9.3-1.5c-1-0.2-2.5-0.4-3.5-0.6c-0.5-0.1-1.5-0.3-2.3-0.6
				C-340.6,185.2-341.5,185-341.7,184.2L-341.7,184.2z M-339.5,186.4c0,0,0.1,0,0.3,0.1c0.3,0.1,0.8,0.2,1.3,0.4
				c0.4,0.1,0.8,0.2,1.1,0.3c0.5,0.1,1,0.3,1,0.3c0.1,0.1,0.9,2.9,1.2,3.9c0.1,0.4,0.2,0.8,0.2,0.8c0,0-0.1-0.1-0.2-0.3
				c-1-1.8-2.6-3.6-4.5-5C-339.3,186.6-339.5,186.4-339.5,186.4L-339.5,186.4z M-335.2,187.6c0,0,0.2,0,0.5,0.1
				c1.5,0.3,4.1,0.8,5.8,1.1c0.3,0,0.5,0.1,0.5,0.1c0,0-0.1,0.1-0.2,0.1c-0.3,0.1-1.4,0.8-1.8,1.1c-1,0.6-1.8,1.3-2.5,2
				c-0.3,0.3-0.5,0.5-0.5,0.5s-0.1-0.1-0.1-0.3c-0.3-1.2-1-3-1.5-4.2C-335.2,187.8-335.3,187.6-335.2,187.6
				C-335.3,187.6-335.3,187.6-335.2,187.6L-335.2,187.6z M-327.7,189c0.1,0,0.1,0.3,0.3,1c0.3,1.3,0.5,2.7,0.4,4
				c0,0.4,0,0.7-0.1,0.7l0,0.1l-0.4-0.1c-0.9-0.3-2.4-0.7-3.7-1.1c-0.7-0.2-1.3-0.4-1.3-0.4c0-0.1,1.1-1.1,1.5-1.5
				C-330.2,190.8-327.8,189-327.7,189L-327.7,189z M-327.2,189.1c0,0,3.6,0.6,5.2,0.9c1.2,0.2,3,0.6,3.1,0.6c0.1,0-0.1,0.1-0.7,0.4
				c-2.3,1-4,2-5.7,3.1c-0.4,0.3-0.8,0.5-0.8,0.5c0,0,0-0.3,0-0.6c0-1.6-0.3-3.3-0.9-4.7C-327.1,189.2-327.2,189.1-327.2,189.1z
				 M-318,190.9c0,0-0.1,0.7-0.2,1.1c-0.3,1.3-1.2,3.2-2.2,5c-0.2,0.3-0.3,0.6-0.4,0.6c0,0-0.3-0.1-0.5-0.3c-1-0.6-2.1-1.1-3.4-1.7
				c-0.3-0.1-0.6-0.3-0.7-0.3c-0.1-0.1,2.7-1.9,4.2-2.8C-319.9,191.9-318,190.9-318,190.9L-318,190.9z M-317.3,191
				c0.1,0,1.7,0.4,2.5,0.7c2,0.6,4.4,1.5,5.9,2.2l0.6,0.3l-0.4,0.1c-3.7,0.9-6.9,1.8-10,3.1c-0.3,0.1-0.5,0.2-0.5,0.2
				c0,0,0.1-0.2,0.2-0.4c0.9-2,1.5-4,1.7-5.8C-317.3,191.2-317.3,191-317.3,191L-317.3,191z M-333,194.6c0,0,1.2,0.3,1.9,0.4
				c1,0.3,3.1,1,3.1,1c0,0-0.2,0.2-0.5,0.5c-1.1,0.9-2.2,1.9-3.5,3.2c-0.4,0.4-0.7,0.7-0.7,0.7c0,0,0-0.1,0-0.1
				c0.2-1.5,0.2-3.3-0.1-5.2C-333,194.8-333,194.6-333,194.6z M-307.7,194.6c0,0-0.6,0.9-0.9,1.4c-0.5,0.7-1.3,1.7-3,3.9
				c-0.9,1.1-1.9,2.4-2.3,2.9c-0.3,0.4-0.6,0.8-0.6,0.8c0,0-0.1-0.2-0.2-0.3c-1-1.5-2.1-2.7-3.5-3.9c-0.3-0.2-0.5-0.5-0.6-0.5
				c-0.1-0.1-0.2-0.1-0.2-0.1c0,0,1.5-0.7,2.6-1.1c2-0.8,4.6-1.7,6.6-2.4C-308.8,195-307.7,194.6-307.7,194.6L-307.7,194.6z
				 M-307,194.8c0,0,0.2,0.1,0.5,0.2c2.1,1.2,4.2,2.8,5.8,4.3c0.5,0.5,1.6,1.6,1.6,1.6c0,0-0.4,0-0.9,0.1c-3.6,0.3-8.3,1-12.8,2.1
				c-0.3,0.1-0.6,0.1-0.6,0.1c0,0,0.3-0.3,0.7-0.7c2.6-2.5,3.8-4.1,5.3-7C-307.2,195.2-307,194.8-307,194.8
				C-307,194.8-307,194.8-307,194.8L-307,194.8z M-326.3,196.8c0.1,0,1.2,0.6,2.1,1c0.8,0.4,1.9,1,2,1.1c0,0-0.4,0.2-0.9,0.5
				c-1.6,0.8-3,1.6-4.5,2.5c-0.4,0.3-0.8,0.5-0.8,0.5c0,0,0,0,0.2-0.5c0.8-1.4,1.4-3.1,1.8-4.8
				C-326.4,196.9-326.3,196.8-326.3,196.8L-326.3,196.8z M-327.4,197c0,0-0.3,1.1-0.5,1.7c-0.4,1.1-1,2.5-1.5,3.5
				c-0.1,0.2-0.3,0.6-0.5,0.8l-0.2,0.3l-0.5-0.5c-0.6-0.5-1-0.9-1.6-1.2c-0.2-0.1-0.4-0.2-0.4-0.2c0-0.1,1.5-1.4,2.6-2.4
				C-329.2,198.4-327.5,197-327.4,197L-327.4,197z M-320.5,199.8l0.4,0.3c1,0.6,2.1,1.5,3,2.2c0.5,0.4,1.4,1.3,1.6,1.5l0.1,0.1
				l-0.7,0.2c-4,1.1-7,2.1-10.6,3.4c-0.4,0.1-0.7,0.3-0.8,0.3c-0.1,0-0.1,0,0.8-0.8c2.3-2.1,4.3-4.4,5.8-6.7L-320.5,199.8
				L-320.5,199.8z M-322.4,200.3c0,0-1.2,1.7-1.9,2.6c-0.8,1.1-2.4,3-3.4,4.2c-0.4,0.5-0.8,0.9-0.8,0.9c0,0,0-0.1,0-0.3
				c0-1-0.3-2.2-0.7-3.1c-0.2-0.4-0.2-0.5-0.2-0.5c0.2-0.1,2.7-1.6,4.3-2.4C-324.1,201.1-322.4,200.3-322.4,200.3L-322.4,200.3z
				 M-333.3,203c0,0,0.2,0.1,0.5,0.2c0.6,0.3,1,0.6,1.5,1c0,0-0.2,0.2-0.5,0.4c-0.8,0.6-2.1,1.5-2.8,2.1c-0.8,0.6-0.8,0.6-0.7,0.5
				c0.6-0.9,0.9-1.4,1.2-2c0.3-0.6,0.5-1.2,0.7-1.8C-333.4,203.2-333.3,203-333.3,203L-333.3,203z M-330.4,205.3
				c0,0,0.1,0.1,0.3,0.4c0.5,0.7,0.9,1.7,1,2.5l0,0.2l-1.2,0.5c-2.1,0.8-4.1,1.6-5.4,2.2c-0.4,0.2-1,0.5-1.4,0.7
				c-0.4,0.2-0.8,0.4-0.8,0.4s0.3-0.2,0.6-0.5c2.6-1.9,4.8-3.9,6.5-6C-330.6,205.5-330.4,205.3-330.4,205.3L-330.4,205.3
				L-330.4,205.3z M-331.7,205.6c0,0-1,1.2-1.6,1.8c-1.7,1.7-3.3,3-5.4,4.3c-0.3,0.2-0.5,0.3-0.5,0.3c-0.1,0,0-0.1,0.9-1
				c0.6-0.6,1-1.1,1.5-1.8c0.3-0.4,0.4-0.5,0.9-0.8C-334.7,207.5-331.8,205.5-331.7,205.6z"/>
		</g>
		<polygon class="st3" points="16,51.3 16.1,51.3 16.1,50.4 16.4,50.4 16.4,50.3 15.7,50.3 15.7,50.4 16,50.4 		"/>
		<path class="st3" d="M16.7,50.7c0-0.1,0-0.1,0-0.2C16.7,50.5,16.7,50.5,16.7,50.7l0.3,0.6h0.1l0.3-0.7c0,0,0-0.1,0-0.1
			c0,0.1,0,0.1,0,0.2v0.6h0.1v-1h-0.1L17.1,51c0,0,0,0.1,0,0.1h0c0,0,0-0.1,0-0.1l-0.3-0.7h-0.2v1h0.1L16.7,50.7L16.7,50.7
			L16.7,50.7z"/>
	</g>
	<path class="st3" d="M50.3,31.4c-0.1,0-0.3,0-0.4,0c-3,0.2-5.1,1.5-6.3,4.1c-1,2.3-0.9,5.4,0,7.8c1.1,2.3,2.8,3.5,5.7,4
		c0.6,0.1,1,0.4,2.2,1.8l1.5,1.7h2.6L53.8,49c-1-1-1.8-1.8-1.8-1.9c0-0.1,0.4-0.2,0.8-0.4c1.5-0.4,2.7-1.6,3.6-3.3
		c0.7-1.4,0.8-1.8,0.9-3.6C57.6,34.6,54.9,31.4,50.3,31.4L50.3,31.4L50.3,31.4z M52.6,45c-1.3,0.6-3.1,0.7-4.4,0.3
		c-1.3-0.5-2.5-1.8-3-3.2c-0.6-1.6-0.5-4.6,0.2-5.9C46.5,34,48,33,50.2,33c3.2,0,5,2,5.3,5.7C55.6,41.8,54.6,44.1,52.6,45L52.6,45z
		 M98.2,35.9c-1.1,0-2,0.4-2.5,1.3l-0.4,0.7v-1.8h-1.9V47h1.9v-3.5c0-3.2,0-3.6,0.5-4.4c0.6-1.2,1.7-1.8,2.7-1.5l0.7,0.2v-1.9
		L98.2,35.9L98.2,35.9L98.2,35.9z M86.9,35.8c-0.4,0-0.8,0-1.2,0.1c-2.6,0.7-4,3.1-3.9,5.6c0,2.1,0.4,3.2,1.4,4.3
		c2.1,1.7,4,1.8,6.5,0.9c0.4-0.2,0.9-0.4,0.9-0.4v-1.7l-0.9,0.5c-2.1,0.9-3.6,0.9-4.9-0.2c-0.8-0.8-1.1-1.8-1.3-2.9h7.7v-1.5
		C91.3,37.6,89.5,35.7,86.9,35.8L86.9,35.8L86.9,35.8z M83.8,40.5c0,0,0.3-1.9,1.3-2.6c0.5-0.4,1.1-0.5,1.7-0.5
		c0.6,0,1.1,0.2,1.6,0.5c1,0.7,1.1,2.6,1.1,2.6L83.8,40.5L83.8,40.5L83.8,40.5L83.8,40.5z M37.6,38.6c-2.1-1.3-3-2.2-2.9-3.2
		c0.3-3,4-2.5,6-1.4l0-2c0,0-1.1-0.5-2.7-0.5c-2.5,0-4.1,0.8-4.8,2.4c-1.1,2.4-0.1,4.3,3.4,6.3c2,1.1,2.8,2.1,2.8,3.2
		c0,2.2-2.7,3-5.5,1.6c-0.6-0.3-1.1-0.5-1.1-0.5c-0.1,0.6,0,2.2,0,2.2s0.9,0.4,2.1,0.6c3.2,0.6,6.1-0.9,6.4-3.3
		C41.6,41.6,40.8,40.4,37.6,38.6L37.6,38.6L37.6,38.6z M115.1,35.7c-0.4,0-0.8,0.1-1.2,0.1c-2.6,0.7-4,3.1-3.9,5.6
		c0,2.1,0.4,3.2,1.4,4.3c2.1,1.7,4,1.9,6.5,0.9c0.4-0.2,0.9-0.4,0.9-0.4v-1.7l-0.9,0.5c-2.1,0.9-3.6,0.9-4.9-0.2
		c-0.8-0.8-1.1-1.8-1.3-2.9h7.7v-1.5C119.5,37.6,117.7,35.7,115.1,35.7L115.1,35.7L115.1,35.7z M112,40.5c0,0,0.3-1.9,1.3-2.6
		c0.5-0.4,1.1-0.5,1.7-0.5c0.6,0,1.1,0.2,1.6,0.5c1,0.7,1.1,2.6,1.1,2.6L112,40.5L112,40.5L112,40.5z M76.9,38.6
		c-2.1-1.3-3-2.2-2.9-3.2c0.3-3,4-2.5,6-1.4l0-2c0,0-1.1-0.5-2.7-0.5c-2.5,0-4.1,0.8-4.8,2.4c-1.1,2.4-0.1,4.3,3.4,6.3
		c2,1.1,2.8,2.1,2.8,3.2c0,2.2-2.7,3-5.5,1.6c-0.6-0.3-1.1-0.5-1.1-0.5c-0.1,0.6,0,2.2,0,2.2s0.8,0.3,2.1,0.6
		c3.2,0.6,6.1-0.9,6.4-3.3C80.8,41.7,80,40.5,76.9,38.6L76.9,38.6L76.9,38.6L76.9,38.6z M126.4,35.8c-1.1,0-2,0.4-2.5,1.3l-0.4,0.7
		V36h-1.9v10.9h1.9v-3.5c0-3.2,0-3.6,0.5-4.4c0.6-1.2,1.7-1.8,2.7-1.5l0.7,0.2v-1.9L126.4,35.8L126.4,35.8L126.4,35.8z M61.7,38.5
		v-6.9h-1.9V47h8.1v-1.8h-6.2V38.5L61.7,38.5z M106.3,40.7l-1.6,4.1l-1.5-4.2l-1.6-4.6h-2c1.3,3.6,2.7,7.3,4.1,10.9
		c0.6,0,1.2,0,1.8,0l2.1-5.4l2.2-5.5H108C108,36.1,107.2,38.2,106.3,40.7L106.3,40.7L106.3,40.7z M66.1,27.4c0.3,0,0.6-0.1,0.8-0.3
		c0.2-0.2,0.3-0.5,0.3-0.8c0-0.3-0.1-0.6-0.3-0.8c-0.2-0.2-0.5-0.3-0.8-0.3c-0.3,0-0.6,0.1-0.8,0.3C65.1,25.8,65,26,65,26.3
		c0,0.3,0.1,0.6,0.3,0.8C65.5,27.3,65.8,27.4,66.1,27.4L66.1,27.4z M65.4,25.6c0.2-0.2,0.4-0.3,0.7-0.3c0.3,0,0.5,0.1,0.7,0.3
		c0.2,0.2,0.3,0.4,0.3,0.7S67,26.8,66.8,27c-0.2,0.2-0.4,0.3-0.7,0.3c-0.3,0-0.5-0.1-0.7-0.3c-0.2-0.2-0.3-0.4-0.3-0.7
		C65.2,26,65.2,25.8,65.4,25.6z M65.9,26.4H66c0.1,0,0.2,0.1,0.3,0.2l0.1,0.3h0.2l-0.2-0.4c-0.1-0.1-0.1-0.2-0.2-0.3
		c0.1,0,0.2-0.1,0.3-0.1c0.1-0.1,0.1-0.2,0.1-0.2c0-0.1,0-0.2-0.1-0.3c-0.1-0.1-0.2-0.1-0.4-0.1h-0.4V27h0.2L65.9,26.4L65.9,26.4
		L65.9,26.4z M65.9,25.8h0.2c0.1,0,0.2,0,0.3,0.1c0,0,0.1,0.1,0.1,0.2c0,0.2-0.1,0.2-0.3,0.2h-0.2L65.9,25.8L65.9,25.8L65.9,25.8z
		 M34,26.3c0-0.5,0-0.8,0-1.1h0c0,0.3,0.1,0.4,0.2,0.6l1.9,4.1h0.3l1.9-4.2c0-0.1,0.1-0.3,0.2-0.5h0c0,0.4,0,0.8,0,1.1V30h0.6v-5.4
		h-0.8l-1.7,3.8c-0.1,0.1-0.1,0.4-0.3,0.7h0c0-0.1-0.1-0.4-0.2-0.6l-1.7-3.8h-0.8v5.4H34L34,26.3L34,26.3L34,26.3z M40.3,26.3h0.5
		v3.4h-0.5V26.3z M40.6,25.1c0.1,0,0.2,0,0.3-0.1c0.1-0.1,0.1-0.2,0.1-0.3c0-0.1,0-0.2-0.1-0.3c-0.1-0.1-0.2-0.1-0.3-0.1
		c-0.1,0-0.2,0-0.3,0.1c-0.1,0.1-0.1,0.2-0.1,0.3c0,0.1,0,0.2,0.1,0.3C40.4,25,40.5,25.1,40.6,25.1L40.6,25.1L40.6,25.1z M44.8,29.8
		v-0.6c-0.3,0.2-0.6,0.3-1,0.3c-0.4,0-0.7-0.1-1-0.4c-0.2-0.3-0.4-0.6-0.4-1.1c0-0.5,0.1-0.8,0.4-1.1c0.2-0.3,0.6-0.4,1-0.4
		c0.3,0,0.6,0.1,0.9,0.3v-0.6C44.5,26,44.2,26,43.9,26c-0.6,0-1.1,0.2-1.5,0.6c-0.4,0.4-0.5,0.9-0.5,1.5c0,0.6,0.2,1,0.5,1.4
		c0.3,0.4,0.8,0.6,1.3,0.6C44.1,30,44.5,29.9,44.8,29.8L44.8,29.8z M46.3,28c0-0.4,0.1-0.8,0.3-1.1c0.2-0.2,0.4-0.3,0.6-0.3
		c0.2,0,0.4,0,0.5,0.1V26c-0.1,0-0.2,0-0.4,0c-0.2,0-0.4,0.1-0.6,0.2c-0.2,0.1-0.3,0.4-0.4,0.7h0v-0.8h-0.6v3.9h0.6L46.3,28L46.3,28
		L46.3,28z M49.9,30c0.6,0,1.1-0.2,1.4-0.6c0.3-0.4,0.5-0.9,0.5-1.5c0-0.6-0.2-1.1-0.5-1.5C51,26.1,50.6,26,50,26
		c-0.6,0-1.1,0.2-1.4,0.5C48.2,26.8,48,27.4,48,28c0,0.6,0.2,1.1,0.5,1.4C48.9,29.8,49.3,30,49.9,30L49.9,30L49.9,30z M49,26.9
		c0.2-0.2,0.5-0.4,0.9-0.4c0.4,0,0.7,0.1,0.9,0.4c0.2,0.3,0.3,0.6,0.3,1.1c0,0.5-0.1,0.8-0.3,1.1c-0.2,0.3-0.5,0.4-0.9,0.4
		c-0.4,0-0.7-0.1-0.9-0.4c-0.2-0.3-0.3-0.6-0.3-1.1C48.7,27.5,48.8,27.1,49,26.9L49,26.9z M54.6,29.7c0.2-0.2,0.4-0.5,0.4-0.8
		c0-0.3-0.1-0.5-0.3-0.7c-0.2-0.1-0.4-0.3-0.7-0.4c-0.3-0.1-0.5-0.2-0.6-0.3c-0.1-0.1-0.2-0.2-0.2-0.4c0-0.2,0.1-0.3,0.2-0.4
		c0.1-0.1,0.3-0.1,0.5-0.1c0.3,0,0.6,0.1,0.9,0.3v-0.6C54.5,26,54.2,26,53.9,26c-0.4,0-0.7,0.1-1,0.3c-0.3,0.2-0.4,0.5-0.4,0.8
		c0,0.3,0.1,0.5,0.2,0.7c0.1,0.1,0.4,0.3,0.7,0.4c0.3,0.1,0.5,0.3,0.6,0.4c0.1,0.1,0.2,0.2,0.2,0.4c0,0.4-0.2,0.5-0.7,0.5
		c-0.4,0-0.7-0.1-1-0.4v0.7c0.3,0.2,0.6,0.2,1,0.2C53.9,30,54.3,29.9,54.6,29.7L54.6,29.7L54.6,29.7z M57.5,26
		c-0.6,0-1.1,0.2-1.4,0.5c-0.4,0.4-0.6,0.9-0.6,1.6c0,0.6,0.2,1.1,0.5,1.4c0.3,0.4,0.8,0.6,1.4,0.6c0.6,0,1.1-0.2,1.4-0.6
		c0.3-0.4,0.5-0.9,0.5-1.5c0-0.6-0.2-1.1-0.5-1.5C58.5,26.1,58.1,26,57.5,26L57.5,26L57.5,26z M58.7,28c0,0.5-0.1,0.8-0.3,1.1
		c-0.2,0.3-0.5,0.4-0.9,0.4c-0.4,0-0.7-0.1-0.9-0.4c-0.2-0.3-0.3-0.6-0.3-1.1c0-0.5,0.1-0.9,0.4-1.1c0.2-0.2,0.5-0.4,0.9-0.4
		c0.4,0,0.7,0.1,0.9,0.4C58.6,27.1,58.7,27.5,58.7,28L58.7,28L58.7,28z M60.4,29.9H61v-3.4h0.9v-0.5H61v-0.6c0-0.5,0.2-0.8,0.6-0.8
		c0.1,0,0.3,0,0.4,0.1v-0.6c-0.1,0-0.3-0.1-0.4-0.1c-0.3,0-0.6,0.1-0.8,0.3c-0.3,0.2-0.4,0.6-0.4,1v0.6h-0.7v0.5h0.7L60.4,29.9
		L60.4,29.9z M62.9,28.9c0,0.8,0.3,1.1,1,1.1c0.2,0,0.4,0,0.6-0.1v-0.5c-0.1,0.1-0.2,0.1-0.4,0.1c-0.2,0-0.4-0.1-0.4-0.2
		c-0.1-0.1-0.1-0.3-0.1-0.6v-2.2h1v-0.5h-1v-1.1c-0.2,0.1-0.4,0.1-0.6,0.2v0.9h-0.7v0.5h0.7L62.9,28.9L62.9,28.9z M129.7,36
		c-0.2-0.2-0.5-0.3-0.8-0.3c-0.3,0-0.6,0.1-0.8,0.3c-0.2,0.2-0.3,0.5-0.3,0.8c0,0.3,0.1,0.6,0.3,0.8c0.2,0.2,0.5,0.3,0.8,0.3
		c0.3,0,0.6-0.1,0.8-0.3c0.2-0.2,0.3-0.5,0.3-0.8C130,36.5,129.9,36.2,129.7,36L129.7,36L129.7,36z M129.6,37.5
		c-0.2,0.2-0.4,0.3-0.7,0.3c-0.3,0-0.5-0.1-0.7-0.3c-0.2-0.2-0.3-0.4-0.3-0.7c0-0.3,0.1-0.5,0.3-0.7c0.2-0.2,0.4-0.3,0.7-0.3
		c0.3,0,0.5,0.1,0.7,0.3c0.2,0.2,0.3,0.4,0.3,0.7C129.9,37.1,129.8,37.3,129.6,37.5z M129,36.9c0.1,0,0.2-0.1,0.3-0.1
		c0.1-0.1,0.1-0.2,0.1-0.3c0-0.1,0-0.2-0.1-0.3c-0.1-0.1-0.2-0.1-0.4-0.1h-0.4v1.4h0.2v-0.6h0.1c0.1,0,0.2,0.1,0.2,0.2l0.1,0.3h0.2
		l-0.2-0.4C129.2,37,129.1,36.9,129,36.9L129,36.9L129,36.9z M128.9,36.7h-0.2v-0.5h0.2c0.1,0,0.2,0,0.3,0.1c0.1,0,0.1,0.1,0.1,0.2
		C129.2,36.7,129.1,36.7,128.9,36.7L128.9,36.7L128.9,36.7z"/>
</g>
</svg>
