<?xml version="1.0" encoding="utf-8"?>
<!-- Generator: Adobe Illustrator 16.0.0, SVG Export Plug-In . SVG Version: 6.00 Build 0)  -->
<!DOCTYPE svg PUBLIC "-//W3C//DTD SVG 1.1//EN" "http://www.w3.org/Graphics/SVG/1.1/DTD/svg11.dtd">
<svg version="1.1" id="Layer_1" xmlns="http://www.w3.org/2000/svg" xmlns:xlink="http://www.w3.org/1999/xlink" x="0px" y="0px"
	 width="105px" height="65px" viewBox="0 0 105 65" enable-background="new 0 0 105 65" xml:space="preserve">
<g>
	
		<line fill="none" stroke="#3D6CB4" stroke-width="0.4384" stroke-linecap="round" stroke-linejoin="round" stroke-miterlimit="10" x1="28.856" y1="3.319" x2="28.856" y2="8.193"/>
	
		<line fill="none" stroke="#3D6CB4" stroke-width="0.4384" stroke-linecap="round" stroke-linejoin="round" stroke-miterlimit="10" x1="31.584" y1="5.758" x2="26.128" y2="5.758"/>
	
		<line fill="none" stroke="#3D6CB4" stroke-width="0.4384" stroke-linecap="round" stroke-linejoin="round" stroke-miterlimit="10" x1="41.244" y1="8.286" x2="41.244" y2="11.553"/>
	
		<line fill="none" stroke="#3D6CB4" stroke-width="0.4384" stroke-linecap="round" stroke-linejoin="round" stroke-miterlimit="10" x1="42.878" y1="9.919" x2="39.61" y2="9.919"/>
	
		<path fill="none" stroke="#3D6CB4" stroke-width="0.3959" stroke-linecap="round" stroke-linejoin="round" stroke-miterlimit="10" d="
		M61.606,23.411l1.561-0.677l-1.596-3.677l-1.794,0.779c-0.663-0.877-1.374-1.532-2.147-2.048l0.689-1.915l-3.788-1.53l-0.718,1.807
		c-1.11-0.183-2.315-0.171-3.393,0.028l-0.692-1.596l-3.433,1.489l0.693,1.595c-1.373,0.863-1.896,1.578-2.521,2.513l-1.912-0.689
		l-1.529,3.787l1.883,0.895c-0.151,0.918-0.179,1.893,0.008,2.977l-1.937,0.839l1.595,3.676l1.703-0.737
		c0.72,1.144,1.621,1.981,2.714,2.711l-0.755,1.763l3.755,1.455l0.875-1.919c1.11,0.183,1.982,0.271,3.55-0.143l0.81,1.868
		l3.432-1.489l-0.81-1.866c0.883-0.651,1.723-1.502,2.347-2.437l1.826,0.728l1.485-3.769l-1.773-0.583
		C61.949,25.947,61.951,24.718,61.606,23.411z M54.557,31.086c-3.048,1.322-6.591-0.078-7.913-3.125
		c-1.322-3.049,0.078-6.591,3.125-7.913c3.049-1.322,6.591,0.076,7.914,3.125C59.004,26.22,57.605,29.764,54.557,31.086z"/>
	<g opacity="0.3" enable-background="new    ">
		<g>
			<defs>
				<rect id="SVGID_1_" x="41.024" y="14.377" width="22.529" height="22.511"/>
			</defs>
			<clipPath id="SVGID_2_">
				<use xlink:href="#SVGID_1_"  overflow="visible"/>
			</clipPath>
			<path clip-path="url(#SVGID_2_)" fill="#528AC8" d="M61.651,23.444l1.56-0.677l-1.595-3.677l-1.794,0.778
				c-0.664-0.878-1.375-1.532-2.148-2.047l0.689-1.914l-3.788-1.53l-0.717,1.806c-1.11-0.182-2.315-0.172-3.394,0.028l-0.692-1.594
				l-3.432,1.487l0.692,1.596c-1.373,0.862-1.896,1.577-2.521,2.512l-1.913-0.689l-1.529,3.787l1.884,0.896
				c-0.152,0.917-0.18,1.893,0.008,2.976l-1.937,0.839l1.595,3.677l1.702-0.738c0.721,1.144,1.621,1.981,2.715,2.713l-0.755,1.762
				l3.755,1.454l0.875-1.92c1.11,0.183,1.981,0.271,3.55-0.141l0.81,1.867l3.432-1.488l-0.81-1.867
				c0.883-0.65,1.723-1.502,2.348-2.436l1.826,0.726l1.485-3.767l-1.774-0.582C61.992,25.981,61.993,24.752,61.651,23.444
				 M54.557,31.086c-3.048,1.322-6.591-0.078-7.913-3.125c-1.322-3.049,0.078-6.591,3.125-7.913
				c3.049-1.322,6.591,0.076,7.914,3.125C59.004,26.22,57.605,29.764,54.557,31.086"/>
		</g>
	</g>
	<path fill-rule="evenodd" clip-rule="evenodd" fill="none" stroke="#528AC8" stroke-width="0.4384" stroke-miterlimit="10" d="
		M31.375,13.281c0.097-0.082,0.195-0.159,0.291-0.24c0.935-0.803,1.848-0.588,2.353,0.549c0.35,0.792,0.368,1.626,0.043,2.391
		c-0.375,0.879-0.768,1.814-1.394,2.509c-1.284,1.424-1.989,3.039-2.198,4.912c-0.23,2.076-0.575,4.166-0.051,6.226
		c0.352,1.38,0.921,2.708,1.393,4.058c0.079-0.007,0.159-0.014,0.238-0.022c0.047-0.559,0.158-1.121,0.128-1.676
		c-0.144-2.728-0.282-5.459-0.51-8.182c-0.114-1.381,0.281-2.336,1.503-2.982c1.43-0.757,2.629-0.415,3.265,1.087
		c0.43,1.02,0.748,2.116,0.92,3.209c0.334,2.121,0.493,4.271,0.805,6.396c0.099,0.685,0.391,1.361,0.7,1.988
		c0.857,1.741,1.654,3.495,2.011,5.42c0.512,2.76,0.345,5.52-0.343,8.194c-0.768,2.983-0.93,5.977-0.799,9.019
		c0.058,1.338-0.105,1.479-1.455,1.479c-2.691,0.001-5.382,0.003-8.073-0.001c-1.047-0.003-1.345-0.304-1.354-1.335
		c-0.018-1.979,0.032-3.964-0.083-5.94c-0.061-1.052-0.24-2.163-0.658-3.117c-1.406-3.208-2.827-6.421-4.466-9.512
		c-1.503-2.832-1.663-5.688-1.062-8.744c0.477-2.423,0.731-4.89,1.14-7.328c0.108-0.643,0.312-1.325,0.663-1.865
		c1.302-1.999,2.677-3.95,4.047-5.905c0.23-0.328,0.543-0.616,0.866-0.859C30.198,12.328,30.735,12.407,31.375,13.281z"/>
	<path fill-rule="evenodd" clip-rule="evenodd" fill="none" stroke="#528AC8" stroke-width="0.4384" stroke-miterlimit="10" d="
		M72.92,33.748c1.706-2.939,2.159-5.962,1.688-9.149c-0.106-0.723-0.187-1.45-0.31-2.17c-0.237-1.393-0.834-2.607-1.81-3.642
		c-0.918-0.975-1.621-2.096-1.748-3.449c-0.057-0.633,0.05-1.345,0.297-1.928c0.425-0.994,1.326-1.129,2.152-0.444
		c0.126,0.105,0.257,0.21,0.388,0.315c0.582-0.862,1.034-0.961,1.916-0.365c0.37,0.249,0.728,0.56,0.982,0.92
		c1.376,1.949,2.73,3.915,4.072,5.888c0.764,1.121,0.719,2.457,0.92,3.723c0.388,2.442,0.733,4.891,1.127,7.331
		c0.31,1.896,0.183,3.694-0.675,5.465c-1.714,3.54-3.335,7.124-5.006,10.686c-0.521,1.111-0.778,2.269-0.78,3.495
		c-0.002,1.98-0.027,3.96-0.048,5.941c-0.008,0.925-0.321,1.246-1.237,1.248c-2.843,0.004-5.684,0.004-8.526,0
		c-0.871-0.002-1.121-0.253-1.121-1.104c0-0.323,0.003-0.647,0.019-0.97c0.146-2.831-0.127-5.601-0.8-8.374
		c-0.824-3.401-0.996-6.859,0.181-10.25c0.315-0.911,0.655-1.835,1.142-2.66c0.94-1.599,1.129-3.337,1.323-5.126
		c0.229-2.087,0.646-4.157,1.047-6.22c0.171-0.87,0.583-1.662,1.374-2.185c0.526-0.348,1.063-0.411,1.655-0.188
		c1.704,0.642,2.234,1.63,2.111,3.421c-0.204,3.022-0.291,6.054-0.417,9.083C72.827,33.24,72.882,33.444,72.92,33.748z"/>
	
		<path fill="none" stroke="#3D6CB4" stroke-width="0.3768" stroke-linecap="round" stroke-linejoin="round" stroke-miterlimit="10" d="
		M76.106,57.96v0.056c0,2.022-2.221,3.664-4.963,3.664h-1.139c-2.738,0-4.96-1.642-4.96-3.664V57.96H76.106z"/>
	<g opacity="0.3" enable-background="new    ">
		<g>
			<defs>
				<rect id="SVGID_3_" x="65.045" y="57.96" width="11.062" height="3.72"/>
			</defs>
			<clipPath id="SVGID_4_">
				<use xlink:href="#SVGID_3_"  overflow="visible"/>
			</clipPath>
			<path clip-path="url(#SVGID_4_)" fill="#528AC8" d="M76.106,57.96v0.056c0,2.022-2.221,3.664-4.963,3.664h-1.139
				c-2.738,0-4.96-1.642-4.96-3.664V57.96H76.106z"/>
		</g>
	</g>
	
		<path fill="none" stroke="#3D6CB4" stroke-width="0.3768" stroke-linecap="round" stroke-linejoin="round" stroke-miterlimit="10" d="
		M39.85,57.96v0.056c0,2.022-2.221,3.664-4.96,3.664H33.75c-2.74,0-4.961-1.642-4.961-3.664V57.96H39.85z"/>
	<g opacity="0.3" enable-background="new    ">
		<g>
			<defs>
				<rect id="SVGID_5_" x="28.79" y="57.96" width="11.061" height="3.72"/>
			</defs>
			<clipPath id="SVGID_6_">
				<use xlink:href="#SVGID_5_"  overflow="visible"/>
			</clipPath>
			<path clip-path="url(#SVGID_6_)" fill="#528AC8" d="M39.85,57.96v0.056c0,2.022-2.221,3.664-4.96,3.664H33.75
				c-2.74,0-4.961-1.642-4.961-3.664V57.96H39.85z"/>
		</g>
	</g>
</g>
</svg>
