<?xml version="1.0" encoding="utf-8"?>
<!-- Generator: Adobe Illustrator 21.0.2, SVG Export Plug-In . SVG Version: 6.00 Build 0)  -->
<svg version="1.1" id="Layer_1" xmlns="http://www.w3.org/2000/svg" xmlns:xlink="http://www.w3.org/1999/xlink" x="0px" y="0px"
	 width="190px" height="72px" viewBox="0 0 190 72" style="enable-background:new 0 0 190 72;" xml:space="preserve">
<style type="text/css">
	.st0{fill:#696060;}
	.st1{fill:#FFFFFF;}
	.st2{fill:#EC6A2E;}
</style>
<g>
	<path class="st0" d="M53.8,46.7c0.3,0,0.5,0.1,0.8,0.1c1.3,0,2.7,0,4,0c1,0,1,0,1-1c0-4.8,0-9.6,0-14.3c0-0.3,0.1-0.7,0.4-0.9
		c1.5-1.2,3.2-1.8,5.1-1.7c1,0.1,1.8,0.5,2.1,1.5c0.2,0.6,0.3,1.3,0.3,1.9c0,4.5,0,9.1,0,13.6c0,0.7,0.2,0.9,0.9,0.9
		c1.4,0,2.7,0,4.1,0c0.3,0,0.5,0,0.8-0.1c0-0.3,0-0.5,0-0.8c0-4.9,0-9.7,0-14.6c0-0.5,0.1-0.9,0.6-1.2c1.7-1.1,3.5-1.5,5.4-1.3
		c0.9,0.1,1.5,0.7,1.8,1.6c0.1,0.6,0.2,1.2,0.2,1.7c0,4.6,0,9.1,0,13.7c0,0.7,0.2,0.9,0.9,0.9c1.4,0,2.8,0,4.2,0
		c0.7,0,0.8-0.2,0.8-0.9c0-4.6,0-9.1,0-13.7c0-1.1-0.1-2.1-0.3-3.1c-0.5-2.5-1.9-4.2-4.4-4.7c-2.3-0.5-4.5-0.1-6.7,0.8
		c-1.1,0.5-2.1,1.1-3.1,1.7c-0.7-0.6-1.3-1.4-2.1-1.8c-2.7-1.4-5.5-1.2-8.2,0.2c-0.9,0.4-1.7,1-2.6,1.6c-0.3-0.6-0.6-1.3-0.9-1.8
		c-0.1-0.2-0.3-0.5-0.5-0.5c-1.5,0-2.9,0-4.4,0C53.8,32,53.8,39.3,53.8,46.7z"/>
	<path class="st0" d="M36.1,58.1c1.3,0,2.5,0,3.6,0c0.3,0,0.7-0.2,0.8-0.5c0.8-1.1,1.6-2.2,2.4-3.3c0.2-0.3,0.4-0.6,0.4-0.9
		c2.1-7.8,4.1-15.6,6.2-23.4c0.5-1.8,0.9-3.6,1.4-5.5c-0.3,0-0.5-0.1-0.8-0.1c-1.4,0-2.9,0-4.3,0c-0.7,0-1,0.2-1.2,0.9
		c-1.3,5.3-2.7,10.5-4,15.8c-0.1,0.6-0.4,0.7-0.9,0.6c-1.1-0.3-1.4-1.1-1.7-2.1c-1.2-4.8-2.4-9.7-3.6-14.5c-0.1-0.5-0.4-0.7-0.9-0.7
		c-1.6,0-3.2,0-4.7,0c-0.2,0-0.4,0-0.6,0.1c0.9,3.4,1.7,6.7,2.6,9.9c0.7,2.7,1.4,5.3,2.2,7.9c0.7,2.2,2.2,3.7,4.5,4.2
		c0.5,0.1,1.1,0.2,1.7,0.3C38.1,50.6,37.1,54.3,36.1,58.1z"/>
	<path class="st0" d="M160.8,46.8c1.8,0,3.4,0,5.1,0c0.6,0,0.7-0.2,0.7-0.8c0-4.7,0-9.4,0-14c0-1-0.1-1.9-0.3-2.9
		c-0.5-2.5-1.8-4.3-4.4-4.8c-2.6-0.5-5-0.1-7.2,1.3c-0.6,0.4-1.2,0.8-1.8,1.2c-0.3-0.7-0.6-1.3-0.9-1.9c-0.2-0.4-0.4-0.5-0.8-0.5
		c-1.2,0-2.3,0-3.5,0c-0.5,0-0.6,0.2-0.6,0.7c0,7,0,14,0,21c0,0.6,0.2,0.7,0.8,0.7c1.1,0,2.2,0,3.3,0c0.6,0,1.1,0,1.7,0
		c0-0.4,0-0.7,0-1c0-4.8,0-9.5,0-14.3c0-0.3,0.1-0.8,0.4-1c1.4-1.2,3-1.7,4.9-1.7c1.6,0,2.5,0.8,2.7,2.4c0,0.3,0,0.7,0,1.1
		c0,4.5,0,9.1,0,13.6C160.8,46.1,160.8,46.4,160.8,46.8z"/>
	<path class="st0" d="M20.5,29.1c1.6,0,3.1,0,4.7,0c0.6,0,0.8-0.2,0.7-0.7c0-0.5,0-0.9,0-1.4c0-1.8,0-1.8-1.8-2.1
		c-3.5-0.6-7.1-0.6-10.7-0.5c-2.7,0.1-4.6,1.5-4.9,3.9c-0.2,1.7-0.3,3.5-0.1,5.3c0.1,2,1.1,3.6,3.1,4.2c1,0.3,2.1,0.4,3.2,0.5
		c1.7,0.1,3.4,0,5.2,0c0.6,0,1,0.1,1.3,0.7c0.8,2-0.1,3.3-2.2,3.3c-0.2,0-0.4,0-0.6,0c-2.8,0-5.6,0-8.4,0c-0.6,0-0.8,0.2-0.8,0.8
		c0,0.7,0,1.4,0,2.1c0,0.6,0.2,0.9,0.7,1c0.2,0,0.4,0.1,0.6,0.1c4,0.7,8,0.8,12,0.7c2.3-0.1,4-1.7,4.3-4c0.2-1.4,0.2-2.9,0.2-4.3
		c0-3.3-1.9-5.4-5.2-5.5c-1.9-0.1-3.7,0-5.6,0c-1.9,0-2.2-0.3-2.2-2.2c0,0,0,0,0-0.1c0.1-1.4,0.4-1.8,1.8-1.8
		C17.4,29.1,19,29.1,20.5,29.1z"/>
	<path class="st0" d="M183.2,28.9c0-1.5,0-3,0-4.5c-1.7,0-3.3,0-4.9,0c0-1.9,0-3.7,0-5.5c0-0.5-0.1-0.7-0.7-0.7c-1.2,0-2.3,0-3.5,0
		c-0.6,0-0.8,0.2-0.8,0.7c-0.2,1.6-0.5,3.2-0.7,4.8c-0.1,0.5-0.3,0.8-0.8,0.9c-0.8,0.2-1.6,0.5-2.4,0.8c-0.2,0.1-0.5,0.4-0.5,0.6
		c-0.1,0.7,0,1.5,0,2.3c0,0.4,0.1,0.5,0.5,0.5c0.6,0,1.3,0,1.9,0c1.3,0,1.2-0.1,1.2,1.1c0,3.3,0,6.6,0,9.9c0,1.6,0.3,3.1,1,4.5
		c0.7,1.3,1.8,2.2,3.3,2.3c1.9,0.1,3.8,0.1,5.6,0.1c0.2,0,0.5-0.3,0.5-0.5c0-0.9,0.1-1.7,0-2.6c0-0.2-0.3-0.5-0.5-0.5
		c-0.7-0.3-1.5-0.5-2.2-0.7c-0.9-0.3-1.5-0.9-1.7-1.8c-0.1-0.5-0.2-1-0.2-1.5c0-3.2,0-6.5-0.1-9.7c0-0.2,0.1-0.3,0.1-0.5
		C180,28.9,181.6,28.9,183.2,28.9z"/>
	<path class="st1" d="M119.6,35.7c0-3.5,0-6.9,0-10.4c0-0.5-0.2-0.7-0.7-0.7c-1.4,0-2.8,0-4.2,0c-0.6,0-0.8,0.2-0.8,0.8
		c0,1.5,0,2.9,0,4.4c0,5.4,0,10.7,0,16.1c0,0.7,0.2,1,0.9,0.9c1.3,0,2.6,0,4,0c0.7,0,0.9-0.2,0.9-0.9
		C119.6,42.4,119.6,39.1,119.6,35.7z"/>
	<path class="st1" d="M119.5,13.8c-1.9,0-3.6,0-5.2,0c-0.2,0-0.4,0.3-0.4,0.5c0,1.3,0,2.6,0,4c0,0.2,0.1,0.4,0.2,0.5
		c0.5,0.3,1.9,0,2.2-0.5c0.7-1,1.4-1.9,2.1-2.9C118.8,15,119.1,14.5,119.5,13.8z"/>
	<path class="st0" d="M53.8,46.7c0-7.4,0-14.8,0-22.2c1.5,0,2.9,0,4.4,0c0.2,0,0.4,0.3,0.5,0.5c0.3,0.6,0.6,1.2,0.9,1.8
		c0.9-0.6,1.7-1.2,2.6-1.6c2.7-1.4,5.5-1.5,8.2-0.2c0.8,0.4,1.4,1.2,2.1,1.8c1-0.5,2-1.2,3.1-1.7c2.1-0.9,4.4-1.3,6.7-0.8
		c2.6,0.5,3.9,2.3,4.4,4.7c0.2,1,0.3,2.1,0.3,3.1c0,4.6,0,9.1,0,13.7c0,0.6-0.1,0.9-0.8,0.9c-1.4,0-2.8,0-4.2,0
		c-0.7,0-0.9-0.2-0.9-0.9c0-4.6,0-9.1,0-13.7c0-0.6,0-1.2-0.2-1.7c-0.2-0.9-0.8-1.5-1.8-1.6c-1.9-0.2-3.8,0.1-5.4,1.3
		c-0.4,0.3-0.6,0.6-0.6,1.2c0,4.9,0,9.7,0,14.6c0,0.2,0,0.5,0,0.8c-0.3,0-0.6,0.1-0.8,0.1c-1.4,0-2.7,0-4.1,0
		c-0.7,0-0.9-0.2-0.9-0.9c0-4.5,0-9.1,0-13.6c0-0.6-0.1-1.3-0.3-1.9c-0.3-1-1-1.4-2.1-1.5c-1.9-0.1-3.6,0.5-5.1,1.7
		c-0.2,0.2-0.4,0.6-0.4,0.9c0,4.8,0,9.6,0,14.3c0,1,0,1-1,1c-1.3,0-2.7,0-4,0C54.3,46.8,54,46.8,53.8,46.7z"/>
	<path class="st0" d="M96.4,44.6c-0.3,0.6-0.5,1.1-0.8,1.6c-0.2,0.4-0.4,0.6-0.9,0.6c-1.2,0-2.3,0-3.5,0c-0.5,0-0.7-0.2-0.7-0.7
		c0-10.5,0-21.1,0-31.6c0-0.5,0.1-0.7,0.6-0.6c1.7,0,3.3,0,5.1,0c0,3.9,0,7.8,0,11.7c1.3-0.4,2.5-0.8,3.7-1c1.5-0.2,2.9-0.3,4.4-0.2
		c2.7,0.2,4.5,1.7,5.1,4.3c0.5,1.7,0.7,3.6,0.8,5.3c0.2,2.5,0.1,5-0.5,7.5c-1.2,4.9-4.7,6.5-9.4,5.2c-1.2-0.3-2.3-1.1-3.4-1.6
		C96.8,44.9,96.6,44.7,96.4,44.6z M96.3,35.1c0,1.6,0,3.3,0,4.9c0,0.5,0.1,0.8,0.6,0.9c1.3,0.4,2.5,0.8,3.8,1c2,0.3,3-0.4,3.5-2.3
		c0.6-2.1,0.5-4.3,0.3-6.5c-0.1-1-0.3-2-0.6-3c-0.3-0.9-0.9-1.4-1.8-1.4c-1.7-0.1-3.4,0.1-5,0.6c-0.5,0.1-0.7,0.4-0.7,0.9
		C96.4,31.9,96.3,33.5,96.3,35.1z"/>
	<path class="st0" d="M36.1,58.1c1.1-3.8,2.1-7.5,3.1-11.3c-0.6-0.1-1.2-0.1-1.7-0.3c-2.3-0.5-3.8-2-4.5-4.2
		c-0.8-2.6-1.5-5.3-2.2-7.9c-0.9-3.3-1.7-6.6-2.6-9.9c0.2,0,0.4-0.1,0.6-0.1c1.6,0,3.2,0,4.7,0c0.6,0,0.8,0.2,0.9,0.7
		c1.2,4.8,2.4,9.7,3.6,14.5c0.2,0.9,0.6,1.8,1.7,2.1c0.6,0.1,0.8,0,0.9-0.6c1.3-5.3,2.7-10.5,4-15.8c0.2-0.7,0.5-1,1.2-0.9
		c1.4,0.1,2.9,0,4.3,0c0.2,0,0.5,0,0.8,0.1c-0.5,1.9-1,3.7-1.4,5.5c-2.1,7.8-4.1,15.6-6.2,23.4c-0.1,0.3-0.2,0.7-0.4,0.9
		c-0.8,1.1-1.6,2.2-2.4,3.3c-0.2,0.2-0.5,0.4-0.8,0.5C38.5,58.2,37.3,58.1,36.1,58.1z"/>
	<path class="st2" d="M123.1,35.6c0.2-1.6,0.4-3.6,0.8-5.6c0.6-3,2.6-4.7,5.5-5.3c2.5-0.5,5.1-0.5,7.6,0c3.3,0.6,5.3,2.6,5.9,5.8
		c0.7,3.6,0.8,7.2,0,10.8c-0.6,3-2.5,4.7-5.5,5.3c-2.8,0.5-5.6,0.5-8.3-0.1c-3.1-0.7-5-2.9-5.5-6.3
		C123.3,38.8,123.3,37.4,123.1,35.6z M137.7,36.3c-0.1-1.8-0.2-3-0.3-4.3c-0.1-1.7-0.9-2.8-2.2-3c-1-0.1-2-0.1-2.9-0.1
		c-1.8,0-3,0.9-3.1,3c-0.1,2.1-0.2,4.2-0.2,6.3c0,0.8,0.2,1.5,0.5,2.3c0.3,0.9,0.9,1.5,1.9,1.6c1.3,0.1,2.7,0.1,4.1,0
		c0.9-0.1,1.6-0.8,1.8-1.7C137.5,38.9,137.6,37.4,137.7,36.3z"/>
	<path class="st0" d="M160.8,46.8c0-0.4,0-0.7,0-1c0-4.5,0-9.1,0-13.6c0-0.4,0-0.7,0-1.1c-0.2-1.6-1.1-2.4-2.7-2.4
		c-1.8,0-3.5,0.6-4.9,1.7c-0.2,0.2-0.4,0.6-0.4,1c0,4.8,0,9.5,0,14.3c0,0.3,0,0.6,0,1c-0.6,0-1.2,0-1.7,0c-1.1,0-2.2,0-3.3,0
		c-0.5,0-0.8-0.1-0.8-0.7c0-7,0-14,0-21c0-0.5,0.1-0.7,0.6-0.7c1.2,0,2.3,0,3.5,0c0.4,0,0.6,0.1,0.8,0.5c0.3,0.6,0.6,1.2,0.9,1.9
		c0.6-0.4,1.2-0.8,1.8-1.2c2.2-1.4,4.7-1.8,7.2-1.3c2.6,0.5,3.9,2.3,4.4,4.8c0.2,0.9,0.3,1.9,0.3,2.9c0,4.7,0,9.4,0,14
		c0,0.6-0.1,0.8-0.7,0.8C164.2,46.8,162.6,46.8,160.8,46.8z"/>
	<path class="st0" d="M20.5,29.1c-1.6,0-3.1,0-4.7,0c-1.4,0-1.8,0.4-1.8,1.8c0,0,0,0,0,0.1c-0.1,1.9,0.3,2.2,2.2,2.2
		c1.9,0,3.7,0,5.6,0c3.3,0.1,5.2,2.2,5.2,5.5c0,1.4,0,2.9-0.2,4.3c-0.3,2.3-2,3.9-4.3,4c-4,0.2-8,0.1-12-0.7c-0.2,0-0.4-0.1-0.6-0.1
		c-0.5-0.1-0.8-0.4-0.7-1c0-0.7,0-1.4,0-2.1c0-0.6,0.2-0.8,0.8-0.8c2.8,0,5.6,0,8.4,0c0.2,0,0.4,0,0.6,0c2.1,0,3-1.3,2.2-3.3
		c-0.2-0.6-0.7-0.7-1.3-0.7c-1.7,0-3.4,0.1-5.2,0c-1.1,0-2.2-0.2-3.2-0.5c-2-0.6-3-2.2-3.1-4.2c-0.1-1.7-0.1-3.5,0.1-5.3
		c0.3-2.4,2.2-3.9,4.9-3.9c3.6-0.1,7.1,0,10.7,0.5c1.8,0.3,1.8,0.3,1.8,2.1c0,0.5,0,0.9,0,1.4c0,0.5-0.1,0.7-0.7,0.7
		C23.6,29,22.1,29.1,20.5,29.1z"/>
	<path class="st0" d="M183.2,28.9c-1.6,0-3.2,0-4.8,0c0,0.2-0.1,0.4-0.1,0.5c0,3.2,0,6.5,0.1,9.7c0,0.5,0.1,1,0.2,1.5
		c0.2,0.9,0.8,1.5,1.7,1.8c0.7,0.2,1.5,0.5,2.2,0.7c0.2,0.1,0.5,0.4,0.5,0.5c0.1,0.9,0,1.7,0,2.6c0,0.2-0.3,0.5-0.5,0.5
		c-1.9,0-3.8,0-5.6-0.1c-1.5-0.1-2.6-1-3.3-2.3c-0.8-1.4-1-2.9-1-4.5c-0.1-3.3,0-6.6,0-9.9c0-1.2,0.1-1.1-1.2-1.1
		c-0.6,0-1.3,0-1.9,0c-0.4,0-0.5-0.2-0.5-0.5c0-0.8,0-1.5,0-2.3c0-0.2,0.3-0.5,0.5-0.6c0.8-0.3,1.6-0.6,2.4-0.8
		c0.5-0.1,0.7-0.4,0.8-0.9c0.2-1.6,0.5-3.2,0.7-4.8c0.1-0.5,0.2-0.8,0.8-0.7c1.2,0,2.3,0,3.5,0c0.5,0,0.7,0.2,0.7,0.7
		c0,1.8,0,3.6,0,5.5c1.7,0,3.3,0,4.9,0C183.2,25.9,183.2,27.3,183.2,28.9z"/>
	<path class="st2" d="M119.6,35.7c0,3.4,0,6.8,0,10.2c0,0.7-0.2,0.9-0.9,0.9c-1.3,0-2.6,0-4,0c-0.7,0-0.9-0.2-0.9-0.9
		c0-5.4,0-10.7,0-16.1c0-1.5,0-2.9,0-4.4c0-0.6,0.2-0.8,0.8-0.8c1.4,0,2.8,0,4.2,0c0.6,0,0.7,0.2,0.7,0.7
		C119.6,28.8,119.6,32.2,119.6,35.7z"/>
	<path class="st2" d="M119.5,13.8c-0.4,0.7-0.8,1.2-1.1,1.7c-0.7,1-1.4,1.9-2.1,2.9c-0.3,0.5-1.8,0.8-2.2,0.5
		c-0.1-0.1-0.2-0.4-0.2-0.5c0-1.3,0-2.6,0-4c0-0.2,0.3-0.5,0.4-0.5C116,13.8,117.6,13.8,119.5,13.8z"/>
</g>
<g>
</g>
<g>
</g>
<g>
</g>
<g>
</g>
<g>
</g>
<g>
</g>
<g>
</g>
<g>
</g>
<g>
</g>
<g>
</g>
<g>
</g>
<g>
</g>
<g>
</g>
<g>
</g>
<g>
</g>
</svg>
