<?xml version="1.0" encoding="utf-8"?>
<!-- Generator: Adobe Illustrator 21.0.0, SVG Export Plug-In . SVG Version: 6.00 Build 0)  -->
<svg version="1.1"
	 id="svg2008" inkscape:version="0.48.5 r10040" sodipodi:docname="T-Mobile_logo.svg" sodipodi:version="0.32" xmlns:cc="http://creativecommons.org/ns#" xmlns:dc="http://purl.org/dc/elements/1.1/" xmlns:inkscape="http://www.inkscape.org/namespaces/inkscape" xmlns:rdf="http://www.w3.org/1999/02/22-rdf-syntax-ns#" xmlns:sodipodi="http://sodipodi.sourceforge.net/DTD/sodipodi-0.dtd" xmlns:svg="http://www.w3.org/2000/svg"
	 xmlns="http://www.w3.org/2000/svg" xmlns:xlink="http://www.w3.org/1999/xlink" x="0px" y="0px" viewBox="0 0 250 115"
	 style="enable-background:new 0 0 250 115;" xml:space="preserve">
<style type="text/css">
	.st0{fill:#999B9E;}
	.st1{fill:#ED008C;}
</style>
<g>
	
		<sodipodi:namedview  bordercolor="#666666" borderopacity="1.0" height="27.6mm" id="base" inkscape:bbox-nodes="true" inkscape:bbox-paths="true" inkscape:current-layer="svg2008" inkscape:cx="503.25509" inkscape:cy="-177.77119" inkscape:document-units="px" inkscape:guide-bbox="true" inkscape:object-nodes="true" inkscape:object-paths="true" inkscape:pageopacity="0.0" inkscape:pageshadow="2" inkscape:snap-bbox="true" inkscape:snap-bbox-edge-midpoints="true" inkscape:snap-bbox-midpoints="true" inkscape:snap-center="true" inkscape:snap-intersection-paths="true" inkscape:snap-object-midpoints="true" inkscape:snap-smooth-nodes="true" inkscape:window-height="1018" inkscape:window-maximized="1" inkscape:window-width="1920" inkscape:window-x="-8" inkscape:window-y="-8" inkscape:zoom="0.78723292" pagecolor="#ffffff" showgrid="false" showguides="false" units="mm" width="186.67mm">
		<sodipodi:guide  id="guide3247" orientation="0,1" position="62.635787,-253.72888"></sodipodi:guide>
		<sodipodi:guide  id="guide3265" orientation="0,1" position="243.25454,-217.78617"></sodipodi:guide>
		<sodipodi:guide  id="guide4070" orientation="0,1" position="342.87554,-242.11217"></sodipodi:guide>
	</sodipodi:namedview>
	
		<path id="path3209" sodipodi:cx="366.91431" sodipodi:cy="41.449261" sodipodi:rx="2.5044003" sodipodi:ry="2.5044003" sodipodi:type="arc" class="st0" d="
		M186,42.6c0,1.7-1.4,3.1-3.1,3.1c-1.7,0-3.1-1.4-3.1-3.1c0,0,0,0,0,0c0-1.7,1.4-3.1,3.1-3.1C184.6,39.5,186,40.9,186,42.6
		C186,42.6,186,42.6,186,42.6z"/>
	<rect id="rect3211" x="232.7" y="56.4" class="st0" width="7.8" height="8"/>
	<rect id="rect3213" x="78.1" y="56.4" class="st0" width="7.8" height="8"/>
	<rect id="rect3215" x="54.7" y="56.4" class="st0" width="7.8" height="8"/>
	<rect id="rect3217" x="31.7" y="56.4" class="st0" width="7.8" height="8"/>
	<rect id="rect3219" x="7.8" y="56.4" class="st0" width="7.8" height="8"/>
	<path id="path3221" inkscape:connector-curvature="0" class="st1" d="M26.6,40.5h0.9c6,0,8.8,3.2,9.9,11.7l1.8-0.1L39,38.6H8.6
		L8.3,52.2l1.8,0.1c0.3-3.2,0.7-4.9,1.5-6.6c1.4-3.2,4.4-5.1,8-5.1h1.3v29.4c0,3.1-0.2,4.1-0.9,4.8c-0.6,0.6-1.9,0.8-3.3,0.8h-1.4v2
		h16.9v-2h-1.4c-1.4,0-2.7-0.2-3.3-0.8c-0.7-0.7-0.9-1.7-0.9-4.8L26.6,40.5"/>
	<path id="path3223" inkscape:connector-curvature="0" class="st0" d="M106.9,77.6l9.8-34.4v27c0,2.9-0.2,4-0.8,4.7
		c-0.5,0.6-1.7,0.8-3,0.8h-0.5v1.9h13.9v-1.9h-0.7c-1.3,0-2.4-0.2-3-0.8c-0.7-0.7-0.8-1.7-0.8-4.7v-23c0-2.9,0.2-4.1,0.8-4.8
		c0.6-0.5,1.7-0.8,3-0.8h0.7v-1.8h-10.8l-8.1,27.8l-8-27.8H88.8v1.8h1c3,0,3.5,0.6,3.5,4.5v21.9c0,3.5-0.2,4.9-0.7,6
		c-0.6,1-1.7,1.7-3,1.7h-0.9v1.9h11.5v-1.9h-0.7c-1.4,0-2.6-0.6-3.3-1.7c-0.7-1.1-0.8-2.1-0.8-6V43.2l9.8,34.4L106.9,77.6"/>
	<path id="path3225" inkscape:connector-curvature="0" class="st0" d="M138.4,50.7c-6.9,0-11.4,5.4-11.4,13.9
		c0,8.2,4.5,13.8,11.2,13.8c6.8,0,11.3-5.6,11.3-13.8C149.5,56.3,145,50.7,138.4,50.7 M138.2,52.5c2,0,3.7,1.3,4.7,3.4
		c0.9,2,1.3,4.7,1.3,8.6c0,8-1.9,12-5.9,12c-3.9,0-5.8-4-5.8-12.1c0-3.8,0.4-6.5,1.3-8.5C134.5,53.9,136.3,52.5,138.2,52.5"/>
	<path id="path3227" inkscape:connector-curvature="0" class="st0" d="M158.8,39.4l-7.9,0.4v1.7h0.4c2.3,0,2.8,0.8,2.8,4.5v25.8
		c0,3.3-0.1,4.2-0.6,5.6h1.8c1.4-2.3,1.7-2.7,2.3-2.7c0.3,0,0.5,0.1,0.9,0.5c2.7,2.2,3.9,2.7,6.4,2.7c6,0,10.3-5.8,10.3-14.1
		c0-7.8-4-13-10-13c-3.1,0-5.4,1.5-6.6,4.2L158.8,39.4 M164.5,52.9c3.6,0,5.4,3.8,5.4,11.3c0,7.9-1.9,11.9-5.5,11.9
		c-4,0-6.1-4.1-6.1-11.7c0-3.8,0.5-6.4,1.7-8.4C161,54.1,162.8,52.9,164.5,52.9"/>
	<path id="path3229" inkscape:connector-curvature="0" class="st0" d="M185.7,51.1l-8.1,0.5v1.7h0.6c2.3,0,2.8,0.8,2.8,4.5v13.4
		c0,3.7-0.5,4.5-2.8,4.5h-0.9v1.8h12.1v-1.8h-0.9c-2.3,0-2.9-0.8-2.9-4.5L185.7,51.1"/>
	<path id="path3231" inkscape:connector-curvature="0" class="st0" d="M199.7,39.4l-8.1,0.4v1.7h0.6c2.3,0,2.8,0.8,2.8,4.5v25.1
		c0,3.7-0.5,4.5-2.8,4.5h-0.9v1.8h12.1v-1.8h-0.9c-2.3,0-2.8-0.8-2.8-4.5L199.7,39.4"/>
	<path id="path3233" inkscape:connector-curvature="0" class="st0" d="M225.6,64.4c-0.3-8.4-4.3-13.7-10.3-13.7
		c-5.9,0-10.1,5.7-10.1,13.7c0,8.5,4.2,14,10.6,14c4.2,0,7.1-2.2,9.5-7.2l-1.7-0.9c-1.9,4.1-3.9,5.8-6.9,5.8
		c-4.4,0-6.3-3.5-6.3-11.8L225.6,64.4 M210.4,62.4c0-6,2-9.7,5.1-9.7c3.1,0,5,3.7,4.9,9.7H210.4"/>
	<g id="g3235">
		<g id="g3237">
			<path id="path3239" inkscape:connector-curvature="0" class="st0" d="M243.4,50c0.5,0,0.9,0.1,1.4,0.4c0.4,0.2,0.8,0.6,1,1
				c0.3,0.4,0.4,0.9,0.4,1.4c0,0.5-0.1,0.9-0.4,1.4c-0.2,0.4-0.6,0.8-1,1c-0.4,0.2-0.9,0.4-1.4,0.4s-0.9-0.1-1.4-0.4
				c-0.4-0.2-0.8-0.6-1-1c-0.2-0.4-0.4-0.9-0.4-1.4c0-0.5,0.1-1,0.4-1.4c0.3-0.4,0.6-0.8,1-1C242.4,50.2,242.9,50,243.4,50L243.4,50
				z M243.4,50.5c-0.4,0-0.8,0.1-1.1,0.3c-0.4,0.2-0.7,0.5-0.9,0.9c-0.2,0.4-0.3,0.8-0.3,1.2c0,0.4,0.1,0.8,0.3,1.2
				c0.2,0.4,0.5,0.7,0.9,0.9c0.4,0.2,0.8,0.3,1.2,0.3c0.4,0,0.8-0.1,1.2-0.3c0.4-0.2,0.7-0.5,0.9-0.9c0.2-0.4,0.3-0.8,0.3-1.2
				c0-0.4-0.1-0.8-0.3-1.2c-0.2-0.4-0.5-0.7-0.9-0.9C244.1,50.6,243.8,50.5,243.4,50.5L243.4,50.5z M242.1,54.4v-3h1
				c0.4,0,0.6,0,0.8,0.1c0.2,0.1,0.3,0.2,0.4,0.3c0.1,0.1,0.1,0.3,0.1,0.4c0,0.2-0.1,0.4-0.2,0.6c-0.2,0.2-0.4,0.3-0.6,0.3
				c0.1,0,0.2,0.1,0.3,0.2c0.1,0.1,0.3,0.3,0.4,0.6l0.4,0.6h-0.6l-0.3-0.5c-0.2-0.4-0.4-0.6-0.5-0.7c-0.1-0.1-0.2-0.1-0.4-0.1h-0.3
				v1.3L242.1,54.4L242.1,54.4z M242.6,52.7h0.6c0.3,0,0.5,0,0.6-0.1c0.1-0.1,0.2-0.2,0.2-0.3c0-0.1,0-0.2-0.1-0.2
				c0-0.1-0.1-0.1-0.2-0.2c-0.1,0-0.3-0.1-0.5-0.1h-0.6L242.6,52.7L242.6,52.7z"/>
		</g>
	</g>
</g>
</svg>
