<?xml version="1.0" encoding="utf-8"?>
<!-- Generator: Adobe Illustrator 21.0.0, SVG Export Plug-In . SVG Version: 6.00 Build 0)  -->
<svg version="1.1" id="Layer_1" xmlns="http://www.w3.org/2000/svg" xmlns:xlink="http://www.w3.org/1999/xlink" x="0px" y="0px"
	 viewBox="0 0 130 70" style="enable-background:new 0 0 130 70;" xml:space="preserve">
<style type="text/css">
	.st0{fill:#E8762D;}
	.st1{fill:#C72037;}
	.st2{fill:#5B879B;}
	.st3{fill:#5C6692;}
	.st4{fill:#EB9129;}
	.st5{fill:#1F457E;}
	.st6{fill:#7199A6;}
</style>
<g>
	<polygon class="st0" points="23.1,34.1 20.1,34.1 20.1,30.8 18.9,30.8 18.9,34.1 16,34.1 16,35.3 18.9,35.3 18.9,38.6 20.1,38.6 
		20.1,35.3 23.1,35.3 	"/>
	<polygon class="st1" points="17.1,39.4 14.4,39.4 14.4,36.6 13.4,36.6 13.4,39.4 10.7,39.4 10.7,40.4 13.4,40.4 13.4,43.2 
		14.4,43.2 14.4,40.4 17.1,40.4 	"/>
	<polygon class="st2" points="28.4,29 25.7,29 25.7,26.1 24.6,26.1 24.6,29 22,29 22,29.9 24.6,29.9 24.6,32.8 25.7,32.8 25.7,29.9 
		28.4,29.9 	"/>
	<polygon class="st3" points="21.8,42.7 20,42.7 20,40.6 19.1,40.6 19.1,42.7 17.3,42.7 17.3,43.5 19.1,43.5 19.1,45.5 20,45.5 
		20,43.5 21.8,43.5 	"/>
	<polygon class="st4" points="17.1,29 14.4,29 14.4,26.1 13.4,26.1 13.4,29 10.7,29 10.7,29.9 13.4,29.9 13.4,32.8 14.4,32.8 
		14.4,29.9 17.1,29.9 	"/>
	<polygon class="st3" points="30.4,34.3 28.6,34.3 28.6,32.3 27.8,32.3 27.8,34.3 25.9,34.3 25.9,35.1 27.8,35.1 27.8,37.2 
		28.6,37.2 28.6,35.1 30.4,35.1 	"/>
	<polygon class="st5" points="28.4,39.4 25.7,39.4 25.7,36.6 24.6,36.6 24.6,39.4 22,39.4 22,40.4 24.6,40.4 24.6,43.2 25.7,43.2 
		25.7,40.4 28.4,40.4 	"/>
	<polygon class="st6" points="19.3,24 19.3,26 17.4,26 17.4,26.6 19.3,26.6 19.3,28.6 19.9,28.6 19.9,26.6 21.7,26.6 21.7,26 
		19.9,26 19.9,24 	"/>
	<polygon class="st6" points="12.8,34.4 11,34.4 11,32.5 10.4,32.5 10.4,34.4 8.6,34.4 8.6,35 10.4,35 10.4,37 11,37 11,35 12.8,35 
			"/>
	<g>
		<path class="st2" d="M40.3,45.8C40.5,46,40.7,46,41,46c0.5,0,0.9-0.3,0.9-0.6c0-0.3-0.1-0.4-0.3-0.5c-0.2-0.1-0.3-0.2-0.5-0.3
			c-0.2,0-0.3-0.1-0.3-0.2c0-0.1,0.1-0.2,0.3-0.2c0.2,0,0.4,0.1,0.7,0.3v-0.4c-0.3-0.1-0.4-0.2-0.7-0.2c-0.4,0-0.8,0.3-0.8,0.6
			s0.3,0.5,0.8,0.7c0.2,0.1,0.3,0.1,0.3,0.3s-0.1,0.2-0.3,0.2c-0.3,0-0.4-0.1-0.7-0.3L40.3,45.8L40.3,45.8z"/>
		<path class="st2" d="M50.3,45c0,0.3,0.1,0.6,0.3,0.8c0.3,0.2,0.4,0.3,0.8,0.3c0.3,0,0.6-0.1,0.8-0.3c0.3-0.3,0.3-0.4,0.3-0.8
			c0-0.3-0.1-0.6-0.3-0.8c-0.3-0.2-0.4-0.3-0.8-0.3c-0.3,0-0.6,0.1-0.8,0.3C50.5,44.5,50.3,44.7,50.3,45 M50.9,45
			c0-0.3,0.3-0.7,0.6-0.7s0.6,0.3,0.6,0.7c0,0.3-0.3,0.6-0.6,0.6C51.1,45.6,50.9,45.3,50.9,45"/>
		<polygon class="st2" points="61.8,46 62.3,46 62.3,45.2 63.1,45.2 63.1,44.8 62.3,44.8 62.3,44.3 63.1,44.3 63.1,43.9 61.8,43.9 
					"/>
		<polygon class="st2" points="72.7,46 73.2,46 73.2,44.4 73.9,44.4 73.9,43.9 72,43.9 72,44.4 72.7,44.4 		"/>
		<polygon class="st2" points="83.1,46 83.3,46 83.8,44.7 84.3,46 84.4,46 85.3,43.9 84.8,43.9 84.4,45.1 83.9,43.9 83.7,43.9 
			83.2,45.1 82.8,43.9 82.3,43.9 		"/>
		<path class="st2" d="M93.1,46h0.5l0.2-0.4h0.9l0.2,0.4h0.5l-0.8-2.1H94L93.1,46z M94,45.2l0.3-0.8l0.3,0.8H94z"/>
		<path class="st2" d="M103.7,46h0.5v-0.9c0,0,0,0,0.1,0c0.3,0,0.3,0.1,0.3,0.3l0.3,0.6h0.6l-0.3-0.7c-0.1-0.2-0.2-0.3-0.3-0.3
			c0.3-0.1,0.3-0.3,0.3-0.5c0-0.4-0.3-0.6-0.9-0.6h-0.8L103.7,46L103.7,46z M104.5,44.8h-0.3v-0.4h0.3c0.2,0,0.3,0.1,0.3,0.3
			C104.8,44.7,104.7,44.8,104.5,44.8"/>
		<polygon class="st2" points="114.1,46 115.5,46 115.5,45.6 114.6,45.6 114.6,45.2 115.4,45.2 115.4,44.7 114.6,44.7 114.6,44.3 
			115.5,44.3 115.5,43.9 114.1,43.9 		"/>
		<path class="st5" d="M66.6,33c0.7-0.3,1.3-0.3,1.7-0.3c2,0,3.4,1.4,3.4,3.6c0,2.3-1.5,3.6-3.9,3.6c-0.9,0-1.7-0.2-2.6-0.4V29.4
			h1.6V33H66.6z M68,38.6c1.4,0,2.2-0.8,2.2-2.3c0-1.4-0.8-2.3-2.1-2.3c-0.5,0-1.1,0.2-1.5,0.3v3.9C67.1,38.5,67.5,38.6,68,38.6"/>
		<rect x="78" y="27.9" class="st5" width="1.5" height="13.4"/>
		<path class="st5" d="M87.8,35.5h3.5c0-0.9-0.5-1.4-1.4-1.5C88.9,34,88.1,34.6,87.8,35.5 M89.5,39.9c-2.3-0.3-3.4-1.8-3.4-3.7
			c0.1-2.1,1.4-3.6,3.5-3.6c2.2,0,3.4,1.6,3.3,3.9h-5.2c0.1,1.3,0.9,1.9,2,2c0.9,0.1,2.2-0.2,2.9-0.5v1.4
			C91.6,39.9,90.6,40.1,89.5,39.9"/>
		<path class="st5" d="M115,38.8c1,0,1.6-0.4,1.6-1.6v-4.4h1.6v4.6c0,1.6-1.2,2.5-3.1,2.5s-3-1-3-2.5v-4.6h1.6v4.4
			C113.3,38.3,114,38.8,115,38.8"/>
		<path class="st5" d="M55.2,39.9c-2.5,0-3.9-1.3-3.9-3.6c0-2.2,1.4-3.6,3.4-3.6c0.7,0,1.2,0.2,1.7,0.4v-0.5H58v6.9
			C57.2,39.8,56.1,39.9,55.2,39.9 M55.1,38.6c0.3,0,0.8,0,1.3-0.2v-3.9c-0.4-0.3-1-0.4-1.5-0.4c-1.3,0-2.1,0.9-2.1,2.3
			C52.9,37.8,53.6,38.6,55.1,38.6"/>
		<path class="st5" d="M102.8,39.9c-2.5,0-3.9-1.3-3.9-3.6c0-2.2,1.4-3.6,3.4-3.6c0.7,0,1.2,0.2,1.7,0.4v-0.5h1.6v6.9
			C104.8,39.8,103.8,39.9,102.8,39.9 M102.7,38.6c0.3,0,0.8,0,1.3-0.2v-3.9c-0.4-0.3-1-0.4-1.5-0.4c-1.3,0-2.1,0.9-2.1,2.3
			C100.5,37.8,101.4,38.6,102.7,38.6"/>
	</g>
	<g>
		<polygon class="st5" points="40,29.8 41.6,29.8 41.6,34 45.6,34 45.6,35.4 41.6,35.4 41.6,40 40,40 40,35.4 36,35.4 36,34 40,34 
					"/>
		<path class="st5" d="M120.5,32.7c0.5,0,0.9,0.4,0.9,0.9s-0.4,0.9-0.9,0.9c-0.5,0-0.9-0.4-0.9-0.9S120.1,32.7,120.5,32.7
			L120.5,32.7z M120.5,32.9c-0.4,0-0.7,0.3-0.7,0.8c0,0.4,0.3,0.8,0.7,0.8c0.4,0,0.7-0.3,0.7-0.8C121.2,33.3,121,32.9,120.5,32.9
			L120.5,32.9z M120.4,34.2h-0.2v-1c0.1,0,0.2,0,0.3,0c0.2,0,0.3,0,0.3,0.1c0.1,0,0.1,0.1,0.1,0.3s-0.1,0.3-0.2,0.3l0,0
			c0.1,0,0.2,0.1,0.2,0.3c0,0.2,0,0.3,0.1,0.3h-0.2c0,0,0-0.1-0.1-0.3c0-0.2-0.1-0.2-0.3-0.2h-0.1V34.2L120.4,34.2z M120.4,33.6
			L120.4,33.6c0.3,0,0.3,0,0.3-0.2c0-0.1-0.1-0.2-0.3-0.2h-0.1V33.6z"/>
	</g>
</g>
</svg>
