<?xml version="1.0" encoding="utf-8"?>
<!-- Generator: Adobe Illustrator 21.0.0, SVG Export Plug-In . SVG Version: 6.00 Build 0)  -->
<svg version="1.1" id="Layer_1" xmlns="http://www.w3.org/2000/svg" xmlns:xlink="http://www.w3.org/1999/xlink" x="0px" y="0px"
	 viewBox="0 0 130 70" style="enable-background:new 0 0 130 70;" xml:space="preserve">
<style type="text/css">
	.st0{fill:#ED1C24;}
</style>
<g>
	<g>
		<path d="M9.6,51.3H7.8v6.5H9v-2.6h0.6c1.6,0,2.4-0.7,2.4-1.9C12,52.1,11.2,51.3,9.6,51.3z M9.8,54.2H9v-1.8h0.7c0.6,0,1,0.4,1,1
			C10.7,53.8,10.4,54.2,9.8,54.2z"/>
		<path d="M16.6,51.1c-1.2,0-2.1,0.6-2.1,2.2v2.3c0,1.6,0.9,2.2,2.1,2.2s2.1-0.6,2.1-2.2v-2.3C18.8,51.7,17.9,51.1,16.6,51.1z
			 M17.5,55.8c0,0.7-0.3,1-0.8,1c-0.5,0-0.8-0.2-0.8-1v-2.6c0-0.7,0.4-0.9,0.8-0.9c0.5,0,0.8,0.2,0.8,0.9V55.8z"/>
		<polygon points="26.4,55.6 26.4,55.6 25.4,51.3 24.2,51.3 23.3,55.6 23.2,55.6 22.3,51.3 21.2,51.3 22.5,57.8 23.8,57.8 
			24.8,53.4 25.8,57.8 27,57.8 28.5,51.3 27.3,51.3 		"/>
		<polygon points="32.3,55 34,55 34,53.9 32.3,53.9 32.3,52.4 34.6,52.4 34.6,51.3 31,51.3 31,57.8 34.6,57.8 34.6,56.7 32.3,56.7 
					"/>
		<path d="M41.5,53.2c0-1.2-0.7-1.9-2.3-1.9h-1.8v6.5h1.2v-2.6h0.6l1.1,2.6h1.4l-1.2-2.9C41.2,54.6,41.5,54.1,41.5,53.2z M39.3,54.1
			h-0.7v-1.8h0.7c0.6,0,0.9,0.3,0.9,0.9S39.9,54.1,39.3,54.1z"/>
		<path d="M50.5,51.1c-1.2,0-2.1,0.6-2.1,2.2v2.3c0,1.6,0.9,2.2,2.1,2.2c1.2,0,2.1-0.6,2.1-2.2v-2.3C52.7,51.7,51.8,51.1,50.5,51.1z
			 M51.4,55.8c0,0.7-0.4,1-0.9,1c-0.5,0-0.8-0.2-0.8-1v-2.6c0-0.7,0.4-0.9,0.8-0.9c0.5,0,0.9,0.2,0.9,0.9V55.8z"/>
		<polygon points="55.4,57.8 56.7,57.8 56.7,55 58.3,55 58.3,53.9 56.7,53.9 56.7,52.4 58.8,52.4 58.8,51.3 55.4,51.3 		"/>
		<path d="M66.8,52.9c0-0.4,0.3-0.7,0.7-0.7c0.4,0,0.7,0.3,1,0.9l1.1-0.4c-0.3-1-1-1.6-2.1-1.6c-1.3,0-2,0.7-2,1.8
			c0,1.8,2.9,1.8,2.9,3.1c0,0.4-0.4,0.8-0.8,0.8c-0.4,0-0.9-0.3-1.1-1.1l-1.2,0.3c0.4,1.3,1.1,1.8,2.2,1.8c1.3,0,2.1-0.7,2.1-1.8
			C69.6,53.9,66.8,53.8,66.8,52.9z"/>
		<rect x="72.2" y="51.3" width="1.3" height="6.5"/>
		<polygon points="79.1,55.6 79.1,55.6 77.9,51.3 76.1,51.3 76.1,57.8 77.2,57.8 77.2,52.7 78.6,57.8 79.6,57.8 80.9,52.7 81,52.7 
			81,57.8 82.1,57.8 82.1,51.3 80.3,51.3 		"/>
		<path d="M86.5,51.3h-1.8v6.5h1.2v-2.6h0.6c1.6,0,2.4-0.7,2.4-1.9S88.1,51.3,86.5,51.3z M86.6,54.2h-0.7v-1.8h0.7c0.6,0,1,0.4,1,1
			C87.5,53.8,87.3,54.2,86.6,54.2z"/>
		<polygon points="92.3,51.3 91,51.3 91,57.8 94.3,57.8 94.3,56.7 92.3,56.7 		"/>
		<rect x="96.6" y="51.3" width="1.2" height="6.5"/>
		<path d="M102.4,51.1c-1.2,0-2.1,0.6-2.1,2.2v2.3c0,1.6,0.9,2.2,2.1,2.2c1.2,0,2.1-0.6,2.1-2.2v-0.3h-1.2v0.4c0,0.7-0.4,1-0.9,1
			c-0.5,0-0.8-0.2-0.8-1v-2.6c0-0.7,0.4-0.9,0.8-0.9c0.5,0,0.9,0.2,0.9,0.9v0.2h1.2l0,0C104.6,51.7,103.7,51.1,102.4,51.1z"/>
		<rect x="107.4" y="51.3" width="1.2" height="6.5"/>
		<polygon points="111,52.4 112.5,52.4 112.5,57.8 113.8,57.8 113.8,52.4 115.3,52.4 115.3,51.3 111,51.3 		"/>
		<polygon points="120.8,51.3 119.7,53.9 118.6,51.3 117.2,51.3 119,55.2 119,57.8 120.4,57.8 120.4,55.2 122.2,51.3 		"/>
	</g>
	<g>
		<path class="st0" d="M60.2,25.5c0.1,0.5,0.2,1.3-0.4,1.8c-0.8,0.9-3.1,3-3.1,3s-0.9,0.5-0.4,1.1c0.1,0.2,0.3,0.2,0.4,0.2
			c0.2-0.3,0.4-0.4,0.4-0.4s2.3-2.1,3.1-3c0.8-0.9,0.3-2.2,0.2-2.6C60.4,25.8,60.3,25.7,60.2,25.5z"/>
		<path class="st0" d="M55.5,25.2c-0.4,0.3-2.6,1.8-3.5,2.6c-0.8,0.6-2.8,2.4-2.8,2.4s-1.1,1-0.7,1.4c0.2,0.2,0.3,0.3,0.4,0.3
			c0.3-0.4,0.6-0.8,0.6-0.8s2-1.8,2.8-2.4s3-2.3,3.5-2.6c0.4-0.2,0.7-0.4,1-0.3c0.2-0.2,0.3-0.5-0.1-0.8
			C56.3,24.7,55.9,25,55.5,25.2z"/>
		<path class="st0" d="M63.7,32.8c-0.4-0.8-0.5-1.4-1.1-1.1c-0.5,0.4-3.3,2-4.8,2.5c-1.6,0.4-1.9,0.6-2.7,0.4
			c-0.9-0.2-1.8-0.5-2.1-1.1c-0.4-0.5-0.4-0.6-0.8-0.4s-1.5,1.1-2.3,1.1c-0.9-0.1-3-0.6-4.1-2.7c0-0.1-0.1-0.1-0.1-0.1
			c0.1,0.4,0.3,0.7,0.4,1.1c1.1,2.1,3.3,2.6,4,2.7c0.8,0.1,1.9-0.8,2.3-1.1c0.4-0.3,0.4-0.2,0.8,0.4s1.2,0.9,2.1,1.1
			c0.9,0.2,1.2,0,2.7-0.4s4.3-2,4.8-2.5c0.5-0.4,0.6,0.3,1.1,1.1c0.4,0.8,1.6,1.1,2.6,1.1c1.1,0.1,1.5-0.2,2.1-0.4
			c0.6-0.3,2.4-1.1,2.9-1.5c0.5-0.4,0.6-0.4,0.8,0.2c0.2,0.5,0.3,0.9,1.8,2c1.6,1.1,4.1,0.4,4.8,0.3c0.6-0.2,1.7-0.7,2-0.9
			c0.3-0.2,0.5,0.3,1.1,0.9c0.4,0.4,1.1,0.4,1.6,0.4c0.4-0.6,1-1.2,1-1.2s0.4-0.5-0.4-0.1c-0.7,0.4-1.8,0.4-2.5-0.1
			c-0.6-0.6-0.9-1.1-1.1-0.9c-0.3,0.2-1.4,0.7-2,0.9c-0.6,0.2-3.2,0.8-4.7-0.3c-1.6-1.1-1.6-1.5-1.8-1.9c-0.2-0.5-0.3-0.4-0.8-0.2
			c-0.5,0.4-2.3,1.1-2.9,1.5c-0.6,0.3-1.1,0.5-2.1,0.4C65.3,33.9,64.1,33.6,63.7,32.8z"/>
		<path class="st0" d="M97.8,26.8c-0.8,0.7-3.4,3.1-4.5,4c-1.1,1-4.1,4.1-4.7,4.8c-0.5,0.6-2,2-1.4,2.1c0.1,0,0.4,0.1,0.7,0.1
			c0.4-0.4,0.8-0.9,1.1-1.2c0.5-0.6,3.6-3.8,4.7-4.8c1.1-1,3.7-3.3,4.5-4C98.9,27.3,98.2,26.9,97.8,26.8
			C97.9,26.8,97.8,26.8,97.8,26.8z"/>
		<path class="st0" d="M89.6,24.8c-0.8,0.8-2.7,2.7-3.2,3.3c-0.4,0.4-2,2.3-2.4,2.8c-0.3,0.5-0.7,1.1-0.3,1.4
			c0.1,0.1,0.3,0.1,0.4,0.1c0.1-0.2,0.2-0.4,0.3-0.5c0.3-0.5,1.9-2.3,2.4-2.8c0.4-0.4,2.3-2.5,3.2-3.3C90.4,25.3,90.1,25,89.6,24.8
			L89.6,24.8z"/>
		<path class="st0" d="M34.2,15.5c0,0,0.9,0.9,1.2,1.2c0.4,0.4,1,1.1,1.8,0.8c0.9-0.4,5.4-0.8,6.8-1c0.6-0.1,1.2-0.1,1.7-0.1
			c0.4-0.5,0.7-0.9,0.7-0.9s-1.2-0.2-2.7,0c-1.4,0.2-5.9,0.6-6.8,1c-0.9,0.4-1.5-0.4-1.8-0.8c-0.2-0.2-0.6-0.5-0.8-0.9
			C33.9,15.1,34.2,15.5,34.2,15.5z"/>
		<path class="st0" d="M80.7,39.9c0.6-0.5-0.4-0.4-0.6-0.4c-0.3,0-6.2-0.4-7.9-0.4s-7.8,0-10,0.2c-2.2,0.2-10.2,0.9-12.2,1.2
			c-2.1,0.4-10.6,1.6-11.7,1.8c-1.1,0.3-3.4,0.6-3.4,0.6s-1.1,0.3-2.3-0.3c-0.4-0.2-0.9-0.4-1.3-0.6c-1,0.4,0.6,1.1,1.7,1.6
			c1.1,0.4,2.3,0.3,2.3,0.3s2.3-0.4,3.4-0.6c1.1-0.3,9.7-1.4,11.8-1.8s10-1.1,12.2-1.2c2.2-0.2,8.3-0.2,10-0.2c1.7,0,7,0.3,7.8,0.4
			C80.4,40.2,80.6,40,80.7,39.9z"/>
		<path class="st0" d="M99.5,41.9c-0.2,0.4-0.6,1.2-0.9,1.4c-0.3,0.1-0.8,0.1-1.8-0.4c-1.1-0.4-5.9-1.7-7.2-1.8
			c-1.3-0.3-4.3-0.8-4.3-0.8s-0.4-0.3-1,0.8c-0.6,1-2.6,3.7-2.6,3.7s-0.2,0.4-0.4,0.4c-0.4,0-1.9-0.1-2.6-0.4l0,0c0,0,0,0.1-0.1,0.1
			c-0.4,0.6-0.2,0.6,0.4,0.9c0.6,0.4,2.1,0.4,2.6,0.4c0.4,0,0.4-0.4,0.4-0.4s1.9-2.8,2.6-3.8c0.6-1,1-0.7,1-0.7s3,0.4,4.3,0.8
			c1.3,0.3,6.2,1.5,7.2,1.9c1.1,0.4,1.6,0.4,1.8,0.3c0.3-0.1,0.9-1.5,0.9-1.5C100,42.3,99.8,42,99.5,41.9z"/>
		<path class="st0" d="M86.8,18.7c-0.9,0.6-5.3,4-6.4,5.4c-1.1,1.2-3.5,3.9-4.5,5.1c-0.9,1.2-1.5,1.8-0.8,2.6c0,0.1,0.1,0.1,0.1,0.1
			c0.1-0.4,0.5-1,1.1-1.7c0.9-1.2,3.3-3.8,4.5-5.1c1.2-1.2,5.5-4.8,6.4-5.4c0.9-0.6,0.4-0.9,0.4-0.9s-0.3-0.2-0.5-0.3
			C87,18.6,86.9,18.6,86.8,18.7z"/>
		<path class="st0" d="M78.3,17.6c-0.9,0.8-4.1,3.4-4.9,4.2s-3.2,3.2-3.9,4c-0.8,0.9-2.8,3.3-3.2,3.9c-0.4,0.4-0.5,1.1,0,1.4
			c0.1,0,0.1,0.1,0.1,0.1c0.1-0.2,0.2-0.3,0.3-0.4c0.4-0.4,2.4-3,3.2-3.9c0.8-0.9,3.1-3.2,3.9-4c0.8-0.9,4-3.5,4.9-4.2
			c0.8-0.6,0-1.1-0.2-1.2C78.5,17.4,78.4,17.5,78.3,17.6z"/>
		<path class="st0" d="M61.9,15.3c0,0,0.4,0.6-0.9,0.5c-1.2-0.1-3.1-0.2-4.4-0.3s-4.5-0.4-4.9-0.3c-0.4,0-0.6,0-0.9,0.4
			c-0.3,0.4-1.6,2-1.8,2.4c-0.3,0.4-1.7,2.1-2.7,3.6c-1.1,1.5-2.6,3.4-3.8,5.5c-1.2,2-2.4,3.8-2.8,4.7c-0.4,0.8-0.7,1.3-0.8,1.6
			c-0.1,0.2-0.2,0.5-0.7,0.6c-0.6,0-3.3-0.1-3.3-0.1s-0.1,0-0.2,0c-0.4,1.1,0.5,1,0.5,1s2.6,0.1,3.3,0.1c0.5,0,0.6-0.4,0.8-0.5
			c0.1-0.2,0.3-0.7,0.8-1.6c0.4-0.9,1.7-2.6,2.8-4.7c1.2-2,2.7-3.9,3.8-5.4c1.1-1.6,2.5-3.3,2.7-3.6c0.3-0.4,1.6-2,1.8-2.4
			c0.3-0.4,0.4-0.4,0.9-0.4c0.4,0,3.6,0.2,4.9,0.3c1.3,0.1,3.3,0.2,4.4,0.3c1.2,0.1,0.9-0.5,0.9-0.5s0.1-0.8-0.3-1.6
			c-0.1-0.2-0.1-0.3-0.2-0.4C62,14.8,61.9,15.3,61.9,15.3z"/>
	</g>
	<path d="M53.8,29.3c0.9-0.6,2.8-2.9,2.9-3.1c0.2-0.2,0.5-0.6,0.1-1.1c-0.4-0.4-0.8-0.2-1.2,0.1c-0.4,0.3-2.6,1.8-3.5,2.6
		c-0.8,0.6-2.8,2.4-2.8,2.4s-1.1,1-0.7,1.4c0.4,0.4,0.8,0.3,1.3,0.2C50.5,31.5,52.9,29.9,53.8,29.3L53.8,29.3z M51.1,12.2h-0.5
		c-2.4,0-8.3,0.4-9.6,0.4c-1.4,0.2-6,0.9-6.8,1.1c-0.8,0.2-0.4,0.7-0.4,0.7s0.9,0.9,1.2,1.2c0.4,0.4,1,1.1,1.8,0.8
		c0.9-0.4,5.4-0.8,6.8-1.1c1.5-0.2,2.7,0,2.7,0s-3.9,5.1-4.5,6c-0.6,0.8-4,5.4-4.6,6.3c-0.6,1-2.2,3.5-2.9,4.8
		c-0.7,1.2,0.4,1.1,0.4,1.1s2.6,0.1,3.3,0.1c0.5,0,0.6-0.4,0.7-0.6c0.1-0.2,0.3-0.7,0.8-1.6c0.4-0.8,1.6-2.6,2.8-4.7
		s2.7-3.9,3.8-5.5c1.1-1.5,2.5-3.3,2.7-3.6c0.3-0.4,1.6-2,1.8-2.4s0.4-0.4,0.9-0.4c0.4,0,3.6,0.2,4.9,0.3s3.3,0.2,4.4,0.3
		c1.2,0.1,0.9-0.5,0.9-0.5s0.1-0.8-0.3-1.6c-0.4-0.9-0.7-0.7-0.7-0.7C59.3,12.5,52.9,12.2,51.1,12.2L51.1,12.2z M98.6,40.6
		c0.3,0.2,1.1,0.4,1,1.1c0,0-0.6,1.4-0.9,1.6c-0.3,0.1-0.8,0.1-1.8-0.4c-1.1-0.4-5.9-1.7-7.2-1.8c-1.3-0.3-4.3-0.8-4.3-0.8
		s-0.4-0.3-1,0.8c-0.6,1-2.6,3.7-2.6,3.7s-0.2,0.4-0.4,0.4c-0.4,0-1.9-0.1-2.6-0.4c-0.6-0.3-0.8-0.3-0.4-0.9
		c0.4-0.6,1.8-3.3,2.3-3.9c0.6-0.5-0.4-0.4-0.6-0.4c-0.3,0-6.2-0.4-7.9-0.4s-7.8,0-10,0.2C60,39.5,52,40.2,50,40.5
		c-2.1,0.4-10.6,1.6-11.7,1.8c-1.1,0.3-3.4,0.6-3.4,0.6s-1.1,0.3-2.3-0.3c-1.1-0.5-2.9-1.2-1.4-1.7c1.6-0.4,9.1-2,11.4-2.4
		c2.4-0.4,9.7-1.4,12.8-1.6c3.1-0.2,11.4-0.6,14.5-0.6c3.1,0,7.4,0.3,9.2,0.4c1.8,0.2,3.1,0.3,3.4,0.3c0.4,0.1,0.4-0.2,0.8-0.6
		c0.4-0.4,1.6-1.9,1.6-1.9s0.4-0.5-0.4-0.1c-0.8,0.4-1.9,0.4-2.6-0.1c-0.6-0.6-0.9-1.1-1.1-0.9c-0.3,0.2-1.4,0.7-2,0.9
		c-0.6,0.2-3.2,0.8-4.7-0.3c-1.6-1.1-1.6-1.5-1.8-1.9c-0.2-0.5-0.3-0.4-0.8-0.2c-0.5,0.4-2.3,1.1-2.9,1.5c-0.6,0.3-1.1,0.5-2.1,0.4
		c-1-0.1-2.1-0.4-2.6-1.2c-0.8-0.6-0.8-1.1-1.3-0.8c-0.5,0.4-3.3,2-4.8,2.5c-1.6,0.4-1.9,0.6-2.7,0.4c-0.9-0.2-1.8-0.5-2.1-1.1
		c-0.4-0.5-0.4-0.6-0.8-0.4s-1.5,1.1-2.3,1.1c-0.9-0.1-3-0.6-4.1-2.7c-1.1-2.1-0.3-3.1,0.7-4c1.1-1.1,2.9-2.6,2.9-2.6s2.3-1.7,3.1-2
		c0.8-0.4,2-1.1,2.8-1.1c0.8,0,1.9,0,3.1,0.9c1.1,0.9,1.8,1.8,1.9,2.2c0.2,0.4,0.6,1.7-0.2,2.6c-0.8,0.9-3.1,3-3.1,3
		s-0.9,0.5-0.4,1.1c0.4,0.6,1.9-0.4,2.4-0.8c0.5-0.4,3.2-2.6,4-3.3c0.8-0.8,5.9-5.7,6.3-6.2c0.4-0.4,4.7-4.7,5.3-5.1
		c0.6-0.4,0.9-0.7,2-0.4s1.8,0.6,1.8,0.6s1.2,0.4,0.3,1.2c-0.9,0.8-4.1,3.4-4.9,4.2c-0.8,0.8-3.2,3.2-3.9,4
		c-0.8,0.9-2.8,3.3-3.2,3.9c-0.4,0.4-0.5,1.1,0,1.4c0.5,0.4,1.4,0,2.4-0.8c1-0.8,3.7-3.2,4.7-4.1c1-1,6.2-6,6.8-6.4
		c0.4-0.4,2.9-2.4,2.9-2.4s0.3-0.4,1.1-0.4c0.7,0,1.4,0.2,1.8,0.4c0.4,0.2,1.2,0.6,1.2,0.6s0.5,0.2-0.4,0.8c-0.9,0.6-5.3,4-6.4,5.4
		c-1.1,1.2-3.5,3.9-4.5,5.1c-0.9,1.2-1.5,1.8-0.8,2.6c0.7,0.8,1.5,0.6,1.9,0.4c0.4-0.2,1.8-1.1,2.7-2.1c1-1,4-4.3,4.4-4.7
		c0.4-0.4,1.5-1.6,1.5-1.6s0.3-0.4,0.9-0.4s1.1,0.1,1.7,0.3c0.6,0.2,2,0.4,1.2,1.2s-2.7,2.7-3.2,3.3c-0.4,0.4-2,2.3-2.4,2.8
		c-0.4,0.6-0.8,1.2-0.4,1.5c0.4,0.3,1.5-0.1,2.5-0.7c1.1-0.5,2.6-1.6,3.9-2.7c1.3-1.2,3.5-3.2,3.5-3.2s0.4-0.8,1.9-0.4
		c1.6,0.4,1.9,0.5,1.9,0.5s1.2,0.4,0.4,1.1s-3.4,3.1-4.5,4s-4.1,4.1-4.7,4.8s-2,2-1.4,2.1c0.6,0.1,5.2,1,6.2,1.2
		C94.7,39.3,98.4,40.5,98.6,40.6L98.6,40.6z"/>
</g>
</svg>
