<?xml version="1.0" encoding="utf-8"?>
<!-- Generator: Adobe Illustrator 21.0.0, SVG Export Plug-In . SVG Version: 6.00 Build 0)  -->
<svg version="1.1" id="Layer_1" xmlns="http://www.w3.org/2000/svg" xmlns:xlink="http://www.w3.org/1999/xlink" x="0px" y="0px"
	 viewBox="0 0 130 70" style="enable-background:new 0 0 130 70;" xml:space="preserve">
<g>
	<path d="M65.9,47.1l6-33.5c5.7,0,7.5,0.6,7.7,3.2c0,0,3.8-1.4,5.7-4.3c-7.5-3.5-15-3.6-15-3.6l-4.4,5.3l0,0l-4.4-5.3
		c0,0-7.5,0.2-15,3.6c1.9,2.9,5.7,4.3,5.7,4.3c0.3-2.5,2-3.2,7.7-3.2L65.9,47.1L65.9,47.1z"/>
	<path d="M65.9,7.3c6.1,0,13,0.9,20.1,4c0.9-1.7,1.2-2.5,1.2-2.5c-7.8-3.1-15-4.1-21.3-4.1c-6.3,0-13.5,1.1-21.3,4.1
		c0,0,0.3,0.9,1.2,2.5C52.9,8.3,59.8,7.3,65.9,7.3L65.9,7.3L65.9,7.3z"/>
	<path d="M53.4,60.4h4.5c0.6-0.1,1.1-0.7,1.2-1.2h-7C52.3,59.7,52.8,60.2,53.4,60.4L53.4,60.4z"/>
	<path d="M53.4,62.8h4.5c0.6-0.1,1.1-0.7,1.2-1.2h-7C52.3,62.1,52.8,62.6,53.4,62.8L53.4,62.8z"/>
	<path d="M53.4,65.2h4.5c0.6-0.1,1.1-0.7,1.2-1.2h-7C52.3,64.6,52.8,65.1,53.4,65.2L53.4,65.2z"/>
	<path d="M82.6,60.4h4.5c0.6-0.1,1.1-0.7,1.2-1.2h-7C81.5,59.7,82,60.2,82.6,60.4L82.6,60.4z"/>
	<path d="M41.6,59.2c0.1,0.5,0.6,1.1,1.2,1.2h1.9l0.1,0v4.8H46v-4.8l0.1,0h1.9c0.6-0.2,1.1-0.7,1.2-1.2v0L41.6,59.2L41.6,59.2
		L41.6,59.2z"/>
	<path d="M78,65.2c0.6-0.3,0.9-0.7,1-1.2h-5.3l0-4.9l-1.2,0v6.1H78L78,65.2z"/>
	<path d="M63.7,60.3h4.2c0.6-0.2,1.2-0.7,1.3-1.2h-6.7v3.6H68V64l-4.3,0c-0.7,0.2-1.2,0.6-1.5,1.2l0.3,0h6.6v-3.7h-5.4V60.3
		L63.7,60.3z"/>
	<polygon points="81.6,61.6 81.6,65.2 82.7,65.2 82.7,62.8 87,62.8 87,65.2 88.2,65.2 88.2,61.6 81.6,61.6 	"/>
</g>
</svg>
