<?xml version="1.0" encoding="utf-8"?>
<!-- Generator: Adobe Illustrator 21.0.0, SVG Export Plug-In . SVG Version: 6.00 Build 0)  -->
<svg version="1.1" id="Layer_1" xmlns="http://www.w3.org/2000/svg" xmlns:xlink="http://www.w3.org/1999/xlink" x="0px" y="0px"
	 viewBox="0 0 130 70" style="enable-background:new 0 0 130 70;" xml:space="preserve">
<style type="text/css">
	.st0{fill:#FFFFFF;}
</style>
<g>
	<g>
		<g>
			<path d="M91.1,11.3H70.4V6.4l-34,5.2v46l34,5.9v-7.2h20.7c1.4,0,2.5-1,2.5-2.2V13.5C93.6,12.3,92.5,11.3,91.1,11.3z M91.5,54.5
				H70.4v-3.8h5.1v-4.5h-5.1v-2.6h5.1v-4.5h-5.2v-2.6h5.2V32h-5.2v-2.6h5.2v-4.5h-5.2v-2.6h5.2v-4.5h-5.2v-4.1h21.3L91.5,54.5
				L91.5,54.5z"/>
			<rect x="78.2" y="17.5" width="8.8" height="4.5"/>
			<rect x="78.2" y="24.6" width="8.8" height="4.5"/>
			<rect x="78.2" y="31.8" width="8.8" height="4.5"/>
			<rect x="78.2" y="39" width="8.8" height="4.5"/>
			<rect x="78.2" y="46.1" width="8.8" height="4.5"/>
		</g>
		<polygon class="st0" points="45.3,24.1 49.7,23.9 52.4,31.4 55.7,23.6 60,23.3 54.7,34.1 60,44.9 55.5,44.6 52.3,36.3 49.2,44.2 
			44.9,43.8 49.8,34.3 		"/>
	</g>
</g>
<g>
	<path d="M75.4,66.6l-2.6-8.1h1.1l1.3,4c0.3,1.1,0.6,2.1,0.9,3h0c0.2-0.9,0.6-2,0.9-3l1.4-4h1.1l-2.9,8.1H75.4z"/>
	<path d="M80.3,58.6c0.5-0.1,1.2-0.2,1.9-0.2c1,0,1.7,0.2,2.2,0.6c0.4,0.3,0.7,0.8,0.7,1.4c0,0.8-0.5,1.5-1.4,1.8v0
		c0.8,0.2,1.7,0.8,1.7,2c0,0.7-0.3,1.2-0.7,1.6c-0.6,0.5-1.5,0.8-2.8,0.8c-0.7,0-1.3,0-1.6-0.1V58.6z M81.3,61.9h0.9
		c1.1,0,1.8-0.6,1.8-1.4c0-0.9-0.7-1.3-1.8-1.3c-0.5,0-0.8,0-0.9,0.1V61.9z M81.3,65.8c0.2,0,0.5,0,0.9,0c1.1,0,2.1-0.4,2.1-1.6
		c0-1.1-0.9-1.6-2.1-1.6h-0.9V65.8z"/>
	<path d="M88.1,64l-0.8,2.5h-1.1l2.7-8.1h1.3l2.8,8.1h-1.1L91,64H88.1z M90.7,63.2l-0.8-2.3c-0.2-0.5-0.3-1-0.4-1.5h0
		c-0.1,0.5-0.3,1-0.4,1.5l-0.8,2.3H90.7z"/>
</g>
</svg>
