<?xml version="1.0" encoding="utf-8"?>
<!-- Generator: Adobe Illustrator 21.0.2, SVG Export Plug-In . SVG Version: 6.00 Build 0)  -->
<svg version="1.1" id="Layer_1" xmlns="http://www.w3.org/2000/svg" xmlns:xlink="http://www.w3.org/1999/xlink" x="0px" y="0px"
	 viewBox="0 0 130 70" style="enable-background:new 0 0 130 70;" xml:space="preserve">
<style type="text/css">
	.st0{fill:none;stroke:#000000;stroke-width:0.8605;stroke-miterlimit:2.6131;}
	.st1{fill-rule:evenodd;clip-rule:evenodd;}
	.st2{fill-rule:evenodd;clip-rule:evenodd;fill:#903B93;}
	.st3{fill-rule:evenodd;clip-rule:evenodd;fill:#4D86C5;}
	.st4{fill-rule:evenodd;clip-rule:evenodd;fill:#DC7837;}
	.st5{fill-rule:evenodd;clip-rule:evenodd;fill:#E7CC1C;}
</style>
<g>
	<line class="st0" x1="10.1" y1="33.3" x2="86.6" y2="33.3"/>
	<polygon class="st1" points="18.8,44.4 15.7,44.4 12.4,34.2 15.7,34.2 17.3,39.7 17.5,40.7 17.9,39.7 19.4,34.2 21.9,34.2 
		18.8,44.4 	"/>
	<path class="st1" d="M21.8,36.8h2.9v7.5h-2.9V36.8L21.8,36.8z M21.8,34.1h2.9v2h-2.9V34.1L21.8,34.1z"/>
	<path class="st1" d="M26.8,41.9c0.2,0.7,1,0.8,1.5,0.8c0.4,0,1.2,0,1.2-0.5c0-0.4-1-0.5-1.3-0.5c-1.5-0.2-3.3-0.5-3.3-2.5
		c0-0.8,0.4-1.5,1.1-1.9c0.7-0.5,1.5-0.6,2.4-0.6c1.4,0,3,0.5,3.5,1.9l-2.3,0.5c-0.2-0.6-0.7-0.7-1.3-0.7c-0.2,0-1,0.1-1,0.4
		c0,0.2,0.4,0.4,0.5,0.5c0.4,0,1,0.1,1.3,0.1c0.6,0.1,1.4,0.2,2,0.6c0.7,0.4,1.1,1.1,1.1,1.9c0,2-2.3,2.6-3.9,2.6
		c-1.7,0-3.2-0.6-3.7-2.3L26.8,41.9L26.8,41.9z"/>
	<path class="st1" d="M36.6,44.4V43l0,0c-0.4,1-1.3,1.4-2.3,1.4c-0.6,0-1.2-0.1-1.7-0.6C32.2,43.4,32,42.7,32,42v-5.1h2.9v4.5
		c0,0.5,0,1,0.7,1c0.2,0,0.6-0.1,0.7-0.4c0.1-0.2,0.1-0.6,0.1-0.8v-4.3h2.9v7.5H36.6L36.6,44.4z"/>
	<path class="st1" d="M44.2,41c0,0.7-0.1,1.7-1.2,1.7c-0.5,0-0.7-0.2-0.7-0.7c0-0.8,1.2-1.1,1.9-1.2V41L44.2,41z M47.2,44.4
		c-0.2-0.6-0.2-1.1-0.2-1.7v-2.6c0-1.1,0.1-2-0.8-2.7c-0.7-0.5-1.9-0.6-2.7-0.6c-1.7,0-3.5,0.5-3.9,2.3l2.7,0.2
		c0-0.6,0.5-0.8,1.1-0.8c0.7,0,1,0.4,1,1v0.1c-1.1,0-2,0.1-3,0.5c-1.1,0.2-2,1.1-2,2.3c0,1.5,1.3,2.3,2.6,2.3c1.1,0,1.9-0.4,2.5-1.2
		c0,0.4,0,0.7,0.1,1.1H47.2L47.2,44.4z"/>
	<polygon class="st1" points="47.2,34.2 50,34.2 50,44.4 47.2,44.4 47.2,34.2 	"/>
	<path class="st1" d="M54.8,42.1v-1.8H56c0.2,0,0.6,0,0.8,0.1c0.4,0.1,0.6,0.5,0.6,0.7c0,0.4-0.2,0.6-0.5,0.7
		c-0.2,0.2-0.6,0.2-0.8,0.2H54.8L54.8,42.1z M52,44.4h4.6c0.8,0,1.9,0,2.7-0.6c0.7-0.5,1-1.5,1-2.4c0-1.2-0.7-2-1.9-2.3l0,0
		c1.1-0.2,1.7-1.2,1.7-2.1c0-0.8-0.4-1.7-1.1-2.1c-0.6-0.5-1.3-0.6-2.1-0.6H52V44.4L52,44.4z M54.8,38.2v-1.7H56
		c0.6,0,1.2,0,1.2,0.8c0,0.2-0.1,0.5-0.4,0.6c-0.1,0.2-0.5,0.2-0.8,0.2H54.8L54.8,38.2z"/>
	<path class="st1" d="M65.2,41c0,0.7,0,1.7-1.2,1.7c-0.5,0-0.7-0.2-0.7-0.7c0-0.8,1.2-1.1,1.9-1.2V41L65.2,41z M68.2,44.4
		c-0.2-0.6-0.2-1.1-0.2-1.7v-2.6c0-1.1,0.1-2-0.8-2.7c-0.7-0.5-1.9-0.6-2.7-0.6c-1.7,0-3.5,0.5-3.9,2.3l2.7,0.2
		c0-0.6,0.5-0.8,1.1-0.8c0.7,0,1,0.4,1,1v0.1c-1.1,0-2,0.1-3,0.5c-1.1,0.2-1.9,1.1-1.9,2.3c0,1.5,1.2,2.3,2.5,2.3
		c1.1,0,1.9-0.4,2.5-1.2c0,0.4,0,0.7,0.1,1.1H68.2L68.2,44.4z"/>
	<path class="st1" d="M70.1,41.9c0.1,0.7,1,0.8,1.7,0.8c0.2,0,1.1,0,1.1-0.5c0-0.4-1.1-0.5-1.3-0.5c-1.5-0.2-3.3-0.5-3.3-2.5
		c0-0.8,0.4-1.5,1.1-1.9c0.7-0.5,1.5-0.6,2.4-0.6c1.4,0,3,0.5,3.5,1.9l-2.3,0.5c-0.2-0.6-0.7-0.7-1.3-0.7c-0.2,0-1,0.1-1,0.4
		c0,0.2,0.4,0.4,0.5,0.5c0.4,0,1,0.1,1.3,0.1c0.6,0.1,1.4,0.2,2,0.6c0.6,0.4,1.1,1.1,1.1,1.9c0,2-2.3,2.6-3.9,2.6s-3.2-0.6-3.7-2.3
		L70.1,41.9L70.1,41.9z"/>
	<path class="st1" d="M75.3,36.8h2.9v7.5h-2.9V36.8L75.3,36.8z M75.3,34.1h2.9v2h-2.9V34.1L75.3,34.1z"/>
	<path class="st1" d="M85.8,41.5c-0.2,1.9-1.7,3-3.6,3c-1.1,0-1.9-0.2-2.7-1.1c-0.7-0.7-1.1-1.8-1.1-2.9c0-2.1,1.5-3.8,3.8-3.8
		c1.9,0,3.3,1.1,3.6,3l-2.6,0.1l0,0c-0.1-0.6-0.2-1.1-0.8-1.1c-1,0-1,1.2-1,1.8c0,0.7,0,1.9,1,1.9c0.7,0,0.8-0.6,1-1.2L85.8,41.5
		L85.8,41.5z"/>
	<polygon class="st1" points="37.8,22.7 37.8,17.7 40.9,17.7 40.9,18.3 38.5,18.3 38.5,19.8 40.5,19.8 40.5,20.3 38.5,20.3 
		38.5,22.7 37.8,22.7 	"/>
	<path class="st1" d="M42.2,20.5c0-0.6,0.5-1.2,1.1-1.2c0.6,0,1,0.5,1,1.2H42.2L42.2,20.5z M44.2,21.6c-0.1,0.5-0.5,0.7-1,0.7
		c-0.4,0-0.7-0.2-1-0.6c-0.1-0.2-0.1-0.5-0.1-0.8h2.6c0.1-1.1-0.5-2-1.5-2c-1.2,0-1.8,1-1.8,2c0,1,0.6,1.9,1.8,1.9
		c0.7,0,1.3-0.4,1.5-1.1L44.2,21.6L44.2,21.6z"/>
	<path class="st1" d="M48.7,21.1c0,0.6-0.5,1.2-1.2,1.2c-0.5,0-0.8-0.1-0.8-0.6c0-0.8,1-0.8,1.5-0.8h0.5V21.1L48.7,21.1z M48.3,20.4
		c-0.5,0-1.1,0-1.4,0.2c-0.5,0.1-0.7,0.6-0.7,1.1c0,0.7,0.6,1.1,1.3,1.1c0.6,0,1-0.2,1.3-0.7v0.6h0.6c-0.1-0.2-0.1-0.5-0.1-0.7v-1.4
		c0-0.5,0-1-0.2-1.3c-0.4-0.2-0.8-0.4-1.2-0.4c-0.7,0-1.5,0.2-1.5,1.1l0.5,0.1c0.1-0.6,0.6-0.7,1.1-0.7c0.6,0,1,0.2,1,1v0.1H48.3
		L48.3,20.4z"/>
	<path class="st1" d="M52.4,22.8h-0.6c-0.8,0-1.1-0.5-1.1-1.2v-2.1h-0.6V19h0.6v-1h0.6v1h0.8v0.5h-0.8v2.3c0,0.4,0.1,0.6,0.6,0.6
		h0.5V22.8L52.4,22.8z"/>
	<path class="st1" d="M55.9,22.7V22l0,0c-0.2,0.5-0.7,0.8-1.2,0.8c-0.4,0-0.7-0.1-1-0.5c-0.2-0.2-0.2-0.7-0.2-1.1V19h0.6v2.3
		c0,0.2,0,0.5,0.1,0.7c0.1,0.2,0.4,0.4,0.6,0.4c0.2,0,0.5-0.1,0.7-0.4c0.2-0.4,0.2-0.6,0.2-1v-2h0.6v3.7H55.9L55.9,22.7z"/>
	<path class="st1" d="M58.5,19v0.8l0,0c0.1-0.5,0.5-1,1.1-1h0.2v0.6h-0.1c-0.5,0-0.8,0.2-1,0.6c-0.2,0.2-0.2,0.5-0.2,0.8v1.8h-0.6
		V19H58.5L58.5,19z"/>
	<path class="st1" d="M60.9,19h0.5v3.7h-0.5V19L60.9,19z M60.8,17.7h0.7v0.7h-0.7V17.7L60.8,17.7z"/>
	<path class="st1" d="M63.5,19.7L63.5,19.7c0.2-0.5,0.7-0.8,1.2-0.8c0.5,0,0.8,0.2,1.1,0.6c0.2,0.4,0.1,0.8,0.1,1.2v2h-0.5v-2.3
		c0-0.2,0-0.5-0.1-0.7c-0.1-0.1-0.4-0.4-0.7-0.4c-0.2,0-0.5,0.2-0.7,0.5c-0.2,0.2-0.2,0.6-0.2,1v1.9H63V19h0.5V19.7L63.5,19.7z"/>
	<path class="st1" d="M68.8,21c-0.6,0-0.8-0.4-0.8-0.8c0-0.5,0.2-0.8,0.8-0.8c0.4,0,0.7,0.4,0.7,0.8C69.5,20.6,69.2,21,68.8,21
		L68.8,21z M69.5,19.1c-0.2-0.1-0.5-0.2-0.7-0.2c-0.8,0-1.4,0.5-1.4,1.3c0,0.4,0.1,0.7,0.5,1c-0.4,0.1-0.6,0.4-0.6,0.7
		c0,0.2,0.2,0.5,0.4,0.6c-0.4,0.1-0.5,0.4-0.5,0.7c0,0.4,0.2,0.7,0.6,0.8c0.4,0.1,0.7,0.1,1.1,0.1c0.7,0,1.8-0.1,1.8-1.1
		c0-0.4-0.1-0.7-0.5-0.8c-0.4-0.1-0.8-0.1-1.1-0.1c-0.4,0-0.7,0-1,0c-0.1-0.1-0.2-0.1-0.2-0.4c0-0.2,0.2-0.4,0.4-0.4
		c0.1,0,0.2,0,0.2,0c0.1,0.1,0.2,0.1,0.2,0.1c0.4,0,0.7-0.1,1-0.4c0.4-0.2,0.5-0.5,0.5-1c0-0.2-0.1-0.6-0.4-0.8
		c0.1-0.4,0.4-0.5,0.7-0.5l0,0v-0.5h-0.1C69.8,18.4,69.6,18.5,69.5,19.1L69.5,19.1z M69.2,22.7c0.4,0,0.8,0,0.8,0.4
		c0,0.2-0.1,0.4-0.4,0.5c-0.2,0.1-0.7,0.1-1,0.1c-0.4,0-1.2,0-1.2-0.6c0-0.2,0.2-0.4,0.5-0.5l0.8,0.1H69.2L69.2,22.7z"/>
	<polygon class="st1" points="10.8,31.5 10,31.5 10,24.1 11.4,24.1 13.6,30.1 15.8,24.1 17.2,24.1 17.2,31.5 16.2,31.5 16.2,25 
		16.2,25 13.8,31.5 13.2,31.5 10.8,25 10.8,25 10.8,31.5 	"/>
	<path class="st1" d="M18.6,26h0.8v5.5h-0.8V26L18.6,26z M18.5,24.1h1v1h-1V24.1L18.5,24.1z"/>
	<path class="st1" d="M24.7,29.7c-0.1,1.1-0.8,1.9-2,1.9c-1.7,0-2.4-1.4-2.4-2.9c0-1.4,0.7-2.9,2.4-2.9c1.2,0,1.9,0.8,2,1.9
		l-0.7,0.1c-0.1-0.7-0.5-1.3-1.3-1.3c-1.2,0-1.4,1.2-1.4,2.1c0,0.8,0.2,2.1,1.4,2.1c0.7,0,1.2-0.6,1.3-1.3L24.7,29.7L24.7,29.7z"/>
	<path class="st1" d="M26.2,26v1.3h0.1c0.2-0.7,0.7-1.4,1.5-1.4h0.4v0.8H28c-0.6,0-1.1,0.4-1.4,0.8c-0.1,0.5-0.2,0.7-0.2,1.2v2.7
		h-0.8V26H26.2L26.2,26z"/>
	<path class="st1" d="M30.7,30.9c-0.5,0-1-0.2-1.2-0.7c-0.2-0.4-0.4-1-0.4-1.4c0-0.5,0.1-1,0.2-1.4c0.2-0.5,0.7-0.7,1.3-0.7
		c0.5,0,1,0.2,1.2,0.6c0.2,0.5,0.4,1.1,0.4,1.5c0,0.5-0.1,1-0.4,1.4C31.7,30.7,31.2,30.9,30.7,30.9L30.7,30.9z M30.6,31.6
		c1.7,0,2.5-1.3,2.5-2.9c0-1.4-0.7-2.9-2.4-2.9c-1.5,0-2.5,1.3-2.5,2.9C28.2,30.2,28.9,31.6,30.6,31.6L30.6,31.6z"/>
	<path class="st1" d="M34.6,29.9c0.1,0.7,1,1,1.7,1c0.6,0,1.3-0.2,1.3-0.8s-0.6-0.8-1.1-0.8L35.6,29c-0.8-0.1-1.7-0.5-1.7-1.4
		c0-1.2,1.1-1.7,2-1.7c1.1,0,1.9,0.4,2.1,1.4l-0.7,0.1c-0.2-0.6-0.8-0.8-1.4-0.8c-0.5,0-1.2,0.1-1.2,0.8c0,0.5,0.6,0.7,1.1,0.7
		l0.7,0.1c0.5,0.1,0.8,0.2,1.2,0.5c0.5,0.2,0.6,0.7,0.6,1.2c0,1.2-1.2,1.7-2.3,1.7c-1.1,0-2-0.5-2.4-1.5L34.6,29.9L34.6,29.9z"/>
	<path class="st1" d="M41.5,30.9c-0.5,0-1-0.2-1.2-0.7c-0.2-0.4-0.4-1-0.4-1.4c0-0.5,0.1-1,0.2-1.4c0.2-0.5,0.7-0.7,1.3-0.7
		c0.5,0,1,0.2,1.2,0.6c0.2,0.5,0.4,1.1,0.4,1.5c0,0.5-0.1,1-0.4,1.4C42.4,30.7,42.1,30.9,41.5,30.9L41.5,30.9z M41.3,31.6
		c1.7,0,2.6-1.3,2.6-2.9c0-1.4-0.8-2.9-2.5-2.9c-1.5,0-2.5,1.3-2.5,2.9C39,30.2,39.8,31.6,41.3,31.6L41.3,31.6z"/>
	<path class="st1" d="M47.3,26.7H46v4.8h-0.8v-4.8h-1V26h1c-0.1-1.1,0.4-2.1,1.7-2l0.7,0.1v0.7c-0.2-0.1-0.5-0.1-0.7-0.1
		C46,24.7,46,25.4,46,26h1.3V26.7L47.3,26.7z"/>
	<path class="st1" d="M50.3,31.6h-0.8c-1.2,0-1.5-0.7-1.5-1.8v-3.1h-1V26h1v-1.3l0.8-0.1V26H50v0.7h-1.3v3.2c0,0.7,0.2,1,1,1h0.6
		V31.6L50.3,31.6z"/>
	<polygon class="st1" points="65.7,50.8 65.7,46.1 64.1,46.1 64.1,45.5 67.8,45.5 67.8,46.1 66.4,46.1 66.4,50.8 65.7,50.8 	"/>
	<path class="st1" d="M69.5,48.4c0-0.6,0.5-1.2,1.1-1.2c0.7,0,1.1,0.6,1.1,1.2H69.5L69.5,48.4z M71.6,49.6c-0.1,0.5-0.5,0.8-1.1,0.8
		c-0.4,0-0.7-0.2-1-0.6c-0.1-0.4-0.1-0.6-0.1-1h2.9c0-1.1-0.6-2.1-1.8-2.1c-1.2,0-1.8,1.1-1.8,2.1c0,1.1,0.6,2,1.8,2
		c0.7,0,1.4-0.5,1.7-1.2L71.6,49.6L71.6,49.6z"/>
	<path class="st1" d="M76.6,49.5c-0.1,0.8-0.7,1.4-1.5,1.4c-1.2,0-1.7-1.1-1.7-2c0-1.1,0.6-2.1,1.7-2.1c0.8,0,1.4,0.6,1.5,1.4
		L76,48.3c0-0.6-0.4-1-1-1c-0.7,0-1,0.8-1,1.4c0,0.7,0.1,1.7,1,1.7c0.6,0,0.8-0.5,1-1.1L76.6,49.5L76.6,49.5z"/>
	<path class="st1" d="M80.4,50.8v-2.3c0-0.2,0-0.6-0.1-0.8c-0.1-0.2-0.4-0.4-0.7-0.4c-0.2,0-0.6,0.1-0.7,0.4
		c-0.4,0.4-0.4,0.7-0.4,1.1v2h-0.6v-5.2h0.6v2l0,0c0.4-0.5,0.7-0.8,1.3-0.8c0.4,0,0.8,0.2,1,0.6C81,47.7,81,48,81,48.5v2.3H80.4
		L80.4,50.8z"/>
	<path class="st1" d="M83.2,47.6h0.1c0.1-0.5,0.6-0.8,1.2-0.8c0.5,0,0.8,0.2,1.1,0.7c0.2,0.2,0.2,0.8,0.2,1.2v2.1h-0.6v-2.4
		c0-0.2,0-0.6-0.1-0.7c-0.1-0.2-0.5-0.4-0.7-0.4c-0.4,0-0.6,0.1-0.8,0.4c-0.2,0.4-0.2,0.7-0.2,1.1v2h-0.6v-3.9h0.5V47.6L83.2,47.6z"
		/>
	<path class="st1" d="M88.9,50.4c-0.4,0-0.7-0.2-0.8-0.5c-0.2-0.4-0.2-0.8-0.2-1.2c0-0.2,0-0.6,0.1-1c0.2-0.4,0.6-0.5,1-0.5
		c0.4,0,0.7,0.1,0.8,0.4C90,48,90,48.4,90,48.8c0,0.4,0,0.7-0.1,1.1C89.6,50.2,89.3,50.4,88.9,50.4L88.9,50.4z M88.9,50.9
		c1.2,0,1.8-1,1.8-2c0-1.1-0.6-2.1-1.8-2.1c-1.2,0-1.8,1-1.8,2C87.1,49.8,87.7,50.9,88.9,50.9L88.9,50.9z"/>
	<polygon class="st1" points="92.1,45.5 92.8,45.5 92.8,50.8 92.1,50.8 92.1,45.5 	"/>
	<path class="st1" d="M96,50.4c-0.5,0-0.7-0.2-1-0.5c-0.1-0.4-0.2-0.8-0.2-1.2c0-0.2,0.1-0.6,0.2-1c0.1-0.4,0.5-0.5,1-0.5
		c0.2,0,0.6,0.1,0.8,0.4c0.1,0.4,0.2,0.7,0.2,1.1c0,0.4-0.1,0.7-0.2,1.1C96.8,50.2,96.4,50.4,96,50.4L96,50.4z M95.9,50.9
		c1.2,0,1.8-1,1.8-2c0-1.1-0.5-2.1-1.7-2.1c-1.2,0-1.8,1-1.8,2C94.3,49.8,94.7,50.9,95.9,50.9L95.9,50.9z"/>
	<path class="st1" d="M100.5,49c-0.5,0-0.8-0.4-0.8-0.8c0-0.6,0.4-1,0.8-1c0.5,0,1,0.4,1,1C101.4,48.6,101.1,49,100.5,49L100.5,49z
		 M101.3,47c-0.2-0.1-0.6-0.2-0.8-0.2c-0.7,0-1.4,0.5-1.4,1.4c0,0.4,0.1,0.7,0.5,1c-0.4,0.2-0.6,0.4-0.6,0.7c0,0.4,0.2,0.5,0.4,0.6
		c-0.4,0.2-0.6,0.5-0.6,0.8c0,0.5,0.4,0.7,0.7,0.8c0.4,0.2,0.8,0.2,1.2,0.2c0.7,0,1.9-0.1,1.9-1.2c0-0.4-0.2-0.7-0.6-0.8
		c-0.4-0.1-0.8-0.1-1.2-0.1c-0.2,0-0.6,0-1-0.1c-0.1,0-0.2-0.1-0.2-0.4c0-0.1,0.2-0.4,0.5-0.4c0,0,0.1,0.1,0.2,0.1
		c0.1,0,0.1,0,0.2,0c0.4,0,0.7-0.1,1.1-0.4c0.2-0.2,0.5-0.6,0.5-1c0-0.4-0.1-0.7-0.5-1c0.1-0.4,0.4-0.5,0.7-0.5h0.1v-0.5h-0.2
		C101.6,46.3,101.4,46.4,101.3,47L101.3,47z M101.1,50.8c0.4,0,0.8,0,0.8,0.4c0,0.2-0.1,0.5-0.4,0.5c-0.2,0.1-0.7,0.2-1,0.2
		c-0.4,0-1.3-0.1-1.3-0.7c0-0.2,0.2-0.4,0.5-0.5h1L101.1,50.8L101.1,50.8z"/>
	<path class="st1" d="M104.7,51.1c-0.1,0.4-0.1,0.6-0.4,0.7c-0.2,0.4-0.5,0.4-0.8,0.4c-0.1,0-0.2,0-0.5-0.1v-0.5
		c0.2,0.1,0.4,0.1,0.5,0.1c0.6,0,0.7-0.5,0.8-1l-1.3-3.9h0.6l1.1,3l1.1-3h0.5L104.7,51.1L104.7,51.1z"/>
	<polygon class="st1" points="105,33.9 105,28 112.5,31.6 112.5,37.9 105,33.9 	"/>
	<polygon class="st2" points="105.6,33.4 105.6,28.7 112.3,32 112.3,37 105.6,33.4 	"/>
	<polygon class="st1" points="105,28 112.1,24.9 119.4,28.4 112.8,31.8 105,28 	"/>
	<polygon class="st2" points="106.2,28.1 112,25.6 118.2,28.5 112.6,31.4 106.2,28.1 	"/>
	<polygon class="st1" points="112.4,31.7 112.5,37.9 119.5,34.5 119.4,28.4 112.4,31.7 	"/>
	<polygon class="st2" points="113.1,32 113.1,37 118.8,34.1 118.8,29 113.1,32 	"/>
	<polygon class="st1" points="94.3,27.8 94.3,22 101.8,25.5 101.8,31.8 94.3,27.8 	"/>
	<polygon class="st3" points="94.9,27.3 94.9,22.7 101.5,25.9 101.5,31 94.9,27.3 	"/>
	<polygon class="st1" points="94.3,22 101.4,19 108.7,22.3 102.1,25.8 94.3,22 	"/>
	<polygon class="st3" points="95.4,22.1 101.3,19.6 107.5,22.4 101.9,25.3 95.4,22.1 	"/>
	<polygon class="st1" points="101.6,25.6 101.8,31.8 108.8,28.4 108.7,22.3 101.6,25.6 	"/>
	<polygon class="st3" points="102.4,25.9 102.4,30.9 108.1,28 108.1,23 102.4,25.9 	"/>
	<polygon class="st1" points="84,33.5 84,27.7 91.4,31.2 91.5,37.6 84,33.5 	"/>
	<polygon class="st4" points="84.6,33 84.6,28.4 91.3,31.6 91.3,36.6 84.6,33 	"/>
	<polygon class="st1" points="84,27.7 91.2,24.6 98.4,28 91.8,31.5 84,27.7 	"/>
	<polygon class="st4" points="85.1,27.8 91,25.3 97.2,28.1 91.6,31 85.1,27.8 	"/>
	<polygon class="st1" points="91.4,31.4 91.5,37.6 98.5,34.1 98.4,28 91.4,31.4 	"/>
	<polygon class="st4" points="92,31.6 92.1,36.6 97.8,33.7 97.7,28.6 92,31.6 	"/>
	<polygon class="st1" points="94.9,34.3 94.9,28.5 102.2,32.1 102.4,38.5 94.9,34.3 	"/>
	<polygon class="st5" points="95.4,34 95.4,29.2 102.1,32.4 102.1,37.6 95.4,34 	"/>
	<polygon class="st1" points="94.9,28.5 102,25.5 109.3,28.9 102.6,32.3 94.9,28.5 	"/>
	<polygon class="st5" points="95.9,28.7 101.9,26.2 108.1,29.1 102.4,31.8 95.9,28.7 	"/>
	<polygon class="st1" points="102.2,32.2 102.4,38.5 109.3,34.9 109.3,28.9 102.2,32.2 	"/>
	<polygon class="st5" points="102.8,32.4 103,37.4 108.7,34.7 108.6,29.6 102.8,32.4 	"/>
	<path class="st1" d="M51.7,24.9c0.5,0,1,0.4,1,1c0,0.5-0.5,0.8-1,0.8c-0.6,0-1-0.4-1-0.8C50.8,25.3,51.1,24.9,51.7,24.9L51.7,24.9z
		 M51.7,27c0.6,0,1.1-0.5,1.1-1.1c0-0.7-0.5-1.2-1.1-1.2c-0.7,0-1.2,0.5-1.2,1.2C50.5,26.5,51,27,51.7,27L51.7,27z M51.8,25.9
		c0.2,0,0.5-0.1,0.5-0.4c0-0.1-0.1-0.2-0.2-0.2c0-0.1-0.1-0.1-0.2-0.1h-0.6v1.3h0.2v-0.6h0.2l0.4,0.6h0.1L51.8,25.9L51.8,25.9z
		 M51.5,25.8v-0.4h0.4c0.1,0,0.2,0,0.2,0.1c0,0.2-0.2,0.2-0.5,0.2H51.5L51.5,25.8z"/>
	<path class="st1" d="M87.8,37.2c0.5,0,0.8,0.4,0.8,0.8c0,0.5-0.4,1-0.8,1c-0.6,0-1-0.5-1-1C86.9,37.6,87.2,37.2,87.8,37.2
		L87.8,37.2z M87.8,39.2c0.6,0,1.1-0.6,1.1-1.2c0-0.6-0.5-1.1-1.1-1.1c-0.7,0-1.2,0.5-1.2,1.1C86.6,38.6,87.1,39.2,87.8,39.2
		L87.8,39.2z M87.9,38.2c0.2,0,0.4-0.1,0.4-0.4c0-0.1,0-0.2-0.1-0.4c-0.1,0-0.2,0-0.2,0h-0.6v1.2h0.1v-0.5h0.2l0.4,0.5h0.2
		L87.9,38.2L87.9,38.2z M87.5,37.9v-0.4h0.4c0.2,0,0.4,0,0.4,0.2c0,0.2-0.2,0.1-0.5,0.1H87.5L87.5,37.9z"/>
	<polygon class="st1" points="117.7,37.3 117.7,36.1 117.4,36.1 117.4,36 118.3,36 118.3,36.1 117.9,36.1 117.9,37.3 117.7,37.3 	
		"/>
	<polygon class="st1" points="118.8,37.3 118.7,37.3 118.7,36 118.9,36 119.3,37.1 119.8,36 120,36 120,37.3 119.8,37.3 119.8,36.1 
		119.4,37.3 119.3,37.3 118.8,36.1 118.8,36.1 118.8,37.3 	"/>
</g>
</svg>
