<?xml version="1.0" encoding="utf-8"?>
<!-- Generator: Adobe Illustrator 16.0.0, SVG Export Plug-In . SVG Version: 6.00 Build 0)  -->
<!DOCTYPE svg PUBLIC "-//W3C//DTD SVG 1.1//EN" "http://www.w3.org/Graphics/SVG/1.1/DTD/svg11.dtd">
<svg version="1.1" id="Layer_1" xmlns="http://www.w3.org/2000/svg" xmlns:xlink="http://www.w3.org/1999/xlink" x="0px" y="0px"
	 width="160px" height="60px" viewBox="0 0 160 60" enable-background="new 0 0 160 60" xml:space="preserve">
<g>
	<path fill-rule="evenodd" clip-rule="evenodd" d="M32.957,36.914c-0.454,1.193-0.934,1.93-2.506,1.93
		c-1.575,0-2.053-0.736-2.503-1.93l-4.658-11.989C23.066,24.345,23,23.995,23,23.574c0-1.487,1.156-2.255,2.41-2.255
		c1.285,0,1.834,0.93,2.054,1.638l2.954,9.153h0.064l2.953-9.153c0.227-0.708,0.771-1.638,2.055-1.638c0,0,4.48,0,4.547,0
		c1.175,0,1.948,0.642,2.108,1.769c1.134-1.228,2.62-1.932,4.339-1.932c1.938,0,3.565,0.805,4.784,2.348
		c1.28-1.482,3.321-2.348,4.907-2.348c3.768,0,6.329,2.188,6.329,6.234v8.883c0,1.541-0.962,2.57-2.304,2.57
		c-1.347,0-2.305-1.029-2.305-2.57v-8.073c0-1.865-1.039-3.187-2.723-3.187c-1.712,0-2.749,1.321-2.749,3.187v8.073
		c0,1.541-0.967,2.57-2.304,2.57c-1.348,0-2.302-1.029-2.302-2.57v-8.073c0-1.865-1.042-3.187-2.728-3.187
		c-1.906,0-2.751,1.321-2.751,3.187v8.073c0,1.541-0.96,2.57-2.301,2.57c-1.348,0-2.306-1.029-2.306-2.57V24.729L32.957,36.914
		L32.957,36.914z"/>
	<path fill-rule="evenodd" clip-rule="evenodd" d="M64.087,23.668c-0.126-0.422-0.228-0.801-0.228-1.092
		c0-0.552,0.389-1.258,1.354-1.258c0.609,0,1.186,0.221,1.576,1.451l3.631,11.71h0.063l3.567-11.292
		c0.39-1.227,0.641-1.87,1.676-1.87c1.025,0,1.285,0.644,1.667,1.87l3.57,11.292h0.065l3.629-11.71
		c0.389-1.23,0.967-1.451,1.571-1.451c0.968,0,1.35,0.706,1.35,1.257c0,0.288-0.097,0.671-0.225,1.091l-4.688,13.697
		c-0.383,1.094-0.833,1.48-1.637,1.48c-0.775,0-1.254-0.387-1.601-1.48l-3.666-11.571h-0.063l-3.666,11.571
		c-0.352,1.094-0.83,1.48-1.6,1.48c-0.807,0-1.254-0.387-1.643-1.48L64.087,23.668L64.087,23.668z"/>
	<path fill-rule="evenodd" clip-rule="evenodd" d="M91.594,30.082c0-2.917,1.222-6.337,4.698-6.337c3.476,0,4.699,3.42,4.699,6.337
		c0,2.907-1.224,6.334-4.699,6.334C92.815,36.416,91.594,32.988,91.594,30.082L91.594,30.082z M103.657,22.684
		c0-0.984-0.776-1.365-1.32-1.365c-0.58,0-1.312,0.381-1.312,1.365v0.899h-0.067c-1.317-1.44-2.701-2.265-4.666-2.265
		c-4.827,0-7.529,4.203-7.529,8.763c0,4.559,2.702,8.762,7.529,8.762c1.837,0,3.44-0.83,4.666-2.559h0.067v1.186
		c0,0.992,0.731,1.373,1.312,1.373c0.544,0,1.32-0.381,1.32-1.373V22.684L103.657,22.684z"/>
	<path fill-rule="evenodd" clip-rule="evenodd" d="M107.38,22.832c0-0.932,0.543-1.508,1.408-1.508c0.867,0,1.42,0.576,1.42,1.508
		v1.454h0.066c0.64-1.325,2.219-2.962,3.856-2.962c0.989,0,1.574,0.641,1.574,1.446s-0.585,1.318-1.771,1.546
		c-1.672,0.288-3.726,1.545-3.726,4.862v8.154c0,0.932-0.553,1.512-1.42,1.512c-0.865,0-1.408-0.58-1.408-1.512V22.832
		L107.38,22.832z"/>
	<path fill-rule="evenodd" clip-rule="evenodd" d="M119.307,29.06c0.096-2.626,1.343-5.443,4.854-5.315
		c3.121,0,4.534,2.851,4.534,5.315H119.307L119.307,29.06z M129.95,31.184c1.219,0,1.575-0.518,1.575-1.51
		c0-4.151-2.7-8.354-7.365-8.354c-4.794,0-7.689,4.106-7.689,8.77c0,4.554,2.384,8.755,7.851,8.755c3.344,0,6.848-2.105,6.848-3.492
		c0-0.809-0.509-1.258-1.027-1.258c-1.06,0-2.026,2.322-5.795,2.322c-3.177,0-5.04-2.291-5.04-5.232H129.95L129.95,31.184z"/>
	<path fill-rule="evenodd" clip-rule="evenodd" d="M133.712,21.611v0.374h-0.889v2.555h-0.448v-2.555h-0.887v-0.374H133.712
		L133.712,21.611z M136.558,24.54l-0.119-1.757c-0.018-0.237-0.005-0.513-0.013-0.805h-0.018c-0.074,0.276-0.162,0.59-0.254,0.846
		l-0.603,1.673h-0.346l-0.589-1.714c-0.077-0.24-0.149-0.532-0.222-0.805h-0.018c-0.007,0.279,0,0.531-0.02,0.798l-0.104,1.764
		h-0.431l0.223-2.929h0.594l0.565,1.582c0.073,0.224,0.134,0.463,0.206,0.74h0.021c0.061-0.277,0.128-0.527,0.209-0.744l0.564-1.578
		h0.573L137,24.54H136.558L136.558,24.54z"/>
</g>
</svg>
