<?xml version="1.0" encoding="utf-8"?>
<!-- Generator: Adobe Illustrator 16.0.0, SVG Export Plug-In . SVG Version: 6.00 Build 0)  -->
<!DOCTYPE svg PUBLIC "-//W3C//DTD SVG 1.1//EN" "http://www.w3.org/Graphics/SVG/1.1/DTD/svg11.dtd">
<svg version="1.1" id="Layer_1" xmlns="http://www.w3.org/2000/svg" xmlns:xlink="http://www.w3.org/1999/xlink" x="0px" y="0px"
	 width="170px" height="50px" viewBox="0 0 170 50" enable-background="new 0 0 170 50" xml:space="preserve">
<g id="XMLID_5_">
	<path id="svg_53" fill="#0078D6" d="M24.864,11.289c5.852-0.896,11.716-1.739,17.579-2.553c0.004,5.139,0,10.274,0.004,15.413
		c-5.86,0.022-11.72,0.111-17.583,0.13C24.86,19.946,24.86,15.618,24.864,11.289L24.864,11.289z"/>
	<path id="svg_52" fill="#0078D6" d="M10,13.362c4.407-0.68,8.833-1.268,13.258-1.821c0.003,4.263,0.003,8.521,0.007,12.783
		C18.844,24.32,14.422,24.387,10,24.376V13.362L10,13.362z"/>
	<path id="svg_51" fill="#0078D6" d="M80.014,14.079c1.159-0.739,2.642,0.803,1.966,1.962c-0.327,0.852-1.523,1.175-2.2,0.55
		C78.933,16.016,79.051,14.484,80.014,14.079L80.014,14.079z"/>
	<path id="svg_50" fill="#0078D6" d="M110.376,13.927c0.743-0.003,1.486-0.003,2.229-0.003c0,6.938,0,13.87,0,20.808
		c-0.743,0-1.482,0-2.222,0c0.003-0.754-0.012-1.508-0.063-2.263c-1.609,2.891-5.912,3.53-8.372,1.386
		c-1.758-1.512-2.293-3.972-2.199-6.197c0.019-2.26,0.762-4.66,2.56-6.135c2.338-1.925,6.48-1.813,8.082,1.014
		C110.361,19.664,110.387,16.796,110.376,13.927 M105.575,22.154c-1.783,0.282-2.991,1.909-3.326,3.593
		c-0.438,2.028-0.36,4.377,0.918,6.102c1.383,1.835,4.434,1.876,5.912,0.141c1.007-1.048,1.293-2.549,1.301-3.953
		c0.011-1.483,0.138-3.155-0.848-4.393C108.663,22.406,107.039,21.85,105.575,22.154z"/>
	<path id="svg_47" fill="#0078D6" d="M52.342,15.034c0.836,0.004,1.672,0.004,2.512,0.015c1.304,4.712,2.59,9.432,3.898,14.146
		c0.279,0.988,0.487,1.999,0.609,3.024c1.36-5.785,3.218-11.448,4.778-17.186c0.725,0.004,1.449,0.004,2.174,0.008
		c1.148,4.083,2.222,8.186,3.359,12.272c0.42,1.628,0.962,3.233,1.133,4.917c1.23-5.778,2.984-11.441,4.377-17.183
		c0.825-0.011,1.65-0.011,2.475-0.011c-1.799,6.573-3.671,13.128-5.492,19.693c-0.892,0-1.787,0-2.679,0
		c-1.319-4.715-2.627-9.434-3.961-14.142c-0.223-0.762-0.316-1.55-0.387-2.338c-0.104,0.681-0.201,1.368-0.375,2.033
		c-1.349,4.801-2.716,9.594-4.028,14.401c-0.892,0.049-1.784,0.053-2.676,0.045C56.147,28.17,54.248,21.601,52.342,15.034
		L52.342,15.034L52.342,15.034L52.342,15.034z"/>
	<path id="svg_46" fill="#0078D6" d="M87.684,22.886c1.274-2.271,4.247-3.314,6.644-2.263c1.906,0.743,2.616,2.95,2.676,4.83
		c0.104,3.092,0.019,6.187,0.044,9.278c-0.743,0-1.486,0-2.229-0.003c-0.033-2.97,0.078-5.945-0.052-8.915
		c-0.06-1.471-0.684-3.239-2.285-3.615c-2.337-0.706-4.671,1.401-4.745,3.712c-0.066,2.939-0.004,5.883-0.026,8.821
		c-0.743,0-1.486,0-2.229,0c0.003-4.707,0.003-9.412,0-14.119c0.743,0,1.49,0,2.233,0C87.709,21.37,87.706,22.128,87.684,22.886
		L87.684,22.886z"/>
	<path id="svg_45" fill="#0078D6" d="M121.278,20.263c1.988-0.175,4.191,0.138,5.686,1.575c1.687,1.558,2.188,3.976,2.095,6.187
		c-0.025,1.988-0.762,4.006-2.218,5.392c-3.039,2.765-8.684,2.159-10.612-1.643c-1.517-3.184-1.211-7.591,1.557-10.01
		C118.777,20.924,120.033,20.541,121.278,20.263 M120.877,22.284c-3.273,1.007-3.827,5.283-2.806,8.097
		c0.813,2.497,3.987,3.604,6.265,2.438c1.542-0.71,2.245-2.449,2.394-4.043c0.167-1.861,0.019-3.972-1.297-5.425
		C124.317,22.095,122.43,21.823,120.877,22.284z"/>
	<path id="svg_44" fill="#0078D6" d="M155.089,20.255c1.394-0.097,2.813,0.037,4.124,0.55c0.364,0.691,0.082,1.599,0.168,2.375
		c-1.565-0.978-3.72-1.602-5.418-0.605c-1.163,0.632-1.219,2.5-0.086,3.195c1.624,1.051,3.687,1.326,5.128,2.679
		c1.591,1.531,1.204,4.474-0.658,5.622c-2.263,1.441-5.242,1.301-7.613,0.2c0-0.832-0.004-1.664-0.019-2.497
		c1.688,1.286,4.058,2,6.075,1.086c1.179-0.592,1.237-2.4,0.201-3.162c-1.624-1.197-3.85-1.387-5.292-2.88
		c-1.423-1.435-1.166-4.072,0.42-5.288C152.94,20.775,154.052,20.549,155.089,20.255z"/>
	<path id="svg_43" fill="#0078D6" d="M79.535,20.615c0.743-0.003,1.486-0.003,2.229-0.003c0,4.707,0,9.412,0,14.119
		c-0.743,0-1.486,0-2.229,0C79.535,30.024,79.538,25.319,79.535,20.615z"/>
	<path id="svg_42" fill="#0078D6" d="M129.988,20.612c0.772,0,1.55,0,2.326,0c0.921,3.362,1.813,6.732,2.753,10.092
		c0.189,0.632,0.261,1.285,0.327,1.939c1.052-4.051,2.382-8.026,3.574-12.035c0.677,0.004,1.353,0.007,2.033,0.011
		c1.021,4.014,2.293,7.967,3.14,12.021c0.873-4.031,2.114-7.974,3.084-11.983c0.747-0.037,1.494-0.048,2.244-0.056
		c-1.415,4.708-2.771,9.431-4.195,14.131c-0.772,0-1.542,0-2.311,0c-1.004-3.827-2.304-7.58-3.118-11.448
		c-0.97,3.864-2.314,7.625-3.422,11.448c-0.747,0-1.49,0-2.233,0C132.794,30.024,131.367,25.327,129.988,20.612L129.988,20.612z"/>
	<path id="svg_41" fill="#0078D6" d="M10,25.717c4.418-0.015,8.836,0.057,13.254,0.049c0,4.273,0.011,8.547,0.004,12.819
		c-4.415-0.654-8.836-1.226-13.258-1.824V25.717z"/>
	<path id="svg_40" fill="#0078D6" d="M24.837,25.889c5.871,0,11.738,0,17.605,0c0.008,5.123,0,10.248,0,15.375
		c-5.852-0.877-11.716-1.69-17.579-2.485C24.856,34.482,24.845,30.188,24.837,25.889z"/>
</g>
</svg>
