<?xml version="1.0" encoding="utf-8"?>
<!-- Generator: Adobe Illustrator 21.0.0, SVG Export Plug-In . SVG Version: 6.00 Build 0)  -->
<svg version="1.1" id="Layer_1" xmlns="http://www.w3.org/2000/svg" xmlns:xlink="http://www.w3.org/1999/xlink" x="0px" y="0px"
	 viewBox="0 0 249.3 74.8" style="enable-background:new 0 0 249.3 74.8;" xml:space="preserve">
<style type="text/css">
	.st0{fill:#525257;}
	.st1{fill:#1C456F;}
</style>
<g>
	<path class="st0" d="M233.7,54.3c-0.1,0.2-0.4,0.3-0.4,0.4c-0.9,4.9-3.8,7.9-8.4,9.5c-0.4,0.2-0.8,0.3-1.3,0.5
		c0.6,1.7,2.1,2.5,3.6,3.4c1.4,0.9,2.9,1.7,4.4,2.6c-0.7,0.9-1.3,1.7-2,2.6c-4.1-1.2-7.4-3.3-9.9-6.5c-1-1.2-2-2-3.5-2.2
		c-9-1.7-13.2-13.1-6.8-20.7c1.7-2,4-3.2,6.5-3.9c3.8-1.1,7.6-0.7,11.1,1.2c3.4,1.8,5.6,4.4,6.3,8.3c0.1,0.3,0.3,0.4,0.4,0.7
		C233.7,51.5,233.7,52.9,233.7,54.3z M219.6,61.6c5.8,0.2,9.6-4,9.7-9.2c0.2-4.9-3.5-9.5-9.2-9.5c-5.4,0-9.2,3.6-9.5,9
		C210.3,58,215.5,61.9,219.6,61.6z"/>
	<path class="st1" d="M34.6,15.9c0.8-2,1.4-3.6,2.1-5.5c1.2,0,2.3,0,3.6,0c-0.6,1.3-1.1,2.6-1.6,3.8c-0.7,1.5-1.4,3.1-2,4.6
		c-0.2,0.5-0.4,1.3-0.2,1.9c1.1,2.7,2.3,5.2,3.7,8.3c2.8-6.3,4.9-12.5,7.5-18.7c1.2,0,2.5-0.2,3.8,0.2c-3.5,8.3-6.8,16.5-10.2,24.8
		c-0.7,0.1-1.3,0.1-2,0.2c-1.6-3.6-3.3-7-5.1-10.9c-1.9,3.7-3.1,7.4-4.8,10.8c-0.6,0-1.2,0-1.9,0c-3.6-8.3-7.2-16.5-10.8-25
		c1.5,0,2.8,0,4.4,0c2.5,6,5,12.1,7.6,18.7c1.3-3.2,2.6-6,3.7-8.7c-1.3-3.3-2.7-6.5-4.1-10c0.6-0.1,1.2-0.1,1.7-0.1s1.2,0,1.9,0
		C32.8,12.1,33.7,13.9,34.6,15.9z"/>
	<path class="st1" d="M64.5,9.8c4.4,0.1,8,1.6,10.8,5c1.6,1.9,2.6,4,2.7,6.6c0,1.8,0.1,3.6-0.4,5.2c-1.7,4.7-5,7.4-9.8,8.5
		c-3.2,0.8-6.3,0.4-9.3-0.9c-4.1-1.7-6.6-4.7-7.5-9.2c-0.6-3.4-0.2-6.6,1.8-9.5c1.8-2.8,4.4-4.4,7.5-5.2C61.6,10,63.1,9.9,64.5,9.8z
		 M73.6,22.7c0.4-5.1-4.2-9.5-9.1-9.4c-5.3,0.1-9.6,3.6-9.6,9.4c0.1,5.2,3.6,9.2,9.5,9.3C70.3,32.1,74,27.4,73.6,22.7z"/>
	<path class="st1" d="M168,22.9c0.1,6.8-5,11-10.5,12.3c-3.4,0.7-6.7,0.3-9.7-1.2c-3.6-1.8-5.9-4.8-6.8-8.9
		c-1.3-5.4,2.1-13.2,9.6-14.7c2.9-0.6,5.9-0.6,8.8,0.4C164.4,12.3,168.3,17.1,168,22.9z M154.5,13.3c-5.6,0-9.5,3.9-9.5,9.2
		c0,5.6,3.9,9.5,9.5,9.5c5.2,0,9-3.8,9.2-9.3C163.9,17.6,159.4,13.1,154.5,13.3z"/>
	<path class="st1" d="M154.3,65c-3.9,0-7.4-1.2-10.1-4c-4-4.3-4.7-11.2-1-16.2c2.1-2.8,5-4.4,8.5-5.1c3.9-0.7,7.5,0,10.8,2
		c3.1,1.9,4.9,4.8,5.4,8.3c0.6,3.6,0,6.9-2.2,9.9c-2.6,3.3-6,4.9-10,5.2C155.1,65,154.7,65,154.3,65z M154.5,61.6
		c5,0.3,9.4-4.2,9.2-9.5c-0.2-5.5-4.2-9.2-9.3-9.2c-5.9,0-9.5,4.5-9.4,9.4C145.1,57.6,148.8,61.5,154.5,61.6z"/>
	<path class="st1" d="M189.7,60.9c0-2.2,0-4.4,0-6.9c-1.7,0-3.3,0-4.9,0c0-1.2,0-2.1,0-3.3c1.4-0.4,2.9-0.1,4.4-0.2
		c1.4,0,2.8,0,4.4,0c0.3,2.2,0.1,4.4,0.1,6.4c0,2.1,0,4.3,0,6.3c-0.7,0.9-1.7,0.9-2.6,1.1c-4.1,0.9-8.3,1.2-12.4-0.2
		c-5.2-1.8-8.4-5.5-9-11c-0.4-4.3,1.7-9.5,7.1-12c3.1-1.4,6.4-2,9.9-1.4c2.3,0.4,4.6,0.7,6.7,2c-0.5,1-1.1,2-1.5,2.9
		c-2-0.6-3.9-1.3-5.9-1.7c-4.4-0.8-9.2,1.2-11.2,5.2c-2,3.8-0.6,8.5,2.8,11.2C180.6,61.6,185.7,62.3,189.7,60.9z"/>
	<path class="st1" d="M189.3,34.9c-1.9,0-3.2,0-4.6,0c-2.1-3.3-4.3-6.6-6.5-10c-1.1,0-2.1,0-3.3,0c0,3.3,0,6.6,0,10
		c-0.8,0.1-1.4,0.1-2,0.1s-1.2-0.1-1.8-0.1c-0.5-1.5-0.7-18.1-0.4-24.4c0.4-0.1,0.9-0.2,1.4-0.2c2.8,0,5.5-0.1,8.4,0
		c2.4,0.1,4.6,0.7,6.3,2.6c1.4,1.5,1.7,3.3,1.5,5.2c-0.2,2.1-1.1,3.8-2.7,5.1c-0.8,0.6-1.7,1-2.8,1.5
		C184.9,28.1,186.9,31.4,189.3,34.9z M174.9,21.5c2,0,3.9,0.1,5.7,0c1.6-0.1,2.9-1.3,3.2-2.9c0.4-2.2-0.4-3.9-2.1-4.6
		c-0.1-0.1-0.3-0.1-0.4-0.1c-2.1-0.1-4.2-0.2-6.3,0.1C174.9,16.4,174.9,18.8,174.9,21.5z"/>
	<path class="st1" d="M92.7,24.8c1.2,1.8,2.2,3.5,3.3,5.2c1,1.6,2.3,3,3,4.9c-1.5,0.4-2.8,0.2-4.4,0.3c-2.1-3.4-4.4-6.8-6.5-10
		c-1.2,0-2.1,0-3.2,0c-0.4,1.7-0.2,3.4-0.2,5c0,1.6,0,3.2,0,5c-1.3,0-2.4,0-3.6,0l-0.1-0.1C81,34.8,81,34.8,81,34.7
		c0-0.4-0.1-0.9-0.1-1.2c0-7.6,0-15.2,0-22.9c0.6-0.1,1.1-0.1,1.5-0.1c2.7,0,5.2-0.1,7.9,0c1.8-0.1,3.6,0.4,5.2,1.4
		c2.3,1.4,2.9,3.7,2.8,6C98,20.9,96.7,23.4,92.7,24.8z M84.8,21.5c2,0,3.8,0,5.7,0c0.5,0,1.2-0.2,1.6-0.5c1.6-1,2.4-3.9,1.3-5.4
		c-0.5-0.7-1.3-1.5-2-1.6c-2.1-0.3-4.4-0.3-6.5,0C84.8,16.4,84.8,18.8,84.8,21.5z"/>
	<path class="st1" d="M220.5,24c0,2.7,0,5.1,0,7.6c2,0,3.9,0,5.8,0c1.9,0,3.6,0,5.6,0c0,1.1,0,2,0,3c-0.4,0.1-0.8,0.4-1.2,0.4
		c-4.4,0-8.8,0-13.2,0c-0.4,0-0.7-0.1-1-0.2c-0.4-1.6-0.5-21.2-0.2-24.4c5,0,10,0,15.1,0c0,1.1,0,2,0,3.1c-1.8,0.4-3.6,0.1-5.4,0.2
		c-1.8,0-3.6,0-5.4,0c-0.4,2.2-0.1,4.4-0.2,6.8c3.1,0,6.1,0,9.2,0c0,1.2,0,2.1,0,3.3c-1.4,0.4-3,0.2-4.5,0.2
		C223.7,24.1,222.2,24,220.5,24z"/>
	<path class="st1" d="M212.9,12.3c-0.6,1-1.2,1.9-1.6,2.7c-0.9,0.3-1.3-0.4-2-0.7c-3.6-1.6-7.1-1.4-10.5,0.7c-2,1.2-3,3.1-3.4,5.2
		c-0.6,3.5,0.2,6.6,2.7,9.2c1.1,1.2,2.5,1.9,4,2.2c3.1,0.7,6.1,0.7,9.2-0.9c0.4,1,0.8,1.9,1.2,2.9c-0.6,0.3-1.1,0.4-1.6,0.6
		c-4.4,1.6-8.7,1.5-12.9-0.5c-4.6-2.2-6.7-6-6.9-11c-0.4-6.4,4.8-11.5,10-12.5c3.9-0.8,7.6-0.4,11.1,1.4
		C212.3,11.8,212.5,12.1,212.9,12.3z"/>
	<path class="st1" d="M129.2,21.1c3.2,0,6.1,0,9.2,0c0,1.1,0,2,0,3.2c-1.5,0.4-3,0.1-4.5,0.2s-2.9,0-4.7,0c0,1.9,0,3.6,0,5.3
		c0,1.7,0,3.4,0,5.2c-1.3,0-2.4,0-3.6,0l-0.1-0.1c-0.1-0.1-0.1-0.1-0.1-0.2c0-0.4-0.1-0.9-0.1-1.2c0-7.6,0-15.2,0-22.8
		c1.7-0.4,13-0.4,15.3-0.1c0,1,0.4,2-0.4,3.2c-3.6,0-7.2,0-10.8,0C129,16.2,129.1,18.5,129.2,21.1z"/>
	<path class="st1" d="M141,61.1c0,1.2,0,2.2,0,3.2c-1.4,0.4-12.4,0.4-15.4,0.2c-0.4-2-0.4-22.8,0.1-24.4c0.5,0,1.2-0.1,1.8-0.1
		c0.6,0,1.2,0,2,0c0,3.7,0,7.3,0,10.8c0,3.5,0,6.9,0,10.5C133.4,61.1,137.1,61.1,141,61.1z"/>
	<path class="st1" d="M122.5,35c-1.4,0-2.8,0.1-4.3,0c-0.5,0-1.1-0.4-1.4-0.8c-1.1-1.2-2-2.3-3.1-3.6c-2.1-2.5-4.2-5-6.2-7.5
		c-0.1-0.2-0.2-0.4-0.4-0.7c3.3-4,6.6-8.1,9.8-12c1.8,0,3.5,0,5.4,0c-3.5,4.1-6.8,8.1-10.2,12.2c3.6,4,7.1,8,10.6,12
		C122.7,34.7,122.6,34.9,122.5,35z"/>
	<path class="st1" d="M107,34.9c-1.5,0-2.7,0-3.7,0c-0.2-0.2-0.2-0.2-0.3-0.3c0-0.1-0.1-0.1-0.1-0.2c0-0.1-0.1-0.3-0.1-0.4
		c0-7.8,0-15.6,0-23.5c1.3-0.4,2.7-0.2,4.2-0.2C107,18.6,107,26.7,107,34.9z"/>
	<path class="st0" d="M198.8,39.9c1.3,0,2.4,0,3.6,0c0,8.2,0,16.3,0,24.5c-1.2,0-2.3,0-3.6,0C198.8,56.3,198.8,48.2,198.8,39.9z"/>
</g>
</svg>
