<?xml version="1.0" encoding="utf-8"?>
<!-- Generator: Adobe Illustrator 21.0.0, SVG Export Plug-In . SVG Version: 6.00 Build 0)  -->
<svg version="1.1" id="Layer_1" xmlns="http://www.w3.org/2000/svg" xmlns:xlink="http://www.w3.org/1999/xlink" x="0px" y="0px"
	 viewBox="0 0 1068 518" style="enable-background:new 0 0 1068 518;" xml:space="preserve">
<style type="text/css">
	.st0{fill:#AA1D2D;}
</style>
<g>
	<path class="st0" d="M212.6,334.7c-3.9-7.5-5.7-15.6-6.6-23.8c-1.6-14.2,0.5-28,6.6-41c1.3-2.7,0.7-4.2-1.8-5.5c-3-1.6-6-3.4-9-5
		c-6.8-3.7-13.3-8.1-20.3-11.5c0,36.5,0,73,0,109.5c0.6-0.3,1.3-0.5,1.9-0.8c9.1-5.3,18.1-10.8,27.3-15.9
		C213.7,339,214,337.3,212.6,334.7z"/>
	<path class="st0" d="M712.8,258.3c-0.2-16-2.2-31.6-11.8-45.3c-5.5-7.9-12.4-14.1-20.6-18.8c-9.4-5.4-19.6-8.1-30.5-8.8
		c-14.8-1-29,1-42.2,7.9c-7.6,4-14.2,9.4-19.6,16.2c-4,5-7.3,10.4-9.3,16.3c-4,12.3-5.7,25.1-5.7,38.1c0.1,25.5,0,51,0,76.6
		c0,9.1,0.2,18.2,1.9,27.2c2.1,11,5.3,21.2,12.2,30.3c9,11.7,20.7,19.3,34.4,22.8c16.9,4.2,34,4,50.6-2.6
		c13.9-5.6,24.7-14.6,31.8-27.7c5.3-9.7,7.7-20.3,8.3-31.4c0.9-18.4,0.4-36.7,0.4-55.1C712.8,288.8,713,273.5,712.8,258.3z
		 M661.2,367.9c-5.4,7.8-18,11.1-27.2,6.8c-9.3-4.3-13-11.7-13-21.3c-0.2-32.7-0.1-65.4,0-98c0-5.6,1.2-10.9,4.9-15.5
		c6.5-8.1,20.8-10.3,29.4-4.6c7.6,4.9,10.6,12.1,10.7,20.7c0.1,16,0,32.1,0,48.1c0,15.7-0.1,31.4,0.1,47.1
		C666.1,357.4,664.6,362.9,661.2,367.9z M619.5,259c-0.2,15,0,30.1,0,45.2c0,16.4,0,32.8,0,49.2c0-16.4,0-32.8,0-49.2
		C619.5,289.1,619.3,274.1,619.5,259z"/>
	<path class="st0" d="M593.1,96.4c0.6-1.7,0.5-2.5-1.7-2.5c-15.1,0.1-30.3,0-45.4,0c-1,0-2-0.1-2.4,1.3c-0.9,2.8-2.2,5.6-3,8.4
		c-3.8,15.3-8.5,30.3-13,45.4c-4.7,15.5-9.1,31.1-13.5,46.7c-2.5,8.9-4.8,18-8.2,27.2c-1.6-2.6-1.7-5.2-2.7-7.5
		c-2.4-5.5-2.9-11.6-4.8-17.2c-4-11.7-7-23.6-10.4-35.3c-3.3-11-6.3-22.1-9.6-33.1c-3.3-11-5.9-22.2-9.8-33
		c-0.7-2.1-1.4-2.9-3.7-2.9C450.2,94,435.6,94,421.1,94c-3.5,0-3.5,0.2-2.2,3.7c3,8.3,5.9,16.6,8.7,24.9c2.9,8.3,5.6,16.7,8.5,25.1
		c4.3,12.4,8.6,24.7,12.9,37.1c4.2,12.4,8.3,24.8,12.5,37.2c3.4,10.1,7,20.1,10.4,30.2c2.1,6.2,4.4,12.3,6.4,18.5
		c2.1,6.5,4.2,12.9,4.1,20.1c-0.3,42-0.1,84.1-0.2,126.1c0,3.4,0.9,4.2,4.2,4.2c12.8-0.2,25.6-0.1,38.5-0.1c4.5,0,4.5,0,4.5-4.5
		c0-43.2,0-86.4,0-129.6c0-2.3-0.1-4.5,0.8-6.8c2.9-8,5.6-16,8.1-24.1c2.6-8.3,5.5-16.6,8.4-24.8c3.3-9.4,6.3-18.9,9.8-28.2
		c3.7-9.9,6.3-20.2,10-30.1c5.5-14.5,10.1-29.3,15.3-43.8C585.7,118.4,589.1,107.3,593.1,96.4z"/>
	<path class="st0" d="M382.8,363.2c-8.1-4.6-16.2-9.2-24.3-13.6c-1.8-1-3-3.5-5.1-3.1c-2.3,0.4-2.5,3.3-3.9,4.9
		c-7.3,8.6-15.5,15.9-25.5,21.3c-9.7,5.2-20,7.9-30.8,9.4c-2.4,0.3-2.8,1.2-2.8,3.2c0.1,5.3,0,10.6,0,15.9c0,0,0,0,0,0
		c0,5.5,0,11.1,0,16.6c0,1.3-0.1,2.9,2,1.7c7.9-4.6,15.9-9.2,23.8-13.8c15.3-8.9,30.5-17.7,45.8-26.5c6.7-3.9,13.6-7.6,20.3-11.5
		C385.8,365.9,385.9,365,382.8,363.2z"/>
	<path class="st0" d="M279.1,382.2c-10.6-1.4-20.9-4.1-30.4-9.1c-10.2-5.4-18.8-12.6-25.9-21.6c-1.2-1.5-2.1-3.6-3.7-4.5
		c-2.2-1.3-3.5,1.5-5.1,2.4c-8.8,4.7-17.3,9.9-26,14.8c-1.7,1-1.7,1.3-0.1,2.4c5.8,3.9,12.1,7.1,18.1,10.7c7,4.1,14,8.1,21.1,12.1
		c4.5,2.6,9,5,13.4,7.6c7.8,4.5,15.6,9.1,23.4,13.6c5,2.9,10.1,5.8,15.2,8.7c0.6,0.4,1,1.6,1.9,0.9c0.4-0.3,0.4-1.3,0.4-1.9
		c0-5.5,0-11.1,0-16.6c0,0,0,0,0,0c0-5.5,0-11.1,0-16.6C281.4,383.4,281.1,382.5,279.1,382.2z"/>
	<path class="st0" d="M290.5,215.1c0,6.5,0,6.4,6.4,7.5c12.1,2.1,23.4,5.9,33.8,13c7.6,5.2,14,11.3,19.7,18.4
		c1.1,1.4,1.2,3.8,3.3,4.1c2.1,0.3,3.1-1.7,4.7-2.6c8.4-4.6,16.9-9.3,25.3-14c1.8-1,2.6-2.1,0.1-3.4c-5-2.7-10-5.5-15-8.3
		c-14.8-8.5-29.6-17.1-44.3-25.7c-8.6-5-17.1-10.2-25.7-15.2c-2.2-1.3-4.5-2.3-6.7-3.5c-2,0-1.5,1.5-1.5,2.5
		C290.5,197.1,290.5,206.1,290.5,215.1z"/>
	<path class="st0" d="M887.9,240.3c0-8.4-0.9-16.7-4-24.8c-4.7-12.4-12.6-21.6-24.6-26.9c-11.6-5.1-23.8-4.6-35.9-1.7
		c-2.1,0.5-4.1,1.4-6,2.5c-8,4.2-14.7,10.1-20,17.6c-0.6,0.8-1.1,2.3-2.6,1.3l0,0c0-0.2,0.1-0.5,0.1-0.7c0-37.1,0-74.1,0.1-111.2
		c0-2.3-0.9-2.6-2.9-2.6c-13.9,0.1-27.7,0.1-41.6,0c-2.6,0-3.3,0.7-3.3,3.3c0.1,10.6,0.1,21.2,0.1,31.9c0,95.7,0,191.4,0,287.2
		c0,4.9,0,4.9,4.9,4.9c12.9,0,25.9-0.1,38.8,0.1c3.2,0,4-0.8,4-4c-0.1-39.8-0.1-79.7-0.1-119.5c0-14.3,0.1-28.6,0.1-42.9
		c0.2-1,0.4-2,0.6-3c1.6-6.7,3.8-12.9,10.3-16.8c4.3-2.5,8.7-2.6,13.3-2.7c10.9-0.2,19.1,8.9,20.6,18.7c0.9,5.5,1,11,1,16.6
		c0,49.9,0,99.8-0.1,149.7c0,2.9,0.6,4,3.8,4c13.2-0.2,26.3-0.2,39.5,0c3,0,3.9-0.7,3.9-3.8C887.9,358.4,888,299.4,887.9,240.3z
		 M794.2,209.3c-0.1,0.4,0,0.7,0,1.1c0.3,0.6,0.6,1,1,1.1c0.2,0.1,0.3,0.1,0.5,0.1c-0.2,0-0.3,0-0.5-0.1c-0.4-0.2-0.7-0.5-1-1.1
		C794.1,210,794.1,209.6,794.2,209.3z"/>
	<path class="st0" d="M278.9,185.8c-9.4,5.7-19.1,11-28.6,16.6c-9.8,5.7-19.7,11.3-29.5,17c-10.7,6.2-21.5,12.3-32.2,18.5
		c-3.3,1.9-3.2,2,0.2,4c9.2,5.2,18.4,10.5,27.5,15.8c1.7,1,2.6,0.7,3.7-0.8c1.9-2.5,3.8-4.9,5.3-7.6c0.2-0.2,0.4-0.4,0.7-0.6
		c0.5-0.4,1.1-0.8,1.6-1.3c5.3-5.8,11.5-10.4,18.2-14.4c10.2-6.1,21.5-9.2,33.3-10.7c1.5-0.2,2.7-0.3,2.7-2.3c0-11,0-21.9-0.1-32.9
		C281.6,185.2,281,184.5,278.9,185.8z"/>
	<path class="st0" d="M388.1,249.1c-2.7,0.9-4.7,2.9-7.1,4.2c-7,3.9-13.9,8-20.9,11.9c-1.7,1-2.2,1.8-1.2,3.8
		c4.3,8.4,6.3,17.4,7.2,26.7c0.6,5.8-0.2,11.5-0.1,17.3c0,0.5-0.1,0.9-0.1,1.4c-2.5,7.5-3.5,15.6-7.7,22.6c-0.6,1-0.3,1.8,0.7,2.3
		c4.5,2.1,8.2,5.9,13.2,7c0,0.2,0.1,0.2,0.3,0.2c4,4.1,9.6,5.6,14.2,8.8c3.7,2.5,3.9,2.1,3.9-2.7c0-32.1,0-64.2,0-96.2
		c0-1.8,0-3.7,0-5.5C390.5,249.1,390.2,248.4,388.1,249.1z"/>
</g>
</svg>
