<?xml version="1.0" encoding="utf-8"?>
<!-- Generator: Adobe Illustrator 21.0.0, SVG Export Plug-In . SVG Version: 6.00 Build 0)  -->
<svg version="1.1" id="Layer_1" xmlns="http://www.w3.org/2000/svg" xmlns:xlink="http://www.w3.org/1999/xlink" x="0px" y="0px"
	 viewBox="0 0 1068 518" style="enable-background:new 0 0 1068 518;" xml:space="preserve">
<style type="text/css">
	.st0{fill:#AA1D2D;}
</style>
<g>
	<path class="st0" d="M238.2,347.6c-3.6-6.9-5.2-14.4-6.1-21.9c-1.5-13.1,0.5-25.8,6.1-37.8c1.2-2.5,0.7-3.9-1.7-5.1
		c-2.8-1.4-5.5-3.1-8.3-4.6c-6.3-3.4-12.2-7.5-18.7-10.6c0,33.6,0,67.2,0,100.8c0.6-0.2,1.2-0.4,1.7-0.7c8.4-4.9,16.6-10,25.1-14.6
		C239.2,351.6,239.4,350.1,238.2,347.6z"/>
	<path class="st0" d="M698.7,277.3c-0.2-14.8-2.1-29.1-10.8-41.7c-5.1-7.3-11.4-13-19-17.3c-8.7-5-18.1-7.4-28.1-8.1
		c-13.6-0.9-26.7,1-38.8,7.3c-7,3.7-13,8.7-18.1,14.9c-3.7,4.6-6.8,9.5-8.6,15c-3.7,11.4-5.3,23.1-5.2,35.1c0.1,23.5,0,47,0,70.5
		c0,8.4,0.2,16.8,1.8,25.1c1.9,10.1,4.8,19.5,11.3,27.9c8.2,10.8,19,17.8,31.7,21c15.5,3.9,31.3,3.7,46.6-2.4
		c12.8-5.1,22.8-13.5,29.3-25.5c4.9-8.9,7.1-18.7,7.6-28.9c0.9-16.9,0.3-33.8,0.4-50.7C698.7,305.4,698.9,291.3,698.7,277.3z
		 M651.2,378.2c-4.9,7.2-16.6,10.2-25,6.3c-8.5-4-12-10.8-12-19.6c-0.1-30.1-0.1-60.2,0-90.3c0-5.1,1.1-10,4.5-14.2
		c6-7.4,19.1-9.5,27.1-4.3c7,4.6,9.8,11.1,9.8,19.1c0.1,14.8,0,29.6,0,44.3c0,14.5-0.1,28.9,0.1,43.4
		C655.7,368.6,654.3,373.7,651.2,378.2z M612.8,278c-0.2,13.9,0,27.7,0,41.6c0,15.1,0,30.2,0,45.3c0-15.1,0-30.2,0-45.3
		C612.8,305.7,612.6,291.8,612.8,278z"/>
	<path class="st0" d="M588.4,128.3c0.6-1.6,0.4-2.3-1.5-2.3c-13.9,0.1-27.9,0-41.8,0c-1,0-1.8-0.1-2.2,1.2c-0.8,2.6-2.1,5.1-2.7,7.8
		c-3.5,14.1-7.8,27.9-12,41.8c-4.3,14.3-8.3,28.7-12.4,43c-2.3,8.2-4.4,16.5-7.6,25.1c-1.5-2.4-1.6-4.8-2.5-6.9
		c-2.2-5.1-2.7-10.7-4.5-15.9c-3.6-10.7-6.4-21.7-9.6-32.5c-3-10.2-5.8-20.4-8.9-30.5c-3.1-10.1-5.4-20.4-9-30.4
		c-0.7-1.9-1.3-2.7-3.4-2.7c-13.4,0.1-26.8,0-40.2,0.1c-3.2,0-3.2,0.2-2.1,3.4c2.8,7.6,5.4,15.3,8,22.9c2.6,7.7,5.1,15.4,7.8,23.1
		c3.9,11.4,8,22.7,11.9,34.1c3.9,11.4,7.7,22.8,11.5,34.3c3.2,9.3,6.4,18.6,9.6,27.8c1.9,5.7,4.1,11.4,5.9,17.1
		c1.9,6,3.8,11.9,3.8,18.5c-0.3,38.7-0.1,77.4-0.2,116.1c0,3.1,0.9,3.9,3.9,3.8c11.8-0.2,23.6-0.1,35.4-0.1c4.1,0,4.1,0,4.1-4.1
		c0-39.8,0-79.5,0-119.3c0-2.1-0.1-4.1,0.7-6.2c2.7-7.3,5.1-14.7,7.5-22.2c2.4-7.7,5-15.3,7.7-22.8c3.1-8.6,5.8-17.4,9-26
		c3.4-9.1,5.8-18.6,9.3-27.7c5.1-13.3,9.3-27,14.1-40.4C581.7,148.5,584.8,138.3,588.4,128.3z"/>
	<path class="st0" d="M394.9,373.9c-7.4-4.2-14.9-8.4-22.4-12.5c-1.7-0.9-2.7-3.2-4.7-2.8c-2.1,0.4-2.3,3-3.6,4.5
		c-6.7,7.9-14.3,14.6-23.5,19.6c-8.9,4.8-18.5,7.3-28.3,8.7c-2.2,0.3-2.6,1.1-2.6,3c0.1,4.9,0,9.8,0,14.7c0,0,0,0,0,0
		c0,5.1,0,10.2,0,15.3c0,1.2-0.1,2.7,1.8,1.6c7.3-4.2,14.6-8.5,21.9-12.7c14-8.1,28.1-16.3,42.1-24.4c6.2-3.6,12.5-7,18.7-10.6
		C397.6,376.4,397.7,375.5,394.9,373.9z"/>
	<path class="st0" d="M299.3,391.4c-9.8-1.3-19.2-3.7-28-8.4c-9.4-5-17.3-11.6-23.9-19.9c-1.1-1.4-1.9-3.3-3.4-4.1
		c-2.1-1.2-3.2,1.4-4.7,2.2c-8.1,4.4-15.9,9.1-23.9,13.6c-1.6,0.9-1.6,1.2-0.1,2.2c5.4,3.6,11.1,6.5,16.6,9.8
		c6.4,3.8,12.9,7.5,19.4,11.2c4.1,2.4,8.3,4.6,12.4,7c7.2,4.2,14.4,8.4,21.6,12.5c4.6,2.7,9.3,5.3,14,8c0.6,0.3,0.9,1.5,1.7,0.9
		c0.4-0.3,0.4-1.2,0.4-1.8c0-5.1,0-10.2,0-15.3c0,0,0,0,0,0c0-5.1,0-10.2,0-15.3C301.5,392.5,301.2,391.7,299.3,391.4z"/>
	<path class="st0" d="M309.8,237.5c0,6,0,5.9,5.9,6.9c11.1,2,21.6,5.5,31.1,12c7,4.8,12.9,10.4,18.1,17c1,1.3,1.1,3.5,3,3.8
		c1.9,0.3,2.9-1.6,4.3-2.4c7.8-4.3,15.5-8.6,23.3-12.9c1.6-0.9,2.3-1.9,0.1-3.1c-4.6-2.5-9.2-5-13.8-7.7
		c-13.6-7.8-27.2-15.7-40.8-23.6c-7.9-4.6-15.8-9.4-23.7-14c-2-1.2-4.1-2.2-6.2-3.2c-1.8,0-1.4,1.4-1.4,2.3
		C309.8,221,309.8,229.3,309.8,237.5z"/>
	<path class="st0" d="M859.9,260.8c0-7.8-0.9-15.4-3.7-22.8c-4.3-11.4-11.6-19.9-22.7-24.7c-10.7-4.7-21.9-4.2-33.1-1.6
		c-1.9,0.5-3.8,1.3-5.6,2.3c-7.4,3.9-13.5,9.3-18.4,16.2c-0.5,0.8-1,2.1-2.4,1.2l0,0c0-0.2,0.1-0.4,0.1-0.6c0-34.1,0-68.3,0.1-102.4
		c0-2.1-0.9-2.4-2.6-2.4c-12.8,0.1-25.5,0.1-38.3,0c-2.4,0-3.1,0.7-3,3.1c0.1,9.8,0.1,19.6,0.1,29.3c0,88.1,0,176.3,0,264.4
		c0,4.5,0,4.5,4.5,4.5c11.9,0,23.8-0.1,35.7,0.1c2.9,0,3.7-0.8,3.7-3.7c-0.1-36.7-0.1-73.4-0.1-110c0-13.2,0.1-26.4,0.1-39.5
		c0.2-0.9,0.4-1.9,0.6-2.8c1.5-6.2,3.5-11.9,9.5-15.4c4-2.3,8-2.4,12.3-2.5c10-0.2,17.6,8.2,19,17.2c0.8,5.1,0.9,10.1,0.9,15.3
		c0,45.9,0,91.9,0,137.8c0,2.7,0.5,3.7,3.5,3.7c12.1-0.2,24.2-0.1,36.4,0c2.7,0,3.6-0.6,3.6-3.5C859.9,369.5,860,315.1,859.9,260.8z
		 M773.6,232.2c-0.1,0.3,0,0.7,0,1c0.3,0.5,0.6,0.9,0.9,1c0.1,0.1,0.3,0.1,0.4,0c-0.2,0-0.3,0-0.4,0c-0.3-0.1-0.6-0.5-0.9-1
		C773.6,232.9,773.5,232.5,773.6,232.2z"/>
	<path class="st0" d="M299.2,210.6c-8.7,5.2-17.6,10.1-26.3,15.3c-9,5.3-18.1,10.4-27.2,15.7c-9.9,5.7-19.8,11.3-29.7,17
		c-3,1.7-3,1.9,0.2,3.7c8.4,4.8,16.9,9.6,25.3,14.5c1.6,0.9,2.4,0.6,3.4-0.7c1.7-2.3,3.5-4.5,4.9-7c0.2-0.2,0.4-0.4,0.6-0.6
		c0.5-0.4,1-0.7,1.4-1.2c4.8-5.4,10.6-9.6,16.8-13.2c9.4-5.6,19.8-8.5,30.7-9.8c1.3-0.2,2.5-0.2,2.5-2.1c0-10.1,0-20.2-0.1-30.3
		C301.7,210,301.1,209.4,299.2,210.6z"/>
	<path class="st0" d="M399.7,268.8c-2.5,0.8-4.3,2.7-6.5,3.9c-6.5,3.5-12.8,7.3-19.3,11c-1.6,0.9-2.1,1.7-1.1,3.5
		c4,7.7,5.8,16,6.6,24.6c0.5,5.3-0.2,10.6-0.1,15.9c0,0.4-0.1,0.9-0.1,1.3c-2.3,6.9-3.2,14.4-7.1,20.8c-0.6,0.9-0.3,1.7,0.6,2.1
		c4.2,1.9,7.5,5.4,12.1,6.5c0,0.1,0.1,0.2,0.2,0.1c3.7,3.8,8.8,5.2,13.1,8.1c3.4,2.3,3.6,1.9,3.6-2.5c0-29.5,0-59.1,0-88.6
		c0-1.7,0-3.4,0-5.1C401.9,268.8,401.7,268.2,399.7,268.8z"/>
</g>
</svg>
