<?xml version="1.0" encoding="utf-8"?>
<!-- Generator: Adobe Illustrator 21.0.0, SVG Export Plug-In . SVG Version: 6.00 Build 0)  -->
<svg version="1.1" id="Layer_1" xmlns="http://www.w3.org/2000/svg" xmlns:xlink="http://www.w3.org/1999/xlink" x="0px" y="0px"
	 viewBox="0 0 130 70" style="enable-background:new 0 0 130 70;" xml:space="preserve">
<style type="text/css">
	.st0{fill:#FDBD39;}
	.st1{fill:#F69833;}
	.st2{fill:#FECF33;}
	.st3{fill:#EE6723;}
</style>
<g>
	<path class="st0" d="M41.5,45.3l-3.6,1.3l-0.2,10.6l12.3-4.5C45.8,51.3,42.7,48.7,41.5,45.3"/>
	<path class="st1" d="M43.3,34.1L31,38.6l6.9,8l3.6-1.3C40.2,41.8,41,38,43.3,34.1"/>
	<path class="st2" d="M64.1,18.8c-15.7,5.7-25.9,17.6-22.6,26.5l56.8-20.8C95.2,15.7,79.8,13.1,64.1,18.8"/>
	<path class="st3" d="M75.8,51c15.7-5.7,25.9-17.6,22.6-26.5L41.5,45.3C44.7,54.3,60,56.7,75.8,51"/>
	<path class="st1" d="M98.4,24.5L41.5,45.3c1.1,3.1,5.4,4.6,11.3,4.6c5.8,0,13.3-1.5,21-4.3C89.5,39.9,100.6,30.6,98.4,24.5"/>
	<path class="st0" d="M87.1,19.9c-5.8,0-13.3,1.5-21,4.3C50.3,30,39.2,39.3,41.5,45.3l56.9-20.8C97.3,21.4,93,19.9,87.1,19.9"/>
	<g>
		<path class="st3" d="M83.9,57.8c-1.7,0-4.1-1.5-7.4-4.5c-3.8-3.5-8.1-8.7-12.2-14.5S56.9,27,54.9,22.3c-2.2-5.2-2.5-8.4-0.9-9.5
			c0.4-0.2,0.8-0.4,1.2-0.4c1.2,0,3.8,0.9,8.4,5.5l0.1,0.1v0.2c0,0.3-0.1,0.6-0.1,1l-0.1,0.6l-0.5-0.5c-5-5-7.1-5.5-7.8-5.5
			c-0.2,0-0.4,0.1-0.5,0.2c-0.7,0.5-0.7,2.8,1.4,7.8c1.9,4.7,5.3,10.5,9.3,16.2s8.3,10.9,12,14.4c4,3.7,5.8,4.1,6.4,4.1
			c0.2,0,0.4-0.1,0.5-0.2c0.7-0.5,0.7-3-1.6-8.5l-0.1-0.2l0.2-0.2c0.2-0.2,0.5-0.2,0.7-0.4l0.3-0.2l0.2,0.3
			c1.7,3.9,3.3,8.8,1.2,10.2C84.8,57.6,84.3,57.8,83.9,57.8L83.9,57.8z M83.9,57.1v0.3V57.1z"/>
		<path class="st3" d="M76.2,50.8v0.3c-0.5,4.9-1.5,10.8-4.2,11c-0.1,0-0.1,0-0.2,0c-1.9,0-3.6-2.6-5.2-7.9
			c-1.6-5-2.7-11.6-3.3-18.7c-0.6-7.1-0.6-13.9,0-19c0.7-5.6,2-8.5,4-8.7c0.1,0,0.1,0,0.2,0c1.3,0,3.3,1.6,5.4,8.6l-1.3,0.2
			c-0.7-2.3-1.5-4.3-2.2-5.6c-0.7-1.2-1.4-1.9-1.9-1.9c0,0,0,0-0.1,0c-0.9,0.1-2,2.1-2.7,7.5c-0.6,5-0.6,11.7,0,18.7
			c0.6,7.1,1.8,13.6,3.3,18.5c0.7,2.2,1.4,4,2.1,5.2c0.7,1.1,1.3,1.7,1.8,1.7c0,0,0,0,0.1,0c0.8-0.1,2.3-2.2,3-9.6L76.2,50.8z"/>
	</g>
</g>
</svg>
